<svg width="241" height="174" viewBox="0 0 241 174" fill="none" xmlns="http://www.w3.org/2000/svg">
<mask id="path-1-inside-1_242_61127" fill="white">
<path fill-rule="evenodd" clip-rule="evenodd" d="M122.129 45.9695H4.24805V124.415V125.688H4.31372C5.77895 139.85 31.5777 151.129 63.1885 151.129C94.7994 151.129 120.598 139.85 122.063 125.688H122.129V124.415V45.9695Z"/>
</mask>
<path fill-rule="evenodd" clip-rule="evenodd" d="M122.129 45.9695H4.24805V124.415V125.688H4.31372C5.77895 139.85 31.5777 151.129 63.1885 151.129C94.7994 151.129 120.598 139.85 122.063 125.688H122.129V124.415V45.9695Z" fill="white"/>
<path d="M4.24805 45.9695V41.7292H0.00772524V45.9695H4.24805ZM122.129 45.9695H126.369V41.7292H122.129V45.9695ZM4.24805 125.688H0.00772524V129.928H4.24805V125.688ZM4.31372 125.688L8.53153 125.251L8.13799 121.447H4.31372V125.688ZM122.063 125.688V121.447H118.239L117.846 125.251L122.063 125.688ZM122.129 125.688V129.928H126.369V125.688H122.129ZM4.24805 50.2098H122.129V41.7292H4.24805V50.2098ZM8.48837 124.415V45.9695H0.00772524V124.415H8.48837ZM8.48837 125.688V124.415H0.00772524V125.688H8.48837ZM4.31372 121.447H4.24805V129.928H4.31372V121.447ZM63.1885 146.889C47.836 146.889 34.0796 144.143 24.1336 139.829C13.8336 135.362 9.01175 129.893 8.53153 125.251L0.0959105 126.124C1.08092 135.645 9.89107 142.896 20.7594 147.61C31.9818 152.477 46.9302 155.37 63.1885 155.37V146.889ZM117.846 125.251C117.365 129.893 112.544 135.362 102.243 139.829C92.2974 144.143 78.5411 146.889 63.1885 146.889V155.37C79.4469 155.37 94.3953 152.477 105.618 147.61C116.486 142.896 125.296 135.645 126.281 126.124L117.846 125.251ZM122.129 121.447H122.063V129.928H122.129V121.447ZM117.889 124.415V125.688H126.369V124.415H117.889ZM117.889 45.9695V124.415H126.369V45.9695H117.889Z" fill="black" mask="url(#path-1-inside-1_242_61127)"/>
<mask id="path-3-inside-2_242_61127" fill="white">
<rect x="139.092" y="46.8175" width="80.5661" height="78.0219" rx="2.54419"/>
</mask>
<rect x="139.092" y="46.8175" width="80.5661" height="78.0219" rx="2.54419" fill="white"/>
<rect x="139.092" y="46.8175" width="80.5661" height="78.0219" rx="2.54419" stroke="black" stroke-width="8.48064" mask="url(#path-3-inside-2_242_61127)"/>
<path d="M173.045 72.7632L173.571 73.3843L174.143 72.7632C174.033 72.7632 173.954 72.7251 173.904 72.6489C173.855 72.5694 173.83 72.4452 173.83 72.2762C173.83 72.1106 173.871 71.9847 173.954 71.8986C174.04 71.8091 174.164 71.7644 174.327 71.7644H175.385C175.607 71.7644 175.766 71.8075 175.862 71.8936C175.958 71.9797 176.006 72.1205 176.006 72.316C176.006 72.4982 175.958 72.634 175.862 72.7235C175.769 72.8096 175.624 72.8526 175.425 72.8526H175.231L174.192 73.9856L175.435 75.2577H175.549C175.741 75.2577 175.885 75.3041 175.981 75.3968C176.081 75.4863 176.13 75.6221 176.13 75.8043C176.13 75.9998 176.079 76.1406 175.976 76.2267C175.877 76.3128 175.715 76.3559 175.489 76.3559H174.287C174.125 76.3559 174 76.3128 173.914 76.2267C173.831 76.1372 173.79 76.0114 173.79 75.849C173.79 75.6768 173.815 75.5525 173.865 75.4763C173.918 75.3968 174 75.3571 174.113 75.3571H174.153L173.522 74.6564L172.91 75.3571H172.93C173.05 75.3571 173.136 75.3952 173.189 75.4714C173.242 75.5443 173.268 75.6585 173.268 75.8142C173.268 75.9998 173.227 76.1372 173.144 76.2267C173.064 76.3128 172.94 76.3559 172.771 76.3559H171.713C171.488 76.3559 171.327 76.3128 171.231 76.2267C171.138 76.1406 171.092 75.9998 171.092 75.8043C171.092 75.6221 171.136 75.4863 171.226 75.3968C171.319 75.3041 171.456 75.2577 171.638 75.2577H171.733L172.91 74.0651L171.773 72.8526H171.618C171.423 72.8526 171.276 72.8079 171.176 72.7185C171.077 72.629 171.027 72.4949 171.027 72.316C171.027 72.1205 171.077 71.9797 171.176 71.8936C171.276 71.8075 171.436 71.7644 171.658 71.7644H172.861C173.03 71.7644 173.154 71.8091 173.233 71.8986C173.316 71.988 173.358 72.1238 173.358 72.306C173.358 72.4584 173.331 72.5727 173.278 72.6489C173.228 72.7251 173.151 72.7632 173.045 72.7632Z" fill="black"/>
<path d="M179.663 74.5571C179.975 74.5571 180.225 74.6432 180.414 74.8155C180.606 74.9844 180.702 75.2064 180.702 75.4813C180.702 75.7596 180.606 75.9865 180.414 76.1621C180.225 76.3377 179.975 76.4255 179.663 76.4255C179.359 76.4255 179.11 76.3377 178.918 76.1621C178.726 75.9832 178.63 75.7563 178.63 75.4813C178.63 75.2097 178.726 74.9877 178.918 74.8155C179.11 74.6432 179.359 74.5571 179.663 74.5571ZM179.663 71.9085C179.975 71.9085 180.223 71.9946 180.409 72.1669C180.598 72.3359 180.692 72.5578 180.692 72.8328C180.692 73.1144 180.598 73.3429 180.409 73.5185C180.22 73.6941 179.972 73.7819 179.663 73.7819C179.359 73.7819 179.11 73.6941 178.918 73.5185C178.726 73.3396 178.63 73.111 178.63 72.8328C178.63 72.5578 178.724 72.3359 178.913 72.1669C179.105 71.9946 179.355 71.9085 179.663 71.9085Z" fill="black"/>
<path d="M186.531 75.2975H187.336C187.558 75.2975 187.718 75.3389 187.818 75.4217C187.917 75.5045 187.967 75.6403 187.967 75.8292C187.967 76.0147 187.919 76.1488 187.823 76.2317C187.727 76.3145 187.564 76.3559 187.336 76.3559H184.404C184.175 76.3559 184.013 76.3145 183.917 76.2317C183.821 76.1488 183.773 76.0147 183.773 75.8292C183.773 75.6403 183.821 75.5045 183.917 75.4217C184.016 75.3389 184.179 75.2975 184.404 75.2975H185.328V71.1035L184.772 71.2476C184.686 71.2675 184.614 71.2824 184.558 71.2923C184.502 71.3023 184.46 71.3072 184.434 71.3072C184.298 71.3072 184.192 71.2642 184.116 71.1781C184.043 71.0919 184.006 70.9693 184.006 70.8103C184.006 70.6944 184.048 70.5967 184.131 70.5172C184.214 70.4377 184.341 70.3764 184.513 70.3333L185.746 69.9954C185.848 69.9689 185.933 69.949 185.999 69.9358C186.065 69.9225 186.12 69.9159 186.163 69.9159C186.296 69.9159 186.39 69.9523 186.446 70.0252C186.503 70.0981 186.531 70.2207 186.531 70.3929V75.2975Z" fill="black"/>
<path d="M172.677 85.4583L173.571 87.5752L174.51 85.4583H174.431C174.252 85.4583 174.115 85.412 174.019 85.3192C173.926 85.2264 173.879 85.0906 173.879 84.9117C173.879 84.7163 173.926 84.5771 174.019 84.4943C174.115 84.4115 174.279 84.3701 174.51 84.3701H175.678C175.91 84.3701 176.072 84.4132 176.165 84.4993C176.261 84.5821 176.309 84.7196 176.309 84.9117C176.309 85.0906 176.263 85.2264 176.17 85.3192C176.077 85.412 175.942 85.4583 175.763 85.4583H175.678L173.636 89.8461H173.86C174.085 89.8461 174.245 89.8891 174.342 89.9753C174.441 90.0614 174.491 90.2022 174.491 90.3976C174.491 90.5898 174.441 90.7289 174.342 90.8151C174.245 90.9012 174.085 90.9442 173.86 90.9442H171.683C171.454 90.9442 171.292 90.9012 171.196 90.8151C171.1 90.7322 171.052 90.5931 171.052 90.3976C171.052 90.2022 171.1 90.0614 171.196 89.9753C171.292 89.8891 171.454 89.8461 171.683 89.8461H172.453L172.92 88.8473L171.415 85.4583H171.335C171.156 85.4583 171.019 85.412 170.923 85.3192C170.83 85.2264 170.784 85.0906 170.784 84.9117C170.784 84.7163 170.832 84.5771 170.928 84.4943C171.024 84.4115 171.186 84.3701 171.415 84.3701H172.677C172.905 84.3701 173.068 84.4132 173.164 84.4993C173.26 84.5821 173.308 84.7196 173.308 84.9117C173.308 85.0906 173.26 85.2264 173.164 85.3192C173.071 85.412 172.937 85.4583 172.761 85.4583H172.677Z" fill="black"/>
<path d="M179.663 87.1627C179.975 87.1627 180.225 87.2489 180.414 87.4211C180.606 87.5901 180.702 87.812 180.702 88.087C180.702 88.3653 180.606 88.5922 180.414 88.7678C180.225 88.9433 179.975 89.0311 179.663 89.0311C179.359 89.0311 179.11 88.9433 178.918 88.7678C178.726 88.5889 178.63 88.362 178.63 88.087C178.63 87.8154 178.726 87.5934 178.918 87.4211C179.11 87.2489 179.359 87.1627 179.663 87.1627ZM179.663 84.5142C179.975 84.5142 180.223 84.6003 180.409 84.7726C180.598 84.9415 180.692 85.1635 180.692 85.4385C180.692 85.72 180.598 85.9486 180.409 86.1242C180.22 86.2998 179.972 86.3876 179.663 86.3876C179.359 86.3876 179.11 86.2998 178.918 86.1242C178.726 85.9453 178.63 85.7167 178.63 85.4385C178.63 85.1635 178.724 84.9415 178.913 84.7726C179.105 84.6003 179.355 84.5142 179.663 84.5142Z" fill="black"/>
<path d="M185.115 87.8435H186.854V87.8137C186.854 87.6447 186.899 87.5189 186.988 87.436C187.081 87.3532 187.217 87.3118 187.395 87.3118C187.541 87.3118 187.654 87.3532 187.733 87.436C187.813 87.5156 187.853 87.6298 187.853 87.7789V87.8435L187.813 88.6137C187.806 88.7661 187.781 88.8622 187.738 88.9019C187.699 88.9417 187.626 88.9616 187.52 88.9616H183.947C183.755 88.9616 183.606 88.9202 183.5 88.8373C183.397 88.7545 183.346 88.6369 183.346 88.4845C183.346 88.3586 183.377 88.2361 183.44 88.1168C183.506 87.9942 183.611 87.865 183.753 87.7292L185.776 85.7764C185.994 85.5643 186.156 85.3523 186.262 85.1403C186.372 84.9283 186.426 84.7163 186.426 84.5043C186.426 84.2061 186.354 83.9842 186.208 83.8384C186.065 83.6926 185.847 83.6198 185.552 83.6198C185.38 83.6198 185.226 83.6463 185.09 83.6993C184.957 83.749 184.855 83.8202 184.782 83.9129C184.742 83.9593 184.694 84.0305 184.638 84.1266C184.479 84.385 184.303 84.5142 184.111 84.5142C183.945 84.5142 183.819 84.4595 183.733 84.3502C183.65 84.2409 183.609 84.0786 183.609 83.8632C183.609 83.6413 183.635 83.4756 183.688 83.3663C183.741 83.257 183.847 83.1477 184.006 83.0384C184.265 82.8661 184.537 82.7386 184.821 82.6557C185.11 82.5729 185.421 82.5315 185.756 82.5315C186.382 82.5315 186.877 82.7005 187.241 83.0384C187.609 83.3763 187.793 83.8301 187.793 84.3999C187.793 84.7809 187.697 85.1469 187.505 85.4981C187.316 85.8459 187.021 86.1938 186.62 86.5416L185.115 87.8435Z" fill="black"/>
<path d="M172.93 100.568H174.55L174.58 100.226C174.6 99.9705 174.646 99.8032 174.719 99.7237C174.795 99.6442 174.923 99.6044 175.102 99.6044C175.274 99.6044 175.398 99.6525 175.475 99.7485C175.551 99.8413 175.589 100 175.589 100.226V100.956C175.589 101.218 175.557 101.385 175.494 101.458C175.431 101.531 175.272 101.567 175.017 101.567H171.927C171.728 101.567 171.577 101.526 171.474 101.443C171.375 101.357 171.325 101.233 171.325 101.07C171.325 100.978 171.347 100.883 171.39 100.787C171.433 100.691 171.493 100.602 171.569 100.519L173.979 97.9746H172.453V98.2081C172.453 98.4201 172.412 98.5791 172.329 98.6852C172.25 98.7879 172.125 98.8392 171.956 98.8392C171.771 98.8392 171.638 98.7928 171.559 98.7001C171.483 98.6073 171.445 98.4433 171.445 98.2081V97.577C171.445 97.3186 171.474 97.1547 171.534 97.0851C171.597 97.0122 171.758 96.9758 172.016 96.9758H174.948C175.153 96.9758 175.306 97.0188 175.405 97.105C175.508 97.1911 175.559 97.322 175.559 97.4975C175.559 97.5837 175.536 97.6715 175.489 97.7609C175.446 97.8503 175.382 97.9414 175.296 98.0342L172.93 100.568Z" fill="black"/>
<path d="M179.663 99.7684C179.975 99.7684 180.225 99.8546 180.414 100.027C180.606 100.196 180.702 100.418 180.702 100.693C180.702 100.971 180.606 101.198 180.414 101.373C180.225 101.549 179.975 101.637 179.663 101.637C179.359 101.637 179.11 101.549 178.918 101.373C178.726 101.195 178.63 100.968 178.63 100.693C178.63 100.421 178.726 100.199 178.918 100.027C179.11 99.8546 179.359 99.7684 179.663 99.7684ZM179.663 97.1199C179.975 97.1199 180.223 97.206 180.409 97.3783C180.598 97.5472 180.692 97.7692 180.692 98.0441C180.692 98.3257 180.598 98.5543 180.409 98.7299C180.22 98.9055 179.972 98.9932 179.663 98.9932C179.359 98.9932 179.11 98.9055 178.918 98.7299C178.726 98.551 178.63 98.3224 178.63 98.0441C178.63 97.7692 178.724 97.5472 178.913 97.3783C179.105 97.206 179.355 97.1199 179.663 97.1199Z" fill="black"/>
<path d="M186.685 98.1584C187.066 98.2777 187.349 98.4665 187.535 98.7249C187.72 98.98 187.813 99.3129 187.813 99.7237C187.813 100.343 187.602 100.835 187.182 101.2C186.764 101.561 186.195 101.741 185.472 101.741C184.889 101.741 184.407 101.645 184.026 101.453C183.645 101.261 183.455 101.027 183.455 100.752C183.455 100.59 183.506 100.459 183.609 100.36C183.715 100.257 183.854 100.206 184.026 100.206C184.109 100.206 184.32 100.28 184.657 100.429C184.995 100.578 185.294 100.653 185.552 100.653C185.863 100.653 186.102 100.57 186.267 100.404C186.436 100.236 186.521 99.9953 186.521 99.684C186.521 99.3494 186.45 99.1108 186.307 98.9684C186.168 98.8259 185.9 98.7464 185.502 98.7299C185.294 98.7233 185.153 98.6835 185.08 98.6106C185.01 98.5344 184.975 98.4003 184.975 98.2081C184.975 97.9431 185.118 97.7907 185.403 97.751C185.443 97.7476 185.472 97.7443 185.492 97.741C185.85 97.6913 186.082 97.6069 186.188 97.4876C186.294 97.365 186.347 97.1679 186.347 96.8963C186.347 96.6611 186.282 96.4789 186.153 96.3497C186.027 96.2172 185.848 96.1509 185.616 96.1509C185.371 96.1509 185.096 96.2288 184.792 96.3844C184.487 96.5368 184.276 96.613 184.161 96.613C184.031 96.613 183.927 96.5716 183.847 96.4888C183.771 96.4027 183.733 96.295 183.733 96.1658C183.733 95.8842 183.929 95.6424 184.32 95.4403C184.71 95.2382 185.192 95.1372 185.766 95.1372C186.342 95.1372 186.801 95.2863 187.142 95.5844C187.487 95.8826 187.659 96.2784 187.659 96.772C187.659 97.0967 187.579 97.3716 187.42 97.5969C187.265 97.8189 187.019 98.006 186.685 98.1584Z" fill="black"/>
<path d="M120.011 46.8172C120.011 49.7599 118.683 52.7212 115.961 55.5916C113.229 58.4731 109.175 61.1644 104.004 63.4708C93.6683 68.0812 79.2403 70.9871 63.1909 70.9871C47.1415 70.9871 32.7135 68.0812 22.3773 63.4708C17.2067 61.1644 13.1531 58.4731 10.4207 55.5916C7.69878 52.7212 6.37056 49.7599 6.37056 46.8172C6.37056 43.8746 7.69878 40.9132 10.4207 38.0428C13.1531 35.1613 17.2067 32.47 22.3773 30.1637C32.7135 25.5533 47.1415 22.6474 63.1909 22.6474C79.2403 22.6474 93.6683 25.5533 104.004 30.1637C109.175 32.47 113.229 35.1613 115.961 38.0428C118.683 40.9132 120.011 43.8746 120.011 46.8172Z" fill="white" stroke="black" stroke-width="4.24032"/>
<mask id="mask0_242_61127" style="mask-type:alpha" maskUnits="userSpaceOnUse" x="0" y="101" width="125" height="32">
<rect width="124.665" height="31.3784" transform="matrix(1 0 0 -1 0.0117188 132.471)" fill="#D9D9D9"/>
</mask>
<g mask="url(#mask0_242_61127)">
<path d="M120.863 99.8212C120.863 106.391 114.929 112.756 104.346 117.552C93.8801 122.296 79.3318 125.263 63.1942 125.263C47.0566 125.263 32.5084 122.296 22.0421 117.552C11.4598 112.756 5.52582 106.391 5.52582 99.8212L5.52593 84.2561L5.52601 78.1229L5.52602 76.9235H120.863V76.9473V76.9747V77.0023V77.0301V77.0582V77.0866V77.1152V77.1441V77.1732V77.2026V77.2322V77.2621V77.2922V77.3226V77.3532V77.384V77.4151V77.4465V77.478V77.5099V77.5419V77.5742V77.6068V77.6396V77.6726V77.7058V77.7393V77.773V77.807V77.8411V77.8756V77.9102V77.9451V77.9802V78.0155V78.0511V78.0868V78.1228V78.1591V78.1955V78.2322V78.2691V78.3062V78.3435V78.3811V78.4188V78.4568V78.495V78.5334V78.572V78.6109V78.6499V78.6892V78.7286V78.7683V78.8082V78.8483V78.8886V78.9291V78.9698V79.0107V79.0518V79.0932V79.1347V79.1764V79.2183V79.2604V79.3027V79.3452V79.3879V79.4308V79.4739V79.5172V79.5607V79.6043V79.6482V79.6922V79.7364V79.7809V79.8255V79.8702V79.9152V79.9604V80.0057V80.0512V80.0969V80.1428V80.1888V80.2351V80.2815V80.3281V80.3748V80.4218V80.4689V80.5161V80.5636V80.6112V80.659V80.707V80.7551V80.8034V80.8518V80.9005V80.9493V80.9982V81.0473V81.0966V81.146V81.1956V81.2454V81.2953V81.3454V81.3956V81.446V81.4965V81.5472V81.598V81.649V81.7001V81.7514V81.8028V81.8544V81.9062V81.958V82.0101V82.0622V82.1145V82.167V82.2196V82.2723V82.3252V82.3782V82.4313V82.4846V82.538V82.5915V82.6452V82.699V82.753V82.8071V82.8613V82.9156V82.9701V83.0247V83.0794V83.1342V83.1892V83.2443V83.2995V83.3549V83.4103V83.4659V83.5216V83.5774V83.6334V83.6894V83.7456V83.8018V83.8582V83.9147V83.9714V84.0281V84.0849V84.1419V84.1989V84.2561V84.3134V84.3707V84.4282V84.4858V84.5435V84.6013V84.6592V84.7171V84.7752V84.8334V84.8917V84.9501V85.0085V85.0671V85.1258V85.1845V85.2434V85.3023V85.3613V85.4204V85.4796V85.5389V85.5983V85.6577V85.7173V85.7769V85.8366V85.8964V85.9563V86.0162V86.0763V86.1364V86.1966V86.2568V86.3171V86.3776V86.438V86.4986V86.5592V86.6199V86.6807V86.7415V86.8024V86.8634V86.9244V86.9855V87.0467V87.1079V87.1692V87.2305V87.292V87.3534V87.415V87.4765V87.5382V87.5999V87.6616V87.7234V87.7853V87.8472V87.9092V87.9712V88.0333V88.0954V88.1575V88.2197V88.282V88.3443V88.4066V88.469V88.5314V88.5939V88.6564V88.719V88.7815V88.8442V88.9068V88.9695V89.0322V89.095V89.1578V89.2206V89.2835V89.3464V89.4093V89.4722V89.5352V89.5982V89.6613V89.7243V89.7874V89.8505V89.9136V89.9767V90.0399V90.1031V90.1663V90.2295V90.2927V90.356V90.4192V90.4825V90.5458V90.6091V90.6724V90.7357V90.7991V90.8624V90.9257V90.9891V91.0524V91.1158V91.1792V91.2425V91.3059V91.3693V91.4327V91.496V91.5594V91.6228V91.6861V91.7495V91.8128V91.8762V91.9395V92.0028V92.0661V92.1295V92.1928V92.256V92.3193V92.3826V92.4458V92.509V92.5723V92.6355V92.6986V92.7618V92.8249V92.888V92.9511V93.0142V93.0772V93.1403V93.2033V93.2662V93.3292V93.3921V93.455V93.5178V93.5806V93.6434V93.7062V93.7689V93.8316V93.8943V93.9569V94.0194V94.082V94.1445V94.2069V94.2694V94.3317V94.3941V94.4564V94.5186V94.5808V94.643V94.7051V94.7671V94.8291V94.8911V94.953V95.0148V95.0766V95.1384V95.2V95.2617V95.3233V95.3848V95.4462V95.5076V95.569V95.6302V95.6915V95.7526V95.8137V95.8747V95.9357V95.9966V96.0574V96.1181V96.1788V96.2394V96.3V96.3604V96.4208V96.4812V96.5414V96.6016V96.6617V96.7217V96.7816V96.8415V96.9012V96.9609V97.0205V97.0801V97.1395V97.1989V97.2581V97.3173V97.3764V97.4354V97.4943V97.5532V97.6119V97.6705V97.7291V97.7875V97.8459V97.9042V97.9623V98.0204V98.0784V98.1362V98.194V98.2517V98.3092V98.3667V98.424V98.4813V98.5384V98.5954V98.6524V98.7092V98.7659V98.8225V98.879V98.9354V98.9916V99.0478V99.1038V99.1597V99.2155V99.2712V99.3267V99.3822V99.4375V99.4927V99.5477V99.6027V99.6575V99.7122V99.7668V99.8212Z" stroke="black" stroke-width="2.54419"/>
</g>
<mask id="mask1_242_61127" style="mask-type:alpha" maskUnits="userSpaceOnUse" x="0" y="74" width="125" height="33">
<rect width="124.665" height="31.3784" transform="matrix(1 0 0 -1 0.0117188 106.181)" fill="#D9D9D9"/>
</mask>
<g mask="url(#mask1_242_61127)">
<path d="M120.863 73.531C120.863 80.1004 114.929 86.4658 104.346 91.2621C93.8801 96.0058 79.3318 98.973 63.1942 98.973C47.0566 98.973 32.5084 96.0058 22.0421 91.2621C11.4598 86.4658 5.52582 80.1004 5.52582 73.531L5.52593 57.966L5.52601 51.8327L5.52602 50.6333H120.863V50.6572V50.6845V50.7121V50.74V50.7681V50.7964V50.8251V50.8539V50.8831V50.9124V50.9421V50.9719V51.002V51.0324V51.063V51.0939V51.125V51.1563V51.1879V51.2197V51.2518V51.2841V51.3166V51.3494V51.3824V51.4157V51.4491V51.4829V51.5168V51.551V51.5854V51.62V51.6549V51.69V51.7253V51.7609V51.7967V51.8327V51.8689V51.9053V51.942V51.9789V52.016V52.0533V52.0909V52.1287V52.1666V52.2048V52.2432V52.2819V52.3207V52.3598V52.399V52.4385V52.4782V52.518V52.5581V52.5984V52.6389V52.6797V52.7206V52.7617V52.803V52.8445V52.8862V52.9281V52.9702V53.0126V53.0551V53.0978V53.1407V53.1837V53.227V53.2705V53.3142V53.358V53.402V53.4463V53.4907V53.5353V53.5801V53.625V53.6702V53.7155V53.761V53.8067V53.8526V53.8987V53.9449V53.9913V54.0379V54.0847V54.1316V54.1787V54.226V54.2734V54.3211V54.3688V54.4168V54.4649V54.5132V54.5617V54.6103V54.6591V54.708V54.7572V54.8064V54.8559V54.9055V54.9552V55.0051V55.0552V55.1054V55.1558V55.2063V55.257V55.3078V55.3588V55.41V55.4613V55.5127V55.5643V55.616V55.6679V55.7199V55.7721V55.8244V55.8768V55.9294V55.9821V56.035V56.088V56.1411V56.1944V56.2478V56.3014V56.3551V56.4089V56.4628V56.5169V56.5711V56.6255V56.6799V56.7345V56.7892V56.8441V56.8991V56.9542V57.0094V57.0647V57.1202V57.1757V57.2314V57.2873V57.3432V57.3992V57.4554V57.5117V57.5681V57.6246V57.6812V57.7379V57.7948V57.8517V57.9088V57.9659V58.0232V58.0806V58.1381V58.1956V58.2533V58.3111V58.369V58.427V58.4851V58.5432V58.6015V58.6599V58.7184V58.7769V58.8356V58.8944V58.9532V59.0121V59.0712V59.1303V59.1895V59.2488V59.3081V59.3676V59.4271V59.4868V59.5465V59.6063V59.6661V59.7261V59.7861V59.8462V59.9064V59.9667V60.027V60.0874V60.1479V60.2084V60.2691V60.3298V60.3905V60.4514V60.5123V60.5732V60.6343V60.6954V60.7565V60.8177V60.879V60.9404V61.0018V61.0633V61.1248V61.1864V61.248V61.3097V61.3715V61.4333V61.4951V61.5571V61.619V61.681V61.7431V61.8052V61.8674V61.9296V61.9918V62.0541V62.1165V62.1789V62.2413V62.3037V62.3663V62.4288V62.4914V62.554V62.6167V62.6794V62.7421V62.8049V62.8676V62.9305V62.9933V63.0562V63.1191V63.1821V63.2451V63.3081V63.3711V63.4341V63.4972V63.5603V63.6234V63.6866V63.7497V63.8129V63.8761V63.9393V64.0026V64.0658V64.1291V64.1923V64.2556V64.3189V64.3822V64.4456V64.5089V64.5722V64.6356V64.6989V64.7623V64.8256V64.889V64.9524V65.0157V65.0791V65.1425V65.2059V65.2692V65.3326V65.396V65.4593V65.5227V65.586V65.6493V65.7127V65.776V65.8393V65.9026V65.9659V66.0292V66.0924V66.1557V66.2189V66.2821V66.3453V66.4085V66.4716V66.5348V66.5979V66.661V66.724V66.7871V66.8501V66.9131V66.9761V67.039V67.1019V67.1648V67.2277V67.2905V67.3533V67.416V67.4788V67.5414V67.6041V67.6667V67.7293V67.7918V67.8543V67.9168V67.9792V68.0416V68.1039V68.1662V68.2284V68.2906V68.3528V68.4149V68.4769V68.539V68.6009V68.6628V68.7247V68.7865V68.8482V68.9099V68.9715V69.0331V69.0946V69.1561V69.2175V69.2788V69.3401V69.4013V69.4625V69.5235V69.5846V69.6455V69.7064V69.7672V69.828V69.8887V69.9493V70.0098V70.0703V70.1307V70.191V70.2512V70.3114V70.3715V70.4315V70.4914V70.5513V70.6111V70.6708V70.7304V70.7899V70.8493V70.9087V70.968V71.0272V71.0863V71.1453V71.2042V71.263V71.3217V71.3804V71.4389V71.4974V71.5557V71.614V71.6722V71.7302V71.7882V71.8461V71.9038V71.9615V72.0191V72.0765V72.1339V72.1911V72.2483V72.3053V72.3622V72.419V72.4757V72.5323V72.5888V72.6452V72.7014V72.7576V72.8136V72.8695V72.9253V72.981V73.0366V73.092V73.1473V73.2025V73.2576V73.3125V73.3673V73.422V73.4766V73.531Z" stroke="black" stroke-width="2.54419"/>
</g>
<path d="M65.8318 155.09C65.8318 154.388 65.2622 153.818 64.5597 153.818C63.8571 153.818 63.2876 154.388 63.2876 155.09L65.8318 155.09ZM64.5602 167.812L65.8323 167.811L64.5602 167.812ZM180.224 167.811H178.952H180.224ZM181.123 127.006C180.626 126.51 179.821 126.51 179.324 127.006L171.229 135.102C170.732 135.599 170.732 136.404 171.229 136.901C171.725 137.398 172.531 137.398 173.028 136.901L180.224 129.705L187.42 136.901C187.916 137.398 188.722 137.398 189.219 136.901C189.715 136.404 189.715 135.599 189.219 135.102L181.123 127.006ZM68.8006 172.052V170.78V172.052ZM175.983 172.052V173.324V172.052ZM63.2876 155.09L63.2881 167.812L65.8323 167.811L65.8318 155.09L63.2876 155.09ZM181.496 167.811L181.496 127.906L178.952 127.906L178.952 167.811H181.496ZM68.8006 173.324L175.983 173.324V170.78L68.8006 170.78V173.324ZM178.952 167.811C178.952 169.451 177.623 170.78 175.983 170.78V173.324C179.028 173.324 181.496 170.856 181.496 167.811H178.952ZM63.2881 167.812C63.2883 170.856 65.7562 173.324 68.8006 173.324V170.78C67.1613 170.78 65.8324 169.451 65.8323 167.811L63.2881 167.812Z" fill="black"/>
<path d="M178.782 43.425C178.782 44.1275 179.352 44.6971 180.054 44.6971C180.757 44.6971 181.326 44.1276 181.326 43.425L178.782 43.425ZM180.055 5.72052L181.327 5.72054V5.72054L180.055 5.72052ZM63.0264 5.71835L61.7543 5.71835V5.71835L63.0264 5.71835ZM62.127 47.7492C62.6238 48.246 63.4292 48.246 63.926 47.7492L72.0215 39.6536C72.5183 39.1568 72.5183 38.3514 72.0215 37.8546C71.5248 37.3578 70.7193 37.3578 70.2225 37.8546L63.0265 45.0507L55.8304 37.8546C55.3336 37.3578 54.5282 37.3578 54.0314 37.8546C53.5346 38.3514 53.5346 39.1568 54.0314 39.6536L62.127 47.7492ZM175.815 1.48014L175.815 0.208045L175.815 1.48014ZM67.2668 1.47803L67.2668 2.75012H67.2668L67.2668 1.47803ZM181.326 43.425L181.327 5.72054L178.783 5.7205L178.782 43.425L181.326 43.425ZM61.7543 5.71835L61.7544 46.8497H64.2986L64.2985 5.71835L61.7543 5.71835ZM175.815 0.208045L67.2669 0.205931L67.2668 2.75012L175.815 2.75224L175.815 0.208045ZM64.2985 5.71835C64.2985 4.07902 65.6275 2.75009 67.2668 2.75012L67.2669 0.205931C64.2224 0.205867 61.7543 2.67388 61.7543 5.71835L64.2985 5.71835ZM181.327 5.72054C181.327 2.67612 178.859 0.208107 175.815 0.208045L175.815 2.75224C177.454 2.75227 178.783 4.0812 178.783 5.7205L181.327 5.72054Z" fill="black"/>
<rect x="200.898" y="28.9013" width="37.5269" height="37.5269" rx="18.7634" fill="#82D44F"/>
<rect x="200.898" y="28.9013" width="37.5269" height="37.5269" rx="18.7634" stroke="white" stroke-width="3.18024" stroke-linejoin="round"/>
<path d="M210.755 48.182L215.797 53.5605C216.437 54.2432 217.515 54.2606 218.177 53.5989L228.564 43.2119" stroke="white" stroke-width="3.18024" stroke-linecap="round"/>
</svg>
