<svg width="261" height="158" viewBox="0 0 261 158" fill="none" xmlns="http://www.w3.org/2000/svg">
<rect x="1.46796" y="60.9803" width="112.422" height="72.2301" rx="1.45624" fill="white"/>
<rect x="1.46796" y="60.9803" width="112.422" height="72.2301" rx="1.45624" stroke="black" stroke-width="2.91248" stroke-linejoin="round"/>
<path d="M23.899 96.2258C23.5773 96.2258 23.3165 96.4866 23.3165 96.8083C23.3165 97.13 23.5773 97.3908 23.899 97.3908L23.899 96.2258ZM31.3009 97.2202C31.5283 96.9927 31.5283 96.6239 31.3009 96.3964L27.5939 92.6894C27.3664 92.462 26.9976 92.462 26.7701 92.6894C26.5426 92.9169 26.5426 93.2857 26.7701 93.5132L30.0652 96.8083L26.7701 100.103C26.5426 100.331 26.5426 100.7 26.7701 100.927C26.9976 101.155 27.3664 101.155 27.5939 100.927L31.3009 97.2202ZM23.899 97.3908L30.889 97.3908L30.889 96.2258L23.899 96.2258L23.899 97.3908Z" fill="black"/>
<path d="M69.9224 96.2258C69.6007 96.2258 69.3399 96.4866 69.3399 96.8083C69.3399 97.13 69.6007 97.3908 69.9224 97.3908L69.9224 96.2258ZM77.3243 97.2202C77.5518 96.9927 77.5518 96.6239 77.3243 96.3964L73.6173 92.6894C73.3898 92.462 73.021 92.462 72.7935 92.6894C72.566 92.9169 72.566 93.2857 72.7935 93.5132L76.0886 96.8083L72.7935 100.103C72.566 100.331 72.566 100.7 72.7935 100.927C73.021 101.155 73.3898 101.155 73.6173 100.927L77.3243 97.2202ZM69.9224 97.3908L76.9124 97.3908L76.9124 96.2258L69.9224 96.2258L69.9224 97.3908Z" fill="black"/>
<path d="M47.2037 96.2258C46.882 96.2258 46.6212 96.4866 46.6212 96.8083C46.6212 97.13 46.882 97.3908 47.2037 97.3908L47.2037 96.2258ZM54.6055 97.2202C54.833 96.9927 54.833 96.6239 54.6055 96.3964L50.8986 92.6894C50.6711 92.462 50.3023 92.462 50.0748 92.6894C49.8473 92.9169 49.8473 93.2857 50.0748 93.5132L53.3699 96.8083L50.0748 100.103C49.8473 100.331 49.8473 100.7 50.0748 100.927C50.3023 101.155 50.6711 101.155 50.8986 100.927L54.6055 97.2202ZM47.2037 97.3908L54.1937 97.3908L54.1937 96.2258L47.2037 96.2258L47.2037 97.3908Z" fill="black"/>
<rect x="14.0006" y="121.273" width="48.9301" height="2.91248" rx="1.45624" transform="rotate(-90 14.0006 121.273)" fill="#82D44F"/>
<rect x="37.2974" y="121.273" width="48.9301" height="2.91248" rx="1.45624" transform="rotate(-90 37.2974 121.273)" fill="#DFDFDF"/>
<rect x="60.6021" y="121.273" width="48.9301" height="2.91248" rx="1.45624" transform="rotate(-90 60.6021 121.273)" fill="#DFDFDF"/>
<rect x="82.735" y="121.273" width="48.9301" height="18.6399" rx="2.91248" transform="rotate(-90 82.735 121.273)" fill="#EDEDED"/>
<rect x="87.3943" y="116.609" width="9.318" height="9.31995" rx="1.16499" transform="rotate(-90 87.3943 116.609)" fill="#82D44F"/>
<rect x="87.3943" y="86.3185" width="9.318" height="9.31995" rx="1.16499" transform="rotate(-90 87.3943 86.3185)" fill="black"/>
<rect x="260.813" y="0.690582" width="109.51" height="156.109" rx="2.91248" transform="rotate(90 260.813 0.690582)" fill="white"/>
<rect x="114.907" y="9.25625" width="135.714" height="90.8804" stroke="white" stroke-width="2.90483"/>
<rect width="132.809" height="87.9755" transform="translate(116.359 10.7087)" fill="white"/>
<rect x="116.359" y="10.7087" width="31.8951" height="9.47189" rx="1.16193" fill="#82D44F"/>
<rect x="116.359" y="21.9235" width="9.46978" height="9.47189" rx="1.16193" fill="#82D44F"/>
<rect x="116.359" y="33.1383" width="9.46978" height="9.47189" rx="1.16193" fill="#82D44F"/>
<rect x="116.359" y="44.353" width="9.46978" height="9.47189" rx="1.16193" fill="#82D44F"/>
<rect x="116.359" y="55.5678" width="9.46978" height="9.47189" rx="1.16193" fill="#82D44F"/>
<rect x="116.359" y="66.7826" width="9.46978" height="9.47189" rx="1.16193" fill="#82D44F"/>
<rect x="116.359" y="77.9974" width="9.46978" height="9.47189" rx="1.16193" fill="#82D44F"/>
<rect x="127.572" y="21.9235" width="9.46978" height="9.47189" rx="1.16193" fill="#82D44F"/>
<rect x="127.572" y="33.1383" width="9.46978" height="9.47189" rx="1.16193" fill="#82D44F"/>
<rect x="127.572" y="44.353" width="9.46978" height="9.47189" rx="1.16193" fill="#82D44F"/>
<rect x="127.572" y="55.5678" width="9.46978" height="9.47189" rx="1.16193" fill="#82D44F"/>
<rect x="127.572" y="66.7826" width="9.46978" height="9.47189" rx="1.16193" fill="#82D44F"/>
<rect x="127.572" y="77.9974" width="9.46978" height="9.47189" rx="1.16193" fill="#82D44F"/>
<rect x="127.572" y="89.2122" width="9.46978" height="9.47189" rx="1.16193" fill="#82D44F"/>
<rect x="138.784" y="21.9235" width="9.46978" height="9.47189" rx="1.16193" fill="#82D44F"/>
<rect x="138.784" y="33.1383" width="9.46978" height="9.47189" rx="1.16193" fill="#82D44F"/>
<rect x="138.784" y="44.353" width="9.46978" height="9.47189" rx="1.16193" fill="#82D44F"/>
<rect x="138.784" y="55.5678" width="9.46978" height="9.47189" rx="1.16193" fill="#82D44F"/>
<rect x="138.784" y="66.7826" width="9.46978" height="9.47189" rx="1.16193" fill="#82D44F"/>
<rect x="138.784" y="77.9974" width="9.46978" height="9.47189" rx="1.16193" fill="#82D44F"/>
<rect x="138.784" y="89.2122" width="9.46978" height="9.47189" rx="1.16193" fill="#82D44F"/>
<rect x="149.997" y="10.7087" width="31.8951" height="9.47189" rx="1.16193" fill="#71BDE6"/>
<rect x="149.997" y="21.9235" width="9.46978" height="9.47189" rx="1.16193" fill="#71BDE6"/>
<rect x="149.997" y="33.1383" width="9.46978" height="9.47189" rx="1.16193" fill="#71BDE6"/>
<rect x="149.997" y="44.353" width="9.46978" height="9.47189" rx="1.16193" fill="#71BDE6"/>
<rect x="161.21" y="21.9235" width="9.46978" height="9.47189" rx="1.16193" fill="#71BDE6"/>
<rect x="161.21" y="33.1383" width="9.46978" height="9.47189" rx="1.16193" fill="#71BDE6"/>
<rect x="161.21" y="44.353" width="9.46978" height="9.47189" rx="1.16193" fill="#71BDE6"/>
<rect x="172.423" y="21.9235" width="9.46978" height="9.47189" rx="1.16193" fill="#71BDE6"/>
<rect x="172.423" y="33.1383" width="9.46978" height="9.47189" rx="1.16193" fill="#71BDE6"/>
<rect x="172.423" y="44.353" width="9.46978" height="9.47189" rx="1.16193" fill="#71BDE6"/>
<rect x="172.423" y="55.5678" width="9.46978" height="9.47189" rx="1.16193" fill="#71BDE6"/>
<rect x="172.423" y="66.7826" width="9.46978" height="9.47189" rx="1.16193" fill="#71BDE6"/>
<rect x="172.423" y="77.9974" width="9.46978" height="9.47189" rx="1.16193" fill="#71BDE6"/>
<rect x="172.423" y="89.2122" width="9.46978" height="9.47189" rx="1.16193" fill="#71BDE6"/>
<rect x="183.635" y="10.7087" width="20.6825" height="9.47189" rx="1.16193" fill="#FF9D56"/>
<rect x="183.635" y="21.9235" width="9.46978" height="9.47189" rx="1.16193" fill="#FF9D56"/>
<rect x="183.635" y="33.1383" width="9.46978" height="9.47189" rx="1.16193" fill="#FF9D56"/>
<rect x="183.635" y="44.353" width="9.46978" height="9.47189" rx="1.16193" fill="#FF9D56"/>
<rect x="183.635" y="55.5678" width="9.46978" height="9.47189" rx="1.16193" fill="#FF9D56"/>
<rect x="194.848" y="21.9235" width="9.46978" height="9.47189" rx="1.16193" fill="#FF9D56"/>
<rect x="194.848" y="33.1383" width="9.46978" height="9.47189" rx="1.16193" fill="#FF9D56"/>
<rect x="206.061" y="10.7087" width="20.6825" height="9.47189" rx="1.16193" fill="#F9CF3A"/>
<rect x="206.061" y="21.9235" width="9.46978" height="9.47189" rx="1.16193" fill="#F9CF3A"/>
<rect x="206.061" y="33.1383" width="9.46978" height="9.47189" rx="1.16193" fill="#F9CF3A"/>
<rect x="206.061" y="44.353" width="9.46978" height="9.47189" rx="1.16193" fill="#F9CF3A"/>
<rect x="206.061" y="55.5678" width="9.46978" height="9.47189" rx="1.16193" fill="#F9CF3A"/>
<rect x="206.061" y="66.7826" width="9.46978" height="9.47189" rx="1.16193" fill="#F9CF3A"/>
<rect x="206.061" y="77.9974" width="9.46978" height="9.47189" rx="1.16193" fill="#F9CF3A"/>
<rect x="217.273" y="21.9235" width="9.46978" height="9.47189" rx="1.16193" fill="#F9CF3A"/>
<rect x="217.273" y="33.1383" width="9.46978" height="9.47189" rx="1.16193" fill="#F9CF3A"/>
<rect x="217.273" y="44.353" width="9.46978" height="9.47189" rx="1.16193" fill="#F9CF3A"/>
<rect x="228.486" y="10.7087" width="20.6825" height="9.47189" rx="1.16193" fill="#FC6464"/>
<rect x="228.486" y="21.9235" width="9.46978" height="9.47189" rx="1.16193" fill="#FC6464"/>
<rect x="228.486" y="33.1383" width="9.46978" height="9.47189" rx="1.16193" fill="#FC6464"/>
<rect x="228.486" y="44.353" width="9.46978" height="9.47189" rx="1.16193" fill="#FC6464"/>
<rect x="228.486" y="55.5678" width="9.46978" height="9.47189" rx="1.16193" fill="#FC6464"/>
<rect x="239.699" y="21.9235" width="9.46978" height="9.47189" rx="1.16193" fill="#FC6464"/>
<rect x="239.699" y="33.1383" width="9.46978" height="9.47189" rx="1.16193" fill="#FC6464"/>
<rect x="239.699" y="44.353" width="9.46978" height="9.47189" rx="1.16193" fill="#FC6464"/>
<rect x="239.699" y="55.5678" width="9.46978" height="9.47189" rx="1.16193" fill="#FC6464"/>
<rect x="239.699" y="66.7826" width="9.46978" height="9.47189" rx="1.16193" fill="#FC6464"/>
<rect x="239.699" y="77.9974" width="9.46978" height="9.47189" rx="1.16193" fill="#FC6464"/>
<rect x="239.699" y="89.2122" width="9.46978" height="9.47189" rx="1.16193" fill="#FC6464"/>
<g clip-path="url(#clip0_242_60584)">
<g clip-path="url(#clip1_242_60584)">
<rect x="260.81" y="0.690689" width="109.51" height="156.109" rx="2.91248" transform="rotate(90 260.81 0.690689)" fill="white"/>
<rect x="114.903" y="9.25635" width="135.714" height="90.8804" stroke="white" stroke-width="2.90483"/>
<rect width="132.809" height="87.9755" transform="translate(116.356 10.7088)" fill="white"/>
<rect x="116.356" y="10.7088" width="20.6825" height="9.47189" rx="1.16193" fill="#82D44F"/>
<rect x="116.356" y="21.9236" width="9.46978" height="9.47189" rx="1.16193" fill="#82D44F"/>
<rect x="116.356" y="33.1384" width="9.46978" height="9.47189" rx="1.16193" fill="#82D44F"/>
<rect x="116.356" y="44.3531" width="9.46978" height="9.47189" rx="1.16193" fill="#82D44F"/>
<rect x="116.356" y="55.5679" width="9.46978" height="9.47189" rx="1.16193" fill="#82D44F"/>
<rect x="116.356" y="66.7827" width="9.46978" height="9.47189" rx="1.16193" fill="#82D44F"/>
<rect x="116.356" y="77.9975" width="9.46978" height="9.47189" rx="1.16193" fill="#82D44F"/>
<rect x="127.569" y="21.9236" width="9.46978" height="9.47189" rx="1.16193" fill="#82D44F"/>
<rect x="127.569" y="33.1384" width="9.46978" height="9.47189" rx="1.16193" fill="#82D44F"/>
<rect x="127.569" y="44.3531" width="9.46978" height="9.47189" rx="1.16193" fill="#82D44F"/>
<rect x="127.569" y="55.5679" width="9.46978" height="9.47189" rx="1.16193" fill="#82D44F"/>
<rect x="127.569" y="66.7827" width="9.46978" height="9.47189" rx="1.16193" fill="#82D44F"/>
<rect x="127.569" y="77.9975" width="9.46978" height="9.47189" rx="1.16193" fill="#82D44F"/>
<rect x="127.569" y="89.2123" width="9.46978" height="9.47189" rx="1.16193" fill="#82D44F"/>
<rect x="138.781" y="10.7088" width="20.6825" height="9.47189" rx="1.16193" fill="#71BDE6"/>
<rect x="138.781" y="21.9236" width="9.46978" height="9.47189" rx="1.16193" fill="#71BDE6"/>
<rect x="138.781" y="33.1384" width="9.46978" height="9.47189" rx="1.16193" fill="#71BDE6"/>
<rect x="138.781" y="44.3531" width="9.46978" height="9.47189" rx="1.16193" fill="#71BDE6"/>
<rect x="149.994" y="21.9236" width="9.46978" height="9.47189" rx="1.16193" fill="#71BDE6"/>
<rect x="149.994" y="33.1384" width="9.46978" height="9.47189" rx="1.16193" fill="#71BDE6"/>
<rect x="149.994" y="44.3531" width="9.46978" height="9.47189" rx="1.16193" fill="#71BDE6"/>
<rect x="149.994" y="55.5679" width="9.46978" height="9.47189" rx="1.16193" fill="#71BDE6"/>
<rect x="149.994" y="66.7827" width="9.46978" height="9.47189" rx="1.16193" fill="#71BDE6"/>
<rect x="149.994" y="77.9975" width="9.46978" height="9.47189" rx="1.16193" fill="#71BDE6"/>
<rect x="149.994" y="89.2123" width="9.46978" height="9.47189" rx="1.16193" fill="#71BDE6"/>
<rect x="161.207" y="10.7088" width="20.6825" height="9.47189" rx="1.16193" fill="#FF9D56"/>
<rect x="161.207" y="21.9236" width="9.46978" height="9.47189" rx="1.16193" fill="#FF9D56"/>
<rect x="161.207" y="33.1384" width="9.46978" height="9.47189" rx="1.16193" fill="#FF9D56"/>
<rect x="161.207" y="44.3531" width="9.46978" height="9.47189" rx="1.16193" fill="#FF9D56"/>
<rect x="161.207" y="55.5679" width="9.46978" height="9.47189" rx="1.16193" fill="#FF9D56"/>
<rect x="172.419" y="21.9236" width="9.46978" height="9.47189" rx="1.16193" fill="#FF9D56"/>
<rect x="172.419" y="33.1384" width="9.46978" height="9.47189" rx="1.16193" fill="#FF9D56"/>
<rect x="183.632" y="10.7088" width="20.6825" height="9.47189" rx="1.16193" fill="#FC6464"/>
<rect x="183.632" y="21.9236" width="9.46978" height="9.47189" rx="1.16193" fill="#FC6464"/>
<rect x="183.632" y="33.1384" width="9.46978" height="9.47189" rx="1.16193" fill="#FC6464"/>
<rect x="183.632" y="44.3531" width="9.46978" height="9.47189" rx="1.16193" fill="#FC6464"/>
<rect x="183.632" y="55.5679" width="9.46978" height="9.47189" rx="1.16193" fill="#FC6464"/>
<rect x="183.632" y="66.7827" width="9.46978" height="9.47189" rx="1.16193" fill="#FC6464"/>
<rect x="183.632" y="77.9975" width="9.46978" height="9.47189" rx="1.16193" fill="#FC6464"/>
<rect x="194.845" y="21.9236" width="9.46978" height="9.47189" rx="1.16193" fill="#FC6464"/>
<rect x="194.845" y="33.1384" width="9.46978" height="9.47189" rx="1.16193" fill="#FC6464"/>
<rect x="194.845" y="44.3531" width="9.46978" height="9.47189" rx="1.16193" fill="#FC6464"/>
<rect x="194.845" y="55.5679" width="9.46978" height="9.47189" rx="1.16193" fill="#FC6464"/>
<rect x="206.057" y="10.7088" width="20.6825" height="9.47189" rx="1.16193" fill="#F9CF3A"/>
<rect x="206.057" y="21.9236" width="9.46978" height="9.47189" rx="1.16193" fill="#F9CF3A"/>
<rect x="206.057" y="33.1384" width="9.46978" height="9.47189" rx="1.16193" fill="#F9CF3A"/>
<rect x="206.057" y="44.3531" width="9.46978" height="9.47189" rx="1.16193" fill="#F9CF3A"/>
<rect x="206.057" y="55.5679" width="9.46978" height="9.47189" rx="1.16193" fill="#F9CF3A"/>
<rect x="206.057" y="66.7827" width="9.46978" height="9.47189" rx="1.16193" fill="#F9CF3A"/>
<rect x="217.27" y="21.9236" width="9.46978" height="9.47189" rx="1.16193" fill="#F9CF3A"/>
<rect x="217.27" y="33.1384" width="9.46978" height="9.47189" rx="1.16193" fill="#F9CF3A"/>
<rect x="217.27" y="44.3531" width="9.46978" height="9.47189" rx="1.16193" fill="#F9CF3A"/>
<rect x="228.483" y="10.7088" width="20.6825" height="9.47189" rx="1.16193" fill="#32C4C7"/>
<rect x="228.483" y="21.9236" width="9.46978" height="9.47189" rx="1.16193" fill="#32C4C7"/>
<rect x="228.483" y="33.1384" width="9.46978" height="9.47189" rx="1.16193" fill="#32C4C7"/>
<rect x="239.695" y="21.9236" width="9.46978" height="9.47189" rx="1.16193" fill="#32C4C7"/>
<rect x="239.695" y="33.1384" width="9.46978" height="9.47189" rx="1.16193" fill="#32C4C7"/>
<rect x="239.695" y="44.3531" width="9.46978" height="9.47189" rx="1.16193" fill="#32C4C7"/>
</g>
<rect x="259.354" y="2.14693" width="106.598" height="153.197" rx="1.45624" transform="rotate(90 259.354 2.14693)" stroke="black" stroke-width="2.91248" stroke-linejoin="round"/>
</g>
<path d="M92.8164 138.344C92.8164 137.862 92.4252 137.471 91.9427 137.471C91.4601 137.471 91.0689 137.862 91.0689 138.344L92.8164 138.344ZM91.9426 153.927L92.8164 153.927L91.9426 153.927ZM181.724 153.927H182.598H181.724ZM182.342 113.282C182.001 112.941 181.447 112.941 181.106 113.282L175.546 118.843C175.204 119.184 175.204 119.737 175.546 120.079C175.887 120.42 176.44 120.42 176.781 120.079L181.724 115.136L186.667 120.079C187.008 120.42 187.561 120.42 187.902 120.079C188.243 119.737 188.243 119.184 187.902 118.843L182.342 113.282ZM94.8551 156.839V157.713H94.8551L94.8551 156.839ZM178.811 156.839V155.965V156.839ZM91.0689 138.344L91.0689 153.927L92.8164 153.927L92.8164 138.344L91.0689 138.344ZM182.598 153.927L182.598 113.9L180.85 113.9L180.85 153.927H182.598ZM94.8551 157.713L178.811 157.713V155.965L94.8551 155.965L94.8551 157.713ZM180.85 153.927C180.85 155.053 179.937 155.965 178.811 155.965V157.713C180.903 157.713 182.598 156.018 182.598 153.927H180.85ZM91.0689 153.927C91.0689 156.018 92.764 157.713 94.8551 157.713V155.965C93.7291 155.965 92.8164 155.053 92.8164 153.927L91.0689 153.927Z" fill="black"/>
<defs>
<clipPath id="clip0_242_60584">
<rect width="156.109" height="109.51" fill="white" transform="translate(104.704 0.690582)"/>
</clipPath>
<clipPath id="clip1_242_60584">
<rect x="260.81" y="0.690689" width="109.51" height="156.109" rx="2.91248" transform="rotate(90 260.81 0.690689)" fill="white"/>
</clipPath>
</defs>
</svg>
