<svg width="241" height="161" viewBox="0 0 241 161" fill="none" xmlns="http://www.w3.org/2000/svg">
<mask id="path-1-inside-1_242_60122" fill="white">
<rect x="21.6074" y="17.7266" width="74.6809" height="105.682" rx="2.24942"/>
</mask>
<rect x="21.6074" y="17.7266" width="74.6809" height="105.682" rx="2.24942" fill="white"/>
<rect x="21.6074" y="17.7266" width="74.6809" height="105.682" rx="2.24942" stroke="black" stroke-width="5.8704" stroke-linejoin="round" mask="url(#path-1-inside-1_242_60122)"/>
<g clip-path="url(#clip0_242_60122)">
<path d="M35.1065 33.984H35.2205V34.9353H35.1065V33.984Z" fill="black"/>
<path d="M36.0412 34.9353L35.7057 34.1567H35.7024V34.9353H35.5949V33.984H35.735L36.0706 34.7692H36.0738V33.984H36.1813V34.9353H36.0412Z" fill="black"/>
<path d="M36.6867 34.9353V34.0883H36.4815V33.984H37.0028V34.0883H36.7975V34.9353H36.6867Z" fill="black"/>
<path d="M37.3018 34.9353V33.984H37.7188V34.0883H37.4158V34.3913H37.7058V34.4955H37.4158V34.8343H37.7351V34.9386H37.3018V34.9353Z" fill="black"/>
<path d="M38.1893 34.4075H38.2772C38.3978 34.4075 38.4434 34.3228 38.4434 34.2414C38.4434 34.1339 38.3782 34.085 38.2805 34.085H38.1925V34.4075H38.1893ZM38.0752 33.984H38.3033C38.3978 33.984 38.4499 34.0101 38.4923 34.0492C38.5379 34.0948 38.5574 34.1599 38.5574 34.2316C38.5574 34.3326 38.5118 34.4304 38.3815 34.4597V34.4629C38.4369 34.4727 38.4597 34.502 38.4792 34.5542L38.6063 34.9353H38.4858L38.3848 34.6128C38.3587 34.5346 38.3261 34.5053 38.2414 34.5053H38.1893V34.9353H38.0752V33.984Z" fill="black"/>
<path d="M39.5042 34.8964C39.452 34.916 39.3608 34.9453 39.2826 34.9453C38.9992 34.9453 38.8819 34.7172 38.8819 34.4598C38.8819 34.1634 39.0448 33.9777 39.2761 33.9777C39.3543 33.9777 39.426 33.9874 39.4846 34.02V34.1406C39.4162 34.1047 39.3413 34.0819 39.2761 34.0819C39.1295 34.0819 38.9959 34.2057 38.9959 34.437C38.9959 34.6814 39.0871 34.8443 39.2826 34.8443C39.3185 34.8443 39.3641 34.8345 39.3934 34.8182V34.5152H39.2435V34.411H39.5009V34.8964H39.5042Z" fill="black"/>
<path d="M40.1667 34.8479C40.284 34.8479 40.385 34.7436 40.385 34.4537C40.385 34.2614 40.3296 34.0757 40.1764 34.0757C40.0592 34.0757 39.9582 34.18 39.9582 34.4732C39.9582 34.6622 40.0135 34.8479 40.1667 34.8479ZM40.1764 33.9747C40.3752 33.9747 40.5022 34.1572 40.5022 34.4504C40.5022 34.7795 40.3784 34.9456 40.1667 34.9456C39.9679 34.9456 39.8409 34.7632 39.8409 34.4699C39.8409 34.1409 39.9647 33.9747 40.1764 33.9747Z" fill="black"/>
<path d="M40.7334 33.984H40.8572L41.0658 34.7594H41.069L41.2873 33.984H41.4013L41.1211 34.9353H41.0039L40.7334 33.984Z" fill="black"/>
<path d="M41.6885 33.984H42.1055V34.0883H41.8026V34.3913H42.0925V34.4955H41.8026V34.8343H42.1218V34.9386H41.6885V33.984Z" fill="black"/>
<path d="M42.5713 34.4075H42.6592C42.7798 34.4075 42.8254 34.3228 42.8254 34.2414C42.8254 34.1339 42.7602 34.085 42.6625 34.085H42.5713V34.4075ZM42.4572 33.984H42.6853C42.7798 33.984 42.8319 34.0101 42.8743 34.0492C42.9199 34.0948 42.9394 34.1599 42.9394 34.2316C42.9394 34.3326 42.8938 34.4304 42.7635 34.4597V34.4629C42.8189 34.4727 42.8417 34.502 42.8612 34.5542L42.9883 34.9353H42.8677L42.7635 34.6128C42.7374 34.5346 42.7048 34.5053 42.6201 34.5053H42.568V34.9353H42.454V33.984H42.4572Z" fill="black"/>
<path d="M43.2999 33.984H43.4399L43.7755 34.7692H43.7788V33.984H43.8863V34.9353H43.7462L43.4106 34.1567H43.4074V34.9353H43.2999V33.984Z" fill="black"/>
<path d="M44.2608 33.984H44.4335L44.6583 34.7399H44.6615L44.8896 33.984H45.059V34.9353H44.9515V34.1176H44.9482L44.6941 34.9353H44.6127L44.3683 34.1176H44.365V34.9353H44.2608V33.984Z" fill="black"/>
<path d="M45.4385 33.984H45.8555V34.0883H45.5526V34.3913H45.8425V34.4955H45.5526V34.8343H45.8718V34.9386H45.4385V33.984Z" fill="black"/>
<path d="M46.2101 33.984H46.3502L46.6858 34.7692H46.689V33.984H46.7965V34.9353H46.6564L46.3209 34.1567H46.3176V34.9353H46.2101V33.984Z" fill="black"/>
<path d="M47.302 34.0883H47.0967V33.984H47.618V34.0883H47.4128V34.9353H47.2987V34.0883H47.302Z" fill="black"/>
<path d="M48.2671 34.5835L48.1302 34.1111H48.127L47.9869 34.5835H48.2671ZM48.1921 33.984L48.4854 34.9353H48.3681L48.2964 34.6877H47.9543L47.8826 34.9353H47.7686L48.0683 33.984H48.1921Z" fill="black"/>
<path d="M48.7725 33.984H48.8865V34.8311H49.1798V34.9353H48.7725V33.984Z" fill="black"/>
<path d="M50.074 34.4401H50.1359C50.2728 34.4401 50.3216 34.3717 50.3216 34.2675C50.3216 34.1371 50.2532 34.085 50.1359 34.085H50.0708V34.4401H50.074ZM49.96 33.984H50.175C50.263 33.984 50.3216 34.0101 50.3673 34.0589C50.4129 34.1046 50.4389 34.173 50.4389 34.2544C50.4389 34.4401 50.3379 34.5379 50.149 34.5379H50.074V34.9353H49.96V33.984Z" fill="black"/>
<path d="M51.1017 34.5835L50.9649 34.1111H50.9616L50.8215 34.5835H51.1017ZM51.03 33.984L51.3233 34.9353H51.206L51.1343 34.6877H50.7922L50.7205 34.9353H50.6065L50.9062 33.984H51.03Z" fill="black"/>
<path d="M51.6084 33.984H51.7485L52.0841 34.7692H52.0874V33.984H52.1949V34.9353H52.0548L51.7192 34.1567H51.716V34.9353H51.6084V33.984Z" fill="black"/>
<path d="M52.5713 33.984H52.9884V34.0883H52.6854V34.3913H52.9753V34.4955H52.6854V34.8343H53.0047V34.9386H52.5713V33.984Z" fill="black"/>
<path d="M53.3448 33.984H53.4588V34.8311H53.752V34.9353H53.3448V33.984Z" fill="black"/>
<path d="M54.8197 34.8479C54.937 34.8479 55.0379 34.7436 55.0379 34.4537C55.0379 34.2614 54.9826 34.0757 54.8294 34.0757C54.7121 34.0757 54.6111 34.18 54.6111 34.4732C54.6144 34.6622 54.6698 34.8479 54.8197 34.8479ZM54.8327 33.9747C55.0314 33.9747 55.1585 34.1572 55.1585 34.4504C55.1585 34.7795 55.0347 34.9456 54.8229 34.9456C54.6242 34.9456 54.4971 34.7632 54.4971 34.4699C54.4971 34.1409 54.6209 33.9747 54.8327 33.9747Z" fill="black"/>
<path d="M55.4934 33.984H55.6335L55.9691 34.7692H55.9723V33.984H56.0798V34.9353H55.9397L55.6042 34.1567H55.6009V34.9353H55.4934V33.984Z" fill="black"/>
<path d="M43.4535 36.6952C43.4535 36.8158 43.4176 36.907 43.346 36.9754C43.2743 37.0438 43.1896 37.0797 43.0886 37.0797C42.9876 37.0797 42.9029 37.0438 42.8312 36.9754C42.7595 36.907 42.7237 36.8158 42.7237 36.6952V36.174C42.7237 36.0534 42.7595 35.9622 42.8312 35.8938C42.9029 35.8221 42.9876 35.7863 43.0886 35.7863C43.1863 35.7863 43.2743 35.8221 43.346 35.8938C43.4176 35.9622 43.4535 36.0534 43.4535 36.174V36.1968H43.2482V36.1772C43.2482 36.0339 43.1798 35.972 43.0886 35.972C43.0006 35.972 42.9289 36.0339 42.9289 36.1772V36.6985C42.9289 36.8418 42.9974 36.9005 43.0886 36.9005C43.1765 36.9005 43.2482 36.8353 43.2482 36.6952V36.5682H43.4535V36.6952Z" fill="black"/>
<path d="M43.7901 35.4574H43.9953V37.0538H43.7901V35.4574Z" fill="black"/>
<path d="M44.3467 35.809H44.552V37.0503H44.3467V35.809ZM44.451 35.4376C44.5194 35.4376 44.5748 35.4963 44.5748 35.5679C44.5748 35.6396 44.5194 35.6983 44.451 35.6983C44.3826 35.6983 44.3272 35.6396 44.3272 35.5679C44.3272 35.493 44.3793 35.4376 44.451 35.4376Z" fill="black"/>
<path d="M44.9092 37.0498V36.1766C44.9092 36.0561 44.9451 35.9649 45.0167 35.8965C45.0884 35.8248 45.1731 35.7889 45.2741 35.7889C45.3784 35.7889 45.4631 35.8346 45.5348 35.9258C45.6064 35.8346 45.6944 35.7889 45.7954 35.7889C45.8931 35.7889 45.9811 35.8248 46.0528 35.8965C46.1245 35.9649 46.1603 36.0561 46.1603 36.1766V37.053H45.9551V36.1766C45.9551 36.0333 45.8866 35.9714 45.7954 35.9714C45.7074 35.9714 45.6358 36.0333 45.6358 36.1766V37.0498H45.4338V36.1766C45.4305 36.0333 45.3621 35.9714 45.2741 35.9714C45.1862 35.9714 45.1145 36.0333 45.1145 36.1766V37.0498H44.9092Z" fill="black"/>
<path d="M46.6881 36.7338C46.6881 36.8217 46.7565 36.9032 46.8477 36.9032C46.9324 36.9032 47.0073 36.825 47.0073 36.7338V36.6491C47.0008 36.5611 46.9357 36.4894 46.8477 36.4894C46.7565 36.4894 46.6946 36.5643 46.6881 36.6491V36.7338ZM46.6848 36.1734V36.1994H46.4795V36.1734C46.4795 36.0528 46.5154 35.9616 46.5871 35.8932C46.6587 35.8248 46.7467 35.7889 46.8444 35.7889C46.9357 35.7889 47.0204 35.8248 47.0953 35.8932C47.167 35.9616 47.2061 36.0561 47.2061 36.1734V36.7305C47.2061 36.8282 47.167 36.913 47.0953 36.9814C47.0236 37.0498 46.9389 37.0824 46.8444 37.0824C46.7434 37.0824 46.6587 37.0465 46.5871 36.9683C46.5154 36.8934 46.4795 36.8022 46.4795 36.6947C46.4795 36.5872 46.5154 36.4959 46.5871 36.421C46.6587 36.3461 46.7434 36.307 46.8444 36.307C46.8998 36.307 46.952 36.3265 47.0041 36.3656V36.1734C47.0041 36.03 46.9324 35.9681 46.8444 35.9681C46.7565 35.9714 46.6881 36.0333 46.6848 36.1734Z" fill="black"/>
<path d="M48.0452 37.0826C47.9442 37.0793 47.8627 37.0468 47.791 36.9783C47.7194 36.9099 47.6868 36.8154 47.6868 36.6982V35.9716H47.4327V35.8087H48.1429V35.9716H47.8888V36.6982C47.8888 36.8382 47.9572 36.9034 48.0419 36.9034V37.0826H48.0452Z" fill="black"/>
<path d="M48.6184 36.3272H48.9344V36.1774C48.9344 36.034 48.8627 35.9721 48.7748 35.9721C48.6901 35.9721 48.6184 36.034 48.6184 36.1774V36.3272ZM48.6184 36.5097V36.6987C48.6184 36.8453 48.6901 36.9039 48.7748 36.9039C48.8627 36.9039 48.9344 36.842 48.9344 36.6987H49.1397C49.1397 36.8192 49.1038 36.9104 49.0322 36.9788C48.9605 37.0473 48.8725 37.0831 48.7748 37.0831C48.6803 37.0831 48.5956 37.0505 48.5239 36.9821C48.4522 36.9137 48.4131 36.8192 48.4131 36.6954V36.1774C48.4131 36.0568 48.449 35.9656 48.5206 35.8972C48.5923 35.8255 48.677 35.7897 48.778 35.7897C48.879 35.7897 48.9637 35.8255 49.0354 35.8972C49.1071 35.9656 49.1429 36.0568 49.1429 36.1774V36.5097H48.6184Z" fill="black"/>
<path d="M50.7872 36.6951C50.7872 36.8157 50.7514 36.9069 50.6797 36.9753C50.6081 37.0437 50.5233 37.0796 50.4223 37.0796C50.3213 37.0796 50.2366 37.0437 50.165 36.9753C50.0933 36.9069 50.0574 36.8157 50.0574 36.6951V36.1738C50.0574 36.0533 50.0933 35.9621 50.165 35.8936C50.2366 35.822 50.3213 35.7861 50.4223 35.7861C50.5201 35.7861 50.6081 35.822 50.6797 35.8936C50.7514 35.9621 50.7872 36.0533 50.7872 36.1738V36.1966H50.582V36.1771C50.582 36.0337 50.5136 35.9718 50.4223 35.9718C50.3344 35.9718 50.2627 36.0337 50.2627 36.1771V36.6984C50.2627 36.8417 50.3311 36.9004 50.4223 36.9004C50.5103 36.9004 50.582 36.8352 50.582 36.6951V36.5681H50.7872V36.6951Z" fill="black"/>
<path d="M51.1241 35.4539H51.3294V35.8644C51.3782 35.8155 51.4434 35.7894 51.5151 35.7894C51.5965 35.7894 51.6747 35.822 51.7464 35.8872C51.8181 35.9491 51.8539 36.0468 51.8539 36.1771V37.0503H51.6487V36.1771C51.6487 36.0338 51.5802 35.9719 51.489 35.9719C51.401 35.9719 51.3294 36.0338 51.3294 36.1771V37.0503H51.1241V35.4539Z" fill="black"/>
<path d="M52.4131 36.7345C52.4131 36.8225 52.4815 36.9039 52.5728 36.9039C52.6575 36.9039 52.7324 36.8257 52.7324 36.7345V36.6498C52.7259 36.5618 52.6607 36.4901 52.5728 36.4901C52.4815 36.4901 52.4196 36.5651 52.4131 36.6498V36.7345ZM52.4131 36.1741V36.2002H52.2079V36.1741C52.2079 36.0536 52.2437 35.9623 52.3154 35.8939C52.3871 35.8255 52.475 35.7897 52.5728 35.7897C52.664 35.7897 52.7487 35.8255 52.8236 35.8939C52.8953 35.9623 52.9344 36.0568 52.9344 36.1741V36.7312C52.9344 36.829 52.8953 36.9137 52.8236 36.9821C52.752 37.0505 52.6673 37.0831 52.5728 37.0831C52.4718 37.0831 52.3871 37.0473 52.3154 36.9691C52.2437 36.8941 52.2079 36.8029 52.2079 36.6954C52.2079 36.5879 52.2437 36.4967 52.3154 36.4217C52.3871 36.3468 52.4718 36.3077 52.5728 36.3077C52.6282 36.3077 52.6803 36.3272 52.7324 36.3663V36.1741C52.7324 36.0308 52.6607 35.9689 52.5728 35.9689C52.4848 35.9721 52.4131 36.034 52.4131 36.1741Z" fill="black"/>
<path d="M53.2452 37.0498V36.1766C53.2452 36.0561 53.281 35.9649 53.3527 35.8965C53.4244 35.8248 53.5091 35.7889 53.6101 35.7889C53.7078 35.7889 53.7958 35.8248 53.8674 35.8965C53.9391 35.9649 53.975 36.0561 53.975 36.1766V37.0498H53.7697V36.1766C53.7697 36.0333 53.7013 35.9714 53.6101 35.9714C53.5221 35.9714 53.4504 36.0333 53.4504 36.1766V37.0498H53.2452Z" fill="black"/>
<path d="M54.5183 36.2124C54.5183 36.3069 54.5933 36.3818 54.678 36.3818C54.7692 36.3818 54.8376 36.3069 54.8376 36.2124V36.1277C54.8311 36.0397 54.7659 35.968 54.678 35.968C54.5933 35.968 54.5248 36.0397 54.5183 36.1277V36.2124ZM54.8604 36.8705C54.9582 36.8705 55.0429 36.9454 55.0429 37.1018V37.2908H54.8376V37.1377C54.8376 37.0921 54.8018 37.053 54.7562 37.053H54.6747C54.5737 37.053 54.489 37.0171 54.4173 36.9422C54.3457 36.8673 54.3098 36.776 54.3098 36.6685C54.3098 36.5773 54.3391 36.4958 54.3945 36.4209C54.3391 36.3492 54.3098 36.2678 54.3098 36.1766C54.3098 36.0886 54.3326 36.0104 54.3847 35.942C54.4336 35.8736 54.4988 35.8279 54.5737 35.8019V35.6553H54.779V35.8051C54.8539 35.8279 54.9158 35.8768 54.9647 35.9452C55.0135 36.0137 55.0364 36.0918 55.0364 36.1766C55.0364 36.2808 55.0005 36.372 54.9288 36.4502C54.8572 36.5252 54.7725 36.5643 54.6715 36.5643C54.6356 36.5643 54.5998 36.5577 54.5639 36.548C54.5314 36.5805 54.5151 36.6229 54.5151 36.6685C54.5151 36.8086 54.5867 36.8738 54.6747 36.8738H54.8604V36.8705Z" fill="black"/>
<path d="M55.5715 36.3272H55.8875V36.1774C55.8875 36.034 55.8159 35.9721 55.7279 35.9721C55.6432 35.9721 55.5715 36.034 55.5715 36.1774V36.3272ZM55.5715 36.5097V36.6987C55.5715 36.8453 55.6432 36.9039 55.7279 36.9039C55.8159 36.9039 55.8875 36.842 55.8875 36.6987H56.0928C56.0928 36.8192 56.057 36.9104 55.9853 36.9788C55.9136 37.0473 55.8256 37.0831 55.7279 37.0831C55.6334 37.0831 55.5487 37.0505 55.477 36.9821C55.4054 36.9137 55.3663 36.8192 55.3663 36.6954V36.1774C55.3663 36.0568 55.4021 35.9656 55.4738 35.8972C55.5454 35.8255 55.6302 35.7897 55.7312 35.7897C55.8289 35.7897 55.9169 35.8255 55.9885 35.8972C56.0602 35.9656 56.0961 36.0568 56.0961 36.1774V36.5097H55.5715Z" fill="black"/>
</g>
<mask id="path-39-inside-2_242_60122" fill="white">
<rect x="10.8086" y="28.5237" width="74.6809" height="105.682" rx="2.24942"/>
</mask>
<rect x="10.8086" y="28.5237" width="74.6809" height="105.682" rx="2.24942" fill="white"/>
<rect x="10.8086" y="28.5237" width="74.6809" height="105.682" rx="2.24942" stroke="black" stroke-width="5.8704" stroke-linejoin="round" mask="url(#path-39-inside-2_242_60122)"/>
<g clip-path="url(#clip1_242_60122)">
<path d="M24.4571 42.4423H25.9297V51.4116H24.4571V42.4423ZM25.1967 39.7708C25.6886 39.7708 26.0894 40.1845 26.0894 40.7188C26.0894 41.2401 25.6854 41.6669 25.1967 41.6669C24.6949 41.6669 24.304 41.2401 24.304 40.7188C24.304 40.1845 24.6949 39.7708 25.1967 39.7708Z" fill="black"/>
<path d="M28.7961 48.8707C28.7961 49.9002 29.2978 50.3401 29.9397 50.3401C30.5815 50.3401 31.0832 49.8709 31.0832 48.8577V45.1012C31.0832 44.0717 30.5815 43.6188 29.9397 43.6188C29.2978 43.6188 28.7961 44.0717 28.7961 45.1012V48.8707ZM32.5591 48.8577C32.5591 49.7276 32.3083 50.3954 31.7902 50.8907C31.2755 51.3859 30.7216 51.64 30.1286 51.64C29.6008 51.64 29.161 51.5064 28.7961 51.2262V53.1387H27.3235V45.1012C27.3235 44.2313 27.5744 43.5634 28.0924 43.0715C28.6071 42.5632 29.2229 42.3091 29.9429 42.3091C30.6597 42.3091 31.2755 42.5632 31.7935 43.0715C32.3083 43.5667 32.5624 44.2346 32.5624 45.1012V48.8577H32.5591Z" fill="black"/>
<path d="M39.0136 48.8577C39.0136 49.7276 38.7627 50.3954 38.2447 50.8907C37.7299 51.3859 37.1109 51.64 36.3941 51.64C35.6773 51.64 35.0616 51.3859 34.5436 50.8907C34.0288 50.3954 33.7747 49.7276 33.7747 48.8577V45.1012C33.7747 44.2313 34.0255 43.5634 34.5436 43.0715C35.0583 42.5632 35.6741 42.3091 36.3941 42.3091C37.1109 42.3091 37.7266 42.5632 38.2447 43.0715C38.7594 43.5667 39.0136 44.2346 39.0136 45.1012V45.2739H37.5409V45.1012C37.5409 44.0717 37.0392 43.6188 36.3974 43.6188C35.7555 43.6188 35.2538 44.0717 35.2538 45.1012V48.8707C35.2538 49.9002 35.7555 50.3401 36.3974 50.3401C37.0392 50.3401 37.5409 49.8709 37.5409 48.8577V47.9487H39.0136V48.8577Z" fill="black"/>
<path d="M45.446 48.8576C45.446 49.7275 45.1951 50.3954 44.6771 50.8906C44.1623 51.3858 43.5433 51.6399 42.8265 51.6399C42.1098 51.6399 41.494 51.3858 40.976 50.8906C40.4612 50.3954 40.2103 49.7275 40.2103 48.8576V45.1011C40.2103 44.2312 40.4612 43.5634 40.9792 43.0714C41.494 42.5631 42.1098 42.309 42.8298 42.309C43.5466 42.309 44.1623 42.5631 44.6804 43.0714C45.1951 43.5666 45.4492 44.2345 45.4492 45.1011V45.2738H43.9766V45.1011C43.9766 44.0716 43.4749 43.6187 42.8331 43.6187C42.1912 43.6187 41.6895 44.0716 41.6895 45.1011V48.8706C41.6895 49.9002 42.1912 50.34 42.8331 50.34C43.4749 50.34 43.9766 49.8708 43.9766 48.8576V47.9486H45.4492V48.8576H45.446Z" fill="black"/>
</g>
<line x1="25.4261" y1="75.0868" x2="70.8644" y2="75.0868" stroke="black" stroke-width="2.24942" stroke-linecap="round"/>
<line x1="25.4261" y1="81.3852" x2="70.8644" y2="81.3852" stroke="black" stroke-width="2.24942" stroke-linecap="round"/>
<line x1="25.4261" y1="87.6836" x2="70.8644" y2="87.6836" stroke="black" stroke-width="2.24942" stroke-linecap="round"/>
<line x1="25.4261" y1="93.9819" x2="70.8644" y2="93.9819" stroke="black" stroke-width="2.24942" stroke-linecap="round"/>
<line x1="25.4261" y1="100.28" x2="70.8644" y2="100.28" stroke="black" stroke-width="2.24942" stroke-linecap="round"/>
<line x1="25.4261" y1="106.579" x2="70.8644" y2="106.579" stroke="black" stroke-width="2.24942" stroke-linecap="round"/>
<line x1="25.4261" y1="112.877" x2="70.8644" y2="112.877" stroke="black" stroke-width="2.24942" stroke-linecap="round"/>
<line x1="25.4261" y1="119.175" x2="70.8644" y2="119.175" stroke="black" stroke-width="2.24942" stroke-linecap="round"/>
<mask id="path-52-inside-3_242_60122" fill="white">
<rect x="0.0117188" y="39.3213" width="74.6809" height="105.682" rx="2.24942"/>
</mask>
<rect x="0.0117188" y="39.3213" width="74.6809" height="105.682" rx="2.24942" fill="white"/>
<rect x="0.0117188" y="39.3213" width="74.6809" height="105.682" rx="2.24942" stroke="black" stroke-width="5.8704" stroke-linejoin="round" mask="url(#path-52-inside-3_242_60122)"/>
<g clip-path="url(#clip2_242_60122)">
<path d="M13.6602 53.2402H15.1329V62.2095H13.6602V53.2402ZM14.3998 50.5687C14.8918 50.5687 15.2925 50.9824 15.2925 51.5167C15.2925 52.038 14.8885 52.4648 14.3998 52.4648C13.8981 52.4648 13.5071 52.038 13.5071 51.5167C13.5071 50.9824 13.8981 50.5687 14.3998 50.5687Z" fill="black"/>
<path d="M17.9993 59.6679C17.9993 60.6974 18.501 61.1372 19.1428 61.1372C19.7847 61.1372 20.2864 60.6681 20.2864 59.6548V55.8984C20.2864 54.8688 19.7847 54.416 19.1428 54.416C18.501 54.416 17.9993 54.8688 17.9993 55.8984V59.6679ZM21.7623 59.6548C21.7623 60.5247 21.5114 61.1926 20.9934 61.6878C20.4786 62.1831 19.9248 62.4372 19.3318 62.4372C18.804 62.4372 18.3642 62.3036 17.9993 62.0234V63.9359H16.5266V55.8984C16.5266 55.0285 16.7775 54.3606 17.2955 53.8686C17.8103 53.3604 18.4261 53.1063 19.1461 53.1063C19.8629 53.1063 20.4786 53.3604 20.9967 53.8686C21.5114 54.3639 21.7655 55.0317 21.7655 55.8984V59.6548H21.7623Z" fill="black"/>
<path d="M28.2167 59.6548C28.2167 60.5247 27.9659 61.1926 27.4478 61.6878C26.9331 62.1831 26.314 62.4372 25.5973 62.4372C24.8805 62.4372 24.2647 62.1831 23.7467 61.6878C23.2319 61.1926 22.9778 60.5247 22.9778 59.6548V55.8984C22.9778 55.0285 23.2287 54.3606 23.7467 53.8686C24.2615 53.3604 24.8772 53.1063 25.5973 53.1063C26.314 53.1063 26.9298 53.3604 27.4478 53.8686C27.9626 54.3639 28.2167 55.0317 28.2167 55.8984V56.071H26.7441V55.8984C26.7441 54.8688 26.2424 54.416 25.6005 54.416C24.9587 54.416 24.457 54.8688 24.457 55.8984V59.6679C24.457 60.6974 24.9587 61.1372 25.6005 61.1372C26.2424 61.1372 26.7441 60.6681 26.7441 59.6548V58.7459H28.2167V59.6548Z" fill="black"/>
<path d="M34.6491 59.6548C34.6491 60.5247 34.3983 61.1926 33.8802 61.6878C33.3655 62.183 32.7465 62.4371 32.0297 62.4371C31.3129 62.4371 30.6972 62.183 30.1791 61.6878C29.6644 61.1926 29.4135 60.5247 29.4135 59.6548V55.8983C29.4135 55.0284 29.6644 54.3605 30.1824 53.8686C30.6972 53.3603 31.3129 53.1062 32.033 53.1062C32.7497 53.1062 33.3655 53.3603 33.8835 53.8686C34.3983 54.3638 34.6524 55.0317 34.6524 55.8983V56.071H33.1798V55.8983C33.1798 54.8688 32.678 54.4159 32.0362 54.4159C31.3944 54.4159 30.8926 54.8688 30.8926 55.8983V59.6678C30.8926 60.6973 31.3944 61.1372 32.0362 61.1372C32.678 61.1372 33.1798 60.668 33.1798 59.6548V58.7458H34.6524V59.6548H34.6491Z" fill="black"/>
</g>
<line x1="14.1871" y1="85.8836" x2="60.5252" y2="85.8836" stroke="black" stroke-width="1.34965" stroke-linecap="round"/>
<line x1="14.1871" y1="90.3825" x2="60.5252" y2="90.3825" stroke="black" stroke-width="1.34965" stroke-linecap="round"/>
<line x1="14.1871" y1="94.8813" x2="60.5252" y2="94.8813" stroke="black" stroke-width="1.34965" stroke-linecap="round"/>
<line x1="14.1871" y1="99.3802" x2="60.5252" y2="99.3802" stroke="black" stroke-width="1.34965" stroke-linecap="round"/>
<line x1="14.1871" y1="103.879" x2="60.5252" y2="103.879" stroke="black" stroke-width="1.34965" stroke-linecap="round"/>
<line x1="14.1871" y1="108.378" x2="60.5252" y2="108.378" stroke="black" stroke-width="1.34965" stroke-linecap="round"/>
<line x1="14.1871" y1="112.877" x2="60.5252" y2="112.877" stroke="black" stroke-width="1.34965" stroke-linecap="round"/>
<line x1="14.1871" y1="117.375" x2="60.5252" y2="117.375" stroke="black" stroke-width="1.34965" stroke-linecap="round"/>
<line x1="14.1871" y1="121.874" x2="60.5252" y2="121.874" stroke="black" stroke-width="1.34965" stroke-linecap="round"/>
<line x1="14.1871" y1="126.373" x2="60.5252" y2="126.373" stroke="black" stroke-width="1.34965" stroke-linecap="round"/>
<line x1="14.1871" y1="130.872" x2="60.5252" y2="130.872" stroke="black" stroke-width="1.34965" stroke-linecap="round"/>
<path d="M100.981 80.6488C100.411 80.6488 99.9497 81.1107 99.9497 81.6804C99.9497 82.25 100.411 82.7119 100.981 82.7119L100.981 80.6488ZM121.083 82.4097C121.486 82.0069 121.486 81.3538 121.083 80.951L114.518 74.3865C114.116 73.9836 113.462 73.9836 113.06 74.3865C112.657 74.7893 112.657 75.4424 113.06 75.8452L118.895 81.6804L113.06 87.5155C112.657 87.9183 112.657 88.5714 113.06 88.9743C113.462 89.3771 114.116 89.3771 114.518 88.9743L121.083 82.4097ZM100.981 82.7119L120.354 82.7119L120.354 80.6488L100.981 80.6488L100.981 82.7119Z" fill="black"/>
<mask id="path-69-inside-4_242_60122" fill="white">
<path d="M240.011 157.127C240.011 159.136 238.382 160.765 236.373 160.765H129.495C127.485 160.765 125.857 159.136 125.857 157.127L125.857 4.17402C125.857 2.16488 127.485 0.536143 129.495 0.536143L236.373 0.536133C238.382 0.536133 240.01 2.16486 240.01 4.17401L240.011 157.127Z"/>
</mask>
<path d="M240.011 157.127C240.011 159.136 238.382 160.765 236.373 160.765H129.495C127.485 160.765 125.857 159.136 125.857 157.127L125.857 4.17402C125.857 2.16488 127.485 0.536143 129.495 0.536143L236.373 0.536133C238.382 0.536133 240.01 2.16486 240.01 4.17401L240.011 157.127Z" fill="white"/>
<path d="M240.01 4.17401L236.572 4.17401L240.01 4.17401ZM129.495 160.765V157.326V160.765ZM240.011 157.127H243.449H240.011ZM236.373 160.765V164.203V160.765ZM129.295 157.127L129.295 4.17402L122.418 4.17402L122.418 157.127H129.295ZM129.495 3.97452L236.373 3.97451V-2.90224L129.495 -2.90223L129.495 3.97452ZM236.572 4.17401L236.572 157.127H243.449V4.17401L236.572 4.17401ZM236.373 157.326L129.495 157.326L129.495 164.203H236.373V157.326ZM236.373 3.97451C236.483 3.97451 236.572 4.06383 236.572 4.17401L243.449 4.17401C243.449 0.265897 240.281 -2.90224 236.373 -2.90224V3.97451ZM129.295 4.17402C129.295 4.06384 129.384 3.97452 129.495 3.97452L129.495 -2.90223C125.586 -2.90223 122.418 0.265923 122.418 4.17402L129.295 4.17402ZM122.418 157.127C122.418 161.035 125.586 164.203 129.495 164.203L129.495 157.326C129.384 157.326 129.295 157.237 129.295 157.127H122.418ZM236.572 157.127C236.572 157.237 236.483 157.326 236.373 157.326V164.203C240.281 164.203 243.449 161.035 243.449 157.127H236.572Z" fill="black" mask="url(#path-69-inside-4_242_60122)"/>
<g clip-path="url(#clip3_242_60122)">
<rect x="142.358" y="17.0397" width="26.8193" height="3.43838" rx="1.71919" fill="#82D44F"/>
<rect x="149.235" y="25.9794" width="73.5811" height="2.06303" rx="1.03151" fill="black"/>
<rect x="142.358" y="25.9796" width="2.06302" height="2.06303" rx="1.03151" fill="black"/>
<rect x="149.235" y="33.5441" width="73.5811" height="2.06303" rx="1.03151" fill="black"/>
<rect x="142.358" y="33.544" width="2.06302" height="2.06303" rx="1.03151" fill="black"/>
<rect x="142.358" y="42.4839" width="26.8193" height="3.43838" rx="1.71919" fill="#71BDE6"/>
<rect x="149.235" y="51.4236" width="73.5811" height="2.06303" rx="1.03151" fill="black"/>
<rect x="142.358" y="51.424" width="2.06302" height="2.06303" rx="1.03151" fill="black"/>
<rect x="149.235" y="58.9888" width="73.5811" height="2.06303" rx="1.03151" fill="black"/>
<rect x="142.358" y="58.9885" width="2.06302" height="2.06303" rx="1.03151" fill="black"/>
<rect x="142.358" y="67.9285" width="26.8193" height="3.43838" rx="1.71919" fill="#FF9D56"/>
<rect x="149.235" y="76.8685" width="73.5811" height="2.06303" rx="1.03151" fill="black"/>
<rect x="142.358" y="76.8683" width="2.06302" height="2.06303" rx="1.03151" fill="black"/>
<rect x="149.235" y="84.433" width="73.5811" height="2.06303" rx="1.03151" fill="black"/>
<rect x="142.358" y="84.433" width="2.06302" height="2.06303" rx="1.03151" fill="black"/>
<rect x="142.358" y="93.3729" width="26.8193" height="3.43838" rx="1.71919" fill="#F9CF3A"/>
<rect x="149.235" y="102.313" width="73.5811" height="2.06303" rx="1.03151" fill="black"/>
<rect x="142.358" y="102.313" width="2.06302" height="2.06303" rx="1.03151" fill="black"/>
<rect x="149.235" y="109.877" width="73.5811" height="2.06303" rx="1.03151" fill="black"/>
<rect x="142.358" y="109.877" width="2.06302" height="2.06303" rx="1.03151" fill="black"/>
<rect x="142.358" y="118.817" width="26.8193" height="3.43838" rx="1.71919" fill="#FC6464"/>
<rect x="149.235" y="127.757" width="73.5811" height="2.06303" rx="1.03151" fill="black"/>
<rect x="142.358" y="127.757" width="2.06302" height="2.06303" rx="1.03151" fill="black"/>
<rect x="149.235" y="135.322" width="73.5811" height="2.06303" rx="1.03151" fill="black"/>
<rect x="142.358" y="135.321" width="2.06302" height="2.06303" rx="1.03151" fill="black"/>
</g>
<defs>
<clipPath id="clip0_242_60122">
<rect width="21.1446" height="13.3578" fill="white" transform="translate(35.1065 28.9738)"/>
</clipPath>
<clipPath id="clip1_242_60122">
<rect width="21.1446" height="13.3578" fill="white" transform="translate(24.304 39.7708)"/>
</clipPath>
<clipPath id="clip2_242_60122">
<rect width="21.1446" height="13.3578" fill="white" transform="translate(13.5071 50.5687)"/>
</clipPath>
<clipPath id="clip3_242_60122">
<rect width="81.1455" height="120.345" fill="white" transform="translate(142.358 17.0397)"/>
</clipPath>
</defs>
</svg>
