<svg width="184" height="198" viewBox="0 0 184 198" fill="none" xmlns="http://www.w3.org/2000/svg">
<g clip-path="url(#clip0_242_61068)">
<rect x="183.011" y="84.5572" width="112.93" height="182.999" rx="3.40148" transform="rotate(90 183.011 84.5572)" fill="white"/>
<rect x="11.5786" y="89.999" width="3.40147" height="3.40152" rx="1.70074" fill="black"/>
<rect x="6.1335" y="89.999" width="3.40147" height="3.40152" rx="1.70074" fill="black"/>
<path d="M79.878 133.584C75.4519 137.694 73.3536 140.351 68.9275 144.461L79.878 155.41" stroke="black" stroke-width="3.40015" stroke-linecap="round" stroke-linejoin="round"/>
<path d="M103.46 133.612L114.376 144.472L103.328 155.41" stroke="black" stroke-width="3.40015" stroke-linecap="round" stroke-linejoin="round"/>
<path d="M96.8846 124.394L86.3647 164.079" stroke="black" stroke-width="3.40015" stroke-linecap="round" stroke-linejoin="round"/>
</g>
<rect x="181.31" y="86.2579" width="109.529" height="179.598" rx="1.70074" transform="rotate(90 181.31 86.2579)" stroke="black" stroke-width="3.40148" stroke-linejoin="round"/>
<line x1="180.964" y1="96.5858" x2="2.72711" y2="96.5857" stroke="black" stroke-width="2.2875"/>
<rect x="65.5527" y="0.0421143" width="51.9257" height="51.9376" rx="3.61796" fill="#82D44F"/>
<path fill-rule="evenodd" clip-rule="evenodd" d="M98.2419 14.9318C97.8317 14.9318 97.5363 15.3255 97.6509 15.7193L98.4939 18.6165L87.4054 21.5909L85.5324 17.6483L87.2447 17.4581C87.5737 17.4215 87.8226 17.1434 87.8226 16.8124C87.8226 16.4537 87.5318 16.1628 87.173 16.1628H83.1552C82.6736 16.1628 82.2831 16.5533 82.2831 17.035C82.2831 17.5548 82.7349 17.9592 83.2515 17.9018L84.2404 17.7919L86.3474 22.2271L84.7382 24.167C83.6014 23.3887 82.2261 22.9334 80.7444 22.9334C76.8352 22.9334 73.6661 26.1025 73.6661 30.0117C73.6661 33.921 76.8352 37.0901 80.7444 37.0901C84.3407 37.0901 87.3105 34.408 87.7629 30.935H90.5197L91.1352 32.166H90.9001C90.5602 32.166 90.2846 32.4416 90.2846 32.7815C90.2846 33.1215 90.5602 33.397 90.9001 33.397H92.1186L92.1257 33.3971C92.132 33.3972 92.1383 33.3972 92.1445 33.397H93.3621C93.702 33.397 93.9776 33.1215 93.9776 32.7815C93.9776 32.4416 93.702 32.166 93.3621 32.166H92.5115L91.6185 30.38L99.2293 21.1438L99.8729 23.3557C97.1522 24.3426 95.2086 26.9502 95.2086 30.0117C95.2086 33.921 98.3776 37.0901 102.287 37.0901C106.196 37.0901 109.365 33.921 109.365 30.0117C109.365 26.1025 106.196 22.9334 102.287 22.9334C101.868 22.9334 101.459 22.9697 101.06 23.0393L99.0592 16.1628H100.748C101.088 16.1628 101.364 15.8873 101.364 15.5473C101.364 15.2074 101.088 14.9318 100.748 14.9318H98.2419ZM100.218 24.541L101.778 29.9014C101.872 30.2274 102.214 30.4145 102.54 30.3193C102.865 30.2242 103.052 29.8836 102.957 29.5582L101.407 24.2302C101.694 24.1869 101.988 24.1644 102.287 24.1644C105.516 24.1644 108.134 26.7824 108.134 30.0117C108.134 33.2411 105.516 35.8591 102.287 35.8591C99.0575 35.8591 96.4396 33.2411 96.4396 30.0117C96.4396 27.5108 98.0096 25.3766 100.218 24.541ZM87.816 29.704H89.8994L86.929 23.4514L85.6887 24.9466C86.9369 26.1652 87.7364 27.8414 87.816 29.704ZM84.8996 25.8978C85.8783 26.8863 86.5068 28.2222 86.5836 29.704H81.7422L84.8996 25.8978ZM83.9481 25.1194L79.9604 29.9265C79.6277 30.3277 79.913 30.935 80.4342 30.935H86.5191C86.0765 33.7257 83.6596 35.8591 80.7444 35.8591C77.515 35.8591 74.8971 33.2411 74.8971 30.0117C74.8971 26.7824 77.515 24.1644 80.7444 24.1644C81.9272 24.1644 83.0279 24.5156 83.9481 25.1194ZM87.9424 22.7212L98.7186 19.8305L91.0121 29.1829L87.9424 22.7212Z" fill="white" stroke="white" stroke-width="0.177575" stroke-linecap="round"/>
<path d="M91.4992 67.0466C90.8872 67.8565 90.3074 68.3963 89.7598 68.6663C89.0512 69.0315 88.1976 69.2141 87.199 69.2141H5.30239C4.40048 69.2141 3.65157 69.4761 3.05566 70.0001C2.45976 70.5241 2.1296 71.1751 2.06517 71.9532C2.01686 72.4613 1.92022 72.7868 1.77527 72.9297C1.5659 73.1362 1.31627 73.2394 1.02637 73.2394C0.736467 73.2394 0.494884 73.1441 0.301618 72.9536C0.108352 72.7471 0.0117188 72.4454 0.0117188 72.0485C0.0117188 70.7782 0.422409 69.7302 1.24379 68.9045C2.33897 67.7771 3.69183 67.2134 5.30239 67.2134H87.199C88.0848 67.2134 88.8337 66.9514 89.4457 66.4274C90.0416 65.8875 90.3718 65.2126 90.4362 64.4028C90.4845 63.9741 90.5973 63.6724 90.7744 63.4977C90.9516 63.3072 91.1932 63.2119 91.4992 63.2119C91.8213 63.2119 92.0709 63.3072 92.2481 63.4977C92.4253 63.6724 92.538 63.9741 92.5863 64.4028C92.6507 65.2285 92.989 65.9034 93.601 66.4274C94.1969 66.9514 94.9377 67.2134 95.8235 67.2134L177.72 67.2134C179.234 67.2134 180.49 67.6897 181.489 68.6425C182.504 69.5952 183.011 70.7305 183.011 72.0485C183.011 72.4454 182.914 72.7471 182.721 72.9536C182.528 73.1441 182.278 73.2394 181.972 73.2394C181.682 73.2394 181.441 73.1441 181.247 72.9536C181.102 72.7948 181.006 72.4613 180.957 71.9532C180.877 71.1593 180.531 70.5082 179.919 70.0001C179.323 69.4761 178.582 69.2141 177.696 69.2141L95.8235 69.2141C94.8089 69.2141 93.9875 69.0553 93.3594 68.7377C92.7313 68.4202 92.1112 67.8565 91.4992 67.0466Z" fill="black"/>
<defs>
<clipPath id="clip0_242_61068">
<rect x="183.011" y="84.5572" width="112.93" height="182.999" rx="3.40148" transform="rotate(90 183.011 84.5572)" fill="white"/>
</clipPath>
</defs>
</svg>
