<svg width="65" height="65" viewBox="0 0 65 65" fill="none" xmlns="http://www.w3.org/2000/svg">
<g clip-path="url(#clip0_242_60095)">
<mask id="path-1-inside-1_242_60095" fill="white">
<path d="M64.0135 60.912C64.0135 62.9133 62.3911 64.5357 60.3898 64.5357H3.63719C1.63587 64.5357 0.0134887 62.9133 0.0134888 60.912L0.0134893 4.15941C0.0134894 2.1581 1.63587 0.535711 3.63719 0.535711L60.3898 0.535706C62.3911 0.535705 64.0135 2.15809 64.0135 4.1594V60.912Z"/>
</mask>
<path d="M64.0135 60.912C64.0135 62.9133 62.3911 64.5357 60.3898 64.5357H3.63719C1.63587 64.5357 0.0134887 62.9133 0.0134888 60.912L0.0134893 4.15941C0.0134894 2.1581 1.63587 0.535711 3.63719 0.535711L60.3898 0.535706C62.3911 0.535705 64.0135 2.15809 64.0135 4.1594V60.912Z" fill="white"/>
<path d="M64.0135 4.1594H61.8325H64.0135ZM3.63719 64.5357V66.7167V64.5357ZM64.0135 60.912H61.8325H64.0135ZM2.19452 60.912L2.19452 4.15941H-2.16754L-2.16754 60.912H2.19452ZM3.63719 2.71674L60.3898 2.71674V-1.64533L3.63719 -1.64532L3.63719 2.71674ZM61.8325 4.1594V60.912H66.1945V4.1594H61.8325ZM60.3898 62.3547H3.63719V66.7167H60.3898V62.3547ZM60.3898 2.71674C61.1865 2.71674 61.8325 3.36264 61.8325 4.1594H66.1945C66.1945 0.95354 63.5956 -1.64533 60.3898 -1.64533V2.71674ZM2.19452 4.15941C2.19452 3.36265 2.84043 2.71674 3.63719 2.71674L3.63719 -1.64532C0.431323 -1.64532 -2.16754 0.953546 -2.16754 4.15941H2.19452ZM-2.16754 60.912C-2.16754 64.1179 0.431323 66.7167 3.63719 66.7167V62.3547C2.84042 62.3547 2.19452 61.7088 2.19452 60.912H-2.16754ZM61.8325 60.912C61.8325 61.7088 61.1865 62.3547 60.3898 62.3547V66.7167C63.5956 66.7167 66.1945 64.1179 66.1945 60.912H61.8325Z" fill="black" mask="url(#path-1-inside-1_242_60095)"/>
<g clip-path="url(#clip1_242_60095)">
<rect x="16.5936" y="16.5386" width="23.2727" height="2.90804" rx="1.45402" fill="black"/>
<rect x="16.5936" y="23.8103" width="2.90804" height="2.90804" rx="1.45402" fill="black"/>
<rect x="22.4107" y="23.8103" width="25.0112" height="2.90804" rx="1.45402" fill="black"/>
<rect x="16.5936" y="31.082" width="23.2727" height="2.90804" rx="1.45402" fill="black"/>
<rect x="16.5936" y="38.3536" width="2.90804" height="2.90804" rx="1.45402" fill="black"/>
<rect x="22.4107" y="38.3536" width="25.0112" height="2.90804" rx="1.45402" fill="black"/>
<rect x="16.5936" y="45.6254" width="23.2727" height="2.90804" rx="1.45402" fill="black"/>
</g>
</g>
<defs>
<clipPath id="clip0_242_60095">
<rect width="64" height="64" fill="white" transform="translate(0.0117188 0.536133)"/>
</clipPath>
<clipPath id="clip1_242_60095">
<rect width="30.8284" height="31.9948" fill="white" transform="translate(16.5936 16.5386)"/>
</clipPath>
</defs>
</svg>
