<svg width="65" height="65" viewBox="0 0 65 65" fill="none" xmlns="http://www.w3.org/2000/svg">
<g clip-path="url(#clip0_242_61048)">
<mask id="path-1-inside-1_242_61048" fill="white">
<path d="M64.0232 61.141C64.0232 63.1423 62.4009 64.7647 60.3995 64.7647H3.64695C1.64564 64.7647 0.0232544 63.1423 0.0232544 61.141L0.023255 4.38841C0.023255 2.3871 1.64564 0.764715 3.64695 0.764715L60.3995 0.764709C62.4009 0.764709 64.0232 2.38709 64.0232 4.38841V61.141Z"/>
</mask>
<path d="M64.0232 61.141C64.0232 63.1423 62.4009 64.7647 60.3995 64.7647H3.64695C1.64564 64.7647 0.0232544 63.1423 0.0232544 61.141L0.023255 4.38841C0.023255 2.3871 1.64564 0.764715 3.64695 0.764715L60.3995 0.764709C62.4009 0.764709 64.0232 2.38709 64.0232 4.38841V61.141Z" fill="white"/>
<path d="M3.64695 64.7647V62.5837V64.7647ZM64.0232 61.141H61.8422H64.0232ZM60.3995 64.7647V62.5837V64.7647ZM2.20429 61.141L2.20429 4.38841H-2.15778L-2.15778 61.141H2.20429ZM3.64695 2.94575L60.3995 2.94574V-1.41632L3.64695 -1.41632L3.64695 2.94575ZM61.8422 4.38841V61.141H66.2043V4.38841H61.8422ZM60.3995 62.5837H3.64695V66.9457L60.3995 66.9457V62.5837ZM60.3995 2.94574C61.1963 2.94574 61.8422 3.59165 61.8422 4.38841H66.2043C66.2043 1.18254 63.6054 -1.41632 60.3995 -1.41632V2.94574ZM2.20429 4.38841C2.20429 3.59165 2.85019 2.94575 3.64695 2.94575L3.64695 -1.41632C0.441089 -1.41632 -2.15778 1.18255 -2.15778 4.38841H2.20429ZM-2.15778 61.141C-2.15778 64.3469 0.441088 66.9457 3.64695 66.9457V62.5837C2.85019 62.5837 2.20429 61.9378 2.20429 61.141H-2.15778ZM61.8422 61.141C61.8422 61.9378 61.1963 62.5837 60.3995 62.5837V66.9457C63.6054 66.9457 66.2043 64.3469 66.2043 61.141H61.8422Z" fill="black" mask="url(#path-1-inside-1_242_61048)"/>
<path d="M22.7663 26.2004C20.0391 28.7332 18.7462 30.3707 16.019 32.9034L22.7663 39.6507" stroke="black" stroke-width="2.90804" stroke-linecap="round" stroke-linejoin="round"/>
<path d="M41.2921 26.218L48.0181 32.9099L41.2104 39.6504" stroke="black" stroke-width="2.90804" stroke-linecap="round" stroke-linejoin="round"/>
<path d="M35.249 20.5376L28.767 44.9928" stroke="black" stroke-width="2.90804" stroke-linecap="round" stroke-linejoin="round"/>
</g>
<defs>
<clipPath id="clip0_242_61048">
<rect width="64" height="64" fill="white" transform="translate(0.0117188 0.764893)"/>
</clipPath>
</defs>
</svg>
