<svg width="65" height="65" viewBox="0 0 65 65" fill="none" xmlns="http://www.w3.org/2000/svg">
<g clip-path="url(#clip0_242_61101)">
<mask id="path-1-inside-1_242_61101" fill="white">
<path d="M64.0018 61.1409C64.0018 63.1423 62.3794 64.7646 60.3781 64.7646H3.62547C1.62416 64.7646 0.00177 63.1423 0.00177002 61.1409L0.00177059 4.38835C0.00177061 2.38704 1.62416 0.764654 3.62547 0.764654L60.3781 0.764648C62.3794 0.764648 64.0018 2.38703 64.0018 4.38835V61.1409Z"/>
</mask>
<path d="M64.0018 61.1409C64.0018 63.1423 62.3794 64.7646 60.3781 64.7646H3.62547C1.62416 64.7646 0.00177 63.1423 0.00177002 61.1409L0.00177059 4.38835C0.00177061 2.38704 1.62416 0.764654 3.62547 0.764654L60.3781 0.764648C62.3794 0.764648 64.0018 2.38703 64.0018 4.38835V61.1409Z" fill="white"/>
<path d="M64.0018 4.38835H61.8207H64.0018ZM3.62547 64.7646V62.5836V64.7646ZM64.0018 61.1409H61.8207H64.0018ZM60.3781 64.7646V62.5836V64.7646ZM2.1828 61.1409L2.1828 4.38835H-2.17926L-2.17926 61.1409H2.1828ZM3.62547 2.94569L60.3781 2.94568V-1.41638L3.62547 -1.41638L3.62547 2.94569ZM61.8207 4.38835V61.1409H66.1828V4.38835H61.8207ZM60.3781 62.5836H3.62547V66.9457H60.3781V62.5836ZM60.3781 2.94568C61.1748 2.94568 61.8207 3.59158 61.8207 4.38835H66.1828C66.1828 1.18248 63.5839 -1.41638 60.3781 -1.41638V2.94568ZM2.1828 4.38835C2.1828 3.59159 2.82871 2.94569 3.62547 2.94569L3.62547 -1.41638C0.419604 -1.41638 -2.17926 1.18249 -2.17926 4.38835H2.1828ZM-2.17926 61.1409C-2.17926 64.3468 0.419605 66.9457 3.62547 66.9457V62.5836C2.82871 62.5836 2.1828 61.9377 2.1828 61.1409H-2.17926ZM61.8207 61.1409C61.8207 61.9377 61.1748 62.5836 60.3781 62.5836V66.9457C63.5839 66.9457 66.1828 64.3468 66.1828 61.1409H61.8207Z" fill="black" mask="url(#path-1-inside-1_242_61101)"/>
<mask id="path-3-inside-2_242_61101" fill="white">
<path fill-rule="evenodd" clip-rule="evenodd" d="M48.5208 20.3174H15.5115V45.1946V45.5509H15.5299C15.9402 49.5168 23.1644 52.6751 32.0162 52.6751C40.8679 52.6751 48.0922 49.5168 48.5024 45.5509H48.5208V45.1946V20.3174Z"/>
</mask>
<path fill-rule="evenodd" clip-rule="evenodd" d="M48.5208 20.3174H15.5115V45.1946V45.5509H15.5299C15.9402 49.5168 23.1644 52.6751 32.0162 52.6751C40.8679 52.6751 48.0922 49.5168 48.5024 45.5509H48.5208V45.1946V20.3174Z" fill="white"/>
<path d="M15.5115 20.3174V17.7728H12.967V20.3174H15.5115ZM48.5208 20.3174H51.0653V17.7728H48.5208V20.3174ZM15.5115 45.5509H12.967V48.0954H15.5115V45.5509ZM15.5299 45.5509L18.061 45.289L17.8248 43.0063H15.5299V45.5509ZM48.5024 45.5509V43.0063H46.2075L45.9714 45.289L48.5024 45.5509ZM48.5208 45.5509V48.0954H51.0653V45.5509H48.5208ZM15.5115 22.8619H48.5208V17.7728H15.5115V22.8619ZM18.0561 45.1946V20.3174H12.967V45.1946H18.0561ZM18.0561 45.5509V45.1946H12.967V45.5509H18.0561ZM15.5299 43.0063H15.5115V48.0954H15.5299V43.0063ZM32.0162 50.1306C27.8621 50.1306 24.2007 49.385 21.6199 48.2658C18.8266 47.0544 18.1146 45.808 18.061 45.289L12.9989 45.8127C13.3555 49.2597 16.4608 51.5754 19.5951 52.9347C22.9419 54.3861 27.3185 55.2197 32.0162 55.2197V50.1306ZM45.9714 45.289C45.9177 45.808 45.2058 47.0544 42.4125 48.2658C39.8316 49.385 36.1703 50.1306 32.0162 50.1306V55.2197C36.7138 55.2197 41.0905 54.3861 44.4373 52.9347C47.5716 51.5754 50.6769 49.2597 51.0335 45.8127L45.9714 45.289ZM48.5208 43.0063H48.5024V48.0954H48.5208V43.0063ZM45.9763 45.1946V45.5509H51.0653V45.1946H45.9763ZM45.9763 20.3174V45.1946H51.0653V20.3174H45.9763Z" fill="black" mask="url(#path-3-inside-2_242_61101)"/>
<path d="M47.2484 19.8278C47.2484 20.4319 46.9792 21.1021 46.3004 21.818C45.6153 22.5404 44.5642 23.2488 43.1683 23.8715C40.3795 25.1154 36.4377 25.9174 32.016 25.9174C27.5943 25.9174 23.6525 25.1154 20.8637 23.8715C19.4678 23.2488 18.4166 22.5404 17.7316 21.818C17.0528 21.1021 16.7836 20.4319 16.7836 19.8278C16.7836 19.2238 17.0528 18.5535 17.7316 17.8377C18.4166 17.1153 19.4678 16.4068 20.8637 15.7842C23.6525 14.5403 27.5943 13.7383 32.016 13.7383C36.4377 13.7383 40.3795 14.5403 43.1683 15.7842C44.5642 16.4068 45.6153 17.1153 46.3004 17.8377C46.9792 18.5535 47.2484 19.2238 47.2484 19.8278Z" fill="white" stroke="black" stroke-width="2.54454"/>
<path d="M16.816 29.2187C16.816 29.2187 20.1445 33.9404 32.0148 33.9404C43.8851 33.9404 47.1687 29.2183 47.1687 29.2183" stroke="black" stroke-width="2.54454" stroke-linecap="round" stroke-linejoin="round"/>
<path d="M16.816 37.8506C16.816 37.8506 20.1445 42.5723 32.0148 42.5723C43.8851 42.5723 47.1687 37.8501 47.1687 37.8501" stroke="black" stroke-width="2.54454" stroke-linecap="round" stroke-linejoin="round"/>
</g>
<defs>
<clipPath id="clip0_242_61101">
<rect width="64" height="64" fill="white" transform="translate(0.0117188 0.764893)"/>
</clipPath>
</defs>
</svg>
