<?xml version="1.0" encoding="UTF-8"?>
<svg width="200px" height="200px" version="1.1" viewBox="0 0 396.16 396.16" xml:space="preserve" xmlns="http://www.w3.org/2000/svg">
<path d="m248.08 32.082c-52.079 0-94.304 24.952-94.304 55.732v253.53c0 30.78 42.225 55.732 94.304 55.732s94.304-24.952 94.304-55.732v-253.53c0-30.78-42.225-55.732-94.304-55.732z" fill="#E5E5E5"/>
<path d="m248.08 42.082c-45.05 0-81.575 23.585-81.575 52.679v239.64c0 29.094 36.525 52.679 81.575 52.679s81.575-23.585 81.575-52.679v-239.64c0-29.094-36.525-52.679-81.575-52.679z" fill="#3B3B3B"/>
<circle cx="248.08" cy="116.58" r="43" fill="#EA4949"/>
<path d="m274.49 90.175c-14.583-14.583-38.228-14.583-52.811 0-14.584 14.583-14.584 38.228 0 52.812 14.584 14.583 67.395-38.228 52.811-52.812z" fill="#F25F5F"/>
<circle cx="248.08" cy="317.08" r="43" fill="#2BBF60"/>
<circle cx="248.08" cy="217.08" r="43" fill="#EAB42D"/>
<path d="m274.49 191.18c-14.583-14.583-38.228-14.583-52.811 0-14.584 14.583-14.584 38.228 0 52.812 14.584 14.583 67.395-38.228 52.811-52.812z" fill="#EDCB3B"/>
<path d="m274.49 291.18c-14.583-14.583-38.228-14.583-52.811 0-14.584 14.583-14.584 38.228 0 52.812 14.584 14.583 67.395-38.228 52.811-52.812z" fill="#3CCE6C"/>
</svg>
