<svg width="200" height="375" xmlns="http://www.w3.org/2000/svg" version="1.1" xml:space="preserve">
 <g>
  <title>Layer 1</title>
  <path d="m100.081,5.082c-52.079,0 -94.304,24.952 -94.304,55.732l0,253.533c0,30.78 42.225,55.732 94.304,55.732s94.304,-24.952 94.304,-55.732l0,-253.533c0,-30.78 -42.225,-55.732 -94.304,-55.732z" fill="#E5E5E5" id="svg_1"/>
  <path d="m100.081,15.082c-45.05,0 -81.575,23.585 -81.575,52.679l0,239.64c0,29.094 36.525,52.679 81.575,52.679s81.575,-23.585 81.575,-52.679l0,-239.64c0,-29.094 -36.525,-52.679 -81.575,-52.679z" fill="#3B3B3B" id="svg_2"/>
  <g id="red">
   <circle cx="101.081" cy="89.581" r="43" fill="#EA4949" id="svg_3"/>
   <path d="m127.486,63.175c-14.583,-14.583 -38.228,-14.583 -52.811,0c-14.584,14.583 -14.584,38.228 0,52.812c14.584,14.583 67.395,-38.228 52.811,-52.812z" fill="#F25F5F" id="svg_4"/>
  </g>
  <g id="amber">
   <circle cx="99.081" cy="189.081" r="43" fill="#2D2D2D" id="svg_6"/>
   <path d="m125.486,163.175c-14.583,-14.583 -38.228,-14.583 -52.811,0c-14.584,14.583 -14.584,38.228 0,52.812c14.584,14.583 67.395,-38.228 52.811,-52.812z" fill="#494949" id="svg_7"/>
  </g>
  <g id="green">
   <circle cx="99.081" cy="290.081" r="43" fill="#2D2D2D" id="svg_5"/>
   <path d="m125.486,264.175c-14.583,-14.583 -38.228,-14.583 -52.811,0c-14.584,14.583 -14.584,38.228 0,52.812c14.584,14.583 67.395,-38.228 52.811,-52.812z" fill="#494949" id="svg_8"/>
  </g>
 </g>
</svg>
