<svg width="683" height="32" viewBox="0 0 683 32" fill="none" xmlns="http://www.w3.org/2000/svg">
<rect x="0.794769" y="0.794769" width="85.4849" height="29.4849" stroke="#232326" stroke-width="1.58954"/>
<path d="M17.3454 15.9009C17.3454 16.694 17.1951 17.3687 16.8944 17.925C16.5961 18.4814 16.1889 18.9063 15.6728 19.1999C15.1591 19.4911 14.5815 19.6367 13.9399 19.6367C13.2936 19.6367 12.7136 19.4899 12.1998 19.1963C11.6861 18.9028 11.2801 18.4778 10.9818 17.9215C10.6835 17.3651 10.5343 16.6916 10.5343 15.9009C10.5343 15.1078 10.6835 14.4331 10.9818 13.8767C11.2801 13.3204 11.6861 12.8966 12.1998 12.6054C12.7136 12.3119 13.2936 12.1651 13.9399 12.1651C14.5815 12.1651 15.1591 12.3119 15.6728 12.6054C16.1889 12.8966 16.5961 13.3204 16.8944 13.8767C17.1951 14.4331 17.3454 15.1078 17.3454 15.9009ZM15.7865 15.9009C15.7865 15.3871 15.7095 14.9539 15.5556 14.6012C15.4041 14.2484 15.1899 13.9809 14.9129 13.7986C14.6359 13.6163 14.3116 13.5252 13.9399 13.5252C13.5682 13.5252 13.2439 13.6163 12.9669 13.7986C12.6899 13.9809 12.4744 14.2484 12.3206 14.6012C12.169 14.9539 12.0933 15.3871 12.0933 15.9009C12.0933 16.4146 12.169 16.8478 12.3206 17.2006C12.4744 17.5533 12.6899 17.8208 12.9669 18.0031C13.2439 18.1854 13.5682 18.2766 13.9399 18.2766C14.3116 18.2766 14.6359 18.1854 14.9129 18.0031C15.1899 17.8208 15.4041 17.5533 15.5556 17.2006C15.7095 16.8478 15.7865 16.4146 15.7865 15.9009ZM18.8844 19.5372V12.2645H21.7964C22.3314 12.2645 22.7777 12.3438 23.1352 12.5024C23.4926 12.661 23.7613 12.8812 23.9413 13.1629C24.1212 13.4423 24.2112 13.7643 24.2112 14.1289C24.2112 14.4129 24.1543 14.6627 24.0407 14.8781C23.9271 15.0912 23.7708 15.2664 23.5719 15.4037C23.3755 15.5387 23.1505 15.6345 22.8972 15.6914V15.7624C23.1742 15.7742 23.4335 15.8523 23.6749 15.9967C23.9188 16.1412 24.1165 16.3436 24.268 16.604C24.4195 16.862 24.4952 17.1698 24.4952 17.5273C24.4952 17.9132 24.3994 18.2576 24.2076 18.5607C24.0182 18.8613 23.7377 19.0993 23.366 19.2744C22.9943 19.4496 22.5362 19.5372 21.9917 19.5372H18.8844ZM20.4221 18.2801H21.6756C22.1041 18.2801 22.4166 18.1985 22.6131 18.0351C22.8096 17.8694 22.9079 17.6492 22.9079 17.3746C22.9079 17.1734 22.8594 16.9958 22.7623 16.8419C22.6652 16.688 22.5267 16.5673 22.3468 16.4797C22.1692 16.3921 21.9574 16.3483 21.7112 16.3483H20.4221V18.2801ZM20.4221 15.3078H21.562C21.7727 15.3078 21.9597 15.2711 22.1231 15.1977C22.2888 15.122 22.419 15.0155 22.5137 14.8781C22.6108 14.7408 22.6593 14.5763 22.6593 14.3845C22.6593 14.1217 22.5658 13.9099 22.3788 13.7489C22.1941 13.5879 21.9313 13.5074 21.5904 13.5074H20.4221V15.3078ZM28.8077 12.2645H30.3276V17.3355C30.3276 17.8043 30.2222 18.2115 30.0115 18.5571C29.8032 18.9028 29.5132 19.1691 29.1415 19.3561C28.7698 19.5432 28.3378 19.6367 27.8453 19.6367C27.4074 19.6367 27.0096 19.5597 26.6522 19.4058C26.2971 19.2496 26.0153 19.0128 25.807 18.6956C25.5987 18.376 25.4957 17.9747 25.498 17.4918H27.0286C27.0333 17.6835 27.0724 17.8481 27.1458 17.9854C27.2215 18.1203 27.3245 18.2245 27.4547 18.2979C27.5873 18.3689 27.7435 18.4044 27.9235 18.4044C28.1129 18.4044 28.2727 18.3642 28.4029 18.2837C28.5355 18.2008 28.6361 18.0801 28.7047 17.9215C28.7734 17.7628 28.8077 17.5675 28.8077 17.3355V12.2645ZM31.9989 19.5372V12.2645H36.8995V13.5323H33.5365V15.2652H36.6473V16.533H33.5365V18.2695H36.9137V19.5372H31.9989ZM44.9389 14.8107H43.3835C43.355 14.6094 43.297 14.4307 43.2094 14.2744C43.1219 14.1158 43.0094 13.9809 42.8721 13.8696C42.7348 13.7583 42.5762 13.6731 42.3962 13.6139C42.2187 13.5548 42.0257 13.5252 41.8174 13.5252C41.441 13.5252 41.1131 13.6187 40.8337 13.8057C40.5544 13.9904 40.3378 14.2602 40.1839 14.6154C40.03 14.9681 39.9531 15.3966 39.9531 15.9009C39.9531 16.4193 40.03 16.8549 40.1839 17.2077C40.3401 17.5604 40.5579 17.8268 40.8373 18.0067C41.1166 18.1866 41.4398 18.2766 41.8067 18.2766C42.0127 18.2766 42.2033 18.2494 42.3785 18.1949C42.556 18.1405 42.7135 18.0611 42.8508 17.957C42.9881 17.8504 43.1017 17.7214 43.1917 17.5699C43.284 17.4184 43.3479 17.2456 43.3835 17.0514L44.9389 17.0585C44.8986 17.3923 44.798 17.7143 44.637 18.0244C44.4784 18.3322 44.2641 18.608 43.9942 18.8519C43.7267 19.0933 43.4071 19.2851 43.0354 19.4271C42.6661 19.5668 42.2483 19.6367 41.7819 19.6367C41.1332 19.6367 40.5532 19.4899 40.0418 19.1963C39.5328 18.9028 39.1304 18.4778 38.8344 17.9215C38.5409 17.3651 38.3941 16.6916 38.3941 15.9009C38.3941 15.1078 38.5433 14.4331 38.8415 13.8767C39.1398 13.3204 39.5447 12.8966 40.056 12.6054C40.5674 12.3119 41.1427 12.1651 41.7819 12.1651C42.2033 12.1651 42.5939 12.2243 42.9538 12.3426C43.316 12.461 43.6368 12.6338 43.9161 12.8611C44.1955 13.086 44.4228 13.3618 44.5979 13.6885C44.7755 14.0152 44.8891 14.3893 44.9389 14.8107ZM46.1645 13.5323V12.2645H52.1375V13.5323H49.9109V19.5372H48.3911V13.5323H46.1645ZM55.0588 12.2645V19.5372H53.5212V12.2645H55.0588ZM58.0378 12.2645L59.7956 17.7901H59.8631L61.6245 12.2645H63.329L60.8219 19.5372H58.8404L56.3297 12.2645H58.0378ZM64.6044 19.5372V12.2645H69.5049V13.5323H66.142V15.2652H69.2528V16.533H66.142V18.2695H69.5191V19.5372H64.6044ZM75.0727 14.3561C75.0443 14.0697 74.9224 13.8471 74.707 13.6885C74.4915 13.5299 74.1991 13.4506 73.8298 13.4506C73.5789 13.4506 73.367 13.4861 73.1942 13.5571C73.0214 13.6258 72.8888 13.7217 72.7964 13.8448C72.7065 13.9679 72.6615 14.1075 72.6615 14.2638C72.6568 14.394 72.684 14.5076 72.7432 14.6047C72.8047 14.7018 72.8888 14.7858 72.9953 14.8568C73.1018 14.9255 73.225 14.9859 73.3646 15.0379C73.5043 15.0877 73.6535 15.1303 73.8121 15.1658L74.4655 15.322C74.7827 15.3931 75.0739 15.4878 75.3391 15.6061C75.6042 15.7245 75.8339 15.8701 76.028 16.0429C76.2221 16.2157 76.3724 16.4193 76.479 16.6537C76.5879 16.8881 76.6435 17.1568 76.6459 17.4598C76.6435 17.9049 76.5299 18.2908 76.305 18.6175C76.0824 18.9418 75.7605 19.194 75.3391 19.3739C74.92 19.5514 74.4146 19.6402 73.8227 19.6402C73.2356 19.6402 72.7242 19.5503 72.2886 19.3703C71.8554 19.1904 71.5169 18.9241 71.273 18.5713C71.0315 18.2162 70.9049 17.7771 70.893 17.2539H72.381C72.3975 17.4977 72.4674 17.7013 72.5905 17.8646C72.716 18.0256 72.8829 18.1476 73.0912 18.2304C73.3019 18.3109 73.5398 18.3512 73.805 18.3512C74.0654 18.3512 74.2915 18.3133 74.4832 18.2375C74.6774 18.1618 74.8277 18.0564 74.9342 17.9215C75.0408 17.7865 75.094 17.6315 75.094 17.4563C75.094 17.2929 75.0455 17.1556 74.9484 17.0443C74.8537 16.9331 74.7141 16.8384 74.5294 16.7602C74.3471 16.6821 74.1234 16.6111 73.8582 16.5472L73.0663 16.3483C72.4532 16.1992 71.969 15.966 71.6139 15.6487C71.2588 15.3315 71.0824 14.9042 71.0848 14.3668C71.0824 13.9264 71.1996 13.5417 71.4364 13.2127C71.6755 12.8836 72.0034 12.6267 72.42 12.4421C72.8367 12.2574 73.3102 12.1651 73.8405 12.1651C74.3803 12.1651 74.8514 12.2574 75.2538 12.4421C75.6587 12.6267 75.9735 12.8836 76.1984 13.2127C76.4233 13.5417 76.5393 13.9229 76.5464 14.3561H75.0727Z" fill="#232326"/>
<path d="M106.338 15.5372L98.1523 10.811V20.2635L106.338 15.5372ZM87.0742 16.3558H98.9709V14.7186H87.0742V16.3558Z" fill="#232326"/>
<rect x="107.135" y="0.794769" width="103.485" height="29.4849" stroke="#232326" stroke-width="1.58954"/>
<path d="M118.16 19.5372H116.512L119.023 12.2645H121.004L123.511 19.5372H121.864L120.042 13.9264H119.985L118.16 19.5372ZM118.057 16.6786H121.949V17.8789H118.057V16.6786ZM130.862 14.8107H129.306C129.278 14.6094 129.22 14.4307 129.132 14.2744C129.045 14.1158 128.932 13.9809 128.795 13.8696C128.658 13.7583 128.499 13.6731 128.319 13.6139C128.142 13.5548 127.949 13.5252 127.74 13.5252C127.364 13.5252 127.036 13.6187 126.757 13.8057C126.477 13.9904 126.261 14.2602 126.107 14.6154C125.953 14.9681 125.876 15.3966 125.876 15.9009C125.876 16.4193 125.953 16.8549 126.107 17.2077C126.263 17.5604 126.481 17.8268 126.76 18.0067C127.039 18.1866 127.363 18.2766 127.73 18.2766C127.936 18.2766 128.126 18.2494 128.301 18.1949C128.479 18.1405 128.636 18.0611 128.774 17.957C128.911 17.8504 129.025 17.7214 129.115 17.5699C129.207 17.4184 129.271 17.2456 129.306 17.0514L130.862 17.0585C130.821 17.3923 130.721 17.7143 130.56 18.0244C130.401 18.3322 130.187 18.608 129.917 18.8519C129.65 19.0933 129.33 19.2851 128.958 19.4271C128.589 19.5668 128.171 19.6367 127.705 19.6367C127.056 19.6367 126.476 19.4899 125.965 19.1963C125.456 18.9028 125.053 18.4778 124.757 17.9215C124.464 17.3651 124.317 16.6916 124.317 15.9009C124.317 15.1078 124.466 14.4331 124.764 13.8767C125.063 13.3204 125.468 12.8966 125.979 12.6054C126.49 12.3119 127.066 12.1651 127.705 12.1651C128.126 12.1651 128.517 12.2243 128.877 12.3426C129.239 12.461 129.56 12.6338 129.839 12.8611C130.118 13.086 130.346 13.3618 130.521 13.6885C130.698 14.0152 130.812 14.3893 130.862 14.8107ZM132.087 13.5323V12.2645H138.06V13.5323H135.834V19.5372H134.314V13.5323H132.087ZM140.982 12.2645V19.5372H139.444V12.2645H140.982ZM143.961 12.2645L145.718 17.7901H145.786L147.547 12.2645H149.252L146.745 19.5372H144.763L142.253 12.2645H143.961ZM152.065 12.2645V19.5372H150.527V12.2645H152.065ZM153.453 13.5323V12.2645H159.426V13.5323H157.199V19.5372H155.68V13.5323H153.453ZM160.384 12.2645H162.106L163.764 15.3966H163.835L165.494 12.2645H167.216L164.563 16.9662V19.5372H163.036V16.9662L160.384 12.2645ZM175.116 14.3561C175.087 14.0697 174.965 13.8471 174.75 13.6885C174.534 13.5299 174.242 13.4506 173.873 13.4506C173.622 13.4506 173.41 13.4861 173.237 13.5571C173.064 13.6258 172.932 13.7217 172.839 13.8448C172.749 13.9679 172.704 14.1075 172.704 14.2638C172.7 14.394 172.727 14.5076 172.786 14.6047C172.848 14.7018 172.932 14.7858 173.038 14.8568C173.145 14.9255 173.268 14.9859 173.407 15.0379C173.547 15.0877 173.696 15.1303 173.855 15.1658L174.508 15.322C174.825 15.3931 175.117 15.4878 175.382 15.6061C175.647 15.7245 175.877 15.8701 176.071 16.0429C176.265 16.2157 176.415 16.4193 176.522 16.6537C176.631 16.8881 176.686 17.1568 176.689 17.4598C176.686 17.9049 176.573 18.2908 176.348 18.6175C176.125 18.9418 175.803 19.194 175.382 19.3739C174.963 19.5514 174.457 19.6402 173.866 19.6402C173.278 19.6402 172.767 19.5503 172.331 19.3703C171.898 19.1904 171.56 18.9241 171.316 18.5713C171.074 18.2162 170.948 17.7771 170.936 17.2539H172.424C172.44 17.4977 172.51 17.7013 172.633 17.8646C172.759 18.0256 172.926 18.1476 173.134 18.2304C173.345 18.3109 173.583 18.3512 173.848 18.3512C174.108 18.3512 174.334 18.3133 174.526 18.2375C174.72 18.1618 174.87 18.0564 174.977 17.9215C175.084 17.7865 175.137 17.6315 175.137 17.4563C175.137 17.2929 175.088 17.1556 174.991 17.0443C174.897 16.9331 174.757 16.8384 174.572 16.7602C174.39 16.6821 174.166 16.6111 173.901 16.5472L173.109 16.3483C172.496 16.1992 172.012 15.966 171.657 15.6487C171.302 15.3315 171.125 14.9042 171.128 14.3668C171.125 13.9264 171.242 13.5417 171.479 13.2127C171.718 12.8836 172.046 12.6267 172.463 12.4421C172.879 12.2574 173.353 12.1651 173.883 12.1651C174.423 12.1651 174.894 12.2574 175.297 12.4421C175.701 12.6267 176.016 12.8836 176.241 13.2127C176.466 13.5417 176.582 13.9229 176.589 14.3561H175.116ZM178.123 19.5372V12.2645H179.661V15.2652H182.782V12.2645H184.316V19.5372H182.782V16.533H179.661V19.5372H178.123ZM187.522 12.2645V19.5372H185.984V12.2645H187.522ZM189.187 19.5372V12.2645H194.002V13.5323H190.724V15.2652H193.682V16.533H190.724V19.5372H189.187ZM195.159 13.5323V12.2645H201.132V13.5323H198.906V19.5372H197.386V13.5323H195.159Z" fill="#232326"/>
<path d="M230.678 15.5372L222.492 10.811V20.2635L230.678 15.5372ZM211.414 16.3558H223.311V14.7186H211.414V16.3558Z" fill="#232326"/>
<rect x="231.471" y="0.794769" width="79.4849" height="29.4849" stroke="#232326" stroke-width="1.58954"/>
<path d="M240.882 19.5372V12.2645H243.794C244.329 12.2645 244.775 12.3438 245.132 12.5024C245.49 12.661 245.759 12.8812 245.939 13.1629C246.118 13.4423 246.208 13.7643 246.208 14.1289C246.208 14.4129 246.152 14.6627 246.038 14.8781C245.924 15.0912 245.768 15.2664 245.569 15.4037C245.373 15.5387 245.148 15.6345 244.894 15.6914V15.7624C245.171 15.7742 245.431 15.8523 245.672 15.9967C245.916 16.1412 246.114 16.3436 246.265 16.604C246.417 16.862 246.493 17.1698 246.493 17.5273C246.493 17.9132 246.397 18.2576 246.205 18.5607C246.015 18.8613 245.735 19.0993 245.363 19.2744C244.992 19.4496 244.533 19.5372 243.989 19.5372H240.882ZM242.419 18.2801H243.673C244.101 18.2801 244.414 18.1985 244.61 18.0351C244.807 17.8694 244.905 17.6492 244.905 17.3746C244.905 17.1734 244.857 16.9958 244.76 16.8419C244.662 16.688 244.524 16.5673 244.344 16.4797C244.167 16.3921 243.955 16.3483 243.708 16.3483H242.419V18.2801ZM242.419 15.3078H243.559C243.77 15.3078 243.957 15.2711 244.12 15.1977C244.286 15.122 244.416 15.0155 244.511 14.8781C244.608 14.7408 244.657 14.5763 244.657 14.3845C244.657 14.1217 244.563 13.9099 244.376 13.7489C244.191 13.5879 243.929 13.5074 243.588 13.5074H242.419V15.3078ZM247.893 19.5372V12.2645H252.794V13.5323H249.431V15.2652H252.541V16.533H249.431V18.2695H252.808V19.5372H247.893ZM254.416 19.5372V12.2645H255.954V15.2652H259.075V12.2645H260.609V19.5372H259.075V16.533H255.954V19.5372H254.416ZM263.531 19.5372H261.883L264.394 12.2645H266.375L268.882 19.5372H267.234L265.413 13.9264H265.356L263.531 19.5372ZM263.428 16.6786H267.32V17.8789H263.428V16.6786ZM270.563 12.2645L272.321 17.7901H272.388L274.15 12.2645H275.854L273.347 19.5372H271.366L268.855 12.2645H270.563ZM278.667 12.2645V19.5372H277.13V12.2645H278.667ZM287.016 15.9009C287.016 16.694 286.865 17.3687 286.565 17.925C286.266 18.4814 285.859 18.9063 285.343 19.1999C284.829 19.4911 284.252 19.6367 283.61 19.6367C282.964 19.6367 282.384 19.4899 281.87 19.1963C281.356 18.9028 280.95 18.4778 280.652 17.9215C280.354 17.3651 280.205 16.6916 280.205 15.9009C280.205 15.1078 280.354 14.4331 280.652 13.8767C280.95 13.3204 281.356 12.8966 281.87 12.6054C282.384 12.3119 282.964 12.1651 283.61 12.1651C284.252 12.1651 284.829 12.3119 285.343 12.6054C285.859 12.8966 286.266 13.3204 286.565 13.8767C286.865 14.4331 287.016 15.1078 287.016 15.9009ZM285.457 15.9009C285.457 15.3871 285.38 14.9539 285.226 14.6012C285.074 14.2484 284.86 13.9809 284.583 13.7986C284.306 13.6163 283.982 13.5252 283.61 13.5252C283.239 13.5252 282.914 13.6163 282.637 13.7986C282.36 13.9809 282.145 14.2484 281.991 14.6012C281.839 14.9539 281.764 15.3871 281.764 15.9009C281.764 16.4146 281.839 16.8478 281.991 17.2006C282.145 17.5533 282.36 17.8208 282.637 18.0031C282.914 18.1854 283.239 18.2766 283.61 18.2766C283.982 18.2766 284.306 18.1854 284.583 18.0031C284.86 17.8208 285.074 17.5533 285.226 17.2006C285.38 16.8478 285.457 16.4146 285.457 15.9009ZM293.047 12.2645H294.585V16.9875C294.585 17.5178 294.458 17.9818 294.205 18.3796C293.954 18.7773 293.602 19.0874 293.15 19.31C292.698 19.5301 292.171 19.6402 291.57 19.6402C290.966 19.6402 290.438 19.5301 289.986 19.31C289.534 19.0874 289.182 18.7773 288.931 18.3796C288.68 17.9818 288.555 17.5178 288.555 16.9875V12.2645H290.092V16.8561C290.092 17.1331 290.153 17.3793 290.274 17.5948C290.397 17.8102 290.569 17.9795 290.792 18.1026C291.015 18.2257 291.274 18.2872 291.57 18.2872C291.868 18.2872 292.127 18.2257 292.347 18.1026C292.57 17.9795 292.742 17.8102 292.862 17.5948C292.985 17.3793 293.047 17.1331 293.047 16.8561V12.2645ZM296.25 19.5372V12.2645H299.119C299.668 12.2645 300.137 12.3628 300.525 12.5592C300.916 12.7534 301.213 13.0292 301.417 13.3867C301.623 13.7418 301.726 14.1596 301.726 14.6402C301.726 15.1232 301.621 15.5387 301.413 15.8867C301.205 16.2323 300.903 16.4975 300.507 16.6821C300.114 16.8668 299.639 16.9591 299.08 16.9591H297.159V15.7233H298.831C299.125 15.7233 299.369 15.6831 299.563 15.6026C299.757 15.5221 299.901 15.4013 299.996 15.2404C300.093 15.0794 300.142 14.8793 300.142 14.6402C300.142 14.3987 300.093 14.1951 299.996 14.0294C299.901 13.8637 299.756 13.7382 299.559 13.653C299.365 13.5654 299.12 13.5216 298.824 13.5216H297.787V19.5372H296.25ZM300.177 16.2276L301.985 19.5372H300.287L298.519 16.2276H300.177Z" fill="#232326"/>
<path d="M331.014 15.5372L322.828 10.811V20.2635L331.014 15.5372ZM311.75 16.3558H323.647V14.7186H311.75V16.3558Z" fill="#232326"/>
<rect x="331.81" y="0.794769" width="40.4849" height="29.4849" stroke="#232326" stroke-width="1.58954"/>
<path d="M346.44 14.6154C346.391 14.4425 346.321 14.2898 346.231 14.1573C346.141 14.0223 346.031 13.9087 345.901 13.8164C345.773 13.7217 345.626 13.6494 345.46 13.5997C345.297 13.55 345.116 13.5252 344.917 13.5252C344.545 13.5252 344.218 13.6175 343.937 13.8021C343.657 13.9868 343.44 14.2555 343.283 14.6083C343.127 14.9586 343.049 15.3871 343.049 15.8938C343.049 16.4004 343.126 16.8313 343.28 17.1864C343.434 17.5415 343.651 17.8126 343.933 17.9996C344.215 18.1842 344.548 18.2766 344.931 18.2766C345.279 18.2766 345.576 18.215 345.822 18.0919C346.071 17.9664 346.26 17.7901 346.391 17.5628C346.523 17.3355 346.589 17.0668 346.589 16.7567L346.902 16.8029H345.027V15.6452H348.07V16.5614C348.07 17.2006 347.935 17.7498 347.665 18.2091C347.396 18.666 347.024 19.0188 346.55 19.2673C346.077 19.5136 345.535 19.6367 344.924 19.6367C344.242 19.6367 343.643 19.4863 343.127 19.1857C342.611 18.8826 342.209 18.453 341.92 17.8966C341.633 17.3379 341.49 16.675 341.49 15.908C341.49 15.3185 341.575 14.7929 341.746 14.3313C341.919 13.8673 342.16 13.4743 342.47 13.1523C342.78 12.8303 343.141 12.5853 343.553 12.4172C343.965 12.2491 344.411 12.1651 344.892 12.1651C345.304 12.1651 345.687 12.2254 346.043 12.3462C346.398 12.4646 346.713 12.6326 346.987 12.8504C347.264 13.0682 347.49 13.3275 347.665 13.6281C347.841 13.9264 347.953 14.2555 348.003 14.6154H346.44ZM350.654 19.5372H349.006L351.517 12.2645H353.499L356.006 19.5372H354.358L352.536 13.9264H352.479L350.654 19.5372ZM350.551 16.6786H354.443V17.8789H350.551V16.6786ZM357.281 19.5372V12.2645H360.15C360.702 12.2645 361.172 12.3699 361.56 12.5806C361.949 12.7889 362.244 13.0789 362.448 13.4506C362.654 13.8199 362.757 14.246 362.757 14.729C362.757 15.2119 362.653 15.6381 362.444 16.0074C362.236 16.3767 361.934 16.6644 361.539 16.8703C361.146 17.0763 360.67 17.1793 360.111 17.1793H358.283V15.947H359.863C360.159 15.947 360.403 15.8961 360.594 15.7943C360.788 15.6902 360.933 15.5469 361.028 15.3646C361.125 15.18 361.173 14.9681 361.173 14.729C361.173 14.4875 361.125 14.2768 361.028 14.0969C360.933 13.9146 360.788 13.7737 360.594 13.6743C360.4 13.5725 360.154 13.5216 359.856 13.5216H358.819V19.5372H357.281Z" fill="#232326"/>
<path d="M392.354 15.5372L384.168 10.811V20.2635L392.354 15.5372ZM373.09 16.3558H384.987V14.7186H373.09V16.3558Z" fill="#232326"/>
<rect x="393.15" y="0.794769" width="104.485" height="29.4849" stroke="#232326" stroke-width="1.58954"/>
<path d="M404.417 12.2645V19.5372H402.88V12.2645H404.417ZM412.165 12.2645V19.5372H410.837L407.673 14.9598H407.62V19.5372H406.082V12.2645H407.432L410.571 16.8384H410.635V12.2645H412.165ZM413.559 13.5323V12.2645H419.532V13.5323H417.305V19.5372H415.785V13.5323H413.559ZM420.915 19.5372V12.2645H425.816V13.5323H422.453V15.2652H425.564V16.533H422.453V18.2695H425.83V19.5372H420.915ZM427.439 19.5372V12.2645H430.308C430.857 12.2645 431.326 12.3628 431.714 12.5592C432.105 12.7534 432.402 13.0292 432.605 13.3867C432.811 13.7418 432.914 14.1596 432.914 14.6402C432.914 15.1232 432.81 15.5387 432.602 15.8867C432.394 16.2323 432.092 16.4975 431.696 16.6821C431.303 16.8668 430.828 16.9591 430.269 16.9591H428.348V15.7233H430.02C430.314 15.7233 430.558 15.6831 430.752 15.6026C430.946 15.5221 431.09 15.4013 431.185 15.2404C431.282 15.0794 431.331 14.8793 431.331 14.6402C431.331 14.3987 431.282 14.1951 431.185 14.0294C431.09 13.8637 430.945 13.7382 430.748 13.653C430.554 13.5654 430.309 13.5216 430.013 13.5216H428.976V19.5372H427.439ZM431.366 16.2276L433.174 19.5372H431.476L429.708 16.2276H431.366ZM435.52 12.2645L437.277 17.7901H437.345L439.106 12.2645H440.811L438.304 19.5372H436.322L433.812 12.2645H435.52ZM442.086 19.5372V12.2645H446.987V13.5323H443.624V15.2652H446.735V16.533H443.624V18.2695H447.001V19.5372H442.086ZM454.692 12.2645V19.5372H453.364L450.2 14.9598H450.147V19.5372H448.609V12.2645H449.959L453.098 16.8384H453.162V12.2645H454.692ZM456.086 13.5323V12.2645H462.059V13.5323H459.832V19.5372H458.312V13.5323H456.086ZM464.98 12.2645V19.5372H463.442V12.2645H464.98ZM473.328 15.9009C473.328 16.694 473.178 17.3687 472.877 17.925C472.579 18.4814 472.172 18.9063 471.656 19.1999C471.142 19.4911 470.564 19.6367 469.923 19.6367C469.277 19.6367 468.697 19.4899 468.183 19.1963C467.669 18.9028 467.263 18.4778 466.965 17.9215C466.666 17.3651 466.517 16.6916 466.517 15.9009C466.517 15.1078 466.666 14.4331 466.965 13.8767C467.263 13.3204 467.669 12.8966 468.183 12.6054C468.697 12.3119 469.277 12.1651 469.923 12.1651C470.564 12.1651 471.142 12.3119 471.656 12.6054C472.172 12.8966 472.579 13.3204 472.877 13.8767C473.178 14.4331 473.328 15.1078 473.328 15.9009ZM471.769 15.9009C471.769 15.3871 471.693 14.9539 471.539 14.6012C471.387 14.2484 471.173 13.9809 470.896 13.7986C470.619 13.6163 470.295 13.5252 469.923 13.5252C469.551 13.5252 469.227 13.6163 468.95 13.7986C468.673 13.9809 468.457 14.2484 468.304 14.6012C468.152 14.9539 468.076 15.3871 468.076 15.9009C468.076 16.4146 468.152 16.8478 468.304 17.2006C468.457 17.5533 468.673 17.8208 468.95 18.0031C469.227 18.1854 469.551 18.2766 469.923 18.2766C470.295 18.2766 470.619 18.1854 470.896 18.0031C471.173 17.8208 471.387 17.5533 471.539 17.2006C471.693 16.8478 471.769 16.4146 471.769 15.9009ZM480.951 12.2645V19.5372H479.622L476.458 14.9598H476.405V19.5372H474.867V12.2645H476.217L479.356 16.8384H479.42V12.2645H480.951ZM486.566 14.3561C486.538 14.0697 486.416 13.8471 486.201 13.6885C485.985 13.5299 485.693 13.4506 485.323 13.4506C485.072 13.4506 484.861 13.4861 484.688 13.5571C484.515 13.6258 484.382 13.7217 484.29 13.8448C484.2 13.9679 484.155 14.1075 484.155 14.2638C484.15 14.394 484.178 14.5076 484.237 14.6047C484.298 14.7018 484.382 14.7858 484.489 14.8568C484.595 14.9255 484.719 14.9859 484.858 15.0379C484.998 15.0877 485.147 15.1303 485.306 15.1658L485.959 15.322C486.276 15.3931 486.567 15.4878 486.833 15.6061C487.098 15.7245 487.327 15.8701 487.522 16.0429C487.716 16.2157 487.866 16.4193 487.973 16.6537C488.081 16.8881 488.137 17.1568 488.139 17.4598C488.137 17.9049 488.023 18.2908 487.799 18.6175C487.576 18.9418 487.254 19.194 486.833 19.3739C486.414 19.5514 485.908 19.6402 485.316 19.6402C484.729 19.6402 484.218 19.5503 483.782 19.3703C483.349 19.1904 483.01 18.9241 482.767 18.5713C482.525 18.2162 482.398 17.7771 482.387 17.2539H483.875C483.891 17.4977 483.961 17.7013 484.084 17.8646C484.21 18.0256 484.376 18.1476 484.585 18.2304C484.795 18.3109 485.033 18.3512 485.299 18.3512C485.559 18.3512 485.785 18.3133 485.977 18.2375C486.171 18.1618 486.321 18.0564 486.428 17.9215C486.534 17.7865 486.588 17.6315 486.588 17.4563C486.588 17.2929 486.539 17.1556 486.442 17.0443C486.347 16.9331 486.208 16.8384 486.023 16.7602C485.841 16.6821 485.617 16.6111 485.352 16.5472L484.56 16.3483C483.947 16.1992 483.463 15.966 483.107 15.6487C482.752 15.3315 482.576 14.9042 482.578 14.3668C482.576 13.9264 482.693 13.5417 482.93 13.2127C483.169 12.8836 483.497 12.6267 483.914 12.4421C484.33 12.2574 484.804 12.1651 485.334 12.1651C485.874 12.1651 486.345 12.2574 486.747 12.4421C487.152 12.6267 487.467 12.8836 487.692 13.2127C487.917 13.5417 488.033 13.9229 488.04 14.3561H486.566Z" fill="#232326"/>
<path d="M517.694 15.5372L509.508 10.811V20.2635L517.694 15.5372ZM498.43 16.3558H510.326V14.7186H498.43V16.3558Z" fill="#232326"/>
<rect x="518.49" y="0.794769" width="76.4849" height="29.4849" stroke="#232326" stroke-width="1.58954"/>
<path d="M530.942 19.5372H528.364V12.2645H530.964C531.695 12.2645 532.325 12.4101 532.853 12.7013C533.381 12.9901 533.787 13.4056 534.071 13.9477C534.357 14.4899 534.5 15.1386 534.5 15.8938C534.5 16.6513 534.357 17.3024 534.071 17.8469C533.787 18.3914 533.378 18.8092 532.846 19.1004C532.315 19.3916 531.681 19.5372 530.942 19.5372ZM529.902 18.2198H530.878C531.333 18.2198 531.715 18.1393 532.025 17.9783C532.338 17.8149 532.572 17.5628 532.728 17.2219C532.887 16.8786 532.966 16.4359 532.966 15.8938C532.966 15.3564 532.887 14.9172 532.728 14.5763C532.572 14.2354 532.339 13.9844 532.029 13.8235C531.719 13.6625 531.336 13.582 530.882 13.582H529.902V18.2198ZM536.04 19.5372V12.2645H540.94V13.5323H537.577V15.2652H540.688V16.533H537.577V18.2695H540.954V19.5372H536.04ZM548.979 14.8107H547.424C547.396 14.6094 547.338 14.4307 547.25 14.2744C547.162 14.1158 547.05 13.9809 546.913 13.8696C546.775 13.7583 546.617 13.6731 546.437 13.6139C546.259 13.5548 546.066 13.5252 545.858 13.5252C545.482 13.5252 545.154 13.6187 544.874 13.8057C544.595 13.9904 544.378 14.2602 544.225 14.6154C544.071 14.9681 543.994 15.3966 543.994 15.9009C543.994 16.4193 544.071 16.8549 544.225 17.2077C544.381 17.5604 544.599 17.8268 544.878 18.0067C545.157 18.1866 545.48 18.2766 545.847 18.2766C546.053 18.2766 546.244 18.2494 546.419 18.1949C546.597 18.1405 546.754 18.0611 546.891 17.957C547.029 17.8504 547.142 17.7214 547.232 17.5699C547.325 17.4184 547.389 17.2456 547.424 17.0514L548.979 17.0585C548.939 17.3923 548.839 17.7143 548.678 18.0244C548.519 18.3322 548.305 18.608 548.035 18.8519C547.767 19.0933 547.448 19.2851 547.076 19.4271C546.707 19.5668 546.289 19.6367 545.823 19.6367C545.174 19.6367 544.594 19.4899 544.082 19.1963C543.573 18.9028 543.171 18.4778 542.875 17.9215C542.582 17.3651 542.435 16.6916 542.435 15.9009C542.435 15.1078 542.584 14.4331 542.882 13.8767C543.18 13.3204 543.585 12.8966 544.097 12.6054C544.608 12.3119 545.183 12.1651 545.823 12.1651C546.244 12.1651 546.635 12.2243 546.994 12.3426C547.357 12.461 547.677 12.6338 547.957 12.8611C548.236 13.086 548.463 13.3618 548.639 13.6885C548.816 14.0152 548.93 14.3893 548.979 14.8107ZM552.02 12.2645V19.5372H550.482V12.2645H552.02ZM557.63 14.3561C557.602 14.0697 557.48 13.8471 557.264 13.6885C557.049 13.5299 556.757 13.4506 556.387 13.4506C556.136 13.4506 555.924 13.4861 555.752 13.5571C555.579 13.6258 555.446 13.7217 555.354 13.8448C555.264 13.9679 555.219 14.1075 555.219 14.2638C555.214 14.394 555.241 14.5076 555.301 14.6047C555.362 14.7018 555.446 14.7858 555.553 14.8568C555.659 14.9255 555.782 14.9859 555.922 15.0379C556.062 15.0877 556.211 15.1303 556.369 15.1658L557.023 15.322C557.34 15.3931 557.631 15.4878 557.896 15.6061C558.162 15.7245 558.391 15.8701 558.585 16.0429C558.78 16.2157 558.93 16.4193 559.036 16.6537C559.145 16.8881 559.201 17.1568 559.203 17.4598C559.201 17.9049 559.087 18.2908 558.862 18.6175C558.64 18.9418 558.318 19.194 557.896 19.3739C557.477 19.5514 556.972 19.6402 556.38 19.6402C555.793 19.6402 555.282 19.5503 554.846 19.3703C554.413 19.1904 554.074 18.9241 553.83 18.5713C553.589 18.2162 553.462 17.7771 553.45 17.2539H554.938C554.955 17.4977 555.025 17.7013 555.148 17.8646C555.273 18.0256 555.44 18.1476 555.649 18.2304C555.859 18.3109 556.097 18.3512 556.362 18.3512C556.623 18.3512 556.849 18.3133 557.041 18.2375C557.235 18.1618 557.385 18.0564 557.492 17.9215C557.598 17.7865 557.651 17.6315 557.651 17.4563C557.651 17.2929 557.603 17.1556 557.506 17.0443C557.411 16.9331 557.271 16.8384 557.087 16.7602C556.905 16.6821 556.681 16.6111 556.416 16.5472L555.624 16.3483C555.011 16.1992 554.526 15.966 554.171 15.6487C553.816 15.3315 553.64 14.9042 553.642 14.3668C553.64 13.9264 553.757 13.5417 553.994 13.2127C554.233 12.8836 554.561 12.6267 554.977 12.4421C555.394 12.2574 555.868 12.1651 556.398 12.1651C556.938 12.1651 557.409 12.2574 557.811 12.4421C558.216 12.6267 558.531 12.8836 558.756 13.2127C558.981 13.5417 559.097 13.9229 559.104 14.3561H557.63ZM562.175 12.2645V19.5372H560.638V12.2645H562.175ZM570.524 15.9009C570.524 16.694 570.373 17.3687 570.073 17.925C569.774 18.4814 569.367 18.9063 568.851 19.1999C568.337 19.4911 567.76 19.6367 567.118 19.6367C566.472 19.6367 565.892 19.4899 565.378 19.1963C564.864 18.9028 564.458 18.4778 564.16 17.9215C563.862 17.3651 563.712 16.6916 563.712 15.9009C563.712 15.1078 563.862 14.4331 564.16 13.8767C564.458 13.3204 564.864 12.8966 565.378 12.6054C565.892 12.3119 566.472 12.1651 567.118 12.1651C567.76 12.1651 568.337 12.3119 568.851 12.6054C569.367 12.8966 569.774 13.3204 570.073 13.8767C570.373 14.4331 570.524 15.1078 570.524 15.9009ZM568.965 15.9009C568.965 15.3871 568.888 14.9539 568.734 14.6012C568.582 14.2484 568.368 13.9809 568.091 13.7986C567.814 13.6163 567.49 13.5252 567.118 13.5252C566.746 13.5252 566.422 13.6163 566.145 13.7986C565.868 13.9809 565.653 14.2484 565.499 14.6012C565.347 14.9539 565.271 15.3871 565.271 15.9009C565.271 16.4146 565.347 16.8478 565.499 17.2006C565.653 17.5533 565.868 17.8208 566.145 18.0031C566.422 18.1854 566.746 18.2766 567.118 18.2766C567.49 18.2766 567.814 18.1854 568.091 18.0031C568.368 17.8208 568.582 17.5533 568.734 17.2006C568.888 16.8478 568.965 16.4146 568.965 15.9009ZM578.146 12.2645V19.5372H576.818L573.653 14.9598H573.6V19.5372H572.063V12.2645H573.412L576.551 16.8384H576.615V12.2645H578.146ZM583.761 14.3561C583.733 14.0697 583.611 13.8471 583.396 13.6885C583.18 13.5299 582.888 13.4506 582.519 13.4506C582.268 13.4506 582.056 13.4861 581.883 13.5571C581.71 13.6258 581.577 13.7217 581.485 13.8448C581.395 13.9679 581.35 14.1075 581.35 14.2638C581.345 14.394 581.373 14.5076 581.432 14.6047C581.493 14.7018 581.577 14.7858 581.684 14.8568C581.791 14.9255 581.914 14.9859 582.053 15.0379C582.193 15.0877 582.342 15.1303 582.501 15.1658L583.154 15.322C583.471 15.3931 583.763 15.4878 584.028 15.6061C584.293 15.7245 584.523 15.8701 584.717 16.0429C584.911 16.2157 585.061 16.4193 585.168 16.6537C585.277 16.8881 585.332 17.1568 585.335 17.4598C585.332 17.9049 585.219 18.2908 584.994 18.6175C584.771 18.9418 584.449 19.194 584.028 19.3739C583.609 19.5514 583.103 19.6402 582.511 19.6402C581.924 19.6402 581.413 19.5503 580.977 19.3703C580.544 19.1904 580.206 18.9241 579.962 18.5713C579.72 18.2162 579.594 17.7771 579.582 17.2539H581.07C581.086 17.4977 581.156 17.7013 581.279 17.8646C581.405 18.0256 581.572 18.1476 581.78 18.2304C581.991 18.3109 582.228 18.3512 582.494 18.3512C582.754 18.3512 582.98 18.3133 583.172 18.2375C583.366 18.1618 583.516 18.0564 583.623 17.9215C583.729 17.7865 583.783 17.6315 583.783 17.4563C583.783 17.2929 583.734 17.1556 583.637 17.0443C583.542 16.9331 583.403 16.8384 583.218 16.7602C583.036 16.6821 582.812 16.6111 582.547 16.5472L581.755 16.3483C581.142 16.1992 580.658 15.966 580.303 15.6487C579.947 15.3315 579.771 14.9042 579.773 14.3668C579.771 13.9264 579.888 13.5417 580.125 13.2127C580.364 12.8836 580.692 12.6267 581.109 12.4421C581.525 12.2574 581.999 12.1651 582.529 12.1651C583.069 12.1651 583.54 12.2574 583.943 12.4421C584.347 12.6267 584.662 12.8836 584.887 13.2127C585.112 13.5417 585.228 13.9229 585.235 14.3561H583.761Z" fill="#232326"/>
<path d="M615.034 15.5372L606.848 10.811V20.2635L615.034 15.5372ZM595.77 16.3558H607.666V14.7186H595.77V16.3558Z" fill="#232326"/>
<rect x="615.826" y="0.794769" width="65.4849" height="29.4849" stroke="#232326" stroke-width="1.58954"/>
<path d="M625.234 19.5372V12.2645H630.049V13.5323H626.772V15.2652H629.73V16.533H626.772V19.5372H625.234ZM635.976 12.2645H637.513V16.9875C637.513 17.5178 637.387 17.9818 637.133 18.3796C636.882 18.7773 636.531 19.0874 636.079 19.31C635.626 19.5301 635.1 19.6402 634.498 19.6402C633.895 19.6402 633.367 19.5301 632.915 19.31C632.462 19.0874 632.111 18.7773 631.86 18.3796C631.609 17.9818 631.483 17.5178 631.483 16.9875V12.2645H633.021V16.8561C633.021 17.1331 633.081 17.3793 633.202 17.5948C633.325 17.8102 633.498 17.9795 633.721 18.1026C633.943 18.2257 634.202 18.2872 634.498 18.2872C634.797 18.2872 635.056 18.2257 635.276 18.1026C635.499 17.9795 635.67 17.8102 635.791 17.5948C635.914 17.3793 635.976 17.1331 635.976 16.8561V12.2645ZM645.261 12.2645V19.5372H643.933L640.769 14.9598H640.716V19.5372H639.178V12.2645H640.528L643.667 16.8384H643.731V12.2645H645.261ZM649.51 19.5372H646.932V12.2645H649.531C650.263 12.2645 650.893 12.4101 651.421 12.7013C651.948 12.9901 652.354 13.4056 652.639 13.9477C652.925 14.4899 653.068 15.1386 653.068 15.8938C653.068 16.6513 652.925 17.3024 652.639 17.8469C652.354 18.3914 651.946 18.8092 651.413 19.1004C650.883 19.3916 650.249 19.5372 649.51 19.5372ZM648.47 18.2198H649.446C649.901 18.2198 650.283 18.1393 650.593 17.9783C650.906 17.8149 651.14 17.5628 651.296 17.2219C651.455 16.8786 651.534 16.4359 651.534 15.8938C651.534 15.3564 651.455 14.9172 651.296 14.5763C651.14 14.2354 650.907 13.9844 650.597 13.8235C650.287 13.6625 649.904 13.582 649.45 13.582H648.47V18.2198ZM656.145 12.2645V19.5372H654.607V12.2645H656.145ZM663.893 12.2645V19.5372H662.565L659.401 14.9598H659.348V19.5372H657.81V12.2645H659.159L662.299 16.8384H662.363V12.2645H663.893ZM670.386 14.6154C670.336 14.4425 670.266 14.2898 670.176 14.1573C670.087 14.0223 669.976 13.9087 669.846 13.8164C669.718 13.7217 669.572 13.6494 669.406 13.5997C669.243 13.55 669.061 13.5252 668.863 13.5252C668.491 13.5252 668.164 13.6175 667.882 13.8021C667.603 13.9868 667.385 14.2555 667.229 14.6083C667.073 14.9586 666.995 15.3871 666.995 15.8938C666.995 16.4004 667.072 16.8313 667.225 17.1864C667.379 17.5415 667.597 17.8126 667.879 17.9996C668.161 18.1842 668.493 18.2766 668.877 18.2766C669.225 18.2766 669.522 18.215 669.768 18.0919C670.017 17.9664 670.206 17.7901 670.336 17.5628C670.469 17.3355 670.535 17.0668 670.535 16.7567L670.848 16.8029H668.973V15.6452H672.016V16.5614C672.016 17.2006 671.881 17.7498 671.611 18.2091C671.341 18.666 670.97 19.0188 670.496 19.2673C670.023 19.5136 669.48 19.6367 668.87 19.6367C668.188 19.6367 667.589 19.4863 667.073 19.1857C666.557 18.8826 666.154 18.453 665.865 17.8966C665.579 17.3379 665.436 16.675 665.436 15.908C665.436 15.3185 665.521 14.7929 665.691 14.3313C665.864 13.8673 666.106 13.4743 666.416 13.1523C666.726 12.8303 667.087 12.5853 667.499 12.4172C667.911 12.2491 668.357 12.1651 668.838 12.1651C669.25 12.1651 669.633 12.2254 669.988 12.3462C670.343 12.4646 670.658 12.6326 670.933 12.8504C671.21 13.0682 671.436 13.3275 671.611 13.6281C671.786 13.9264 671.899 14.2555 671.948 14.6154H670.386Z" fill="#232326"/>
</svg>
