<svg width="64" height="64" viewBox="0 0 64 64" fill="none" xmlns="http://www.w3.org/2000/svg">
<path fill-rule="evenodd" clip-rule="evenodd" d="M42.4213 4.97308C42.9735 4.97308 43.4213 5.4208 43.4213 5.97308V12.4961L47.1058 16.1807V11.0744C47.1058 10.5221 47.5536 10.0744 48.1058 10.0744C48.6581 10.0744 49.1058 10.5221 49.1058 11.0744V16.1807L52.7904 12.4961V5.97308C52.7904 5.4208 53.2381 4.97308 53.7904 4.97308C54.3427 4.97308 54.7904 5.4208 54.7904 5.97308V12.4961C54.7904 12.9729 54.6202 13.4321 54.3134 13.7925C54.5996 13.9684 54.7904 14.2844 54.7904 14.645V21.168C54.7904 21.6444 54.6204 22.1034 54.3139 22.4637C54.5998 22.6397 54.7904 22.9555 54.7904 23.3159V29.8389C54.7904 30.3155 54.6203 30.7746 54.3137 31.1349C54.5997 31.3109 54.7904 31.6268 54.7904 31.9872V38.5103C54.7904 39.0407 54.5797 39.5494 54.2046 39.9245L49.1058 45.0233V49.234C49.1058 49.7863 48.6581 50.234 48.1058 50.234C47.5536 50.234 47.1058 49.7863 47.1058 49.234V45.0233L42.007 39.9245C41.632 39.5494 41.4213 39.0407 41.4213 38.5103V31.9872C41.4213 31.6268 41.612 31.3109 41.898 31.1349C41.5914 30.7746 41.4213 30.3155 41.4213 29.8389V23.3159C41.4213 22.9555 41.6119 22.6397 41.8977 22.4637C41.5913 22.1034 41.4213 21.6444 41.4213 21.168V14.645C41.4213 14.2844 41.6121 13.9684 41.8983 13.7925C41.5915 13.4321 41.4213 12.9729 41.4213 12.4961V5.97308C41.4213 5.4208 41.869 4.97308 42.4213 4.97308ZM43.4213 15.3245L47.1058 19.0091V24.8525L43.4213 21.168V15.3245ZM43.4213 23.9964L47.1058 27.681V33.5234L43.4213 29.8389V23.9964ZM49.1058 27.681V33.5234L52.7904 29.8389V23.9964L49.1058 27.681ZM43.4213 32.6673L47.1058 36.3519V42.1948L43.4213 38.5103V32.6673ZM49.1058 36.3519V42.1948L52.7904 38.5103V32.6673L49.1058 36.3519ZM49.1058 19.0091V24.8525L52.7904 21.168V15.3245L49.1058 19.0091Z" fill="black"/>
<path fill-rule="evenodd" clip-rule="evenodd" d="M26.7017 14.645C26.7017 14.0927 26.2539 13.645 25.7017 13.645C25.1494 13.645 24.7017 14.0927 24.7017 14.645V21.168C24.7017 21.6447 24.8719 22.1039 25.1787 22.4643C24.8925 22.6403 24.7017 22.9563 24.7017 23.3168V29.8398C24.7017 30.3163 24.8717 30.7753 25.1781 31.1356C24.8923 31.3116 24.7017 31.6274 24.7017 31.9877V38.5107C24.7017 38.9874 24.8718 39.4464 25.1784 39.8068C24.8924 39.9827 24.7017 40.2987 24.7017 40.6591V47.1821C24.7017 47.7126 24.9124 48.2213 25.2874 48.5963L30.3862 53.6951V57.9059C30.3862 58.4582 30.8339 58.9059 31.3862 58.9059C31.9385 58.9059 32.3862 58.4582 32.3862 57.9059V53.6951L37.485 48.5963C37.8601 48.2213 38.0708 47.7126 38.0708 47.1821V40.6591C38.0708 40.2987 37.8801 39.9827 37.5941 39.8068C37.9007 39.4464 38.0708 38.9874 38.0708 38.5107V31.9877C38.0708 31.6274 37.8802 31.3116 37.5943 31.1356C37.9008 30.7753 38.0708 30.3163 38.0708 29.8398V23.3168C38.0708 22.9563 37.88 22.6403 37.5938 22.4643C37.9006 22.1039 38.0708 21.6447 38.0708 21.168V14.645C38.0708 14.0927 37.6231 13.645 37.0708 13.645C36.5185 13.645 36.0708 14.0927 36.0708 14.645V21.168L32.3862 24.8525V19.7463C32.3862 19.194 31.9385 18.7463 31.3862 18.7463C30.8339 18.7463 30.3862 19.194 30.3862 19.7463V24.8525L26.7017 21.168V14.645ZM30.3862 27.681L26.7017 23.9964V29.8398L30.3862 33.5244V27.681ZM30.3862 36.3528L26.7017 32.6683V38.5107L30.3862 42.1953V36.3528ZM32.3862 42.1953V36.3528L36.0708 32.6683V38.5107L32.3862 42.1953ZM30.3862 45.0237L26.7017 41.3392V47.1821L30.3862 50.8667V45.0237ZM32.3862 50.8667V45.0237L36.0708 41.3392V47.1821L32.3862 50.8667ZM32.3862 33.5244V27.681L36.0708 23.9964V29.8398L32.3862 33.5244Z" fill="black"/>
<path fill-rule="evenodd" clip-rule="evenodd" d="M8.4588 31.1349C8.15218 30.7746 7.98206 30.3155 7.98206 29.8389V23.3159C7.98206 22.9555 8.17265 22.6397 8.45852 22.4637C8.15208 22.1034 7.98206 21.6444 7.98206 21.168V14.645C7.98206 14.2844 8.17289 13.9684 8.45907 13.7925C8.15228 13.4321 7.98206 12.9729 7.98206 12.4961V5.97308C7.98206 5.4208 8.42977 4.97308 8.98206 4.97308C9.53434 4.97308 9.98206 5.4208 9.98206 5.97308V12.4961L13.6666 16.1807V11.0744C13.6666 10.5221 14.1143 10.0744 14.6666 10.0744C15.2189 10.0744 15.6666 10.5221 15.6666 11.0744V16.1807L19.3512 12.4961V5.97308C19.3512 5.4208 19.7989 4.97308 20.3512 4.97308C20.9035 4.97308 21.3512 5.4208 21.3512 5.97308V12.4961C21.3512 12.9729 21.181 13.4321 20.8742 13.7925C21.1604 13.9684 21.3512 14.2844 21.3512 14.645V21.168C21.3512 21.6444 21.1812 22.1034 20.8747 22.4637C21.1606 22.6397 21.3512 22.9555 21.3512 23.3159V29.8389C21.3512 30.3155 21.1811 30.7746 20.8745 31.1349C21.1605 31.3109 21.3512 31.6268 21.3512 31.9872V38.5103C21.3512 39.0407 21.1405 39.5494 20.7654 39.9245L15.6666 45.0233V49.234C15.6666 49.7863 15.2189 50.234 14.6666 50.234C14.1143 50.234 13.6666 49.7863 13.6666 49.234V45.0233L8.56784 39.9245C8.19277 39.5494 7.98206 39.0407 7.98206 38.5103V31.9872C7.98206 31.6268 8.17277 31.3109 8.4588 31.1349ZM13.6666 42.1948L9.98206 38.5103V32.6673L13.6666 36.3519V42.1948ZM15.6666 42.1948V36.3519L19.3512 32.6673V38.5103L15.6666 42.1948ZM15.6666 33.5234L19.3512 29.8389V23.9964L15.6666 27.681V33.5234ZM13.6666 33.5234V27.681L9.98206 23.9964V29.8389L13.6666 33.5234ZM13.6666 24.8525L9.98206 21.168V15.3245L13.6666 19.0091V24.8525ZM15.6666 24.8525V19.0091L19.3512 15.3245V21.168L15.6666 24.8525Z" fill="black"/>
</svg>
