<svg width="64" height="64" viewBox="0 0 64 64" fill="none" xmlns="http://www.w3.org/2000/svg">
<path fill-rule="evenodd" clip-rule="evenodd" d="M42.2529 7.09752C41.936 6.64091 42.0347 6.0033 42.4732 5.67338C44.9652 3.79855 48.4641 4.02819 50.708 6.3646C53.197 8.95629 53.197 13.1583 50.708 15.7499C48.4641 18.0864 44.9652 18.316 42.4732 16.4412C42.0347 16.1112 41.936 15.4736 42.2529 15.017C42.5698 14.5604 43.1821 14.4577 43.6206 14.7876C45.3455 16.0853 47.7696 15.9245 49.3226 14.3075C51.0466 12.5124 51.0466 9.60211 49.3226 7.80709C47.7696 6.19004 45.3455 6.02921 43.6206 7.3269C43.1821 7.65682 42.5698 7.55412 42.2529 7.09752Z" fill="#212121"/>
<path fill-rule="evenodd" clip-rule="evenodd" d="M57.5759 7.09752C57.8927 6.64091 57.7941 6.0033 57.3556 5.67338C54.8636 3.79855 51.3647 4.02819 49.1208 6.3646C46.6317 8.95629 46.6317 13.1583 49.1208 15.7499C51.3647 18.0864 54.8636 18.316 57.3556 16.4412C57.7941 16.1112 57.8927 15.4736 57.5759 15.017C57.259 14.5604 56.6467 14.4577 56.2082 14.7876C54.4833 16.0853 52.0592 15.9245 50.5062 14.3075C48.7822 12.5124 48.7822 9.60211 50.5062 7.80709C52.0592 6.19004 54.4833 6.02921 56.2082 7.3269C56.6467 7.65682 57.259 7.55412 57.5759 7.09752Z" fill="#212121"/>
<path d="M57.5351 11.3006L59.3112 7.78878C59.337 7.73778 59.4144 7.76298 59.4052 7.81939L58.9571 10.5689C58.9521 10.5994 58.9756 10.627 59.0064 10.627H60.4151C60.4529 10.627 60.477 10.6672 60.4593 10.7005L58.5892 14.2159C58.5623 14.2664 58.4856 14.2397 58.4958 14.1835L58.9984 11.4322C59.004 11.4015 58.9804 11.3732 58.9492 11.3732H57.5797C57.5424 11.3732 57.5183 11.3339 57.5351 11.3006Z" fill="#212121"/>
<path fill-rule="evenodd" clip-rule="evenodd" d="M57.1781 11.1201L58.9543 7.60826C59.1864 7.14925 59.8827 7.37603 59.8 7.88374L59.4181 10.227H60.4151C60.7547 10.227 60.9719 10.5886 60.8124 10.8883L58.9423 14.4038C58.7009 14.8576 58.01 14.6172 58.1023 14.1116L58.5295 11.7732H57.5797C57.2442 11.7732 57.0268 11.4194 57.1781 11.1201ZM58.9492 11.3732C58.9804 11.3732 59.004 11.4015 58.9984 11.4322L58.4958 14.1835C58.4856 14.2397 58.5623 14.2664 58.5892 14.2159L60.4593 10.7005C60.477 10.6672 60.4529 10.627 60.4151 10.627H59.0064C58.9756 10.627 58.9521 10.5994 58.9571 10.5689L59.4052 7.81939C59.4144 7.76298 59.337 7.73778 59.3112 7.78878L57.5351 11.3006C57.5183 11.3339 57.5424 11.3732 57.5797 11.3732H58.9492Z" fill="#212121"/>
<path fill-rule="evenodd" clip-rule="evenodd" d="M41.618 8.31187C41.9981 8.14725 42.4397 8.32194 42.6043 8.70204L42.769 9.0824C42.9077 9.40262 42.9842 9.7463 42.9944 10.0951L43.0019 10.3538C43.0153 10.8146 42.8794 11.2674 42.6143 11.6446C42.5379 11.7532 42.4975 11.8829 42.4985 12.0157L42.4998 12.1722C42.5011 12.332 42.5365 12.4897 42.6035 12.6347L42.7274 12.9028C42.9011 13.2788 42.7371 13.7245 42.3611 13.8982C41.9851 14.072 41.5394 13.908 41.3657 13.532L41.2418 13.2639C41.0854 12.9254 41.0029 12.5574 40.9999 12.1844L40.9986 12.0279C40.995 11.5822 41.1308 11.1466 41.3871 10.782C41.466 10.6696 41.5065 10.5348 41.5025 10.3975L41.495 10.1388C41.4904 9.98028 41.4556 9.82406 41.3926 9.67851L41.2279 9.29815C41.0633 8.91805 41.2379 8.47648 41.618 8.31187Z" fill="#212121"/>
<path fill-rule="evenodd" clip-rule="evenodd" d="M39.348 8.31187C39.7281 8.14725 40.1697 8.32194 40.3343 8.70204L40.499 9.0824C40.6377 9.40262 40.7142 9.7463 40.7244 10.0951L40.7319 10.3538C40.7453 10.8146 40.6094 11.2674 40.3443 11.6446C40.2679 11.7532 40.2275 11.8829 40.2285 12.0157L40.2298 12.1722C40.2311 12.332 40.2665 12.4897 40.3335 12.6347L40.4574 12.9028C40.6311 13.2788 40.4671 13.7245 40.0911 13.8982C39.7151 14.072 39.2694 13.908 39.0957 13.532L38.9718 13.2639C38.8154 12.9254 38.7329 12.5574 38.7299 12.1844L38.7286 12.0279C38.725 11.5822 38.8608 11.1466 39.1171 10.782C39.196 10.6696 39.2365 10.5348 39.2325 10.3975L39.225 10.1388C39.2204 9.98028 39.1856 9.82406 39.1226 9.67851L38.9579 9.29815C38.7933 8.91805 38.9679 8.47648 39.348 8.31187Z" fill="#212121"/>
<path fill-rule="evenodd" clip-rule="evenodd" d="M43.8715 8.31186C44.2516 8.14725 44.6932 8.32194 44.8578 8.70205L45.0225 9.0824C45.1612 9.40262 45.2376 9.7463 45.2478 10.0951L45.2553 10.3538C45.2688 10.8146 45.1328 11.2674 44.8677 11.6446C44.7914 11.7532 44.7509 11.8829 44.752 12.0157L44.7532 12.1722C44.7545 12.332 44.7899 12.4897 44.8569 12.6347L44.9808 12.9028C45.1545 13.2788 44.9906 13.7245 44.6146 13.8982C44.2385 14.072 43.7929 13.908 43.6191 13.532L43.4953 13.2639C43.3388 12.9254 43.2563 12.5574 43.2533 12.1844L43.252 12.0279C43.2484 11.5822 43.3842 11.1466 43.6405 10.782C43.7195 10.6697 43.76 10.5348 43.756 10.3975L43.7484 10.1388C43.7438 9.98028 43.7091 9.82406 43.646 9.67851L43.4813 9.29815C43.3167 8.91805 43.4914 8.47647 43.8715 8.31186Z" fill="#212121"/>
<path d="M9.71484 25.9827C11.3902 26.1698 13.8899 26.396 15.7983 26.3405C19.4493 26.2343 21.1215 24.4137 24.7704 24.5854C27.4232 24.7103 30.8755 25.3119 32.4142 25.6004C32.8813 25.688 33.2148 26.0969 33.2148 26.5721L33.2148 41.8723C33.2148 42.4792 32.6787 42.9462 32.0776 42.8629L26.976 42.156C25.5234 41.9547 24.0464 42.0824 22.626 42.4473C20.7436 42.9309 17.9743 43.5422 15.7983 43.6055C13.8899 43.661 11.3902 43.4348 9.71485 43.2477" stroke="#212121" stroke-width="2"/>
<path d="M10.2741 55.0134L10.2741 24.9718C10.2741 23.8902 9.39731 23.0134 8.31576 23.0134V23.0134C7.2342 23.0134 6.35742 23.8902 6.35742 24.9718L6.35742 55.0134" stroke="#212121" stroke-width="2" stroke-linecap="round"/>
<path d="M36.75 33.8179H25.75" stroke="#212121" stroke-width="2" stroke-linecap="round"/>
<path d="M29.7158 29.6149L25.6364 33.6671C25.5384 33.7644 25.5384 33.9221 25.6364 34.0194L29.9685 38.3226" stroke="#212121" stroke-width="2" stroke-linecap="round"/>
<path d="M34.3259 20.4625C34.3546 20.4625 34.3832 20.4625 34.4118 20.4581C34.8961 20.4119 35.2505 19.9805 35.202 19.4962L35.0347 17.7946C34.9885 17.3126 34.5571 16.956 34.0706 17.0044C33.5863 17.0506 33.2319 17.4821 33.2804 17.9663L33.4476 19.6679C33.4939 20.1213 33.8769 20.4625 34.3259 20.4625Z" fill="#212121"/>
<path d="M31.1603 20.9623C31.332 21.2022 31.6027 21.3299 31.8757 21.3299C32.054 21.3299 32.2323 21.277 32.3864 21.1648C32.7826 20.883 32.875 20.3327 32.5911 19.9365L31.5961 18.5453C31.3122 18.1469 30.7596 18.0588 30.3678 18.3406C29.9716 18.6223 29.8792 19.1727 30.1631 19.5689L31.1603 20.9623Z" fill="#212121"/>
<path d="M38.2783 28.2177C37.9921 27.8193 37.4418 27.7312 37.05 28.013C36.6537 28.2947 36.5613 28.845 36.8453 29.2413L37.8424 30.6324C38.0141 30.8724 38.2849 31 38.5578 31C38.7361 31 38.9144 30.9472 39.0685 30.835C39.4647 30.5532 39.5572 30.0029 39.2732 29.6067L38.2783 28.2177Z" fill="#212121"/>
<path d="M41.1712 26.6573L39.6149 25.9507C39.1835 25.7504 38.6508 25.9441 38.4505 26.3888C38.2501 26.8312 38.4461 27.3529 38.8885 27.5554L40.4448 28.262C40.5614 28.3149 40.6847 28.3413 40.808 28.3413C41.1404 28.3413 41.4617 28.1498 41.6092 27.8262C41.8095 27.3816 41.6158 26.8577 41.1712 26.6573Z" fill="#212121"/>
<path d="M41.3419 23.1526L39.6403 23.3199C39.1561 23.3662 38.8017 23.7976 38.8501 24.2819C38.8963 24.7375 39.2771 25.0765 39.7262 25.0765C39.7548 25.0765 39.7812 25.0765 39.812 25.0721L41.5136 24.9048C41.9979 24.8586 42.3523 24.4271 42.3038 23.9429C42.2576 23.4608 41.8636 23.102 41.3419 23.1526Z" fill="#212121"/>
<path d="M38.1409 22.257C38.3126 22.4969 38.5834 22.6246 38.8563 22.6246C39.0346 22.6246 39.2129 22.5718 39.367 22.4595L40.7582 21.4645C41.1544 21.1828 41.2468 20.6325 40.9629 20.2363C40.6767 19.8378 40.1264 19.7498 39.7346 20.0315L38.3434 21.0265C37.9516 21.3105 37.8592 21.8608 38.1409 22.257Z" fill="#212121"/>
<path d="M37.6812 20.4209L38.3878 18.8624C38.5881 18.42 38.3922 17.8983 37.9497 17.6958C37.5095 17.4933 36.9856 17.6892 36.7853 18.1338L36.0787 19.6923C35.8784 20.1347 36.0743 20.6564 36.5167 20.8589C36.6356 20.9118 36.7567 20.9382 36.8799 20.9382C37.2145 20.936 37.5337 20.7445 37.6812 20.4209Z" fill="#212121"/>
</svg>
