<svg width="64" height="64" viewBox="0 0 64 64" fill="none" xmlns="http://www.w3.org/2000/svg">
<path fill-rule="evenodd" clip-rule="evenodd" d="M16.1135 15C15.5612 15 15.1135 15.4477 15.1135 16V22.395C15.1135 22.4648 15.1062 22.5344 15.0917 22.6027L8.25656 54.7923C8.12448 55.4143 8.59887 56 9.23475 56H43.7331C43.7927 56 43.8508 55.9949 43.9071 55.9851C43.9634 55.9949 44.0211 56 44.0798 56H53.9999C54.5522 56 54.9999 55.5523 54.9999 55V36C54.9999 35.4477 54.5522 35 53.9999 35H50V23C50 22.4477 49.5523 22 49 22H44C43.4477 22 43 22.4477 43 23V35H39.9836L37.025 22.6146C37.0068 22.5384 36.9976 22.4605 36.9976 22.3822V16C36.9976 15.4477 36.5499 15 35.9976 15H16.1135ZM17.1135 17V22.395C17.1135 22.6044 17.0915 22.8133 17.048 23.0181L10.4694 54H42.4661L35.0797 23.0792C35.0252 22.8509 34.9976 22.617 34.9976 22.3822V17H17.1135ZM45 35H48V24H45V35ZM40.5675 37L44.8587 54H52.9999V37H40.5675Z" fill="#212121"/>
<path fill-rule="evenodd" clip-rule="evenodd" d="M49.356 8.94236L52.7931 3.00526L54.524 4.00729L51.0869 9.94439C51.0483 10.0111 51.0964 10.0945 51.1734 10.0945H52.9369C52.9833 10.0945 53.0287 10.0976 53.0732 10.1036C53.1439 10.1132 53.212 10.1301 53.2768 10.1534C53.5042 10.2354 53.6911 10.3972 53.8073 10.6018C53.9223 10.8042 53.9681 11.0486 53.9158 11.2992L53.2079 14.6846C53.1619 14.9045 53.4577 15.0214 53.5745 14.8295L57.1975 8.87964C57.2381 8.813 57.1902 8.72763 57.1121 8.72763H55.2424C55.2321 8.72763 55.2219 8.72748 55.2117 8.72717C55.1282 8.72468 55.0476 8.71206 54.971 8.69059C54.7208 8.62044 54.5129 8.45581 54.384 8.24088C54.2638 8.04045 54.2123 7.79628 54.2594 7.54424L54.8937 4.14417C54.9349 3.92323 54.6366 3.81278 54.524 4.00729L52.7931 3.00526C54.0318 0.865629 57.3131 2.08062 56.8597 4.51095L56.4462 6.72763H57.1121C58.7506 6.72763 59.7579 8.52039 58.9058 9.91982L55.2827 15.8697C53.9973 17.9808 50.7444 16.6946 51.2503 14.2753L51.7062 12.0945H51.1734C49.5553 12.0945 48.5457 10.342 49.356 8.94236Z" fill="#212121"/>
<path fill-rule="evenodd" clip-rule="evenodd" d="M29.668 42.1612C28.6355 43.5233 27.0488 44.4557 25.193 43.5102L24.4356 44.5027C24.1005 44.9417 23.476 45.0221 23.0406 44.6823C22.6052 44.3424 22.5239 43.711 22.859 43.272L23.6304 42.2613C22.3628 40.7213 22.8424 38.9813 23.8506 37.6512C25.4731 35.5105 30.2847 35.255 30.2847 35.255C30.2847 35.255 31.2905 40.0205 29.668 42.1612ZM28.0874 40.9358C27.6626 41.4962 27.2402 41.7724 26.9236 41.8538C26.8166 41.8813 26.6644 41.9037 26.4556 41.8559L26.8365 41.3568C27.1716 40.9177 27.0902 40.2864 26.6549 39.9465C26.2195 39.6067 25.5949 39.6871 25.2599 40.1261L24.917 40.5754C24.8688 40.4447 24.8581 40.336 24.857 40.2517C24.8525 39.9213 25.0065 39.437 25.4313 38.8766C25.5731 38.6894 25.8705 38.4426 26.3959 38.1913C26.9056 37.9474 27.5134 37.7545 28.1333 37.6083C28.2828 37.5731 28.4301 37.5412 28.5737 37.5124C28.5834 37.6601 28.5913 37.8122 28.5965 37.9674C28.6179 38.6108 28.5916 39.2545 28.4911 39.8157C28.3876 40.394 28.2292 40.7486 28.0874 40.9358Z" fill="#212121"/>
<path fill-rule="evenodd" clip-rule="evenodd" d="M22.7071 30.2929C22.3166 29.9024 21.6834 29.9024 21.2929 30.2929L18.2929 33.2929C17.9024 33.6834 17.9024 34.3166 18.2929 34.7071L19.5664 35.9806L19.3151 36.2168C19.114 36.4058 19 36.6695 19 36.9455V48C19 48.5523 19.4477 49 20 49H33C33.5523 49 34 48.5523 34 48V32C34 31.4477 33.5523 31 33 31H25.2619C25.0074 31 24.7625 31.097 24.577 31.2713L24.1175 31.7033L22.7071 30.2929ZM22.6594 33.0736L22 32.4142L20.4142 34L21.0245 34.6103L22.6594 33.0736ZM21 37.3779L25.6581 33H32V47H21V37.3779Z" fill="#212121"/>
</svg>
