<svg width="64" height="64" viewBox="0 0 64 64" fill="none" xmlns="http://www.w3.org/2000/svg">
<path fill-rule="evenodd" clip-rule="evenodd" d="M45 13H35V11H45V13ZM51 49V19H53V49C53 50.1046 52.1046 51 51 51H35V49H51ZM29 49H13V24H11V49C11 50.1046 11.8954 51 13 51H29V49ZM29 13V11H20V13H29Z" fill="#212121"/>
<path fill-rule="evenodd" clip-rule="evenodd" d="M15 51C15 49.8954 15.8954 49 17 49H23C24.1046 49 25 49.8954 25 51V54C25 55.1046 24.1046 56 23 56H17C15.8954 56 15 55.1046 15 54V51ZM23 51H17V54H23V51Z" fill="#212121"/>
<path fill-rule="evenodd" clip-rule="evenodd" d="M39 51C39 49.8954 39.8954 49 41 49H47C48.1046 49 49 49.8954 49 51V54C49 55.1046 48.1046 56 47 56H41C39.8954 56 39 55.1046 39 54V51ZM47 51H41V54H47V51Z" fill="#212121"/>
<path fill-rule="evenodd" clip-rule="evenodd" d="M23 42H17V45H23V42ZM17 40C15.8954 40 15 40.8954 15 42V45C15 46.1046 15.8954 47 17 47H23C24.1046 47 25 46.1046 25 45V42C25 40.8954 24.1046 40 23 40H17Z" fill="#212121"/>
<path fill-rule="evenodd" clip-rule="evenodd" d="M47 42H41V45H47V42ZM41 40C39.8954 40 39 40.8954 39 42V45C39 46.1046 39.8954 47 41 47H47C48.1046 47 49 46.1046 49 45V42C49 40.8954 48.1046 40 47 40H41Z" fill="#212121"/>
<path fill-rule="evenodd" clip-rule="evenodd" d="M45 18V16H35V18H45ZM51 36V19H53V36C53 37.1046 52.1046 38 51 38H35V36H51ZM20 16H29V18H20V16ZM11 24V36C11 37.1046 11.8954 38 13 38H29V36L13 36V24H11Z" fill="#212121"/>
<path fill-rule="evenodd" clip-rule="evenodd" d="M7 24V28C7 28.5523 7.44772 29 8 29C8.55228 29 9 28.5523 9 28V24H7Z" fill="#212121"/>
<path fill-rule="evenodd" clip-rule="evenodd" d="M56.2361 19C56.7111 19.5308 57 20.2316 57 21V28C57 28.5523 56.5523 29 56 29C55.4477 29 55 28.5523 55 28V21C55 20.4477 54.5523 20 54 20H52C51.4477 20 51 19.5523 51 19H56.2361Z" fill="#212121"/>
<path d="M31 9C31 8.44771 31.4477 8 32 8C32.5523 8 33 8.44772 33 9V55C33 55.5523 32.5523 56 32 56C31.4477 56 31 55.5523 31 55V9Z" fill="#212121"/>
<path fill-rule="evenodd" clip-rule="evenodd" d="M7 5C7 4.44772 7.44772 4 8 4H16C16.5523 4 17 4.44772 17 5C17 5.55228 16.5523 6 16 6V8C17.1046 8 18 8.89543 18 10V20C18 21.1046 17.1046 22 16 22H8C6.89543 22 6 21.1046 6 20V10C6 8.89543 6.89543 8 8 8V6C7.44772 6 7 5.55228 7 5ZM8 11C8 10.4477 8.44772 10 9 10H15C15.5523 10 16 10.4477 16 11V19C16 19.5523 15.5523 20 15 20H9C8.44772 20 8 19.5523 8 19V11ZM14 6H10V8H14V6Z" fill="#212121"/>
<path d="M8 13H16V17H8V13Z" fill="#212121"/>
<path fill-rule="evenodd" clip-rule="evenodd" d="M48.2135 14.3723C46.1503 11.6944 47.2248 9.01963 49.0996 7.1459C51.9299 4.31733 59.1246 4.87842 59.1246 4.87842C59.1246 4.87842 59.6805 12.0742 56.8503 14.9027C54.9762 16.7756 52.3025 17.8482 49.6276 15.7866L48.7969 16.6174C48.4064 17.008 47.7732 17.008 47.3827 16.6174C46.9922 16.2269 46.9922 15.5937 47.3827 15.2032L48.2135 14.3723ZM55.4366 13.488C54.6023 14.3218 53.7292 14.797 52.9516 14.8897C52.4422 14.9505 51.8082 14.8693 51.0582 14.3559L53.9995 11.4142C54.39 11.0236 54.39 10.3904 53.9995 9.99988C53.609 9.60934 52.9759 9.60935 52.5854 9.9999L49.6441 12.9415C49.1297 12.1899 49.0487 11.5549 49.1099 11.0449C49.2032 10.2673 49.679 9.39448 50.5133 8.56068C50.912 8.1622 51.5633 7.79492 52.4727 7.50225C53.3655 7.21491 54.3796 7.04 55.3707 6.9418C56.0156 6.87788 56.6294 6.84847 57.1638 6.838C57.153 7.3724 57.1231 7.98624 57.0588 8.63125C56.9599 9.62229 56.7843 10.6364 56.4963 11.5291C56.203 12.4384 55.8353 13.0895 55.4366 13.488Z" fill="#212121"/>
</svg>
