<svg width="64" height="64" viewBox="0 0 64 64" fill="none" xmlns="http://www.w3.org/2000/svg">
<path d="M27 25C27 26.1046 26.1046 27 25 27C23.8954 27 23 26.1046 23 25C23 23.8954 23.8954 23 25 23C26.1046 23 27 23.8954 27 25Z" fill="#212121"/>
<path d="M32 27C33.1046 27 34 26.1046 34 25C34 23.8954 33.1046 23 32 23C30.8954 23 30 23.8954 30 25C30 26.1046 30.8954 27 32 27Z" fill="#212121"/>
<path d="M41 25C41 26.1046 40.1046 27 39 27C37.8954 27 37 26.1046 37 25C37 23.8954 37.8954 23 39 23C40.1046 23 41 23.8954 41 25Z" fill="#212121"/>
<path fill-rule="evenodd" clip-rule="evenodd" d="M36 9C36.5523 9 37 9.44772 37 10V11H38.9999C40.1045 11 40.9999 11.8954 40.9999 13V18H43.1326C44.1279 18 44.9718 18.7319 45.1125 19.7172L46.8604 31.9523L51.2375 32.8277C52.3033 33.0409 53.0037 34.0661 52.8148 35.1364L50.1669 50.1417C50.5396 50.292 50.8831 50.4484 51.1973 50.6056C52.0068 51.0103 52.6201 51.4182 53.0376 51.7313C53.2464 51.8878 53.4065 52.021 53.518 52.1185C53.5737 52.1673 53.6174 52.2072 53.6489 52.2368C53.6647 52.2515 53.6774 52.2637 53.6871 52.2732L53.6994 52.2852L53.7039 52.2896L53.7065 52.2922C53.7065 52.2922 53.602 52.398 53.4491 52.551L53.7072 52.2929C54.0977 52.6834 54.0977 53.3166 53.7072 53.7071C53.3177 54.0966 52.687 54.0976 52.2962 53.7103L52.2942 53.7084L52.293 53.7071L52.281 53.6958C52.2657 53.6815 52.239 53.6569 52.201 53.6237C52.125 53.5571 52.0038 53.4559 51.8376 53.3312C51.5051 53.0818 50.9934 52.7397 50.3029 52.3944C48.9252 51.7056 46.8273 51 44.0001 51C41.2094 51 39.6128 51.684 38.0442 52.408L37.8082 52.5172C36.2565 53.2365 34.6095 54 32.0001 54C29.3135 54 27.7654 53.1913 26.3365 52.4448L26.225 52.3866C24.844 51.666 23.5138 51 21.0001 51C18.4246 51 16.0589 51.7044 14.32 52.424C13.4543 52.7822 12.7542 53.1399 12.2737 53.406C12.0337 53.539 11.8491 53.6487 11.7269 53.7236C11.6658 53.7611 11.6204 53.7898 11.5914 53.8084L11.5604 53.8284L11.5544 53.8323C11.0949 54.1383 10.4743 54.0141 10.1681 53.5547C9.8617 53.0952 9.98588 52.4743 10.4454 52.1679L10.4465 52.1672L10.4481 52.1662C10.4695 52.1521 10.491 52.1381 10.5126 52.1243C10.5522 52.0989 10.6088 52.0632 10.6815 52.0186C10.8269 51.9295 11.0369 51.8048 11.3047 51.6565C11.8398 51.3601 12.6084 50.9678 13.5553 50.576C13.6631 50.5314 13.7734 50.4867 13.886 50.4421L11.185 35.1364C10.9962 34.0661 11.6966 33.0409 12.7624 32.8277L17.1026 31.9597L18.8858 19.7118C19.0289 18.7289 19.8716 18 20.8649 18H22.9999V13C22.9999 11.8954 23.8954 11 24.9999 11H27V10C27 9.44772 27.4477 9 28 9C28.5523 9 29 9.44772 29 10V11H35V10C35 9.44772 35.4477 9 36 9ZM48.2465 49.5154L50.8453 34.7889L33 31.2198L33 51.9535C34.5971 51.7993 35.7183 51.2804 37.0028 50.686L37.206 50.592C38.8874 49.816 40.7908 49 44.0001 49C45.6158 49 47.0317 49.206 48.2465 49.5154ZM31 51.9526C29.4124 51.7947 28.3927 51.2622 27.2426 50.6616L27.1502 50.6134C25.6562 49.834 23.9864 49 21.0001 49C19.1032 49 17.3284 49.3347 15.8006 49.7829L13.1546 34.7889L31 31.2198L31 51.9526ZM32.2785 29.0393C32.1901 29.0137 32.0967 29 32 29C31.9034 29 31.81 29.0137 31.7216 29.0393C31.6835 29.0446 31.6455 29.0511 31.6077 29.0586L19.1843 31.5433L20.8649 20L43.1326 20L44.7807 31.5363L32.3922 29.0586C32.3544 29.0511 32.3165 29.0446 32.2785 29.0393ZM38.9999 18H24.9999V13H38.9999V18Z" fill="#212121"/>
<path fill-rule="evenodd" clip-rule="evenodd" d="M48.2136 14.371C46.1503 11.6933 47.2248 9.01885 49.0997 7.1453C51.93 4.317 59.1246 4.87804 59.1246 4.87804C59.1246 4.87804 59.6806 12.0731 56.8503 14.9014C54.9763 16.7741 52.3026 17.8466 49.6277 15.7853L48.7965 16.6165C48.4059 17.007 47.7728 17.007 47.3823 16.6165C46.9917 16.226 46.9917 15.5928 47.3822 15.2023L48.2136 14.371ZM55.4366 13.4867C54.6023 14.3204 53.7292 14.7955 52.9517 14.8883C52.4423 14.949 51.8083 14.8679 51.0584 14.3546L53.9991 11.4137C54.3897 11.0232 54.3897 10.39 53.9991 9.99952C53.6086 9.609 52.9754 9.60901 52.5849 9.99954L49.6442 12.9403C49.1298 12.1888 49.0489 11.5539 49.1101 11.044C49.2033 10.2664 49.6791 9.39372 50.5134 8.56001C50.9121 8.16159 51.5634 7.79435 52.4728 7.5017C53.3656 7.2144 54.3797 7.03951 55.3707 6.94131C56.0157 6.87741 56.6294 6.848 57.1637 6.83753C57.1529 7.37185 57.1231 7.98559 57.0587 8.63049C56.9598 9.62144 56.7842 10.6354 56.4963 11.528C56.203 12.4372 55.8353 13.0882 55.4366 13.4867Z" fill="#212121"/>
<path fill-rule="evenodd" clip-rule="evenodd" d="M14.2763 6.68188C14.6905 6.68188 15.0263 7.01767 15.0263 7.43188V11.9922C15.0263 12.9419 13.7866 13.3039 13.2756 12.5033L11.4023 9.56883V12.1923C11.4023 12.6065 11.0666 12.9423 10.6523 12.9423C10.2381 12.9423 9.90234 12.6065 9.90234 12.1923V7.68505C9.90234 6.73531 11.1421 6.37336 11.6531 7.17389L13.5263 10.1084V7.43188C13.5263 7.01767 13.8621 6.68188 14.2763 6.68188ZM6 6.76025C6.41421 6.76025 6.75 7.09604 6.75 7.51025V11.4176H8.85649C9.2707 11.4176 9.60649 11.7534 9.60649 12.1676C9.60649 12.5818 9.2707 12.9176 8.85649 12.9176H6.2C5.67533 12.9176 5.25 12.4923 5.25 11.9676V7.51025C5.25 7.09604 5.58579 6.76025 6 6.76025ZM16.8887 9.84907C16.8887 8.96916 17.602 8.25586 18.4819 8.25586C18.8338 8.25586 19.157 8.36907 19.4201 8.56124C19.4704 8.59794 19.5184 8.63753 19.5641 8.67978C19.868 8.96124 20.3425 8.94305 20.6239 8.63915C20.9054 8.33525 20.8872 7.86073 20.5833 7.57927C20.4951 7.49761 20.4022 7.42101 20.3049 7.34993C19.7936 6.97649 19.1624 6.75586 18.4819 6.75586C16.7735 6.75586 15.3887 8.14074 15.3887 9.84907C15.3887 11.5574 16.7735 12.9423 18.4819 12.9423C20.0569 12.9423 21.356 11.7658 21.5501 10.2433C21.6364 9.56672 21.0756 9.09907 20.5251 9.09907H18.4819C18.0677 9.09907 17.7319 9.43485 17.7319 9.84907C17.7319 10.2633 18.0677 10.5991 18.4819 10.5991H19.8881C19.6198 11.1007 19.0904 11.4423 18.4819 11.4423C17.602 11.4423 16.8887 10.729 16.8887 9.84907Z" fill="#212121"/>
</svg>
