<svg width="64" height="64" viewBox="0 0 64 64" fill="none" xmlns="http://www.w3.org/2000/svg">
<path fill-rule="evenodd" clip-rule="evenodd" d="M51 49V19H53V49C53 50.1046 52.1046 51 51 51H35V49H51ZM45 11H35V13H45V11ZM20 11H29V13H20V11ZM11 21V49C11 50.1046 11.8954 51 13 51H29V49H13V21H11Z" fill="#212121"/>
<path fill-rule="evenodd" clip-rule="evenodd" d="M15 51C15 49.8954 15.8954 49 17 49H23C24.1046 49 25 49.8954 25 51V54C25 55.1046 24.1046 56 23 56H17C15.8954 56 15 55.1046 15 54V51ZM23 51H17V54H23V51Z" fill="#212121"/>
<path fill-rule="evenodd" clip-rule="evenodd" d="M39 51C39 49.8954 39.8954 49 41 49H47C48.1046 49 49 49.8954 49 51V54C49 55.1046 48.1046 56 47 56H41C39.8954 56 39 55.1046 39 54V51ZM47 51H41V54H47V51Z" fill="#212121"/>
<path fill-rule="evenodd" clip-rule="evenodd" d="M23 42H17V45H23V42ZM17 40C15.8954 40 15 40.8954 15 42V45C15 46.1046 15.8954 47 17 47H23C24.1046 47 25 46.1046 25 45V42C25 40.8954 24.1046 40 23 40H17Z" fill="#212121"/>
<path fill-rule="evenodd" clip-rule="evenodd" d="M47 42H41V45H47V42ZM41 40C39.8954 40 39 40.8954 39 42V45C39 46.1046 39.8954 47 41 47H47C48.1046 47 49 46.1046 49 45V42C49 40.8954 48.1046 40 47 40H41Z" fill="#212121"/>
<path fill-rule="evenodd" clip-rule="evenodd" d="M51 36V19H53V36C53 37.1046 52.1046 38 51 38H35V36H51ZM29 36H13V21H11V36C11 37.1046 11.8954 38 13 38H29V36ZM35 16H45V18H35V16ZM29 18V16H20V18H29Z" fill="#212121"/>
<path fill-rule="evenodd" clip-rule="evenodd" d="M7 21V28C7 28.5523 7.44772 29 8 29C8.55228 29 9 28.5523 9 28V21H7Z" fill="#212121"/>
<path fill-rule="evenodd" clip-rule="evenodd" d="M56.2361 19C56.7111 19.5308 57 20.2316 57 21V28C57 28.5523 56.5523 29 56 29C55.4477 29 55 28.5523 55 28V21C55 20.4477 54.5523 20 54 20H52C51.4477 20 51 19.5523 51 19H56.2361Z" fill="#212121"/>
<path d="M31 9C31 8.44771 31.4477 8 32 8C32.5523 8 33 8.44772 33 9V55C33 55.5523 32.5523 56 32 56C31.4477 56 31 55.5523 31 55V9Z" fill="#212121"/>
<path d="M9.47158 5.70237C9.85949 5.30925 9.85526 4.6761 9.46214 4.28819C9.06901 3.90028 8.43586 3.90451 8.04795 4.29763L6.28819 6.08105C5.90028 6.47417 5.90451 7.10732 6.29763 7.49523C6.69075 7.88314 7.3239 7.87891 7.71181 7.48579L9.47158 5.70237Z" fill="#212121"/>
<path fill-rule="evenodd" clip-rule="evenodd" d="M12.6334 8.56641C12.6334 8.56641 9.99289 10.9913 9.99219 13.0597C9.99168 14.5578 10.6429 16.0561 12.6308 16.0568C14.6188 16.0576 15.271 14.5597 15.2715 13.0616C15.2722 10.9932 12.6334 8.56641 12.6334 8.56641ZM13.4866 14.2346C13.6427 14.0216 13.7713 13.6276 13.7715 13.0611C13.7717 12.5629 13.3999 11.7874 12.7598 10.9478C12.7174 10.8921 12.6749 10.8376 12.6326 10.7844C12.5903 10.8376 12.5477 10.892 12.5053 10.9476C11.8647 11.7868 11.4924 12.562 11.4922 13.0602C11.492 13.6267 11.6203 14.0208 11.7763 14.2339C11.8779 14.3728 12.0675 14.5566 12.6314 14.5568C13.1953 14.557 13.3849 14.3733 13.4866 14.2346Z" fill="#212121"/>
<path fill-rule="evenodd" clip-rule="evenodd" d="M11.0456 5.15962C11.2306 4.98736 11.4741 4.8916 11.7269 4.8916H17.3828C17.9351 4.8916 18.3828 5.33932 18.3828 5.8916V18.1973C18.3828 18.7496 17.9351 19.1973 17.3828 19.1973H7.88086C7.32857 19.1973 6.88086 18.7496 6.88086 18.1973V9.47144C6.88086 9.19379 6.9963 8.92863 7.19954 8.73946L11.0456 5.15962ZM12.1203 6.8916L8.88086 9.9068V17.1973H16.3828V6.8916H12.1203Z" fill="#212121"/>
<path fill-rule="evenodd" clip-rule="evenodd" d="M48.2135 14.3723C46.1502 11.6944 47.2248 9.01964 49.0996 7.1459C51.9299 4.31733 59.1246 4.87843 59.1246 4.87843C59.1246 4.87843 59.6805 12.0742 56.8503 14.9027C54.9762 16.7756 52.3025 17.8482 49.6276 15.7866L48.7969 16.6174C48.4064 17.008 47.7732 17.008 47.3827 16.6175C46.9922 16.2269 46.9922 15.5937 47.3827 15.2032L48.2135 14.3723ZM55.4366 13.488C54.6023 14.3218 53.7292 14.797 52.9516 14.8897C52.4422 14.9505 51.8082 14.8693 51.0582 14.3559L53.9995 11.4142C54.39 11.0236 54.39 10.3904 53.9995 9.9999C53.609 9.60936 52.9759 9.60937 52.5854 9.99991L49.6441 12.9415C49.1297 12.1899 49.0487 11.555 49.1099 11.0449C49.2032 10.2673 49.679 9.39448 50.5133 8.56069C50.912 8.16221 51.5633 7.79493 52.4727 7.50225C53.3655 7.21492 54.3796 7.04001 55.3707 6.9418C56.0156 6.87789 56.6294 6.84848 57.1638 6.83801C57.153 7.37241 57.1231 7.98625 57.0588 8.63126C56.9599 9.6223 56.7843 10.6364 56.4963 11.5291C56.203 12.4384 55.8353 13.0895 55.4366 13.488Z" fill="#212121"/>
</svg>
