<svg width="64" height="64" viewBox="0 0 64 64" fill="none" xmlns="http://www.w3.org/2000/svg">
<path d="M48 41V19H50V41C50 43.2091 48.2091 45 46 45V48C46 48.5523 45.5523 49 45 49H44.5109L46.5214 54.3614C46.7154 54.8786 46.4534 55.455 45.9362 55.6489C45.4191 55.8428 44.8427 55.5808 44.6488 55.0637L44.2499 54H35V52H43.4999L42.3749 49H35V47H44V45H35V43H46C47.1046 43 48 42.1046 48 41Z" fill="#212121"/>
<path d="M35 9H45V11H35V9Z" fill="#212121"/>
<path d="M20 9H29V11H20V9Z" fill="#212121"/>
<path d="M14 21V41C14 43.2091 15.7909 45 18 45L18 48C18 48.5523 18.4477 49 19 49H19.2499L17.351 54.0637C17.1571 54.5808 17.4191 55.1572 17.9362 55.3511C18.4533 55.545 19.0298 55.283 19.2237 54.7659L19.5109 54H29V52H20.2609L21.3859 49H29V47H20V45H29V43H18C16.8954 43 16 42.1046 16 41V21H14Z" fill="#212121"/>
<path d="M22 26V18H29V16H21C20.4477 16 20 16.4477 20 17V27C20 27.5523 20.4477 28 21 28H29V26H22Z" fill="#212121"/>
<path d="M43 28H35V26H42V18H35V16H43C43.5523 16 44 16.4477 44 17V27C44 27.5523 43.5523 28 43 28Z" fill="#212121"/>
<path fill-rule="evenodd" clip-rule="evenodd" d="M26 35.5C26 37.433 24.433 39 22.5 39C20.567 39 19 37.433 19 35.5C19 33.567 20.567 32 22.5 32C24.433 32 26 33.567 26 35.5ZM22.5 37C23.3284 37 24 36.3284 24 35.5C24 34.6716 23.3284 34 22.5 34C21.6716 34 21 34.6716 21 35.5C21 36.3284 21.6716 37 22.5 37Z" fill="#212121"/>
<path fill-rule="evenodd" clip-rule="evenodd" d="M41.5 39C43.433 39 45 37.433 45 35.5C45 33.567 43.433 32 41.5 32C39.567 32 38 33.567 38 35.5C38 37.433 39.567 39 41.5 39ZM43 35.5C43 36.3284 42.3284 37 41.5 37C40.6716 37 40 36.3284 40 35.5C40 34.6716 40.6716 34 41.5 34C42.3284 34 43 34.6716 43 35.5Z" fill="#212121"/>
<path d="M31 9C31 8.44771 31.4477 8 32 8C32.5523 8 33 8.44772 33 9V55C33 55.5523 32.5523 56 32 56C31.4477 56 31 55.5523 31 55V9Z" fill="#212121"/>
<path d="M9.47158 5.7024C9.85949 5.30928 9.85526 4.67613 9.46214 4.28822C9.06901 3.90031 8.43586 3.90454 8.04795 4.29766L6.28819 6.08108C5.90028 6.4742 5.90451 7.10735 6.29763 7.49526C6.69075 7.88317 7.3239 7.87894 7.71181 7.48582L9.47158 5.7024Z" fill="#212121"/>
<path fill-rule="evenodd" clip-rule="evenodd" d="M10.5703 10.1358C10.5703 9.58485 11.017 9.13821 11.5679 9.13821H12.1657C13.8907 9.13821 15.2891 10.5366 15.2891 12.2615C15.2891 13.9865 13.8907 15.3849 12.1657 15.3849H11.5679C11.017 15.3849 10.5703 14.9382 10.5703 14.3873V10.1358ZM12.0703 10.6382V13.8849H12.1657C13.0623 13.8849 13.7891 13.1581 13.7891 12.2615C13.7891 11.365 13.0623 10.6382 12.1657 10.6382H12.0703Z" fill="#212121"/>
<path fill-rule="evenodd" clip-rule="evenodd" d="M11.0456 5.15965C11.2306 4.9874 11.4741 4.89163 11.7269 4.89163H17.3828C17.9351 4.89163 18.3828 5.33935 18.3828 5.89163V18.1973C18.3828 18.7496 17.9351 19.1973 17.3828 19.1973H7.88086C7.32857 19.1973 6.88086 18.7496 6.88086 18.1973V9.47147C6.88086 9.19382 6.9963 8.92866 7.19954 8.73949L11.0456 5.15965ZM12.1203 6.89163L8.88086 9.90683V17.1973H16.3828V6.89163H12.1203Z" fill="#212121"/>
<path fill-rule="evenodd" clip-rule="evenodd" d="M48.2135 14.3723C46.1502 11.6944 47.2248 9.01964 49.0996 7.1459C51.9299 4.31733 59.1246 4.87843 59.1246 4.87843C59.1246 4.87843 59.6805 12.0742 56.8503 14.9027C54.9762 16.7756 52.3025 17.8482 49.6276 15.7866L48.7969 16.6174C48.4064 17.008 47.7732 17.008 47.3827 16.6175C46.9922 16.2269 46.9922 15.5937 47.3827 15.2032L48.2135 14.3723ZM55.4366 13.488C54.6023 14.3218 53.7292 14.797 52.9516 14.8897C52.4422 14.9505 51.8082 14.8693 51.0582 14.3559L53.9995 11.4142C54.39 11.0236 54.39 10.3904 53.9995 9.9999C53.609 9.60936 52.9759 9.60937 52.5854 9.99991L49.6441 12.9415C49.1297 12.1899 49.0487 11.555 49.1099 11.0449C49.2032 10.2673 49.679 9.39448 50.5133 8.56069C50.912 8.16221 51.5633 7.79493 52.4727 7.50225C53.3655 7.21492 54.3796 7.04001 55.3707 6.9418C56.0156 6.87789 56.6294 6.84848 57.1638 6.83801C57.153 7.37241 57.1231 7.98625 57.0588 8.63126C56.9599 9.6223 56.7843 10.6364 56.4963 11.5291C56.203 12.4384 55.8353 13.0895 55.4366 13.488Z" fill="#212121"/>
</svg>
