<svg width="64" height="64" viewBox="0 0 64 64" fill="none" xmlns="http://www.w3.org/2000/svg">
<path fill-rule="evenodd" clip-rule="evenodd" d="M15 51C15 49.8954 15.8954 49 17 49H21C22.1046 49 23 49.8954 23 51V54C23 55.1046 22.1046 56 21 56H17C15.8954 56 15 55.1046 15 54V51ZM21 51H17V54H21V51Z" fill="#212121"/>
<path fill-rule="evenodd" clip-rule="evenodd" d="M41 51C41 49.8954 41.8954 49 43 49H47C48.1046 49 49 49.8954 49 51V54C49 55.1046 48.1046 56 47 56H43C41.8954 56 41 55.1046 41 54V51ZM47 51H43V54H47V51Z" fill="#212121"/>
<path fill-rule="evenodd" clip-rule="evenodd" d="M22 41C22 43.2091 20.2091 45 18 45C15.7909 45 14 43.2091 14 41C14 38.7909 15.7909 37 18 37C20.2091 37 22 38.7909 22 41ZM18 43C19.1046 43 20 42.1046 20 41C20 39.8954 19.1046 39 18 39C16.8954 39 16 39.8954 16 41C16 42.1046 16.8954 43 18 43Z" fill="#212121"/>
<path fill-rule="evenodd" clip-rule="evenodd" d="M50 41C50 43.2091 48.2091 45 46 45C43.7909 45 42 43.2091 42 41C42 38.7909 43.7909 37 46 37C48.2091 37 50 38.7909 50 41ZM46 43C47.1046 43 48 42.1046 48 41C48 39.8954 47.1046 39 46 39C44.8954 39 44 39.8954 44 41C44 42.1046 44.8954 43 46 43Z" fill="#212121"/>
<path fill-rule="evenodd" clip-rule="evenodd" d="M26.0769 38C25.4822 38 25 38.4477 25 39C25 39.5523 25.4822 40 26.0769 40H29V38H26.0769ZM35 40H37.9231C38.5178 40 39 39.5523 39 39C39 38.4477 38.5178 38 37.9231 38H35V40Z" fill="#212121"/>
<path fill-rule="evenodd" clip-rule="evenodd" d="M26.0769 42C25.4822 42 25 42.4477 25 43C25 43.5523 25.4822 44 26.0769 44H29V42H26.0769ZM35 44H37.9231C38.5178 44 39 43.5523 39 43C39 42.4477 38.5178 42 37.9231 42H35V44Z" fill="#212121"/>
<path fill-rule="evenodd" clip-rule="evenodd" d="M49 34H35V32H49C51.7614 32 54 34.2386 54 37V48C54 49.6569 52.6569 51 51 51H35V49H51C51.5523 49 52 48.5523 52 48V37C52 35.3431 50.6569 34 49 34ZM29 49H13C12.4477 49 12 48.5523 12 48V37C12 35.3431 13.3431 34 15 34H29V32H15C12.2386 32 10 34.2386 10 37V48C10 49.6569 11.3431 51 13 51H29V49Z" fill="#212121"/>
<path fill-rule="evenodd" clip-rule="evenodd" d="M43.5396 20H35V18H43.5396C45.4484 18 47.0913 19.3488 47.463 21.2211L49.0512 29.2211C49.5423 31.6947 47.6497 34 45.1278 34H35V32H45.1278C46.3888 32 47.3351 30.8473 47.0895 29.6105L45.5013 21.6105C45.3154 20.6744 44.494 20 43.5396 20ZM29 32H18.8722C17.6112 32 16.6649 30.8473 16.9105 29.6105L18.4987 21.6105C18.6846 20.6744 19.506 20 20.4604 20H29V18H20.4604C18.5516 18 16.9087 19.3488 16.537 21.2211L14.9488 29.2211C14.4577 31.6947 16.3503 34 18.8722 34H29V32Z" fill="#212121"/>
<path d="M53 29C53 28.4477 52.5523 28 52 28H48V32H51C52.1046 32 53 31.1046 53 30V29Z" fill="#212121"/>
<path d="M11 29C11 28.4477 11.4477 28 12 28H16V32H13C11.8954 32 11 31.1046 11 30V29Z" fill="#212121"/>
<path d="M31 9C31 8.44771 31.4477 8 32 8C32.5523 8 33 8.44772 33 9V55C33 55.5523 32.5523 56 32 56C31.4477 56 31 55.5523 31 55V9Z" fill="#212121"/>
<path fill-rule="evenodd" clip-rule="evenodd" d="M4 4C4 3.44772 4.44772 3 5 3H13C13.5523 3 14 3.44772 14 4C14 4.55228 13.5523 5 13 5V7C14.1046 7 15 7.89543 15 9V19C15 20.1046 14.1046 21 13 21H5C3.89543 21 3 20.1046 3 19V9C3 7.89543 3.89543 7 5 7V5C4.44772 5 4 4.55228 4 4ZM5 10C5 9.44772 5.44772 9 6 9H12C12.5523 9 13 9.44772 13 10V18C13 18.5523 12.5523 19 12 19H6C5.44772 19 5 18.5523 5 18V10ZM11 5H7V7H11V5Z" fill="#212121"/>
<path d="M5 12H13V16H5V12Z" fill="#212121"/>
<path fill-rule="evenodd" clip-rule="evenodd" d="M52.9519 14.8897C53.7294 14.797 54.6025 14.3218 55.4368 13.488C55.8356 13.0895 56.2033 12.4384 56.4965 11.5291C56.7845 10.6364 56.9601 9.62229 57.059 8.63125C57.1233 7.98624 57.1532 7.3724 57.164 6.838C56.6297 6.84847 56.0159 6.87788 55.3709 6.94179C54.3799 7.04 53.3657 7.21491 52.4729 7.50224C51.5635 7.79492 50.9122 8.1622 50.5135 8.56068C49.6792 9.39447 49.2034 10.2673 49.1101 11.0449C49.0291 11.72 49.1973 12.6141 50.2901 13.7078C51.3829 14.8015 52.2767 14.9702 52.9519 14.8897ZM48.8754 15.1216C51.794 18.0425 54.8006 16.9514 56.8505 14.9027C59.6808 12.0742 59.1248 4.87842 59.1248 4.87842C59.1248 4.87842 51.9302 4.31732 49.0999 7.14589C47.05 9.19453 45.9569 12.2007 48.8754 15.1216Z" fill="#212121"/>
<path fill-rule="evenodd" clip-rule="evenodd" d="M53.9995 9.99988C54.39 10.3904 54.39 11.0236 53.9995 11.4142L48.7969 16.6174C48.4064 17.008 47.7732 17.008 47.3827 16.6174C46.9922 16.2269 46.9922 15.5937 47.3827 15.2032L52.5854 9.9999C52.9759 9.60935 53.609 9.60934 53.9995 9.99988Z" fill="#212121"/>
</svg>
