<svg width="64" height="64" viewBox="0 0 64 64" fill="none" xmlns="http://www.w3.org/2000/svg">
<path fill-rule="evenodd" clip-rule="evenodd" d="M31 19C31 18.4477 31.4477 18 32 18H38.7818C39.5781 18 40.2986 18.4724 40.616 19.2027L43.3213 25.4267C43.9324 23.9997 45.3494 23 47 23H50V31H47C46.5228 31 46.0652 30.9164 45.6408 30.7632L47.1546 34.2458C47.7425 34.0855 48.3613 34 49 34C52.866 34 56 37.134 56 41C56 44.866 52.866 48 49 48C45.134 48 42 44.866 42 41C42 38.4837 43.3277 36.2776 45.3207 35.0438L43.3666 30.5481C43.3557 30.6137 43.3438 30.679 43.331 30.744C43.0684 32.0718 42.3901 33.3535 41.4836 34.3143C40.5854 35.2664 39.3651 36 38 36H35C35 36.2559 34.9024 36.5118 34.7071 36.7071L30.8787 40.5355C29.941 41.4732 28.6692 42 27.3431 42H21.9291C21.4439 45.3923 18.5265 48 15 48C11.134 48 8 44.866 8 41C8 37.1366 11.1298 34.0042 14.9922 34L15 34H19.0464C20.6508 32.2032 23.313 29.7541 26.4996 27.7866C29.8831 25.6976 33.9873 24.0721 38.1047 24.5055C39.32 24.6334 40.3349 24.9526 41.1449 25.4366L38.7818 20H32C31.4477 20 31 19.5523 31 19ZM48.0829 41.3986L46.1298 36.9053C44.8418 37.8098 44 39.3066 44 41C44 43.7614 46.2386 46 49 46C51.7614 46 54 43.7614 54 41C54 38.2386 51.7614 36 49 36C48.6447 36 48.2981 36.0371 47.9638 36.1075L49.9171 40.6014C50.1373 41.1079 49.9051 41.697 49.3986 41.9171C48.8921 42.1373 48.303 41.9051 48.0829 41.3986ZM19.9 40H15C14.4477 40 14 40.4477 14 41C14 41.5523 14.4477 42 15 42H19.9C19.4367 44.2822 17.419 46 15 46C12.2386 46 10 43.7614 10 41C10 38.2386 12.2386 36 15 36C17.419 36 19.4367 37.7178 19.9 40ZM21.9291 40H27.3431C28.1388 40 28.9019 39.6839 29.4645 39.1213L32.5858 36H19.899C20.9708 37.0503 21.7063 38.4424 21.9291 40ZM21.8153 34H38C38.6349 34 39.3646 33.646 40.0289 32.9419C40.6849 32.2465 41.1816 31.3032 41.369 30.3559C41.5559 29.4113 41.4224 28.5518 40.9574 27.9064C40.5007 27.2725 39.6002 26.6739 37.8953 26.4945C34.4127 26.1279 30.7669 27.5024 27.5504 29.4884C25.2841 30.8876 23.2952 32.551 21.8153 34ZM47 25H48V29H47C45.8954 29 45 28.1046 45 27C45 25.8954 45.8954 25 47 25Z" fill="#212121"/>
<path fill-rule="evenodd" clip-rule="evenodd" d="M48.2135 14.3722C46.1503 11.6943 47.2248 9.01961 49.0996 7.14587C51.9299 4.3173 59.1246 4.8784 59.1246 4.8784C59.1246 4.8784 59.6805 12.0741 56.8503 14.9027C54.9762 16.7756 52.3025 17.8482 49.6276 15.7866L48.7969 16.6174C48.4064 17.0079 47.7732 17.0079 47.3827 16.6174C46.9922 16.2269 46.9922 15.5937 47.3827 15.2031L48.2135 14.3722ZM55.4366 13.4879C54.6023 14.3217 53.7292 14.7969 52.9516 14.8897C52.4422 14.9505 51.8082 14.8693 51.0581 14.3559L53.9995 11.4141C54.39 11.0236 54.39 10.3904 53.9995 9.99984C53.609 9.6093 52.9759 9.6093 52.5854 9.99985L49.6441 12.9415C49.1297 12.1899 49.0487 11.5549 49.1099 11.0449C49.2032 10.2673 49.679 9.39445 50.5133 8.56065C50.912 8.16218 51.5633 7.7949 52.4727 7.50222C53.3655 7.21489 54.3796 7.03998 55.3707 6.94177C56.0156 6.87786 56.6294 6.84845 57.1638 6.83798C57.153 7.37238 57.1231 7.98622 57.0588 8.63123C56.9599 9.62227 56.7843 10.6364 56.4963 11.5291C56.203 12.4384 55.8353 13.0895 55.4366 13.4879Z" fill="#212121"/>
</svg>
