<svg width="64" height="64" viewBox="0 0 64 64" fill="none" xmlns="http://www.w3.org/2000/svg">
<path fill-rule="evenodd" clip-rule="evenodd" d="M33 9C33 8.44772 32.5523 8 32 8C31.4477 8 31 8.44772 31 9V13H29C27.8954 13 27 13.8954 27 15V19H20C19.4477 19 19 19.4477 19 20C19 20.5523 19.4477 21 20 21V31H20.0531L16.0343 33.7629C15.3183 34.2552 15.002 35.1534 15.2517 35.9857L18.0001 45.1468V50.2672C16.2902 50.566 14.768 51.0741 13.5553 51.576C12.6084 51.9678 11.8398 52.3601 11.3047 52.6565C11.0369 52.8048 10.8269 52.9295 10.6815 53.0186C10.6088 53.0632 10.5522 53.0989 10.5126 53.1243C10.491 53.1381 10.4695 53.1521 10.4481 53.1662L10.4465 53.1672L10.4454 53.1679C9.98588 53.4743 9.8617 54.0952 10.1681 54.5547C10.4743 55.0141 11.0949 55.1383 11.5544 54.8323L11.5604 54.8284L11.5914 54.8084C11.6204 54.7898 11.6658 54.7611 11.7269 54.7236C11.8491 54.6487 12.0337 54.539 12.2737 54.406C12.7542 54.1399 13.4543 53.7822 14.32 53.424C16.0589 52.7044 18.4246 52 21.0001 52C23.5138 52 24.844 52.666 26.225 53.3866L26.3365 53.4448C27.7654 54.1913 29.3135 55 32.0001 55C34.6095 55 36.2565 54.2365 37.8082 53.5172L38.0442 53.408C39.6128 52.684 41.2094 52 44.0001 52C46.8273 52 48.9252 52.7056 50.3029 53.3944C50.9934 53.7397 51.5051 54.0818 51.8376 54.3312C52.0038 54.4559 52.125 54.5571 52.201 54.6237C52.239 54.6569 52.2657 54.6815 52.281 54.6958L52.293 54.7071L52.2942 54.7084L52.2962 54.7103C52.687 55.0976 53.3177 55.0966 53.7072 54.7071C54.0977 54.3166 54.0977 53.6834 53.7072 53.2929L53.4491 53.551C53.602 53.398 53.7065 53.2922 53.7065 53.2922L53.7039 53.2896L53.6994 53.2852L53.6871 53.2732L53.6733 53.2599L53.6489 53.2368C53.6174 53.2072 53.5737 53.1673 53.518 53.1185C53.4065 53.021 53.2464 52.8878 53.0376 52.7313C52.6201 52.4182 52.0068 52.0103 51.1973 51.6056C49.9354 50.9746 48.2015 50.3537 46.0001 50.1091V45.1468L48.7484 35.9857C48.9981 35.1534 48.6818 34.2552 47.9658 33.7629L43.947 31H44V21C44.5523 21 45 20.5523 45 20C45 19.4477 44.5523 19 44 19H37V15C37 13.8954 36.1046 13 35 13H33V9ZM29 15V19H35V15H29ZM22 29.6615V21H42V29.6614L33.1331 23.5654C32.4506 23.0962 31.5495 23.0962 30.867 23.5654L22 29.6615ZM44.0001 45.1468V50C40.7908 50 38.8874 50.816 37.206 51.592L37.0028 51.686C35.7183 52.2804 34.5971 52.7993 33 52.9535V25.901L46.8327 35.411L44.0844 44.5721C44.0285 44.7585 44.0001 44.9521 44.0001 45.1468ZM31 25.9011V52.9526C29.4124 52.7947 28.3927 52.2622 27.2426 51.6616L27.1502 51.6134C25.6562 50.834 23.9864 50 21.0001 50C20.6627 50 20.3291 50.0106 20.0001 50.0305V45.1468C20.0001 44.9521 19.9716 44.7585 19.9157 44.5721L17.1674 35.411L31 25.9011Z" fill="#212121"/>
<path fill-rule="evenodd" clip-rule="evenodd" d="M48.2133 14.3707C46.1504 11.6931 47.2249 9.01878 49.0997 7.1453C51.93 4.317 59.1246 4.87804 59.1246 4.87804C59.1246 4.87804 59.6806 12.0731 56.8503 14.9014C54.9762 16.7741 52.3025 17.8466 49.6274 15.785L48.796 16.6165C48.4055 17.007 47.7723 17.007 47.3818 16.6165C46.9912 16.226 46.9912 15.5928 47.3818 15.2023L48.2133 14.3707ZM55.4366 13.4867C54.6023 14.3204 53.7292 14.7955 52.9517 14.8883C52.4422 14.949 51.8082 14.8678 51.0581 14.3544L53.9986 11.4137C54.3892 11.0232 54.3892 10.39 53.9986 9.99951C53.6081 9.60899 52.9749 9.60899 52.5844 9.99952L49.644 12.94C49.1298 12.1886 49.0489 11.5538 49.1101 11.044C49.2033 10.2664 49.6791 9.39372 50.5134 8.56001C50.9121 8.16159 51.5634 7.79435 52.4728 7.50171C53.3656 7.2144 54.3797 7.03951 55.3707 6.94131C56.0157 6.87741 56.6294 6.848 57.1637 6.83753C57.1529 7.37185 57.1231 7.98559 57.0587 8.63049C56.9598 9.62144 56.7842 10.6354 56.4963 11.528C56.203 12.4372 55.8353 13.0882 55.4366 13.4867Z" fill="#212121"/>
<path fill-rule="evenodd" clip-rule="evenodd" d="M14.2763 6.68188C14.6905 6.68188 15.0263 7.01767 15.0263 7.43188V11.9922C15.0263 12.9419 13.7866 13.3039 13.2756 12.5033L11.4023 9.56883V12.1923C11.4023 12.6065 11.0666 12.9423 10.6523 12.9423C10.2381 12.9423 9.90234 12.6065 9.90234 12.1923V7.68505C9.90234 6.73531 11.1421 6.37336 11.6531 7.17389L13.5263 10.1084V7.43188C13.5263 7.01767 13.8621 6.68188 14.2763 6.68188ZM6 6.76025C6.41421 6.76025 6.75 7.09604 6.75 7.51025V11.4176H8.85649C9.2707 11.4176 9.60649 11.7534 9.60649 12.1676C9.60649 12.5818 9.2707 12.9176 8.85649 12.9176H6.2C5.67533 12.9176 5.25 12.4923 5.25 11.9676V7.51025C5.25 7.09604 5.58579 6.76025 6 6.76025ZM16.8887 9.84907C16.8887 8.96916 17.602 8.25586 18.4819 8.25586C18.8338 8.25586 19.157 8.36907 19.4201 8.56124C19.4704 8.59794 19.5184 8.63753 19.5641 8.67978C19.868 8.96124 20.3425 8.94305 20.6239 8.63915C20.9054 8.33525 20.8872 7.86073 20.5833 7.57927C20.4951 7.49761 20.4022 7.42101 20.3049 7.34993C19.7936 6.97649 19.1624 6.75586 18.4819 6.75586C16.7735 6.75586 15.3887 8.14074 15.3887 9.84907C15.3887 11.5574 16.7735 12.9423 18.4819 12.9423C20.0569 12.9423 21.356 11.7658 21.5501 10.2433C21.6364 9.56672 21.0756 9.09907 20.5251 9.09907H18.4819C18.0677 9.09907 17.7319 9.43485 17.7319 9.84907C17.7319 10.2633 18.0677 10.5991 18.4819 10.5991H19.8881C19.6198 11.1007 19.0904 11.4423 18.4819 11.4423C17.602 11.4423 16.8887 10.729 16.8887 9.84907Z" fill="#212121"/>
</svg>
