<svg width="64" height="64" viewBox="0 0 64 64" fill="none" xmlns="http://www.w3.org/2000/svg">
<path fill-rule="evenodd" clip-rule="evenodd" d="M20.9363 47.3511C21.4534 47.545 21.7155 48.1215 21.5215 48.6386L19.2238 54.7659C19.0299 55.283 18.4534 55.545 17.9363 55.3511C17.4192 55.1572 17.1572 54.5808 17.3511 54.0637L19.6489 47.9363C19.8428 47.4192 20.4192 47.1572 20.9363 47.3511Z" fill="#212121"/>
<path fill-rule="evenodd" clip-rule="evenodd" d="M43.9363 47.6489C44.4534 47.455 45.0299 47.717 45.2238 48.2341L47.5215 54.3614C47.7155 54.8785 47.4534 55.455 46.9363 55.6489C46.4192 55.8428 45.8428 55.5808 45.6489 55.0637L43.3511 48.9363C43.1572 48.4192 43.4192 47.8428 43.9363 47.6489Z" fill="#212121"/>
<path fill-rule="evenodd" clip-rule="evenodd" d="M29 52H19V54H29V52ZM35 54H46V52H35V54Z" fill="#212121"/>
<path fill-rule="evenodd" clip-rule="evenodd" d="M35 48.369V50.4082L44.9011 48.4374C46.7084 48.0777 47.7672 46.1889 47.1311 44.4595L46.6969 43.2792L46.7372 43.2716C48.629 42.9169 50 41.265 50 39.3401V19H48V39.3401C48 40.3026 47.3145 41.1285 46.3686 41.3059L35 43.4375L35 45.4724L44.7034 43.653L45.254 45.1499C45.466 45.7264 45.1131 46.356 44.5107 46.4759L35 48.369ZM29 43.4375V45.4724L19.2966 43.653L18.746 45.1499C18.534 45.7264 18.8869 46.356 19.4893 46.4759L29 48.369V50.4082L19.0989 48.4374C17.2916 48.0777 16.2328 46.1889 16.8689 44.4595L17.3031 43.2792L17.2628 43.2716C15.371 42.9169 14 41.265 14 39.3401V21H16V39.3401C16 40.3026 16.6855 41.1285 17.6314 41.3059L29 43.4375ZM20 11H29V9H20V11ZM45 9H35V11H45V9Z" fill="#212121"/>
<path fill-rule="evenodd" clip-rule="evenodd" d="M45 18H35V16H45V18ZM48 29V19H50V31H35V29H48ZM29 31H14V21H16V29H29V31ZM29 16H20V18H29V16Z" fill="#212121"/>
<path fill-rule="evenodd" clip-rule="evenodd" d="M26 36.5C26 38.433 24.433 40 22.5 40C20.567 40 19 38.433 19 36.5C19 34.567 20.567 33 22.5 33C24.433 33 26 34.567 26 36.5ZM22.5 38C23.3284 38 24 37.3284 24 36.5C24 35.6716 23.3284 35 22.5 35C21.6716 35 21 35.6716 21 36.5C21 37.3284 21.6716 38 22.5 38Z" fill="#212121"/>
<path fill-rule="evenodd" clip-rule="evenodd" d="M45 36.5C45 38.433 43.433 40 41.5 40C39.567 40 38 38.433 38 36.5C38 34.567 39.567 33 41.5 33C43.433 33 45 34.567 45 36.5ZM41.5 38C42.3284 38 43 37.3284 43 36.5C43 35.6716 42.3284 35 41.5 35C40.6716 35 40 35.6716 40 36.5C40 37.3284 40.6716 38 41.5 38Z" fill="#212121"/>
<path d="M31 9C31 8.44771 31.4477 8 32 8C32.5523 8 33 8.44772 33 9V55C33 55.5523 32.5523 56 32 56C31.4477 56 31 55.5523 31 55V9Z" fill="#212121"/>
<path d="M9.47158 5.70242C9.85949 5.30929 9.85526 4.67614 9.46214 4.28823C9.06901 3.90033 8.43586 3.90455 8.04795 4.29768L6.28819 6.08109C5.90028 6.47422 5.90451 7.10737 6.29763 7.49528C6.69075 7.88319 7.3239 7.87896 7.71181 7.48584L9.47158 5.70242Z" fill="#212121"/>
<path fill-rule="evenodd" clip-rule="evenodd" d="M10.5703 10.1358C10.5703 9.58487 11.017 9.13823 11.5679 9.13823H12.1657C13.8907 9.13823 15.2891 10.5366 15.2891 12.2616C15.2891 13.9865 13.8907 15.3849 12.1657 15.3849H11.5679C11.017 15.3849 10.5703 14.9382 10.5703 14.3873V10.1358ZM12.0703 10.6382V13.8849H12.1657C13.0623 13.8849 13.7891 13.1581 13.7891 12.2616C13.7891 11.365 13.0623 10.6382 12.1657 10.6382H12.0703Z" fill="#212121"/>
<path fill-rule="evenodd" clip-rule="evenodd" d="M11.0456 5.15966C11.2306 4.98741 11.4741 4.89165 11.7269 4.89165H17.3828C17.9351 4.89165 18.3828 5.33936 18.3828 5.89165V18.1973C18.3828 18.7496 17.9351 19.1973 17.3828 19.1973H7.88086C7.32857 19.1973 6.88086 18.7496 6.88086 18.1973V9.47149C6.88086 9.19383 6.9963 8.92867 7.19954 8.7395L11.0456 5.15966ZM12.1203 6.89165L8.88086 9.90685V17.1973H16.3828V6.89165H12.1203Z" fill="#212121"/>
<path fill-rule="evenodd" clip-rule="evenodd" d="M48.2135 14.3723C46.1502 11.6944 47.2248 9.01963 49.0996 7.14589C51.9299 4.31732 59.1246 4.87842 59.1246 4.87842C59.1246 4.87842 59.6805 12.0742 56.8503 14.9027C54.9762 16.7756 52.3025 17.8482 49.6276 15.7866L48.7969 16.6174C48.4064 17.008 47.7732 17.008 47.3827 16.6174C46.9922 16.2269 46.9922 15.5937 47.3827 15.2032L48.2135 14.3723ZM55.4366 13.4879C54.6023 14.3217 53.7292 14.7969 52.9516 14.8897C52.4422 14.9505 51.8082 14.8693 51.0582 14.3559L53.9995 11.4142C54.39 11.0236 54.39 10.3904 53.9995 9.99988C53.609 9.60934 52.9759 9.60935 52.5854 9.9999L49.6441 12.9415C49.1297 12.1899 49.0487 11.5549 49.1099 11.0449C49.2032 10.2673 49.679 9.39447 50.5133 8.56067C50.912 8.1622 51.5633 7.79491 52.4727 7.50224C53.3655 7.2149 54.3796 7.03999 55.3707 6.94179C56.0156 6.87787 56.6294 6.84846 57.1638 6.83799C57.153 7.37239 57.1231 7.98623 57.0588 8.63124C56.9599 9.62229 56.7843 10.6364 56.4963 11.5291C56.203 12.4384 55.8353 13.0895 55.4366 13.4879Z" fill="#212121"/>
</svg>
