<svg width="64" height="64" viewBox="0 0 64 64" fill="none" xmlns="http://www.w3.org/2000/svg">
<path fill-rule="evenodd" clip-rule="evenodd" d="M18.918 15.5672H10.7441L8.92192 56.5672H20.7402L18.918 15.5672ZM10.7441 13.5672C9.6741 13.5672 8.79362 14.4095 8.74611 15.4784L6.92389 56.4784C6.8733 57.6167 7.78249 58.5672 8.92192 58.5672H20.7402C21.8796 58.5672 22.7888 57.6167 22.7382 56.4784L20.916 15.4784C20.8685 14.4095 19.988 13.5672 18.918 13.5672H10.7441Z" fill="#0B0D0E"/>
<path fill-rule="evenodd" clip-rule="evenodd" d="M19.5303 28.5672L20.8303 58.5672H49.2854C50.4073 58.5672 51.3098 57.6445 51.2849 56.5229L50.8652 37.6086C50.8451 36.7003 50.2153 35.9197 49.3318 35.708L19.5303 28.5672ZM21.6432 31.1301L22.7455 56.5672H49.2854L48.8657 37.6529L21.6432 31.1301Z" fill="#0B0D0E"/>
<path fill-rule="evenodd" clip-rule="evenodd" d="M28.8311 42.1669V46.1669H32.8311V42.1669H28.8311ZM27.8311 40.1669C27.2788 40.1669 26.8311 40.6146 26.8311 41.1669V47.1669C26.8311 47.7191 27.2788 48.1669 27.8311 48.1669H33.8311C34.3833 48.1669 34.8311 47.7191 34.8311 47.1669V41.1669C34.8311 40.6146 34.3833 40.1669 33.8311 40.1669H27.8311Z" fill="#0B0D0E"/>
<path fill-rule="evenodd" clip-rule="evenodd" d="M38.8311 42.1669V46.1669H42.8311V42.1669H38.8311ZM37.8311 40.1669C37.2788 40.1669 36.8311 40.6146 36.8311 41.1669V47.1669C36.8311 47.7191 37.2788 48.1669 37.8311 48.1669H43.8311C44.3833 48.1669 44.8311 47.7191 44.8311 47.1669V41.1669C44.8311 40.6146 44.3833 40.1669 43.8311 40.1669H37.8311Z" fill="#0B0D0E"/>
<path fill-rule="evenodd" clip-rule="evenodd" d="M50.7828 16.0566C51.5604 15.9638 52.4335 15.4886 53.2678 14.6548C53.6665 14.2563 54.0342 13.6052 54.3275 12.696C54.6154 11.8032 54.791 10.7891 54.8899 9.7981C54.9543 9.15309 54.9841 8.53925 54.995 8.00485C54.4606 8.01532 53.8468 8.04473 53.2018 8.10864C52.2108 8.20685 51.1967 8.38176 50.3039 8.66909C49.3944 8.96177 48.7432 9.32905 48.3445 9.72752C47.5101 10.5613 47.0344 11.4342 46.9411 12.2118C46.8601 12.8869 47.0282 13.781 48.121 14.8746C49.2138 15.9683 50.1077 16.1371 50.7828 16.0566ZM46.7064 16.2884C49.6249 19.2093 52.6315 18.1182 54.6814 16.0696C57.5117 13.241 56.9557 6.04527 56.9557 6.04527C56.9557 6.04527 49.7611 5.48417 46.9308 8.31274C44.8809 10.3614 43.7878 13.3675 46.7064 16.2884Z" fill="#0B0D0E"/>
<path fill-rule="evenodd" clip-rule="evenodd" d="M51.8301 11.1668C52.2206 11.5573 52.2206 12.1905 51.8301 12.5811L46.6275 17.7843C46.237 18.1749 45.6038 18.1749 45.2133 17.7844C44.8228 17.3938 44.8228 16.7606 45.2133 16.3701L50.416 11.1668C50.8065 10.7763 51.4396 10.7763 51.8301 11.1668Z" fill="#0B0D0E"/>
</svg>
