<svg width="64" height="64" viewBox="0 0 64 64" fill="none" xmlns="http://www.w3.org/2000/svg">
<path fill-rule="evenodd" clip-rule="evenodd" d="M49.6274 15.785C52.3024 17.8466 54.9762 16.7741 56.8503 14.9014C59.6805 12.0731 59.1246 4.87803 59.1246 4.87803C59.1246 4.87803 51.9299 4.31699 49.0996 7.14528C47.2248 9.01877 46.1503 11.6931 48.2133 14.3707L47.3817 15.2023C46.9912 15.5928 46.9912 16.226 47.3817 16.6165C47.7723 17.007 48.4054 17.007 48.7959 16.6165L49.6274 15.785ZM52.9516 14.8882C53.7292 14.7955 54.6022 14.3204 55.4365 13.4867C55.8352 13.0882 56.2029 12.4372 56.4962 11.528C56.7842 10.6354 56.9598 9.62142 57.0587 8.63048C57.123 7.98558 57.1529 7.37184 57.1637 6.83751C56.6294 6.84799 56.0156 6.87739 55.3707 6.9413C54.3797 7.03949 53.3655 7.21438 52.4727 7.50169C51.5633 7.79433 50.9121 8.16157 50.5134 8.55999C49.6791 9.3937 49.2033 10.2664 49.11 11.0439C49.0488 11.5538 49.1298 12.1886 49.644 12.94L52.5844 9.99952C52.9749 9.60899 53.6081 9.60899 53.9986 9.99951C54.3891 10.39 54.3891 11.0232 53.9986 11.4137L51.058 14.3544C51.8081 14.8678 52.4422 14.949 52.9516 14.8882Z" fill="#212121"/>
<path fill-rule="evenodd" clip-rule="evenodd" d="M43.3274 26.7335C43.6507 27.1286 43.7911 27.5836 43.783 28.0262C44.3696 28.122 44.89 28.476 45.1926 29.0005L49.3162 36.148C49.4126 36.3151 49.5326 36.4674 49.6726 36.6001L54.3759 41.0584C54.7743 41.4361 55 41.9609 55 42.5099V47C55 48.1046 54.1046 49 53 49L52 49C52 51.7614 49.7614 54 47 54C44.2386 54 42 51.7614 42 49H24C24 51.7614 21.7614 54 19 54C16.2386 54 14 51.7614 14 49H13C11.8954 49 11 48.1046 11 47V20C11 18.8954 11.8954 18 13 18H37C38.1046 18 39 18.8954 39 20V22.5989C39.558 22.5938 40.1262 22.8209 40.5479 23.3363L43.3274 26.7335ZM13 20H37V47H23.584C22.8124 45.2341 21.0503 44 19 44C16.9497 44 15.1876 45.2341 14.416 47H13V20ZM44.7639 47C44.2889 47.5307 44 48.2316 44 49C44 50.6568 45.3431 52 47 52C48.6569 52 50 50.6568 50 49C50 48.2316 49.7111 47.5307 49.2361 47C48.6868 46.3862 47.8885 46 47 46C46.1115 46 45.3132 46.3862 44.7639 47ZM51.584 47C50.8124 45.2341 49.0503 44 47 44C44.9497 44 43.1876 45.2341 42.416 47H39V30H41V39H49.2972L51.8162 41.3878C51.3212 41.7519 51 42.3384 51 43C51 44.1046 51.8954 45 53 45V47H51.584ZM43.4603 30L47.4987 37H43V30H43.4603ZM16.7639 47C16.2889 47.5307 16 48.2316 16 49C16 50.6568 17.3431 52 19 52C20.6569 52 22 50.6568 22 49C22 48.2316 21.7111 47.5307 21.2361 47C20.6868 46.3862 19.8885 46 19 46C18.1115 46 17.3132 46.3862 16.7639 47ZM41.7795 28H39V24.6028L41.7795 28Z" fill="#212121"/>
</svg>
