<svg width="64" height="64" viewBox="0 0 64 64" fill="none" xmlns="http://www.w3.org/2000/svg">
<path fill-rule="evenodd" clip-rule="evenodd" d="M51.4469 13.9469C54.1219 16.0088 56.7957 14.9362 58.6698 13.0632C61.5001 10.2347 60.9442 3.03892 60.9442 3.03892C60.9442 3.03892 53.7495 2.47783 50.9192 5.3064C49.0444 7.18006 47.9699 9.85468 50.0329 12.5325L49.2017 13.3637C48.8112 13.7543 48.8112 14.3875 49.2017 14.778C49.5922 15.1686 50.2254 15.1685 50.6159 14.778L51.4469 13.9469ZM54.7712 13.0502C55.5488 12.9575 56.4219 12.4823 57.2562 11.6485C57.6549 11.25 58.0226 10.5989 58.3159 9.68961C58.6038 8.7969 58.7795 7.78279 58.8783 6.79175C58.9427 6.14674 58.9726 5.5329 58.9834 4.9985C58.449 5.00897 57.8352 5.03838 57.1903 5.1023C56.1992 5.2005 55.1851 5.37541 54.2923 5.66275C53.3829 5.95542 52.7316 6.3227 52.3329 6.72118C51.4986 7.55498 51.0228 8.42781 50.9295 9.20542C50.8683 9.71537 50.9493 10.3502 51.4635 11.1017L54.4044 8.16046C54.7949 7.76992 55.428 7.76991 55.8185 8.16045C56.209 8.55099 56.2091 9.18419 55.8186 9.57474L52.8775 12.5162C53.6276 13.0298 54.2617 13.111 54.7712 13.0502Z" fill="#0B0D0E"/>
<path fill-rule="evenodd" clip-rule="evenodd" d="M17.6567 48.1935C17.6567 47.5308 18.1939 46.9935 18.8567 46.9935H36.783C37.4458 46.9935 37.983 47.5308 37.983 48.1935L37.983 51.4433C37.983 52.106 37.4458 52.6433 36.783 52.6433H18.8567C18.1939 52.6433 17.6567 52.106 17.6567 51.4433L17.6567 48.1935ZM19.6567 48.9935L19.6567 50.6433H35.983L35.983 48.9935H19.6567Z" fill="#0B0D0E"/>
<path fill-rule="evenodd" clip-rule="evenodd" d="M34.0623 42.5521H48.3848C49.5931 42.5521 50.0438 44.1363 49.0165 44.7724L42.3113 48.9239V50.713L49.0165 54.8645C50.0438 55.5006 49.5931 57.0848 48.3848 57.0848L7.25585 57.0848C6.04758 57.0848 5.59683 55.5005 6.62415 54.8645L13.3294 50.713L13.3294 48.9239L6.62413 44.7724C5.59682 44.1363 6.04756 42.5521 7.25583 42.5521L21.5732 42.5521L26.0857 34.7362L26.0896 34.7296C24.4337 34.049 23.2677 32.4201 23.2677 30.5188C23.2677 29.9665 23.7154 29.5188 24.2677 29.5188C24.82 29.5188 25.2677 29.9665 25.2677 30.5188C25.2677 31.9275 26.4097 33.0694 27.8183 33.0694C29.227 33.0694 30.369 31.9275 30.369 30.5188C30.369 29.6121 29.8965 28.815 29.1797 28.3613C28.6704 28.039 28.1012 27.6141 27.6509 27.0784C27.1966 26.538 26.8183 25.8286 26.8183 24.9682V24.8979C26.5498 24.8032 26.2917 24.6691 26.0528 24.4955L23.7032 22.7884C22.6517 22.0245 22.2117 20.6704 22.6133 19.4343L23.5108 16.6721C23.6721 16.1757 23.9544 15.7437 24.3187 15.4044L24.3187 11.2313L17.8185 11.2313C16.7139 11.2313 15.8185 10.3359 15.8185 9.2313V7.2313C15.8185 6.12673 16.7139 5.2313 17.8185 5.2313L37.8185 5.2313C38.9231 5.2313 39.8185 6.12673 39.8185 7.2313V9.2313C39.8185 10.3359 38.9231 11.2313 37.8185 11.2313L31.3187 11.2313L31.3187 15.4091C31.6805 15.7477 31.961 16.178 32.1215 16.6721L33.019 19.4343C33.4206 20.6704 32.9807 22.0245 31.9292 22.7884L29.5795 24.4955C29.3419 24.6682 29.0854 24.8018 28.8183 24.8964V24.9682C28.8183 25.2123 28.9214 25.4817 29.1818 25.7915C29.4462 26.106 29.825 26.4029 30.2491 26.6713C31.5209 27.4761 32.369 28.8981 32.369 30.5188C32.369 32.4204 31.2026 34.0496 29.5462 34.7299L29.5498 34.7362L34.0623 42.5521ZM10.0676 44.5521L14.7611 47.458C15.1144 47.6768 15.3294 48.0627 15.3294 48.4783L15.3294 51.1586C15.3294 51.5741 15.1144 51.9601 14.7611 52.1789L10.0677 55.0848L45.573 55.0848L40.8796 52.1789C40.5263 51.9601 40.3113 51.5741 40.3113 51.1586V48.4783C40.3113 48.0627 40.5263 47.6768 40.8796 47.458L45.573 44.5521L10.0676 44.5521ZM31.7529 42.5521L27.8178 35.7362L23.8826 42.5521L31.7529 42.5521ZM29.3187 9.23081C29.3336 9.23081 29.3485 9.23098 29.3633 9.2313L37.8185 9.2313V7.2313L17.8185 7.2313V9.2313L26.274 9.2313C26.2889 9.23098 26.3038 9.23081 26.3187 9.23081H29.3187ZM29.3187 11.2313L26.3187 11.2313V14.5995C26.3338 14.5993 26.3489 14.5992 26.364 14.5992H29.2684C29.2852 14.5992 29.3019 14.5993 29.3187 14.5996V11.2313ZM28.8183 22.5764V20.0056C28.8183 19.4533 28.3706 19.0056 27.8183 19.0056C27.2661 19.0056 26.8183 19.4533 26.8183 20.0056V22.5796L24.8787 21.1704C24.5282 20.9157 24.3816 20.4644 24.5155 20.0523L25.413 17.2902C25.5468 16.8781 25.9308 16.5992 26.364 16.5992H29.2683C29.7016 16.5992 30.0855 16.8781 30.2194 17.2902L31.1169 20.0523C31.2508 20.4644 31.1041 20.9157 30.7536 21.1704L28.8183 22.5764Z" fill="#0B0D0E"/>
</svg>
