<svg width="64" height="64" viewBox="0 0 64 64" fill="none" xmlns="http://www.w3.org/2000/svg">
<path fill-rule="evenodd" clip-rule="evenodd" d="M49.6274 15.785C52.3024 17.8466 54.9762 16.7741 56.8503 14.9014C59.6805 12.0731 59.1246 4.87803 59.1246 4.87803C59.1246 4.87803 51.9299 4.31699 49.0996 7.14528C47.2248 9.01877 46.1503 11.6931 48.2133 14.3707L47.3817 15.2023C46.9912 15.5928 46.9912 16.226 47.3817 16.6165C47.7723 17.007 48.4054 17.007 48.7959 16.6165L49.6274 15.785ZM52.9516 14.8882C53.7292 14.7955 54.6022 14.3204 55.4365 13.4867C55.8352 13.0882 56.2029 12.4372 56.4962 11.528C56.7842 10.6354 56.9598 9.62142 57.0587 8.63048C57.123 7.98558 57.1529 7.37184 57.1637 6.83751C56.6294 6.84799 56.0156 6.87739 55.3707 6.9413C54.3797 7.03949 53.3655 7.21438 52.4727 7.50169C51.5633 7.79433 50.9121 8.16157 50.5134 8.55999C49.6791 9.3937 49.2033 10.2664 49.11 11.0439C49.0488 11.5538 49.1298 12.1886 49.644 12.94L52.5844 9.99952C52.9749 9.60899 53.6081 9.60899 53.9986 9.99951C54.3891 10.39 54.3891 11.0232 53.9986 11.4137L51.058 14.3544C51.8081 14.8678 52.4422 14.949 52.9516 14.8882Z" fill="#212121"/>
<path fill-rule="evenodd" clip-rule="evenodd" d="M19.5 49C20.8807 49 22 47.8807 22 46.5C22 45.1193 20.8807 44 19.5 44C18.1193 44 17 45.1193 17 46.5C17 47.8807 18.1193 49 19.5 49ZM19.5 47C19.7761 47 20 46.7761 20 46.5C20 46.2238 19.7761 46 19.5 46C19.2239 46 19 46.2238 19 46.5C19 46.7761 19.2239 47 19.5 47Z" fill="#212121"/>
<path fill-rule="evenodd" clip-rule="evenodd" d="M45 46.5C45 47.8807 43.8807 49 42.5 49C41.1193 49 40 47.8807 40 46.5C40 45.1193 41.1193 44 42.5 44C43.8807 44 45 45.1193 45 46.5ZM43 46.5C43 46.7761 42.7761 47 42.5 47C42.2239 47 42 46.7761 42 46.5C42 46.2238 42.2239 46 42.5 46C42.7761 46 43 46.2238 43 46.5Z" fill="#212121"/>
<path fill-rule="evenodd" clip-rule="evenodd" d="M13 12C11.8954 12 11 12.8954 11 14V39C11 39.7532 11.4163 40.4091 12.0314 40.7502C12.0109 40.8301 12 40.9138 12 41V44C12 44.7575 12.4212 45.4167 13.0421 45.7561C13.0143 46.0002 13 46.2484 13 46.5C13 50.0898 15.9101 53 19.5 53C23.0899 53 26 50.0898 26 46.5C26 46.3318 25.9936 46.165 25.9811 46H36.0189C36.0064 46.165 36 46.3318 36 46.5C36 50.0898 38.9101 53 42.5 53C46.0899 53 49 50.0898 49 46.5C49 46.3318 48.9936 46.165 48.9811 46H51C52.1046 46 53 45.1046 53 44V35.1428C53 34.9533 52.9731 34.7648 52.92 34.5828L49.67 23.44C49.4211 22.5867 48.6389 22 47.75 22H39.5V20.3927C39.5 19.8879 39.3091 19.4017 38.9656 19.0318L33.0295 12.6391C32.6511 12.2316 32.1201 12 31.5639 12H13ZM51 38C49.8954 38 49 38.8954 49 40C49 41.1046 49.8954 42 51 42V44H48.5018C47.5223 41.651 45.2039 40 42.5 40C39.796 40 37.4777 41.651 36.4982 44H25.5018C24.9838 42.7578 24.0915 41.7109 22.9657 41H37.5C38.6046 41 39.5 40.1046 39.5 39V24H47.75L48.1875 25.5H43V36H51V38ZM14 43.0343C14.5179 42.2141 15.2142 41.5179 16.0343 41H14V43.0343ZM45 27.5H48.7708L50.6667 34H45V27.5ZM37.5 20.3927L31.5639 14H13V39H37.5V20.3927ZM24 46.5C24 48.9853 21.9853 51 19.5 51C17.0147 51 15 48.9853 15 46.5C15 44.0147 17.0147 42 19.5 42C21.9853 42 24 44.0147 24 46.5ZM42.5 51C44.9853 51 47 48.9853 47 46.5C47 44.0147 44.9853 42 42.5 42C40.0147 42 38 44.0147 38 46.5C38 48.9853 40.0147 51 42.5 51Z" fill="#212121"/>
</svg>
