<svg width="64" height="64" viewBox="0 0 64 64" fill="none" xmlns="http://www.w3.org/2000/svg">
<path fill-rule="evenodd" clip-rule="evenodd" d="M50.6277 14.7852C53.3027 16.8466 55.9764 15.7741 57.8504 13.9014C60.6807 11.0731 60.1247 3.87803 60.1247 3.87803C60.1247 3.87803 52.9301 3.31699 50.0998 6.14528C48.2249 8.01882 47.1504 10.6933 49.2136 13.3709L48.3823 14.2023C47.9917 14.5928 47.9917 15.226 48.3823 15.6165C48.7728 16.007 49.406 16.007 49.7965 15.6165L50.6277 14.7852ZM53.9518 13.8882C54.7293 13.7955 55.6024 13.3204 56.4367 12.4867C56.8354 12.0882 57.2031 11.4372 57.4964 10.528C57.7843 9.63542 57.9599 8.62142 58.0588 7.63048C58.1232 6.98558 58.153 6.37184 58.1639 5.83751C57.6295 5.84799 57.0158 5.87739 56.3708 5.9413C55.3798 6.03949 54.3657 6.21438 53.4729 6.50169C52.5635 6.79433 51.9122 7.16157 51.5135 7.55999C50.6792 8.3937 50.2035 9.26643 50.1102 10.0439C50.049 10.5539 50.1299 11.1887 50.6443 11.9402L53.5849 8.99951C53.9754 8.60898 54.6086 8.60898 54.9991 8.9995C55.3897 9.39002 55.3897 10.0232 54.9991 10.4137L52.0584 13.3545C52.8084 13.8678 53.4424 13.949 53.9518 13.8882Z" fill="#0B0D0E"/>
<path fill-rule="evenodd" clip-rule="evenodd" d="M12.1881 10.7412C12.3311 10.2077 12.8794 9.89113 13.4129 10.0341L31.7441 14.9459L45.73 11.0369C46.2619 10.8882 46.8136 11.1989 46.9623 11.7308C47.1109 12.2627 46.8003 12.8144 46.2684 12.9631L35.5375 15.9623L51.567 20.2574C52.1004 20.4004 52.417 20.9487 52.2741 21.4822C52.1311 22.0156 51.5828 22.3322 51.0493 22.1893L33.1541 17.3943V19H34.1541C36.3632 19 38.1541 20.7909 38.1541 23H39.2909C43.2395 23 46.5975 25.8809 47.1979 29.7835L48.7364 39.7835C49.332 43.6548 47.059 47.2225 43.621 48.5012L45.7203 52H46.1543C46.7066 52 47.1543 52.4477 47.1543 53C47.1543 53.5523 46.7066 54 46.1543 54H45.1723L45.1552 54.0002L45.1377 54H43.1543C42.602 54 42.1543 53.5523 42.1543 53C42.1543 52.4477 42.602 52 43.1543 52H43.3879L41.5678 48.9666C41.325 48.9887 41.0787 49 40.8294 49H23.4792C23.2298 49 22.9833 48.9887 22.7403 48.9666L20.9203 52H21.1543C21.7066 52 22.1543 52.4477 22.1543 53C22.1543 53.5523 21.7066 54 21.1543 54H19.1704L19.1501 54.0001L19.1358 54H18.1543C17.602 54 17.1543 53.5523 17.1543 53C17.1543 52.4477 17.602 52 18.1543 52H18.5879L20.6872 48.5011C17.2494 47.2223 14.9766 43.6547 15.5722 39.7835L17.1107 29.7835C17.7111 25.8809 21.0691 23 25.0176 23H26.1541C26.1541 20.7909 27.9449 19 30.1541 19H31.1541V17.1875L13.2686 22.1864C12.7367 22.3351 12.185 22.0244 12.0363 21.4925C11.8876 20.9606 12.1983 20.4089 12.7302 20.2603L27.9619 16.003L12.8952 11.9659C12.3618 11.823 12.0452 11.2746 12.1881 10.7412ZM30.1541 21C29.0495 21 28.1541 21.8954 28.1541 23H36.1541C36.1541 21.8954 35.2586 21 34.1541 21H30.1541ZM25.0176 25H39.2909C41.0525 25 42.6573 25.7645 43.7633 27H20.5452C21.6513 25.7645 23.2561 25 25.0176 25ZM19.0874 30.0877C19.1453 29.7115 19.2373 29.3479 19.3601 29H44.9485C45.0713 29.3479 45.1633 29.7115 45.2212 30.0877L46.4384 38H17.8701L19.0874 30.0877ZM17.5624 40L17.549 40.0877C16.9898 43.7222 19.8019 47 23.4792 47H40.8294C44.5067 47 47.3188 43.7222 46.7596 40.0877L46.7461 40H17.5624Z" fill="#0B0D0E"/>
</svg>
