<svg width="64" height="64" viewBox="0 0 64 64" fill="none" xmlns="http://www.w3.org/2000/svg">
<path fill-rule="evenodd" clip-rule="evenodd" d="M16.1135 15C15.5612 15 15.1135 15.4477 15.1135 16V22.395C15.1135 22.4648 15.1062 22.5344 15.0917 22.6027L8.25656 54.7923C8.12448 55.4143 8.59887 56 9.23475 56H43.7331C43.7927 56 43.8508 55.9949 43.9071 55.9851C43.9634 55.9949 44.0211 56 44.0798 56H53.9999C54.5522 56 54.9999 55.5523 54.9999 55V36C54.9999 35.4477 54.5522 35 53.9999 35H50V23C50 22.4477 49.5523 22 49 22H44C43.4477 22 43 22.4477 43 23V35H39.9836L37.025 22.6146C37.0068 22.5384 36.9976 22.4605 36.9976 22.3822V16C36.9976 15.4477 36.5499 15 35.9976 15H16.1135ZM17.1135 17V22.395C17.1135 22.6044 17.0915 22.8133 17.048 23.0181L10.4694 54H42.4661L35.0797 23.0792C35.0252 22.8509 34.9976 22.617 34.9976 22.3822V17H17.1135ZM45 35H48V24H45V35ZM40.5675 37L44.8587 54H52.9999V37H40.5675Z" fill="#212121"/>
<path fill-rule="evenodd" clip-rule="evenodd" d="M24.5944 43.4531C26.4501 44.3986 28.0369 43.4662 29.0694 42.104C30.6919 39.9634 29.686 35.1979 29.686 35.1979C29.686 35.1979 24.8745 35.4534 23.252 37.594C22.2438 38.9242 21.7642 40.6642 23.0317 42.2041L22.2603 43.2149C21.9253 43.6539 22.0066 44.2853 22.442 44.6252C22.8773 44.965 23.5019 44.8846 23.8369 44.4456L24.5944 43.4531ZM26.3249 41.7967C26.6416 41.7152 27.064 41.439 27.4887 40.8786C27.6306 40.6915 27.789 40.3369 27.8925 39.7585C27.993 39.1974 28.0193 38.5537 27.9978 37.9102C27.9926 37.7551 27.9848 37.6029 27.975 37.4553C27.8315 37.4841 27.6842 37.5159 27.5347 37.5512C26.9147 37.6974 26.307 37.8903 25.7973 38.1341C25.2719 38.3855 24.9745 38.6323 24.8326 38.8194C24.4079 39.3798 24.2539 39.8641 24.2584 40.1945C24.2595 40.2788 24.2701 40.3876 24.3183 40.5183L24.6613 40.0689C24.9963 39.6299 25.6209 39.5495 26.0562 39.8894C26.4916 40.2292 26.5729 40.8606 26.2379 41.2996L25.8569 41.7988C26.0658 41.8466 26.218 41.8242 26.3249 41.7967Z" fill="#212121"/>
<path fill-rule="evenodd" clip-rule="evenodd" d="M30 29C30.5523 29 31 28.5523 31 28C31 27.4477 30.5523 27 30 27H22C21.4477 27 21 27.4477 21 28C21 28.5523 21.4477 29 22 29V31H20.2675C19.0152 31 18 32.0152 18 33.2675V46.7325C18 47.9848 18.0152 49 20.2675 49H31.7325C32.9848 49 34 47.9848 34 46.7325V33.2675C34 32.0152 32.9848 31 31.7325 31H30V29ZM28 29H24V31H28V29ZM31.7325 33H20.2675C19.1198 33 20 33.1198 20 33.2675V46.7325C20 46.8802 19.1198 47 20.2675 47H31.7325C31.8802 47 32 46.8802 32 46.7325V33.2675C32 33.1198 31.8802 33 31.7325 33Z" fill="#212121"/>
<path fill-rule="evenodd" clip-rule="evenodd" d="M49.356 8.94236L52.7931 3.00526L54.524 4.00729L51.0869 9.94439C51.0483 10.0111 51.0964 10.0945 51.1734 10.0945H52.9369C52.9833 10.0945 53.0287 10.0976 53.0732 10.1036C53.1439 10.1132 53.212 10.1301 53.2768 10.1534C53.5042 10.2354 53.6911 10.3972 53.8073 10.6018C53.9223 10.8042 53.9681 11.0486 53.9158 11.2992L53.2079 14.6846C53.1619 14.9045 53.4577 15.0214 53.5745 14.8295L57.1975 8.87964C57.2381 8.813 57.1902 8.72763 57.1121 8.72763H55.2424C55.2321 8.72763 55.2219 8.72748 55.2117 8.72717C55.1282 8.72468 55.0476 8.71206 54.971 8.69059C54.7208 8.62044 54.5129 8.45581 54.384 8.24088C54.2638 8.04045 54.2123 7.79628 54.2594 7.54424L54.8937 4.14417C54.9349 3.92323 54.6366 3.81278 54.524 4.00729L52.7931 3.00526C54.0318 0.865629 57.3131 2.08062 56.8597 4.51095L56.4462 6.72763H57.1121C58.7506 6.72763 59.7579 8.52039 58.9058 9.91982L55.2827 15.8697C53.9973 17.9808 50.7444 16.6946 51.2503 14.2753L51.7062 12.0945H51.1734C49.5553 12.0945 48.5457 10.342 49.356 8.94236Z" fill="#212121"/>
</svg>
