<svg width="64" height="64" viewBox="0 0 64 64" fill="none" xmlns="http://www.w3.org/2000/svg">
<path d="M19.7597 24.6474L19.0805 27.5224C19.0555 27.628 19.0548 27.7379 19.0784 27.8439C19.102 27.9499 19.1493 28.0491 19.2167 28.1342C19.284 28.2192 19.3699 28.2879 19.4676 28.3351C19.5654 28.3822 19.6726 28.4066 19.7812 28.4064H21.287L21.1289 29.1252C20.3821 29.1485 19.6736 29.4617 19.1537 29.9984C18.6338 30.535 18.3434 31.253 18.3438 32.0002V37.0314C18.3438 37.7939 18.6467 38.5252 19.1858 39.0644C19.725 39.6035 20.4563 39.9064 21.2188 39.9064V40.4203C21.2225 40.687 21.2787 40.9503 21.3843 41.1952C21.4898 41.4401 21.6425 41.6619 21.8337 41.8477C22.025 42.0336 22.2509 42.18 22.4987 42.2786C22.7465 42.3771 23.0113 42.4259 23.278 42.4221H24.9095C25.1762 42.4259 25.441 42.3771 25.6888 42.2786C25.9366 42.18 26.1625 42.0336 26.3538 41.8477C26.545 41.6619 26.6976 41.4401 26.8032 41.1952C26.9088 40.9503 26.965 40.687 26.9687 40.4203V39.9064H37.0312V40.4203C37.035 40.687 37.0912 40.9503 37.1968 41.1952C37.3022 41.4401 37.4549 41.6619 37.6461 41.8477C37.8374 42.0336 38.0633 42.18 38.3111 42.2786C38.559 42.3771 38.8237 42.4259 39.0905 42.4221H40.722C40.9887 42.4259 41.2535 42.3771 41.5013 42.2786C41.7491 42.18 41.975 42.0336 42.1663 41.8477C42.3575 41.6619 42.5102 41.4401 42.6157 41.1952C42.7213 40.9503 42.7775 40.687 42.7812 40.4203V39.9064C43.5437 39.9064 44.275 39.6035 44.8142 39.0644C45.3533 38.5252 45.6562 37.7939 45.6562 37.0314V32.0002C45.6583 31.2736 45.3852 30.5732 44.8918 30.0398C44.3983 29.5065 43.7213 29.1797 42.9968 29.1252L42.8675 28.4064H44.578C44.6866 28.4066 44.7939 28.3822 44.8916 28.3351C44.9894 28.2879 45.0752 28.2192 45.1427 28.1342C45.2101 28.0491 45.2573 27.9499 45.2809 27.8439C45.3045 27.7379 45.3039 27.628 45.2789 27.5224L44.5997 24.6474C44.5624 24.4896 44.4728 24.3491 44.3456 24.2486C44.2185 24.1482 44.0609 24.0936 43.8988 24.0939H42.102V24.0508C41.9396 23.2695 41.5193 22.5655 40.9086 22.0519C40.2978 21.5383 39.5322 21.245 38.7346 21.2189H25.7397C24.9334 21.2489 24.1584 21.5382 23.5297 22.0439C22.901 22.5495 22.4523 23.2446 22.2502 24.0257V24.0939H20.4605C20.2984 24.0936 20.1409 24.1482 20.0137 24.2486C19.8865 24.3491 19.797 24.4896 19.7597 24.6474ZM25.5312 40.4203C25.5229 40.5773 25.4528 40.7247 25.3363 40.8303C25.2199 40.936 25.0666 40.9914 24.9095 40.9846H23.278C23.1209 40.9914 22.9675 40.936 22.8511 40.8303C22.7346 40.7247 22.6646 40.5773 22.6562 40.4203V39.9064H25.5312V40.4203ZM41.3437 40.4203C41.3354 40.5773 41.2654 40.7247 41.1488 40.8303C41.0324 40.936 40.8791 40.9914 40.722 40.9846H39.0905C38.9333 40.9914 38.78 40.936 38.6636 40.8303C38.5471 40.7247 38.4771 40.5773 38.4687 40.4203V39.9064H41.3437V40.4203ZM43.3311 25.5314L43.6688 26.9689H42.6158L42.3643 25.5314H43.3311ZM23.6517 24.3347C23.7851 23.8743 24.0571 23.4662 24.4307 23.1659C24.8043 22.8656 25.2614 22.6877 25.7397 22.6564H38.7346C39.1948 22.6801 39.6349 22.8532 39.9877 23.1496C40.3405 23.4461 40.587 23.8495 40.6897 24.2988L41.5378 29.1252H22.6023L23.6517 24.3347ZM42.7812 30.5627C43.1625 30.5627 43.528 30.7141 43.7976 30.9837C44.0672 31.2533 44.2187 31.6189 44.2187 32.0002V37.0314C44.2187 37.4127 44.0672 37.7783 43.7976 38.0479C43.528 38.3175 43.1625 38.4689 42.7812 38.4689H21.2188C20.8375 38.4689 20.4718 38.3175 20.2022 38.0479C19.9326 37.7783 19.7812 37.4127 19.7812 37.0314V32.0002C19.7812 31.6189 19.9326 31.2533 20.2022 30.9837C20.4718 30.7141 20.8375 30.5627 21.2188 30.5627H42.7812ZM21.0283 25.5314H21.9159L21.5997 26.9689H20.6905L21.0283 25.5314Z" fill="#0B0D0E"/>
<path d="M27.6875 35.2346H36.3125C36.5031 35.2346 36.6859 35.1588 36.8207 35.024C36.9555 34.8892 37.0312 34.7064 37.0312 34.5158C37.0312 34.3252 36.9555 34.1424 36.8207 34.0076C36.6859 33.8728 36.5031 33.7971 36.3125 33.7971H27.6875C27.4969 33.7971 27.314 33.8728 27.1792 34.0076C27.0444 34.1424 26.9688 34.3252 26.9688 34.5158C26.9688 34.7064 27.0444 34.8892 27.1792 35.024C27.314 35.1588 27.4969 35.2346 27.6875 35.2346Z" fill="#0B0D0E"/>
<path d="M23.375 36.6722C23.8015 36.6722 24.2184 36.5457 24.5729 36.3088C24.9275 36.0718 25.2039 35.7351 25.3671 35.3411C25.5303 34.9471 25.5729 34.5135 25.4897 34.0952C25.4065 33.677 25.2013 33.2928 24.8997 32.9912C24.5981 32.6897 24.2139 32.4843 23.7957 32.4011C23.3774 32.3179 22.9438 32.3606 22.5498 32.5238C22.1558 32.687 21.8191 32.9634 21.5821 33.318C21.3452 33.6726 21.2188 34.0894 21.2188 34.5159C21.2188 35.0878 21.4459 35.6362 21.8503 36.0406C22.2547 36.445 22.8031 36.6722 23.375 36.6722ZM23.375 33.7972C23.5172 33.7972 23.656 33.8393 23.7743 33.9183C23.8925 33.9973 23.9845 34.1095 24.0389 34.2409C24.0933 34.3722 24.1077 34.5166 24.0799 34.656C24.0522 34.7955 23.9838 34.9235 23.8832 35.024C23.7826 35.1246 23.6546 35.1931 23.5152 35.2208C23.3758 35.2486 23.2312 35.2342 23.0998 35.1798C22.9685 35.1254 22.8563 35.0334 22.7773 34.9152C22.6983 34.797 22.6562 34.6581 22.6562 34.5159C22.6562 34.3253 22.732 34.1425 22.8668 34.0077C23.0016 33.8729 23.1844 33.7972 23.375 33.7972Z" fill="#0B0D0E"/>
<path d="M40.625 36.6722C41.0515 36.6722 41.4683 36.5457 41.8228 36.3088C42.1774 36.0718 42.4539 35.7351 42.6171 35.3411C42.7803 34.9471 42.8229 34.5135 42.7397 34.0952C42.6565 33.677 42.4513 33.2928 42.1497 32.9912C41.8481 32.6897 41.4639 32.4843 41.0457 32.4011C40.6274 32.3179 40.1938 32.3606 39.7998 32.5238C39.4058 32.687 39.0691 32.9634 38.8321 33.318C38.5952 33.6726 38.4688 34.0894 38.4688 34.5159C38.4688 35.0878 38.6959 35.6362 39.1003 36.0406C39.5047 36.445 40.0531 36.6722 40.625 36.6722ZM40.625 33.7972C40.7672 33.7972 40.906 33.8393 41.0243 33.9183C41.1425 33.9973 41.2346 34.1095 41.289 34.2409C41.3434 34.3722 41.3576 34.5166 41.3298 34.656C41.3021 34.7955 41.2338 34.9235 41.1332 35.024C41.0327 35.1246 40.9046 35.1931 40.7652 35.2208C40.6258 35.2486 40.4812 35.2342 40.3498 35.1798C40.2185 35.1254 40.1064 35.0334 40.0274 34.9152C39.9484 34.797 39.9062 34.6581 39.9062 34.5159C39.9062 34.3253 39.9819 34.1425 40.1167 34.0077C40.2515 33.8729 40.4344 33.7972 40.625 33.7972Z" fill="#0B0D0E"/>
<path d="M10.5235 40.266C10.594 40.4452 10.7329 40.589 10.9094 40.6658C11.086 40.7426 11.2859 40.7462 11.4651 40.6757C11.6442 40.6051 11.7881 40.4662 11.8649 40.2896C11.9417 40.113 11.9453 39.9133 11.8747 39.7341L11.7526 39.4071C11.6863 39.2269 11.5512 39.0805 11.377 38.9999C11.2028 38.9194 11.0037 38.9114 10.8236 38.9776C10.6434 39.0439 10.497 39.1789 10.4164 39.3532C10.3359 39.5274 10.3279 39.7265 10.3941 39.9066L10.5235 40.266Z" fill="#0B0D0E"/>
<path d="M27.8456 54.6411C27.9404 54.6631 28.0386 54.6658 28.1344 54.6488C28.2302 54.6318 28.3215 54.5955 28.4029 54.5422C28.4843 54.4889 28.5539 54.4196 28.6077 54.3385C28.6615 54.2574 28.6983 54.1663 28.7158 54.0706C28.7334 53.9749 28.7313 53.8767 28.7097 53.7818C28.6882 53.6869 28.6476 53.5974 28.5904 53.5187C28.5332 53.44 28.4607 53.3737 28.3771 53.3239C28.2936 53.274 28.2008 53.2416 28.1044 53.2287L27.745 53.164C27.5616 53.135 27.3741 53.1782 27.2218 53.2844C27.0694 53.3906 26.9641 53.5516 26.9279 53.7337C26.8916 53.9158 26.9273 54.1049 27.0274 54.2613C27.1274 54.4177 27.2841 54.5293 27.4647 54.5728L27.8456 54.6411Z" fill="#0B0D0E"/>
<path d="M24.758 11.6415C24.8375 11.6414 24.9164 11.628 24.9916 11.602L25.3258 11.4906C25.5003 11.4263 25.6431 11.2969 25.7242 11.1296C25.8053 10.9622 25.8184 10.7699 25.7607 10.5932C25.703 10.4164 25.579 10.2688 25.4148 10.1815C25.2506 10.0942 25.059 10.0739 24.8801 10.125L24.5208 10.2436C24.3603 10.2991 24.2246 10.4097 24.1379 10.5557C24.0512 10.7017 24.0189 10.8737 24.0469 11.0412C24.0749 11.2088 24.1613 11.3609 24.2908 11.4708C24.4203 11.5807 24.5845 11.6412 24.7544 11.6415H24.758Z" fill="#0B0D0E"/>
<path d="M24.5928 53.782C24.7734 53.8435 24.9711 53.8307 25.1423 53.7465C25.3134 53.6622 25.4442 53.5134 25.5056 53.3328C25.5671 53.1522 25.5543 52.9546 25.4701 52.7834C25.3858 52.6122 25.237 52.4815 25.0564 52.42L24.7258 52.305C24.6368 52.2731 24.5425 52.2591 24.4481 52.2637C24.3537 52.2683 24.2612 52.2915 24.1757 52.3319C24.0903 52.3723 24.0137 52.4291 23.9502 52.4991C23.8867 52.5691 23.8376 52.6509 23.8058 52.7398C23.7739 52.8288 23.7599 52.9232 23.7645 53.0175C23.7691 53.1119 23.7923 53.2045 23.8327 53.2899C23.873 53.3753 23.9299 53.452 23.9999 53.5154C24.0699 53.5789 24.1517 53.628 24.2406 53.6598L24.5928 53.782Z" fill="#0B0D0E"/>
<path d="M22.1001 12.8382L22.4092 12.6801C22.4966 12.6399 22.5751 12.5826 22.64 12.5115C22.7049 12.4404 22.7549 12.357 22.7869 12.2662C22.8189 12.1755 22.8324 12.0792 22.8266 11.9831C22.8207 11.887 22.7956 11.7931 22.7527 11.7069C22.7099 11.6208 22.6502 11.5441 22.5771 11.4814C22.504 11.4187 22.4191 11.3714 22.3274 11.3421C22.2357 11.3129 22.1391 11.3024 22.0432 11.3112C21.9474 11.32 21.8543 11.348 21.7695 11.3935L21.4389 11.5624C21.3691 11.5997 21.3059 11.6483 21.252 11.7062C21.4339 12.0935 21.5806 12.4965 21.6904 12.9101C21.7167 12.9116 21.7431 12.9116 21.7695 12.9101C21.8838 12.9128 21.9972 12.8881 22.1001 12.8382Z" fill="#0B0D0E"/>
<path d="M52.7995 22.1748C52.7592 22.0894 52.7024 22.0127 52.6324 21.9492C52.5625 21.8858 52.4807 21.8367 52.3917 21.8048C52.3028 21.773 52.2085 21.7589 52.1141 21.7635C52.0197 21.7681 51.9272 21.7912 51.8418 21.8316C51.7564 21.8719 51.6797 21.9287 51.6163 21.9987C51.5528 22.0686 51.5037 22.1504 51.4718 22.2394C51.44 22.3283 51.4259 22.4226 51.4305 22.517C51.4351 22.6114 51.4582 22.7039 51.4986 22.7893L51.6459 23.1056C51.6851 23.1915 51.7408 23.2688 51.8099 23.3332C51.8789 23.3975 51.96 23.4477 52.0484 23.4807C52.1368 23.5137 52.2309 23.529 52.3253 23.5257C52.4196 23.5224 52.5124 23.5005 52.5983 23.4613C52.6842 23.4222 52.7615 23.3665 52.8259 23.2974C52.8902 23.2283 52.9404 23.1473 52.9734 23.0589C53.0064 22.9704 53.0217 22.8763 53.0184 22.782C53.0151 22.6877 52.9932 22.5949 52.9541 22.509L52.7995 22.1748Z" fill="#0B0D0E"/>
<path d="M9.55447 37.0313C9.59097 37.1934 9.68257 37.3379 9.81357 37.4401C9.94457 37.5423 10.1071 37.596 10.2732 37.5919C10.3258 37.5977 10.3788 37.5977 10.4313 37.5919C10.5237 37.5715 10.6111 37.533 10.6885 37.4788C10.766 37.4245 10.832 37.3556 10.8827 37.2758C10.9334 37.196 10.9679 37.107 10.9842 37.0139C11.0005 36.9207 10.9983 36.8253 10.9776 36.733C10.9524 36.618 10.9273 36.5066 10.9057 36.3916C10.8868 36.2991 10.8499 36.2112 10.7971 36.133C10.7442 36.0548 10.6765 35.9877 10.5978 35.9356C10.519 35.8836 10.4308 35.8475 10.3381 35.8296C10.2454 35.8116 10.1501 35.8121 10.0576 35.831C9.96507 35.8499 9.87717 35.8868 9.79897 35.9396C9.72067 35.9925 9.65367 36.0602 9.60157 36.1389C9.54957 36.2177 9.51347 36.3059 9.49557 36.3986C9.47757 36.4913 9.47807 36.5866 9.49697 36.6791C9.50057 36.7941 9.52567 36.9163 9.55447 37.0313Z" fill="#0B0D0E"/>
<path d="M54.0883 29.7614H54.1818C54.3704 29.7363 54.5413 29.6375 54.6572 29.4866C54.7731 29.3357 54.8244 29.1451 54.7999 28.9564C54.7831 28.8318 54.7651 28.712 54.746 28.597C54.7321 28.5026 54.6997 28.4119 54.6507 28.33C54.6017 28.2482 54.5371 28.1767 54.4605 28.1198C54.3839 28.0629 54.2969 28.0217 54.2043 27.9984C54.1118 27.9752 54.0156 27.9704 53.9212 27.9843C53.8268 27.9982 53.7361 28.0306 53.6542 28.0796C53.5724 28.1285 53.5009 28.1932 53.444 28.2698C53.3871 28.3463 53.3459 28.4334 53.3226 28.5259C53.2994 28.6184 53.2946 28.7147 53.3085 28.809C53.3253 28.924 53.342 29.0438 53.3588 29.1684C53.3889 29.3384 53.4792 29.4918 53.6132 29.6007C53.7471 29.7096 53.9158 29.7666 54.0883 29.7614Z" fill="#0B0D0E"/>
<path d="M9.08657 29.9877C9.08657 30.1123 9.07697 30.2321 9.05777 30.3471C9.04897 30.4421 9.05907 30.5379 9.08767 30.629C9.11627 30.72 9.16267 30.8045 9.22417 30.8774C9.28577 30.9503 9.36117 31.0103 9.44617 31.0537C9.53117 31.0972 9.62387 31.1233 9.71907 31.1305H9.76937C9.95157 31.1309 10.1272 31.0622 10.2607 30.9381C10.3941 30.814 10.4754 30.6438 10.4882 30.4621C10.4882 30.3471 10.4977 30.2273 10.5169 30.1027C10.5336 29.9121 10.4739 29.7226 10.3509 29.576C10.2279 29.4294 10.0517 29.3377 9.86107 29.321C9.67037 29.3044 9.48097 29.3641 9.33437 29.4871C9.18777 29.6101 9.09607 29.7863 9.07937 29.9769L9.08657 29.9877Z" fill="#0B0D0E"/>
<path d="M54.0113 25.3051C53.9556 25.1226 53.8296 24.9697 53.6611 24.88C53.4926 24.7904 53.2954 24.7714 53.1129 24.8271C52.9303 24.8829 52.7774 25.0089 52.6878 25.1773C52.5982 25.3458 52.5791 25.543 52.6349 25.7256C52.6684 25.8358 52.7008 25.9472 52.7319 26.0598C52.7839 26.2432 52.9066 26.3986 53.073 26.4916C53.2395 26.5846 53.4361 26.6077 53.6196 26.5557C53.8031 26.5038 53.9584 26.3811 54.0514 26.2146C54.1444 26.0481 54.1675 25.8515 54.1155 25.6681C54.082 25.5459 54.0472 25.4249 54.0113 25.3051Z" fill="#0B0D0E"/>
<path d="M9.61894 26.6742C9.59024 26.7964 9.56144 26.915 9.53634 27.0336C9.49534 27.2199 9.53004 27.4149 9.63284 27.5756C9.73554 27.7364 9.89804 27.8497 10.0843 27.8907C10.2706 27.9317 10.4656 27.8969 10.6264 27.7942C10.7871 27.6914 10.9004 27.529 10.9414 27.3426C10.9678 27.2276 10.9941 27.1078 11.0205 26.9833C11.0461 26.8901 11.0528 26.7928 11.04 26.697C11.0271 26.6013 10.9952 26.5091 10.9459 26.426C10.8967 26.3428 10.8312 26.2705 10.7534 26.2133C10.6756 26.156 10.587 26.1151 10.493 26.0928C10.399 26.0706 10.3014 26.0676 10.2062 26.0839C10.111 26.1002 10.02 26.1355 9.93884 26.1878C9.85754 26.24 9.78764 26.3081 9.73334 26.388C9.67904 26.4679 9.64134 26.5579 9.62254 26.6526L9.61894 26.6742Z" fill="#0B0D0E"/>
<path d="M9.06184 33.7144C9.07544 33.8955 9.15714 34.0648 9.29044 34.1881C9.42384 34.3115 9.59894 34.3797 9.78054 34.3792H9.83444C9.92864 34.3724 10.0205 34.3471 10.1049 34.3047C10.1892 34.2624 10.2644 34.2038 10.3262 34.1324C10.3879 34.061 10.435 33.9781 10.4647 33.8885C10.4944 33.7989 10.5061 33.7043 10.4993 33.6102C10.4993 33.4928 10.4921 33.373 10.4777 33.2508C10.4723 33.1564 10.4483 33.064 10.4072 32.9789C10.3661 32.8938 10.3086 32.8176 10.238 32.7547C10.1674 32.6918 10.0851 32.6434 9.99584 32.6123C9.90664 32.5812 9.81204 32.5679 9.71764 32.5734C9.62334 32.5788 9.53094 32.6028 9.44574 32.6439C9.36064 32.685 9.28444 32.7425 9.22154 32.8131C9.15864 32.8837 9.11024 32.966 9.07914 33.0552C9.04804 33.1445 9.03484 33.2391 9.04024 33.3334C9.04744 33.4652 9.05464 33.5922 9.06184 33.7144Z" fill="#0B0D0E"/>
<path d="M12.1959 21.7544C12.3137 21.8199 12.4479 21.8499 12.5824 21.841C12.7169 21.8321 12.846 21.7845 12.9541 21.7041C12.5741 21.6079 12.2027 21.4805 11.8438 21.3232C11.8708 21.4149 11.9159 21.5002 11.9764 21.5743C12.0369 21.6483 12.1114 21.7096 12.1959 21.7544Z" fill="#0B0D0E"/>
<path d="M11.5697 23.0697C11.3928 22.9988 11.1951 23.0009 11.0199 23.0757C10.8447 23.1505 10.7064 23.2918 10.6353 23.4686L10.4987 23.828C10.4555 23.9179 10.4314 24.0158 10.4281 24.1156C10.4248 24.2153 10.4422 24.3146 10.4794 24.4072C10.5166 24.4998 10.5726 24.5837 10.644 24.6534C10.7153 24.7232 10.8004 24.7773 10.8939 24.8124C10.9873 24.8475 11.087 24.8627 11.1866 24.8571C11.2863 24.8515 11.3836 24.8253 11.4726 24.78C11.5615 24.7347 11.64 24.6714 11.7031 24.5941C11.7663 24.5168 11.8126 24.4273 11.8392 24.3311L11.965 24.004C12.0361 23.8277 12.0344 23.6303 11.9603 23.4552C11.8862 23.2801 11.7457 23.1414 11.5697 23.0697Z" fill="#0B0D0E"/>
<path d="M37.3009 54.364C37.359 54.3638 37.4169 54.3566 37.4734 54.3424L37.8327 54.2526C37.9272 54.232 38.0165 54.1925 38.0954 54.1366C38.1742 54.0806 38.241 54.0093 38.2917 53.927C38.3423 53.8446 38.3759 53.7529 38.3902 53.6573C38.4046 53.5617 38.3996 53.4642 38.3754 53.3705C38.3512 53.2769 38.3084 53.1892 38.2495 53.1125C38.1906 53.0358 38.1168 52.9718 38.0326 52.9243C37.9484 52.8768 37.8554 52.8468 37.7593 52.8361C37.6633 52.8253 37.566 52.8341 37.4734 52.8618L37.132 52.948C36.9623 52.9905 36.814 53.0934 36.7147 53.2375C36.6155 53.3815 36.5722 53.5567 36.5929 53.7304C36.6136 53.9041 36.6969 54.0642 36.8273 54.1808C36.9576 54.2975 37.126 54.3626 37.3009 54.364Z" fill="#0B0D0E"/>
<path d="M54.7017 35.7164C54.7209 35.5942 54.7401 35.4744 54.7592 35.357C54.7729 35.2626 54.7679 35.1664 54.7444 35.0739C54.7209 34.9815 54.6795 34.8947 54.6224 34.8183C54.5653 34.7418 54.4938 34.6774 54.4118 34.6286C54.3299 34.5799 54.2391 34.5477 54.1447 34.534C54.0503 34.5204 53.9542 34.5254 53.8617 34.5489C53.7693 34.5723 53.6824 34.6138 53.6059 34.6709C53.5295 34.7279 53.4651 34.7995 53.4163 34.8815C53.3676 34.9634 53.3354 35.0542 53.3217 35.1486C53.3217 35.2636 53.2858 35.3786 53.2678 35.508C53.2432 35.6955 53.2936 35.8852 53.4079 36.0359C53.5223 36.1867 53.6915 36.2862 53.8788 36.313H53.9938C54.1631 36.3129 54.3271 36.253 54.4566 36.1438C54.5861 36.0347 54.6729 35.8833 54.7017 35.7164Z" fill="#0B0D0E"/>
<path d="M51.708 42.4221C51.7927 42.464 51.8848 42.4888 51.9791 42.495C52.0734 42.5012 52.1679 42.4886 52.2574 42.4583C52.3468 42.4279 52.4294 42.3803 52.5004 42.318C52.5714 42.2557 52.6294 42.1798 52.6711 42.0951L52.8329 41.7537C52.9097 41.5818 52.916 41.3866 52.8504 41.2101C52.7849 41.0336 52.6526 40.8898 52.4822 40.8098C52.3118 40.7298 52.1167 40.7198 51.939 40.7821C51.7613 40.8443 51.6151 40.9738 51.5319 41.1428L51.381 41.459C51.3392 41.5437 51.3144 41.6359 51.3082 41.7302C51.302 41.8244 51.3145 41.9189 51.3448 42.0084C51.3752 42.0978 51.4229 42.1805 51.4852 42.2515C51.5476 42.3225 51.6233 42.3804 51.708 42.4221Z" fill="#0B0D0E"/>
<path d="M54.2812 31.2095C54.0906 31.2095 53.9078 31.2853 53.773 31.4201C53.6382 31.5548 53.5625 31.7377 53.5625 31.9283V32.0002C53.5625 32.1176 53.5625 32.2373 53.5625 32.3595C53.5625 32.5502 53.6382 32.733 53.773 32.8678C53.9078 33.0026 54.0906 33.0783 54.2812 33.0783C54.4719 33.0783 54.6547 33.0026 54.7895 32.8678C54.9243 32.733 55 32.5502 55 32.3595C55 32.235 55 32.1152 55 32.0002V31.9283C55 31.7377 54.9243 31.5548 54.7895 31.4201C54.6547 31.2853 54.4719 31.2095 54.2812 31.2095Z" fill="#0B0D0E"/>
<path d="M53.5619 37.7285C53.3793 37.6737 53.1826 37.6937 53.0148 37.784C52.847 37.8743 52.7219 38.0275 52.667 38.21L52.5628 38.5442C52.5053 38.7258 52.5222 38.9228 52.6098 39.0919C52.6973 39.2611 52.8485 39.3885 53.03 39.4463C53.101 39.4683 53.1749 39.4792 53.2492 39.4786C53.4023 39.4788 53.5514 39.4301 53.6749 39.3396C53.7984 39.2491 53.8897 39.1215 53.9356 38.9755L54.047 38.6161C54.0995 38.4341 54.0779 38.2387 53.987 38.0725C53.8962 37.9063 53.7434 37.7826 53.5619 37.7285Z" fill="#0B0D0E"/>
<path d="M34.1561 54.8994L34.5155 54.8635C34.7061 54.843 34.8808 54.7476 35.0011 54.5983C35.1214 54.449 35.1775 54.2581 35.157 54.0674C35.1365 53.8768 35.0411 53.7021 34.8918 53.5818C34.7425 53.4615 34.5516 53.4055 34.361 53.426L34.0016 53.4619C33.9072 53.4661 33.8146 53.4889 33.729 53.529C33.6434 53.569 33.5666 53.6255 33.5028 53.6953C33.3741 53.8361 33.3066 54.0224 33.3152 54.213C33.3238 54.4036 33.4077 54.583 33.5486 54.7117C33.6894 54.8405 33.8756 54.908 34.0663 54.8994H34.1561Z" fill="#0B0D0E"/>
<path d="M31.5181 10.4377C31.6125 10.4356 31.7055 10.4149 31.7919 10.3768C31.8783 10.3388 31.9564 10.284 32.0216 10.2158C32.0868 10.1475 32.138 10.0671 32.1722 9.97908C32.2063 9.89108 32.2228 9.79718 32.2207 9.70278C32.2186 9.60838 32.1979 9.51538 32.1598 9.42898C32.1217 9.34258 32.067 9.26458 31.9987 9.19928C31.9305 9.13408 31.8501 9.08288 31.762 9.04878C31.674 9.01458 31.5801 8.99808 31.4858 9.00018H31.1264C31.032 9.00208 30.9389 9.02258 30.8524 9.06048C30.7659 9.09828 30.6878 9.15278 30.6224 9.22088C30.557 9.28898 30.5056 9.36928 30.4712 9.45718C30.4368 9.54508 30.4201 9.63898 30.422 9.73338C30.4239 9.82778 30.4444 9.92078 30.4822 10.0073C30.5201 10.0938 30.5746 10.172 30.6427 10.2374C30.7108 10.3028 30.7911 10.3542 30.879 10.3885C30.9669 10.4229 31.0607 10.4396 31.1551 10.4377H31.5181Z" fill="#0B0D0E"/>
<path d="M27.9002 10.7973C27.9492 10.8023 27.9986 10.8023 28.0476 10.7973L28.4069 10.7362C28.5942 10.7004 28.7596 10.5917 28.8668 10.434C28.974 10.2763 29.0141 10.0825 28.9783 9.89516C28.9426 9.70786 28.8339 9.54246 28.6762 9.43536C28.5185 9.32816 28.3247 9.28806 28.1374 9.32376L27.778 9.38846C27.6836 9.39696 27.5918 9.42396 27.5079 9.46796C27.4239 9.51186 27.3495 9.57196 27.2887 9.64476C27.228 9.71746 27.1822 9.80146 27.1539 9.89196C27.1257 9.98236 27.1155 10.0776 27.124 10.1719C27.1325 10.2663 27.1595 10.3581 27.2034 10.4421C27.2474 10.526 27.3075 10.6005 27.3802 10.6612C27.453 10.722 27.537 10.7678 27.6274 10.7961C27.7179 10.8243 27.813 10.8345 27.9074 10.826L27.9002 10.7973Z" fill="#0B0D0E"/>
<path d="M34.6569 10.5995H34.7432C34.9338 10.6109 35.1212 10.5462 35.2641 10.4195C35.4069 10.2928 35.4936 10.1145 35.5051 9.92394C35.5165 9.73334 35.4518 9.54594 35.325 9.40304C35.1983 9.26014 35.0201 9.17344 34.8294 9.16204L34.4701 9.11894C34.2794 9.09894 34.0887 9.15544 33.9397 9.27604C33.7908 9.39674 33.6959 9.57154 33.6759 9.76224C33.6558 9.95284 33.7124 10.1436 33.833 10.2925C33.9536 10.4414 34.1285 10.5364 34.3191 10.5564L34.6569 10.5995Z" fill="#0B0D0E"/>
<path d="M31.205 55.0002C31.3956 55.0036 31.5797 54.931 31.7169 54.7986C31.854 54.6662 31.933 54.4847 31.9363 54.2941C31.9396 54.1034 31.8671 53.9193 31.7347 53.7821C31.6022 53.645 31.4208 53.5661 31.2301 53.5627H30.8708C30.6801 53.5532 30.4935 53.6198 30.352 53.7478C30.2105 53.8759 30.1256 54.0549 30.1161 54.2455C30.1065 54.4362 30.1731 54.6228 30.3012 54.7643C30.4292 54.9058 30.6083 54.9907 30.7989 55.0002H31.205Z" fill="#0B0D0E"/>
<path d="M40.7051 12.2668C40.7914 12.305 40.8845 12.3258 40.9789 12.3281C41.0733 12.3304 41.1673 12.314 41.2554 12.28C41.3435 12.2459 41.424 12.1949 41.4924 12.1297C41.5607 12.0646 41.6156 11.9866 41.6538 11.9002C41.692 11.8138 41.7129 11.7208 41.7152 11.6264C41.7174 11.532 41.7011 11.438 41.667 11.3499C41.633 11.2618 41.5819 11.1813 41.5168 11.1129C41.4516 11.0445 41.3736 10.9897 41.2873 10.9515L40.9279 10.8041C40.7575 10.7544 40.5747 10.7695 40.4147 10.8465C40.2548 10.9235 40.129 11.057 40.0616 11.2213C39.9943 11.3855 39.99 11.5688 40.0498 11.736C40.1095 11.9032 40.229 12.0423 40.3852 12.1266L40.7051 12.2668Z" fill="#0B0D0E"/>
<path d="M40.3977 53.3649C40.4902 53.3644 40.5817 53.3461 40.6673 53.311L41.0266 53.1672C41.1135 53.1302 41.1922 53.0765 41.2582 53.009C41.3243 52.9416 41.3764 52.8618 41.4116 52.7742C41.4468 52.6866 41.4644 52.5928 41.4634 52.4984C41.4624 52.404 41.4428 52.3107 41.4058 52.2239C41.3687 52.137 41.3149 52.0584 41.2475 51.9924C41.18 51.9263 41.1002 51.8741 41.0126 51.8389C40.925 51.8037 40.8313 51.7862 40.7369 51.7872C40.6425 51.7882 40.5493 51.8078 40.4624 51.8448L40.139 51.9813C39.985 52.0445 39.8577 52.1594 39.779 52.306C39.7002 52.4527 39.6747 52.6221 39.7069 52.7854C39.7392 52.9487 39.8271 53.0958 39.9557 53.2015C40.0843 53.3072 40.2456 53.3649 40.4121 53.3649H40.3977Z" fill="#0B0D0E"/>
<path d="M37.7508 11.2103C37.8445 11.2427 37.9439 11.2554 38.0428 11.2475C38.1417 11.2396 38.2378 11.2113 38.3253 11.1644C38.4127 11.1175 38.4894 11.0531 38.5507 10.9751C38.612 10.8971 38.6565 10.8073 38.6813 10.7112C38.7062 10.6152 38.7109 10.5151 38.6952 10.4172C38.6795 10.3192 38.6437 10.2256 38.5901 10.1422C38.5364 10.0588 38.4661 9.98735 38.3835 9.93235C38.3009 9.87745 38.2078 9.84025 38.1101 9.82305L37.7508 9.71885C37.5649 9.67115 37.3677 9.69935 37.2026 9.79705C37.0375 9.89475 36.918 10.0541 36.8703 10.24C36.8226 10.4259 36.8508 10.623 36.9485 10.7882C37.0462 10.9533 37.2055 11.0728 37.3914 11.1205L37.7508 11.2103Z" fill="#0B0D0E"/>
<path d="M14.75 9.00024C13.6128 9.00024 12.5011 9.33745 11.5555 9.96925C10.6099 10.6011 9.8729 11.4991 9.4377 12.5498C9.0025 13.6004 8.8886 14.7566 9.1105 15.872C9.3324 16.9873 9.88 18.0119 10.6841 18.816C11.4883 19.6202 12.5128 20.1678 13.6282 20.3897C14.7436 20.6116 15.8998 20.4977 16.9504 20.0625C18.0011 19.6273 18.8991 18.8903 19.531 17.9447C20.1628 16.9991 20.5 15.8874 20.5 14.7502C20.5 13.2252 19.8942 11.7627 18.8159 10.6843C17.7375 9.60605 16.275 9.00024 14.75 9.00024ZM14.75 19.0627C13.7175 19.0624 12.7197 18.6898 11.9397 18.0133C12.1731 17.5665 12.5257 17.1931 12.9582 16.9343C13.3908 16.6755 13.8866 16.5415 14.3906 16.5471H15.1884C15.683 16.5379 16.1709 16.6631 16.5999 16.9093C17.029 17.1555 17.3833 17.5134 17.625 17.945C16.8383 18.6611 15.8137 19.0594 14.75 19.0627ZM14.0313 14.0314C14.0313 13.8893 14.0734 13.7503 14.1524 13.6321C14.2314 13.5139 14.3436 13.4218 14.4749 13.3674C14.6063 13.313 14.7508 13.2988 14.8902 13.3265C15.0296 13.3542 15.1577 13.4227 15.2582 13.5232C15.3588 13.6237 15.4272 13.7518 15.4549 13.8912C15.4827 14.0306 15.4684 14.1752 15.414 14.3065C15.3596 14.4378 15.2675 14.5501 15.1493 14.6291C15.0311 14.708 14.8922 14.7502 14.75 14.7502C14.5594 14.7502 14.3766 14.6745 14.2418 14.5397C14.107 14.4049 14.0313 14.2221 14.0313 14.0314ZM18.5702 16.7483C18.0444 16.0613 17.3148 15.5581 16.4858 15.3108C16.7239 14.9886 16.8676 14.6064 16.9007 14.207C16.9337 13.8077 16.8549 13.4071 16.6729 13.0501C16.491 12.6931 16.2132 12.3939 15.8707 12.1859C15.5281 11.978 15.1345 11.8696 14.7338 11.873C14.3331 11.8763 13.9413 11.9913 13.6023 12.2049C13.2633 12.4185 12.9905 12.7223 12.8145 13.0823C12.6386 13.4423 12.5664 13.8442 12.6061 14.2429C12.6458 14.6416 12.7959 15.0214 13.0394 15.3396C12.211 15.6053 11.4885 16.1276 10.9766 16.831C10.6154 16.1781 10.4298 15.4426 10.4379 14.6965C10.446 13.9504 10.6476 13.2191 11.0229 12.5742C11.3982 11.9293 11.9345 11.3929 12.5792 11.0172C13.2239 10.6416 13.9551 10.4397 14.7012 10.4312C15.4473 10.4227 16.1828 10.608 16.8359 10.9689C17.489 11.3298 18.0373 11.8539 18.4271 12.4901C18.817 13.1263 19.0351 13.8528 19.0602 14.5985C19.0853 15.3443 18.9164 16.0838 18.5702 16.7447V16.7483Z" fill="#0B0D0E"/>
<path d="M49.25 9.00024C48.1128 9.00024 47.0011 9.33745 46.0555 9.96925C45.1099 10.6011 44.3729 11.4991 43.9377 12.5498C43.5025 13.6004 43.3886 14.7566 43.6105 15.872C43.8324 16.9873 44.38 18.0119 45.1841 18.816C45.9883 19.6202 47.0128 20.1678 48.1282 20.3897C49.2436 20.6116 50.3998 20.4977 51.4504 20.0625C52.5011 19.6273 53.3991 18.8903 54.031 17.9447C54.6628 16.9991 55 15.8874 55 14.7502C55 13.2252 54.3942 11.7627 53.3159 10.6843C52.2375 9.60605 50.775 9.00024 49.25 9.00024ZM49.25 19.0627C48.2175 19.0624 47.2197 18.6898 46.4397 18.0133C46.6731 17.5665 47.0257 17.1931 47.4582 16.9343C47.8908 16.6755 48.3866 16.5415 48.8906 16.5471H49.6884C50.183 16.5379 50.6709 16.6631 51.0999 16.9093C51.529 17.1555 51.8833 17.5134 52.125 17.945C51.3383 18.6611 50.3137 19.0594 49.25 19.0627ZM48.5313 14.0314C48.5313 13.8893 48.5734 13.7503 48.6524 13.6321C48.7314 13.5139 48.8436 13.4218 48.975 13.3674C49.1063 13.313 49.2508 13.2988 49.3902 13.3265C49.5297 13.3542 49.6577 13.4227 49.7582 13.5232C49.8588 13.6237 49.9272 13.7518 49.9549 13.8912C49.9827 14.0306 49.9684 14.1752 49.914 14.3065C49.8596 14.4378 49.7675 14.5501 49.6493 14.6291C49.5311 14.708 49.3922 14.7502 49.25 14.7502C49.0594 14.7502 48.8766 14.6745 48.7418 14.5397C48.607 14.4049 48.5313 14.2221 48.5313 14.0314ZM53.0702 16.7483C52.5444 16.0613 51.8148 15.5581 50.9858 15.3108C51.224 14.9886 51.3676 14.6064 51.4007 14.207C51.4337 13.8077 51.3549 13.4071 51.1729 13.0501C50.991 12.6931 50.7132 12.3939 50.3707 12.1859C50.0281 11.978 49.6345 11.8696 49.2338 11.873C48.8331 11.8763 48.4413 11.9913 48.1023 12.2049C47.7633 12.4185 47.4905 12.7223 47.3146 13.0823C47.1386 13.4423 47.0664 13.8442 47.1061 14.2429C47.1458 14.6416 47.2959 15.0214 47.5394 15.3396C46.7105 15.6062 45.988 16.1298 45.4766 16.8346C45.1154 16.1816 44.9298 15.4462 44.9379 14.7001C44.946 13.954 45.1476 13.2227 45.5229 12.5778C45.8982 11.9329 46.4345 11.3964 47.0792 11.0208C47.7239 10.6452 48.4551 10.4433 49.2012 10.4348C49.9473 10.4263 50.6828 10.6116 51.3359 10.9725C51.989 11.3334 52.5373 11.8575 52.9271 12.4937C53.317 13.1299 53.5351 13.8564 53.5602 14.6021C53.5853 15.3479 53.4164 16.0874 53.0702 16.7483Z" fill="#0B0D0E"/>
<path d="M22.4694 52.1575C22.556 51.9878 22.5718 51.7907 22.5131 51.6094C22.4545 51.4282 22.3263 51.2776 22.1567 51.1908L21.8477 51.0291C21.8064 51.0069 21.7631 50.9889 21.7183 50.9752C21.5982 51.4426 21.4307 51.8965 21.2188 52.33L21.4846 52.4702C21.6543 52.5568 21.8515 52.5725 22.0328 52.5139C22.214 52.4553 22.3646 52.3271 22.4514 52.1575H22.4694Z" fill="#0B0D0E"/>
<path d="M13.0393 42.2785C12.9558 42.1313 12.8229 42.0182 12.6642 41.9593C12.5054 41.9004 12.331 41.8994 12.1716 41.9565C12.0122 42.0137 11.8781 42.1253 11.7929 42.2716C11.7077 42.418 11.677 42.5897 11.706 42.7565C12.1334 42.5532 12.5801 42.3931 13.0393 42.2785Z" fill="#0B0D0E"/>
<path d="M14.75 55.0002C15.8872 55.0002 16.9989 54.663 17.9445 54.0311C18.8901 53.3993 19.6271 52.5013 20.0623 51.4506C20.4975 50.3999 20.6114 49.2438 20.3895 48.1284C20.1677 47.013 19.62 45.9885 18.8159 45.1843C18.0117 44.3802 16.9872 43.8325 15.8718 43.6107C14.7564 43.3888 13.6002 43.5027 12.5496 43.9379C11.4989 44.3731 10.6009 45.1101 9.969 46.0557C9.3372 47.0012 9 48.1129 9 49.2502C9 50.7752 9.6058 52.2377 10.6841 53.3161C11.7625 54.3944 13.225 55.0002 14.75 55.0002ZM14.75 53.5627C13.7175 53.5624 12.7197 53.1898 11.9397 52.5133C12.1731 52.0665 12.5257 51.6931 12.9582 51.4343C13.3908 51.1755 13.8866 51.0415 14.3906 51.0471H15.1884C15.683 51.0379 16.1708 51.1631 16.5999 51.4093C17.029 51.6555 17.3833 52.0134 17.625 52.445C16.8383 53.1611 15.8137 53.5594 14.75 53.5627ZM14.0312 48.5314C14.0312 48.3893 14.0734 48.2503 14.1524 48.1321C14.2314 48.0139 14.3436 47.9218 14.4749 47.8674C14.6063 47.813 14.7508 47.7988 14.8902 47.8265C15.0296 47.8542 15.1577 47.9227 15.2582 48.0232C15.3588 48.1237 15.4272 48.2518 15.4549 48.3912C15.4827 48.5306 15.4684 48.6752 15.414 48.8065C15.3596 48.9378 15.2675 49.0501 15.1493 49.1291C15.0311 49.208 14.8922 49.2502 14.75 49.2502C14.5594 49.2502 14.3766 49.1745 14.2418 49.0397C14.107 48.9049 14.0312 48.7221 14.0312 48.5314ZM14.75 44.9377C15.4906 44.9386 16.2184 45.1302 16.8635 45.494C17.5085 45.8579 18.049 46.3817 18.4328 47.0151C18.8166 47.6484 19.0309 48.3699 19.055 49.1101C19.079 49.8503 18.9121 50.5842 18.5702 51.2411C18.0448 50.5552 17.3168 50.0523 16.4894 49.8036C16.7257 49.481 16.8677 49.0991 16.8995 48.7004C16.9313 48.3017 16.8515 47.9021 16.6692 47.5462C16.4869 47.1902 16.2092 46.892 15.8671 46.6848C15.525 46.4776 15.132 46.3697 14.7321 46.373C14.3322 46.3763 13.9411 46.4908 13.6025 46.7036C13.2639 46.9165 12.9912 47.2193 12.8148 47.5782C12.6385 47.9371 12.5654 48.338 12.6038 48.7361C12.6421 49.1342 12.7905 49.5138 13.0322 49.8324C12.2043 50.1011 11.4833 50.6259 10.973 51.331C10.6113 50.6744 10.427 49.9348 10.4383 49.1853C10.4495 48.4357 10.656 47.7021 11.0373 47.0566C11.4186 46.4112 11.9616 45.8764 12.6126 45.5048C13.2637 45.1332 14.0004 44.9377 14.75 44.9377Z" fill="#0B0D0E"/>
<path d="M49.25 43.5002C48.1128 43.5002 47.0011 43.8374 46.0555 44.4692C45.1099 45.1011 44.3729 45.9991 43.9377 47.0498C43.5025 48.1004 43.3886 49.2566 43.6105 50.372C43.8324 51.4873 44.38 52.5119 45.1841 53.3161C45.9883 54.1202 47.0128 54.6678 48.1282 54.8897C49.2436 55.1116 50.3998 54.9977 51.4504 54.5625C52.5011 54.1273 53.3991 53.3903 54.031 52.4447C54.6628 51.4991 55 50.3874 55 49.2502C55 47.7252 54.3942 46.2627 53.3159 45.1843C52.2375 44.106 50.775 43.5002 49.25 43.5002ZM49.25 53.5627C48.2175 53.5624 47.2197 53.1898 46.4397 52.5133C46.6731 52.0665 47.0257 51.6931 47.4582 51.4343C47.8908 51.1755 48.3866 51.0415 48.8906 51.0471H49.6884C50.1824 51.0386 50.6695 51.1641 51.0979 51.4102C51.5263 51.6564 51.88 52.014 52.1214 52.445C51.3357 53.1602 50.3125 53.5585 49.25 53.5627ZM48.5313 48.5314C48.5313 48.3893 48.5734 48.2503 48.6524 48.1321C48.7314 48.0139 48.8436 47.9218 48.975 47.8674C49.1063 47.813 49.2508 47.7988 49.3902 47.8265C49.5297 47.8542 49.6577 47.9227 49.7582 48.0232C49.8588 48.1237 49.9272 48.2518 49.9549 48.3912C49.9827 48.5306 49.9684 48.6752 49.914 48.8065C49.8596 48.9378 49.7675 49.0501 49.6493 49.1291C49.5311 49.208 49.3922 49.2502 49.25 49.2502C49.0594 49.2502 48.8766 49.1745 48.7418 49.0397C48.607 48.9049 48.5313 48.7221 48.5313 48.5314ZM53.0702 51.2411C52.5448 50.5552 51.8168 50.0523 50.9894 49.8036C51.2258 49.481 51.3678 49.0991 51.3995 48.7004C51.4313 48.3017 51.3515 47.9021 51.1692 47.5462C50.9869 47.1902 50.7092 46.892 50.3671 46.6848C50.025 46.4776 49.632 46.3697 49.2321 46.373C48.8322 46.3763 48.4411 46.4908 48.1025 46.7036C47.764 46.9165 47.4912 47.2193 47.3149 47.5782C47.1385 47.9371 47.0654 48.338 47.1038 48.7361C47.1422 49.1342 47.2905 49.5138 47.5322 49.8324C46.7044 50.1011 45.9833 50.6259 45.473 51.331C45.1122 50.6782 44.9269 49.943 44.9352 49.1972C44.9435 48.4514 45.145 47.7205 45.5202 47.0759C45.8953 46.4313 46.4312 45.895 47.0756 45.5194C47.7199 45.1437 48.4507 44.9417 49.1964 44.9328C49.9422 44.924 50.6775 45.1088 51.3306 45.469C51.9836 45.8293 52.5321 46.3528 52.9224 46.9884C53.3126 47.6239 53.5314 48.3499 53.5573 49.0952C53.5832 49.8406 53.4154 50.58 53.0702 51.2411Z" fill="#0B0D0E"/>
</svg>
