<svg width="64" height="64" viewBox="0 0 64 64" fill="none" xmlns="http://www.w3.org/2000/svg">
<path fill-rule="evenodd" clip-rule="evenodd" d="M24.9046 19L23.0997 56H30.8998L29.0949 19H24.9046ZM23.9522 17C23.4188 17 22.9793 17.4186 22.9534 17.9513L21.0509 56.9513C21.0231 57.522 21.4783 58 22.0497 58H31.9498C32.5212 58 32.9764 57.522 32.9486 56.9513L31.0462 17.9513C31.0202 17.4186 30.5807 17 30.0473 17H23.9522Z" fill="#0B0D0E"/>
<path fill-rule="evenodd" clip-rule="evenodd" d="M8.99976 34V50H16.9998V34H8.99976ZM7.99976 32C7.44747 32 6.99976 32.4477 6.99976 33V51C6.99976 51.5523 7.44747 52 7.99976 52H17.9998C18.552 52 18.9998 51.5523 18.9998 51V33C18.9998 32.4477 18.552 32 17.9998 32H7.99976Z" fill="#0B0D0E"/>
<path fill-rule="evenodd" clip-rule="evenodd" d="M11.9998 52V56H13.9998V52H11.9998ZM10.9998 50C10.4475 50 9.99976 50.4477 9.99976 51V57C9.99976 57.5523 10.4475 58 10.9998 58H14.9998C15.552 58 15.9998 57.5523 15.9998 57V51C15.9998 50.4477 15.552 50 14.9998 50H10.9998Z" fill="#0B0D0E"/>
<path fill-rule="evenodd" clip-rule="evenodd" d="M48.9998 56V43C48.9998 39.6863 46.3135 37 42.9998 37C39.686 37 36.9998 39.6863 36.9998 43V56H48.9998ZM42.9998 35C38.5815 35 34.9998 38.5817 34.9998 43V57C34.9998 57.5523 35.4475 58 35.9998 58H49.9998C50.552 58 50.9998 57.5523 50.9998 57V43C50.9998 38.5817 47.418 35 42.9998 35Z" fill="#0B0D0E"/>
<path fill-rule="evenodd" clip-rule="evenodd" d="M6.99976 57C6.99976 56.4477 7.44747 56 7.99976 56H17.9998C18.552 56 18.9998 56.4477 18.9998 57C18.9998 57.5523 18.552 58 17.9998 58H7.99976C7.44747 58 6.99976 57.5523 6.99976 57Z" fill="#0B0D0E"/>
<path fill-rule="evenodd" clip-rule="evenodd" d="M14.9998 26C14.4475 26 13.9998 26.4477 13.9998 27V33H11.9998V27C11.9998 25.3431 13.3429 24 14.9998 24H23.9998V26H14.9998ZM40.9998 31H30.4191V29H40.9998C42.6566 29 43.9998 30.3431 43.9998 32V36H41.9998V32C41.9998 31.4477 41.552 31 40.9998 31Z" fill="#0B0D0E"/>
<path fill-rule="evenodd" clip-rule="evenodd" d="M17.9998 39H7.99976V37H17.9998V39Z" fill="#0B0D0E"/>
<path fill-rule="evenodd" clip-rule="evenodd" d="M42.9998 47C44.1043 47 44.9998 46.1046 44.9998 45C44.9998 43.8954 44.1043 43 42.9998 43C41.8952 43 40.9998 43.8954 40.9998 45C40.9998 46.1046 41.8952 47 42.9998 47ZM42.9998 49C45.2089 49 46.9998 47.2091 46.9998 45C46.9998 42.7909 45.2089 41 42.9998 41C40.7906 41 38.9998 42.7909 38.9998 45C38.9998 47.2091 40.7906 49 42.9998 49Z" fill="#0B0D0E"/>
<path fill-rule="evenodd" clip-rule="evenodd" d="M56.9998 14C56.9998 14.5523 56.552 15 55.9998 15H53.9998C53.4475 15 52.9998 14.5523 52.9998 14C52.9998 13.4477 53.4475 13 53.9998 13H55.9998C56.552 13 56.9998 13.4477 56.9998 14Z" fill="#0B0D0E"/>
<path fill-rule="evenodd" clip-rule="evenodd" d="M50.9998 14C50.9998 14.5523 50.552 15 49.9998 15H47.9998C47.4475 15 46.9998 14.5523 46.9998 14C46.9998 13.4477 47.4475 13 47.9998 13H49.9998C50.552 13 50.9998 13.4477 50.9998 14Z" fill="#0B0D0E"/>
<path fill-rule="evenodd" clip-rule="evenodd" d="M43.9998 6C44.552 6 44.9998 6.44772 44.9998 7V21C44.9998 21.5523 44.552 22 43.9998 22C43.4475 22 42.9998 21.5523 42.9998 21V7C42.9998 6.44772 43.4475 6 43.9998 6Z" fill="#0B0D0E"/>
<path fill-rule="evenodd" clip-rule="evenodd" d="M28.7998 10.1C28.2604 10.8192 27.9998 12.0247 27.9998 14C27.9998 14.5523 27.552 15 26.9998 15C26.4475 15 25.9998 14.5523 25.9998 14C25.9998 11.9753 26.2391 10.1808 27.1998 8.9C28.2187 7.54137 29.8481 7 31.9998 7C33.4768 7 34.5502 7.45456 35.3377 8.22077C36.0788 8.94177 36.4874 9.87043 36.7978 10.6154C36.8322 10.698 36.8654 10.7781 36.8976 10.8558C37.1853 11.5504 37.3944 12.0553 37.7004 12.4352C37.969 12.7686 38.3107 13 38.9998 13H39.9994C40.5517 13 40.9998 13.4477 40.9998 14C40.9998 14.5523 40.552 15 39.9998 15H38.9998C37.6888 15 36.7805 14.4814 36.1429 13.6898C35.642 13.0681 35.3165 12.2736 35.052 11.6281C35.0176 11.5442 34.9843 11.4628 34.9517 11.3846C34.6371 10.6296 34.3582 10.0582 33.943 9.65423C33.5743 9.29544 33.0227 9 31.9998 9C30.1514 9 29.2808 9.45863 28.7998 10.1Z" fill="#0B0D0E"/>
</svg>
