<svg width="64" height="64" viewBox="0 0 64 64" fill="none" xmlns="http://www.w3.org/2000/svg">
<path fill-rule="evenodd" clip-rule="evenodd" d="M20.2471 32C20.2471 31.4477 20.6948 31 21.2471 31H27.7471C28.2994 31 28.7471 31.4477 28.7471 32C28.7471 32.5523 28.2994 33 27.7471 33H21.2471C20.6948 33 20.2471 32.5523 20.2471 32ZM31.7471 40C31.7471 39.4477 32.1948 39 32.7471 39H50.7471C51.2994 39 51.7471 39.4477 51.7471 40C51.7471 40.5523 51.2994 41 50.7471 41H32.7471C32.1948 41 31.7471 40.5523 31.7471 40Z" fill="#0B0D0E"/>
<path fill-rule="evenodd" clip-rule="evenodd" d="M36.7471 30C36.7471 29.4477 37.1948 29 37.7471 29H45.7471C46.2994 29 46.7471 29.4477 46.7471 30C46.7471 30.5523 46.2994 31 45.7471 31H37.7471C37.1948 31 36.7471 30.5523 36.7471 30Z" fill="#0B0D0E"/>
<path fill-rule="evenodd" clip-rule="evenodd" d="M18.7471 23C18.7471 22.4477 19.1948 22 19.7471 22H28.7471C29.2994 22 29.7471 22.4477 29.7471 23C29.7471 23.5523 29.2994 24 28.7471 24H19.7471C19.1948 24 18.7471 23.5523 18.7471 23Z" fill="#0B0D0E"/>
<path fill-rule="evenodd" clip-rule="evenodd" d="M36.7168 53L27.1819 37.276C26.8975 36.807 26.7472 36.269 26.7472 35.7205V24H21.7472V35.7205C21.7472 36.269 21.5968 36.807 21.3124 37.276L11.7774 53H36.7168ZM20.7472 22C20.1949 22 19.7472 22.4477 19.7472 23V35.7205C19.7472 35.9033 19.697 36.0827 19.6022 36.239L9.14649 53.4815C8.74237 54.1479 9.22217 55 10.0016 55H38.4927C39.2721 55 39.7519 54.1479 39.3478 53.4815L28.8921 36.239C28.7973 36.0827 28.7472 35.9033 28.7472 35.7205V23C28.7472 22.4477 28.2994 22 27.7472 22H20.7472Z" fill="#0B0D0E"/>
<path d="M39.2037 54.7044C40.0202 54.8977 40.8719 55 41.7474 55C47.8226 55 52.7474 50.0751 52.7474 44C52.7474 39.3361 49.8448 35.35 45.7474 33.7499L45.7471 31V29H37.7471L37.7474 33.7499C34.7802 34.9087 32.4395 37.3188 31.374 40.3315L32.8349 42.7406C33.2915 39.4801 35.4953 36.7765 38.475 35.6129L39.7474 35.1159V31.0002L43.7474 31.0001V35.1159L45.0199 35.6129C48.3757 36.9234 50.7474 40.1872 50.7474 44C50.7474 48.9706 46.718 53 41.7474 53C40.6947 53 39.6841 52.8193 38.7451 52.4871L39.3478 53.4815C39.6029 53.9022 39.5061 54.3968 39.2037 54.7044Z" fill="#0B0D0E"/>
<path d="M47.7471 44C47.7471 44.5523 47.2994 45 46.7471 45C46.1948 45 45.7471 44.5523 45.7471 44C45.7471 43.4477 46.1948 43 46.7471 43C47.2994 43 47.7471 43.4477 47.7471 44Z" fill="#0B0D0E"/>
<path d="M44.7471 46C44.7471 46.5523 44.2994 47 43.7471 47C43.1948 47 42.7471 46.5523 42.7471 46C42.7471 45.4477 43.1948 45 43.7471 45C44.2994 45 44.7471 45.4477 44.7471 46Z" fill="#0B0D0E"/>
<path d="M47.7471 48C47.7471 48.5523 47.2994 49 46.7471 49C46.1948 49 45.7471 48.5523 45.7471 48C45.7471 47.4477 46.1948 47 46.7471 47C47.2994 47 47.7471 47.4477 47.7471 48Z" fill="#0B0D0E"/>
<path fill-rule="evenodd" clip-rule="evenodd" d="M54.7461 18C54.7461 18.5523 54.2984 19 53.7461 19H51.7461C51.1938 19 50.7461 18.5523 50.7461 18C50.7461 17.4477 51.1938 17 51.7461 17H53.7461C54.2984 17 54.7461 17.4477 54.7461 18Z" fill="#0B0D0E"/>
<path fill-rule="evenodd" clip-rule="evenodd" d="M48.7461 18C48.7461 18.5523 48.2984 19 47.7461 19H45.7461C45.1938 19 44.7461 18.5523 44.7461 18C44.7461 17.4477 45.1938 17 45.7461 17H47.7461C48.2984 17 48.7461 17.4477 48.7461 18Z" fill="#0B0D0E"/>
<path fill-rule="evenodd" clip-rule="evenodd" d="M41.7461 10C42.2984 10 42.7461 10.4477 42.7461 11V25C42.7461 25.5523 42.2984 26 41.7461 26C41.1938 26 40.7461 25.5523 40.7461 25V11C40.7461 10.4477 41.1938 10 41.7461 10Z" fill="#0B0D0E"/>
<path fill-rule="evenodd" clip-rule="evenodd" d="M26.5461 14.1C26.0067 14.8192 25.7461 16.0247 25.7461 18C25.7461 18.5523 25.2984 19 24.7461 19C24.1938 19 23.7461 18.5523 23.7461 18C23.7461 15.9753 23.9855 14.1808 24.9461 12.9C25.9651 11.5414 27.5945 11 29.7461 11C31.2231 11 32.2966 11.4546 33.0841 12.2208C33.8251 12.9418 34.2338 13.8704 34.5442 14.6154C34.5786 14.698 34.6118 14.7781 34.644 14.8558C34.9316 15.5504 35.1407 16.0553 35.4467 16.4352C35.7153 16.7686 36.057 17 36.7461 17H37.7457C38.298 17 38.7461 17.4477 38.7461 18C38.7461 18.5523 38.2984 19 37.7461 19H36.7461C35.4351 19 34.5269 18.4814 33.8892 17.6898C33.3884 17.0681 33.0628 16.2736 32.7983 15.6281C32.7639 15.5442 32.7306 15.4628 32.698 15.3846C32.3834 14.6296 32.1046 14.0582 31.6894 13.6542C31.3206 13.2954 30.7691 13 29.7461 13C27.8977 13 27.0271 13.4586 26.5461 14.1Z" fill="#0B0D0E"/>
</svg>
