<svg width="64" height="65" viewBox="0 0 64 65" fill="none" xmlns="http://www.w3.org/2000/svg">
<path fill-rule="evenodd" clip-rule="evenodd" d="M51.9521 56.9644C51.7267 56.592 51.3904 56.3097 50.9999 56.1495V37H50.9668C50.9888 36.8806 50.9999 36.7592 50.9999 36.6373V31H51.4999C52.0522 31 52.4999 30.5523 52.4999 30C52.4999 29.4477 52.0522 29 51.4999 29H50.9999V25H51.4999C52.0522 25 52.4999 24.5523 52.4999 24C52.4999 23.4477 52.0522 23 51.4999 23H50.9999V20C50.9999 18.8954 50.1045 18 48.9999 18H46.9999V16C46.9999 14.8954 46.1045 14 44.9999 14L41.9999 14C40.8954 14 39.9999 14.8954 39.9999 16V18H37.9999C36.8954 18 35.9999 18.8954 35.9999 20V23H35.4999C34.9477 23 34.4999 23.4477 34.4999 24C34.4999 24.5523 34.9477 25 35.4999 25H35.9999L35.9999 29H35.4999C34.9477 29 34.4999 29.4477 34.4999 30C34.4999 30.5523 34.9477 31 35.4999 31H35.9999V36.6373C35.9999 36.7592 36.0111 36.8806 36.0331 37H35.9999L35.9999 56.1495C35.6095 56.3097 35.2732 56.592 35.0478 56.9644L33.8373 58.9644C33.0305 60.2973 33.9902 62 35.5483 62H51.4516C53.0096 62 53.9694 60.2973 53.1626 58.9644L51.9521 56.9644ZM36.7588 58L35.5483 60H51.4516L50.2411 58H36.7588ZM37.9999 31V36.6373L43.4999 51.304L48.9999 36.6373V31H37.9999ZM48.9999 29V25H37.9999L37.9999 29H48.9999ZM37.9999 23H48.9999V20H37.9999V23ZM44.9999 16V18H41.9999V16L44.9999 16ZM37.9999 42.3333V56H48.9999V42.3333L45.3726 52.0062C44.7237 53.7366 42.2762 53.7366 41.6273 52.0062L37.9999 42.3333Z" fill="#0B0D0E"/>
<path fill-rule="evenodd" clip-rule="evenodd" d="M27.9999 56.1495C28.3904 56.3097 28.7267 56.592 28.9521 56.9644L30.1626 58.9644C30.9694 60.2973 30.0096 62 28.4516 62H12.5483C10.9902 62 10.0305 60.2973 10.8373 58.9644L12.0478 56.9644C12.2732 56.592 12.6095 56.3097 12.9999 56.1495L12.9999 37H13.0331C13.0111 36.8806 12.9999 36.7592 12.9999 36.6373L12.9999 31H12.4999C11.9477 31 11.4999 30.5523 11.4999 30C11.4999 29.4477 11.9477 29 12.4999 29H12.9999L12.9999 25H12.4999C11.9477 25 11.4999 24.5523 11.4999 24C11.4999 23.4477 11.9477 23 12.4999 23H12.9999L12.9999 20C12.9999 18.8954 13.8954 18 14.9999 18H16.9999V16C16.9999 14.8954 17.8954 14 18.9999 14L21.9999 14C23.1045 14 23.9999 14.8954 23.9999 16V18H25.9999C27.1045 18 27.9999 18.8954 27.9999 20V23H28.4999C29.0522 23 29.4999 23.4477 29.4999 24C29.4999 24.5523 29.0522 25 28.4999 25H27.9999L27.9999 29H28.4999C29.0522 29 29.4999 29.4477 29.4999 30C29.4999 30.5523 29.0522 31 28.4999 31H27.9999V36.6373C27.9999 36.7592 27.9888 36.8806 27.9668 37H27.9999L27.9999 56.1495ZM12.5483 60L13.7588 58H27.2411L28.4516 60H12.5483ZM14.9999 36.6373L14.9999 31H25.9999V36.6373L20.4999 51.304L14.9999 36.6373ZM25.9999 25L25.9999 29H14.9999V25H25.9999ZM25.9999 23H14.9999V20H25.9999V23ZM21.9999 18V16L18.9999 16V18H21.9999ZM14.9999 56L14.9999 42.3333L18.6273 52.0062C19.2762 53.7366 21.7237 53.7366 22.3726 52.0062L25.9999 42.3333V56H14.9999Z" fill="#0B0D0E"/>
<path d="M36.6934 1.86572C36.6934 1.31344 36.2456 0.865723 35.6934 0.865723C35.1411 0.865723 34.6934 1.31344 34.6934 1.86572L34.6934 12.8657C34.6934 13.418 35.1411 13.8657 35.6934 13.8657C36.2456 13.8657 36.6934 13.418 36.6934 12.8657L36.6934 1.86572Z" fill="#0B0D0E"/>
<path d="M21.6934 7.86572C21.6934 6.08234 21.839 5.1152 22.17 4.57732C22.4058 4.19423 22.8477 3.86572 24.1934 3.86572C24.779 3.86572 25.0695 4.0532 25.2954 4.30901C25.5778 4.62866 25.7766 5.07061 26.0675 5.71738L26.0939 5.77609C26.3679 6.38498 26.7308 7.17918 27.3593 7.7974C28.0379 8.46484 28.9528 8.86572 30.1934 8.86572L31.6934 8.86572C32.2456 8.86572 32.6934 8.41801 32.6934 7.86572C32.6934 7.31344 32.2456 6.86572 31.6934 6.86572L30.1934 6.86572C29.4339 6.86572 29.0363 6.6416 28.7618 6.37155C28.4372 6.05226 28.2063 5.59647 27.9178 4.95536C27.8966 4.90824 27.8749 4.85962 27.8526 4.80973C27.6051 4.25495 27.2874 3.54302 26.7944 2.98494C26.1922 2.30325 25.3577 1.86572 24.1934 1.86572C22.539 1.86572 21.231 2.28722 20.4667 3.52913C19.7977 4.61625 19.6934 6.1491 19.6934 7.86572C19.6934 8.41801 20.1411 8.86572 20.6934 8.86572C21.2456 8.86572 21.6934 8.41801 21.6934 7.86572Z" fill="#0B0D0E"/>
<path d="M39.6934 6.86572C39.1411 6.86572 38.6934 7.31344 38.6934 7.86572C38.6934 8.41801 39.1411 8.86572 39.6934 8.86572L40.6934 8.86572C41.2456 8.86572 41.6934 8.41801 41.6934 7.86572C41.6934 7.31344 41.2456 6.86572 40.6934 6.86572L39.6934 6.86572Z" fill="#0B0D0E"/>
<path d="M44.6934 6.86572C44.1411 6.86572 43.6934 7.31344 43.6934 7.86572C43.6934 8.41801 44.1411 8.86572 44.6934 8.86572H45.6934C46.2456 8.86572 46.6934 8.41801 46.6934 7.86572C46.6934 7.31344 46.2456 6.86572 45.6934 6.86572H44.6934Z" fill="#0B0D0E"/>
</svg>
