<svg width="64" height="64" viewBox="0 0 64 64" fill="none" xmlns="http://www.w3.org/2000/svg">
<path d="M60.9821 10.1156C60.9821 10.6679 60.5344 11.1156 59.9821 11.1156H58.9821C58.4298 11.1156 57.9821 10.6679 57.9821 10.1156C57.9821 9.56332 58.4298 9.1156 58.9821 9.1156H59.9821C60.5344 9.1156 60.9821 9.56332 60.9821 10.1156Z" fill="#0B0D0E"/>
<path d="M55.9821 10.1156C55.9821 10.6679 55.5344 11.1156 54.9821 11.1156H53.9821C53.4298 11.1156 52.9821 10.6679 52.9821 10.1156C52.9821 9.56331 53.4298 9.1156 53.9821 9.1156H54.9821C55.5344 9.1156 55.9821 9.56332 55.9821 10.1156Z" fill="#0B0D0E"/>
<path d="M50.9821 4.1156C50.9821 3.56332 50.5344 3.1156 49.9821 3.1156C49.4298 3.1156 48.9821 3.56332 48.9821 4.1156L48.9821 15.1156C48.9821 15.6679 49.4298 16.1156 49.9821 16.1156C50.5344 16.1156 50.9821 15.6679 50.9821 15.1156L50.9821 4.1156Z" fill="#0B0D0E"/>
<path d="M36.4588 6.8272C36.1278 7.36508 35.9821 8.33222 35.9821 10.1156C35.9821 10.6679 35.5344 11.1156 34.9821 11.1156C34.4298 11.1156 33.9821 10.6679 33.9821 10.1156C33.9821 8.39898 34.0865 6.86613 34.7555 5.779C35.5197 4.53709 36.8278 4.1156 38.4821 4.1156C39.6464 4.1156 40.481 4.55312 41.0831 5.23482C41.5761 5.7929 41.8938 6.50483 42.1414 7.05961L42.1419 7.0607L42.1423 7.06171C42.1642 7.11086 42.1856 7.15878 42.2065 7.20524C42.495 7.84634 42.7259 8.30214 43.0505 8.62142C43.3251 8.89148 43.7227 9.1156 44.4821 9.1156H45.9813C46.5336 9.1156 46.9821 9.56332 46.9821 10.1156C46.9821 10.6679 46.5344 11.1156 45.9821 11.1156L44.4821 11.1156C43.2415 11.1156 42.3266 10.7147 41.6481 10.0473C41.0195 9.42906 40.6567 8.63486 40.3827 8.02597L40.3563 7.96727C40.0654 7.32049 39.8666 6.87854 39.5842 6.55889C39.3582 6.30308 39.0678 6.1156 38.4821 6.1156C37.1365 6.1156 36.6945 6.44411 36.4588 6.8272Z" fill="#0B0D0E"/>
<path fill-rule="evenodd" clip-rule="evenodd" d="M37.8322 51.5075C35.9581 53.3804 33.2843 54.453 30.6092 52.3911L29.7782 53.2222C29.3877 53.6128 28.7546 53.6128 28.3641 53.2222C27.9736 52.8317 27.9736 52.1985 28.3641 51.808L29.1952 50.9767C27.1323 48.2989 28.2068 45.6243 30.0816 43.7506C32.9119 40.9221 40.1065 41.4832 40.1065 41.4832C40.1065 41.4832 40.6625 48.6789 37.8322 51.5075ZM36.4186 50.0927C35.5843 50.9265 34.7112 51.4017 33.9336 51.4944C33.4241 51.5552 32.79 51.474 32.0398 50.9604L34.9809 48.019C35.3714 47.6284 35.3714 46.9952 34.9809 46.6047C34.5904 46.2141 33.9573 46.2141 33.5668 46.6047L30.6259 49.5459C30.1116 48.7945 30.0307 48.1596 30.0919 47.6497C30.1852 46.872 30.6609 45.9992 31.4952 45.1654C31.8939 44.7669 32.5452 44.3997 33.4546 44.107C34.3475 43.8196 35.3616 43.6447 36.3526 43.5465C36.9976 43.4826 37.6114 43.4532 38.1458 43.4427C38.1349 43.9771 38.1051 44.591 38.0407 45.236C37.9418 46.227 37.7662 47.2411 37.4783 48.1338C37.185 49.0431 36.8173 49.6942 36.4186 50.0927Z" fill="#0B0D0E"/>
<path fill-rule="evenodd" clip-rule="evenodd" d="M47.262 33.1747C47.472 33.2347 47.652 33.3647 47.782 33.5347C47.912 33.7047 47.982 33.9247 47.982 34.1347V61.7447C47.982 62.0047 47.882 62.2647 47.692 62.4547C47.502 62.6447 47.242 62.7547 46.982 62.7547L4.58203 62.7547C4.31203 62.7547 4.06203 62.6447 3.87203 62.4547C3.69203 62.2747 3.58203 62.0147 3.58203 61.7447L3.58203 38.4247C3.58203 38.2047 3.65203 37.9947 3.78203 37.8047C3.91203 37.6347 4.09203 37.5047 4.30203 37.4447L20.482 30.7947V26.4147C20.482 26.2647 20.522 26.1047 20.592 25.9647C20.662 25.8247 20.772 25.6947 20.892 25.6047C21.012 25.5147 21.162 25.4447 21.312 25.4247C21.462 25.4047 21.622 25.4147 21.772 25.4547L27.282 27.1247V24.7047C27.282 24.4447 27.382 24.1847 27.572 23.9947C27.762 23.7947 28.012 23.6947 28.282 23.6947H32.382V12.4547H38.622L38.622 23.6947H42.722C42.992 23.6947 43.242 23.8047 43.432 23.9947C43.612 24.1847 43.722 24.4447 43.722 24.7047V32.1047L47.262 33.1747ZM36.632 23.6947V18.8547H34.382V23.6947H36.632ZM36.632 16.8347V14.5647H34.382L34.382 16.8347H36.632ZM29.282 25.7047V27.7247L41.732 31.4847V25.7047L29.282 25.7047ZM45.982 60.7347V34.8847L22.482 27.7747L22.482 60.7347H45.982ZM5.58203 39.1847L5.58203 60.7347C8.4492 60.7347 9.74264 60.7367 11.1767 60.7389H11.1781C12.9618 60.7416 14.9638 60.7447 20.482 60.7447L20.482 32.9047L5.58203 39.1847Z" fill="#0B0D0E"/>
</svg>
