<svg width="64" height="64" viewBox="0 0 64 64" fill="none" xmlns="http://www.w3.org/2000/svg">
<path d="M51.0297 4.11829C51.0297 3.566 50.5819 3.11829 50.0297 3.11829C49.4774 3.11829 49.0297 3.566 49.0297 4.11829V15.1183C49.0297 15.6706 49.4774 16.1183 50.0297 16.1183C50.5819 16.1183 51.0297 15.6706 51.0297 15.1183V4.11829Z" fill="#0B0D0E"/>
<path d="M56.0297 10.1183C56.0297 10.6706 55.5819 11.1183 55.0297 11.1183H54.0297C53.4774 11.1183 53.0297 10.6706 53.0297 10.1183C53.0297 9.566 53.4774 9.11829 54.0297 9.11829H55.0297C55.5819 9.11829 56.0297 9.566 56.0297 10.1183Z" fill="#0B0D0E"/>
<path d="M61.0297 10.1183C61.0297 10.6706 60.5819 11.1183 60.0297 11.1183H59.0297C58.4774 11.1183 58.0297 10.6706 58.0297 10.1183C58.0297 9.566 58.4774 9.11829 59.0297 9.11829H60.0297C60.5819 9.11829 61.0297 9.566 61.0297 10.1183Z" fill="#0B0D0E"/>
<path d="M36.5063 6.82988C36.1753 7.36776 36.0297 8.33491 36.0297 10.1183C36.0297 10.6706 35.5819 11.1183 35.0297 11.1183C34.4774 11.1183 34.0297 10.6706 34.0297 10.1183C34.0297 8.40166 34.134 6.86881 34.803 5.78169C35.5673 4.53978 36.8753 4.11829 38.5297 4.11829C39.694 4.11829 40.5285 4.55581 41.1307 5.2375C41.6237 5.79558 41.9414 6.50751 42.1889 7.06229L42.1894 7.06339L42.1898 7.06431C42.2118 7.11349 42.2332 7.16143 42.2541 7.20792C42.5426 7.84903 42.7735 8.30482 43.0981 8.62411C43.3726 8.89417 43.7702 9.11829 44.5297 9.11829H46.0288C46.5811 9.11829 47.0297 9.566 47.0297 10.1183C47.0297 10.6706 46.5819 11.1183 46.0297 11.1183H44.5297C43.2891 11.1183 42.3742 10.7174 41.6956 10.05C41.0671 9.43175 40.7042 8.63754 40.4302 8.02865L40.4038 7.96996C40.1129 7.32318 39.9141 6.88122 39.6318 6.56157C39.4058 6.30576 39.1153 6.11829 38.5297 6.11829C37.184 6.11829 36.7421 6.44679 36.5063 6.82988Z" fill="#0B0D0E"/>
<path fill-rule="evenodd" clip-rule="evenodd" d="M31.8919 49.5937L31.7862 49.6083C30.985 49.7735 30.141 49.8254 29.2765 49.7469C24.8625 49.346 21.5862 45.6958 21.9587 41.5939C22.0196 40.9231 22.1743 40.2818 22.4098 39.68C22.4382 39.6077 22.4676 39.5359 22.4982 39.4647C22.6336 39.1502 22.7913 38.8471 22.9693 38.5571C23.0576 38.4134 23.1508 38.2729 23.2488 38.1357C23.2543 38.1281 23.2598 38.1204 23.2653 38.1127C23.2729 38.1022 23.2805 38.0917 23.2882 38.0812C23.3049 38.0582 23.323 38.0379 23.3421 38.0201C23.5789 37.8003 23.9814 37.9659 24.0596 38.3079C24.0731 38.3673 24.0879 38.4258 24.1039 38.4832C24.1279 38.5692 24.1547 38.6531 24.1846 38.7344C24.1966 38.7671 24.2092 38.7995 24.2222 38.8314C24.3282 39.0909 24.4682 39.3228 24.6504 39.5176L24.6594 39.5271C24.6718 39.5402 24.6844 39.553 24.6971 39.5657C24.7559 39.6242 24.8189 39.6791 24.8862 39.73C24.8989 39.7396 24.9128 39.7492 24.9277 39.7589C25.0123 39.8139 25.1297 39.8693 25.2509 39.9194C25.4798 40.014 25.6991 39.7934 25.6302 39.5555C25.6027 39.4604 25.5775 39.369 25.5598 39.2964C25.5534 39.2702 25.5472 39.2439 25.5411 39.2177C25.5197 39.1262 25.4998 39.0344 25.4815 38.9425C25.42 38.6343 25.3756 38.3242 25.3481 38.0135C25.3467 37.9979 25.3453 37.9822 25.344 37.9665C25.3433 37.958 25.3426 37.9495 25.342 37.9409C25.3074 37.509 25.3055 37.0762 25.3359 36.6459C25.5062 34.2408 26.6873 31.9133 28.825 30.2604C29.0454 30.09 29.2717 29.9301 29.5029 29.7807L29.5655 29.7406C29.7293 29.6367 29.8955 29.5379 30.064 29.4443C30.1306 29.4074 30.1975 29.3712 30.2647 29.3359C30.44 29.2437 30.6176 29.1571 30.7972 29.076C30.8516 29.0514 30.9061 29.0274 30.9608 29.0038C31.2527 28.8782 31.5568 29.1342 31.5281 29.4506C31.5248 29.4861 31.5219 29.5216 31.5191 29.557C31.5012 29.7881 31.4935 30.0179 31.4955 30.246C31.4967 30.3822 31.5014 30.5178 31.5096 30.6528C31.5149 30.7415 31.5218 30.8298 31.5301 30.9179L31.5321 30.9393C31.7358 33.0426 32.7709 34.9606 34.3502 36.3732C34.6079 36.6036 34.8779 36.8245 35.1479 37.0452C35.9873 37.7316 36.8257 38.4171 37.2863 39.3882C37.3486 39.5196 37.407 39.6527 37.4613 39.7876L37.478 39.7978C37.8447 40.7637 38.0024 41.8136 37.9042 42.8951C37.6074 46.163 35.1502 48.9197 31.8919 49.5937ZM35.6955 40.7567L35.606 40.5346C35.5668 40.4372 35.5245 40.3407 35.4793 40.2454C35.3375 39.9463 35.0871 39.6369 34.6461 39.2384C34.4255 39.0391 34.1861 38.8423 33.904 38.6116L33.8708 38.5844C33.609 38.3704 33.3083 38.1246 33.0169 37.8639C31.3398 36.3639 30.1401 34.3687 29.6904 32.137C27.6629 33.9107 26.9304 36.4687 27.5032 38.8237C27.5107 38.8546 27.5266 38.9137 27.5513 38.9993C28.0117 40.5895 26.5075 42.6033 24.4866 41.7676C24.3807 41.7238 24.1881 41.6423 23.9798 41.5223C23.968 41.6058 23.9582 41.69 23.9505 41.7748C23.6901 44.6416 26.0033 47.4414 29.4574 47.7551C30.1254 47.8158 30.7724 47.7752 31.3825 47.6495L31.4467 47.6363L31.5466 47.6224C33.9181 47.1045 35.6976 45.0792 35.9124 42.7142C35.9739 42.0366 35.8948 41.3771 35.6955 40.7567Z" fill="#0B0D0E"/>
<path fill-rule="evenodd" clip-rule="evenodd" d="M21.02 13.0902C20.5548 13.0902 20.1776 13.4674 20.1776 13.9326V17.7362H14.278C13.8127 17.7362 13.4355 18.1134 13.4355 18.5786V23.4199C13.4355 23.8851 13.8127 24.2623 14.278 24.2623H16.3187V56.426C16.3187 56.8912 16.6959 57.2684 17.1611 57.2684H42.4959C42.9612 57.2684 43.3384 56.8912 43.3384 56.426V24.2623H45.3746C45.8399 24.2623 46.217 23.8851 46.217 23.4199V18.5786C46.217 18.1134 45.8399 17.7362 45.3746 17.7362H39.4794V13.9326C39.4794 13.4674 39.1022 13.0902 38.637 13.0902H21.02ZM22.1776 15.0902V17.6163H37.4794V15.0902H22.1776ZM15.4355 19.7362V22.2623H44.217V19.7362H15.4355ZM18.3187 55.2684V24.5345H41.3384V55.2684H18.3187Z" fill="#0B0D0E"/>
</svg>
