<svg width="64" height="64" viewBox="0 0 64 64" fill="none" xmlns="http://www.w3.org/2000/svg">
<path fill-rule="evenodd" clip-rule="evenodd" d="M16.4106 7.73987C14.7538 7.73987 13.4106 9.08301 13.4106 10.7399V53.2209C13.4106 54.8778 14.7538 56.2209 16.4106 56.2209H47.5898C49.2466 56.2209 50.5898 54.8778 50.5898 53.2209V10.7399C50.5898 9.08301 49.2466 7.73987 47.5898 7.73987H16.4106ZM15.4106 10.7399C15.4106 10.1876 15.8584 9.73987 16.4106 9.73987H25.0459V10.8593C25.0459 12.7989 26.6183 14.3713 28.5579 14.3713H35.0886C37.0283 14.3713 38.6006 12.7989 38.6006 10.8593V9.73987H47.5898C48.1421 9.73987 48.5898 10.1876 48.5898 10.7399V53.2209C48.5898 53.7732 48.1421 54.2209 47.5898 54.2209H16.4106C15.8584 54.2209 15.4106 53.7732 15.4106 53.2209V10.7399ZM27.0459 9.91107H36.6006V10.8593C36.6006 11.6943 35.9237 12.3713 35.0886 12.3713H28.5579C27.7228 12.3713 27.0459 11.6943 27.0459 10.8593V9.91107Z" fill="#0B0D0E"/>
<path fill-rule="evenodd" clip-rule="evenodd" d="M36.0004 16.7252C38.1262 18.5958 39.2176 21.2169 39.2115 23.854C41.1133 22.5119 43.5753 21.993 45.9992 22.6425C46.5344 22.7859 46.8525 23.3361 46.7089 23.8718C45.6076 27.9821 41.5426 30.5067 37.4291 29.7628C39.1442 31.7387 39.0727 34.7893 37.1062 36.6761L22.0733 51.0995C20.4196 52.5908 17.935 50.6353 19.0201 48.6908L29.253 30.5789C30.5477 28.2873 33.3276 27.4432 35.6186 28.435C36.0197 27.9245 36.3439 27.3768 36.5926 26.8065C32.615 27.3287 28.7691 24.8346 27.7026 20.8546C27.5592 20.3194 27.8766 19.7688 28.4124 19.6253C31.7826 18.7222 35.2259 20.0778 37.1352 22.7641C36.8911 21.0656 36.0631 19.4444 34.6792 18.2267L33.0656 16.8068C32.6509 16.442 32.6106 15.8101 32.9754 15.3955C33.3403 14.9809 33.9721 14.9405 34.3868 15.3054L36.0004 16.7252ZM36.0486 24.8537C33.5139 25.0655 31.0959 23.6694 30.0117 21.3682C32.5467 21.1565 34.9645 22.5524 36.0486 24.8537ZM38.3629 27.8708C39.4468 25.5697 41.8648 24.1737 44.3999 24.3854C43.3157 26.6866 40.8979 28.0825 38.3629 27.8708ZM31.8963 38.9031L20.87 49.4823L24.7217 42.6649L25.2136 42.9968C25.6713 43.3058 26.2929 43.1851 26.6018 42.7273C26.9108 42.2695 26.7901 41.648 26.3323 41.339L25.7087 40.9181L30.9943 31.5627C31.9068 29.9477 34.0447 29.527 35.5009 30.6759C36.9424 31.8131 37.0464 33.9618 35.7216 35.2329L33.356 37.5025L31.4301 36.0227C30.9922 35.6862 30.3644 35.7684 30.0279 36.2063C29.6914 36.6442 29.7736 37.272 30.2115 37.6085L31.8963 38.9031Z" fill="#0B0D0E"/>
</svg>
