<svg width="65" height="64" viewBox="0 0 65 64" fill="none" xmlns="http://www.w3.org/2000/svg">
<path fill-rule="evenodd" clip-rule="evenodd" d="M38.83 5.32593C37.0352 5.32593 35.5802 6.78092 35.5802 8.57575C35.5802 10.3706 37.0352 11.8256 38.83 11.8256C40.6248 11.8256 42.0798 10.3706 42.0798 8.57575C42.0798 6.78092 40.6248 5.32593 38.83 5.32593ZM37.5802 8.57575C37.5802 7.88549 38.1398 7.32593 38.83 7.32593C39.5203 7.32593 40.0798 7.88549 40.0798 8.57575C40.0798 9.266 39.5203 9.82557 38.83 9.82557C38.1398 9.82557 37.5802 9.266 37.5802 8.57575Z" fill="black"/>
<path fill-rule="evenodd" clip-rule="evenodd" d="M27.2021 13.8258C27.2021 11.6166 28.993 9.82568 31.2022 9.82568C33.4114 9.82568 35.2023 11.6166 35.2023 13.8258C35.2023 16.0349 33.4114 17.8258 31.2022 17.8258C28.993 17.8258 27.2021 16.0349 27.2021 13.8258ZM31.2022 11.8257C30.0976 11.8257 29.2021 12.7211 29.2021 13.8258C29.2021 14.9304 30.0976 15.8258 31.2022 15.8258C32.3068 15.8258 33.2023 14.9304 33.2023 13.8258C33.2023 12.7211 32.3068 11.8257 31.2022 11.8257Z" fill="black"/>
<path fill-rule="evenodd" clip-rule="evenodd" d="M27.614 19.4014H36.7314C38.6468 19.4014 39.6061 21.7172 38.2517 23.0716L37.7315 23.5918C37.3283 23.995 36.7815 24.2215 36.2113 24.2215H36.0608L36.3617 36.8745C36.3698 37.2142 36.4735 37.5447 36.6609 37.8281L45.4034 51.0476C45.5989 51.3431 45.7031 51.6897 45.7031 52.044V53.2209C45.7031 54.2185 44.8943 55.0273 43.8966 55.0273H20.035C19.0373 55.0273 18.2285 54.2185 18.2285 53.2209V52.044C18.2285 51.6897 18.3327 51.3431 18.5282 51.0476L24.541 41.9556C24.5482 41.9002 24.56 41.8445 24.5769 41.7893C24.6535 41.5391 24.8192 41.3407 25.0286 41.2184L27.2707 37.8281C27.4582 37.5447 27.5619 37.2142 27.5699 36.8745L27.8712 24.2054C27.3979 24.147 26.9546 23.9325 26.6139 23.5918L26.0937 23.0716C24.7393 21.7172 25.6986 19.4014 27.614 19.4014ZM28.1342 22.2215C28.0944 22.2215 28.0562 22.2057 28.0281 22.1776L27.508 21.6574C27.4135 21.5629 27.4804 21.4014 27.614 21.4014H36.7314C36.865 21.4014 36.932 21.5629 36.8375 21.6574L36.3173 22.1776C36.2892 22.2057 36.2511 22.2215 36.2113 22.2215H28.1342ZM26.0578 43.2879L20.2285 52.1022V53.0273H43.7031V52.1022L38.176 43.7448C36.3006 44.0182 34.3704 43.5665 32.8012 42.4759C32.1441 42.0192 31.268 42.0155 30.617 42.4633L29.5 43.2316C28.7949 43.7166 27.9071 43.8534 27.0887 43.6032L26.0578 43.2879ZM36.9025 41.8191C35.854 41.7815 34.8215 41.4444 33.9427 40.8336C32.6106 39.9077 30.8284 39.8904 29.4835 40.8155L28.3665 41.5838C28.1639 41.7232 27.9088 41.7625 27.6736 41.6906L27.2083 41.5483L28.9389 38.9313C29.3338 38.3342 29.5524 37.6378 29.5694 36.9221L29.8694 24.3037H34.0622L34.3622 36.9221C34.3793 37.6378 34.5978 38.3342 34.9927 38.9313L36.9025 41.8191Z" fill="black"/>
</svg>
