<svg width="64" height="64" viewBox="0 0 64 64" fill="none" xmlns="http://www.w3.org/2000/svg">
<path fill-rule="evenodd" clip-rule="evenodd" d="M41.2529 7.09752C40.936 6.64091 41.0347 6.0033 41.4732 5.67338C43.9652 3.79855 47.4641 4.02819 49.708 6.3646C52.197 8.95629 52.197 13.1583 49.708 15.7499C47.4641 18.0864 43.9652 18.316 41.4732 16.4412C41.0347 16.1112 40.936 15.4736 41.2529 15.017C41.5698 14.5604 42.1821 14.4577 42.6206 14.7876C44.3455 16.0853 46.7696 15.9245 48.3226 14.3075C50.0466 12.5124 50.0466 9.60211 48.3226 7.80709C46.7696 6.19004 44.3455 6.02921 42.6206 7.3269C42.1821 7.65682 41.5698 7.55412 41.2529 7.09752Z" fill="#212121"/>
<path fill-rule="evenodd" clip-rule="evenodd" d="M56.5759 7.09752C56.8927 6.64091 56.7941 6.0033 56.3556 5.67338C53.8636 3.79855 50.3647 4.02819 48.1208 6.3646C45.6317 8.95629 45.6317 13.1583 48.1208 15.7499C50.3647 18.0864 53.8636 18.316 56.3556 16.4412C56.7941 16.1112 56.8927 15.4736 56.5759 15.017C56.259 14.5604 55.6467 14.4577 55.2082 14.7876C53.4833 16.0853 51.0592 15.9245 49.5062 14.3075C47.7822 12.5124 47.7822 9.60211 49.5062 7.80709C51.0592 6.19004 53.4833 6.02921 55.2082 7.3269C55.6467 7.65682 56.259 7.55412 56.5759 7.09752Z" fill="#212121"/>
<path d="M56.5351 11.3006L58.3112 7.78878C58.337 7.73778 58.4144 7.76298 58.4052 7.81939L57.9571 10.5689C57.9521 10.5994 57.9756 10.627 58.0064 10.627H59.4151C59.4529 10.627 59.477 10.6672 59.4593 10.7005L57.5892 14.2159C57.5623 14.2664 57.4856 14.2397 57.4958 14.1835L57.9984 11.4322C58.004 11.4015 57.9804 11.3732 57.9492 11.3732H56.5797C56.5424 11.3732 56.5183 11.3339 56.5351 11.3006Z" fill="#212121"/>
<path fill-rule="evenodd" clip-rule="evenodd" d="M56.1781 11.1201L57.9543 7.60826C58.1864 7.14925 58.8827 7.37603 58.8 7.88374L58.4181 10.227H59.4151C59.7547 10.227 59.9719 10.5886 59.8124 10.8883L57.9423 14.4038C57.7009 14.8576 57.01 14.6172 57.1023 14.1116L57.5295 11.7732H56.5797C56.2442 11.7732 56.0268 11.4194 56.1781 11.1201ZM57.9492 11.3732C57.9804 11.3732 58.004 11.4015 57.9984 11.4322L57.4958 14.1835C57.4856 14.2397 57.5623 14.2664 57.5892 14.2159L59.4593 10.7005C59.477 10.6672 59.4529 10.627 59.4151 10.627H58.0064C57.9756 10.627 57.9521 10.5994 57.9571 10.5689L58.4052 7.81939C58.4144 7.76298 58.337 7.73778 58.3112 7.78878L56.5351 11.3006C56.5183 11.3339 56.5424 11.3732 56.5797 11.3732H57.9492Z" fill="#212121"/>
<path fill-rule="evenodd" clip-rule="evenodd" d="M40.618 8.31187C40.9981 8.14725 41.4397 8.32194 41.6043 8.70204L41.769 9.0824C41.9077 9.40262 41.9842 9.7463 41.9944 10.0951L42.0019 10.3538C42.0153 10.8146 41.8794 11.2674 41.6143 11.6446C41.5379 11.7532 41.4975 11.8829 41.4985 12.0157L41.4998 12.1722C41.5011 12.332 41.5365 12.4897 41.6035 12.6347L41.7274 12.9028C41.9011 13.2788 41.7371 13.7245 41.3611 13.8982C40.9851 14.072 40.5394 13.908 40.3657 13.532L40.2418 13.2639C40.0854 12.9254 40.0029 12.5574 39.9999 12.1844L39.9986 12.0279C39.995 11.5822 40.1308 11.1466 40.3871 10.782C40.466 10.6696 40.5065 10.5348 40.5025 10.3975L40.495 10.1388C40.4904 9.98028 40.4556 9.82406 40.3926 9.67851L40.2279 9.29815C40.0633 8.91805 40.2379 8.47648 40.618 8.31187Z" fill="#212121"/>
<path fill-rule="evenodd" clip-rule="evenodd" d="M38.348 8.31187C38.7281 8.14725 39.1697 8.32194 39.3343 8.70204L39.499 9.0824C39.6377 9.40262 39.7142 9.7463 39.7244 10.0951L39.7319 10.3538C39.7453 10.8146 39.6094 11.2674 39.3443 11.6446C39.2679 11.7532 39.2275 11.8829 39.2285 12.0157L39.2298 12.1722C39.2311 12.332 39.2665 12.4897 39.3335 12.6347L39.4574 12.9028C39.6311 13.2788 39.4671 13.7245 39.0911 13.8982C38.7151 14.072 38.2694 13.908 38.0957 13.532L37.9718 13.2639C37.8154 12.9254 37.7329 12.5574 37.7299 12.1844L37.7286 12.0279C37.725 11.5822 37.8608 11.1466 38.1171 10.782C38.196 10.6696 38.2365 10.5348 38.2325 10.3975L38.225 10.1388C38.2204 9.98028 38.1856 9.82406 38.1226 9.67851L37.9579 9.29815C37.7933 8.91805 37.9679 8.47648 38.348 8.31187Z" fill="#212121"/>
<path fill-rule="evenodd" clip-rule="evenodd" d="M42.8715 8.31186C43.2516 8.14725 43.6932 8.32194 43.8578 8.70205L44.0225 9.0824C44.1612 9.40262 44.2376 9.7463 44.2478 10.0951L44.2553 10.3538C44.2688 10.8146 44.1328 11.2674 43.8677 11.6446C43.7914 11.7532 43.7509 11.8829 43.752 12.0157L43.7532 12.1722C43.7545 12.332 43.7899 12.4897 43.8569 12.6347L43.9808 12.9028C44.1545 13.2788 43.9906 13.7245 43.6146 13.8982C43.2385 14.072 42.7929 13.908 42.6191 13.532L42.4953 13.2639C42.3388 12.9254 42.2563 12.5574 42.2533 12.1844L42.252 12.0279C42.2484 11.5822 42.3842 11.1466 42.6405 10.782C42.7195 10.6697 42.76 10.5348 42.756 10.3975L42.7484 10.1388C42.7438 9.98028 42.7091 9.82406 42.646 9.67851L42.4813 9.29815C42.3167 8.91805 42.4914 8.47647 42.8715 8.31186Z" fill="#212121"/>
<path d="M26.5549 19.1137L25.9374 19.9998C26.5549 19.1137 26.5558 19.1144 26.5561 19.1146L26.558 19.1159L26.564 19.1202L26.5848 19.1348C26.6025 19.1473 26.6276 19.1653 26.66 19.1885C26.7246 19.2351 26.8179 19.303 26.9366 19.3916C27.1741 19.5687 27.5138 19.8285 27.9308 20.1648C28.7641 20.837 29.9092 21.8175 31.165 23.0573C33.6656 25.5262 36.6566 29.074 38.4651 33.3088C38.6993 33.8573 38.4445 34.4919 37.896 34.7261C37.3475 34.9604 36.7129 34.7056 36.4786 34.1571C34.8245 30.2837 32.0484 26.965 29.6474 24.5944C28.4523 23.4144 27.363 22.4819 26.5747 21.846C26.3218 21.6421 26.1002 21.4689 25.9164 21.3281C25.5547 21.5878 25.0496 21.9635 24.4474 22.4459C23.1809 23.4603 21.4936 24.94 19.8092 26.7998C16.4169 30.5453 13.16 35.6938 13.16 41.5998C13.16 45.0506 13.9826 48.3802 15.9385 50.8252C17.8613 53.2289 20.9924 54.9198 25.9374 54.9198C28.461 54.9198 30.5038 54.478 32.1468 53.7398C32.6909 53.4953 33.3301 53.7382 33.5746 54.2823C33.819 54.8264 33.5761 55.4656 33.0321 55.7101C31.0666 56.5931 28.7139 57.0798 25.9374 57.0798C20.4461 57.0798 16.6485 55.1707 14.2517 52.1745C11.8879 49.2195 11 45.349 11 41.5998C11 34.9058 14.6718 29.2544 18.2082 25.3498C19.9881 23.3846 21.7652 21.8268 23.097 20.76C23.7637 20.226 24.321 19.8133 24.7141 19.5324C24.9108 19.3919 25.0665 19.2843 25.1746 19.2108C25.2286 19.1741 25.2708 19.1459 25.3001 19.1264L25.3345 19.1036L25.3443 19.0972L25.3491 19.0941L25.936 19.9976L25.4228 19.2071C25.3505 19.0957 25.3493 19.094 25.3491 19.0941L25.9586 18.6982L26.5549 19.1137Z" fill="#212121"/>
<path d="M21.3927 34.3281C20.7962 34.3281 20.3127 34.8117 20.3127 35.4081V45.096C20.3127 45.6925 20.7962 46.176 21.3927 46.176C21.9891 46.176 22.4727 45.6925 22.4727 45.096V41.7699H28.2433V45.096C28.2433 45.6925 28.7269 46.176 29.3233 46.176C29.9198 46.176 30.4033 45.6925 30.4033 45.096V35.4081C30.4033 34.8117 29.9198 34.3281 29.3233 34.3281C28.7269 34.3281 28.2433 34.8117 28.2433 35.4081V39.6099H22.4727V35.4081C22.4727 34.8117 21.9891 34.3281 21.3927 34.3281Z" fill="#212121"/>
<path d="M35.7463 43.5663C35.9412 42.701 36.4973 42.3626 37.086 42.3158C37.7538 42.2628 38.3964 42.59 38.671 43.0693C39.0226 43.683 39.1062 44.1688 39.0623 44.5745C39.0173 44.9908 38.8261 45.4312 38.4444 45.9254C37.6458 46.9597 36.2314 47.9712 34.4596 49.2076C33.5858 49.8174 34.0017 51.2099 35.0887 51.2099L41.3267 51.2099C41.879 51.2099 42.3267 50.7622 42.3267 50.2099C42.3267 49.6576 41.879 49.2099 41.3267 49.2099L37.8668 49.2099C38.7129 48.5497 39.4708 47.8686 40.0274 47.1478C40.5583 46.4602 40.9545 45.6794 41.0507 44.7895C41.1481 43.8889 40.9268 42.9834 40.4064 42.0751C39.6908 40.8261 38.2474 40.2174 36.9278 40.3221C35.529 40.4331 34.1963 41.346 33.7952 43.1268C33.6738 43.6656 34.0122 44.2008 34.551 44.3221C35.0898 44.4435 35.6249 44.1051 35.7463 43.5663Z" fill="#212121"/>
</svg>
