<svg width="64" height="64" viewBox="0 0 64 64" fill="none" xmlns="http://www.w3.org/2000/svg">
<path fill-rule="evenodd" clip-rule="evenodd" d="M41.2529 7.09752C40.936 6.64091 41.0347 6.0033 41.4732 5.67338C43.9652 3.79855 47.4641 4.02819 49.708 6.3646C52.197 8.95629 52.197 13.1583 49.708 15.7499C47.4641 18.0864 43.9652 18.316 41.4732 16.4412C41.0347 16.1112 40.936 15.4736 41.2529 15.017C41.5698 14.5604 42.1821 14.4577 42.6206 14.7876C44.3455 16.0853 46.7696 15.9245 48.3226 14.3075C50.0466 12.5124 50.0466 9.60211 48.3226 7.80709C46.7696 6.19004 44.3455 6.02921 42.6206 7.3269C42.1821 7.65682 41.5698 7.55412 41.2529 7.09752Z" fill="#212121"/>
<path fill-rule="evenodd" clip-rule="evenodd" d="M56.5759 7.09752C56.8927 6.64091 56.7941 6.0033 56.3556 5.67338C53.8636 3.79855 50.3647 4.02819 48.1208 6.3646C45.6317 8.95629 45.6317 13.1583 48.1208 15.7499C50.3647 18.0864 53.8636 18.316 56.3556 16.4412C56.7941 16.1112 56.8927 15.4736 56.5759 15.017C56.259 14.5604 55.6467 14.4577 55.2082 14.7876C53.4833 16.0853 51.0592 15.9245 49.5062 14.3075C47.7822 12.5124 47.7822 9.60211 49.5062 7.80709C51.0592 6.19004 53.4833 6.02921 55.2082 7.3269C55.6467 7.65682 56.259 7.55412 56.5759 7.09752Z" fill="#212121"/>
<path d="M56.5351 11.3006L58.3112 7.78878C58.337 7.73778 58.4144 7.76298 58.4052 7.81939L57.9571 10.5689C57.9521 10.5994 57.9756 10.627 58.0064 10.627H59.4151C59.4529 10.627 59.477 10.6672 59.4593 10.7005L57.5892 14.2159C57.5623 14.2664 57.4856 14.2397 57.4958 14.1835L57.9984 11.4322C58.004 11.4015 57.9804 11.3732 57.9492 11.3732H56.5797C56.5424 11.3732 56.5183 11.3339 56.5351 11.3006Z" fill="#212121"/>
<path fill-rule="evenodd" clip-rule="evenodd" d="M56.1781 11.1201L57.9543 7.60826C58.1864 7.14925 58.8827 7.37603 58.8 7.88374L58.4181 10.227H59.4151C59.7547 10.227 59.9719 10.5886 59.8124 10.8883L57.9423 14.4038C57.7009 14.8576 57.01 14.6172 57.1023 14.1116L57.5295 11.7732H56.5797C56.2442 11.7732 56.0268 11.4194 56.1781 11.1201ZM57.9492 11.3732C57.9804 11.3732 58.004 11.4015 57.9984 11.4322L57.4958 14.1835C57.4856 14.2397 57.5623 14.2664 57.5892 14.2159L59.4593 10.7005C59.477 10.6672 59.4529 10.627 59.4151 10.627H58.0064C57.9756 10.627 57.9521 10.5994 57.9571 10.5689L58.4052 7.81939C58.4144 7.76298 58.337 7.73778 58.3112 7.78878L56.5351 11.3006C56.5183 11.3339 56.5424 11.3732 56.5797 11.3732H57.9492Z" fill="#212121"/>
<path fill-rule="evenodd" clip-rule="evenodd" d="M40.618 8.31187C40.9981 8.14725 41.4397 8.32194 41.6043 8.70204L41.769 9.0824C41.9077 9.40262 41.9842 9.7463 41.9944 10.0951L42.0019 10.3538C42.0153 10.8146 41.8794 11.2674 41.6143 11.6446C41.5379 11.7532 41.4975 11.8829 41.4985 12.0157L41.4998 12.1722C41.5011 12.332 41.5365 12.4897 41.6035 12.6347L41.7274 12.9028C41.9011 13.2788 41.7371 13.7245 41.3611 13.8982C40.9851 14.072 40.5394 13.908 40.3657 13.532L40.2418 13.2639C40.0854 12.9254 40.0029 12.5574 39.9999 12.1844L39.9986 12.0279C39.995 11.5822 40.1308 11.1466 40.3871 10.782C40.466 10.6696 40.5065 10.5348 40.5025 10.3975L40.495 10.1388C40.4904 9.98028 40.4556 9.82406 40.3926 9.67851L40.2279 9.29815C40.0633 8.91805 40.2379 8.47648 40.618 8.31187Z" fill="#212121"/>
<path fill-rule="evenodd" clip-rule="evenodd" d="M38.348 8.31187C38.7281 8.14725 39.1697 8.32194 39.3343 8.70204L39.499 9.0824C39.6377 9.40262 39.7142 9.7463 39.7244 10.0951L39.7319 10.3538C39.7453 10.8146 39.6094 11.2674 39.3443 11.6446C39.2679 11.7532 39.2275 11.8829 39.2285 12.0157L39.2298 12.1722C39.2311 12.332 39.2665 12.4897 39.3335 12.6347L39.4574 12.9028C39.6311 13.2788 39.4671 13.7245 39.0911 13.8982C38.7151 14.072 38.2694 13.908 38.0957 13.532L37.9718 13.2639C37.8154 12.9254 37.7329 12.5574 37.7299 12.1844L37.7286 12.0279C37.725 11.5822 37.8608 11.1466 38.1171 10.782C38.196 10.6696 38.2365 10.5348 38.2325 10.3975L38.225 10.1388C38.2204 9.98028 38.1856 9.82406 38.1226 9.67851L37.9579 9.29815C37.7933 8.91805 37.9679 8.47648 38.348 8.31187Z" fill="#212121"/>
<path fill-rule="evenodd" clip-rule="evenodd" d="M42.8715 8.31186C43.2516 8.14725 43.6932 8.32194 43.8578 8.70205L44.0225 9.0824C44.1612 9.40262 44.2376 9.7463 44.2478 10.0951L44.2553 10.3538C44.2688 10.8146 44.1328 11.2674 43.8677 11.6446C43.7914 11.7532 43.7509 11.8829 43.752 12.0157L43.7532 12.1722C43.7545 12.332 43.7899 12.4897 43.8569 12.6347L43.9808 12.9028C44.1545 13.2788 43.9906 13.7245 43.6146 13.8982C43.2385 14.072 42.7929 13.908 42.6191 13.532L42.4953 13.2639C42.3388 12.9254 42.2563 12.5574 42.2533 12.1844L42.252 12.0279C42.2484 11.5822 42.3842 11.1466 42.6405 10.782C42.7195 10.6697 42.76 10.5348 42.756 10.3975L42.7484 10.1388C42.7438 9.98028 42.7091 9.82406 42.646 9.67851L42.4813 9.29815C42.3167 8.91805 42.4914 8.47647 42.8715 8.31186Z" fill="#212121"/>
<path d="M23.0036 41.9974C23.0049 41.4451 22.5583 40.9962 22.006 40.9949C21.4538 40.9935 21.0049 41.4401 21.0036 41.9924C20.9991 43.7736 21.3536 45.8037 22.3904 47.4225C23.4646 49.0997 25.233 50.2642 27.8192 50.2643C28.3715 50.2643 28.8192 49.8166 28.8192 49.2643C28.8192 48.712 28.3715 48.2643 27.8192 48.2643C25.9366 48.2642 24.793 47.4656 24.0745 46.3438C23.3186 45.1636 22.9997 43.5591 23.0036 41.9974Z" fill="#212121"/>
<path fill-rule="evenodd" clip-rule="evenodd" d="M42.9929 41.0848C42.9903 48.4449 39.6564 55.8038 29.4942 55.8002C19.332 55.7967 16.0033 48.4354 16.0059 41.0753C16.0094 30.9131 29.5072 18.9998 29.5072 18.9998C29.5072 18.9998 42.9965 30.9226 42.9929 41.0848ZM40.9929 41.0841C40.9917 44.5066 40.2097 47.7005 38.463 49.9912C36.7845 52.1924 34.0338 53.8018 29.4949 53.8002C24.956 53.7986 22.2065 52.1873 20.5295 49.9849C18.7844 47.693 18.0047 44.4985 18.0059 41.076C18.0066 38.9585 18.7173 36.6235 19.9078 34.2293C21.091 31.8496 22.6896 29.528 24.3239 27.4707C25.9538 25.4188 27.5887 23.6677 28.818 22.4285C29.0654 22.1791 29.296 21.9508 29.5062 21.7456C29.7162 21.951 29.9466 22.1794 30.1939 22.429C31.4223 23.669 33.056 25.4214 34.6844 27.4743C36.3172 29.5328 37.9142 31.8555 39.0958 34.236C40.2846 36.6311 40.9936 38.9666 40.9929 41.0841Z" fill="#212121"/>
</svg>
