<svg width="64" height="64" viewBox="0 0 64 64" fill="none" xmlns="http://www.w3.org/2000/svg">
<path fill-rule="evenodd" clip-rule="evenodd" d="M41.2529 7.09752C40.936 6.64091 41.0347 6.0033 41.4732 5.67338C43.9652 3.79855 47.4641 4.02819 49.708 6.3646C52.197 8.95629 52.197 13.1583 49.708 15.7499C47.4641 18.0864 43.9652 18.316 41.4732 16.4412C41.0347 16.1112 40.936 15.4736 41.2529 15.017C41.5698 14.5604 42.1821 14.4577 42.6206 14.7876C44.3455 16.0853 46.7696 15.9245 48.3226 14.3075C50.0466 12.5124 50.0466 9.60211 48.3226 7.80709C46.7696 6.19004 44.3455 6.02921 42.6206 7.3269C42.1821 7.65682 41.5698 7.55412 41.2529 7.09752Z" fill="#212121"/>
<path fill-rule="evenodd" clip-rule="evenodd" d="M56.5759 7.09752C56.8927 6.64091 56.7941 6.0033 56.3556 5.67338C53.8636 3.79855 50.3647 4.02819 48.1208 6.3646C45.6317 8.95629 45.6317 13.1583 48.1208 15.7499C50.3647 18.0864 53.8636 18.316 56.3556 16.4412C56.7941 16.1112 56.8927 15.4736 56.5759 15.017C56.259 14.5604 55.6467 14.4577 55.2082 14.7876C53.4833 16.0853 51.0592 15.9245 49.5062 14.3075C47.7822 12.5124 47.7822 9.60211 49.5062 7.80709C51.0592 6.19004 53.4833 6.02921 55.2082 7.3269C55.6467 7.65682 56.259 7.55412 56.5759 7.09752Z" fill="#212121"/>
<path d="M56.5351 11.3006L58.3112 7.78878C58.337 7.73778 58.4144 7.76298 58.4052 7.81939L57.9571 10.5689C57.9521 10.5994 57.9756 10.627 58.0064 10.627H59.4151C59.4529 10.627 59.477 10.6672 59.4593 10.7005L57.5892 14.2159C57.5623 14.2664 57.4856 14.2397 57.4958 14.1835L57.9984 11.4322C58.004 11.4015 57.9804 11.3732 57.9492 11.3732H56.5797C56.5424 11.3732 56.5183 11.3339 56.5351 11.3006Z" fill="#212121"/>
<path fill-rule="evenodd" clip-rule="evenodd" d="M56.1781 11.1201L57.9543 7.60826C58.1864 7.14925 58.8827 7.37603 58.8 7.88374L58.4181 10.227H59.4151C59.7547 10.227 59.9719 10.5886 59.8124 10.8883L57.9423 14.4038C57.7009 14.8576 57.01 14.6172 57.1023 14.1116L57.5295 11.7732H56.5797C56.2442 11.7732 56.0268 11.4194 56.1781 11.1201ZM57.9492 11.3732C57.9804 11.3732 58.004 11.4015 57.9984 11.4322L57.4958 14.1835C57.4856 14.2397 57.5623 14.2664 57.5892 14.2159L59.4593 10.7005C59.477 10.6672 59.4529 10.627 59.4151 10.627H58.0064C57.9756 10.627 57.9521 10.5994 57.9571 10.5689L58.4052 7.81939C58.4144 7.76298 58.337 7.73778 58.3112 7.78878L56.5351 11.3006C56.5183 11.3339 56.5424 11.3732 56.5797 11.3732H57.9492Z" fill="#212121"/>
<path fill-rule="evenodd" clip-rule="evenodd" d="M40.618 8.31187C40.9981 8.14725 41.4397 8.32194 41.6043 8.70204L41.769 9.0824C41.9077 9.40262 41.9842 9.7463 41.9944 10.0951L42.0019 10.3538C42.0153 10.8146 41.8794 11.2674 41.6143 11.6446C41.5379 11.7532 41.4975 11.8829 41.4985 12.0157L41.4998 12.1722C41.5011 12.332 41.5365 12.4897 41.6035 12.6347L41.7274 12.9028C41.9011 13.2788 41.7371 13.7245 41.3611 13.8982C40.9851 14.072 40.5394 13.908 40.3657 13.532L40.2418 13.2639C40.0854 12.9254 40.0029 12.5574 39.9999 12.1844L39.9986 12.0279C39.995 11.5822 40.1308 11.1466 40.3871 10.782C40.466 10.6696 40.5065 10.5348 40.5025 10.3975L40.495 10.1388C40.4904 9.98028 40.4556 9.82406 40.3926 9.67851L40.2279 9.29815C40.0633 8.91805 40.2379 8.47648 40.618 8.31187Z" fill="#212121"/>
<path fill-rule="evenodd" clip-rule="evenodd" d="M38.348 8.31187C38.7281 8.14725 39.1697 8.32194 39.3343 8.70204L39.499 9.0824C39.6377 9.40262 39.7142 9.7463 39.7244 10.0951L39.7319 10.3538C39.7453 10.8146 39.6094 11.2674 39.3443 11.6446C39.2679 11.7532 39.2275 11.8829 39.2285 12.0157L39.2298 12.1722C39.2311 12.332 39.2665 12.4897 39.3335 12.6347L39.4574 12.9028C39.6311 13.2788 39.4671 13.7245 39.0911 13.8982C38.7151 14.072 38.2694 13.908 38.0957 13.532L37.9718 13.2639C37.8154 12.9254 37.7329 12.5574 37.7299 12.1844L37.7286 12.0279C37.725 11.5822 37.8608 11.1466 38.1171 10.782C38.196 10.6696 38.2365 10.5348 38.2325 10.3975L38.225 10.1388C38.2204 9.98028 38.1856 9.82406 38.1226 9.67851L37.9579 9.29815C37.7933 8.91805 37.9679 8.47648 38.348 8.31187Z" fill="#212121"/>
<path fill-rule="evenodd" clip-rule="evenodd" d="M42.8715 8.31186C43.2516 8.14725 43.6932 8.32194 43.8578 8.70205L44.0225 9.0824C44.1612 9.40262 44.2376 9.7463 44.2478 10.0951L44.2553 10.3538C44.2688 10.8146 44.1328 11.2674 43.8677 11.6446C43.7914 11.7532 43.7509 11.8829 43.752 12.0157L43.7532 12.1722C43.7545 12.332 43.7899 12.4897 43.8569 12.6347L43.9808 12.9028C44.1545 13.2788 43.9906 13.7245 43.6146 13.8982C43.2385 14.072 42.7929 13.908 42.6191 13.532L42.4953 13.2639C42.3388 12.9254 42.2563 12.5574 42.2533 12.1844L42.252 12.0279C42.2484 11.5822 42.3842 11.1466 42.6405 10.782C42.7195 10.6697 42.76 10.5348 42.756 10.3975L42.7484 10.1388C42.7438 9.98028 42.7091 9.82406 42.646 9.67851L42.4813 9.29815C42.3167 8.91805 42.4914 8.47647 42.8715 8.31186Z" fill="#212121"/>
<path fill-rule="evenodd" clip-rule="evenodd" d="M16.916 48.6704C16.916 47.9525 17.498 47.3704 18.216 47.3704H23.9732C24.6911 47.3704 25.2732 47.9525 25.2732 48.6704V49.7341H36.7255V48.6704C36.7255 47.9525 37.3076 47.3704 38.0255 47.3704H43.7827C44.5007 47.3704 45.0827 47.9525 45.0827 48.6704V55.328C45.0827 56.046 44.5006 56.628 43.7827 56.628H18.216C17.498 56.628 16.916 56.046 16.916 55.328V48.6704ZM19.0827 49.5371V54.4613H42.916V49.5371H38.8922V50.6007C38.8922 51.3187 38.3102 51.9007 37.5922 51.9007H24.4065C23.6885 51.9007 23.1065 51.3187 23.1065 50.6007V49.5371H19.0827Z" fill="#212121"/>
<path fill-rule="evenodd" clip-rule="evenodd" d="M34.0131 46.9854L34.1848 46.9613C39.4785 45.8513 43.4707 41.3116 43.9529 35.93C44.1124 34.1489 43.8563 32.42 43.2605 30.8293L43.2333 30.8125C42.4899 28.9409 40.9659 27.6255 39.4337 26.303C38.8286 25.7807 38.2222 25.2573 37.6621 24.6981C34.8617 21.9022 33.2661 18.0595 33.5791 13.9648C33.5835 13.9064 33.5884 13.848 33.5936 13.7895C33.6403 13.2684 33.1462 12.8469 32.672 13.0537C32.5832 13.0925 32.4945 13.1321 32.4062 13.1725C32.1117 13.3074 31.8204 13.4515 31.5329 13.6049C31.499 13.623 31.4652 13.6412 31.4313 13.6595L31.43 13.6603C30.6565 14.0801 29.9109 14.5675 29.2019 15.1231C25.1048 18.3341 23.1706 23.0911 23.5437 27.7799C23.547 27.8212 23.5505 27.8624 23.5541 27.9037C23.5805 28.2021 23.6161 28.5001 23.6612 28.7974C23.6936 29.0106 23.7307 29.2235 23.7728 29.4358L23.7752 29.4483C23.8121 29.6338 23.8527 29.819 23.897 30.0036C24.0358 30.5821 23.5159 31.1265 22.9995 30.8427C22.9239 30.8011 22.8567 30.7591 22.8026 30.7176C22.6607 30.6089 22.5309 30.4893 22.4122 30.3599C22.2058 30.1348 22.033 29.8798 21.8892 29.6003C21.8669 29.557 21.8453 29.5131 21.8244 29.4687L21.8137 29.4457C21.7759 29.3642 21.7403 29.2807 21.7069 29.1954C21.6868 29.1441 21.6675 29.0921 21.6489 29.0395C21.574 28.8276 21.5114 28.6058 21.4596 28.3758C21.447 28.3201 21.4293 28.2672 21.4072 28.2175C21.1878 27.7241 20.536 27.5437 20.2063 28.0024C20.1848 28.0323 20.1635 28.0622 20.1423 28.0922C19.9859 28.314 19.837 28.5412 19.696 28.7734C19.616 28.9051 19.5385 29.0385 19.4636 29.1734L19.4375 29.2205C18.6811 30.598 18.194 32.1385 18.0462 33.7872C17.441 40.5422 22.764 46.5534 29.9355 47.2136C31.3401 47.3429 32.7113 47.2573 34.0131 46.9854ZM41.2197 31.6124L41.3797 32.0152C41.7581 33.191 41.9104 34.4464 41.7948 35.7366C41.5569 38.3919 40.2804 40.7992 38.3631 42.5013C38.9084 41.3945 39.1689 40.1354 39.0573 38.8272C39.0132 38.3109 38.9135 37.8133 38.7644 37.3396C38.7298 37.2295 38.6925 37.1207 38.6526 37.0132C38.5147 36.6419 38.346 36.2867 38.1496 35.9503C38.1183 35.8967 38.0863 35.8435 38.0536 35.7909C38.0109 35.7221 37.967 35.6541 37.9219 35.587L37.8873 35.5359C37.729 35.3045 37.4336 35.3589 37.2857 35.5698C37.25 35.6207 37.2229 35.6809 37.2084 35.7483C37.1858 35.8537 37.1594 35.9561 37.1288 36.055C37.1202 36.0827 37.1112 36.1102 37.102 36.1373C37.0082 36.4124 36.8795 36.6577 36.7061 36.8613C36.6604 36.9149 36.6116 36.9656 36.5596 37.0132C36.5364 37.0344 36.5126 37.055 36.4881 37.0749L36.4809 37.0807C36.4516 37.1043 36.4152 37.1282 36.3742 37.1519C36.0946 37.3133 35.8129 37.0036 35.8881 36.6744C35.908 36.5875 35.9265 36.5004 35.9436 36.4131L35.9446 36.4077C36.0031 36.1081 36.0455 35.8066 36.0717 35.5044C36.0805 35.4031 36.0875 35.3018 36.0927 35.2005C36.114 34.7866 36.1052 34.3723 36.0667 33.9611C35.8636 31.7897 34.8319 29.704 33.0146 28.208C32.8991 28.1129 32.7818 28.0213 32.6629 27.9333C32.6309 27.9096 32.5988 27.8862 32.5666 27.8631C32.3632 27.7168 32.1551 27.5806 31.9429 27.4544C31.8846 27.4197 31.8261 27.3858 31.7672 27.3527C31.6065 27.2622 31.4437 27.1774 31.2789 27.0982C31.2311 27.0752 31.1831 27.0526 31.135 27.0306C30.8782 26.9129 30.6105 27.1527 30.6358 27.4492C30.6386 27.4825 30.6412 27.5157 30.6437 27.5489C30.6561 27.7192 30.6629 27.8888 30.6644 28.0574C30.6654 28.1666 30.6641 28.2754 30.6606 28.3838C30.6543 28.5768 30.6411 28.7684 30.621 28.9583L30.6162 29.0031C30.4185 30.7765 29.6282 32.4014 28.432 33.6558C28.1287 33.974 27.8002 34.2718 27.4724 34.5689C26.6425 35.3214 25.817 36.0698 25.4143 37.1347L25.3996 37.1442C25.0768 38.0493 24.9381 39.033 25.0245 40.0464C25.1618 41.6558 25.8243 43.1328 26.8384 44.2638C22.5503 42.5349 19.81 38.3809 20.2043 33.9805C20.2756 33.1841 20.4441 32.4188 20.6984 31.6931C20.9266 31.9591 21.1871 32.2094 21.4847 32.4374C21.6554 32.5682 21.8242 32.6691 21.956 32.7415C23.1496 33.3975 24.4323 33.0536 25.2074 32.297C25.9245 31.597 26.2533 30.5376 26.0039 29.498C24.9131 24.9524 26.464 20.0217 30.5384 16.8285C30.8258 16.6033 31.1201 16.391 31.4208 16.1916C31.7239 20.0466 33.4641 23.5685 36.1312 26.2314C36.6858 26.7851 37.2685 27.2952 37.804 27.7584L38.0211 27.9459C38.4874 28.3484 38.9119 28.715 39.3163 29.0953C40.2437 29.9674 40.874 30.7419 41.2197 31.6124ZM27.285 37.8421L27.2069 38.0487C27.033 38.6256 26.9632 39.2418 27.0173 39.8764C27.2078 42.1094 28.764 43.9021 30.6838 44.3555L30.7693 44.3681L30.8373 44.383C31.3401 44.4933 31.8733 44.5289 32.4248 44.4756C35.2277 44.2046 37.279 41.7494 37.0675 39.0338C36.1172 39.4173 35.1447 39.0866 34.5663 38.4936C33.9887 37.9014 33.7519 37.0452 33.9383 36.229C34.4091 34.1684 33.8727 31.976 32.4056 30.3789C31.9925 32.1472 31.1045 33.7513 29.8795 35.036C29.5575 35.3737 29.223 35.6808 28.9323 35.945L28.8131 36.0531C28.5595 36.2831 28.3434 36.479 28.1375 36.6825C27.6705 37.1438 27.4173 37.4923 27.285 37.8421Z" fill="#212121"/>
</svg>
