<svg width="64" height="64" viewBox="0 0 64 64" fill="none" xmlns="http://www.w3.org/2000/svg">
<path fill-rule="evenodd" clip-rule="evenodd" d="M41.2529 7.09752C40.936 6.64091 41.0347 6.0033 41.4732 5.67338C43.9652 3.79855 47.4641 4.02819 49.708 6.3646C52.197 8.95629 52.197 13.1583 49.708 15.7499C47.4641 18.0864 43.9652 18.316 41.4732 16.4412C41.0347 16.1112 40.936 15.4736 41.2529 15.017C41.5698 14.5604 42.1821 14.4577 42.6206 14.7876C44.3455 16.0853 46.7696 15.9245 48.3226 14.3075C50.0466 12.5124 50.0466 9.60211 48.3226 7.80709C46.7696 6.19004 44.3455 6.02921 42.6206 7.3269C42.1821 7.65682 41.5698 7.55412 41.2529 7.09752Z" fill="#212121"/>
<path fill-rule="evenodd" clip-rule="evenodd" d="M56.5759 7.09752C56.8927 6.64091 56.7941 6.0033 56.3556 5.67338C53.8636 3.79855 50.3647 4.02819 48.1208 6.3646C45.6317 8.95629 45.6317 13.1583 48.1208 15.7499C50.3647 18.0864 53.8636 18.316 56.3556 16.4412C56.7941 16.1112 56.8927 15.4736 56.5759 15.017C56.259 14.5604 55.6467 14.4577 55.2082 14.7876C53.4833 16.0853 51.0592 15.9245 49.5062 14.3075C47.7822 12.5124 47.7822 9.60211 49.5062 7.80709C51.0592 6.19004 53.4833 6.02921 55.2082 7.3269C55.6467 7.65682 56.259 7.55412 56.5759 7.09752Z" fill="#212121"/>
<path d="M56.5351 11.3006L58.3112 7.78878C58.337 7.73778 58.4144 7.76298 58.4052 7.81939L57.9571 10.5689C57.9521 10.5994 57.9756 10.627 58.0064 10.627H59.4151C59.4529 10.627 59.477 10.6672 59.4593 10.7005L57.5892 14.2159C57.5623 14.2664 57.4856 14.2397 57.4958 14.1835L57.9984 11.4322C58.004 11.4015 57.9804 11.3732 57.9492 11.3732H56.5797C56.5424 11.3732 56.5183 11.3339 56.5351 11.3006Z" fill="#212121"/>
<path fill-rule="evenodd" clip-rule="evenodd" d="M56.1781 11.1201L57.9543 7.60826C58.1864 7.14925 58.8827 7.37603 58.8 7.88374L58.4181 10.227H59.4151C59.7547 10.227 59.9719 10.5886 59.8124 10.8883L57.9423 14.4038C57.7009 14.8576 57.01 14.6172 57.1023 14.1116L57.5295 11.7732H56.5797C56.2442 11.7732 56.0268 11.4194 56.1781 11.1201ZM57.9492 11.3732C57.9804 11.3732 58.004 11.4015 57.9984 11.4322L57.4958 14.1835C57.4856 14.2397 57.5623 14.2664 57.5892 14.2159L59.4593 10.7005C59.477 10.6672 59.4529 10.627 59.4151 10.627H58.0064C57.9756 10.627 57.9521 10.5994 57.9571 10.5689L58.4052 7.81939C58.4144 7.76298 58.337 7.73778 58.3112 7.78878L56.5351 11.3006C56.5183 11.3339 56.5424 11.3732 56.5797 11.3732H57.9492Z" fill="#212121"/>
<path fill-rule="evenodd" clip-rule="evenodd" d="M40.618 8.31187C40.9981 8.14725 41.4397 8.32194 41.6043 8.70204L41.769 9.0824C41.9077 9.40262 41.9842 9.7463 41.9944 10.0951L42.0019 10.3538C42.0153 10.8146 41.8794 11.2674 41.6143 11.6446C41.5379 11.7532 41.4975 11.8829 41.4985 12.0157L41.4998 12.1722C41.5011 12.332 41.5365 12.4897 41.6035 12.6347L41.7274 12.9028C41.9011 13.2788 41.7371 13.7245 41.3611 13.8982C40.9851 14.072 40.5394 13.908 40.3657 13.532L40.2418 13.2639C40.0854 12.9254 40.0029 12.5574 39.9999 12.1844L39.9986 12.0279C39.995 11.5822 40.1308 11.1466 40.3871 10.782C40.466 10.6696 40.5065 10.5348 40.5025 10.3975L40.495 10.1388C40.4904 9.98028 40.4556 9.82406 40.3926 9.67851L40.2279 9.29815C40.0633 8.91805 40.2379 8.47648 40.618 8.31187Z" fill="#212121"/>
<path fill-rule="evenodd" clip-rule="evenodd" d="M38.348 8.31187C38.7281 8.14725 39.1697 8.32194 39.3343 8.70204L39.499 9.0824C39.6377 9.40262 39.7142 9.7463 39.7244 10.0951L39.7319 10.3538C39.7453 10.8146 39.6094 11.2674 39.3443 11.6446C39.2679 11.7532 39.2275 11.8829 39.2285 12.0157L39.2298 12.1722C39.2311 12.332 39.2665 12.4897 39.3335 12.6347L39.4574 12.9028C39.6311 13.2788 39.4671 13.7245 39.0911 13.8982C38.7151 14.072 38.2694 13.908 38.0957 13.532L37.9718 13.2639C37.8154 12.9254 37.7329 12.5574 37.7299 12.1844L37.7286 12.0279C37.725 11.5822 37.8608 11.1466 38.1171 10.782C38.196 10.6696 38.2365 10.5348 38.2325 10.3975L38.225 10.1388C38.2204 9.98028 38.1856 9.82406 38.1226 9.67851L37.9579 9.29815C37.7933 8.91805 37.9679 8.47648 38.348 8.31187Z" fill="#212121"/>
<path fill-rule="evenodd" clip-rule="evenodd" d="M42.8715 8.31186C43.2516 8.14725 43.6932 8.32194 43.8578 8.70205L44.0225 9.0824C44.1612 9.40262 44.2376 9.7463 44.2478 10.0951L44.2553 10.3538C44.2688 10.8146 44.1328 11.2674 43.8677 11.6446C43.7914 11.7532 43.7509 11.8829 43.752 12.0157L43.7532 12.1722C43.7545 12.332 43.7899 12.4897 43.8569 12.6347L43.9808 12.9028C44.1545 13.2788 43.9906 13.7245 43.6146 13.8982C43.2385 14.072 42.7929 13.908 42.6191 13.532L42.4953 13.2639C42.3388 12.9254 42.2563 12.5574 42.2533 12.1844L42.252 12.0279C42.2484 11.5822 42.3842 11.1466 42.6405 10.782C42.7195 10.6697 42.76 10.5348 42.756 10.3975L42.7484 10.1388C42.7438 9.98028 42.7091 9.82406 42.646 9.67851L42.4813 9.29815C42.3167 8.91805 42.4914 8.47647 42.8715 8.31186Z" fill="#212121"/>
<path fill-rule="evenodd" clip-rule="evenodd" d="M21.1163 15C20.6702 15 20.3086 15.3616 20.3086 15.8077C20.3086 16.2538 20.6702 16.6154 21.1163 16.6154H21.5V19.9564C20.2359 20.3094 19.3086 21.4695 19.3086 22.8462V35C19.3086 36.6569 20.6517 38 22.3086 38H32.0394C33.6962 38 35.0394 36.6569 35.0394 35V22.8462C35.0394 21.346 33.9382 20.103 32.5 19.8813V16.6154H33.2317C33.6777 16.6154 34.0394 16.2538 34.0394 15.8077C34.0394 15.3616 33.6777 15 33.2317 15H21.1163ZM30.5 16.6154H23.5V19.8462H30.5V16.6154ZM21.7755 22L32.5 22V21.9584C32.8205 22.125 33.0394 22.46 33.0394 22.8462V24.8848H21.3086V22.8462C21.3086 22.4899 21.4949 22.1771 21.7755 22ZM21.3086 35V32.154H33.0394V35C33.0394 35.5523 32.5916 36 32.0394 36H22.3086C21.7563 36 21.3086 35.5523 21.3086 35ZM32.8462 26.8848H21.5V30.154H32.8462V26.8848Z" fill="#212121"/>
<path d="M35.8809 45.3762C35.8809 44.6166 36.4879 44 37.2356 44C37.9833 44 38.5903 44.6166 38.5903 45.3762C38.5903 46.1359 37.9833 46.7525 37.2356 46.7525C36.4879 46.7525 35.8809 46.1359 35.8809 45.3762Z" fill="#212121"/>
<path d="M15.8809 52.3762C15.8809 51.6166 16.4879 51 17.2356 51C17.9833 51 18.5903 51.6166 18.5903 52.3762C18.5903 53.1359 17.9833 53.7525 17.2356 53.7525C16.4879 53.7525 15.8809 53.1359 15.8809 52.3762Z" fill="#212121"/>
<path fill-rule="evenodd" clip-rule="evenodd" d="M37.5907 40.2254L40.3109 42.0829C40.8612 41.4212 41.6907 41 42.6185 41H46.2495C46.8018 41 47.2495 41.4477 47.2495 42C47.2495 42.5523 46.8018 43 46.2495 43H42.6185C42.0662 43 41.6185 43.4477 41.6185 44V53C41.6185 54.6569 40.2753 56 38.6185 56H15.1195C13.4627 56 12.1195 54.6568 12.1195 53L12.1196 44C12.1196 43.4477 11.6718 43 11.1196 43H7.5C6.94772 43 6.5 42.5523 6.5 42C6.5 41.4477 6.94772 41 7.5 41H11.1196C12.0603 41 12.8999 41.433 13.4499 42.1105L16.5826 42.8826C16.7766 42.9304 16.9805 42.919 17.168 42.8498L19.2421 42.0848L21.2252 41.0412C21.9961 40.6355 22.9054 40.585 23.7166 40.9028L26.0363 41.8116C26.2491 41.8949 26.4839 41.9029 26.7019 41.8342L28.6349 41.2246C29.1876 41.0503 29.779 41.0398 30.3376 41.1945L32.101 41.6826C32.4883 41.7899 32.9023 41.6548 33.1518 41.3396L33.5469 40.8406C34.5245 39.6059 36.2903 39.3373 37.5907 40.2254ZM16.104 44.8245C16.6861 44.9679 17.2977 44.9337 17.8601 44.7263L20.0574 43.9158L22.1566 42.8111C22.4136 42.6759 22.7166 42.659 22.987 42.765L25.1173 43.5996C24.9682 43.8207 24.8809 44.0882 24.8809 44.3762C24.8809 45.1359 25.4879 45.7525 26.2356 45.7525C26.9833 45.7525 27.5903 45.1359 27.5903 44.3762C27.5903 44.1327 27.5279 43.9038 27.4185 43.7053L29.2364 43.132C29.4206 43.0739 29.6178 43.0704 29.804 43.1219L31.5673 43.6101C32.7295 43.9319 33.9713 43.5265 34.7198 42.5812L35.115 42.0821C35.4408 41.6705 36.0294 41.581 36.4629 41.877L39.3172 43.8261C39.4119 43.8908 39.5139 43.937 39.6187 43.9655L39.6185 44V48.6464L33.6235 46.3983C32.7772 46.081 31.833 46.1621 31.0532 46.6191L27.2247 48.863C27.0713 48.9528 26.8968 49.0002 26.719 49.0002H24.1084C24.0327 49.0002 23.9572 48.9916 23.8835 48.9746L21.1897 48.3529C21.4371 48.1035 21.5903 47.7579 21.5903 47.3762C21.5903 46.6166 20.9833 46 20.2356 46C19.4879 46 18.8809 46.6166 18.8809 47.3762C18.8809 47.5383 18.9085 47.6938 18.9592 47.8382L18.1929 47.6614C17.6182 47.5287 17.0172 47.5685 16.465 47.7755L14.1195 48.6551L14.1196 44.3354L16.104 44.8245ZM14.1195 50.7911L14.1195 53C14.1195 53.5523 14.5673 54 15.1195 54H35.0279C34.9339 53.8127 34.8809 53.6007 34.8809 53.3762C34.8809 52.6166 35.4879 52 36.2356 52C36.9833 52 37.5903 52.6166 37.5903 53.3762C37.5903 53.6007 37.5373 53.8127 37.4434 54H38.6185C39.1708 54 39.6185 53.5523 39.6185 53V50.7824L32.9213 48.271C32.6539 48.1707 32.3573 48.1898 32.1057 48.3217C32.4019 48.5742 32.5903 48.953 32.5903 49.3762C32.5903 50.1359 31.9833 50.7525 31.2356 50.7525C30.5672 50.7525 30.0113 50.2598 29.9008 49.6127L28.236 50.5884C27.7759 50.8581 27.2523 51.0002 26.719 51.0002H24.1084C23.8813 51.0002 23.655 50.9744 23.4338 50.9234L17.7432 49.6101C17.5516 49.5659 17.3513 49.5792 17.1672 49.6482L14.1195 50.7911Z" fill="#212121"/>
</svg>
