<svg width="64" height="64" viewBox="0 0 64 64" fill="none" xmlns="http://www.w3.org/2000/svg">
<path fill-rule="evenodd" clip-rule="evenodd" d="M41.2529 7.09752C40.936 6.64091 41.0347 6.0033 41.4732 5.67338C43.9652 3.79855 47.4641 4.02819 49.708 6.3646C52.197 8.95629 52.197 13.1583 49.708 15.7499C47.4641 18.0864 43.9652 18.316 41.4732 16.4412C41.0347 16.1112 40.936 15.4736 41.2529 15.017C41.5698 14.5604 42.1821 14.4577 42.6206 14.7876C44.3455 16.0853 46.7696 15.9245 48.3226 14.3075C50.0466 12.5124 50.0466 9.60211 48.3226 7.80709C46.7696 6.19004 44.3455 6.02921 42.6206 7.3269C42.1821 7.65682 41.5698 7.55412 41.2529 7.09752Z" fill="#212121"/>
<path fill-rule="evenodd" clip-rule="evenodd" d="M56.5759 7.09752C56.8927 6.64091 56.7941 6.0033 56.3556 5.67338C53.8636 3.79855 50.3647 4.02819 48.1208 6.3646C45.6317 8.95629 45.6317 13.1583 48.1208 15.7499C50.3647 18.0864 53.8636 18.316 56.3556 16.4412C56.7941 16.1112 56.8927 15.4736 56.5759 15.017C56.259 14.5604 55.6467 14.4577 55.2082 14.7876C53.4833 16.0853 51.0592 15.9245 49.5062 14.3075C47.7822 12.5124 47.7822 9.60211 49.5062 7.80709C51.0592 6.19004 53.4833 6.02921 55.2082 7.3269C55.6467 7.65682 56.259 7.55412 56.5759 7.09752Z" fill="#212121"/>
<path d="M56.5351 11.3006L58.3112 7.78878C58.337 7.73778 58.4144 7.76298 58.4052 7.81939L57.9571 10.5689C57.9521 10.5994 57.9756 10.627 58.0064 10.627H59.4151C59.4529 10.627 59.477 10.6672 59.4593 10.7005L57.5892 14.2159C57.5623 14.2664 57.4856 14.2397 57.4958 14.1835L57.9984 11.4322C58.004 11.4015 57.9804 11.3732 57.9492 11.3732H56.5797C56.5424 11.3732 56.5183 11.3339 56.5351 11.3006Z" fill="#212121"/>
<path fill-rule="evenodd" clip-rule="evenodd" d="M56.1781 11.1201L57.9543 7.60826C58.1864 7.14925 58.8827 7.37603 58.8 7.88374L58.4181 10.227H59.4151C59.7547 10.227 59.9719 10.5886 59.8124 10.8883L57.9423 14.4038C57.7009 14.8576 57.01 14.6172 57.1023 14.1116L57.5295 11.7732H56.5797C56.2442 11.7732 56.0268 11.4194 56.1781 11.1201ZM57.9492 11.3732C57.9804 11.3732 58.004 11.4015 57.9984 11.4322L57.4958 14.1835C57.4856 14.2397 57.5623 14.2664 57.5892 14.2159L59.4593 10.7005C59.477 10.6672 59.4529 10.627 59.4151 10.627H58.0064C57.9756 10.627 57.9521 10.5994 57.9571 10.5689L58.4052 7.81939C58.4144 7.76298 58.337 7.73778 58.3112 7.78878L56.5351 11.3006C56.5183 11.3339 56.5424 11.3732 56.5797 11.3732H57.9492Z" fill="#212121"/>
<path fill-rule="evenodd" clip-rule="evenodd" d="M40.618 8.31187C40.9981 8.14725 41.4397 8.32194 41.6043 8.70204L41.769 9.0824C41.9077 9.40262 41.9842 9.7463 41.9944 10.0951L42.0019 10.3538C42.0153 10.8146 41.8794 11.2674 41.6143 11.6446C41.5379 11.7532 41.4975 11.8829 41.4985 12.0157L41.4998 12.1722C41.5011 12.332 41.5365 12.4897 41.6035 12.6347L41.7274 12.9028C41.9011 13.2788 41.7371 13.7245 41.3611 13.8982C40.9851 14.072 40.5394 13.908 40.3657 13.532L40.2418 13.2639C40.0854 12.9254 40.0029 12.5574 39.9999 12.1844L39.9986 12.0279C39.995 11.5822 40.1308 11.1466 40.3871 10.782C40.466 10.6696 40.5065 10.5348 40.5025 10.3975L40.495 10.1388C40.4904 9.98028 40.4556 9.82406 40.3926 9.67851L40.2279 9.29815C40.0633 8.91805 40.2379 8.47648 40.618 8.31187Z" fill="#212121"/>
<path fill-rule="evenodd" clip-rule="evenodd" d="M38.348 8.31187C38.7281 8.14725 39.1697 8.32194 39.3343 8.70204L39.499 9.0824C39.6377 9.40262 39.7142 9.7463 39.7244 10.0951L39.7319 10.3538C39.7453 10.8146 39.6094 11.2674 39.3443 11.6446C39.2679 11.7532 39.2275 11.8829 39.2285 12.0157L39.2298 12.1722C39.2311 12.332 39.2665 12.4897 39.3335 12.6347L39.4574 12.9028C39.6311 13.2788 39.4671 13.7245 39.0911 13.8982C38.7151 14.072 38.2694 13.908 38.0957 13.532L37.9718 13.2639C37.8154 12.9254 37.7329 12.5574 37.7299 12.1844L37.7286 12.0279C37.725 11.5822 37.8608 11.1466 38.1171 10.782C38.196 10.6696 38.2365 10.5348 38.2325 10.3975L38.225 10.1388C38.2204 9.98028 38.1856 9.82406 38.1226 9.67851L37.9579 9.29815C37.7933 8.91805 37.9679 8.47648 38.348 8.31187Z" fill="#212121"/>
<path fill-rule="evenodd" clip-rule="evenodd" d="M42.8715 8.31186C43.2516 8.14725 43.6932 8.32194 43.8578 8.70205L44.0225 9.0824C44.1612 9.40262 44.2376 9.7463 44.2478 10.0951L44.2553 10.3538C44.2688 10.8146 44.1328 11.2674 43.8677 11.6446C43.7914 11.7532 43.7509 11.8829 43.752 12.0157L43.7532 12.1722C43.7545 12.332 43.7899 12.4897 43.8569 12.6347L43.9808 12.9028C44.1545 13.2788 43.9906 13.7245 43.6146 13.8982C43.2385 14.072 42.7929 13.908 42.6191 13.532L42.4953 13.2639C42.3388 12.9254 42.2563 12.5574 42.2533 12.1844L42.252 12.0279C42.2484 11.5822 42.3842 11.1466 42.6405 10.782C42.7195 10.6697 42.76 10.5348 42.756 10.3975L42.7484 10.1388C42.7438 9.98028 42.7091 9.82406 42.646 9.67851L42.4813 9.29815C42.3167 8.91805 42.4914 8.47647 42.8715 8.31186Z" fill="#212121"/>
<path fill-rule="evenodd" clip-rule="evenodd" d="M21.6797 22.25C20.5751 22.25 19.6797 23.1454 19.6797 24.25V25.4808L19.6797 25.4873H16.2598C15.1552 25.4873 14.2598 26.3827 14.2598 27.4873V29.5899C14.2598 30.6944 15.1552 31.5899 16.2598 31.5899H17.0211L17.4365 46.8047C17.2117 48.0188 17.1767 49.2605 17.3377 50.496C17.3051 50.4014 17.2755 50.3016 17.2489 50.1967C17.1417 49.7756 16.9378 49.1572 16.8432 48.8757C16.5564 48.0215 15.4287 47.8621 14.9143 48.5978C14.83 48.7184 14.7059 48.8965 14.5847 49.0704L14.283 49.5031L14.2229 49.5888L14.2157 49.5991C13.0024 51.131 12.2072 52.9516 12.0051 54.9502C11.9496 55.4997 12.35 55.9902 12.8995 56.0457C13.449 56.1013 13.9394 55.7009 13.995 55.1514C14.1386 53.731 14.6595 52.4084 15.4815 51.2443C15.767 52.0226 16.2411 52.7435 17.0083 53.2645C17.114 53.3362 17.2245 53.3954 17.3215 53.4427C18.6533 54.0914 19.926 52.82 19.5869 51.5678C18.4706 47.4452 20.044 42.9288 24.2893 39.9804C25.1896 39.3551 26.1583 38.8368 27.1737 38.4248C27.2064 38.4115 27.2392 38.3983 27.272 38.3853C27.0556 39.004 26.9018 39.602 26.8517 40.1832C26.6846 42.1206 27.0501 43.5236 27.9001 44.7689C28.5938 45.7852 29.6069 46.6744 30.7154 47.6474C30.8703 47.7833 31.027 47.9209 31.185 48.0607C31.6716 48.4912 32.1963 48.9008 32.7042 49.2904C32.2819 49.9843 31.7688 50.6298 31.1772 51.2119C30.7743 51.6084 30.3459 51.9728 29.8872 52.363C29.7347 52.4927 29.5788 52.6254 29.4194 52.763C28.8032 53.2948 28.1554 53.8845 27.6121 54.5754C27.2707 55.0095 27.3459 55.6382 27.78 55.9796C28.2141 56.321 28.8428 56.2458 29.1842 55.8117C29.6019 55.2805 30.1264 54.7947 30.7261 54.277C30.8604 54.1611 31.0001 54.0423 31.143 53.9208C31.6143 53.52 32.1202 53.0898 32.5799 52.6376C34.8049 50.4484 36.1414 47.4603 36.0471 44.2349C36.5963 44.5784 37.1832 44.9913 37.7802 45.4524C39.2604 46.5956 40.8354 48.2369 42.0331 50.0607C43.2393 51.8975 44 53.8227 44 55.5503C44 56.1026 44.4477 56.5503 45 56.5503C45.5523 56.5503 46 56.1026 46 55.5503C46 53.2779 45.0207 50.9666 43.7048 48.9628C42.5162 47.1528 41.0015 45.5147 39.5117 44.2775L39.9649 31.5899H40.2598C41.3643 31.5899 42.2598 30.6944 42.2598 29.5899V27.4873C42.2598 26.3827 41.3643 25.4873 40.2598 25.4873H36.841L36.841 25.4808V24.25C36.841 23.1454 35.9456 22.25 34.841 22.25H21.6797ZM34.841 24.25H21.6797L21.6797 25.4808L34.841 25.4808V24.25ZM40.2598 27.4873L16.2598 27.4873V29.5899L40.2598 29.5899V27.4873ZM23.1484 38.3377C21.5869 39.4222 20.3235 40.7083 19.3717 42.1199L19.0324 31.6001H37.9632L37.5621 42.8325C36.818 42.338 36.0861 41.92 35.4167 41.6322C35.2751 41.5713 34.9542 41.4621 34.5811 41.5942C34.1591 41.7437 33.9766 42.0859 33.9096 42.2926C33.8475 42.4844 33.846 42.6596 33.8488 42.7541C33.8519 42.8625 33.865 42.9653 33.8779 43.0477C33.8997 43.1874 33.9335 43.3409 33.9586 43.4552L33.9688 43.5017C33.9831 43.5675 33.9943 43.6206 34.0028 43.666C34.0069 43.688 34.0099 43.7055 34.0119 43.719L34.0141 43.7343C34.0145 43.738 34.0147 43.7398 34.0147 43.7398C34.0183 43.7797 34.0217 43.8196 34.0248 43.8595C34.1208 45.0974 33.9572 46.3052 33.5734 47.4348C33.2037 47.1474 32.8487 46.8623 32.5103 46.5628C32.3486 46.4198 32.193 46.2828 32.0433 46.151L32.0415 46.1494C30.8941 45.1392 30.0929 44.4339 29.552 43.6414C28.9996 42.8322 28.7107 41.9042 28.8443 40.3551C28.9071 39.6269 29.2353 38.7451 29.8118 37.4601C29.9505 37.1508 29.9232 36.7923 29.7391 36.5077C29.555 36.2231 29.2393 36.0511 28.9004 36.0508C28.0338 36.0499 27.2387 36.2531 26.6925 36.4643C26.6019 36.4993 26.5117 36.5351 26.4217 36.5716C25.2756 37.0366 24.1756 37.6243 23.1484 38.3377Z" fill="#212121"/>
</svg>
