<svg width="64" height="64" viewBox="0 0 64 64" fill="none" xmlns="http://www.w3.org/2000/svg">
<path fill-rule="evenodd" clip-rule="evenodd" d="M41.2529 7.09752C40.936 6.64091 41.0347 6.0033 41.4732 5.67338C43.9652 3.79855 47.4641 4.02819 49.708 6.3646C52.197 8.95629 52.197 13.1583 49.708 15.7499C47.4641 18.0864 43.9652 18.316 41.4732 16.4412C41.0347 16.1112 40.936 15.4736 41.2529 15.017C41.5698 14.5604 42.1821 14.4577 42.6206 14.7876C44.3455 16.0853 46.7696 15.9245 48.3226 14.3075C50.0466 12.5124 50.0466 9.60211 48.3226 7.80709C46.7696 6.19004 44.3455 6.02921 42.6206 7.3269C42.1821 7.65682 41.5698 7.55412 41.2529 7.09752Z" fill="#212121"/>
<path fill-rule="evenodd" clip-rule="evenodd" d="M56.5759 7.09752C56.8927 6.64091 56.7941 6.0033 56.3556 5.67338C53.8636 3.79855 50.3647 4.02819 48.1208 6.3646C45.6317 8.95629 45.6317 13.1583 48.1208 15.7499C50.3647 18.0864 53.8636 18.316 56.3556 16.4412C56.7941 16.1112 56.8927 15.4736 56.5759 15.017C56.259 14.5604 55.6467 14.4577 55.2082 14.7876C53.4833 16.0853 51.0592 15.9245 49.5062 14.3075C47.7822 12.5124 47.7822 9.60211 49.5062 7.80709C51.0592 6.19004 53.4833 6.02921 55.2082 7.3269C55.6467 7.65682 56.259 7.55412 56.5759 7.09752Z" fill="#212121"/>
<path d="M56.5351 11.3006L58.3112 7.78878C58.337 7.73778 58.4144 7.76298 58.4052 7.81939L57.9571 10.5689C57.9521 10.5994 57.9756 10.627 58.0064 10.627H59.4151C59.4529 10.627 59.477 10.6672 59.4593 10.7005L57.5892 14.2159C57.5623 14.2664 57.4856 14.2397 57.4958 14.1835L57.9984 11.4322C58.004 11.4015 57.9804 11.3732 57.9492 11.3732H56.5797C56.5424 11.3732 56.5183 11.3339 56.5351 11.3006Z" fill="#212121"/>
<path fill-rule="evenodd" clip-rule="evenodd" d="M56.1781 11.1201L57.9543 7.60826C58.1864 7.14925 58.8827 7.37603 58.8 7.88374L58.4181 10.227H59.4151C59.7547 10.227 59.9719 10.5886 59.8124 10.8883L57.9423 14.4038C57.7009 14.8576 57.01 14.6172 57.1023 14.1116L57.5295 11.7732H56.5797C56.2442 11.7732 56.0268 11.4194 56.1781 11.1201ZM57.9492 11.3732C57.9804 11.3732 58.004 11.4015 57.9984 11.4322L57.4958 14.1835C57.4856 14.2397 57.5623 14.2664 57.5892 14.2159L59.4593 10.7005C59.477 10.6672 59.4529 10.627 59.4151 10.627H58.0064C57.9756 10.627 57.9521 10.5994 57.9571 10.5689L58.4052 7.81939C58.4144 7.76298 58.337 7.73778 58.3112 7.78878L56.5351 11.3006C56.5183 11.3339 56.5424 11.3732 56.5797 11.3732H57.9492Z" fill="#212121"/>
<path fill-rule="evenodd" clip-rule="evenodd" d="M40.618 8.31187C40.9981 8.14725 41.4397 8.32194 41.6043 8.70204L41.769 9.0824C41.9077 9.40262 41.9842 9.7463 41.9944 10.0951L42.0019 10.3538C42.0153 10.8146 41.8794 11.2674 41.6143 11.6446C41.5379 11.7532 41.4975 11.8829 41.4985 12.0157L41.4998 12.1722C41.5011 12.332 41.5365 12.4897 41.6035 12.6347L41.7274 12.9028C41.9011 13.2788 41.7371 13.7245 41.3611 13.8982C40.9851 14.072 40.5394 13.908 40.3657 13.532L40.2418 13.2639C40.0854 12.9254 40.0029 12.5574 39.9999 12.1844L39.9986 12.0279C39.995 11.5822 40.1308 11.1466 40.3871 10.782C40.466 10.6696 40.5065 10.5348 40.5025 10.3975L40.495 10.1388C40.4904 9.98028 40.4556 9.82406 40.3926 9.67851L40.2279 9.29815C40.0633 8.91805 40.2379 8.47648 40.618 8.31187Z" fill="#212121"/>
<path fill-rule="evenodd" clip-rule="evenodd" d="M38.348 8.31187C38.7281 8.14725 39.1697 8.32194 39.3343 8.70204L39.499 9.0824C39.6377 9.40262 39.7142 9.7463 39.7244 10.0951L39.7319 10.3538C39.7453 10.8146 39.6094 11.2674 39.3443 11.6446C39.2679 11.7532 39.2275 11.8829 39.2285 12.0157L39.2298 12.1722C39.2311 12.332 39.2665 12.4897 39.3335 12.6347L39.4574 12.9028C39.6311 13.2788 39.4671 13.7245 39.0911 13.8982C38.7151 14.072 38.2694 13.908 38.0957 13.532L37.9718 13.2639C37.8154 12.9254 37.7329 12.5574 37.7299 12.1844L37.7286 12.0279C37.725 11.5822 37.8608 11.1466 38.1171 10.782C38.196 10.6696 38.2365 10.5348 38.2325 10.3975L38.225 10.1388C38.2204 9.98028 38.1856 9.82406 38.1226 9.67851L37.9579 9.29815C37.7933 8.91805 37.9679 8.47648 38.348 8.31187Z" fill="#212121"/>
<path fill-rule="evenodd" clip-rule="evenodd" d="M42.8715 8.31186C43.2516 8.14725 43.6932 8.32194 43.8578 8.70205L44.0225 9.0824C44.1612 9.40262 44.2376 9.7463 44.2478 10.0951L44.2553 10.3538C44.2688 10.8146 44.1328 11.2674 43.8677 11.6446C43.7914 11.7532 43.7509 11.8829 43.752 12.0157L43.7532 12.1722C43.7545 12.332 43.7899 12.4897 43.8569 12.6347L43.9808 12.9028C44.1545 13.2788 43.9906 13.7245 43.6146 13.8982C43.2385 14.072 42.7929 13.908 42.6191 13.532L42.4953 13.2639C42.3388 12.9254 42.2563 12.5574 42.2533 12.1844L42.252 12.0279C42.2484 11.5822 42.3842 11.1466 42.6405 10.782C42.7195 10.6697 42.76 10.5348 42.756 10.3975L42.7484 10.1388C42.7438 9.98028 42.7091 9.82406 42.646 9.67851L42.4813 9.29815C42.3167 8.91805 42.4914 8.47647 42.8715 8.31186Z" fill="#212121"/>
<path fill-rule="evenodd" clip-rule="evenodd" d="M14.5287 26.1121L19.2443 26.1121V26.7802C19.2443 27.8244 20.0908 28.6708 21.1349 28.6708H23.4287C24.4729 28.6708 25.3193 27.8244 25.3193 26.7802V25.5612C26.422 26.1912 27.1651 27.3785 27.1651 28.7394V36.6152C27.1651 38.5051 26.9185 40.5783 26.2562 42.1404C25.604 43.6788 24.6576 44.5235 23.2661 44.5235C21.9755 44.5235 21.138 44.0589 20.6222 43.621C20.3586 43.3971 20.1735 43.1748 20.0573 43.0139C19.9995 42.9338 19.9598 42.8704 19.9368 42.8316C19.9253 42.8122 19.9182 42.7994 19.9151 42.7937L19.914 42.7914C19.8975 42.7588 19.8794 42.7274 19.8599 42.6974L19.86 34.2231C19.86 32.6871 18.6147 31.4419 17.0787 31.4419H11.8672C11.3149 31.4419 10.8672 31.8896 10.8672 32.4419C10.8672 32.9942 11.3149 33.4419 11.8672 33.4419H17.0787C17.5102 33.4419 17.86 33.7917 17.86 34.2231L17.8599 52.8053C17.8599 54.3413 19.1051 55.5865 20.6412 55.5865H41.8148C43.3509 55.5865 44.5961 54.3413 44.5961 52.8053V34.2231C44.5961 33.7917 44.9459 33.4419 45.3773 33.4419H50.3241C50.8764 33.4419 51.3241 32.9942 51.3241 32.4419C51.3241 31.8896 50.8764 31.4419 50.3241 31.4419H45.3773C43.8413 31.4419 42.5961 32.6871 42.5961 34.2231V43.0354L41.356 44.176C41.3161 44.1283 41.2714 44.074 41.223 44.0134C41.0047 43.7407 40.7124 43.3462 40.4207 42.8653C40.3516 42.7514 40.2834 42.6339 40.2167 42.5132C39.7087 41.5944 39.2906 40.4899 39.2906 39.3713V33.3147C39.2906 25.5141 33.0705 19.1654 25.3193 18.9597V17.2373C25.3193 16.1931 24.4729 15.3467 23.4287 15.3467H21.1349C20.0908 15.3467 19.2443 16.1931 19.2443 17.2373V17.9834H14.5287V17.8086C14.5287 16.8248 13.7312 16.0273 12.7474 16.0273H9.60156C8.61781 16.0273 7.82031 16.8248 7.82031 17.8086V26.21C7.82031 27.1937 8.6178 27.9912 9.60156 27.9912H12.7474C13.7312 27.9912 14.5287 27.1937 14.5287 26.21V26.1121ZM23.3193 17.3467H21.2443V18.5381C21.2443 19.3363 20.5972 19.9834 19.799 19.9834H14.5287V24.1121L19.799 24.1121C20.5972 24.1121 21.2443 24.7591 21.2443 25.5574V26.6708H23.3193L23.3193 17.3467ZM38.9029 44.2095C38.8392 44.1109 38.7749 44.0084 38.7106 43.9023C38.0305 42.7808 37.2906 41.1618 37.2906 39.3713V33.3147C37.2906 26.6186 31.9656 21.1656 25.3193 20.9606V23.3779C27.5553 24.1334 29.1651 26.2484 29.1651 28.7394V36.6152C29.1651 38.6222 28.9107 41.0031 28.0976 42.921C27.2745 44.8625 25.7715 46.5235 23.2661 46.5235C21.793 46.5235 20.6724 46.0841 19.8599 45.5456L19.8599 52.8053C19.8599 53.2368 20.2097 53.5865 20.6412 53.5865H41.8148C42.2463 53.5865 42.5961 53.2368 42.5961 52.8053V45.7527L42.002 46.2991C40.9468 47.2695 39.3269 47.2789 38.2605 46.3209L37.161 45.3331C36.863 45.0654 36.4107 45.0665 36.114 45.3357L35.0888 46.2657C33.9943 47.2587 32.3144 47.2223 31.2639 46.1829L30.3911 45.3194C29.9985 44.931 29.9952 44.2978 30.3836 43.9052C30.7721 43.5126 31.4052 43.5093 31.7978 43.8977L32.6706 44.7612C32.9656 45.0532 33.4375 45.0634 33.745 44.7845L34.7702 43.8544C35.8266 42.896 37.4367 42.8921 38.4977 43.8453L38.9029 44.2095ZM9.60156 17.8086L12.7474 17.8086V26.21L9.60156 26.21V17.8086Z" fill="#212121"/>
</svg>
