<svg width="64" height="64" viewBox="0 0 64 64" fill="none" xmlns="http://www.w3.org/2000/svg">
<path fill-rule="evenodd" clip-rule="evenodd" d="M13.3574 24.9691C13.3574 23.3352 14.6819 22.0107 16.3158 22.0107C17.9496 22.0107 19.2741 23.3352 19.2741 24.9691V25.1343C20.7344 25.2689 22.4164 25.3776 23.7682 25.3383C25.3409 25.2925 26.4982 24.9026 27.7655 24.4756L27.9657 24.4082C29.32 23.9532 30.7975 23.4889 32.8165 23.5839C35.5455 23.7123 39.0586 24.3263 40.5975 24.6149C41.546 24.7928 42.2139 25.6216 42.2139 26.5695V32.8115H45.6904C46.2427 32.8115 46.6904 33.2592 46.6904 33.8115C46.6904 34.3638 46.2427 34.8115 45.6904 34.8115H42.2139V41.8697C42.2139 43.0834 41.1416 44.0173 39.9394 43.8507L34.8377 43.1439C33.5334 42.9631 32.1885 43.0754 30.8739 43.4132C28.9845 43.8985 26.1223 44.5356 23.8264 44.6024C22.4251 44.6432 20.7367 44.5386 19.2741 44.4075V55.0107C19.2741 55.563 18.8264 56.0107 18.2741 56.0107C17.7218 56.0107 17.2741 55.563 17.2741 55.0107L17.2741 24.9691C17.2741 24.4398 16.845 24.0107 16.3158 24.0107C15.7865 24.0107 15.3574 24.4398 15.3574 24.9691L15.3574 55.0107C15.3574 55.563 14.9097 56.0107 14.3574 56.0107C13.8051 56.0107 13.3574 55.563 13.3574 55.0107V24.9691ZM19.2741 42.3992L19.2741 27.1426C20.7367 27.2736 22.4251 27.3782 23.8264 27.3374C25.7044 27.2828 27.1138 26.8068 28.3682 26.3831L28.6026 26.304C29.9093 25.8651 31.0925 25.505 32.7225 25.5817C35.2906 25.7025 38.6686 26.2883 40.2139 26.5778V32.8115H34.6963L37.235 30.3077C37.6282 29.9199 37.6326 29.2867 37.2448 28.8935C36.857 28.5003 36.2238 28.4959 35.8306 28.8837L31.7368 32.9214C31.2414 33.41 31.2414 34.2079 31.7368 34.6965L36.0842 38.9842C36.4774 39.372 37.1105 39.3676 37.4984 38.9744C37.8862 38.5812 37.8818 37.9481 37.4886 37.5602L34.7016 34.8115H40.2139V41.8697L35.1122 41.1628C33.5115 40.941 31.9023 41.084 30.3762 41.4761C28.5008 41.9579 25.8243 42.5434 23.7682 42.6032C22.4164 42.6426 20.7344 42.5339 19.2741 42.3992Z" fill="#212121"/>
<path fill-rule="evenodd" clip-rule="evenodd" d="M42.2529 6.09752C41.936 5.64091 42.0347 5.0033 42.4732 4.67338C44.9652 2.79855 48.4641 3.02819 50.708 5.3646C53.197 7.95629 53.197 12.1583 50.708 14.7499C48.4641 17.0864 44.9652 17.316 42.4732 15.4412C42.0347 15.1112 41.936 14.4736 42.2529 14.017C42.5698 13.5604 43.1821 13.4577 43.6206 13.7876C45.3455 15.0853 47.7696 14.9245 49.3226 13.3075C51.0466 11.5124 51.0466 8.60211 49.3226 6.80709C47.7696 5.19004 45.3455 5.02921 43.6206 6.3269C43.1821 6.65682 42.5698 6.55412 42.2529 6.09752Z" fill="#212121"/>
<path fill-rule="evenodd" clip-rule="evenodd" d="M57.5759 6.09752C57.8927 5.64091 57.7941 5.0033 57.3556 4.67338C54.8636 2.79855 51.3647 3.02819 49.1208 5.3646C46.6317 7.95629 46.6317 12.1583 49.1208 14.7499C51.3647 17.0864 54.8636 17.316 57.3556 15.4412C57.7941 15.1112 57.8927 14.4736 57.5759 14.017C57.259 13.5604 56.6467 13.4577 56.2082 13.7876C54.4833 15.0853 52.0592 14.9245 50.5062 13.3075C48.7822 11.5124 48.7822 8.60211 50.5062 6.80709C52.0592 5.19004 54.4833 5.02921 56.2082 6.3269C56.6467 6.65682 57.259 6.55412 57.5759 6.09752Z" fill="#212121"/>
<path d="M57.5351 10.3006L59.3112 6.78878C59.337 6.73778 59.4144 6.76298 59.4052 6.81939L58.9571 9.56895C58.9521 9.59937 58.9756 9.62699 59.0064 9.62699H60.4151C60.4529 9.62699 60.477 9.66717 60.4593 9.70047L58.5892 13.2159C58.5623 13.2664 58.4856 13.2397 58.4958 13.1835L58.9984 10.4322C59.004 10.4015 58.9804 10.3732 58.9492 10.3732H57.5797C57.5424 10.3732 57.5183 10.3339 57.5351 10.3006Z" fill="#212121"/>
<path fill-rule="evenodd" clip-rule="evenodd" d="M57.1781 10.1201L58.9543 6.60826C59.1864 6.14925 59.8827 6.37603 59.8 6.88374L59.4181 9.22699H60.4151C60.7547 9.22699 60.9719 9.58861 60.8124 9.88834L58.9423 13.4038C58.7009 13.8576 58.01 13.6172 58.1023 13.1116L58.5295 10.7732H57.5797C57.2442 10.7732 57.0268 10.4194 57.1781 10.1201ZM58.9492 10.3732C58.9804 10.3732 59.004 10.4015 58.9984 10.4322L58.4958 13.1835C58.4856 13.2397 58.5623 13.2664 58.5892 13.2159L60.4593 9.70047C60.477 9.66717 60.4529 9.62699 60.4151 9.62699H59.0064C58.9756 9.62699 58.9521 9.59937 58.9571 9.56895L59.4052 6.81939C59.4144 6.76298 59.337 6.73778 59.3112 6.78878L57.5351 10.3006C57.5183 10.3339 57.5424 10.3732 57.5797 10.3732H58.9492Z" fill="#212121"/>
<path fill-rule="evenodd" clip-rule="evenodd" d="M41.618 7.31187C41.9981 7.14725 42.4397 7.32194 42.6043 7.70204L42.769 8.0824C42.9077 8.40262 42.9842 8.7463 42.9944 9.09511L43.0019 9.35378C43.0153 9.8146 42.8794 10.2674 42.6143 10.6446C42.5379 10.7532 42.4975 10.8829 42.4985 11.0157L42.4998 11.1722C42.5011 11.332 42.5365 11.4897 42.6035 11.6347L42.7274 11.9028C42.9011 12.2788 42.7371 12.7245 42.3611 12.8982C41.9851 13.072 41.5394 12.908 41.3657 12.532L41.2418 12.2639C41.0854 11.9254 41.0029 11.5574 40.9999 11.1844L40.9986 11.0279C40.995 10.5822 41.1308 10.1466 41.3871 9.782C41.466 9.66965 41.5065 9.53477 41.5025 9.3975L41.495 9.13883C41.4904 8.98028 41.4556 8.82406 41.3926 8.67851L41.2279 8.29815C41.0633 7.91805 41.2379 7.47648 41.618 7.31187Z" fill="#212121"/>
<path fill-rule="evenodd" clip-rule="evenodd" d="M39.348 7.31187C39.7281 7.14725 40.1697 7.32194 40.3343 7.70204L40.499 8.0824C40.6377 8.40262 40.7142 8.7463 40.7244 9.09511L40.7319 9.35378C40.7453 9.8146 40.6094 10.2674 40.3443 10.6446C40.2679 10.7532 40.2275 10.8829 40.2285 11.0157L40.2298 11.1722C40.2311 11.332 40.2665 11.4897 40.3335 11.6347L40.4574 11.9028C40.6311 12.2788 40.4671 12.7245 40.0911 12.8982C39.7151 13.072 39.2694 12.908 39.0957 12.532L38.9718 12.2639C38.8154 11.9254 38.7329 11.5574 38.7299 11.1844L38.7286 11.0279C38.725 10.5822 38.8608 10.1466 39.1171 9.782C39.196 9.66965 39.2365 9.53477 39.2325 9.3975L39.225 9.13883C39.2204 8.98028 39.1856 8.82406 39.1226 8.67851L38.9579 8.29815C38.7933 7.91805 38.9679 7.47648 39.348 7.31187Z" fill="#212121"/>
<path fill-rule="evenodd" clip-rule="evenodd" d="M43.8715 7.31186C44.2516 7.14725 44.6932 7.32194 44.8578 7.70205L45.0225 8.0824C45.1612 8.40262 45.2376 8.7463 45.2478 9.09511L45.2553 9.35378C45.2688 9.81459 45.1328 10.2674 44.8677 10.6446C44.7914 10.7532 44.7509 10.8829 44.752 11.0157L44.7532 11.1722C44.7545 11.332 44.7899 11.4897 44.8569 11.6347L44.9808 11.9028C45.1545 12.2788 44.9906 12.7245 44.6146 12.8982C44.2385 13.072 43.7929 12.908 43.6191 12.532L43.4953 12.2639C43.3388 11.9254 43.2563 11.5574 43.2533 11.1844L43.252 11.0279C43.2484 10.5822 43.3842 10.1466 43.6405 9.782C43.7195 9.66965 43.76 9.53477 43.756 9.3975L43.7484 9.13883C43.7438 8.98028 43.7091 8.82406 43.646 8.67851L43.4813 8.29815C43.3167 7.91805 43.4914 7.47647 43.8715 7.31186Z" fill="#212121"/>
</svg>
