<svg width="64" height="66" viewBox="0 0 64 66" fill="none" xmlns="http://www.w3.org/2000/svg">
<path fill-rule="evenodd" clip-rule="evenodd" d="M16.1135 17C15.5612 17 15.1135 17.4477 15.1135 18V24.395C15.1135 24.4648 15.1062 24.5344 15.0917 24.6027L8.25656 56.7923C8.12448 57.4143 8.59887 58 9.23475 58H43.7331C43.7927 58 43.8508 57.9949 43.9071 57.9851C43.9634 57.9949 44.0211 58 44.0798 58H53.9999C54.5522 58 54.9999 57.5523 54.9999 57V38C54.9999 37.4477 54.5522 37 53.9999 37H50V25C50 24.4477 49.5523 24 49 24H44C43.4477 24 43 24.4477 43 25V37H39.9836L37.025 24.6146C37.0068 24.5384 36.9976 24.4605 36.9976 24.3822V18C36.9976 17.4477 36.5499 17 35.9976 17H16.1135ZM17.1135 19V24.395C17.1135 24.6044 17.0915 24.8133 17.048 25.0181L10.4694 56H42.4661L35.0797 25.0792C35.0252 24.8509 34.9976 24.617 34.9976 24.3822V19H17.1135ZM45 37H48V26H45V37ZM40.5675 39L44.8587 56H52.9999V39H40.5675Z" fill="#212121"/>
<path fill-rule="evenodd" clip-rule="evenodd" d="M49.356 8.94236L52.7931 3.00526L54.524 4.00729L51.0869 9.94439C51.0483 10.0111 51.0964 10.0945 51.1734 10.0945H52.9369C52.9833 10.0945 53.0287 10.0976 53.0732 10.1036C53.1439 10.1132 53.212 10.1301 53.2768 10.1534C53.5042 10.2354 53.6911 10.3972 53.8073 10.6018C53.9223 10.8042 53.9681 11.0486 53.9158 11.2992L53.2079 14.6846C53.1619 14.9045 53.4577 15.0214 53.5745 14.8295L57.1975 8.87964C57.2381 8.813 57.1902 8.72763 57.1121 8.72763H55.2424C55.2321 8.72763 55.2219 8.72748 55.2117 8.72717C55.1282 8.72468 55.0476 8.71206 54.971 8.69059C54.7208 8.62044 54.5129 8.45581 54.384 8.24088C54.2638 8.04045 54.2123 7.79628 54.2594 7.54424L54.8937 4.14417C54.9349 3.92323 54.6366 3.81278 54.524 4.00729L52.7931 3.00526C54.0318 0.865629 57.3131 2.08062 56.8597 4.51095L56.4462 6.72763H57.1121C58.7506 6.72763 59.7579 8.52039 58.9058 9.91982L55.2827 15.8697C53.9973 17.9808 50.7444 16.6946 51.2503 14.2753L51.7062 12.0945H51.1734C49.5553 12.0945 48.5457 10.342 49.356 8.94236Z" fill="#212121"/>
<path fill-rule="evenodd" clip-rule="evenodd" d="M33.6361 42.7576L31.1683 39.4682C31.0264 39.2791 30.9238 39.0635 30.8664 38.8342L30.0247 35.4669L24.2684 32.9999L20.0646 39.7257L21.4292 41.7726C21.8163 42.3531 21.8268 43.1067 21.4562 43.6979L20.1981 45.7045L22.1885 48.4681L25.0815 47.0216C25.5807 46.772 26.1682 46.772 26.6674 47.0216L29.5575 48.4667L33.6361 42.7576ZM35.3357 41.6903C35.7995 42.3086 35.8094 43.1561 35.3601 43.7851L31.0721 49.7871C30.565 50.4969 29.6168 50.7324 28.8365 50.3422L25.8745 48.8612L22.9102 50.3434C22.1322 50.7324 21.1868 50.4995 20.6785 49.7937L18.486 46.7495C18.0646 46.1644 18.0395 45.3824 18.4225 44.7715L19.6837 42.7599L18.3193 40.7132C17.9327 40.1333 17.9217 39.3809 18.291 38.7899L22.6755 31.7749C23.1389 31.0335 24.0737 30.7405 24.8774 31.085L30.916 33.673C31.4254 33.8912 31.8033 34.3351 31.9377 34.8727L32.7956 38.3047L35.3357 41.6903Z" fill="#212121"/>
<path fill-rule="evenodd" clip-rule="evenodd" d="M27.7694 37.1904C27.5224 37.6843 26.9218 37.8846 26.4278 37.6376L25.3223 37.0848L23.9932 39.7431L24.7698 41.2958C25.0169 41.7897 24.8167 42.3904 24.3228 42.6375C23.8288 42.8845 23.2281 42.6844 22.9811 42.1905L21.9807 40.1905C21.8399 39.909 21.8399 39.5775 21.9807 39.296L23.9806 35.296C24.0992 35.0587 24.3072 34.8783 24.5588 34.7945C24.8104 34.7106 25.085 34.7301 25.3222 34.8487L27.3222 35.8487C27.8162 36.0957 28.0164 36.6964 27.7694 37.1904Z" fill="#212121"/>
</svg>
