<svg width="64" height="64" viewBox="0 0 64 64" fill="none" xmlns="http://www.w3.org/2000/svg">
<path d="M40.9686 7.09013C40.6133 6.06588 39.1471 6.1189 38.8667 7.16614L37.3729 12.7459C37.2301 13.2794 37.5468 13.8277 38.0803 13.9705C38.6138 14.1134 39.1621 13.7967 39.3049 13.2632L40.0402 10.5166L40.8498 12.8506C41.0915 13.5475 41.9371 13.8137 42.5344 13.381L44.4132 12.0199L43.9694 13.1844C43.748 13.7653 44.0516 14.4142 44.6396 14.6163L46.208 15.1556L44.4401 15.62C43.7772 15.7942 43.4333 16.5256 43.7219 17.1472L44.6298 19.1022L43.2952 18.394C42.8073 18.1352 42.202 18.3208 41.9431 18.8087C41.6843 19.2965 41.8699 19.9018 42.3578 20.1607L46.0588 22.1245C46.9902 22.6188 48.0162 21.6459 47.572 20.6895L45.9892 17.281L49.5907 16.3349C50.6433 16.0583 50.698 14.5846 49.6689 14.2307L46.1695 13.0275L47.3567 9.91255C47.7459 8.89116 46.5686 7.98872 45.6834 8.63L42.3423 11.0505L40.9686 7.09013Z" fill="#0B0D0E"/>
<path fill-rule="evenodd" clip-rule="evenodd" d="M35.5615 23.2755C36.6661 23.2755 37.5615 22.3801 37.5615 21.2755V19.5201C37.5615 18.4155 36.6661 17.5201 35.5615 17.5201H28.4244C27.3198 17.5201 26.4244 18.4155 26.4244 19.5201V21.2755C26.4244 22.3801 27.3198 23.2755 28.4244 23.2755H29.1172V25.62C28.8594 25.5761 28.5944 25.5533 28.324 25.5533C25.731 25.5533 23.6289 27.6554 23.6289 30.2484C23.6289 31.5363 24.1475 32.7031 24.9872 33.5514L19.1314 39.3723C17.8096 40.6862 17.0664 42.473 17.0664 44.3368V55.9859H19.0664V44.3368C19.0664 43.0055 19.5973 41.7292 20.5414 40.7907L26.7101 34.6588C27.2133 34.843 27.7569 34.9435 28.324 34.9435C30.9171 34.9435 33.0191 32.8414 33.0191 30.2484C33.0191 30.0788 33.0101 29.9112 32.9926 29.7462H36.438L36.438 32.9776C36.438 33.5101 36.6503 34.0206 37.028 34.396L43.4609 40.7907C44.234 41.5592 44.73 42.5541 44.8844 43.6203H37.8604C36.7558 43.6203 35.8604 44.5157 35.8604 45.6203V55.1271C35.8604 55.6794 36.3081 56.1271 36.8604 56.1271C37.4126 56.1271 37.8604 55.6794 37.8604 55.1271V45.6203H44.936V55.9859H46.936V44.3368C46.936 42.473 46.1927 40.6862 44.8709 39.3723L38.438 32.9776V29.7462C38.438 28.6417 37.5425 27.7462 36.438 27.7462H34.8727V26.6981L38.8975 26.698V28.2716C38.8975 28.8239 39.3452 29.2716 39.8975 29.2716C40.4497 29.2716 40.8975 28.8239 40.8975 28.2716V23.1245C40.8975 22.5722 40.4497 22.1245 39.8975 22.1245C39.3452 22.1245 38.8975 22.5722 38.8975 23.1245V24.698L34.8727 24.6981V23.2755H35.5615ZM32.2975 27.7461H32.8727V25.7545C32.8716 25.7358 32.8711 25.717 32.8711 25.6981C32.8711 25.6791 32.8716 25.6603 32.8727 25.6417V23.2755H31.1172V26.4741C31.5849 26.8208 31.9859 27.2524 32.2975 27.7461ZM32.9102 21.2755H35.5615V19.5201H28.4244L28.4244 21.2755H31.0797C31.0921 21.2753 31.1047 21.2752 31.1172 21.2752L32.8727 21.2752C32.8852 21.2752 32.8977 21.2753 32.9102 21.2755ZM25.6289 30.2484C25.6289 28.7599 26.8356 27.5533 28.324 27.5533C29.8125 27.5533 31.0191 28.7599 31.0191 30.2484C31.0191 31.3835 30.3175 32.3546 29.3242 32.7518L29.3242 30.1028C29.3242 29.5505 28.8765 29.1028 28.3242 29.1028C27.7719 29.1028 27.3242 29.5505 27.3242 30.1028L27.3242 32.752C26.3308 32.3549 25.6289 31.3836 25.6289 30.2484Z" fill="#0B0D0E"/>
</svg>
