<svg width="64" height="64" viewBox="0 0 64 64" fill="none" xmlns="http://www.w3.org/2000/svg">
<path fill-rule="evenodd" clip-rule="evenodd" d="M50.1268 4.68221C50.5786 4.36455 51.2024 4.47328 51.52 4.92506L51.6427 5.09948C52.7146 6.62406 52.6489 8.67385 51.4815 10.1266C50.8722 10.8849 50.8379 11.9549 51.3974 12.7506L51.52 12.9251C51.8377 13.3768 51.729 14.0006 51.2772 14.3183C50.8254 14.6359 50.2016 14.5272 49.884 14.0754L49.7613 13.901C48.6894 12.3764 48.7551 10.3266 49.9225 8.87385C50.5319 8.11554 50.5662 7.04561 50.0066 6.24984L49.884 6.07541C49.5663 5.62363 49.675 4.99987 50.1268 4.68221Z" fill="#212121"/>
<path fill-rule="evenodd" clip-rule="evenodd" d="M53.7776 4.59478C54.2776 4.36037 54.8731 4.57573 55.1075 5.0758L55.2087 5.29169C55.9083 6.7842 55.8619 8.51947 55.0835 9.97246C54.6033 10.8688 54.5747 11.9392 55.0063 12.8599L55.1075 13.0758C55.3419 13.5759 55.1265 14.1713 54.6264 14.4057C54.1264 14.6401 53.531 14.4247 53.2966 13.9247L53.1954 13.7088C52.4957 12.2163 52.5421 10.481 53.3205 9.02802C53.8007 8.1317 53.8293 7.06126 53.3977 6.14056L53.2966 5.92467C53.0621 5.4246 53.2775 4.82919 53.7776 4.59478Z" fill="#212121"/>
<path fill-rule="evenodd" clip-rule="evenodd" d="M57.1268 4.68221C57.5786 4.36455 58.2024 4.47328 58.52 4.92506L58.6427 5.09948C59.7146 6.62406 59.6489 8.67385 58.4815 10.1266C57.8722 10.8849 57.8379 11.9549 58.3974 12.7506L58.52 12.9251C58.8377 13.3768 58.729 14.0006 58.2772 14.3183C57.8254 14.6359 57.2016 14.5272 56.884 14.0754L56.7613 13.901C55.6894 12.3764 55.7551 10.3266 56.9225 8.87385C57.5319 8.11554 57.5662 7.04561 57.0066 6.24984L56.884 6.07541C56.5663 5.62363 56.675 4.99987 57.1268 4.68221Z" fill="#212121"/>
<path fill-rule="evenodd" clip-rule="evenodd" d="M31.9159 46.7619C29.6203 49.0559 26.3286 50.353 23.0518 47.6972L22.0673 48.6818C21.6768 49.0724 21.0437 49.0724 20.6532 48.6818C20.2627 48.2913 20.2627 47.6581 20.6532 47.2675L21.6379 46.2827C18.9814 43.0022 20.2811 39.7097 22.5775 37.4149C25.9873 34.0074 34.6555 34.6847 34.6555 34.6847C34.6555 34.6847 35.3257 43.3545 31.9159 46.7619ZM30.5761 45.4208C29.5221 46.4741 28.3698 47.126 27.2802 47.2558C26.4684 47.3525 25.4992 47.1844 24.4013 46.3476L28.3355 42.4129C28.726 42.0224 28.726 41.3892 28.3355 40.9986C27.945 40.6081 27.3118 40.6081 26.9213 40.9987L22.9875 44.933C22.1501 43.8333 21.9825 42.8631 22.0799 42.0507C22.2106 40.9611 22.8633 39.8092 23.9174 38.7559C24.477 38.1967 25.3461 37.7215 26.4836 37.3555C27.6054 36.9947 28.8659 36.7789 30.0818 36.6586C31.0982 36.5581 32.0501 36.5273 32.8132 36.5258C32.8111 37.289 32.7795 38.2409 32.6781 39.2574C32.5569 40.4733 32.3402 41.7338 31.9784 42.8554C31.6116 43.9928 31.1357 44.8616 30.5761 45.4208Z" fill="#212121"/>
<path fill-rule="evenodd" clip-rule="evenodd" d="M27.2433 23.794C27.4327 23.5874 27.7002 23.4697 27.9805 23.4697H36.1542C36.7064 23.4697 37.1542 23.9174 37.1542 24.4697V28.5415C37.1542 29.0937 36.7064 29.5415 36.1542 29.5415H24.2481C23.378 29.5415 22.923 28.5071 23.5109 27.8657L27.2433 23.794ZM28.4204 25.4697H35.1542V27.5415H26.5213L28.4204 25.4697Z" fill="#212121"/>
<path fill-rule="evenodd" clip-rule="evenodd" d="M24.493 20C23.9351 20 23.4025 20.2331 23.0239 20.6429L20.6039 23.2627L18.939 21.7714C18.1268 21.0439 16.8814 21.101 16.1393 21.8999L12.953 25.3296C12.1916 26.1493 12.2506 27.4342 13.0839 28.1806L14.7131 29.64L12.5309 32.0025C12.1895 32.372 12 32.8565 12 33.3595V55.2041C12 55.7346 12.2107 56.2433 12.5858 56.6183L14.0164 58.0489C14.3915 58.424 14.9002 58.6347 15.4306 58.6347H37.7155C38.193 58.6347 38.6546 58.4639 39.0171 58.1532L40.7928 56.6312C41.2361 56.2512 41.4913 55.6965 41.4913 55.1127V22C41.4913 20.8954 40.5958 20 39.4913 20H24.493ZM15.4306 56.6347H37.7155L39.4913 55.1127V22H24.493L14 33.3595V55.2041L15.4306 56.6347ZM17.6046 23.2611L14.4183 26.6909L15.7821 27.9125L18.9683 24.4827L17.6046 23.2611Z" fill="#212121"/>
</svg>
