<svg width="64" height="64" viewBox="0 0 64 64" fill="none" xmlns="http://www.w3.org/2000/svg">
<path fill-rule="evenodd" clip-rule="evenodd" d="M48.1268 5.18221C48.5786 4.86455 49.2024 4.97328 49.52 5.42506L49.6427 5.59948C50.7146 7.12406 50.6489 9.17385 49.4815 10.6266C48.8722 11.3849 48.8379 12.4549 49.3974 13.2506L49.52 13.4251C49.8377 13.8768 49.729 14.5006 49.2772 14.8183C48.8254 15.1359 48.2016 15.0272 47.884 14.5754L47.7613 14.401C46.6894 12.8764 46.7551 10.8266 47.9225 9.37385C48.5319 8.61554 48.5662 7.54561 48.0066 6.74984L47.884 6.57541C47.5663 6.12363 47.675 5.49987 48.1268 5.18221Z" fill="#212121"/>
<path fill-rule="evenodd" clip-rule="evenodd" d="M51.7776 5.09478C52.2776 4.86037 52.8731 5.07573 53.1075 5.5758L53.2087 5.79169C53.9083 7.2842 53.8619 9.01947 53.0835 10.4725C52.6033 11.3688 52.5747 12.4392 53.0063 13.3599L53.1075 13.5758C53.3419 14.0759 53.1265 14.6713 52.6264 14.9057C52.1264 15.1401 51.531 14.9247 51.2966 14.4247L51.1954 14.2088C50.4957 12.7163 50.5421 10.981 51.3205 9.52802C51.8007 8.6317 51.8293 7.56126 51.3977 6.64056L51.2966 6.42467C51.0621 5.9246 51.2775 5.32919 51.7776 5.09478Z" fill="#212121"/>
<path fill-rule="evenodd" clip-rule="evenodd" d="M55.1268 5.18221C55.5786 4.86455 56.2024 4.97328 56.52 5.42506L56.6427 5.59948C57.7146 7.12406 57.6489 9.17385 56.4815 10.6266C55.8722 11.3849 55.8379 12.4549 56.3974 13.2506L56.52 13.4251C56.8377 13.8768 56.729 14.5006 56.2772 14.8183C55.8254 15.1359 55.2016 15.0272 54.884 14.5754L54.7613 14.401C53.6894 12.8764 53.7551 10.8266 54.9225 9.37385C55.5319 8.61554 55.5662 7.54561 55.0066 6.74984L54.884 6.57541C54.5663 6.12363 54.675 5.49987 55.1268 5.18221Z" fill="#212121"/>
<path fill-rule="evenodd" clip-rule="evenodd" d="M26.8889 16.8406C27.405 16.5776 28.0366 16.7829 28.2995 17.299L28.6459 17.979C28.9395 18.5554 29.1032 19.1892 29.1254 19.8358L29.1384 20.2157C29.1671 21.0517 28.8886 21.8693 28.3556 22.514C28.1564 22.7549 28.0488 23.0585 28.0518 23.371L28.054 23.6031C28.0571 23.9238 28.1388 24.2388 28.2919 24.5206L28.5686 25.0296C28.8452 25.5385 28.6569 26.1753 28.148 26.4519C27.6391 26.7285 27.0023 26.5402 26.7257 26.0313L26.449 25.5223C26.132 24.9391 25.9629 24.287 25.9566 23.6232L25.9543 23.3911C25.9466 22.5838 26.2245 21.7997 26.739 21.1774C26.9454 20.9278 27.0532 20.6113 27.0421 20.2876L27.0291 19.9077C27.0174 19.5676 26.9313 19.2343 26.7769 18.9311L26.4305 18.2511C26.1676 17.735 26.3728 17.1035 26.8889 16.8406Z" fill="#212121"/>
<path fill-rule="evenodd" clip-rule="evenodd" d="M12.6782 24.3233C12.7949 23.7559 13.3494 23.3906 13.9167 23.5072L14.6645 23.661C15.2984 23.7914 15.896 24.059 16.4153 24.4452L16.7208 24.6724C17.3921 25.1716 17.8575 25.8994 18.0291 26.7182C18.0933 27.0245 18.2636 27.2983 18.5101 27.4912L18.6931 27.6345C18.946 27.8324 19.2435 27.9653 19.5597 28.0216L20.1302 28.1231C20.7005 28.2246 21.0805 28.7692 20.979 29.3394C20.8776 29.9097 20.333 30.2897 19.7627 30.1882L19.1922 30.0867C18.5384 29.9704 17.9232 29.6955 17.4003 29.2862L17.2172 29.1429C16.5813 28.6452 16.1418 27.9388 15.9761 27.1484C15.9096 26.8311 15.7293 26.549 15.4691 26.3556L15.1636 26.1284C14.8903 25.9251 14.5757 25.7842 14.242 25.7156L13.4942 25.5618C12.9269 25.4451 12.5615 24.8906 12.6782 24.3233Z" fill="#212121"/>
<path fill-rule="evenodd" clip-rule="evenodd" d="M9.66077 40.098C9.29017 39.6528 9.35059 38.9915 9.79573 38.6209L10.3824 38.1324C10.8798 37.7184 11.4618 37.4183 12.0876 37.2534L12.4557 37.1564C13.2647 36.9432 14.1238 37.0335 14.8708 37.4103C15.1502 37.5512 15.4704 37.5889 15.7749 37.5166L16.0011 37.4629C16.3136 37.3888 16.6031 37.2392 16.8443 37.0272L17.2796 36.6447C17.7147 36.2623 18.3773 36.305 18.7597 36.7401C19.1421 37.1752 19.0993 37.8379 18.6642 38.2202L18.2289 38.6028C17.7302 39.0411 17.1315 39.3505 16.4854 39.5038L16.2592 39.5575C15.4735 39.7439 14.6472 39.6467 13.9262 39.2831C13.6367 39.1371 13.3038 39.1021 12.9902 39.1847L12.6221 39.2817C12.2927 39.3685 11.9863 39.5265 11.7245 39.7444L11.1378 40.2329C10.6927 40.6035 10.0314 40.5431 9.66077 40.098Z" fill="#212121"/>
<path fill-rule="evenodd" clip-rule="evenodd" d="M20.106 52.2973C19.5269 52.3092 19.0477 51.8495 19.0358 51.2704L19.0201 50.5071C19.0068 49.8601 19.1354 49.218 19.397 48.626L19.5508 48.2778C19.8889 47.5126 20.4954 46.8975 21.2559 46.5488C21.5404 46.4183 21.7696 46.1915 21.9031 45.9085L22.0023 45.6982C22.1393 45.4078 22.203 45.0882 22.1878 44.7674L22.1604 44.1886C22.133 43.61 22.5798 43.1188 23.1584 43.0914C23.737 43.064 24.2282 43.5108 24.2556 44.0894L24.283 44.6683C24.3144 45.3316 24.1827 45.9924 23.8994 46.593L23.8002 46.8033C23.4557 47.5337 22.8642 48.1188 22.1302 48.4554C21.8355 48.5906 21.6004 48.8289 21.4694 49.1255L21.3156 49.4737C21.1779 49.7853 21.1102 50.1233 21.1172 50.4639L21.1329 51.2272C21.1448 51.8063 20.685 52.2854 20.106 52.2973Z" fill="#212121"/>
<path fill-rule="evenodd" clip-rule="evenodd" d="M36.1568 51.7449C35.8048 52.2049 35.1465 52.2925 34.6865 51.9405L34.0802 51.4766C33.5662 51.0833 33.1447 50.5822 32.8453 50.0085L32.6691 49.6711C32.282 48.9294 32.1797 48.0717 32.3816 47.2598C32.4571 46.956 32.4229 46.6354 32.285 46.3545L32.1825 46.1458C32.041 45.8575 31.831 45.6084 31.5708 45.4201L31.1014 45.0804C30.6321 44.7408 30.527 44.0852 30.8665 43.6159C31.2061 43.1466 31.8618 43.0415 32.331 43.3811L32.8005 43.7208C33.3385 44.1101 33.7728 44.6253 34.0654 45.2214L34.1679 45.4301C34.5237 46.155 34.612 46.9823 34.4172 47.7659C34.3389 48.0806 34.3785 48.413 34.5286 48.7005L34.7047 49.0379C34.8624 49.3399 35.0843 49.6037 35.3548 49.8107L35.9611 50.2746C36.4211 50.6266 36.5087 51.2849 36.1568 51.7449Z" fill="#212121"/>
<path fill-rule="evenodd" clip-rule="evenodd" d="M45.7389 38.8568C45.8789 39.4189 45.5367 39.9879 44.9746 40.1279L44.2338 40.3123C43.6058 40.4686 42.9512 40.4854 42.316 40.3615L41.9424 40.2887C41.1212 40.1285 40.3871 39.6733 39.8785 39.009C39.6883 38.7605 39.4164 38.5872 39.1108 38.5197L38.8838 38.4696C38.5702 38.4004 38.2444 38.409 37.935 38.4949L37.3766 38.6499C36.8185 38.8048 36.2405 38.4779 36.0856 37.9197C35.9307 37.3616 36.2576 36.7836 36.8157 36.6287L37.3741 36.4737C38.014 36.2962 38.6876 36.2782 39.336 36.4214L39.563 36.4715C40.3516 36.6456 41.0532 37.0928 41.5441 37.734C41.7412 37.9914 42.0257 38.1678 42.3439 38.2299L42.7175 38.3028C43.0519 38.368 43.3965 38.3591 43.7271 38.2768L44.4679 38.0924C45.0299 37.9525 45.599 38.2947 45.7389 38.8568Z" fill="#212121"/>
<path fill-rule="evenodd" clip-rule="evenodd" d="M41.6445 23.3276C42.1711 23.5689 42.4023 24.1914 42.161 24.7179L41.843 25.4119C41.5733 26.0003 41.1781 26.5224 40.685 26.9415L40.3949 27.188C39.7575 27.7298 38.9437 28.0196 38.1073 28.0026C37.7944 27.9962 37.4893 28.1006 37.2459 28.2974L37.0651 28.4435C36.8154 28.6454 36.6189 28.9054 36.493 29.2008L36.2657 29.7339C36.0386 30.2667 35.4225 30.5145 34.8897 30.2873C34.3568 30.0602 34.1091 29.4441 34.3362 28.9113L34.5635 28.3782C34.8239 27.7673 35.2301 27.2296 35.7465 26.8122L35.9274 26.6661C36.5554 26.1585 37.3425 25.8891 38.1499 25.9055C38.4741 25.9121 38.7894 25.7998 39.0365 25.5898L39.3265 25.3432C39.5861 25.1226 39.7942 24.8478 39.9361 24.5381L40.2542 23.8441C40.4955 23.3175 41.1179 23.0863 41.6445 23.3276Z" fill="#212121"/>
<path fill-rule="evenodd" clip-rule="evenodd" d="M30.3343 40.0214C27.7791 41.4631 24.4979 40.5841 23.0055 38.0581C21.5132 35.5322 22.3748 32.3158 24.93 30.8741C27.4852 29.4325 30.7664 30.3115 32.2588 32.8374C33.7512 35.3634 32.8895 39.1042 30.3343 40.0214ZM21.1787 39.0888C23.2603 42.6121 27.8371 43.8382 31.4013 41.8273C34.9654 39.8164 36.1673 35.3301 34.0856 31.8067C32.004 28.2834 27.4272 27.0573 23.8631 29.0682C20.2989 31.0791 19.0971 35.5655 21.1787 39.0888Z" fill="#212121"/>
</svg>
