<svg width="64" height="64" viewBox="0 0 64 64" fill="none" xmlns="http://www.w3.org/2000/svg">
<path fill-rule="evenodd" clip-rule="evenodd" d="M50.1268 4.68221C50.5786 4.36455 51.2024 4.47328 51.52 4.92506L51.6427 5.09948C52.7146 6.62406 52.6489 8.67385 51.4815 10.1266C50.8722 10.8849 50.8379 11.9549 51.3974 12.7506L51.52 12.9251C51.8377 13.3768 51.729 14.0006 51.2772 14.3183C50.8254 14.6359 50.2016 14.5272 49.884 14.0754L49.7613 13.901C48.6894 12.3764 48.7551 10.3266 49.9225 8.87385C50.5319 8.11554 50.5662 7.04561 50.0066 6.24984L49.884 6.07541C49.5663 5.62363 49.675 4.99987 50.1268 4.68221Z" fill="#212121"/>
<path fill-rule="evenodd" clip-rule="evenodd" d="M53.7776 4.59478C54.2776 4.36037 54.8731 4.57573 55.1075 5.0758L55.2087 5.29169C55.9083 6.7842 55.8619 8.51947 55.0835 9.97246C54.6033 10.8688 54.5747 11.9392 55.0063 12.8599L55.1075 13.0758C55.3419 13.5759 55.1265 14.1713 54.6264 14.4057C54.1264 14.6401 53.531 14.4247 53.2966 13.9247L53.1954 13.7088C52.4957 12.2163 52.5421 10.481 53.3205 9.02802C53.8007 8.1317 53.8293 7.06126 53.3977 6.14056L53.2966 5.92467C53.0621 5.4246 53.2775 4.82919 53.7776 4.59478Z" fill="#212121"/>
<path fill-rule="evenodd" clip-rule="evenodd" d="M57.1268 4.68221C57.5786 4.36455 58.2024 4.47328 58.52 4.92506L58.6427 5.09948C59.7146 6.62406 59.6489 8.67385 58.4815 10.1266C57.8722 10.8849 57.8379 11.9549 58.3974 12.7506L58.52 12.9251C58.8377 13.3768 58.729 14.0006 58.2772 14.3183C57.8254 14.6359 57.2016 14.5272 56.884 14.0754L56.7613 13.901C55.6894 12.3764 55.7551 10.3266 56.9225 8.87385C57.5319 8.11554 57.5662 7.04561 57.0066 6.24984L56.884 6.07541C56.5663 5.62363 56.675 4.99987 57.1268 4.68221Z" fill="#212121"/>
<path fill-rule="evenodd" clip-rule="evenodd" d="M41.3787 42.9703L36.2817 36.1765C36.1256 35.9685 36.0127 35.7314 35.9496 35.4791L34.23 28.5996L22.341 23.5043L13.7475 37.2536L16.8362 41.8868C17.262 42.5254 17.2736 43.3543 16.8659 44.0046L13.9889 48.5935L18.4653 54.8089L24.8231 51.63C25.3722 51.3555 26.0184 51.3555 26.5675 51.63L32.922 54.8073L41.3787 42.9703ZM43.2482 41.7963C43.7584 42.4764 43.7693 43.4087 43.275 44.1005L34.5881 56.2597C34.0303 57.0406 32.9873 57.2996 32.129 56.8704L25.6953 53.6536L19.2591 56.8717C18.4033 57.2996 17.3635 57.0434 16.8043 56.267L12.1056 49.743C11.6421 49.0993 11.6145 48.2391 12.0358 47.5671L14.9162 42.9728L11.8276 38.3398C11.4024 37.702 11.3902 36.8743 11.7965 36.2243L20.5888 22.1569C21.0985 21.3412 22.1268 21.019 23.0109 21.3979L35.2104 26.6263C35.7707 26.8664 36.1864 27.3546 36.3343 27.946L38.0717 34.8966L43.2482 41.7963Z" fill="#212121"/>
<path fill-rule="evenodd" clip-rule="evenodd" d="M28.5691 32.0828C28.2974 32.6262 27.6366 32.8464 27.0933 32.5747L24.2895 31.1728L21.2398 37.2724L22.8882 40.568C23.16 41.1114 22.9398 41.7721 22.3965 42.0439C21.8532 42.3157 21.1924 42.0955 20.9206 41.5522L19.0261 37.7645C18.8712 37.4548 18.8712 37.0903 19.0261 36.7805L22.8136 29.2051C22.9441 28.9441 23.1729 28.7457 23.4496 28.6534C23.7264 28.5612 24.0285 28.5826 24.2894 28.7131L28.0771 30.607C28.6205 30.8787 28.8408 31.5394 28.5691 32.0828Z" fill="#212121"/>
</svg>
