<svg width="64" height="64" viewBox="0 0 64 64" fill="none" xmlns="http://www.w3.org/2000/svg">
<path fill-rule="evenodd" clip-rule="evenodd" d="M50.1268 4.68221C50.5786 4.36455 51.2024 4.47328 51.52 4.92506L51.6427 5.09948C52.7146 6.62406 52.6489 8.67385 51.4815 10.1266C50.8722 10.8849 50.8379 11.9549 51.3974 12.7506L51.52 12.9251C51.8377 13.3768 51.729 14.0006 51.2772 14.3183C50.8254 14.6359 50.2016 14.5272 49.884 14.0754L49.7613 13.901C48.6894 12.3764 48.7551 10.3266 49.9225 8.87385C50.5319 8.11554 50.5662 7.04561 50.0066 6.24984L49.884 6.07541C49.5663 5.62363 49.675 4.99987 50.1268 4.68221Z" fill="#212121"/>
<path fill-rule="evenodd" clip-rule="evenodd" d="M53.7776 4.59478C54.2776 4.36037 54.8731 4.57573 55.1075 5.0758L55.2087 5.29169C55.9083 6.7842 55.8619 8.51947 55.0835 9.97246C54.6033 10.8688 54.5747 11.9392 55.0063 12.8599L55.1075 13.0758C55.3419 13.5759 55.1265 14.1713 54.6264 14.4057C54.1264 14.6401 53.531 14.4247 53.2966 13.9247L53.1954 13.7088C52.4957 12.2163 52.5421 10.481 53.3205 9.02802C53.8007 8.1317 53.8293 7.06126 53.3977 6.14056L53.2966 5.92467C53.0621 5.4246 53.2775 4.82919 53.7776 4.59478Z" fill="#212121"/>
<path fill-rule="evenodd" clip-rule="evenodd" d="M57.1268 4.68221C57.5786 4.36455 58.2024 4.47328 58.52 4.92506L58.6427 5.09948C59.7146 6.62406 59.6489 8.67385 58.4815 10.1266C57.8722 10.8849 57.8379 11.9549 58.3974 12.7506L58.52 12.9251C58.8377 13.3768 58.729 14.0006 58.2772 14.3183C57.8254 14.6359 57.2016 14.5272 56.884 14.0754L56.7613 13.901C55.6894 12.3764 55.7551 10.3266 56.9225 8.87385C57.5319 8.11554 57.5662 7.04561 57.0066 6.24984L56.884 6.07541C56.5663 5.62363 56.675 4.99987 57.1268 4.68221Z" fill="#212121"/>
<path fill-rule="evenodd" clip-rule="evenodd" d="M21.6163 15C21.1702 15 20.8086 15.3616 20.8086 15.8077C20.8086 16.2538 21.1702 16.6154 21.6163 16.6154H22V19.9564C20.7359 20.3094 19.8086 21.4695 19.8086 22.8462V35C19.8086 36.6569 21.1517 38 22.8086 38H32.5394C34.1962 38 35.5394 36.6569 35.5394 35V22.8462C35.5394 21.346 34.4382 20.103 33 19.8813V16.6154H33.7317C34.1777 16.6154 34.5394 16.2538 34.5394 15.8077C34.5394 15.3616 34.1777 15 33.7317 15H21.6163ZM31 16.6154H24V19.8462H31V16.6154ZM22.2755 22L33 22V21.9584C33.3205 22.125 33.5394 22.46 33.5394 22.8462V24.8848H21.8086V22.8462C21.8086 22.4899 21.9949 22.1771 22.2755 22ZM21.8086 35V32.154H33.5394V35C33.5394 35.5523 33.0916 36 32.5394 36H22.8086C22.2563 36 21.8086 35.5523 21.8086 35ZM33.3462 26.8848H22V30.154H33.3462V26.8848Z" fill="#212121"/>
<path d="M36.3809 45.3762C36.3809 44.6166 36.9879 44 37.7356 44C38.4833 44 39.0903 44.6166 39.0903 45.3762C39.0903 46.1359 38.4833 46.7525 37.7356 46.7525C36.9879 46.7525 36.3809 46.1359 36.3809 45.3762Z" fill="#212121"/>
<path d="M16.3809 52.3762C16.3809 51.6166 16.9879 51 17.7356 51C18.4833 51 19.0903 51.6166 19.0903 52.3762C19.0903 53.1359 18.4833 53.7525 17.7356 53.7525C16.9879 53.7525 16.3809 53.1359 16.3809 52.3762Z" fill="#212121"/>
<path fill-rule="evenodd" clip-rule="evenodd" d="M38.0907 40.2254L40.8109 42.0829C41.3612 41.4212 42.1907 41 43.1185 41H46.7495C47.3018 41 47.7495 41.4477 47.7495 42C47.7495 42.5523 47.3018 43 46.7495 43H43.1185C42.5662 43 42.1185 43.4477 42.1185 44V53C42.1185 54.6569 40.7753 56 39.1185 56H15.6195C13.9627 56 12.6195 54.6568 12.6195 53L12.6196 44C12.6196 43.4477 12.1718 43 11.6196 43H8C7.44772 43 7 42.5523 7 42C7 41.4477 7.44772 41 8 41H11.6196C12.5603 41 13.3999 41.433 13.9499 42.1105L17.0826 42.8826C17.2766 42.9304 17.4805 42.919 17.668 42.8498L19.7421 42.0848L21.7252 41.0412C22.4961 40.6355 23.4054 40.585 24.2166 40.9028L26.5363 41.8116C26.7491 41.8949 26.9839 41.9029 27.2019 41.8342L29.1349 41.2246C29.6876 41.0503 30.279 41.0398 30.8376 41.1945L32.601 41.6826C32.9883 41.7899 33.4023 41.6548 33.6518 41.3396L34.0469 40.8406C35.0245 39.6059 36.7903 39.3373 38.0907 40.2254ZM16.604 44.8245C17.1861 44.9679 17.7977 44.9337 18.3601 44.7263L20.5574 43.9158L22.6566 42.8111C22.9136 42.6759 23.2166 42.659 23.487 42.765L25.6173 43.5996C25.4682 43.8207 25.3809 44.0882 25.3809 44.3762C25.3809 45.1359 25.9879 45.7525 26.7356 45.7525C27.4833 45.7525 28.0903 45.1359 28.0903 44.3762C28.0903 44.1327 28.0279 43.9038 27.9185 43.7053L29.7364 43.132C29.9206 43.0739 30.1178 43.0704 30.304 43.1219L32.0673 43.6101C33.2295 43.9319 34.4713 43.5265 35.2198 42.5812L35.615 42.0821C35.9408 41.6705 36.5294 41.581 36.9629 41.877L39.8172 43.8261C39.9119 43.8908 40.0139 43.937 40.1187 43.9655L40.1185 44V48.6464L34.1235 46.3983C33.2772 46.081 32.333 46.1621 31.5532 46.6191L27.7247 48.863C27.5713 48.9528 27.3968 49.0002 27.219 49.0002H24.6084C24.5327 49.0002 24.4572 48.9916 24.3835 48.9746L21.6897 48.3529C21.9371 48.1035 22.0903 47.7579 22.0903 47.3762C22.0903 46.6166 21.4833 46 20.7356 46C19.9879 46 19.3809 46.6166 19.3809 47.3762C19.3809 47.5383 19.4085 47.6938 19.4592 47.8382L18.6929 47.6614C18.1182 47.5287 17.5172 47.5685 16.965 47.7755L14.6195 48.6551L14.6196 44.3354L16.604 44.8245ZM14.6195 50.7911L14.6195 53C14.6195 53.5523 15.0673 54 15.6195 54H35.5279C35.4339 53.8127 35.3809 53.6007 35.3809 53.3762C35.3809 52.6166 35.9879 52 36.7356 52C37.4833 52 38.0903 52.6166 38.0903 53.3762C38.0903 53.6007 38.0373 53.8127 37.9434 54H39.1185C39.6708 54 40.1185 53.5523 40.1185 53V50.7824L33.4213 48.271C33.1539 48.1707 32.8573 48.1898 32.6057 48.3217C32.9019 48.5742 33.0903 48.953 33.0903 49.3762C33.0903 50.1359 32.4833 50.7525 31.7356 50.7525C31.0672 50.7525 30.5113 50.2598 30.4008 49.6127L28.736 50.5884C28.2759 50.8581 27.7523 51.0002 27.219 51.0002H24.6084C24.3813 51.0002 24.155 50.9744 23.9338 50.9234L18.2432 49.6101C18.0516 49.5659 17.8513 49.5792 17.6672 49.6482L14.6195 50.7911Z" fill="#212121"/>
</svg>
