<svg width="64" height="64" viewBox="0 0 64 64" fill="none" xmlns="http://www.w3.org/2000/svg">
<path d="M33.3547 42C32.607 42 32 42.6166 32 43.3762C32 44.1359 32.607 44.7525 33.3547 44.7525C34.1025 44.7525 34.7095 44.1359 34.7095 43.3762C34.7095 42.6166 34.1025 42 33.3547 42Z" fill="#212121"/>
<path d="M33 35.3762C33 34.6166 33.607 34 34.3547 34C35.1025 34 35.7095 34.6166 35.7095 35.3762C35.7095 36.1359 35.1025 36.7525 34.3547 36.7525C33.607 36.7525 33 36.1359 33 35.3762Z" fill="#212121"/>
<path d="M25.3547 39C24.607 39 24 39.6166 24 40.3762C24 41.1359 24.607 41.7525 25.3547 41.7525C26.1025 41.7525 26.7095 41.1359 26.7095 40.3762C26.7095 39.6166 26.1025 39 25.3547 39Z" fill="#212121"/>
<path fill-rule="evenodd" clip-rule="evenodd" d="M15 29C15 28.4477 15.4477 28 16 28L47 28C47.5523 28 48 28.4477 48 29C48 29.5523 47.5523 30 47 30L43 30V45.1413C44.0927 44.4032 45.5615 44.4607 46.5974 45.3235L47.6399 46.1917C48.0643 46.5452 48.1218 47.1757 47.7684 47.6001C47.4149 48.0245 46.7844 48.082 46.36 47.7286L45.3175 46.8603C44.9399 46.5458 44.3898 46.5523 44.0197 46.8755L43 47.7661V53C43 54.6569 41.6569 56 40 56H23C21.3431 56 20 54.6569 20 53V48.8782C19.8831 48.8027 19.7701 48.7183 19.6622 48.625L16.3458 45.7566C15.9281 45.3953 15.8823 44.7638 16.2436 44.3461C16.6049 43.9283 17.2364 43.8826 17.6541 44.2439L20 46.2728V30L16 30C15.4477 30 15 29.5523 15 29ZM22 49.3325V53C22 53.5523 22.4477 54 23 54H40C40.5523 54 41 53.5523 41 53V49.1939C40.0187 49.5128 38.9075 49.3123 38.0901 48.5934L36.1657 46.9007C35.7911 46.5712 35.2308 46.5683 34.8527 46.8938L32.8348 48.6316C31.7077 49.6022 30.0396 49.6005 28.9146 48.6274L26.9037 46.8882C26.5281 46.5633 25.971 46.5633 25.5954 46.8882L23.5873 48.625C23.1248 49.025 22.5706 49.2608 22 49.3325ZM41 46.8575L40.7293 47.0939C40.3515 47.4239 39.7877 47.4229 39.411 47.0916L37.4866 45.399C36.3627 44.4104 34.6819 44.4016 33.5476 45.3784L31.5297 47.1161C31.154 47.4397 30.598 47.4391 30.223 47.1147L28.212 45.3755C27.0852 44.4009 25.4139 44.4009 24.287 45.3755L22.2789 47.1123C22.1938 47.1859 22.0995 47.2428 22 47.283V30L26.0513 30C26.0179 30.1196 26 30.2458 26 30.3762C26 31.1359 26.607 31.7525 27.3547 31.7525C28.1025 31.7525 28.7095 31.1359 28.7095 30.3762C28.7095 30.2458 28.6916 30.1196 28.6582 30L41 30V38.166C40.8081 38.0602 40.5883 38 40.3547 38C39.607 38 39 38.6166 39 39.3762C39 40.1359 39.607 40.7525 40.3547 40.7525C40.5883 40.7525 40.8081 40.6923 41 40.5865V46.8575Z" fill="#212121"/>
<path fill-rule="evenodd" clip-rule="evenodd" d="M48.1268 5.18221C48.5786 4.86455 49.2024 4.97328 49.52 5.42506L49.6427 5.59948C50.7146 7.12406 50.6489 9.17385 49.4815 10.6266C48.8722 11.3849 48.8379 12.4549 49.3974 13.2506L49.52 13.4251C49.8377 13.8768 49.729 14.5006 49.2772 14.8183C48.8254 15.1359 48.2016 15.0272 47.884 14.5754L47.7613 14.401C46.6894 12.8764 46.7551 10.8266 47.9225 9.37385C48.5319 8.61554 48.5662 7.54561 48.0066 6.74984L47.884 6.57541C47.5663 6.12363 47.675 5.49987 48.1268 5.18221Z" fill="#212121"/>
<path fill-rule="evenodd" clip-rule="evenodd" d="M51.7776 5.09478C52.2776 4.86037 52.8731 5.07573 53.1075 5.5758L53.2087 5.79169C53.9083 7.2842 53.8619 9.01947 53.0835 10.4725C52.6033 11.3688 52.5747 12.4392 53.0063 13.3599L53.1075 13.5758C53.3419 14.0759 53.1265 14.6713 52.6264 14.9057C52.1264 15.1401 51.531 14.9247 51.2966 14.4247L51.1954 14.2088C50.4957 12.7163 50.5421 10.981 51.3205 9.52802C51.8007 8.6317 51.8293 7.56126 51.3977 6.64056L51.2966 6.42467C51.0621 5.9246 51.2775 5.32919 51.7776 5.09478Z" fill="#212121"/>
<path fill-rule="evenodd" clip-rule="evenodd" d="M55.1268 5.18221C55.5786 4.86455 56.2024 4.97328 56.52 5.42506L56.6427 5.59948C57.7146 7.12406 57.6489 9.17385 56.4815 10.6266C55.8722 11.3849 55.8379 12.4549 56.3974 13.2506L56.52 13.4251C56.8377 13.8768 56.729 14.5006 56.2772 14.8183C55.8254 15.1359 55.2016 15.0272 54.884 14.5754L54.7613 14.401C53.6894 12.8764 53.7551 10.8266 54.9225 9.37385C55.5319 8.61554 55.5662 7.54561 55.0066 6.74984L54.884 6.57541C54.5663 6.12363 54.675 5.49987 55.1268 5.18221Z" fill="#212121"/>
</svg>
