<svg width="64" height="64" viewBox="0 0 64 64" fill="none" xmlns="http://www.w3.org/2000/svg">
<path fill-rule="evenodd" clip-rule="evenodd" d="M50.1268 4.68221C50.5786 4.36455 51.2024 4.47328 51.52 4.92506L51.6427 5.09948C52.7146 6.62406 52.6489 8.67385 51.4815 10.1266C50.8722 10.8849 50.8379 11.9549 51.3974 12.7506L51.52 12.9251C51.8377 13.3768 51.729 14.0006 51.2772 14.3183C50.8254 14.6359 50.2016 14.5272 49.884 14.0754L49.7613 13.901C48.6894 12.3764 48.7551 10.3266 49.9225 8.87385C50.5319 8.11554 50.5662 7.04561 50.0066 6.24984L49.884 6.07541C49.5663 5.62363 49.675 4.99987 50.1268 4.68221Z" fill="#212121"/>
<path fill-rule="evenodd" clip-rule="evenodd" d="M53.7776 4.59478C54.2776 4.36037 54.8731 4.57573 55.1075 5.0758L55.2087 5.29169C55.9083 6.7842 55.8619 8.51947 55.0835 9.97246C54.6033 10.8688 54.5747 11.9392 55.0063 12.8599L55.1075 13.0758C55.3419 13.5759 55.1265 14.1713 54.6264 14.4057C54.1264 14.6401 53.531 14.4247 53.2966 13.9247L53.1954 13.7088C52.4957 12.2163 52.5421 10.481 53.3205 9.02802C53.8007 8.1317 53.8293 7.06126 53.3977 6.14056L53.2966 5.92467C53.0621 5.4246 53.2775 4.82919 53.7776 4.59478Z" fill="#212121"/>
<path fill-rule="evenodd" clip-rule="evenodd" d="M57.1268 4.68221C57.5786 4.36455 58.2024 4.47328 58.52 4.92506L58.6427 5.09948C59.7146 6.62406 59.6489 8.67385 58.4815 10.1266C57.8722 10.8849 57.8379 11.9549 58.3974 12.7506L58.52 12.9251C58.8377 13.3768 58.729 14.0006 58.2772 14.3183C57.8254 14.6359 57.2016 14.5272 56.884 14.0754L56.7613 13.901C55.6894 12.3764 55.7551 10.3266 56.9225 8.87385C57.5319 8.11554 57.5662 7.04561 57.0066 6.24984L56.884 6.07541C56.5663 5.62363 56.675 4.99987 57.1268 4.68221Z" fill="#212121"/>
<path fill-rule="evenodd" clip-rule="evenodd" d="M21.6797 22.25C20.5751 22.25 19.6797 23.1454 19.6797 24.25V25.4808L19.6797 25.4873H16.2598C15.1552 25.4873 14.2598 26.3827 14.2598 27.4873V29.5899C14.2598 30.6944 15.1552 31.5899 16.2598 31.5899H17.0211L17.4365 46.8047C17.2117 48.0188 17.1767 49.2605 17.3377 50.496C17.3051 50.4014 17.2755 50.3016 17.2489 50.1967C17.1417 49.7756 16.9378 49.1572 16.8432 48.8757C16.5564 48.0215 15.4287 47.8621 14.9143 48.5978C14.83 48.7184 14.7059 48.8965 14.5847 49.0704L14.283 49.5031L14.2229 49.5888L14.2157 49.5991C13.0024 51.131 12.2072 52.9516 12.0051 54.9502C11.9496 55.4997 12.35 55.9902 12.8995 56.0457C13.449 56.1013 13.9394 55.7009 13.995 55.1514C14.1386 53.731 14.6595 52.4084 15.4815 51.2443C15.767 52.0226 16.2411 52.7435 17.0083 53.2645C17.114 53.3362 17.2245 53.3954 17.3215 53.4427C18.6533 54.0914 19.926 52.82 19.5869 51.5678C18.4706 47.4452 20.044 42.9288 24.2893 39.9804C25.1896 39.3551 26.1583 38.8368 27.1737 38.4248C27.2064 38.4115 27.2392 38.3983 27.272 38.3853C27.0556 39.004 26.9018 39.602 26.8517 40.1832C26.6846 42.1206 27.0501 43.5236 27.9001 44.7689C28.5938 45.7852 29.6069 46.6744 30.7154 47.6474C30.8703 47.7833 31.027 47.9209 31.185 48.0607C31.6716 48.4912 32.1963 48.9008 32.7042 49.2904C32.2819 49.9843 31.7688 50.6298 31.1772 51.2119C30.7743 51.6084 30.3459 51.9728 29.8872 52.363C29.7347 52.4927 29.5788 52.6254 29.4194 52.763C28.8032 53.2948 28.1554 53.8845 27.6121 54.5754C27.2707 55.0095 27.3459 55.6382 27.78 55.9796C28.2141 56.321 28.8428 56.2458 29.1842 55.8117C29.6019 55.2805 30.1264 54.7947 30.7261 54.277C30.8604 54.1611 31.0001 54.0423 31.143 53.9208C31.6143 53.52 32.1202 53.0898 32.5799 52.6376C34.8049 50.4484 36.1414 47.4603 36.0471 44.2349C36.5963 44.5784 37.1832 44.9913 37.7802 45.4524C39.2604 46.5956 40.8354 48.2369 42.0331 50.0607C43.2393 51.8975 44 53.8227 44 55.5503C44 56.1026 44.4477 56.5503 45 56.5503C45.5523 56.5503 46 56.1026 46 55.5503C46 53.2779 45.0207 50.9666 43.7048 48.9628C42.5162 47.1528 41.0015 45.5147 39.5117 44.2775L39.9649 31.5899H40.2598C41.3643 31.5899 42.2598 30.6944 42.2598 29.5899V27.4873C42.2598 26.3827 41.3643 25.4873 40.2598 25.4873H36.841L36.841 25.4808V24.25C36.841 23.1454 35.9456 22.25 34.841 22.25H21.6797ZM34.841 24.25H21.6797L21.6797 25.4808L34.841 25.4808V24.25ZM40.2598 27.4873L16.2598 27.4873V29.5899L40.2598 29.5899V27.4873ZM23.1484 38.3377C21.5869 39.4222 20.3235 40.7083 19.3717 42.1199L19.0324 31.6001H37.9632L37.5621 42.8325C36.818 42.338 36.0861 41.92 35.4167 41.6322C35.2751 41.5713 34.9542 41.4621 34.5811 41.5942C34.1591 41.7437 33.9766 42.0859 33.9096 42.2926C33.8475 42.4844 33.846 42.6596 33.8488 42.7541C33.8519 42.8625 33.865 42.9653 33.8779 43.0477C33.8997 43.1874 33.9335 43.3409 33.9586 43.4552L33.9688 43.5017C33.9831 43.5675 33.9943 43.6206 34.0028 43.666C34.0069 43.688 34.0099 43.7055 34.0119 43.719L34.0141 43.7343C34.0145 43.738 34.0147 43.7398 34.0147 43.7398C34.0183 43.7797 34.0217 43.8196 34.0248 43.8595C34.1208 45.0974 33.9572 46.3052 33.5734 47.4348C33.2037 47.1474 32.8487 46.8623 32.5103 46.5628C32.3486 46.4198 32.193 46.2828 32.0433 46.151L32.0415 46.1494C30.8941 45.1392 30.0929 44.4339 29.552 43.6414C28.9996 42.8322 28.7107 41.9042 28.8443 40.3551C28.9071 39.6269 29.2353 38.7451 29.8118 37.4601C29.9505 37.1508 29.9232 36.7923 29.7391 36.5077C29.555 36.2231 29.2393 36.0511 28.9004 36.0508C28.0338 36.0499 27.2387 36.2531 26.6925 36.4643C26.6019 36.4993 26.5117 36.5351 26.4217 36.5716C25.2756 37.0366 24.1756 37.6243 23.1484 38.3377Z" fill="#212121"/>
</svg>
