<svg width="64" height="64" viewBox="0 0 64 64" fill="none" xmlns="http://www.w3.org/2000/svg">
<path fill-rule="evenodd" clip-rule="evenodd" d="M50.1268 4.68221C50.5786 4.36455 51.2024 4.47328 51.52 4.92506L51.6427 5.09948C52.7146 6.62406 52.6489 8.67385 51.4815 10.1266C50.8722 10.8849 50.8379 11.9549 51.3974 12.7506L51.52 12.9251C51.8377 13.3768 51.729 14.0006 51.2772 14.3183C50.8254 14.6359 50.2016 14.5272 49.884 14.0754L49.7613 13.901C48.6894 12.3764 48.7551 10.3266 49.9225 8.87385C50.5319 8.11554 50.5662 7.04561 50.0066 6.24984L49.884 6.07541C49.5663 5.62363 49.675 4.99987 50.1268 4.68221Z" fill="#212121"/>
<path fill-rule="evenodd" clip-rule="evenodd" d="M53.7776 4.59478C54.2776 4.36037 54.8731 4.57573 55.1075 5.0758L55.2087 5.29169C55.9083 6.7842 55.8619 8.51947 55.0835 9.97246C54.6033 10.8688 54.5747 11.9392 55.0063 12.8599L55.1075 13.0758C55.3419 13.5759 55.1265 14.1713 54.6264 14.4057C54.1264 14.6401 53.531 14.4247 53.2966 13.9247L53.1954 13.7088C52.4957 12.2163 52.5421 10.481 53.3205 9.02802C53.8007 8.1317 53.8293 7.06126 53.3977 6.14056L53.2966 5.92467C53.0621 5.4246 53.2775 4.82919 53.7776 4.59478Z" fill="#212121"/>
<path fill-rule="evenodd" clip-rule="evenodd" d="M57.1268 4.68221C57.5786 4.36455 58.2024 4.47328 58.52 4.92506L58.6427 5.09948C59.7146 6.62406 59.6489 8.67385 58.4815 10.1266C57.8722 10.8849 57.8379 11.9549 58.3974 12.7506L58.52 12.9251C58.8377 13.3768 58.729 14.0006 58.2772 14.3183C57.8254 14.6359 57.2016 14.5272 56.884 14.0754L56.7613 13.901C55.6894 12.3764 55.7551 10.3266 56.9225 8.87385C57.5319 8.11554 57.5662 7.04561 57.0066 6.24984L56.884 6.07541C56.5663 5.62363 56.675 4.99987 57.1268 4.68221Z" fill="#212121"/>
<path fill-rule="evenodd" clip-rule="evenodd" d="M14.5287 26.1121L19.2443 26.1121V26.7802C19.2443 27.8244 20.0908 28.6708 21.1349 28.6708H23.4287C24.4729 28.6708 25.3193 27.8244 25.3193 26.7802V25.5612C26.422 26.1912 27.1651 27.3785 27.1651 28.7394V36.6152C27.1651 38.5051 26.9185 40.5783 26.2562 42.1404C25.604 43.6788 24.6576 44.5235 23.2661 44.5235C21.9755 44.5235 21.138 44.0589 20.6222 43.621C20.3586 43.3971 20.1735 43.1748 20.0573 43.0139C19.9995 42.9338 19.9598 42.8704 19.9368 42.8316C19.9253 42.8122 19.9182 42.7994 19.9151 42.7937L19.914 42.7914C19.8975 42.7588 19.8794 42.7274 19.8599 42.6974L19.86 34.2231C19.86 32.6871 18.6147 31.4419 17.0787 31.4419H11.8672C11.3149 31.4419 10.8672 31.8896 10.8672 32.4419C10.8672 32.9942 11.3149 33.4419 11.8672 33.4419H17.0787C17.5102 33.4419 17.86 33.7917 17.86 34.2231L17.8599 52.8053C17.8599 54.3413 19.1051 55.5865 20.6412 55.5865H41.8148C43.3509 55.5865 44.5961 54.3413 44.5961 52.8053V34.2231C44.5961 33.7917 44.9459 33.4419 45.3773 33.4419H50.3241C50.8764 33.4419 51.3241 32.9942 51.3241 32.4419C51.3241 31.8896 50.8764 31.4419 50.3241 31.4419H45.3773C43.8413 31.4419 42.5961 32.6871 42.5961 34.2231V43.0354L41.356 44.176C41.3161 44.1283 41.2714 44.074 41.223 44.0134C41.0047 43.7407 40.7124 43.3462 40.4207 42.8653C40.3516 42.7514 40.2834 42.6339 40.2167 42.5132C39.7087 41.5944 39.2906 40.4899 39.2906 39.3713V33.3147C39.2906 25.5141 33.0705 19.1654 25.3193 18.9597V17.2373C25.3193 16.1931 24.4729 15.3467 23.4287 15.3467H21.1349C20.0908 15.3467 19.2443 16.1931 19.2443 17.2373V17.9834H14.5287V17.8086C14.5287 16.8248 13.7312 16.0273 12.7474 16.0273H9.60156C8.61781 16.0273 7.82031 16.8248 7.82031 17.8086V26.21C7.82031 27.1937 8.6178 27.9912 9.60156 27.9912H12.7474C13.7312 27.9912 14.5287 27.1937 14.5287 26.21V26.1121ZM23.3193 17.3467H21.2443V18.5381C21.2443 19.3363 20.5972 19.9834 19.799 19.9834H14.5287V24.1121L19.799 24.1121C20.5972 24.1121 21.2443 24.7591 21.2443 25.5574V26.6708H23.3193L23.3193 17.3467ZM38.9029 44.2095C38.8392 44.1109 38.7749 44.0084 38.7106 43.9023C38.0305 42.7808 37.2906 41.1618 37.2906 39.3713V33.3147C37.2906 26.6186 31.9656 21.1656 25.3193 20.9606V23.3779C27.5553 24.1334 29.1651 26.2484 29.1651 28.7394V36.6152C29.1651 38.6222 28.9107 41.0031 28.0976 42.921C27.2745 44.8625 25.7715 46.5235 23.2661 46.5235C21.793 46.5235 20.6724 46.0841 19.8599 45.5456L19.8599 52.8053C19.8599 53.2368 20.2097 53.5865 20.6412 53.5865H41.8148C42.2463 53.5865 42.5961 53.2368 42.5961 52.8053V45.7527L42.002 46.2991C40.9468 47.2695 39.3269 47.2789 38.2605 46.3209L37.161 45.3331C36.863 45.0654 36.4107 45.0665 36.114 45.3357L35.0888 46.2657C33.9943 47.2587 32.3144 47.2223 31.2639 46.1829L30.3911 45.3194C29.9985 44.931 29.9952 44.2978 30.3836 43.9052C30.7721 43.5126 31.4052 43.5093 31.7978 43.8977L32.6706 44.7612C32.9656 45.0532 33.4375 45.0634 33.745 44.7845L34.7702 43.8544C35.8266 42.896 37.4367 42.8921 38.4977 43.8453L38.9029 44.2095ZM9.60156 17.8086L12.7474 17.8086V26.21L9.60156 26.21V17.8086Z" fill="#212121"/>
</svg>
