<svg width="64" height="64" viewBox="0 0 64 64" fill="none" xmlns="http://www.w3.org/2000/svg">
<path fill-rule="evenodd" clip-rule="evenodd" d="M50.1268 4.68221C50.5786 4.36455 51.2024 4.47328 51.52 4.92506L51.6427 5.09948C52.7146 6.62406 52.6489 8.67385 51.4815 10.1266C50.8722 10.8849 50.8379 11.9549 51.3974 12.7506L51.52 12.9251C51.8377 13.3768 51.729 14.0006 51.2772 14.3183C50.8254 14.6359 50.2016 14.5272 49.884 14.0754L49.7613 13.901C48.6894 12.3764 48.7551 10.3266 49.9225 8.87385C50.5319 8.11554 50.5662 7.04561 50.0066 6.24984L49.884 6.07541C49.5663 5.62363 49.675 4.99987 50.1268 4.68221Z" fill="#212121"/>
<path fill-rule="evenodd" clip-rule="evenodd" d="M53.7776 4.59478C54.2776 4.36037 54.8731 4.57573 55.1075 5.0758L55.2087 5.29169C55.9083 6.7842 55.8619 8.51947 55.0835 9.97246C54.6033 10.8688 54.5747 11.9392 55.0063 12.8599L55.1075 13.0758C55.3419 13.5759 55.1265 14.1713 54.6264 14.4057C54.1264 14.6401 53.531 14.4247 53.2966 13.9247L53.1954 13.7088C52.4957 12.2163 52.5421 10.481 53.3205 9.02802C53.8007 8.1317 53.8293 7.06126 53.3977 6.14056L53.2966 5.92467C53.0621 5.4246 53.2775 4.82919 53.7776 4.59478Z" fill="#212121"/>
<path fill-rule="evenodd" clip-rule="evenodd" d="M57.1268 4.68221C57.5786 4.36455 58.2024 4.47328 58.52 4.92506L58.6427 5.09948C59.7146 6.62406 59.6489 8.67385 58.4815 10.1266C57.8722 10.8849 57.8379 11.9549 58.3974 12.7506L58.52 12.9251C58.8377 13.3768 58.729 14.0006 58.2772 14.3183C57.8254 14.6359 57.2016 14.5272 56.884 14.0754L56.7613 13.901C55.6894 12.3764 55.7551 10.3266 56.9225 8.87385C57.5319 8.11554 57.5662 7.04561 57.0066 6.24984L56.884 6.07541C56.5663 5.62363 56.675 4.99987 57.1268 4.68221Z" fill="#212121"/>
<path fill-rule="evenodd" clip-rule="evenodd" d="M20.5984 47.8343C23.9237 50.5717 27.2661 49.2422 29.5959 46.8885C33.0509 43.3981 32.3722 34.5188 32.3722 34.5188C32.3722 34.5188 23.5897 33.8264 20.1347 37.3168C17.805 39.6704 16.4876 43.0483 19.1925 46.4119L18.2699 47.3446C17.8815 47.7372 17.8815 48.3738 18.2699 48.7665C18.6583 49.1591 19.288 49.1591 19.6764 48.7665L20.5984 47.8343ZM24.8904 47.3264C25.9742 47.1957 27.1284 46.5385 28.19 45.4661C28.7465 44.9038 29.2244 44.0252 29.5943 42.8659C29.9589 41.7232 30.1778 40.4375 30.3004 39.1951C30.3999 38.1875 30.4329 37.2418 30.4367 36.4741C29.6773 36.4774 28.7419 36.5101 27.7452 36.61C26.5162 36.7331 25.2442 36.9535 24.1137 37.3213C22.9667 37.6944 22.0973 38.1769 21.5407 38.7392C20.4792 39.8116 19.8283 40.978 19.6983 42.0736C19.6017 42.887 19.7659 43.865 20.6083 44.9805L24.1234 41.4268C24.5118 41.0341 25.1415 41.0341 25.5299 41.4268C25.9183 41.8194 25.9183 42.456 25.5299 42.8487L22.014 46.4031C23.1175 47.2566 24.0854 47.4234 24.8904 47.3264Z" fill="#212121"/>
<path fill-rule="evenodd" clip-rule="evenodd" d="M33.375 22C33.9273 22 34.375 21.5523 34.375 21C34.375 20.4477 33.9273 20 33.375 20H17.625C17.0727 20 16.625 20.4477 16.625 21C16.625 21.5523 17.0727 22 17.625 22H18.875V25.5483H16.2554C13.9052 25.5483 12 27.4536 12 29.8038V53.1353C12 55.4855 13.9052 57.3907 16.2554 57.3907H34.7446C37.0948 57.3907 39 55.4855 39 53.1353V29.8038C39 27.4536 37.0948 25.5483 34.7446 25.5483H32.125V22H33.375ZM30.125 22H20.875V25.5483H30.125V22ZM34.7446 27.5483H16.2554C15.0098 27.5483 14 28.5581 14 29.8038V53.1353C14 54.3809 15.0098 55.3907 16.2554 55.3907H34.7446C35.9902 55.3907 37 54.3809 37 53.1353V29.8038C37 28.5581 35.9902 27.5483 34.7446 27.5483Z" fill="#212121"/>
</svg>
