<svg width="64" height="64" viewBox="0 0 64 64" fill="none" xmlns="http://www.w3.org/2000/svg">
<path fill-rule="evenodd" clip-rule="evenodd" d="M50.1268 4.68221C50.5786 4.36455 51.2024 4.47328 51.52 4.92506L51.6427 5.09948C52.7146 6.62406 52.6489 8.67385 51.4815 10.1266C50.8722 10.8849 50.8379 11.9549 51.3974 12.7506L51.52 12.9251C51.8377 13.3768 51.729 14.0006 51.2772 14.3183C50.8254 14.6359 50.2016 14.5272 49.884 14.0754L49.7613 13.901C48.6894 12.3764 48.7551 10.3266 49.9225 8.87385C50.5319 8.11554 50.5662 7.04561 50.0066 6.24984L49.884 6.07541C49.5663 5.62363 49.675 4.99987 50.1268 4.68221Z" fill="#212121"/>
<path fill-rule="evenodd" clip-rule="evenodd" d="M53.7776 4.59478C54.2776 4.36037 54.8731 4.57573 55.1075 5.0758L55.2087 5.29169C55.9083 6.7842 55.8619 8.51947 55.0835 9.97246C54.6033 10.8688 54.5747 11.9392 55.0063 12.8599L55.1075 13.0758C55.3419 13.5759 55.1265 14.1713 54.6264 14.4057C54.1264 14.6401 53.531 14.4247 53.2966 13.9247L53.1954 13.7088C52.4957 12.2163 52.5421 10.481 53.3205 9.02802C53.8007 8.1317 53.8293 7.06126 53.3977 6.14056L53.2966 5.92467C53.0621 5.4246 53.2775 4.82919 53.7776 4.59478Z" fill="#212121"/>
<path fill-rule="evenodd" clip-rule="evenodd" d="M57.1268 4.68221C57.5786 4.36455 58.2024 4.47328 58.52 4.92506L58.6427 5.09948C59.7146 6.62406 59.6489 8.67385 58.4815 10.1266C57.8722 10.8849 57.8379 11.9549 58.3974 12.7506L58.52 12.9251C58.8377 13.3768 58.729 14.0006 58.2772 14.3183C57.8254 14.6359 57.2016 14.5272 56.884 14.0754L56.7613 13.901C55.6894 12.3764 55.7551 10.3266 56.9225 8.87385C57.5319 8.11554 57.5662 7.04561 57.0066 6.24984L56.884 6.07541C56.5663 5.62363 56.675 4.99987 57.1268 4.68221Z" fill="#212121"/>
<path d="M23.0036 41.9974C23.0049 41.4451 22.5583 40.9962 22.006 40.9949C21.4538 40.9935 21.0049 41.4401 21.0036 41.9924C20.9991 43.7736 21.3536 45.8037 22.3904 47.4225C23.4646 49.0997 25.233 50.2642 27.8192 50.2643C28.3715 50.2643 28.8192 49.8166 28.8192 49.2643C28.8192 48.712 28.3715 48.2643 27.8192 48.2643C25.9366 48.2642 24.793 47.4656 24.0745 46.3438C23.3186 45.1636 22.9997 43.5591 23.0036 41.9974Z" fill="#212121"/>
<path fill-rule="evenodd" clip-rule="evenodd" d="M42.9929 41.0848C42.9903 48.4449 39.6564 55.8038 29.4942 55.8002C19.332 55.7967 16.0033 48.4354 16.0059 41.0753C16.0094 30.9131 29.5072 18.9998 29.5072 18.9998C29.5072 18.9998 42.9965 30.9226 42.9929 41.0848ZM40.9929 41.0841C40.9917 44.5066 40.2097 47.7005 38.463 49.9912C36.7845 52.1924 34.0338 53.8018 29.4949 53.8002C24.956 53.7986 22.2065 52.1873 20.5295 49.9849C18.7844 47.693 18.0047 44.4985 18.0059 41.076C18.0066 38.9585 18.7173 36.6235 19.9078 34.2293C21.091 31.8496 22.6896 29.528 24.3239 27.4707C25.9538 25.4188 27.5887 23.6677 28.818 22.4285C29.0654 22.1791 29.296 21.9508 29.5062 21.7456C29.7162 21.951 29.9466 22.1794 30.1939 22.429C31.4223 23.669 33.056 25.4214 34.6844 27.4743C36.3172 29.5328 37.9142 31.8555 39.0958 34.236C40.2846 36.6311 40.9936 38.9666 40.9929 41.0841Z" fill="#212121"/>
</svg>
