<svg width="64" height="64" viewBox="0 0 64 64" fill="none" xmlns="http://www.w3.org/2000/svg">
<path fill-rule="evenodd" clip-rule="evenodd" d="M50.1268 4.68221C50.5786 4.36455 51.2024 4.47328 51.52 4.92506L51.6427 5.09948C52.7146 6.62406 52.6489 8.67385 51.4815 10.1266C50.8722 10.8849 50.8379 11.9549 51.3974 12.7506L51.52 12.9251C51.8377 13.3768 51.729 14.0006 51.2772 14.3183C50.8254 14.6359 50.2016 14.5272 49.884 14.0754L49.7613 13.901C48.6894 12.3764 48.7551 10.3266 49.9225 8.87385C50.5319 8.11554 50.5662 7.04561 50.0066 6.24984L49.884 6.07541C49.5663 5.62363 49.675 4.99987 50.1268 4.68221Z" fill="#212121"/>
<path fill-rule="evenodd" clip-rule="evenodd" d="M53.7776 4.59478C54.2776 4.36037 54.8731 4.57573 55.1075 5.0758L55.2087 5.29169C55.9083 6.7842 55.8619 8.51947 55.0835 9.97246C54.6033 10.8688 54.5747 11.9392 55.0063 12.8599L55.1075 13.0758C55.3419 13.5759 55.1265 14.1713 54.6264 14.4057C54.1264 14.6401 53.531 14.4247 53.2966 13.9247L53.1954 13.7088C52.4957 12.2163 52.5421 10.481 53.3205 9.02802C53.8007 8.1317 53.8293 7.06126 53.3977 6.14056L53.2966 5.92467C53.0621 5.4246 53.2775 4.82919 53.7776 4.59478Z" fill="#212121"/>
<path fill-rule="evenodd" clip-rule="evenodd" d="M57.1268 4.68221C57.5786 4.36455 58.2024 4.47328 58.52 4.92506L58.6427 5.09948C59.7146 6.62406 59.6489 8.67385 58.4815 10.1266C57.8722 10.8849 57.8379 11.9549 58.3974 12.7506L58.52 12.9251C58.8377 13.3768 58.729 14.0006 58.2772 14.3183C57.8254 14.6359 57.2016 14.5272 56.884 14.0754L56.7613 13.901C55.6894 12.3764 55.7551 10.3266 56.9225 8.87385C57.5319 8.11554 57.5662 7.04561 57.0066 6.24984L56.884 6.07541C56.5663 5.62363 56.675 4.99987 57.1268 4.68221Z" fill="#212121"/>
<path d="M26.5549 19.1137L25.9374 19.9998C26.5549 19.1137 26.5558 19.1144 26.5561 19.1146L26.558 19.1159L26.564 19.1202L26.5848 19.1348C26.6025 19.1473 26.6276 19.1653 26.66 19.1885C26.7246 19.2351 26.8179 19.303 26.9366 19.3916C27.1741 19.5687 27.5138 19.8285 27.9308 20.1648C28.7641 20.837 29.9092 21.8175 31.165 23.0573C33.6656 25.5262 36.6566 29.074 38.4651 33.3088C38.6993 33.8573 38.4445 34.4919 37.896 34.7261C37.3475 34.9604 36.7129 34.7056 36.4786 34.1571C34.8245 30.2837 32.0484 26.965 29.6474 24.5944C28.4523 23.4144 27.363 22.4819 26.5747 21.846C26.3218 21.6421 26.1002 21.4689 25.9164 21.3281C25.5547 21.5878 25.0496 21.9635 24.4474 22.4459C23.1809 23.4603 21.4936 24.94 19.8092 26.7998C16.4169 30.5453 13.16 35.6938 13.16 41.5998C13.16 45.0506 13.9826 48.3802 15.9385 50.8252C17.8613 53.2289 20.9924 54.9198 25.9374 54.9198C28.461 54.9198 30.5038 54.478 32.1468 53.7398C32.6909 53.4953 33.3301 53.7382 33.5746 54.2823C33.819 54.8264 33.5761 55.4656 33.0321 55.7101C31.0666 56.5931 28.7139 57.0798 25.9374 57.0798C20.4461 57.0798 16.6485 55.1707 14.2517 52.1745C11.8879 49.2195 11 45.349 11 41.5998C11 34.9058 14.6718 29.2544 18.2082 25.3498C19.9881 23.3846 21.7652 21.8268 23.097 20.76C23.7637 20.226 24.321 19.8133 24.7141 19.5324C24.9108 19.3919 25.0665 19.2843 25.1746 19.2108C25.2286 19.1741 25.2708 19.1459 25.3001 19.1264L25.3345 19.1036L25.3443 19.0972L25.3491 19.0941L25.936 19.9976L25.4228 19.2071C25.3505 19.0957 25.3493 19.094 25.3491 19.0941L25.9586 18.6982L26.5549 19.1137Z" fill="#212121"/>
<path d="M21.3927 34.3281C20.7962 34.3281 20.3127 34.8117 20.3127 35.4081V45.096C20.3127 45.6925 20.7962 46.176 21.3927 46.176C21.9891 46.176 22.4727 45.6925 22.4727 45.096V41.7699H28.2433V45.096C28.2433 45.6925 28.7269 46.176 29.3233 46.176C29.9198 46.176 30.4033 45.6925 30.4033 45.096V35.4081C30.4033 34.8117 29.9198 34.3281 29.3233 34.3281C28.7269 34.3281 28.2433 34.8117 28.2433 35.4081V39.6099H22.4727V35.4081C22.4727 34.8117 21.9891 34.3281 21.3927 34.3281Z" fill="#212121"/>
<path d="M35.7463 43.5663C35.9412 42.701 36.4973 42.3626 37.086 42.3158C37.7538 42.2628 38.3964 42.59 38.671 43.0693C39.0226 43.683 39.1062 44.1688 39.0623 44.5745C39.0173 44.9908 38.8261 45.4312 38.4444 45.9254C37.6458 46.9597 36.2314 47.9712 34.4596 49.2076C33.5858 49.8174 34.0017 51.2099 35.0887 51.2099L41.3267 51.2099C41.879 51.2099 42.3267 50.7622 42.3267 50.2099C42.3267 49.6576 41.879 49.2099 41.3267 49.2099L37.8668 49.2099C38.7129 48.5497 39.4708 47.8686 40.0274 47.1478C40.5583 46.4602 40.9545 45.6794 41.0507 44.7895C41.1481 43.8889 40.9268 42.9834 40.4064 42.0751C39.6908 40.8261 38.2474 40.2174 36.9278 40.3221C35.529 40.4331 34.1963 41.346 33.7952 43.1268C33.6738 43.6656 34.0122 44.2008 34.551 44.3221C35.0898 44.4435 35.6249 44.1051 35.7463 43.5663Z" fill="#212121"/>
</svg>
