<svg width="64" height="64" viewBox="0 0 64 64" fill="none" xmlns="http://www.w3.org/2000/svg">
<path fill-rule="evenodd" clip-rule="evenodd" d="M38 13H11V41H38V13ZM11 11C9.89543 11 9 11.8954 9 13V41C9 42.1046 9.89543 43 11 43H40V13C40 11.8954 39.1046 11 38 11H11Z" fill="#0B0D0E"/>
<path fill-rule="evenodd" clip-rule="evenodd" d="M40 48V41H12C10.3431 41 9 42.3431 9 44V45C9 46.6569 10.3431 48 12 48H15.1707C15.5825 46.8348 16.6938 46 18 46C19.3062 46 20.4175 46.8348 20.8293 48H40ZM11 44C11 43.4477 11.4477 43 12 43H38V46H18H12C11.4477 46 11 45.5523 11 45V44Z" fill="#0B0D0E"/>
<path fill-rule="evenodd" clip-rule="evenodd" d="M23 49C23 51.7614 20.7614 54 18 54C15.2386 54 13 51.7614 13 49C13 46.2386 15.2386 44 18 44C20.7614 44 23 46.2386 23 49ZM18 52C19.6569 52 21 50.6569 21 49C21 47.3431 19.6569 46 18 46C16.3431 46 15 47.3431 15 49C15 50.6569 16.3431 52 18 52Z" fill="#0B0D0E"/>
<path fill-rule="evenodd" clip-rule="evenodd" d="M49.227 22H38V48H43.1707C43.5822 46.8358 44.6918 46.0015 45.9966 46H40V24H49.227C49.6823 24 50.08 24.3075 50.1947 24.7481L52.9355 35.276C52.9783 35.4405 53 35.6099 53 35.7799V44C53 45.1046 52.1046 46 51 46H46.0034C47.3082 46.0015 48.4178 46.8358 48.8293 48H51C53.2091 48 55 46.2091 55 44V35.7799C55 35.4398 54.9566 35.1012 54.871 34.7721L52.1302 24.2442C51.7862 22.9225 50.5928 22 49.227 22Z" fill="#0B0D0E"/>
<path fill-rule="evenodd" clip-rule="evenodd" d="M51 49C51 51.7614 48.7614 54 46 54C43.2386 54 41 51.7614 41 49C41 46.2386 43.2386 44 46 44C48.7614 44 51 46.2386 51 49ZM46 52C47.6569 52 49 50.6569 49 49C49 47.3431 47.6569 46 46 46C44.3431 46 43 47.3431 43 49C43 50.6569 44.3431 52 46 52Z" fill="#0B0D0E"/>
<path fill-rule="evenodd" clip-rule="evenodd" d="M44 26H52V28H46V35H53V37H44V26Z" fill="#0B0D0E"/>
<path fill-rule="evenodd" clip-rule="evenodd" d="M53 39V43C51.8954 43 51 42.1046 51 41C51 39.8954 51.8954 39 53 39Z" fill="#0B0D0E"/>
<path d="M45.642 11.7849C45.642 11.0334 45.7662 10.3109 45.9952 9.6369L46.401 9.87121C46.8793 10.1473 47.4909 9.98347 47.767 9.50518C48.0432 9.02689 47.8793 8.4153 47.401 8.13916L46.9176 7.86004C47.9451 6.44924 49.5124 5.45669 51.3158 5.18581V5.52625C51.3158 6.07854 51.7635 6.52625 52.3158 6.52625C52.8681 6.52625 53.3158 6.07854 53.3158 5.52625V5.18594C55.1133 5.45615 56.676 6.44329 57.7036 7.84689L57.1974 8.13916C56.7191 8.4153 56.5552 9.02689 56.8314 9.50518C57.1075 9.98347 57.7191 10.1473 58.1974 9.87121L58.6303 9.62129C58.8627 10.2998 58.9888 11.0276 58.9888 11.7849C58.9888 12.3371 59.4365 12.7849 59.9888 12.7849C60.5411 12.7849 60.9888 12.3371 60.9888 11.7849C60.9888 6.99467 57.1056 3.11145 52.3154 3.11145C47.5252 3.11145 43.642 6.99467 43.642 11.7849C43.642 12.3371 44.0897 12.7849 44.642 12.7849C45.1943 12.7849 45.642 12.3371 45.642 11.7849Z" fill="#0B0D0E"/>
<path d="M51.5394 8.37084C51.2404 7.9065 50.6216 7.77246 50.1572 8.07146C49.6929 8.37046 49.5588 8.98928 49.8578 9.45362L51.7074 12.326C52.0064 12.7903 52.6252 12.9244 53.0896 12.6254C53.5539 12.3264 53.6879 11.7075 53.3889 11.2432L51.5394 8.37084Z" fill="#0B0D0E"/>
</svg>
