<svg width="64" height="64" viewBox="0 0 64 64" fill="none" xmlns="http://www.w3.org/2000/svg">
<path fill-rule="evenodd" clip-rule="evenodd" d="M27.418 37.7652C27.418 35.624 29.1537 33.8882 31.2949 33.8882C33.4361 33.8882 35.1719 35.624 35.1719 37.7652C35.1719 39.9063 33.4361 41.6421 31.2949 41.6421C29.1537 41.6421 27.418 39.9063 27.418 37.7652ZM31.2949 35.8882C30.2583 35.8882 29.418 36.7285 29.418 37.7652C29.418 38.8018 30.2583 39.6421 31.2949 39.6421C32.3315 39.6421 33.1719 38.8018 33.1719 37.7652C33.1719 36.7285 32.3315 35.8882 31.2949 35.8882Z" fill="#0B0D0E"/>
<path fill-rule="evenodd" clip-rule="evenodd" d="M25.723 17.1283L11.4849 35.5596H12.754C13.2329 35.5596 13.6446 35.8992 13.7357 36.3693L15.0176 42.9847H18.8146C19.3669 42.9847 19.8146 43.4325 19.8146 43.9847C19.8146 44.537 19.3669 44.9847 18.8146 44.9847H7.33465C4.73196 44.9847 2.62207 42.8748 2.62207 40.2722C2.62207 38.0999 4.09179 36.2709 6.09109 35.7254C5.71412 35.1101 5.68715 34.3151 6.07635 33.6592L21.8151 7.13375C22.263 6.37887 23.019 5.85802 23.8839 5.70846L24.734 5.56147C26.3818 5.27654 27.9445 6.39386 28.2078 8.04523L28.5201 10.004L35.8076 14.5876C36.6806 15.1367 37.2103 16.0957 37.2103 17.127L37.2103 30.4917H44.2852C44.5272 30.4917 44.7611 30.5795 44.9433 30.7388L51.1386 36.1545C51.573 36.5343 51.8223 37.0832 51.8223 37.6603V44.039C51.8223 44.3042 51.7169 44.5585 51.5294 44.7461C51.3418 44.9336 51.0875 45.039 50.8223 45.039H42.1347V47.9099C43.2461 47.9257 44.3532 48.054 45.4391 48.2928L54.741 50.3385C56.8651 50.8056 58.3781 52.6876 58.3781 54.8624C58.3781 54.9231 58.377 54.9835 58.3747 55.0437C58.3769 55.101 58.3781 55.1585 58.3781 55.2164C58.3781 57.579 56.4628 59.4943 54.1002 59.4943C54.0427 59.4943 53.9855 59.4932 53.9285 59.4909C53.868 59.4933 53.8072 59.4945 53.7461 59.4945H21.5656C21.5045 59.4945 21.4437 59.4933 21.3832 59.4909C21.3262 59.4932 21.269 59.4943 21.2115 59.4943C18.8489 59.4943 16.9336 57.579 16.9336 55.2164C16.9336 55.1583 16.9348 55.1005 16.937 55.0429C16.9348 54.983 16.9336 54.9229 16.9336 54.8624C16.9336 52.6876 18.4466 50.8056 20.5707 50.3385L29.8726 48.2928C30.9569 48.0544 32.0622 47.9261 33.1719 47.91V45.039H30.7639C26.7467 45.039 23.4902 41.7824 23.4902 37.7653C23.4902 34.2796 25.9422 31.3666 29.2154 30.6569V21.0863C29.2154 20.8239 29.1122 20.5719 28.9281 20.3849L25.723 17.1283ZM25.0748 7.53222C25.6241 7.43725 26.145 7.80969 26.2327 8.36014L26.8039 11.9426C26.8473 12.215 26.7764 12.4932 26.6078 12.7114L24.9065 14.9137C24.8555 14.9668 24.8115 15.0242 24.7744 15.0847L8.97776 35.5335L7.79637 34.6797L23.5351 8.15431C23.6844 7.90269 23.9364 7.72907 24.2247 7.67922L25.0748 7.53222ZM26.957 15.5309L30.3536 18.9819C30.9059 19.5431 31.2154 20.2989 31.2154 21.0863V30.3663H35.2103L35.2103 17.127C35.2103 16.7832 35.0337 16.4636 34.7427 16.2805L28.785 12.5333C28.7112 13.0387 28.5089 13.522 28.1905 13.9341L26.957 15.5309ZM51.653 51.7072L45.0096 50.2461C43.9882 50.0215 42.9455 49.9082 41.8998 49.9082H33.412C32.3662 49.9082 31.3235 50.0215 30.3022 50.2461L23.6587 51.7072C24.7655 52.4804 25.4894 53.7639 25.4894 55.2164C25.4894 56.0537 25.2489 56.8349 24.8331 57.4945H50.4786C50.0628 56.8349 49.8223 56.0537 49.8223 55.2164C49.8223 53.7639 50.5462 52.4804 51.653 51.7072ZM56.3718 55.0462C56.2817 56.3531 55.2374 57.3976 53.9306 57.4881C52.7517 57.4013 51.8223 56.4174 51.8223 55.2164C51.8223 53.9583 52.8421 52.9385 54.1002 52.9385C55.301 52.9385 56.2848 53.8676 56.3718 55.0462ZM18.9399 55.0458C19.0299 56.3529 20.0742 57.3976 21.3811 57.4881C22.5599 57.4013 23.4894 56.4174 23.4894 55.2164C23.4894 53.9583 22.4696 52.9385 21.2115 52.9385C20.0108 52.9385 19.0271 53.8674 18.9399 55.0458ZM35.1719 47.9082V45.1463H40.1347V47.9082H35.1719ZM11.9291 37.5596H7.33465C5.83653 37.5596 4.62207 38.774 4.62207 40.2722C4.62207 41.7703 5.83653 42.9847 7.33465 42.9847H12.9804L11.9291 37.5596ZM30.7639 43.039L49.8223 43.039V37.6603L43.9097 32.4917H30.7639C27.8513 32.4917 25.4902 34.8528 25.4902 37.7653C25.4902 40.6779 27.8513 43.039 30.7639 43.039Z" fill="#0B0D0E"/>
<path d="M38.1342 10.0622C38.1055 10.0667 38.0768 10.0668 38.0482 10.0669C37.5992 10.0686 37.2233 9.72901 37.1865 9.27584L37.0546 7.5753C37.0162 7.09133 37.3796 6.6586 37.8648 6.6105C38.3523 6.56019 38.7763 6.91503 38.8125 7.39681L38.9444 9.09735C38.9828 9.58133 38.6194 10.0141 38.1342 10.0622Z" fill="#0B0D0E"/>
<path d="M34.8725 10.5787C35.0392 10.818 35.3073 10.9445 35.5803 10.9435C35.7586 10.9428 35.938 10.8893 36.0944 10.7764C36.4965 10.4932 36.6004 9.94265 36.3246 9.54762L35.3586 8.16062C35.0829 7.76339 34.5323 7.67751 34.1346 7.96073C33.7325 8.24397 33.6286 8.79452 33.9043 9.18955L34.8725 10.5787Z" fill="#0B0D0E"/>
<path d="M40.6162 17.605C41.0139 17.3218 41.5623 17.4077 41.8402 17.8049L42.8063 19.1897C43.082 19.5847 42.9781 20.1353 42.576 20.4185C42.4196 20.5313 42.2402 20.5849 42.0619 20.5856C41.789 20.5866 41.5209 20.46 41.3542 20.2208L40.3859 18.8338C40.1102 18.4388 40.2141 17.8882 40.6162 17.605Z" fill="#0B0D0E"/>
<path d="M44.7643 16.2338L43.2227 15.5334C42.7955 15.3348 42.2587 15.5306 42.0492 15.9759C41.8397 16.419 42.0247 16.9398 42.463 17.1406L44.0045 17.841C44.1201 17.8933 44.2428 17.9193 44.3661 17.9188C44.6985 17.9175 45.0238 17.7248 45.178 17.4007C45.3876 16.9554 45.2048 16.4323 44.7643 16.2338Z" fill="#0B0D0E"/>
<path d="M43.3037 12.903L45.0087 12.7291C45.5315 12.6765 45.918 13.0337 45.9542 13.5155C45.9926 13.9994 45.6292 14.4322 45.144 14.4803L43.439 14.6541C43.4081 14.6587 43.3816 14.6588 43.353 14.6589C42.904 14.6606 42.5302 14.3232 42.4935 13.8678C42.4551 13.3838 42.8185 12.9511 43.3037 12.903Z" fill="#0B0D0E"/>
<path d="M41.8266 11.8461C41.9933 12.0853 42.2614 12.2119 42.5343 12.2108C42.7126 12.2101 42.892 12.1566 43.0484 12.0438L44.4603 11.0436C44.8624 10.7604 44.9662 10.2098 44.6905 9.81477C44.4127 9.41755 43.8642 9.33166 43.4665 9.61489L42.0547 10.615C41.6569 10.9005 41.553 11.451 41.8266 11.8461Z" fill="#0B0D0E"/>
<path d="M42.1435 8.45102L41.4045 10.0119C41.2503 10.336 40.9271 10.5287 40.5925 10.5322C40.4692 10.5327 40.3487 10.5067 40.231 10.4544C39.7927 10.2536 39.6077 9.73283 39.8172 9.2897L40.5562 7.72881C40.7657 7.28348 41.2937 7.08557 41.7297 7.28633C42.168 7.48707 42.353 8.00789 42.1435 8.45102Z" fill="#0B0D0E"/>
</svg>
