<svg width="64" height="64" viewBox="0 0 64 64" fill="none" xmlns="http://www.w3.org/2000/svg">
<path d="M27.97 4.99774C27.9434 5.00942 27.9157 5.01683 27.8881 5.02424C27.4544 5.14046 27.0043 4.90794 26.8531 4.47914L26.2918 2.8685C26.1313 2.41031 26.3723 1.89921 26.8292 1.72894C27.2877 1.55596 27.7882 1.79092 27.9461 2.24754L28.5074 3.85818C28.6679 4.31637 28.4269 4.82747 27.97 4.99774Z" fill="#0B0D0E"/>
<path fill-rule="evenodd" clip-rule="evenodd" d="M7.6582 13.9737C7.6582 12.8692 8.55363 11.9737 9.6582 11.9737H13.1904C14.295 11.9737 15.1904 12.8692 15.1904 13.9737L15.1904 14.2932L20.6071 14.2932V13.3326C20.6071 12.228 21.5026 11.3326 22.6071 11.3326L25.1826 11.3326C26.2872 11.3326 27.1826 12.228 27.1826 13.3326L27.1826 15.3864C35.8747 15.5533 42.8694 22.6524 42.8694 31.3842L42.8694 38.1846C42.8694 39.5911 43.4442 40.971 44.094 42.0678C44.5847 42.8961 45.0868 43.5102 45.3216 43.7809L46.8266 42.4289V32.4044C46.8266 30.7475 48.1698 29.4044 49.8266 29.4044L55.3809 29.4044C55.9331 29.4044 56.3809 29.8521 56.3809 30.4044C56.3809 30.9567 55.9331 31.4044 55.3809 31.4044L49.8266 31.4044C49.2743 31.4044 48.8266 31.8521 48.8266 32.4044V42.5472C48.8836 42.7361 48.8831 42.9378 48.8266 43.1255V53.2686C48.8266 54.9254 47.4835 56.2686 45.8266 56.2686L22.0527 56.2686C20.3958 56.2686 19.0527 54.9254 19.0527 53.2685L19.0527 32.4044C19.0527 31.8521 18.605 31.4044 18.0527 31.4044H12.2012C11.6489 31.4044 11.2012 30.9567 11.2012 30.4044C11.2012 29.8521 11.6489 29.4044 12.2012 29.4044H18.0527C19.7096 29.4044 21.0527 30.7475 21.0527 32.4044L21.0527 41.9377L22.0071 42.9083C22.9012 43.8175 24.2897 44.0237 25.4095 43.4136C27.9313 42.0393 29.5006 39.3969 29.5007 36.525V26.2471C29.5007 24.599 28.5581 23.171 27.1826 22.4729V24.0475C27.1826 25.152 26.2872 26.0475 25.1826 26.0475H22.6071C21.5026 26.0475 20.6071 25.152 20.6071 24.0475V23.1744H15.1907L15.1904 23.4068C15.1904 24.5114 14.295 25.4068 13.1904 25.4068H9.6582C8.55363 25.4068 7.6582 24.5114 7.6582 23.4068L7.6582 13.9737ZM13.1904 13.9737H9.6582V23.4068L13.1904 23.4068V13.9737ZM25.1826 24.0475V13.3326H22.6071L22.6071 14.7932C22.6071 15.6216 21.9356 16.2932 21.1071 16.2932L15.1908 16.2932V21.1744L21.1071 21.1744C21.9356 21.1744 22.6071 21.846 22.6071 22.6744L22.6071 24.0475H25.1826ZM43.2702 44.4221C43.0005 44.0654 42.6849 43.6132 42.3733 43.0872C41.6378 41.8459 40.8694 40.1018 40.8694 38.1846V31.3842C40.8694 23.7568 34.7699 17.5534 27.1826 17.3868L27.1826 20.316C29.688 21.123 31.5007 23.4734 31.5007 26.2471L31.5007 36.525C31.5006 40.1291 29.5312 43.4452 26.3664 45.1697C24.6497 46.1052 22.5613 45.9122 21.0527 44.7318L21.0527 53.2686C21.0527 53.8208 21.5004 54.2686 22.0527 54.2686H45.8266C46.3789 54.2686 46.8266 53.8208 46.8266 53.2686V45.1174L45.944 45.9103C44.8037 46.9348 43.0745 46.9348 41.9342 45.9103L40.6839 44.7871C40.3025 44.4444 39.7235 44.4458 39.3437 44.7904L38.1926 45.8347C37.012 46.9057 35.2 46.8665 34.0669 45.7454L33.0869 44.7758C32.6943 44.3873 32.691 43.7542 33.0794 43.3616C33.4679 42.969 34.101 42.9656 34.4936 43.3541L35.4735 44.3236C35.8513 44.6973 36.4553 44.7104 36.8488 44.3534L37.9999 43.3091C39.1394 42.2754 40.8761 42.2712 42.0206 43.2994L43.2702 44.4221Z" fill="#0B0D0E"/>
<path d="M24.9477 6.3291C25.1699 6.51788 25.4614 6.57191 25.7251 6.50126C25.8973 6.45511 26.0571 6.35762 26.1796 6.20861C26.4961 5.83219 26.4561 5.27335 26.0888 4.96171L24.801 3.86697C24.4331 3.55319 23.8787 3.6106 23.5664 3.98588C23.2499 4.36231 23.2899 4.92115 23.6572 5.23279L24.9477 6.3291Z" fill="#0B0D0E"/>
<path d="M32.293 11.658C32.6053 11.2827 33.1575 11.2259 33.5275 11.5391L34.8148 12.6317C35.1822 12.9433 35.2222 13.5022 34.9056 13.8786C34.7832 14.0276 34.6233 14.1251 34.4511 14.1712C34.1875 14.2419 33.896 14.1879 33.6737 13.9991L32.3838 12.9049C32.0164 12.5933 31.9765 12.0344 32.293 11.658Z" fill="#0B0D0E"/>
<path d="M35.9548 9.27416L34.2856 8.99013C33.8218 8.90709 33.3528 9.23325 33.2637 9.7173C33.1742 10.1992 33.4859 10.6556 33.9609 10.7379L35.6301 11.022C35.7552 11.0431 35.8805 11.0369 35.9995 11.005C36.3206 10.919 36.586 10.6496 36.6525 10.2969C36.7415 9.81289 36.4314 9.35379 35.9548 9.27416Z" fill="#0B0D0E"/>
<path d="M33.6928 6.42609L35.297 5.82308C35.7891 5.63884 36.2539 5.88563 36.4118 6.34224C36.5724 6.80043 36.3314 7.31153 35.8745 7.4818L34.2702 8.0848C34.2415 8.09706 34.2159 8.1039 34.1883 8.1113C33.7546 8.22753 33.3071 7.99658 33.1554 7.56564C32.9949 7.10745 33.2359 6.59636 33.6928 6.42609Z" fill="#0B0D0E"/>
<path d="M31.9945 5.78085C32.2168 5.96964 32.5083 6.02366 32.7719 5.95301C32.9441 5.90687 33.104 5.80937 33.2264 5.66037L34.3365 4.33318C34.653 3.95676 34.6131 3.39792 34.2457 3.08628C33.8757 2.77307 33.3235 2.82991 33.0112 3.20519L31.9011 4.53238C31.5894 4.9098 31.6293 5.46864 31.9945 5.78085Z" fill="#0B0D0E"/>
<path d="M31.435 2.41724L31.1186 4.11499C31.0521 4.46769 30.7888 4.73645 30.4662 4.82519C30.3471 4.85709 30.2239 4.86275 30.0967 4.84217C29.6218 4.75983 29.31 4.30344 29.3995 3.82153L29.716 2.12378C29.805 1.63973 30.2651 1.3137 30.7379 1.39661C31.2128 1.47894 31.5246 1.93533 31.435 2.41724Z" fill="#0B0D0E"/>
</svg>
