<svg width="64" height="64" viewBox="0 0 64 64" fill="none" xmlns="http://www.w3.org/2000/svg">
<path fill-rule="evenodd" clip-rule="evenodd" d="M55.5822 3.09706L52.1451 9.03416C51.3348 10.4338 52.3444 12.1863 53.9625 12.1863H54.4953L54.0393 14.3671C53.5335 16.7864 56.7863 18.0726 58.0718 15.9615L61.6948 10.0116C62.547 8.61218 61.5396 6.81943 59.9012 6.81943L59.2353 6.81943L59.6488 4.60275C60.1022 2.17242 56.8208 0.957426 55.5822 3.09706ZM57.313 4.09909C57.4256 3.90458 57.7239 4.01503 57.6827 4.23597L57.0484 7.63604C57.0014 7.88808 57.0529 8.13225 57.1731 8.33268C57.302 8.5476 57.5099 8.71224 57.7601 8.78238C57.8367 8.80386 57.9173 8.81648 58.0007 8.81897C58.0109 8.81927 58.0212 8.81943 58.0315 8.81943L59.9012 8.81943C59.9792 8.81943 60.0272 8.9048 59.9866 8.97144L56.3636 14.9213C56.2467 15.1132 55.951 14.9963 55.997 14.7764L56.7048 11.3909C56.7572 11.1404 56.7113 10.896 56.5963 10.6936C56.4801 10.489 56.2933 10.3272 56.0659 10.2452C56.0011 10.2219 55.933 10.205 55.8623 10.1954C55.8178 10.1894 55.7723 10.1863 55.726 10.1863H53.9625C53.8855 10.1863 53.8374 10.1029 53.876 10.0362L57.313 4.09909Z" fill="#0B0D0E"/>
<path fill-rule="evenodd" clip-rule="evenodd" d="M28.9092 40C28.3569 40 27.9092 40.4477 27.9092 41V47C27.9092 47.5523 28.3569 48 28.9092 48H34.9092C35.4615 48 35.9092 47.5523 35.9092 47V41C35.9092 40.4477 35.4615 40 34.9092 40H28.9092ZM29.9092 42V46H33.9092V42H29.9092Z" fill="#0B0D0E"/>
<path fill-rule="evenodd" clip-rule="evenodd" d="M37.9092 41C37.9092 40.4477 38.3569 40 38.9092 40L44.9092 40C45.4615 40 45.9092 40.4477 45.9092 41V47C45.9092 47.5523 45.4615 48 44.9092 48L38.9092 48C38.3569 48 37.9092 47.5523 37.9092 47V41ZM39.9092 46V42L43.9092 42V46L39.9092 46Z" fill="#0B0D0E"/>
<path fill-rule="evenodd" clip-rule="evenodd" d="M21.9083 58.3984L21.9084 58.4004L50.3635 58.4004C51.4855 58.4004 52.3879 57.4777 52.363 56.356L51.9434 37.4417C51.9232 36.5334 51.2934 35.7528 50.4099 35.5411L22.597 28.8769L21.9941 15.3116C21.9466 14.2426 21.0661 13.4004 19.9961 13.4004H11.8223C10.7522 13.4004 9.87174 14.2426 9.82424 15.3116L8.00201 56.3116C7.95142 57.4499 8.86062 58.4004 10 58.4004L21.8183 58.4004C21.8485 58.4004 21.8785 58.3997 21.9083 58.3984ZM23.8236 56.4004L22.7213 30.9633L49.9439 37.4861L50.3635 56.4004L23.8236 56.4004ZM11.8223 15.4004H19.9961L21.8183 56.4004L10 56.4004L11.8223 15.4004Z" fill="#0B0D0E"/>
</svg>
