<svg width="65" height="65" viewBox="0 0 65 65" fill="none" xmlns="http://www.w3.org/2000/svg">
<path fill-rule="evenodd" clip-rule="evenodd" d="M32.5908 8.20862C33.1431 8.20862 33.5908 8.65633 33.5908 9.20862V12.2086H36.5908C37.6954 12.2086 38.5908 13.104 38.5908 14.2086V17.2086H44.5908C45.6954 17.2086 46.5908 18.104 46.5908 19.2086V29.3399C45.8617 29.7328 45.1898 30.2182 44.5908 30.7804V19.2086H20.5908V59.2086H44.5908V44.6369C45.1898 45.199 45.8617 45.6844 46.5908 46.0773V59.2086C46.5908 60.3132 45.6954 61.2086 44.5908 61.2086H20.5908C19.4863 61.2086 18.5908 60.3132 18.5908 59.2086V19.2086C18.5908 18.104 19.4863 17.2086 20.5908 17.2086H26.5908V14.2086C26.5908 13.104 27.4863 12.2086 28.5908 12.2086H31.5908V9.20862C31.5908 8.65633 32.0385 8.20862 32.5908 8.20862ZM36.5908 14.2086V17.2086H28.5908V14.2086H36.5908Z" fill="#212121"/>
<path fill-rule="evenodd" clip-rule="evenodd" d="M23.5908 24.2086C23.5908 23.6563 24.0385 23.2086 24.5908 23.2086H30.5908C31.1431 23.2086 31.5908 23.6563 31.5908 24.2086V30.2086C31.5908 30.7609 31.1431 31.2086 30.5908 31.2086H24.5908C24.0385 31.2086 23.5908 30.7609 23.5908 30.2086V24.2086ZM25.5908 29.2086V25.2086H29.5908V29.2086H25.5908Z" fill="#212121"/>
<path fill-rule="evenodd" clip-rule="evenodd" d="M34.5908 23.2086C34.0385 23.2086 33.5908 23.6563 33.5908 24.2086V30.2086C33.5908 30.7609 34.0385 31.2086 34.5908 31.2086H40.5908C41.1431 31.2086 41.5908 30.7609 41.5908 30.2086V24.2086C41.5908 23.6563 41.1431 23.2086 40.5908 23.2086H34.5908ZM35.5908 25.2086V29.2086H39.5908V25.2086H35.5908Z" fill="#212121"/>
<path fill-rule="evenodd" clip-rule="evenodd" d="M25.5908 33.2086C24.4862 33.2086 23.5908 34.104 23.5908 35.2086V36.2086C23.5908 37.3132 24.4862 38.2086 25.5908 38.2086V44.2086C25.5908 45.8655 26.9339 47.2086 28.5908 47.2086L35.5908 47.2086V50.2086C34.4862 50.2086 33.5908 51.104 33.5908 52.2086V53.2086C33.5908 54.3132 34.4862 55.2086 35.5908 55.2086H41.5908C42.6954 55.2086 43.5908 54.3132 43.5908 53.2086V52.2086C43.5908 51.104 42.6954 50.2086 41.5908 50.2086V44.2086C41.5908 42.5518 40.2476 41.2086 38.5908 41.2086L31.5908 41.2086V38.2086C32.6953 38.2086 33.5908 37.3132 33.5908 36.2086V35.2086C33.5908 34.104 32.6954 33.2086 31.5908 33.2086H25.5908ZM29.5908 38.2086H27.5908L27.5908 44.2086C27.5908 44.7609 28.0385 45.2086 28.5908 45.2086L36.5908 45.2086C37.1431 45.2086 37.5908 45.6563 37.5908 46.2086V50.2086H39.5908V44.2086C39.5908 43.6563 39.1431 43.2086 38.5908 43.2086L30.5908 43.2086C30.0388 43.2086 29.5912 42.7605 29.5908 42.2086V38.2086ZM25.5908 35.2086H31.5908V36.2086H25.5908V35.2086ZM35.5908 52.2086H41.5908V53.2086H35.5908V52.2086Z" fill="#212121"/>
<path d="M53.5908 2.20862C54.1431 2.20862 54.5908 2.65633 54.5908 3.20862V6.78446L58.018 4.389C58.4706 4.0726 59.0941 4.18306 59.4105 4.63573C59.7269 5.08839 59.6164 5.71185 59.1637 6.02825L55.3364 8.70351L59.1638 11.3788C59.6164 11.6952 59.7269 12.3186 59.4105 12.7713C59.0941 13.224 58.4706 13.3344 58.018 13.018L54.5908 10.6226V14.2086C54.5908 14.7609 54.1431 15.2086 53.5908 15.2086C53.0386 15.2086 52.5908 14.7609 52.5908 14.2086V10.6226L49.1637 13.018C48.7111 13.3344 48.0876 13.224 47.7712 12.7713C47.4548 12.3186 47.5653 11.6952 48.0179 11.3788L51.8453 8.70351L48.0179 6.02825C47.5653 5.71185 47.4548 5.08839 47.7712 4.63573C48.0876 4.18306 48.7111 4.0726 49.1637 4.389L52.5908 6.78446V3.20862C52.5908 2.65633 53.0386 2.20862 53.5908 2.20862Z" fill="#212121"/>
<path fill-rule="evenodd" clip-rule="evenodd" d="M51.0908 48.2086C56.8898 48.2086 61.5908 43.5076 61.5908 37.7086C61.5908 31.9096 56.8898 27.2086 51.0908 27.2086C45.2918 27.2086 40.5908 31.9096 40.5908 37.7086C40.5908 43.5076 45.2918 48.2086 51.0908 48.2086ZM51.0908 46.2086C55.7852 46.2086 59.5908 42.403 59.5908 37.7086C59.5908 33.0142 55.7852 29.2086 51.0908 29.2086C46.3964 29.2086 42.5908 33.0142 42.5908 37.7086C42.5908 39.3612 43.0624 40.9036 43.8784 42.2086H48.5908C49.6954 42.2086 50.5908 41.3132 50.5908 40.2086V34.6228L48.2979 36.9157C47.9074 37.3062 47.2742 37.3062 46.8837 36.9157C46.4932 36.5252 46.4932 35.892 46.8837 35.5015L50.7423 31.6429C51.2109 31.1743 51.9707 31.1743 52.4393 31.6429L56.2979 35.5015C56.6885 35.892 56.6885 36.5252 56.2979 36.9157C55.9074 37.3062 55.2742 37.3062 54.8837 36.9157L52.5908 34.6228V40.2086C52.5908 42.4178 50.8 44.2086 48.5908 44.2086H45.6133C47.0927 45.4565 49.0039 46.2086 51.0908 46.2086Z" fill="#212121"/>
</svg>
