<svg width="64" height="64" viewBox="0 0 64 64" fill="none" xmlns="http://www.w3.org/2000/svg">
<path fill-rule="evenodd" clip-rule="evenodd" d="M51.136 10.0989L54.5522 4.14976C55.7833 2.00579 59.069 3.20924 58.6241 5.64115L58.2184 7.85927L58.8843 7.85693C60.5227 7.85117 61.5364 9.64038 60.6891 11.0428L57.087 17.0054C55.809 19.121 52.5517 17.8462 53.049 15.4251L53.4973 13.2428L52.9645 13.2446C51.3464 13.2503 50.3306 11.5014 51.136 10.0989ZM56.2866 5.1457L52.8704 11.0948C52.832 11.1616 52.8804 11.2449 52.9575 11.2446L54.721 11.2384C54.7673 11.2383 54.8128 11.2412 54.8573 11.2471C54.928 11.2564 54.9962 11.2731 55.0611 11.2962C55.2888 11.3774 55.4761 11.5385 55.5931 11.7427C55.7088 11.9447 55.7555 12.189 55.704 12.4397L55.0081 15.8275C54.9629 16.0476 55.259 16.1635 55.3752 15.9712L58.9773 10.0086C59.0176 9.94184 58.9694 9.85664 58.8913 9.85692L57.0216 9.86349C57.0113 9.86352 57.0011 9.8634 56.9909 9.86314C56.9074 9.86094 56.8268 9.8486 56.7501 9.8274C56.4997 9.75813 56.2912 9.59423 56.1615 9.37976C56.0406 9.17975 55.9883 8.93576 56.0344 8.68356L56.6568 5.28128C56.6972 5.0602 56.3985 4.9508 56.2866 5.1457Z" fill="#0B0D0E"/>
<path d="M48.18 7.41074C48.4563 7.80904 49.0045 7.89706 49.4032 7.61539C49.8064 7.33372 49.9124 6.78358 49.6383 6.38747L48.6755 4.99672C48.5097 4.75686 48.2421 4.62922 47.9691 4.62922C47.7908 4.62922 47.6112 4.68204 47.4544 4.79427C47.0512 5.07594 46.9451 5.62608 47.2193 6.02218L48.18 7.41074Z" fill="#0B0D0E"/>
<path d="M45.25 8.97048L46.7888 9.67686C47.2153 9.87711 47.7528 9.68346 47.9641 9.23895C48.1753 8.79664 47.9923 8.2751 47.5549 8.07265L46.016 7.36627C45.9007 7.31346 45.7781 7.28705 45.6548 7.28705C45.3224 7.28705 44.9963 7.4785 44.8408 7.80198C44.6295 8.24649 44.8103 8.77023 45.25 8.97048Z" fill="#0B0D0E"/>
<path d="M46.6975 12.3069L44.9918 12.4741C44.4689 12.5247 44.0837 12.166 44.0494 11.6841C44.0129 11.2 44.378 10.7687 44.8634 10.7225L46.5691 10.5552C46.6 10.5508 46.6264 10.5508 46.655 10.5508C47.1041 10.5508 47.4765 10.8897 47.5115 11.3452C47.548 11.8294 47.1829 12.2607 46.6975 12.3069Z" fill="#0B0D0E"/>
<path d="M48.1707 13.3696C48.0049 13.1298 47.7373 13.0021 47.4644 13.0021C47.2861 13.0021 47.1064 13.0549 46.9496 13.1672L45.5339 14.1618C45.1307 14.4435 45.0246 14.9936 45.2988 15.3897C45.5751 15.788 46.1233 15.8761 46.522 15.5944L47.9378 14.5997C48.3366 14.3159 48.4427 13.7657 48.1707 13.3696Z" fill="#0B0D0E"/>
<path d="M47.8405 16.7632L48.5856 15.2052C48.741 14.8817 49.0649 14.6902 49.3996 14.688C49.5229 14.688 49.6433 14.7144 49.7608 14.7672C50.1983 14.9697 50.3813 15.4912 50.1701 15.9335L49.425 17.4915C49.2137 17.9361 48.685 18.1319 48.2497 17.9295C47.8123 17.727 47.6293 17.2055 47.8405 16.7632Z" fill="#0B0D0E"/>
<path fill-rule="evenodd" clip-rule="evenodd" d="M28.5044 41.9984C28.5044 39.5027 30.5275 37.4796 33.0232 37.4796C35.5188 37.4796 37.5419 39.5027 37.5419 41.9984C37.5419 44.494 35.5188 46.5172 33.0232 46.5172C30.5275 46.5172 28.5044 44.494 28.5044 41.9984ZM33.0232 44.5172C31.6321 44.5172 30.5044 43.3895 30.5044 41.9984C30.5044 40.6073 31.6321 39.4796 33.0232 39.4796C34.4142 39.4796 35.5419 40.6073 35.5419 41.9984C35.5419 43.3895 34.4142 44.5172 33.0232 44.5172Z" fill="#0B0D0E"/>
<path fill-rule="evenodd" clip-rule="evenodd" d="M44 37.4796C41.5043 37.4796 39.4812 39.5027 39.4812 41.9984C39.4812 44.494 41.5043 46.5172 44 46.5172C46.4956 46.5172 48.5187 44.494 48.5187 41.9984C48.5187 39.5027 46.4956 37.4796 44 37.4796ZM41.4812 41.9984C41.4812 43.3895 42.6089 44.5172 44 44.5172C45.3911 44.5172 46.5187 43.3895 46.5187 41.9984C46.5187 40.6073 45.3911 39.4796 44 39.4796C42.6089 39.4796 41.4812 40.6073 41.4812 41.9984Z" fill="#0B0D0E"/>
<path fill-rule="evenodd" clip-rule="evenodd" d="M24.7081 25.2642L52.7878 32.5524C54.0866 32.8896 55.0036 34.0482 55.0333 35.3897L55.4537 54.3337C55.491 56.0162 54.1373 57.4002 52.4544 57.4002H26.0463L26.0465 57.4041L12.1532 57.4041C10.9906 57.4041 10.073 56.4162 10.1586 55.2568L13.0759 15.7684L11 15.7684C10.4477 15.7684 10 15.3207 10 14.7684V11.3333C10 10.7811 10.4477 10.3333 11 10.3333L13.0811 10.3333V5.789C13.0811 5.23672 13.5288 4.789 14.0811 4.789L23.3127 4.789C23.865 4.789 24.3127 5.23672 24.3127 5.789L24.3127 10.3333L26.9363 10.3333C27.4886 10.3333 27.9363 10.7811 27.9363 11.3333L27.9363 14.7684C27.9363 15.3207 27.4886 15.7684 26.9363 15.7684L24.3127 15.7684L24.7081 25.2642ZM24.7951 27.3531L52.2853 34.4883C52.7183 34.6007 53.0239 34.9869 53.0338 35.434L53.3976 51.8271L25.8142 51.8271L24.7951 27.3531ZM25.8975 53.8271L53.4419 53.8271L53.4542 54.3781C53.4666 54.9389 53.0154 55.4002 52.4544 55.4002L25.963 55.4002L25.8975 53.8271ZM22.3111 15.7715L23.8125 51.8271H12.4174L15.0811 15.7715L22.3111 15.7715ZM23.8958 53.8271H12.2697L12.1532 55.4041L23.9615 55.4041L23.8958 53.8271ZM14.6869 12.3333C14.7236 12.3374 14.7608 12.3395 14.7986 12.3395L23.1375 12.3395C23.1752 12.3395 23.2125 12.3374 23.2492 12.3333L25.9363 12.3333L25.9363 13.7684H12L12 12.3333L14.6869 12.3333ZM22.3127 10.3333V6.789L15.0811 6.789V10.3333H22.3127Z" fill="#0B0D0E"/>
</svg>
