<svg width="64" height="64" viewBox="0 0 64 64" fill="none" xmlns="http://www.w3.org/2000/svg">
<path fill-rule="evenodd" clip-rule="evenodd" d="M54.4981 4.12998C55.7292 1.98602 59.0149 3.18946 58.57 5.62138L58.1643 7.83949L58.8302 7.83715C60.4686 7.83139 61.4823 9.62059 60.635 11.023L57.0329 16.9856C55.7549 19.1012 52.4976 17.8264 52.9949 15.4053L53.4432 13.223L52.9104 13.2249C51.2923 13.2305 50.2765 11.4816 51.0819 10.0791L54.4981 4.12998ZM54.954 15.8078C54.9088 16.0279 55.2049 16.1437 55.3211 15.9514L58.9232 9.98885C58.9635 9.92207 58.9152 9.83687 58.8372 9.83714L56.9675 9.84371C56.9572 9.84375 56.947 9.84363 56.9368 9.84336C56.8533 9.84116 56.7727 9.82882 56.696 9.80762C56.4456 9.73836 56.2371 9.57445 56.1074 9.35998C55.9865 9.15997 55.9342 8.91599 55.9803 8.66378L56.6026 5.26151C56.6431 5.04042 56.3444 4.93102 56.2325 5.12592L52.8163 11.0751C52.7779 11.1419 52.8263 11.2251 52.9033 11.2249L54.6668 11.2187C54.7132 11.2185 54.7587 11.2215 54.8031 11.2273C54.8739 11.2366 54.9421 11.2533 55.0069 11.2764C55.2346 11.3576 55.422 11.5187 55.539 11.7229C55.6547 11.9249 55.7014 12.1692 55.6499 12.4199L54.954 15.8078Z" fill="#0B0D0E"/>
<path d="M48.6187 7.39098C48.895 7.78928 49.4432 7.8773 49.842 7.59563C50.2451 7.31396 50.3512 6.76382 50.077 6.36771L49.1142 4.97696C48.9484 4.7371 48.6808 4.60946 48.4078 4.60946C48.2295 4.60946 48.0499 4.66228 47.8931 4.77451C47.4899 5.05618 47.3839 5.60632 47.658 6.00242L48.6187 7.39098Z" fill="#0B0D0E"/>
<path d="M47.2276 9.6571L45.6887 8.95072C45.249 8.75047 45.0683 8.22673 45.2795 7.78222C45.435 7.45874 45.7611 7.26729 46.0935 7.26729C46.2168 7.26729 46.3394 7.2937 46.4548 7.34651L47.9936 8.05289C48.431 8.25534 48.6141 8.77688 48.4028 9.21919C48.1915 9.6637 47.6541 9.85735 47.2276 9.6571Z" fill="#0B0D0E"/>
<path d="M45.4305 12.4544L47.1362 12.2871C47.6216 12.2409 47.9867 11.8096 47.9502 11.3255C47.9152 10.87 47.5428 10.5311 47.0937 10.5311C47.0651 10.5311 47.0387 10.5311 47.0078 10.5355L45.3021 10.7027C44.8167 10.7489 44.4516 11.1802 44.4881 11.6644C44.5224 12.1463 44.9076 12.505 45.4305 12.4544Z" fill="#0B0D0E"/>
<path d="M47.9031 12.9824C48.176 12.9824 48.4436 13.11 48.6094 13.3499C48.8814 13.746 48.7753 14.2961 48.3765 14.58L46.9608 15.5746C46.562 15.8563 46.0139 15.7683 45.7375 15.37C45.4634 14.9739 45.5694 14.4237 45.9726 14.1421L47.3883 13.1474C47.5452 13.0352 47.7248 12.9824 47.9031 12.9824Z" fill="#0B0D0E"/>
<path d="M49.0243 15.1854L48.2792 16.7434C48.068 17.1857 48.251 17.7072 48.6885 17.9097C49.1237 18.1121 49.6524 17.9163 49.8637 17.4718L50.6088 15.9138C50.82 15.4715 50.637 14.9499 50.1996 14.7475C50.082 14.6947 49.9616 14.6683 49.8383 14.6683C49.5037 14.6705 49.1798 14.8619 49.0243 15.1854Z" fill="#0B0D0E"/>
<path fill-rule="evenodd" clip-rule="evenodd" d="M27.3019 25.4378C27.3019 24.8855 27.7496 24.4378 28.3019 24.4378H33.6979C34.2502 24.4378 34.6979 24.8855 34.6979 25.4378V31.5621C34.6979 32.1144 34.2502 32.5621 33.6979 32.5621H28.3019C27.7496 32.5621 27.3019 32.1144 27.3019 31.5621V25.4378ZM29.3019 30.5621V26.4378H32.6979V30.5621H29.3019Z" fill="#0B0D0E"/>
<path fill-rule="evenodd" clip-rule="evenodd" d="M29.9264 16.498C30.5815 16.0811 31.4187 16.0811 32.0739 16.498L53.537 30.1563C54.0029 30.4528 54.1403 31.0709 53.8438 31.5369C53.5473 32.0028 52.9292 32.1402 52.4632 31.8437L49.0001 29.6398V54.0966C49.0001 55.2012 48.1047 56.0966 47.0001 56.0966H15.0001C13.8956 56.0966 13.0001 55.2012 13.0001 54.0966V29.6398L9.537 31.8437C9.07106 32.1402 8.45297 32.0028 8.15646 31.5369C7.85996 31.0709 7.99731 30.4528 8.46325 30.1563L15.4064 25.738V18.3999C15.4064 17.8476 15.8541 17.3999 16.4064 17.3999H20.4064C20.9587 17.3999 21.4064 17.8476 21.4064 18.3999V21.9198L29.9264 16.498ZM15.0001 28.3671V50.0853H22.4064V36.0963C22.4064 35.544 22.8541 35.0963 23.4064 35.0963H33.698C34.2503 35.0963 34.698 35.544 34.698 36.0963V50.0853H47.0001V28.3671L31.0001 18.1853L15.0001 28.3671ZM15.0001 54.0966V52.0853H47.0001V54.0966H15.0001ZM19.4064 23.1925L17.4064 24.4653V19.3999H19.4064V23.1925ZM24.4064 37.0963V50.0826H32.698V37.0963H24.4064Z" fill="#0B0D0E"/>
</svg>
