<svg width="64" height="64" viewBox="0 0 64 64" fill="none" xmlns="http://www.w3.org/2000/svg">
<path fill-rule="evenodd" clip-rule="evenodd" d="M34.4662 27.4415L37.8112 9.51096C38.2645 7.08069 34.9832 5.86559 33.7445 8.00527L19.0395 33.4063C18.2301 34.8045 19.2371 36.5584 20.8568 36.5584H30.0802L26.3387 54.4531C25.8329 56.8724 29.0857 58.1586 30.3712 56.0475L45.8463 30.6337C46.6985 29.2343 45.6911 27.4415 44.0527 27.4415H34.4662ZM44.0527 29.4415C44.1307 29.4415 44.1786 29.5269 44.1381 29.5936L28.663 55.0074C28.5461 55.1993 28.2504 55.0823 28.2964 54.8624L32.2897 35.7631C32.4196 35.1419 31.9455 34.5584 31.3109 34.5584H20.8568C20.7798 34.5584 20.7318 34.475 20.7704 34.4083L35.4754 9.0073C35.588 8.81279 35.8863 8.92324 35.8451 9.14418L32.2793 28.2582C32.1646 28.8733 32.6366 29.4415 33.2624 29.4415H44.0527Z" fill="black"/>
<path d="M34.8028 52.6163L33.499 54.7575C45.2579 53.9804 54.555 44.1963 54.555 32.2407C54.555 22.4381 48.3049 14.0954 39.5723 10.9801L39.2004 12.9741C47.0017 15.8956 52.555 23.4196 52.555 32.2407C52.555 42.6446 44.8299 51.2442 34.8028 52.6163Z" fill="black"/>
<path d="M9.42188 32.2407C9.42188 42.0748 15.7123 50.4397 24.489 53.5312L24.9024 51.554C17.035 48.6665 11.4219 41.1091 11.4219 32.2407C11.4219 21.8272 19.1613 13.2213 29.2019 11.8613L30.4377 9.72656C18.6979 10.5233 9.42188 20.2987 9.42188 32.2407Z" fill="black"/>
</svg>
