<svg width="64" height="64" viewBox="0 0 64 64" fill="none" xmlns="http://www.w3.org/2000/svg">
<path fill-rule="evenodd" clip-rule="evenodd" d="M24.7469 2.78625C25.1462 2.40479 25.7792 2.41933 26.1607 2.81871L30.4721 7.33275C31.235 8.13152 31.2059 9.39752 30.4072 10.1604L25.8931 14.4718C25.4937 14.8533 24.8607 14.8387 24.4793 14.4394C24.0978 14.04 24.1124 13.407 24.5117 13.0255L27.9881 9.7052C18.0216 9.71261 8.90378 16.3677 6.20153 26.4527C6.05858 26.9862 5.51025 27.3027 4.97678 27.1598C4.44331 27.0169 4.12673 26.4685 4.26967 25.9351C7.21863 14.9294 17.1836 7.67973 28.0622 7.70526L24.7144 4.20009C24.3329 3.8007 24.3475 3.16771 24.7469 2.78625ZM52.7595 12.3218C51.3662 10.2938 51.3663 7.59612 52.7596 5.56772C54.1529 7.59606 54.1529 10.2935 52.7595 12.3218ZM49.7201 9.24098C49.6412 7.10285 50.4179 4.93895 52.0499 3.30687C52.4418 2.91503 53.0772 2.91484 53.4693 3.30684C55.1014 4.93898 55.878 7.10271 55.7991 9.24071C57.0086 8.50144 58.4304 8.07539 59.9515 8.07538C60.5062 8.0754 60.9551 8.52507 60.9552 9.07905C60.9552 13.2249 57.7909 16.6316 53.7458 17.016V20.7329C53.7458 21.2852 53.2981 21.7329 52.7458 21.7329C52.1935 21.7329 51.7458 21.2852 51.7458 20.7329V17.0132C47.7133 16.6168 44.563 13.2151 44.5629 9.07867C44.563 8.52472 45.012 8.07506 45.5666 8.07504C47.0883 8.07504 48.5104 8.50132 49.7201 9.24098ZM46.6634 10.1755C49.0829 10.6246 50.9903 12.5319 51.4392 14.9514C49.02 14.5026 47.1125 12.595 46.6634 10.1755ZM58.8547 10.1759C58.4056 12.5953 56.4982 14.5027 54.0788 14.9517C54.5276 12.5324 56.4352 10.625 58.8547 10.1759ZM28.0216 23.1295C25.6144 19.8321 20.5431 20.365 18.8739 24.0908L18.0607 25.9059L35.2403 25.9061V25.5588C35.2403 22.9131 32.2035 21.4188 30.1074 23.033L29.6752 23.3659C29.1556 23.766 28.4083 23.6592 28.0216 23.1295ZM37.2403 25.9062L38.5251 25.9062C38.6964 25.9062 38.8617 25.9273 39.0188 25.967L40.3044 21.3515C40.5454 20.4866 41.3332 19.8882 42.2311 19.8882H48.1167C48.669 19.8882 49.1167 20.3359 49.1167 20.8882C49.1167 21.4405 48.669 21.8882 48.1167 21.8882H42.2311L40.5226 28.0213C40.5141 28.1624 40.4904 28.3054 40.4501 28.4486L38.4609 35.5083C38.4247 35.6366 38.3763 35.7594 38.317 35.8756C38.313 35.8961 38.3083 35.9166 38.3029 35.9371L35.869 45.2161C35.7289 45.7504 35.1822 46.0698 34.648 45.9297C34.1138 45.7896 33.7943 45.2429 33.9344 44.7087L35.9145 37.1599L24.9347 39.6744C25.1964 40.2503 25.3421 40.8901 25.3421 41.564C25.3421 44.0897 23.2946 46.1372 20.7689 46.1372C18.2432 46.1372 16.1957 44.0897 16.1957 41.564C16.1957 39.8786 17.1073 38.4062 18.4643 37.613L12.9136 28.9882C12.057 27.6572 13.0126 25.9058 14.5954 25.9058L15.8691 25.9058L17.0487 23.273C19.2278 18.4091 25.6203 17.4995 29.099 21.2931C32.4991 18.9221 37.2403 21.3416 37.2403 25.5588V25.9062ZM20.5335 36.9967C20.5054 36.9981 20.4773 36.9998 20.4493 37.0017L14.5954 27.9058L38.4786 27.9062L38.3777 28.2682C38.3506 28.3654 38.3389 28.4633 38.341 28.5592L36.5359 34.9658L23.5564 37.9382C22.7848 37.3441 21.8181 36.9907 20.7689 36.9907C20.6899 36.9907 20.6115 36.9927 20.5335 36.9967ZM20.6176 38.9951C19.2669 39.0734 18.1957 40.1936 18.1957 41.564C18.1957 42.9851 19.3477 44.1372 20.7689 44.1372C22.19 44.1372 23.3421 42.9851 23.3421 41.564C23.3421 40.8497 23.0511 40.2034 22.5811 39.7371C22.5809 39.7369 22.5813 39.7374 22.5811 39.7371C22.5788 39.7348 22.5758 39.7319 22.5735 39.7296C22.1373 39.3004 21.5514 39.0267 20.9006 38.994C20.857 38.9918 20.813 38.9907 20.7689 38.9907C20.7181 38.9907 20.6677 38.9922 20.6176 38.9951ZM51.0625 37.4379C51.596 37.5808 51.9126 38.1292 51.7696 38.6626C48.9213 49.2927 39.5277 56.4182 29.0889 56.8697C28.7981 56.8823 28.5197 56.9058 28.2076 56.9327L28.1823 56.9349C28.0135 56.9494 27.8356 56.9648 27.6466 56.9788L30.7941 60.1263C31.1846 60.5168 31.1846 61.15 30.7941 61.5405C30.4036 61.9311 29.7704 61.9311 29.3799 61.5405L24.966 57.1267C24.185 56.3456 24.185 55.0793 24.966 54.2982L29.3799 49.8844C29.7704 49.4938 30.4036 49.4938 30.7941 49.8844C31.1846 50.2749 31.1846 50.908 30.7941 51.2986L27.0818 55.0109C27.4158 54.9935 27.7151 54.9677 28.0206 54.9414L28.036 54.9401C28.3441 54.9136 28.663 54.8862 29.0025 54.8716C38.594 54.4567 47.2219 47.9076 49.8378 38.145C49.9807 37.6115 50.5291 37.2949 51.0625 37.4379Z" fill="#0B0D0E"/>
</svg>
