<svg width="64" height="64" viewBox="0 0 64 64" fill="none" xmlns="http://www.w3.org/2000/svg">
<path d="M23.1274 10.2575C21.296 12.0889 23.0001 14.0334 23.1981 14.2455C23.4315 14.493 23.4173 14.889 23.1769 15.1294L23.1698 15.1365C22.9153 15.3769 22.5193 15.3769 22.2789 15.1365C22.0738 14.9314 20.2 13.1849 18.3757 15.0092C18.1282 15.2567 17.7251 15.2638 17.4776 15.0163C17.2301 14.7688 17.2372 14.3657 17.4847 14.1183C19.302 12.301 17.6968 10.5686 17.513 10.3706C17.2726 10.1302 17.2796 9.72713 17.513 9.47964L17.5201 9.47257C17.7675 9.22508 18.1565 9.21801 18.4039 9.45136C18.6019 9.6352 20.4051 11.1979 22.2365 9.36651C22.4839 9.11902 22.887 9.11195 23.1345 9.35943C23.3749 9.59985 23.3749 10.01 23.1274 10.2575Z" fill="#0B0D0E"/>
<path d="M16.6939 21.351C14.1922 22.0213 14.6957 24.5574 14.7611 24.8401C14.8395 25.1711 14.6292 25.507 14.3008 25.595L14.2911 25.5976C13.9505 25.6785 13.6076 25.4805 13.5196 25.1521C13.4445 24.872 12.695 22.4225 10.2029 23.0903C9.86483 23.1808 9.51224 22.9854 9.42166 22.6474C9.33107 22.3093 9.53872 21.9638 9.87679 21.8732C12.3592 21.208 11.8353 18.9052 11.7751 18.6418C11.6871 18.3133 11.8948 17.9678 12.2206 17.8702L12.2303 17.8676C12.5683 17.777 12.9087 17.9653 13.0063 18.2912C13.0859 18.5494 13.8661 20.8043 16.3678 20.1339C16.7059 20.0433 17.0585 20.2387 17.1491 20.5768C17.2371 20.9052 17.032 21.2604 16.6939 21.351Z" fill="#0B0D0E"/>
<path fill-rule="evenodd" clip-rule="evenodd" d="M32.9374 41.2431V36.3105C34.7565 36.5865 38.0328 36.4393 41.3749 33.0971C45.5959 28.8762 44.7209 24.7603 44.3333 23.5521C44.2587 23.3197 44.0813 23.1423 43.8488 23.0677C42.6406 22.68 38.5248 21.8051 34.3039 26.026C33.7709 26.559 33.3191 27.0904 32.9374 27.6144V24.9999C34.3964 24.0296 36.9379 21.6124 36.9379 16.5468C36.9379 10.5775 33.4088 8.28582 32.2804 7.70562C32.0633 7.59398 31.8124 7.59398 31.5953 7.70562C30.4669 8.28582 26.9379 10.5775 26.9379 16.5468C26.9379 21.6113 29.4781 24.0285 30.9374 24.9993V27.6091C30.5565 27.0868 30.106 26.5572 29.5748 26.026C25.3538 21.8051 21.238 22.68 20.0298 23.0677C19.7973 23.1423 19.62 23.3197 19.5454 23.5521C19.1577 24.7603 18.2828 28.8762 22.5037 33.0971C25.8435 36.4369 29.1175 36.5863 30.9374 36.3111V41.231C30.5568 40.7094 30.1067 40.1805 29.5762 39.65C25.3553 35.4291 21.2394 36.304 20.0313 36.6917C19.7988 36.7663 19.6214 36.9436 19.5468 37.1761C19.1592 38.3843 18.2842 42.5001 22.5052 46.7211C25.844 50.0599 29.1172 50.2102 30.9374 49.9353V56.2633C30.9374 56.8156 31.3851 57.2633 31.9374 57.2633C32.4896 57.2633 32.9374 56.8156 32.9374 56.2633V49.934C34.7558 50.2107 38.0341 50.0653 41.3784 46.7211C45.5993 42.5001 44.7243 38.3843 44.3367 37.1761C44.2621 36.9436 44.0847 36.7663 43.8522 36.6917C42.6441 36.304 38.5282 35.4291 34.3073 39.65C33.7727 40.1846 33.3198 40.7175 32.9374 41.2431ZM39.9641 45.3069C37.0875 48.1835 34.3968 48.1698 33.0935 47.9348C32.8586 46.6316 32.8448 43.9409 35.7215 41.0642C38.5982 38.1875 41.2889 38.2013 42.5921 38.4363C42.8271 39.7395 42.8408 42.4302 39.9641 45.3069ZM33.0901 34.3108C34.3934 34.5458 37.084 34.5596 39.9607 31.6829C42.8374 28.8062 42.8236 26.1155 42.5887 24.8123C41.2854 24.5773 38.5948 24.5636 35.7181 27.4402C32.8414 30.3169 32.8552 33.0076 33.0901 34.3108ZM28.9379 16.5468C28.9379 20.615 30.8502 22.5079 31.9379 23.2633C33.0255 22.5079 34.9379 20.615 34.9379 16.5468C34.9379 12.4785 33.0255 10.5857 31.9379 9.83028C30.8502 10.5857 28.9379 12.4785 28.9379 16.5468ZM30.7885 34.3108C29.4853 34.5458 26.7946 34.5596 23.9179 31.6829C21.0412 28.8062 21.055 26.1155 21.29 24.8123C22.5932 24.5773 25.2839 24.5636 28.1605 27.4402C31.0372 30.3169 31.0235 33.0076 30.7885 34.3108ZM23.9194 45.3069C26.796 48.1835 29.4867 48.1698 30.79 47.9348C31.0249 46.6316 31.0387 43.9409 28.162 41.0642C25.2853 38.1875 22.5947 38.2013 21.2914 38.4363C21.0565 39.7395 21.0427 42.4302 23.9194 45.3069Z" fill="#0B0D0E"/>
</svg>
