<svg width="65" height="64" viewBox="0 0 65 64" fill="none" xmlns="http://www.w3.org/2000/svg">
<path fill-rule="evenodd" clip-rule="evenodd" d="M47.6349 48.8336C47.6349 50.5282 46.2611 51.902 44.5665 51.902C42.8718 51.902 41.498 50.5282 41.498 48.8336C41.498 47.1389 42.8718 45.7651 44.5665 45.7651C46.2611 45.7651 47.6349 47.1389 47.6349 48.8336ZM44.5665 49.902C45.1566 49.902 45.6349 49.4236 45.6349 48.8336C45.6349 48.2435 45.1566 47.7651 44.5665 47.7651C43.9764 47.7651 43.498 48.2435 43.498 48.8336C43.498 49.4236 43.9764 49.902 44.5665 49.902Z" fill="black"/>
<path fill-rule="evenodd" clip-rule="evenodd" d="M22.1408 48.8336C22.1408 50.5282 20.767 51.902 19.0723 51.902C17.3777 51.902 16.0039 50.5282 16.0039 48.8336C16.0039 47.1389 17.3777 45.7651 19.0723 45.7651C20.767 45.7651 22.1408 47.1389 22.1408 48.8336ZM19.0723 49.902C19.6624 49.902 20.1408 49.4236 20.1408 48.8336C20.1408 48.2435 19.6624 47.7651 19.0723 47.7651C18.4823 47.7651 18.0039 48.2435 18.0039 48.8336C18.0039 49.4236 18.4823 49.902 19.0723 49.902Z" fill="black"/>
<path fill-rule="evenodd" clip-rule="evenodd" d="M37.8097 18.5493H30.5547C29.7429 18.5493 29.0064 18.8718 28.4663 19.3956C27.9262 18.8718 27.1897 18.5493 26.3779 18.5493H12.8086C11.1517 18.5493 9.80859 19.8925 9.80859 21.5493V28.852C9.80859 29.6459 10.1169 30.3677 10.6204 30.9043C10.1169 31.4409 9.80859 32.1627 9.80859 32.9565V40.2593C9.80859 41.1108 10.1634 41.8795 10.7332 42.4255C10.1634 42.9716 9.80859 43.7403 9.80859 44.5918V45.5918C9.80859 46.9101 10.6589 48.0298 11.841 48.4323C11.8338 48.5651 11.8301 48.6989 11.8301 48.8335C11.8301 52.833 15.0723 56.0753 19.0718 56.0753C23.0713 56.0753 26.3136 52.833 26.3136 48.8335C26.3136 48.7526 26.3122 48.6721 26.3096 48.5918H37.3282C37.3255 48.6721 37.3242 48.7526 37.3242 48.8335C37.3242 52.833 40.5665 56.0753 44.566 56.0753C48.5655 56.0753 51.8077 52.833 51.8077 48.8335C51.8077 48.7526 51.8064 48.6721 51.8037 48.5918H51.8086C54.0177 48.5918 55.8086 46.8009 55.8086 44.5918V36.3717C55.8086 36.0316 55.7652 35.693 55.6796 35.3639L52.9388 24.836C52.5947 23.5143 51.4014 22.5918 50.0356 22.5918H40.8097V21.5493C40.8097 19.8925 39.4666 18.5493 37.8097 18.5493ZM40.8086 28.935C40.8093 28.9075 40.8097 28.8798 40.8097 28.852V24.5918H50.0356C50.4908 24.5918 50.8886 24.8993 51.0033 25.3399L51.3293 26.5918H46.8086C45.704 26.5918 44.8086 27.4872 44.8086 28.5918V35.5918C44.8086 36.6964 45.704 37.5918 46.8086 37.5918H53.8086V40.9329H52.527C51.9747 40.9329 51.527 41.3806 51.527 41.9329C51.527 42.4851 51.9747 42.9329 52.527 42.9329H53.8086V44.5918C53.8086 45.6964 52.9132 46.5918 51.8086 46.5918H51.454C50.5101 43.6896 47.783 41.5918 44.566 41.5918C43.1902 41.5918 41.904 41.9754 40.8086 42.6416V28.935ZM38.8097 22.5918V21.5493C38.8097 20.997 38.362 20.5493 37.8097 20.5493H30.5547C30.0024 20.5493 29.5547 20.997 29.5547 21.5493V28.852C29.5547 29.4043 30.0024 29.852 30.5547 29.852H37.8097C38.346 29.852 38.7836 29.43 38.8086 28.8999V22.5918H38.8097ZM49.3055 46.5918C49.595 47.2028 49.7699 47.8787 49.8022 48.5918C49.8059 48.6719 49.8077 48.7525 49.8077 48.8335C49.8077 51.7285 47.4609 54.0753 44.566 54.0753C41.671 54.0753 39.3242 51.7285 39.3242 48.8335C39.3242 48.7525 39.3261 48.6719 39.3297 48.5918C39.3899 47.2663 39.9423 46.0691 40.8086 45.1787C41.7609 44.1998 43.0924 43.5918 44.566 43.5918C46.6588 43.5918 48.4652 44.8183 49.3055 46.5918ZM38.8086 43.5918V44.4402C38.3184 45.0816 37.933 45.8073 37.6779 46.5918H25.9599C25.5845 45.4374 24.9269 44.4103 24.0685 43.5918H38.8086ZM46.8086 28.5918H51.8499L53.6722 35.5918H46.8086V28.5918ZM19.0718 43.5918C21.1647 43.5918 22.9711 44.8183 23.8114 46.5918C24.1009 47.2028 24.2757 47.8787 24.3081 48.5918C24.3117 48.6719 24.3136 48.7525 24.3136 48.8335C24.3136 51.7285 21.9667 54.0753 19.0718 54.0753C16.1769 54.0753 13.8301 51.7285 13.8301 48.8335C13.8301 48.7525 13.8319 48.6719 13.8356 48.5918C13.8679 47.8787 14.0428 47.2028 14.3323 46.5918C15.1726 44.8183 16.979 43.5918 19.0718 43.5918ZM14.0751 43.5918C13.2604 44.3686 12.6266 45.3335 12.2432 46.4167C11.9807 46.2365 11.8086 45.9342 11.8086 45.5918V44.5918C11.8086 44.0395 12.2563 43.5918 12.8086 43.5918H14.0751ZM12.8086 31.9565C12.2563 31.9565 11.8086 32.4043 11.8086 32.9565V40.2593C11.8086 40.8116 12.2563 41.2593 12.8086 41.2593H37.8081C38.3604 41.2593 38.8081 40.8116 38.8081 40.2593V32.9565C38.8081 32.4043 38.3604 31.9565 37.8081 31.9565H12.8086ZM12.8086 20.5493C12.2563 20.5493 11.8086 20.997 11.8086 21.5493V28.852C11.8086 29.4043 12.2563 29.852 12.8086 29.852H26.3779C26.9302 29.852 27.3779 29.4043 27.3779 28.852V21.5493C27.3779 20.997 26.9302 20.5493 26.3779 20.5493H12.8086Z" fill="black"/>
</svg>
