<svg width="64" height="66" viewBox="0 0 64 66" fill="none" xmlns="http://www.w3.org/2000/svg">
<path fill-rule="evenodd" clip-rule="evenodd" d="M16.1135 17C15.5612 17 15.1135 17.4477 15.1135 18V24.395C15.1135 24.4648 15.1062 24.5344 15.0917 24.6027L8.25656 56.7923C8.12448 57.4143 8.59887 58 9.23475 58H43.7331C43.7927 58 43.8508 57.9949 43.9071 57.9851C43.9634 57.9949 44.0211 58 44.0798 58H53.9999C54.5522 58 54.9999 57.5523 54.9999 57V38C54.9999 37.4477 54.5522 37 53.9999 37H50V25C50 24.4477 49.5523 24 49 24H44C43.4477 24 43 24.4477 43 25V37H39.9836L37.025 24.6146C37.0068 24.5384 36.9976 24.4605 36.9976 24.3822V18C36.9976 17.4477 36.5499 17 35.9976 17H16.1135ZM17.1135 19V24.395C17.1135 24.6044 17.0915 24.8133 17.048 25.0181L10.4694 56H42.4661L35.0797 25.0792C35.0252 24.8509 34.9976 24.617 34.9976 24.3822V19H17.1135ZM45 37H48V26H45V37ZM40.5675 39L44.8587 56H52.9999V39H40.5675Z" fill="#212121"/>
<path d="M53.6585 3.5063L50.2215 9.4434C49.797 10.1766 50.3259 11.0945 51.1734 11.0945H52.9369L52.2291 14.4799C51.9532 15.7996 53.7275 16.5011 54.4286 15.3496L58.0517 9.39975C58.498 8.66671 57.9704 7.72765 57.1121 7.72765H55.2424L55.8767 4.32758C56.124 3.00195 54.3342 2.33923 53.6585 3.5063ZM52.7204 14.3095C52.7205 14.3093 52.7206 14.3091 52.7207 14.3089L52.7204 14.3095Z" stroke="#212121" stroke-width="2"/>
<path fill-rule="evenodd" clip-rule="evenodd" d="M27.801 46.9161C27.9483 46.8949 28.0942 46.8697 28.2387 46.8407L28.3378 46.8273C31.3918 46.212 33.695 43.6953 33.9732 40.7119C34.0652 39.7245 33.9175 38.766 33.5737 37.8841L33.5581 37.8749C33.1292 36.8373 32.2499 36.108 31.366 35.3749C31.0169 35.0853 30.667 34.7952 30.3439 34.4852C29.0743 33.2672 28.234 31.6908 28.0198 29.9699L28.0175 29.9513C28.0045 29.8439 27.9938 29.7359 27.9857 29.6275C27.9757 29.4948 27.9695 29.3614 27.967 29.2273C27.9629 28.9982 27.9698 28.7673 27.9883 28.5349C27.9909 28.5025 27.9937 28.4701 27.9967 28.4377C28.0236 28.1488 27.7385 27.9151 27.465 28.0298C27.4137 28.0513 27.3626 28.0732 27.3117 28.0956C27.1465 28.1683 26.9832 28.2458 26.8219 28.3281C26.7587 28.3604 26.6959 28.3934 26.6334 28.4271C26.4349 28.5342 26.2397 28.6488 26.0482 28.7709C26.0221 28.7876 25.996 28.8044 25.9701 28.8213C25.7978 28.9337 25.6287 29.0523 25.463 29.177C23.5177 30.642 22.4175 32.6875 22.209 34.8147C22.1725 35.1875 22.1633 35.5628 22.1818 35.9379C22.1868 36.039 22.1938 36.14 22.2027 36.241C22.2273 36.5164 22.2668 36.7914 22.3213 37.0649L22.3229 37.0728C22.3466 37.191 22.3731 37.3089 22.4025 37.4264C22.4826 37.7471 22.1826 38.0489 21.8847 37.8916C21.8411 37.8685 21.8023 37.8452 21.7711 37.8222C21.7465 37.8042 21.7226 37.7855 21.6993 37.7664C21.6895 37.7584 21.6799 37.7503 21.6703 37.7421C21.6313 37.7086 21.5941 37.6736 21.5586 37.6371C21.3959 37.4701 21.2687 37.2727 21.1705 37.0522C21.1568 37.0215 21.1437 36.9904 21.1311 36.9588C21.0764 36.8214 21.0319 36.6759 20.9963 36.524C20.9828 36.4666 20.9591 36.4147 20.928 36.3694C20.7759 36.1481 20.447 36.0847 20.2732 36.317L20.2363 36.3668L20.2092 36.4041C20.1239 36.522 20.0425 36.6427 19.9653 36.7659C19.7737 37.0716 19.6075 37.3931 19.4696 37.7282C19.4393 37.8019 19.4104 37.8762 19.3828 37.9511C19.1997 38.4495 19.0782 38.9759 19.0271 39.5239C18.6779 43.2688 21.7489 46.6012 25.8863 46.9672C26.195 46.9945 26.5009 47.0045 26.8029 46.9981C26.9755 47.0031 27.1506 46.9982 27.3273 46.9827C27.4884 46.9687 27.6465 46.9463 27.801 46.9161ZM31.7907 38.8347L31.7098 38.6389C31.5792 38.3232 31.3198 37.9891 30.8137 37.5317C30.5933 37.3326 30.362 37.1407 30.092 36.9166L29.9652 36.8114C29.6558 36.5542 29.3009 36.2561 28.9593 35.9284C28.6515 35.6331 28.3628 35.3194 28.0954 34.9893C27.192 33.8738 26.5317 32.5703 26.2021 31.1562C24.4466 32.7329 23.841 34.932 24.3429 36.9418C24.5647 37.83 24.2663 38.7223 23.6536 39.297C23.0109 39.8998 21.982 40.166 21.0198 39.6952L21.0184 39.7096C20.8735 41.2638 21.6385 42.843 23.0356 43.8667C23.027 43.8083 23.0199 43.7496 23.0143 43.6904C22.9652 43.1708 23.044 42.6663 23.2273 42.2022L23.2357 42.1973C23.4644 41.6512 23.9334 41.2674 24.4048 40.8815C24.591 40.7291 24.7776 40.5764 24.9499 40.4132C25.3866 39.9998 25.7281 39.5079 25.9461 38.9678L25.9555 38.9445C26.0892 38.6068 26.1749 38.2506 26.2055 37.8831C26.2116 37.8104 26.2155 37.7373 26.2172 37.6637C26.2201 37.5374 26.2166 37.4099 26.2062 37.2815C26.2049 37.2645 26.2034 37.2474 26.2018 37.2304C26.1874 37.0783 26.3394 36.9553 26.4853 37.0157C26.5127 37.027 26.5399 37.0385 26.5671 37.0503C26.6543 37.0882 26.7406 37.1286 26.8257 37.1714C26.8595 37.1884 26.893 37.2057 26.9264 37.2235C27.1434 37.3388 27.353 37.4708 27.5531 37.6195C27.716 37.7406 27.8678 37.8692 28.0084 38.0043C28.0698 38.0633 28.129 38.1235 28.1861 38.1849C28.5807 38.6092 28.8728 39.0887 29.0599 39.5957C29.1368 39.8039 29.1959 40.0167 29.2371 40.2322C29.3065 40.5948 29.3251 40.9649 29.2922 41.3334C29.2794 41.4769 29.2588 41.6201 29.2303 41.7626L29.2295 41.7669C29.2164 41.8319 29.2017 41.8967 29.1853 41.9613C29.163 42.0496 29.1962 42.1353 29.2557 42.1849C29.2611 42.1895 29.2668 42.1937 29.2727 42.1976C29.3251 42.2327 29.3934 42.2416 29.4615 42.2061C29.4848 42.194 29.5054 42.1817 29.5221 42.1696C29.5621 42.1405 29.599 42.1088 29.633 42.0745C29.7173 41.9899 29.7837 41.8902 29.8357 41.779C29.8434 41.7624 29.8509 41.7455 29.858 41.7283C29.8897 41.6522 29.9152 41.5711 29.9353 41.4863C29.9776 41.3086 30.2093 41.2301 30.321 41.3774L30.3406 41.4036C30.3924 41.4732 30.4414 41.5445 30.4877 41.6176C30.6382 41.8554 30.7592 42.1112 30.8456 42.3814C30.9096 42.5813 30.9548 42.7892 30.9792 43.0035C31.5404 42.2873 31.8975 41.43 31.9818 40.5262C32.0363 39.9419 31.9671 39.3726 31.7907 38.8347ZM27.4853 44.9409C28.0848 44.8121 28.4997 44.4942 28.7416 44.134C28.4192 44.0353 28.1263 43.8652 27.8892 43.6458C27.3205 43.1194 27.0379 42.2949 27.2464 41.4706C27.309 41.2235 27.3246 40.9638 27.2884 40.7047C27.0153 41.1298 26.6904 41.5196 26.325 41.8656C26.1162 42.0632 25.904 42.2386 25.7384 42.3744L25.6693 42.4311C25.5238 42.5502 25.417 42.6377 25.3153 42.7284C25.1328 42.8912 25.0846 42.965 25.0781 42.9754L25.0532 43.035C25.0068 43.1869 24.9904 43.3429 25.0054 43.5023C25.0645 44.1272 25.5736 44.7583 26.3583 44.9365L26.3994 44.942L26.4614 44.9543C26.5748 44.9768 26.6928 44.9914 26.8145 44.9972C27.0421 44.9904 27.266 44.9714 27.4853 44.9409Z" fill="#212121"/>
<path d="M18 47.7C18 47.0373 18.5373 46.5 19.2 46.5H21.8C22.4627 46.5 23 47.0373 23 47.7V47.8333H31V47.7C31 47.0373 31.5373 46.5 32.2 46.5H34.8C35.4627 46.5 36 47.0373 36 47.7V50.5H34V48.5H33V48.6333C33 49.2961 32.6562 49.8333 31.8 49.8333H22.2C21.5373 49.8333 21 49.2961 21 48.6333V48.5H20V50.5H18V47.7Z" fill="#212121"/>
</svg>
