<svg width="64" height="64" viewBox="0 0 64 64" fill="none" xmlns="http://www.w3.org/2000/svg">
<path fill-rule="evenodd" clip-rule="evenodd" d="M54.8249 17.2265C52.9508 19.0994 50.2771 20.172 47.6021 18.1103L46.7713 18.9412C46.3808 19.3317 45.7476 19.3317 45.3571 18.9412C44.9666 18.5506 44.9666 17.9174 45.3571 17.5269L46.188 16.6959C44.1249 14.018 45.1994 11.3433 47.0742 9.46962C49.9045 6.64106 57.0992 7.20215 57.0992 7.20215C57.0992 7.20215 57.6552 14.3979 54.8249 17.2265ZM53.4112 15.8117C52.5769 16.6455 51.7038 17.1207 50.9262 17.2134C50.4168 17.2742 49.7827 17.193 49.0326 16.6795L51.9739 13.7379C52.3644 13.3474 52.3644 12.7142 51.9739 12.3236C51.5834 11.9331 50.9503 11.9331 50.5598 12.3236L47.6186 15.2651C47.1043 14.5136 47.0233 13.8786 47.0845 13.3686C47.1778 12.591 47.6536 11.7182 48.4879 10.8844C48.8866 10.4859 49.5379 10.1186 50.4473 9.82597C51.3401 9.53864 52.3543 9.36373 53.3453 9.26552C53.9903 9.20161 54.6041 9.1722 55.1384 9.16173C55.1276 9.69613 55.0977 10.31 55.0334 10.955C54.9345 11.946 54.7589 12.9601 54.4709 13.8528C54.1776 14.7621 53.8099 15.4132 53.4112 15.8117Z" fill="#0B0D0E"/>
<path fill-rule="evenodd" clip-rule="evenodd" d="M40.9749 5.03076C40.9749 3.92619 41.8703 3.03076 42.9749 3.03076H58.9749C60.0794 3.03076 60.9749 3.92619 60.9749 5.03076V21.0308C60.9749 22.1353 60.0794 23.0308 58.9749 23.0308H42.9749C41.8703 23.0308 40.9749 22.1353 40.9749 21.0308V5.03076ZM42.9749 5.03076H58.9749V21.0308H42.9749V5.03076Z" fill="#0B0D0E"/>
<path fill-rule="evenodd" clip-rule="evenodd" d="M38.9973 12.0025H20.5576C19.453 12.0025 18.5576 12.8979 18.5576 14.0025V24.3633H12.3555C11.2509 24.3633 10.3555 25.2588 10.3555 26.3633V53.9945C10.3555 55.099 11.2509 55.9945 12.3555 55.9945H20.4514C20.4866 55.9963 20.522 55.9972 20.5576 55.9972H42.2212C42.2569 55.9972 42.2923 55.9963 42.3275 55.9945H51.667C52.7716 55.9945 53.667 55.099 53.667 53.9945V37.6826L55.559 38.8769C56.026 39.1717 56.6436 39.0321 56.9384 38.5651C57.2332 38.0981 57.0936 37.4805 56.6266 37.1857L44.2212 29.3549V25.0084H42.2212L42.2212 40.3591C42.2148 40.4048 42.2115 40.4516 42.2115 40.4991V45.8315C42.2115 45.8791 42.2148 45.9258 42.2212 45.9716V53.9945H42.2112V53.9972H20.5691L20.5684 46.438C20.5684 46.3881 20.5647 46.339 20.5576 46.291V36.7194C20.5585 36.7017 20.559 36.6839 20.559 36.666V31.3336C20.559 31.3156 20.5585 31.2978 20.5576 31.2801V26.3633H20.5691V24.3633H20.5576V14.0025H38.9973V12.0025ZM12.3555 26.3633H18.5576V30.3336H15.5684C15.0161 30.3336 14.5684 30.7813 14.5684 31.3336V36.666C14.5684 37.2183 15.0161 37.666 15.5684 37.666H18.5576V45.438H15.5684C15.0161 45.438 14.5684 45.8858 14.5684 46.438V53.9945H12.3555V26.3633ZM16.3684 32.1336H18.5576V35.866H16.3684V32.1336ZM16.3684 47.238H18.5576V53.6381H16.3684V47.238ZM51.667 53.9945H44.2212V46.8315H48.5439C49.0962 46.8315 49.5439 46.3838 49.5439 45.8315V40.4991C49.5439 39.9468 49.0962 39.4991 48.5439 39.4991H44.2212V31.7201L51.667 36.4201V53.9945ZM47.7439 45.0315H44.2212V41.2991H47.7439V45.0315Z" fill="#0B0D0E"/>
<path fill-rule="evenodd" clip-rule="evenodd" d="M23.1394 22.168C23.1394 21.6157 23.5871 21.168 24.1394 21.168H29.4719C30.0241 21.168 30.4719 21.6157 30.4719 22.168V27.5005C30.4719 28.0528 30.0241 28.5005 29.4719 28.5005H24.1394C23.5871 28.5005 23.1394 28.0528 23.1394 27.5005V22.168ZM24.9394 26.7005V22.968H28.6719V26.7005H24.9394Z" fill="#0B0D0E"/>
<path fill-rule="evenodd" clip-rule="evenodd" d="M24.1387 30.3336C23.5864 30.3336 23.1387 30.7813 23.1387 31.3336V36.666C23.1387 37.2183 23.5864 37.666 24.1387 37.666H29.4711C30.0234 37.666 30.4711 37.2183 30.4711 36.666V31.3336C30.4711 30.7813 30.0234 30.3336 29.4711 30.3336H24.1387ZM24.9387 32.1336V35.866H28.6711V32.1336H24.9387Z" fill="#0B0D0E"/>
<path fill-rule="evenodd" clip-rule="evenodd" d="M24.1404 39.4992C23.5881 39.4992 23.1404 39.9469 23.1404 40.4992V45.8317C23.1404 46.3839 23.5881 46.8317 24.1404 46.8317H29.4728C30.0251 46.8317 30.4728 46.3839 30.4728 45.8317V40.4992C30.4728 39.9469 30.0251 39.4992 29.4728 39.4992H24.1404ZM24.9404 41.2992V45.0317H28.6728V41.2992H24.9404Z" fill="#0B0D0E"/>
<path fill-rule="evenodd" clip-rule="evenodd" d="M32.3059 22.1681C32.3059 21.6158 32.7536 21.1681 33.3059 21.1681H38.6384C39.1906 21.1681 39.6384 21.6158 39.6384 22.1681V27.5005C39.6384 28.0528 39.1906 28.5005 38.6384 28.5005H33.3059C32.7536 28.5005 32.3059 28.0528 32.3059 27.5005V22.1681ZM34.1059 26.7005V22.9681H37.8384V26.7005H34.1059Z" fill="#0B0D0E"/>
<path fill-rule="evenodd" clip-rule="evenodd" d="M33.3059 30.3336C32.7536 30.3336 32.3059 30.7814 32.3059 31.3336V36.6661C32.3059 37.2184 32.7536 37.6661 33.3059 37.6661H38.6384C39.1906 37.6661 39.6384 37.2184 39.6384 36.6661V31.3336C39.6384 30.7814 39.1906 30.3336 38.6384 30.3336H33.3059ZM34.1059 32.1336V35.8661H37.8384V32.1336H34.1059Z" fill="#0B0D0E"/>
<path fill-rule="evenodd" clip-rule="evenodd" d="M32.3059 40.4992C32.3059 39.9469 32.7536 39.4992 33.3059 39.4992H38.6384C39.1906 39.4992 39.6384 39.9469 39.6384 40.4992V45.8317C39.6384 46.3839 39.1906 46.8317 38.6384 46.8317H33.3059C32.7536 46.8317 32.3059 46.3839 32.3059 45.8317V40.4992ZM34.1059 45.0317V41.2992H37.8384V45.0317H34.1059Z" fill="#0B0D0E"/>
</svg>
