<svg width="64" height="64" viewBox="0 0 64 64" fill="none" xmlns="http://www.w3.org/2000/svg">
<path fill-rule="evenodd" clip-rule="evenodd" d="M49.356 9.94236L52.7931 4.00526L54.524 5.00729L51.0869 10.9444C51.0483 11.0111 51.0964 11.0945 51.1734 11.0945H52.9369C52.9833 11.0945 53.0287 11.0976 53.0732 11.1036C53.1439 11.1132 53.212 11.1301 53.2768 11.1534C53.5042 11.2354 53.6911 11.3972 53.8073 11.6018C53.9223 11.8042 53.9681 12.0486 53.9158 12.2992L53.2079 15.6846C53.1619 15.9045 53.4577 16.0214 53.5745 15.8295L57.1975 9.87964C57.2381 9.813 57.1902 9.72763 57.1121 9.72763H55.2424C55.2321 9.72763 55.2219 9.72748 55.2117 9.72717C55.1282 9.72468 55.0476 9.71206 54.971 9.69059C54.7208 9.62044 54.5129 9.45581 54.384 9.24088C54.2638 9.04045 54.2123 8.79628 54.2594 8.54424L54.8937 5.14417C54.9349 4.92323 54.6366 4.81278 54.524 5.00729L52.7931 4.00526C54.0318 1.86563 57.3131 3.08062 56.8597 5.51095L56.4462 7.72763H57.1121C58.7506 7.72763 59.7579 9.52039 58.9058 10.9198L55.2827 16.8697C53.9973 18.9808 50.7444 17.6946 51.2503 15.2753L51.7062 13.0945H51.1734C49.5553 13.0945 48.5457 11.342 49.356 9.94236Z" fill="#212121"/>
<path fill-rule="evenodd" clip-rule="evenodd" d="M27.2412 14C25.5844 14 24.2412 15.3431 24.2412 17V19.6817C24.2356 21.1928 23.009 22.416 21.4966 22.416C19.9808 22.416 18.752 21.1872 18.752 19.6714C18.752 19.1191 18.3042 18.6714 17.752 18.6714C17.7354 18.6714 17.719 18.6718 17.7026 18.6726C17.6863 18.6718 17.6699 18.6714 17.6533 18.6714C17.1011 18.6714 16.6533 19.1191 16.6533 19.6714C16.6533 21.1872 15.4245 22.416 13.9087 22.416C12.3929 22.416 11.1641 21.1872 11.1641 19.6714C11.1641 19.1191 10.7163 18.6714 10.1641 18.6714L10.1458 18.6716L10.1275 18.6714C9.57517 18.6714 9.12745 19.1191 9.12745 19.6714C9.12745 21.1872 7.89863 22.416 6.38281 22.416C5.83053 22.416 5.38281 22.8637 5.38281 23.416C5.38281 23.9683 5.83053 24.416 6.38281 24.416C7.91544 24.416 9.27834 23.6893 10.1458 22.5617C11.0132 23.6893 12.3761 24.416 13.9087 24.416C15.4597 24.416 16.8369 23.6718 17.7026 22.521C18.5684 23.6718 19.9456 24.416 21.4966 24.416C22.5193 24.416 23.4664 24.0924 24.2412 23.5421V30.1424C24.2406 30.157 24.2403 30.1717 24.2403 30.1865C24.2403 31.7023 23.0114 32.9312 21.4956 32.9312C19.9798 32.9312 18.751 31.7023 18.751 30.1865C18.751 29.6342 18.3033 29.1865 17.751 29.1865C17.7344 29.1865 17.718 29.1869 17.7017 29.1877C17.6853 29.1869 17.6689 29.1865 17.6524 29.1865C17.1001 29.1865 16.6524 29.6342 16.6524 30.1865C16.6524 31.7023 15.4235 32.9312 13.9077 32.9312C12.3919 32.9312 11.1631 31.7023 11.1631 30.1865C11.1631 29.6342 10.7154 29.1865 10.1631 29.1865L10.1448 29.1867L10.1265 29.1865C9.57419 29.1865 9.12647 29.6342 9.12647 30.1865C9.12647 31.7023 7.89766 32.9312 6.38184 32.9312C5.82955 32.9312 5.38184 33.3789 5.38184 33.9312C5.38184 34.4834 5.82955 34.9312 6.38184 34.9312C7.91446 34.9312 9.27736 34.2045 10.1448 33.0769C11.0122 34.2045 12.3751 34.9312 13.9077 34.9312C15.4587 34.9312 16.8359 34.1869 17.7017 33.0361C18.5674 34.1869 19.9446 34.9312 21.4956 34.9312C22.5188 34.9312 23.4663 34.6073 24.2412 34.0565V39.9629H14.1113C13.559 39.9629 13.1113 40.4106 13.1113 40.9629C13.1113 41.5152 13.559 41.9629 14.1113 41.9629H24.2412V46.8335C24.2412 47.1842 24.3014 47.5207 24.4119 47.8335H6C5.44772 47.8335 5 48.2812 5 48.8335C5 49.3858 5.44772 49.8335 6 49.8335H27.2267L27.2412 49.8335H51.6732C53.7275 49.8335 54.0445 46.8786 52.037 46.4428C44.2785 44.7586 38.7437 37.8934 38.7437 29.9543V17C38.7437 15.3431 37.4006 14 35.7437 14H27.2412ZM26.2412 19.6714L26.2412 19.685V46.8335C26.2412 47.383 26.6844 47.829 27.2328 47.8335H28.671L28.6793 47.8335H49.5716C41.98 45.2721 36.7437 38.1212 36.7437 29.9543V17C36.7437 16.4477 36.296 16 35.7437 16H27.2412C26.6889 16 26.2412 16.4477 26.2412 17V19.6651L26.2412 19.6714Z" fill="#212121"/>
</svg>
