<svg width="64" height="64" viewBox="0 0 64 64" fill="none" xmlns="http://www.w3.org/2000/svg">
<path fill-rule="evenodd" clip-rule="evenodd" d="M16.1135 15C15.5612 15 15.1135 15.4477 15.1135 16V22.395C15.1135 22.4648 15.1062 22.5344 15.0917 22.6027L8.25656 54.7923C8.12448 55.4143 8.59887 56 9.23475 56H43.7331C43.7927 56 43.8508 55.9949 43.9071 55.9851C43.9634 55.9949 44.0211 56 44.0798 56H53.9999C54.5522 56 54.9999 55.5523 54.9999 55V36C54.9999 35.4477 54.5522 35 53.9999 35H50V23C50 22.4477 49.5523 22 49 22H44C43.4477 22 43 22.4477 43 23V35H39.9836L37.025 22.6146C37.0068 22.5384 36.9976 22.4605 36.9976 22.3822V16C36.9976 15.4477 36.5499 15 35.9976 15H16.1135ZM17.1135 17V22.395C17.1135 22.6044 17.0915 22.8133 17.048 23.0181L10.4694 54H42.4661L35.0797 23.0792C35.0252 22.8509 34.9976 22.617 34.9976 22.3822V17H17.1135ZM45 35H48V24H45V35ZM40.5675 37L44.8587 54H52.9999V37H40.5675Z" fill="#212121"/>
<path d="M27.0019 28.1845L26.423 28.9999C27.0019 28.1845 27.0028 28.1851 27.0028 28.1851L27.0041 28.186L27.0077 28.1886L27.0188 28.1966L27.0569 28.2243C27.089 28.2479 27.1345 28.2817 27.1918 28.3252C27.3065 28.4124 27.469 28.539 27.6675 28.7021C28.0641 29.0281 28.6076 29.5022 29.2034 30.1016C30.3855 31.2906 31.8194 33.0179 32.6915 35.0984C32.905 35.6077 32.6652 36.1937 32.1558 36.4072C31.6465 36.6207 31.0605 36.3809 30.847 35.8715C30.1141 34.1232 28.8749 32.6079 27.7851 31.5116C27.2479 30.9712 26.7581 30.5437 26.4035 30.252C26.2975 30.3339 26.1795 30.4273 26.0516 30.5316C25.4797 30.9984 24.718 31.6791 23.9589 32.533C22.4203 34.2637 21 36.5831 21 39.1999C21 40.7654 21.3679 42.2178 22.184 43.2573C22.9682 44.256 24.2641 44.9999 26.423 44.9999C27.5318 44.9999 28.4046 44.8023 29.09 44.4886C29.5922 44.2587 30.1856 44.4794 30.4155 44.9816C30.6453 45.4838 30.4246 46.0772 29.9224 46.3071C28.9352 46.759 27.7708 46.9999 26.423 46.9999C23.7446 46.9999 21.829 46.0437 20.611 44.4924C19.425 42.9819 19 41.0343 19 39.1999C19 35.8666 20.7912 33.086 22.4641 31.2042C23.3107 30.2519 24.1547 29.4982 24.7871 28.9821C25.104 28.7235 25.3697 28.523 25.5585 28.3856C25.653 28.3168 25.7283 28.2638 25.7815 28.227C25.808 28.2086 25.8291 28.1942 25.8441 28.184L25.8622 28.1718L25.8679 28.1681L25.8698 28.1668L26.4429 27.7876L27.0019 28.1845Z" fill="#212121"/>
<path d="M24.3164 35.2754C23.7641 35.2754 23.3164 35.7231 23.3164 36.2754V40.8502C23.3164 41.4025 23.7641 41.8502 24.3164 41.8502C24.8687 41.8502 25.3164 41.4025 25.3164 40.8502V39.6626H27.6123V40.8502C27.6123 41.4025 28.06 41.8502 28.6123 41.8502C29.1646 41.8502 29.6123 41.4025 29.6123 40.8502V36.2754C29.6123 35.7231 29.1646 35.2754 28.6123 35.2754C28.06 35.2754 27.6123 35.7231 27.6123 36.2754V37.6626H25.3164V36.2754C25.3164 35.7231 24.8687 35.2754 24.3164 35.2754Z" fill="#212121"/>
<path d="M32.9758 40.1513C32.9885 40.0947 33.0042 40.0625 33.0136 40.0467C33.0228 40.0312 33.0298 40.0248 33.033 40.0221C33.0383 40.0177 33.0573 40.0042 33.1026 40.0006C33.1511 39.9968 33.2073 40.007 33.2545 40.0297C33.3005 40.0518 33.3144 40.0744 33.3144 40.0744C33.421 40.2606 33.4332 40.3865 33.4241 40.4787C33.4138 40.5843 33.3657 40.7332 33.225 40.9372C32.9228 41.3751 32.3494 41.8518 31.5602 42.4093C30.7302 42.9956 31.1298 44.3222 32.1675 44.3222L35.0002 44.3222C35.5525 44.3222 36.0002 43.8745 36.0002 43.3222C36.0002 42.7699 35.5525 42.3222 35.0002 42.3222H34.457C34.5953 42.1499 34.7234 42.0317 34.8385 41.9255C35.1291 41.6575 35.3368 41.4659 35.4146 40.6742C35.4684 40.126 35.3406 39.5878 35.0497 39.0801C34.6027 38.2999 33.725 37.945 32.9444 38.0069C32.0846 38.0751 31.2641 38.6487 31.0247 39.7118C30.9033 40.2506 31.2417 40.7858 31.7805 40.9071C32.3193 41.0285 32.8544 40.6901 32.9758 40.1513Z" fill="#212121"/>
<path d="M53.6585 3.5063L50.2215 9.4434C49.797 10.1766 50.3259 11.0945 51.1734 11.0945H52.9369L52.2291 14.4799C51.9532 15.7996 53.7275 16.5011 54.4286 15.3496L58.0517 9.39975C58.498 8.66671 57.9704 7.72765 57.1121 7.72765H55.2424L55.8767 4.32758C56.124 3.00195 54.3342 2.33923 53.6585 3.5063ZM52.7204 14.3095C52.7205 14.3093 52.7206 14.3091 52.7207 14.3089L52.7204 14.3095Z" stroke="#212121" stroke-width="2"/>
</svg>
