<svg width="64" height="64" viewBox="0 0 64 64" fill="none" xmlns="http://www.w3.org/2000/svg">
<path fill-rule="evenodd" clip-rule="evenodd" d="M59.0017 14.0022C59.0007 17.0022 57.6417 20.0017 53.4996 20.0002C49.3575 19.9988 48.0007 16.9983 48.0017 13.9983C48.0032 9.85617 53.5049 5.00024 53.5049 5.00024C53.5049 5.00024 59.0032 9.86005 59.0017 14.0022ZM57.0017 14.0015C57.0013 15.2439 56.7135 16.258 56.2132 16.914C55.7811 17.4807 55.0291 18.0008 53.5003 18.0002C51.9715 17.9997 51.2199 17.4791 50.7882 16.9121C50.2884 16.2557 50.0013 15.2414 50.0017 13.999C50.0019 13.3865 50.2125 12.6214 50.653 11.7354C51.0864 10.8639 51.6853 9.98888 52.3199 9.18996C52.7269 8.67762 53.136 8.21222 53.5039 7.8166C53.8715 8.21248 54.2803 8.67817 54.6869 9.19079C55.321 9.99016 55.9193 10.8656 56.352 11.7374C56.7919 12.6237 57.0019 13.389 57.0017 14.0015Z" fill="#0B0D0E"/>
<path fill-rule="evenodd" clip-rule="evenodd" d="M29.9264 16.4965C30.5815 16.0796 31.4187 16.0796 32.0739 16.4965L53.537 30.1549C54.0029 30.4514 54.1403 31.0695 53.8438 31.5354C53.5473 32.0014 52.9292 32.1387 52.4632 31.8422L49.0001 29.6384V54.0952C49.0001 55.1998 48.1047 56.0952 47.0001 56.0952H15.0001C13.8956 56.0952 13.0001 55.1998 13.0001 54.0952V29.6384L9.537 31.8422C9.07106 32.1387 8.45297 32.0014 8.15646 31.5354C7.85996 31.0695 7.99731 30.4514 8.46325 30.1549L15.4064 25.7365V18.3984C15.4064 17.8462 15.8541 17.3984 16.4064 17.3984H20.4064C20.9587 17.3984 21.4064 17.8462 21.4064 18.3984V21.9183L29.9264 16.4965ZM15.0001 28.3657V54.0952H24.0001V44.2307C24.0001 44.2307 24.0001 36.9985 31.0001 36.9985C38.0001 36.9985 38.0001 44.2307 38.0001 44.2307V54.0952H47.0001V28.3657L31.0001 18.1839L15.0001 28.3657ZM19.4064 23.1911L17.4064 24.4638V19.3984H19.4064V23.1911ZM36.0001 44.24L35.9995 44.214C35.9985 44.1838 35.9963 44.1307 35.9912 44.0579C35.9811 43.9116 35.96 43.69 35.9163 43.4192C35.8273 42.8677 35.6532 42.1642 35.3249 41.4858C34.9996 40.8138 34.5463 40.2122 33.9125 39.7757C33.2945 39.35 32.3865 38.9985 31.0001 38.9985C29.6138 38.9985 28.7058 39.35 28.0877 39.7757C27.4539 40.2122 27.0006 40.8138 26.6754 41.4858C26.3471 42.1642 26.1729 42.8677 26.084 43.4192C26.0403 43.69 26.0191 43.9116 26.009 44.0579C26.004 44.1307 26.0018 44.1838 26.0008 44.214L26.0001 44.24V53.9985H36.0001V44.24Z" fill="#0B0D0E"/>
</svg>
