<svg width="64" height="64" viewBox="0 0 64 64" fill="none" xmlns="http://www.w3.org/2000/svg">
<path fill-rule="evenodd" clip-rule="evenodd" d="M28.023 8.78757C28.123 8.32788 28.5298 8 29.0002 8H35.0002C35.4706 8 35.8775 8.32788 35.9774 8.78757L38.1975 19H45C45.5523 19 46 19.4477 46 20C46 20.5523 45.5523 21 45 21H38.6323L40.6975 30.5H48C48.5523 30.5 49 30.9477 49 31.5C49 32.0523 48.5523 32.5 48 32.5H41.1323L45.9774 54.7876C46.0947 55.3273 45.7523 55.8599 45.2126 55.9772C44.673 56.0945 44.1404 55.7521 44.023 55.2124L41.9116 45.5H22.0888L19.9774 55.2124C19.8601 55.7521 19.3275 56.0945 18.7878 55.9772C18.2481 55.8599 17.9057 55.3273 18.023 54.7876L22.8682 32.5H16C15.4477 32.5 15 32.0523 15 31.5C15 30.9477 15.4477 30.5 16 30.5H23.3029L25.3682 21H19C18.4477 21 18 20.5523 18 20C18 19.4477 18.4477 19 19 19H25.8029L28.023 8.78757ZM24.4774 43.5H39.5244L32.0009 38.2416L24.4774 43.5ZM39.2346 33.1858L41.2012 42.2319L33.7465 37.0216L39.2346 33.1858ZM32.0009 35.8016L27.2771 32.5H36.7246L32.0009 35.8016ZM22.799 42.233L24.766 33.185L30.2553 37.0216L22.799 42.233ZM37.207 30.5L31.9996 26.0133L26.7923 30.5H37.207ZM38.2773 28.7822L36.78 21.8944L33.5316 24.6933L38.2773 28.7822ZM34.7541 21H29.2452L31.9996 23.3733L34.7541 21ZM27.2202 21.8953L25.7233 28.781L30.4676 24.6933L27.2202 21.8953ZM27.8497 19H36.1508L34.1942 10H29.8062L27.8497 19Z" fill="#0B0D0E"/>
</svg>
