<svg width="64" height="64" viewBox="0 0 64 64" fill="none" xmlns="http://www.w3.org/2000/svg">
<path fill-rule="evenodd" clip-rule="evenodd" d="M54.4862 4.10844L51.07 10.0576C50.2647 11.4601 51.2804 13.209 52.8985 13.2033L53.4313 13.2014L52.983 15.3838C52.4857 17.8049 55.743 19.0796 57.0211 16.964L60.6232 11.0015C61.4704 9.59905 60.4568 7.80985 58.8183 7.81561L58.1524 7.81795L58.5581 5.59983C59.003 3.16792 55.7174 1.96447 54.4862 4.10844ZM52.8044 11.0535L56.2206 5.10438C56.3325 4.90948 56.6312 5.01888 56.5908 5.23996L55.9684 8.64224C55.9223 8.89444 55.9747 9.13843 56.0956 9.33844C56.2252 9.55291 56.4337 9.71681 56.6842 9.78608C56.7608 9.80728 56.8414 9.81961 56.9249 9.82182C56.9351 9.82208 56.9454 9.8222 56.9556 9.82217L58.8254 9.8156C58.9034 9.81532 58.9516 9.90052 58.9113 9.9673L55.3092 15.9299C55.193 16.1222 54.8969 16.0063 54.9421 15.7862L55.638 12.3983C55.6895 12.1476 55.6428 11.9034 55.5271 11.7014C55.4102 11.4972 55.2228 11.3361 54.9951 11.2549C54.9302 11.2317 54.862 11.2151 54.7913 11.2058C54.7468 11.1999 54.7013 11.197 54.655 11.1971L52.8915 11.2033C52.8144 11.2036 52.7661 11.1203 52.8044 11.0535Z" fill="#0B0D0E"/>
<path fill-rule="evenodd" clip-rule="evenodd" d="M44.703 50.7609C46.7778 50.7609 48.4597 49.0789 48.4597 47.0042C48.4597 44.9294 46.7778 43.2474 44.703 43.2474C42.6282 43.2474 40.9463 44.9294 40.9463 47.0042C40.9463 49.0789 42.6282 50.7609 44.703 50.7609ZM44.703 48.7609C45.6732 48.7609 46.4597 47.9744 46.4597 47.0042C46.4597 46.0339 45.6732 45.2474 44.703 45.2474C43.7328 45.2474 42.9463 46.0339 42.9463 47.0042C42.9463 47.9744 43.7328 48.7609 44.703 48.7609Z" fill="#0B0D0E"/>
<path fill-rule="evenodd" clip-rule="evenodd" d="M24.5571 47.0041C24.5571 49.0788 22.8752 50.7607 20.8005 50.7607C18.7258 50.7607 17.0439 49.0788 17.0439 47.0041C17.0439 44.9294 18.7258 43.2476 20.8005 43.2476C22.8752 43.2476 24.5571 44.9294 24.5571 47.0041ZM22.5571 47.0041C22.5571 47.9742 21.7706 48.7607 20.8005 48.7607C19.8304 48.7607 19.0439 47.9742 19.0439 47.0041C19.0439 46.034 19.8304 45.2476 20.8005 45.2476C21.7706 45.2476 22.5571 46.034 22.5571 47.0041Z" fill="#0B0D0E"/>
<path fill-rule="evenodd" clip-rule="evenodd" d="M49.8262 22.513C50.3925 22.5122 50.8517 22.9714 50.8517 23.5377C50.8517 24.1041 50.3926 24.5632 49.8262 24.5632H43.5376L42.6917 27.6564H49.7845C50.2341 27.6564 50.646 27.9078 50.8517 28.3076L55.2845 36.9283C55.3718 37.0981 55.4173 37.2862 55.4173 37.4771V40.9439C55.4173 41.6066 54.8801 42.1439 54.2173 42.1439H52.112C53.0289 43.5391 53.5624 45.209 53.5624 47.0033C53.5624 51.8965 49.5957 55.8631 44.7026 55.8631C39.8094 55.8631 35.8428 51.8965 35.8428 47.0033C35.8428 46.6818 35.8599 46.3642 35.8933 46.0515H29.6114C29.6448 46.3642 29.662 46.6818 29.662 47.0033C29.662 51.8965 25.6953 55.8631 20.8022 55.8631C15.909 55.8631 11.9424 51.8965 11.9424 47.0033C11.9424 43.7017 13.7484 40.8218 16.4264 39.2978L9.21307 33.6695C8.99247 33.4974 8.83896 33.2536 8.77907 32.9803L7.49899 27.1383C7.33498 26.3898 7.90494 25.6815 8.67118 25.6815H34.205L35.7449 23.1412C35.9624 22.7824 36.3515 22.5632 36.771 22.5632C41.1503 22.5632 45.4615 22.5194 49.8262 22.513ZM18.5638 38.4287C19.2788 38.2426 20.0289 38.1436 20.8022 38.1436C21.5915 38.1436 22.3566 38.2468 23.0849 38.4404L25.2791 30.2524C25.422 29.7189 25.9703 29.4023 26.5038 29.5453C27.0373 29.6882 27.3538 30.2366 27.2109 30.77L24.9582 39.1768C25.1948 39.3027 25.4251 39.4391 25.6483 39.5852L38.4714 39.583V35.6684C38.4714 35.5614 38.4857 35.455 38.5139 35.3518L41.4642 24.5632H37.2216L35.6817 27.1035C35.4642 27.4623 35.0751 27.6815 34.6555 27.6815H9.66545L10.6709 32.2702L16.8184 37.0669L18.7436 30.1528C18.8917 29.6208 19.4431 29.3096 19.9752 29.4577C20.5072 29.6059 20.8184 30.1572 20.6703 30.6893L18.524 38.3977L18.5638 38.4287ZM27.8124 41.5848C28.3839 42.3231 28.8413 43.1541 29.1583 44.0515H36.3464C36.6637 43.1534 37.1216 42.3218 37.6937 41.5831L27.8124 41.5848ZM53.4173 40.1439H50.3104C48.783 38.8937 46.8304 38.1436 44.7026 38.1436C43.2807 38.1436 41.9371 38.4785 40.7464 39.0737L40.4888 36.8132L42.4554 29.6564H44.9695V34.4228C44.9695 35.2512 45.6411 35.9228 46.4695 35.9228H52.5186L53.4173 37.6707V40.1439ZM46.9695 33.9228H51.4901L49.2963 29.6564H46.9695V33.9228ZM44.7026 53.8631C48.4911 53.8631 51.5624 50.7919 51.5624 47.0033C51.5624 43.2148 48.4911 40.1436 44.7026 40.1436C40.914 40.1436 37.8428 43.2148 37.8428 47.0033C37.8428 50.7919 40.914 53.8631 44.7026 53.8631ZM27.662 47.0033C27.662 50.7919 24.5907 53.8631 20.8022 53.8631C17.0136 53.8631 13.9424 50.7919 13.9424 47.0033C13.9424 43.2148 17.0136 40.1436 20.8022 40.1436C24.5907 40.1436 27.662 43.2148 27.662 47.0033Z" fill="#0B0D0E"/>
<path d="M49.8301 7.57408C49.4313 7.85576 48.8832 7.76773 48.6069 7.36943L47.6462 5.98088C47.372 5.58477 47.478 5.03463 47.8812 4.75296C48.0381 4.64073 48.2177 4.58792 48.396 4.58792C48.6689 4.58792 48.9365 4.71555 49.1023 4.95541L50.0651 6.34617C50.3393 6.74227 50.2333 7.29241 49.8301 7.57408Z" fill="#0B0D0E"/>
<path d="M47.2157 9.63556L45.6769 8.92918C45.2372 8.72892 45.0564 8.20519 45.2677 7.76068C45.4232 7.4372 45.7493 7.24575 46.0816 7.24575C46.2049 7.24575 46.3275 7.27215 46.4429 7.32497L47.9817 8.03135C48.4192 8.2338 48.6022 8.75533 48.391 9.19764C48.1797 9.64216 47.6422 9.83581 47.2157 9.63556Z" fill="#0B0D0E"/>
<path d="M47.1244 12.2656L45.4187 12.4328C44.8957 12.4834 44.5106 12.1247 44.4762 11.6428C44.4398 11.1587 44.8048 10.7274 45.2902 10.6812L46.9959 10.5139C47.0268 10.5095 47.0533 10.5095 47.0819 10.5095C47.5309 10.5095 47.9034 10.8484 47.9383 11.3039C47.9748 11.7881 47.6098 12.2194 47.1244 12.2656Z" fill="#0B0D0E"/>
<path d="M47.8912 12.9608C48.1642 12.9608 48.4318 13.0885 48.5975 13.3283C48.8695 13.7244 48.7635 14.2746 48.3646 14.5584L46.9489 15.5531C46.5501 15.8348 46.002 15.7467 45.7257 15.3484C45.4515 14.9523 45.5575 14.4022 45.9607 14.1205L47.3765 13.1259C47.5333 13.0136 47.7129 12.9608 47.8912 12.9608Z" fill="#0B0D0E"/>
<path d="M48.2674 16.7219L49.0124 15.1639C49.1679 14.8404 49.4918 14.6489 49.8265 14.6467C49.9497 14.6467 50.0701 14.6731 50.1877 14.7259C50.6252 14.9284 50.8082 15.4499 50.5969 15.8922L49.8519 17.4502C49.6406 17.8948 49.1119 18.0906 48.6766 17.8881C48.2392 17.6857 48.0561 17.1642 48.2674 16.7219Z" fill="#0B0D0E"/>
</svg>
