<svg width="64" height="64" viewBox="0 0 64 64" fill="none" xmlns="http://www.w3.org/2000/svg">
<path fill-rule="evenodd" clip-rule="evenodd" d="M51.6952 14.9694V17.6951C51.6952 18.2917 52.1789 18.7759 52.7755 18.7759H57.6393C57.2376 21.3153 55.3281 23.3562 52.856 23.9488C52.2052 24.1048 51.6798 24.6863 51.6798 25.4251V27.6227C51.6798 30.8532 49.061 33.472 45.8305 33.472C42.6 33.472 39.9811 30.8532 39.9811 27.6227V25.4265C39.9811 24.6872 39.455 24.1055 38.8037 23.9499C36.3293 23.3588 34.4176 21.3169 34.0156 18.7759H38.8423C39.424 18.7759 39.9039 18.3394 39.9721 17.776C39.9785 17.7303 39.9818 17.6835 39.9818 17.636V14.9694L40.7976 15.7852L40.8056 15.7929L40.8157 15.8027L42.6125 17.5995C43.2765 18.2636 44.1772 18.6367 45.1164 18.6367H46.5607C47.4998 18.6367 48.4005 18.2636 49.0645 17.5995L49.8088 16.8553L49.8263 16.8381L49.833 16.8316L51.6952 14.9694ZM53.6952 13.7623C53.6952 12.4259 52.0795 11.7567 51.1346 12.7016L48.4314 15.4048C48.419 15.4168 48.4068 15.4289 48.3946 15.4411L47.6503 16.1853C47.3613 16.4743 46.9694 16.6367 46.5607 16.6367H45.1164C44.7077 16.6367 44.3157 16.4743 44.0267 16.1853L42.2299 14.3885C42.2191 14.3777 42.2081 14.3669 42.1971 14.3563L40.5424 12.7016C39.5975 11.7567 37.9818 12.4259 37.9818 13.7623V16.7759H33.4374C32.6271 16.7759 31.8961 17.4466 31.9564 18.343C32.1957 21.9046 34.6662 24.8511 37.9811 25.8012V27.6227C37.9811 31.9577 41.4954 35.472 45.8305 35.472C50.1655 35.472 53.6798 31.9577 53.6798 27.6227V25.7995C56.9917 24.8476 59.4593 21.9024 59.6985 18.343C59.7588 17.4466 59.0278 16.7759 58.2175 16.7759H53.6952V13.7623Z" fill="#0B0D0E"/>
<path fill-rule="evenodd" clip-rule="evenodd" d="M23.2076 22.8114C23.2076 22.2591 22.7599 21.8114 22.2076 21.8114H16.3945C9.76711 21.8114 4.39453 27.184 4.39453 33.8114V39.1768C4.39453 39.7291 4.84225 40.1768 5.39453 40.1768C5.94682 40.1768 6.39453 39.7291 6.39453 39.1768V33.8114C6.39453 28.2885 10.8717 23.8114 16.3945 23.8114H22.2076C22.7599 23.8114 23.2076 23.3637 23.2076 22.8114Z" fill="#0B0D0E"/>
<path fill-rule="evenodd" clip-rule="evenodd" d="M35.6361 22.8114C35.6361 22.2591 35.1883 21.8114 34.6361 21.8114H19.3057C14.8874 21.8114 11.3057 25.3931 11.3057 29.8114V48.4624C11.3057 50.1192 12.6488 51.4624 14.3057 51.4624H14.3649C15.8223 51.4624 17.0688 50.415 17.32 48.9795L17.4222 48.3955C18.1758 44.0889 21.9154 40.9468 26.2875 40.9468H31.1577C35.4451 40.9468 38.9207 44.4224 38.9207 48.7098C38.9207 50.23 40.153 51.4624 41.6733 51.4624H41.8764C43.3839 51.4624 44.6499 50.3279 44.8145 48.8294L46.38 34.5817C46.4403 34.0327 46.0442 33.5388 45.4952 33.4785C44.9462 33.4182 44.4523 33.8143 44.392 34.3633L42.8265 48.611C42.7733 49.0955 42.3639 49.4624 41.8764 49.4624H41.6733C41.2576 49.4624 40.9207 49.1254 40.9207 48.7098C40.9207 43.3178 36.5496 38.9468 31.1577 38.9468H26.2875C20.9438 38.9468 16.3732 42.7871 15.4521 48.0508L15.3499 48.6347C15.2662 49.1133 14.8507 49.4624 14.3649 49.4624H14.3057C13.7534 49.4624 13.3057 49.0147 13.3057 48.4624V29.8114C13.3057 26.4977 15.992 23.8114 19.3057 23.8114H34.6361C35.1883 23.8114 35.6361 23.3637 35.6361 22.8114Z" fill="#0B0D0E"/>
</svg>
