<svg width="64" height="64" viewBox="0 0 64 64" fill="none" xmlns="http://www.w3.org/2000/svg">
<path fill-rule="evenodd" clip-rule="evenodd" d="M27.5 10.9481C27.5 9.84348 28.3954 8.94805 29.5 8.94805H34.5C35.6046 8.94805 36.5 9.84348 36.5 10.9481V14.9117C36.5 14.9117 36.5001 14.9155 36.5021 14.9201C36.5044 14.9257 36.5104 14.9366 36.5233 14.9499C36.5516 14.9791 36.5947 15.0012 36.6391 15.0059C37.6836 15.1181 39.3701 15.4492 40.8189 16.4614C42.3252 17.5136 43.5 19.255 43.5 21.9708V29.9481C43.5 30.4799 43.1342 30.7829 43.0336 30.8623C42.9714 30.9114 42.9065 30.9544 42.8434 30.9919C42.9085 31.0307 42.9756 31.0757 43.0398 31.1272C43.1452 31.2117 43.5 31.5145 43.5 32.039V35.9026C43.5 36.4302 43.1406 36.733 43.0372 36.8154C42.9738 36.8659 42.9077 36.91 42.8435 36.9483C42.9074 36.9863 42.9733 37.0302 43.0364 37.0804C43.1392 37.1621 43.5 37.465 43.5 37.9935V41.9481C43.5 42.4757 43.1405 42.7785 43.0372 42.8609C42.9737 42.9114 42.9075 42.9556 42.8432 42.9939C42.907 43.0318 42.9728 43.0756 43.0357 43.1256C43.138 43.2067 43.5 43.5096 43.5 44.039V53.2589C43.5 54.0833 42.9901 54.8487 42.1711 55.124C40.5823 55.6582 36.3118 56.9481 32 56.9481C27.6882 56.9481 23.4177 55.6582 21.829 55.124C21.0099 54.8487 20.5 54.0833 20.5 53.2589V44.039C20.5 43.5158 20.8551 43.2126 20.9535 43.1323C21.0199 43.0781 21.0895 43.0309 21.1567 42.9901C21.096 42.9546 21.0338 42.914 20.9739 42.8676C20.8665 42.7845 20.5 42.4819 20.5 41.9481V37.9935C20.5 37.465 20.8608 37.1621 20.9636 37.0804C21.0267 37.0302 21.0926 36.9863 21.1565 36.9483C21.0923 36.91 21.0262 36.8659 20.9628 36.8154C20.8594 36.733 20.5 36.4302 20.5 35.9026V32.039C20.5 31.5205 20.8482 31.2175 20.9496 31.1338C21.0171 31.0782 21.088 31.0297 21.1564 30.988C21.097 30.9535 21.0362 30.914 20.9776 30.869C20.873 30.7889 20.5 30.4863 20.5 29.9481V21.9708C20.5 19.255 21.6748 17.5136 23.1811 16.4614C24.6299 15.4492 26.3164 15.1181 27.3609 15.0059C27.4053 15.0012 27.4484 14.9791 27.4767 14.9499C27.4896 14.9366 27.4956 14.9257 27.4979 14.9201C27.4999 14.9155 27.5 14.9117 27.5 14.9117V10.9481ZM34.5 10.9481H29.5V12.9481H34.5V10.9481ZM34.5003 14.9481H29.4997C29.4804 16.0724 28.5666 16.8879 27.5745 16.9945C26.6721 17.0914 25.3747 17.3686 24.3264 18.1009C23.3356 18.7932 22.5 19.9325 22.5 21.9708V29.3916C22.5901 29.4224 22.6931 29.4561 22.8098 29.4941L22.8312 29.5011C23.0621 29.5763 23.3563 29.6721 23.5938 29.7778C23.7127 29.8306 23.8785 29.9119 24.0295 30.0298C24.1395 30.1157 24.5 30.4183 24.5 30.9481C24.5 31.4729 24.1425 31.7761 24.0451 31.8553C23.9008 31.9727 23.741 32.0575 23.624 32.1143C23.3939 32.226 23.1076 32.3322 22.8787 32.4171L22.8481 32.4285C22.7151 32.4778 22.5993 32.5212 22.5 32.5604V35.3643C22.5948 35.3992 22.7043 35.4376 22.8291 35.4812L22.8559 35.4905C23.0856 35.5705 23.3754 35.6715 23.6088 35.7799C23.7267 35.8346 23.8894 35.9176 24.0369 36.0351C24.1401 36.1173 24.5 36.4202 24.5 36.9481C24.5 37.475 24.1416 37.7778 24.0377 37.8607C23.8901 37.9784 23.7273 38.0617 23.6093 38.1165C23.3752 38.2255 23.0846 38.3267 22.8545 38.4068L22.8291 38.4157C22.7043 38.4592 22.5948 38.4976 22.5 38.5325V41.3947C22.59 41.4255 22.6931 41.4594 22.8098 41.4974L22.8371 41.5063C23.0664 41.581 23.3571 41.6756 23.5916 41.7793C23.7099 41.8315 23.8752 41.9119 24.0258 42.0284C24.1329 42.1112 24.5 42.4138 24.5 42.9481C24.5 43.4683 24.1492 43.7713 24.0489 43.8537C23.9043 43.9726 23.7439 44.0584 23.6264 44.1159C23.3929 44.2299 23.1027 44.3376 22.8719 44.4233L22.8481 44.4321C22.7153 44.4814 22.5994 44.5247 22.5 44.5638V53.2396C24.0565 53.7607 28.0486 54.9481 32 54.9481C35.9514 54.9481 39.9435 53.7607 41.5 53.2396V44.5785C41.4052 44.5436 41.2957 44.5052 41.1708 44.4617L41.1465 44.4532C40.9161 44.3729 40.625 44.2715 40.3903 44.1622C40.3039 44.122 40.1936 44.0666 40.0827 43.9935H33.5C32.9477 43.9935 32.5 43.5458 32.5 42.9935C32.5 42.4412 32.9477 41.9935 33.5 41.9935H40.0838C40.1946 41.9207 40.3049 41.8655 40.3912 41.8254C40.6246 41.717 40.9143 41.616 41.1441 41.536L41.1708 41.5267C41.2957 41.4831 41.4052 41.4447 41.5 41.4098V38.5325C41.4052 38.4976 41.2957 38.4592 41.1709 38.4157L41.1455 38.4068C40.9154 38.3267 40.6248 38.2255 40.3907 38.1165C40.3043 38.0764 40.194 38.021 40.0831 37.9481H33.5C32.9477 37.9481 32.5 37.5003 32.5 36.9481C32.5 36.3958 32.9477 35.9481 33.5 35.9481H40.0837C40.1945 35.8752 40.3049 35.82 40.3912 35.7799C40.6246 35.6715 40.9144 35.5705 41.1441 35.4905L41.1709 35.4812C41.2957 35.4376 41.4052 35.3992 41.5 35.3643V32.575C41.4053 32.5401 41.2958 32.5016 41.1709 32.458L41.1398 32.4472C40.9113 32.3676 40.624 32.2676 40.3928 32.1606C40.3066 32.1208 40.1964 32.0659 40.0856 31.9935H33.5C32.9477 31.9935 32.5 31.5458 32.5 30.9935C32.5 30.4412 32.9477 29.9935 33.5 29.9935H40.0811C40.192 29.9201 40.3025 29.8644 40.389 29.8239C40.6254 29.7134 40.9187 29.6112 41.1499 29.5307L41.1709 29.5234C41.2956 29.4799 41.4051 29.4415 41.5 29.4067V21.9708C41.5 19.9325 40.6644 18.7932 39.6736 18.1009C38.6253 17.3686 37.3279 17.0914 36.4255 16.9945C35.4334 16.8879 34.5196 16.0724 34.5003 14.9481Z" fill="#0B0D0E"/>
<path d="M60.7166 13.7414C61.7139 15.7362 60.2634 18.0831 58.0333 18.0831H55.6838L55.9767 18.376C56.3672 18.7665 56.3672 19.3997 55.9767 19.7902C55.5861 20.1807 54.953 20.1807 54.5625 19.7902L52.5751 17.8028C52.3866 17.621 52.2693 17.3657 52.2693 17.0831C52.2693 16.799 52.3878 16.5426 52.5779 16.3606L54.5626 14.3759C54.9531 13.9854 55.5863 13.9854 55.9768 14.3759C56.3673 14.7665 56.3673 15.3996 55.9768 15.7902L55.6839 16.0831H58.0333C58.7767 16.0831 59.2602 15.3008 58.9277 14.6359L58.3749 13.5303C58.1279 13.0363 58.3281 12.4356 58.8221 12.1887C59.3161 11.9417 59.9168 12.1419 60.1638 12.6359L60.7166 13.7414Z" fill="#0B0D0E"/>
<path d="M50.6391 4.52111C51.8232 2.54672 54.698 2.58669 55.8267 4.59325L57.5337 7.62799L57.8207 6.76687C57.9954 6.24293 58.5617 5.95977 59.0856 6.13441C59.6096 6.30906 59.8927 6.87538 59.7181 7.39933L58.7181 10.3993C58.5707 10.8414 58.1445 11.1121 57.7002 11.0809C57.5991 11.074 57.4997 11.0519 57.4055 11.0154L54.4534 10.0318C53.9295 9.85724 53.6462 9.29097 53.8208 8.767C53.9954 8.24303 54.5616 7.95978 55.0856 8.13436L55.6249 8.31403L54.0835 5.57377C53.7073 4.90492 52.749 4.89159 52.3543 5.54972L51.1263 7.59738C50.8423 8.07102 50.2281 8.22472 49.7544 7.94068C49.2808 7.65663 49.1271 7.0424 49.4111 6.56876L50.6391 4.52111Z" fill="#0B0D0E"/>
<path d="M45.4676 13.4988C44.2248 15.4972 45.6619 18.0832 48.0152 18.0831L49.4159 18.0831C49.9682 18.0831 50.4159 17.6353 50.4159 17.0831C50.4159 16.5308 49.9682 16.0831 49.4159 16.0831L48.0152 16.0831C47.2308 16.0831 46.7517 15.2211 47.166 14.555L48.4946 12.4187L48.8219 13.3994C48.9967 13.9233 49.5631 14.2063 50.087 14.0315C50.6109 13.8566 50.8938 13.2902 50.719 12.7663L49.7218 9.7781C49.701 9.7131 49.6736 9.65011 49.6398 9.59025C49.4092 9.18167 48.9145 8.98019 48.4528 9.13426C48.4436 9.13731 48.4346 9.14048 48.4256 9.14377L45.4531 10.1344C44.9291 10.3091 44.6459 10.8754 44.8205 11.3993C44.9952 11.9233 45.5615 12.2065 46.0854 12.0318L46.4569 11.908L45.4676 13.4988Z" fill="#0B0D0E"/>
</svg>
