<svg width="64" height="64" viewBox="0 0 64 64" fill="none" xmlns="http://www.w3.org/2000/svg">
<path d="M55.7375 4.62639C54.6088 2.61983 51.734 2.57986 50.5499 4.55425L49.3219 6.6019C49.0379 7.07555 49.1916 7.68977 49.6652 7.97382C50.1389 8.25786 50.7531 8.10416 51.0372 7.63052L52.2651 5.58287C52.6598 4.92473 53.6181 4.93806 53.9943 5.60691L55.5358 8.34727L54.9962 8.1675C54.4722 7.99293 53.906 8.27617 53.7314 8.80014C53.5568 9.32411 53.8401 9.89038 54.364 10.065L57.3178 11.0491C57.4128 11.0857 57.5132 11.1078 57.6153 11.1144C58.058 11.1434 58.4819 10.8731 58.6288 10.4325L59.6288 7.43245C59.8034 6.90851 59.5203 6.34219 58.9963 6.16754C58.4724 5.99289 57.9061 6.27605 57.7314 6.8L57.4444 7.66099L55.7375 4.62639Z" fill="#0B0D0E"/>
<path fill-rule="evenodd" clip-rule="evenodd" d="M18.8562 46.9936C18.1934 46.9936 17.6562 47.5308 17.6562 48.1936L17.6562 51.4433C17.6562 52.1061 18.1935 52.6433 18.8562 52.6433L36.7825 52.6433C37.4453 52.6433 37.9825 52.1061 37.9825 51.4433L37.9825 48.1936C37.9825 47.5308 37.4453 46.9936 36.7825 46.9936H18.8562ZM19.6562 50.6433L19.6562 48.9936H35.9825L35.9825 50.6433L19.6562 50.6433Z" fill="#0B0D0E"/>
<path fill-rule="evenodd" clip-rule="evenodd" d="M37.818 5.23137C38.9226 5.23137 39.818 6.1268 39.818 7.23137V9.23137C39.818 10.3359 38.9226 11.2314 37.818 11.2314H31.3182V15.4092C31.68 15.7477 31.9605 16.1781 32.121 16.6722L33.0185 19.4344C33.4201 20.6704 32.9802 22.0246 31.9287 22.7885L29.579 24.4956C29.3415 24.6682 29.0849 24.8018 28.8179 24.8964V24.9683C28.8179 25.2124 28.9209 25.4817 29.1814 25.7916C29.4457 26.1061 29.8246 26.403 30.2486 26.6713C31.5204 27.4761 32.3685 28.8981 32.3685 30.5189C32.3685 32.4205 31.2021 34.0497 29.5457 34.73L29.5493 34.7363L34.0618 42.5522H48.3843C49.5926 42.5522 50.0433 44.1364 49.016 44.7724L42.3108 48.924V50.713L49.016 54.8646C50.0433 55.5006 49.5926 57.0848 48.3843 57.0848L7.25536 57.0848C6.04709 57.0848 5.59634 55.5006 6.62366 54.8645L13.3289 50.713V48.924L6.62364 44.7724C5.59633 44.1364 6.04707 42.5522 7.25534 42.5522H21.5727L26.0852 34.7363L26.0891 34.7296C24.4332 34.049 23.2672 32.4201 23.2672 30.5189C23.2672 29.9666 23.7149 29.5189 24.2672 29.5189C24.8195 29.5189 25.2672 29.9666 25.2672 30.5189C25.2672 31.9275 26.4092 33.0695 27.8179 33.0695C29.2265 33.0695 30.3685 31.9275 30.3685 30.5189C30.3685 29.6121 29.8961 28.815 29.1792 28.3614C28.6699 28.0391 28.1007 27.6142 27.6504 27.0785C27.1961 26.5381 26.8179 25.8287 26.8179 24.9683V24.898C26.5493 24.8033 26.2912 24.6692 26.0523 24.4956L23.7027 22.7885C22.6512 22.0245 22.2112 20.6704 22.6129 19.4344L23.5103 16.6722C23.6716 16.1758 23.9539 15.7438 24.3182 15.4045V11.2314L17.818 11.2314C16.7134 11.2314 15.818 10.3359 15.818 9.23137V7.23137C15.818 6.1268 16.7134 5.23137 17.818 5.23137L37.818 5.23137ZM27.8173 35.7363L31.7524 42.5522L23.8821 42.5522L27.8173 35.7363ZM29.3629 9.23137C29.348 9.23105 29.3331 9.23088 29.3182 9.23088H26.3182C26.3033 9.23088 26.2884 9.23105 26.2735 9.23137L17.818 9.23137V7.23137L37.818 7.23137V9.23137L29.3629 9.23137ZM26.3182 11.2314V14.5996C26.3333 14.5993 26.3484 14.5992 26.3635 14.5992H29.2679C29.2847 14.5992 29.3014 14.5994 29.3182 14.5997V11.2314H26.3182ZM28.8179 20.0057V22.5765L30.7531 21.1704C31.1036 20.9158 31.2503 20.4644 31.1164 20.0524L30.2189 17.2902C30.085 16.8782 29.7011 16.5992 29.2679 16.5992L26.3635 16.5992C25.9303 16.5992 25.5463 16.8782 25.4125 17.2902L24.515 20.0524C24.3811 20.4644 24.5278 20.9158 24.8782 21.1704L26.8179 22.5797V20.0057C26.8179 19.4534 27.2656 19.0057 27.8179 19.0057C28.3701 19.0057 28.8179 19.4534 28.8179 20.0057ZM14.7606 47.4581L10.0672 44.5522L45.5725 44.5522L40.8791 47.4581C40.5258 47.6768 40.3108 48.0628 40.3108 48.4784V51.1586C40.3108 51.5742 40.5258 51.9602 40.8791 52.1789L45.5725 55.0848L10.0672 55.0848L14.7606 52.1789C15.1139 51.9602 15.3289 51.5742 15.3289 51.1586L15.3289 48.4784C15.3289 48.0628 15.1139 47.6768 14.7606 47.4581Z" fill="#0B0D0E"/>
<path d="M60.6273 13.7746C61.6247 15.7693 60.1742 18.1162 57.944 18.1162H55.5943L55.8872 18.4091C56.2777 18.7996 56.2777 19.4328 55.8872 19.8233C55.4967 20.2139 54.8635 20.2139 54.473 19.8233L52.473 17.8233L52.4665 17.8168C52.3774 17.726 52.3055 17.6183 52.256 17.499C52.2071 17.3811 52.1801 17.2518 52.1801 17.1162C52.1801 16.9806 52.2071 16.8513 52.256 16.7334C52.3048 16.6155 52.3771 16.505 52.473 16.4091L54.473 14.4091C54.8635 14.0186 55.4967 14.0186 55.8872 14.4091C56.2777 14.7996 56.2777 15.4328 55.8872 15.8233L55.5943 16.1162H57.944C58.6874 16.1162 59.1709 15.3339 58.8385 14.669L58.2857 13.5634C58.0387 13.0695 58.2389 12.4688 58.7329 12.2218C59.2269 11.9748 59.8275 12.175 60.0745 12.669L60.6273 13.7746Z" fill="#0B0D0E"/>
<path d="M45.3783 13.5319C44.1355 15.5303 45.5726 18.1163 47.9259 18.1162L49.3266 18.1162C49.8789 18.1162 50.3266 17.6685 50.3266 17.1162C50.3266 16.5639 49.8788 16.1162 49.3266 16.1162L47.9259 16.1162C47.1414 16.1163 46.6624 15.2543 47.0767 14.5881L48.4051 12.452L48.7323 13.4325C48.9072 13.9564 49.4736 14.2394 49.9975 14.0646C50.5214 13.8898 50.8043 13.3233 50.6295 12.7995L49.6355 9.82067C49.5808 9.64361 49.4769 9.48103 49.3292 9.35531C49.259 9.29552 49.181 9.24583 49.0977 9.20749C49.0509 9.18589 49.003 9.16822 48.9546 9.15436C48.7672 9.10063 48.5621 9.10101 48.3632 9.16739C48.3532 9.17074 48.3432 9.17424 48.3333 9.17789L45.3638 10.1676C44.8398 10.3422 44.5567 10.9085 44.7313 11.4324C44.9059 11.9564 45.4722 12.2396 45.9962 12.065L46.3676 11.9412L45.3783 13.5319Z" fill="#0B0D0E"/>
</svg>
