<svg width="64" height="64" viewBox="0 0 64 64" fill="none" xmlns="http://www.w3.org/2000/svg">
<path fill-rule="evenodd" clip-rule="evenodd" d="M26.1865 12.3979V19.5654C18.6722 22.0125 13.2402 29.0741 13.2402 37.4068C13.2402 47.7676 21.6393 56.1667 32.0001 56.1667C42.3609 56.1667 50.7599 47.7676 50.7599 37.4068C50.7599 29.0731 45.3267 22.0108 37.8109 19.5646V12.4004C37.9246 12.3239 38.0314 12.2361 38.1297 12.1378L38.7639 11.5036C40.1183 10.1492 39.1591 7.83331 37.2436 7.83331L26.7576 7.83331C24.8422 7.83331 23.8829 10.1492 25.2374 11.5036L25.8715 12.1378C25.9688 12.235 26.0743 12.3219 26.1865 12.3979ZM15.2402 37.4068C15.2402 29.8112 20.2939 23.3933 27.2241 21.337C27.759 21.3172 28.1865 20.8774 28.1865 20.3377V12.7925H35.8109V20.3377C35.8109 20.8784 36.2401 21.3189 36.7764 21.3371C43.7064 23.3936 48.7599 29.8113 48.7599 37.4068C48.7599 41.3193 47.4193 44.9187 45.1723 47.7706C41.7175 47.0003 37.4633 46.5263 32.8521 46.466L32.8521 41.8182C34.2665 41.9511 36.5408 41.674 38.8572 39.3576C41.9361 36.2788 41.4121 33.2742 41.1114 32.2645C41.0417 32.0305 40.863 31.8518 40.629 31.7821C39.6192 31.4813 36.6147 30.9574 33.5358 34.0362C32.9593 34.6128 32.5091 35.1867 32.1601 35.7455C32.063 35.7141 31.9595 35.6971 31.8521 35.6971C31.7459 35.6971 31.6435 35.7137 31.5475 35.7444C31.1986 35.1861 30.7487 34.6126 30.1726 34.0364C27.0937 30.9576 24.0892 31.4815 23.0794 31.7823C22.8454 31.852 22.6667 32.0307 22.597 32.2647C22.2962 33.2745 21.7723 36.279 24.8512 39.3578C27.1652 41.6719 29.4373 41.9508 30.8521 41.8188L30.8521 46.4659C26.3524 46.5243 22.1926 46.9767 18.7833 47.7139C16.5632 44.871 15.2402 41.2934 15.2402 37.4068ZM20.335 49.4409C23.3521 52.3661 27.4658 54.1667 32.0001 54.1667C36.5093 54.1667 40.6026 52.3859 43.6151 49.4892C40.2809 48.8426 36.2352 48.4601 31.8603 48.4594C31.8576 48.4594 31.8548 48.4594 31.8521 48.4594C31.8493 48.4594 31.8465 48.4594 31.8437 48.4594C27.5763 48.4597 23.6218 48.8233 20.335 49.4409ZM33.0621 39.8313C32.9765 38.8741 33.171 37.2294 34.95 35.4504C36.729 33.6714 38.3737 33.4769 39.331 33.5625C39.4165 34.5197 39.222 36.1644 37.443 37.9434C35.664 39.7224 34.0193 39.9169 33.0621 39.8313ZM30.6463 39.8316C29.6891 39.9171 28.0444 39.7226 26.2654 37.9436C24.4864 36.1646 24.2919 34.52 24.3774 33.5627C25.3347 33.4772 26.9793 33.6717 28.7583 35.4507C30.5373 37.2297 30.7319 38.8743 30.6463 39.8316ZM27.3918 10.7675H36.6094C36.6492 10.7675 36.6874 10.7517 36.7155 10.7236L37.3497 10.0894C37.4442 9.99488 37.3773 9.83331 37.2436 9.83331H26.7576C26.624 9.83331 26.5571 9.99488 26.6516 10.0894L27.2858 10.7236C27.3139 10.7517 27.352 10.7675 27.3918 10.7675Z" fill="#0B0D0E"/>
</svg>
