<svg width="64" height="64" viewBox="0 0 64 64" fill="none" xmlns="http://www.w3.org/2000/svg">
<path d="M51.1991 8.47193C50.6468 8.45991 50.1894 8.89788 50.1773 9.45015C50.13 11.6273 47.8519 13.0303 45.8864 12.0929L45.2991 11.8128C44.3684 11.369 43.2896 12.0334 43.2672 13.0643L43.2002 16.1414C43.1882 16.6935 42.7309 17.1314 42.1787 17.1194C41.6265 17.1073 41.1887 16.65 41.2007 16.0978L41.2677 13.0208C41.3217 10.5385 43.919 8.93888 46.16 10.0076L46.7473 10.2877C47.4026 10.6002 48.162 10.1324 48.1778 9.40664C48.2139 7.75006 49.586 6.43635 51.2426 6.4724L53.4688 6.52085C54.021 6.53287 54.4589 6.99022 54.4469 7.54237C54.4348 8.09452 53.9775 8.53239 53.4253 8.52038L51.1991 8.47193Z" fill="black"/>
<path fill-rule="evenodd" clip-rule="evenodd" d="M31.8942 20.9624C31.8942 19.8578 30.9987 18.9624 29.8942 18.9624H23.1279C22.0233 18.9624 21.1279 19.8578 21.1279 20.9624V34.1759L9.0732 40.7807C8.75287 40.9562 8.55371 41.2924 8.55371 41.6577V57.5639C8.55371 58.1161 9.00143 58.5639 9.55371 58.5639H22.1188L22.1244 58.5639H41.6891L41.6947 58.5639H54.4463C54.9986 58.5639 55.4463 58.1161 55.4463 57.5639V32.6018C55.4463 31.8419 54.6322 31.3597 53.9658 31.7248L46.4982 35.8158V20.9624C46.4982 19.8578 45.6027 18.9624 44.4982 18.9624H37.7319C36.6273 18.9624 35.7319 19.8578 35.7319 20.9624V34.1889L31.8942 35.9955V20.9624ZM21.1244 41.6999V56.5639H10.5537V42.2501L25.0818 34.2901V39.2024L21.6984 40.7951C21.348 40.9601 21.1244 41.3126 21.1244 41.6999ZM29.8942 36.937L27.0818 38.2609V32.6019C27.0818 31.842 26.2677 31.3598 25.6013 31.7249L23.1279 33.0801L23.1279 25.0501H29.8942V36.937ZM53.4463 56.5639H42.6891V40.183L53.4463 34.2898V56.5639ZM44.4982 36.9114L42.6891 37.9025V32.4897C42.6891 31.7567 41.9264 31.2728 41.2632 31.585L37.7319 33.2473V25.0501H44.4982V36.9114ZM29.8942 23.0501V20.9624H23.1279V23.0501H29.8942ZM44.4982 23.0501H37.7319V20.9624H44.4982V23.0501ZM40.6891 34.0658V56.5639H35.6047V49.6231C35.6047 49.3469 35.3808 49.1231 35.1047 49.1231H30.2736C29.9974 49.1231 29.7736 49.3469 29.7736 49.6231V56.5639H23.1244V42.3344L40.6891 34.0658ZM33.8047 56.5639H31.5736V50.9231H33.8047V56.5639Z" fill="black"/>
<path d="M35.1201 10.4163C35.1321 9.86406 35.5896 9.4261 36.1418 9.43812L38.3681 9.48656C38.9202 9.49858 39.3776 9.06071 39.3896 8.50856C39.4016 7.9564 38.9638 7.49905 38.4116 7.48704L36.1853 7.43859C34.5288 7.40254 33.1566 8.71624 33.1206 10.3728C33.1048 11.0986 32.3453 11.5664 31.69 11.2539L31.1028 10.9738C28.8617 9.90507 26.2644 11.5047 26.2104 13.987L26.1434 17.064C26.1314 17.6162 26.5693 18.0735 27.1214 18.0855C27.6736 18.0976 28.1309 17.6597 28.143 17.1075L28.2099 14.0305C28.2324 12.9995 29.3111 12.3352 30.2419 12.779L30.8291 13.0591C32.7947 13.9965 35.0727 12.5934 35.1201 10.4163Z" fill="black"/>
</svg>
