<svg width="64" height="64" viewBox="0 0 64 64" fill="none" xmlns="http://www.w3.org/2000/svg">
<path fill-rule="evenodd" clip-rule="evenodd" d="M16.1135 15C15.5612 15 15.1135 15.4477 15.1135 16V22.395C15.1135 22.4648 15.1062 22.5344 15.0917 22.6027L8.25656 54.7923C8.12448 55.4143 8.59887 56 9.23475 56H43.7331C43.7927 56 43.8508 55.9949 43.9071 55.9851C43.9634 55.9949 44.0211 56 44.0798 56H53.9999C54.5522 56 54.9999 55.5523 54.9999 55V36C54.9999 35.4477 54.5522 35 53.9999 35H50V23C50 22.4477 49.5523 22 49 22H44C43.4477 22 43 22.4477 43 23V35H39.9836L37.025 22.6146C37.0068 22.5384 36.9976 22.4605 36.9976 22.3822V16C36.9976 15.4477 36.5499 15 35.9976 15H16.1135ZM17.1135 17V22.395C17.1135 22.6044 17.0915 22.8133 17.048 23.0181L10.4694 54H42.4661L35.0797 23.0792C35.0252 22.8509 34.9976 22.617 34.9976 22.3822V17H17.1135ZM45 35H48V24H45V35ZM40.5675 37L44.8587 54H52.9999V37H40.5675Z" fill="#212121"/>
<path fill-rule="evenodd" clip-rule="evenodd" d="M31 30C31 30.5523 30.5523 31 30 31V32.2549C31.1751 32.75 32 33.9124 32 35.2675V40H30V38H22V40H20V35.2675C20 33.9124 20.8249 32.75 22 32.2549V31C21.4477 31 21 30.5523 21 30C21 29.4477 21.4477 29 22 29H30C30.5523 29 31 29.4477 31 30ZM22 36H30V35.2675C30 34.5675 29.4325 34 28.7325 34H23.2675C22.5675 34 22 34.5675 22 35.2675V36ZM24 31H28V32H24V31Z" fill="#212121"/>
<path d="M22 45C22 44.4481 22.4481 44 23 44C23.5519 44 24 44.4481 24 45C24 45.5519 23.5519 46 23 46C22.4481 46 22 45.5519 22 45Z" fill="#212121"/>
<path fill-rule="evenodd" clip-rule="evenodd" d="M17 42C17 41.4477 17.4477 41 18 41H19.8204C20.3796 41 20.8673 41.306 21.1253 41.7597L21.7571 41.3817C22.288 41.0641 22.9404 41.0248 23.5056 41.2766L24.9572 41.9231L26.1539 41.494C26.5444 41.3541 26.9699 41.3457 27.3655 41.4702L28.943 41.9667L31.0428 41.5159C31.3178 41.1998 31.723 41 32.1749 41H34C34.5523 41 35 41.4477 35 42C35 42.5523 34.5523 43 34 43H32.7455C32.7232 43.0249 32.6997 43.0488 32.6749 43.0714V47.5C32.6749 48.3284 32.0033 49 31.1749 49H20.8204C19.9919 49 19.3204 48.3284 19.3204 47.5L19.3204 43H18C17.4477 43 17 42.5523 17 42ZM21.3204 47L21.3204 43.9474C21.3865 43.925 21.4512 43.8953 21.5135 43.858L22.7393 43.1247L24.1801 43.7664C24.6271 43.9655 25.1337 43.9844 25.5944 43.8193L26.7972 43.3881L28.0255 43.7747C28.0088 43.8471 28 43.9225 28 44C28 44.5519 28.4481 45 29 45C29.5519 45 30 44.5519 30 44C30 43.928 29.9924 43.8578 29.9779 43.7901L30.6749 43.6405V47H28C28 46.4481 27.5519 46 27 46C26.4481 46 26 46.4481 26 47H21.3204Z" fill="#212121"/>
<path fill-rule="evenodd" clip-rule="evenodd" d="M49.356 8.94236L52.7931 3.00526L54.524 4.00729L51.0869 9.94439C51.0483 10.0111 51.0964 10.0945 51.1734 10.0945H52.9369C52.9833 10.0945 53.0287 10.0976 53.0732 10.1036C53.1439 10.1132 53.212 10.1301 53.2768 10.1534C53.5042 10.2354 53.6911 10.3972 53.8073 10.6018C53.9223 10.8042 53.9681 11.0486 53.9158 11.2992L53.2079 14.6846C53.1619 14.9045 53.4577 15.0214 53.5745 14.8295L57.1975 8.87964C57.2381 8.813 57.1902 8.72763 57.1121 8.72763H55.2424C55.2321 8.72763 55.2219 8.72748 55.2117 8.72717C55.1282 8.72468 55.0476 8.71206 54.971 8.69059C54.7208 8.62044 54.5129 8.45581 54.384 8.24088C54.2638 8.04045 54.2123 7.79628 54.2594 7.54424L54.8937 4.14417C54.9349 3.92323 54.6366 3.81278 54.524 4.00729L52.7931 3.00526C54.0318 0.865629 57.3131 2.08062 56.8597 4.51095L56.4462 6.72763H57.1121C58.7506 6.72763 59.7579 8.52039 58.9058 9.91982L55.2827 15.8697C53.9973 17.9808 50.7444 16.6946 51.2503 14.2753L51.7062 12.0945H51.1734C49.5553 12.0945 48.5457 10.342 49.356 8.94236Z" fill="#212121"/>
</svg>
