<svg width="64" height="64" viewBox="0 0 64 64" fill="none" xmlns="http://www.w3.org/2000/svg">
<path fill-rule="evenodd" clip-rule="evenodd" d="M42 14H20C18.8954 14 18 14.8954 18 16V51C18 52.1046 18.8954 53 20 53H44C45.1046 53 46 52.1046 46 51V17H44V51H20V16H42V14Z" fill="#0B0D0E"/>
<path fill-rule="evenodd" clip-rule="evenodd" d="M36 11H28V14H36V11ZM28 9C26.8954 9 26 9.89543 26 11V14C26 15.1046 26.8954 16 28 16H36C37.1046 16 38 15.1046 38 14V11C38 9.89543 37.1046 9 36 9H28Z" fill="#0B0D0E"/>
<path fill-rule="evenodd" clip-rule="evenodd" d="M32 5C32.5523 5 33 5.44772 33 6V9C33 9.55228 32.5523 10 32 10C31.4477 10 31 9.55228 31 9V6C31 5.44772 31.4477 5 32 5Z" fill="#0B0D0E"/>
<path fill-rule="evenodd" clip-rule="evenodd" d="M25 22V26H29V22H25ZM24 20C23.4477 20 23 20.4477 23 21V27C23 27.5523 23.4477 28 24 28H30C30.5523 28 31 27.5523 31 27V21C31 20.4477 30.5523 20 30 20H24Z" fill="#0B0D0E"/>
<path fill-rule="evenodd" clip-rule="evenodd" d="M25 32V36H29V32H25ZM24 30C23.4477 30 23 30.4477 23 31V37C23 37.5523 23.4477 38 24 38H30C30.5523 38 31 37.5523 31 37V31C31 30.4477 30.5523 30 30 30H24Z" fill="#0B0D0E"/>
<path fill-rule="evenodd" clip-rule="evenodd" d="M35 22V26H39V22H35ZM34 20C33.4477 20 33 20.4477 33 21V27C33 27.5523 33.4477 28 34 28H40C40.5523 28 41 27.5523 41 27V21C41 20.4477 40.5523 20 40 20H34Z" fill="#0B0D0E"/>
<path fill-rule="evenodd" clip-rule="evenodd" d="M35 32V36H39V32H35ZM34 30C33.4477 30 33 30.4477 33 31V37C33 37.5523 33.4477 38 34 38H40C40.5523 38 41 37.5523 41 37V31C41 30.4477 40.5523 30 40 30H34Z" fill="#0B0D0E"/>
<path fill-rule="evenodd" clip-rule="evenodd" d="M37 44H27V51H37V44ZM27 42C25.8954 42 25 42.8954 25 44V51C25 52.1046 25.8954 53 27 53H37C38.1046 53 39 52.1046 39 51V44C39 42.8954 38.1046 42 37 42H27Z" fill="#0B0D0E"/>
<path fill-rule="evenodd" clip-rule="evenodd" d="M22.7071 55.2929C23.0976 55.6834 23.0976 56.3166 22.7071 56.7071L22.4142 57L41.5858 57L41.2929 56.7071C40.9024 56.3166 40.9024 55.6834 41.2929 55.2929C41.6834 54.9024 42.3166 54.9024 42.7071 55.2929L45.4142 58L42.7071 60.7071C42.3166 61.0976 41.6834 61.0976 41.2929 60.7071C40.9024 60.3166 40.9024 59.6834 41.2929 59.2929L41.5858 59L22.4142 59L22.7071 59.2929C23.0976 59.6834 23.0976 60.3166 22.7071 60.7071C22.3166 61.0976 21.6834 61.0976 21.2929 60.7071L18.5858 58L21.2929 55.2929C21.6834 54.9024 22.3166 54.9024 22.7071 55.2929Z" fill="#0B0D0E"/>
<path fill-rule="evenodd" clip-rule="evenodd" d="M11 5.58579L13.7071 8.2929C14.0976 8.68342 14.0976 9.31658 13.7071 9.70711C13.3166 10.0976 12.6834 10.0976 12.2929 9.70711L12 9.41422V48.5858L12.2929 48.2929C12.6834 47.9024 13.3166 47.9024 13.7071 48.2929C14.0976 48.6834 14.0976 49.3166 13.7071 49.7071L11 52.4142L8.29289 49.7071C7.90237 49.3166 7.90237 48.6834 8.29289 48.2929C8.68342 47.9024 9.31658 47.9024 9.70711 48.2929L10 48.5858V9.41422L9.70711 9.70711C9.31658 10.0976 8.68342 10.0976 8.29289 9.70711C7.90237 9.31658 7.90237 8.68342 8.29289 8.2929L11 5.58579Z" fill="#0B0D0E"/>
<path fill-rule="evenodd" clip-rule="evenodd" d="M54.958 2.42736C56.5356 2.07372 58.3755 1.94653 60.2974 2.02004L61.1916 2.05424L61.2566 2.94676C61.5485 6.96045 60.5294 10.6453 58.2538 12.6461C57.3022 13.4828 56.0782 14.1234 54.6623 14.13C53.2279 14.1366 51.7744 13.4921 50.3852 12.1022C49.0785 10.7949 48.8137 9.21727 49.1086 7.79132C49.3941 6.41122 50.1964 5.16675 51.0517 4.31152C51.9936 3.36963 53.4009 2.77639 54.958 2.42736ZM55.3954 4.37893C54.0071 4.69015 53.0239 5.1677 52.4658 5.72574C51.8211 6.37044 51.2567 7.28022 51.0672 8.19643C50.8871 9.06679 51.0392 9.92747 51.7997 10.6883C52.9094 11.7985 53.8765 12.1336 54.653 12.13C55.4479 12.1263 56.225 11.7668 56.9332 11.1441C58.4108 9.84493 59.3626 7.27158 59.3033 4.00003C57.8591 3.9976 56.5271 4.12525 55.3954 4.37893Z" fill="#0B0D0E"/>
<path fill-rule="evenodd" clip-rule="evenodd" d="M42.4968 11.7284C42.2087 10.7693 42.0523 9.65121 42.0138 8.48726L41.9843 7.59288L42.8699 7.46455C45.2919 7.1136 47.6652 7.55602 49.0716 8.94254C49.6531 9.51579 50.1469 10.2987 50.2201 11.2612C50.2947 12.242 49.9193 13.2313 49.104 14.1716C48.2836 15.1178 47.2186 15.3741 46.2491 15.2447C45.3259 15.1215 44.4854 14.6565 43.8981 14.1476C43.2183 13.5584 42.7788 12.6673 42.4968 11.7284ZM44.4122 11.1531C44.6445 11.9264 44.9384 12.4025 45.2081 12.6362C45.5703 12.9502 46.0601 13.2018 46.5136 13.2623C46.9208 13.3167 47.2787 13.2238 47.593 12.8614C48.1492 12.2199 48.2505 11.7378 48.2258 11.4129C48.1997 11.0697 48.0182 10.7126 47.6675 10.3668C47.0073 9.71586 45.7373 9.28372 44.0743 9.35641C44.1416 10.0251 44.2561 10.6334 44.4122 11.1531Z" fill="#0B0D0E"/>
<path fill-rule="evenodd" clip-rule="evenodd" d="M55.7992 7.4C56.1306 7.84183 56.041 8.46863 55.5992 8.8C53.8608 10.1038 52.8143 12.3476 52.2086 14.4072C51.9114 15.4176 51.7323 16.3418 51.6279 17.0131C51.5758 17.3479 51.5426 17.6179 51.5226 17.8016C51.5126 17.8935 51.5059 17.9636 51.5018 18.0095L51.4976 18.0597L51.4967 18.0704L51.4966 18.0717C51.4966 18.0717 51.4966 18.0716 51.494 18.0714L49.5217 18.1959C49.5187 18.1966 49.5187 18.1966 49.5187 18.1966L49.5175 18.1911L49.5105 18.1586C49.5038 18.1281 49.493 18.0804 49.4777 18.0174C49.447 17.8913 49.3986 17.7044 49.3296 17.4721C49.1912 17.006 48.9724 16.3644 48.6526 15.6667C48.0016 14.2462 46.9888 12.7172 45.5031 11.8682C45.0235 11.5942 44.8569 10.9834 45.1309 10.5039C45.405 10.0243 46.0158 9.85775 46.4953 10.1318C48.2612 11.1408 49.4299 12.7802 50.179 14.2335C50.2142 14.1049 50.2511 13.9746 50.2898 13.8428C50.9341 11.6524 52.1376 8.8962 54.3992 7.2C54.841 6.86863 55.4678 6.95817 55.7992 7.4Z" fill="#0B0D0E"/>
</svg>
