<svg width="64" height="64" viewBox="0 0 64 64" fill="none" xmlns="http://www.w3.org/2000/svg">
<path fill-rule="evenodd" clip-rule="evenodd" d="M23.0869 10H14.9131L13.0909 51H24.9091L23.0869 10ZM14.9131 8C13.8431 8 12.9626 8.84222 12.9151 9.9112L11.0928 50.9112C11.0422 52.0495 11.9514 53 13.0909 53H24.9091C26.0486 53 26.9578 52.0495 26.9072 50.9112L25.0849 9.9112C25.0374 8.84222 24.157 8 23.0869 8H14.9131Z" fill="#0B0D0E"/>
<path fill-rule="evenodd" clip-rule="evenodd" d="M23.6992 23L24.9992 53H53.4544C54.5763 53 55.4787 52.0773 55.4539 50.9556L55.0342 32.0413C55.014 31.1331 54.3842 30.3525 53.5007 30.1408L23.6992 23ZM25.8122 25.5629L26.9144 51H53.4544L53.0347 32.0857L25.8122 25.5629Z" fill="#0B0D0E"/>
<path fill-rule="evenodd" clip-rule="evenodd" d="M33 36.5996V40.5996H37V36.5996H33ZM32 34.5996C31.4477 34.5996 31 35.0473 31 35.5996V41.5996C31 42.1519 31.4477 42.5996 32 42.5996H38C38.5523 42.5996 39 42.1519 39 41.5996V35.5996C39 35.0473 38.5523 34.5996 38 34.5996H32Z" fill="#0B0D0E"/>
<path fill-rule="evenodd" clip-rule="evenodd" d="M43 36.5996V40.5996H47V36.5996H43ZM42 34.5996C41.4477 34.5996 41 35.0473 41 35.5996V41.5996C41 42.1519 41.4477 42.5996 42 42.5996H48C48.5523 42.5996 49 42.1519 49 41.5996V35.5996C49 35.0473 48.5523 34.5996 48 34.5996H42Z" fill="#0B0D0E"/>
<path fill-rule="evenodd" clip-rule="evenodd" d="M14.7071 55.2929C15.0976 55.6834 15.0976 56.3166 14.7071 56.7071L14.4142 57L50.5858 57L50.2929 56.7071C49.9024 56.3166 49.9024 55.6834 50.2929 55.2929C50.6834 54.9024 51.3166 54.9024 51.7071 55.2929L54.4142 58L51.7071 60.7071C51.3166 61.0976 50.6834 61.0976 50.2929 60.7071C49.9024 60.3166 49.9024 59.6834 50.2929 59.2929L50.5858 59L14.4142 59L14.7071 59.2929C15.0976 59.6834 15.0976 60.3166 14.7071 60.7071C14.3166 61.0976 13.6834 61.0976 13.2929 60.7071L10.5858 58L13.2929 55.2929C13.6834 54.9024 14.3166 54.9024 14.7071 55.2929Z" fill="#0B0D0E"/>
<path fill-rule="evenodd" clip-rule="evenodd" d="M7 8.58579L9.70711 11.2929C10.0976 11.6834 10.0976 12.3166 9.70711 12.7071C9.31658 13.0976 8.68342 13.0976 8.29289 12.7071L8 12.4142V48.5858L8.29289 48.2929C8.68342 47.9024 9.31658 47.9024 9.70711 48.2929C10.0976 48.6834 10.0976 49.3166 9.70711 49.7071L7 52.4142L4.29289 49.7071C3.90237 49.3166 3.90237 48.6834 4.29289 48.2929C4.68342 47.9024 5.31658 47.9024 5.70711 48.2929L6 48.5858V12.4142L5.70711 12.7071C5.31658 13.0976 4.68342 13.0976 4.29289 12.7071C3.90237 12.3166 3.90237 11.6834 4.29289 11.2929L7 8.58579Z" fill="#0B0D0E"/>
<path fill-rule="evenodd" clip-rule="evenodd" d="M54.958 2.42736C56.5356 2.07372 58.3755 1.94653 60.2974 2.02004L61.1916 2.05424L61.2566 2.94676C61.5485 6.96045 60.5294 10.6453 58.2538 12.6461C57.3022 13.4828 56.0782 14.1234 54.6623 14.13C53.2279 14.1366 51.7744 13.4921 50.3852 12.1022C49.0785 10.7949 48.8137 9.21727 49.1086 7.79132C49.3941 6.41122 50.1964 5.16675 51.0517 4.31152C51.9936 3.36963 53.4009 2.77639 54.958 2.42736ZM55.3954 4.37893C54.0071 4.69015 53.0239 5.1677 52.4658 5.72574C51.8211 6.37044 51.2567 7.28022 51.0672 8.19643C50.8871 9.06679 51.0392 9.92747 51.7997 10.6883C52.9094 11.7985 53.8765 12.1336 54.653 12.13C55.4479 12.1263 56.225 11.7668 56.9332 11.1441C58.4108 9.84493 59.3626 7.27158 59.3033 4.00003C57.8591 3.9976 56.5271 4.12525 55.3954 4.37893Z" fill="#0B0D0E"/>
<path fill-rule="evenodd" clip-rule="evenodd" d="M42.4968 11.7284C42.2087 10.7693 42.0523 9.65121 42.0138 8.48726L41.9843 7.59288L42.8699 7.46455C45.2919 7.1136 47.6652 7.55602 49.0716 8.94254C49.6531 9.51579 50.1469 10.2987 50.2201 11.2612C50.2947 12.242 49.9193 13.2313 49.104 14.1716C48.2836 15.1178 47.2186 15.3741 46.2491 15.2447C45.3259 15.1215 44.4854 14.6565 43.8981 14.1476C43.2183 13.5584 42.7788 12.6673 42.4968 11.7284ZM44.4122 11.1531C44.6445 11.9264 44.9384 12.4025 45.2081 12.6362C45.5703 12.9502 46.0601 13.2018 46.5136 13.2623C46.9208 13.3167 47.2787 13.2238 47.593 12.8614C48.1492 12.2199 48.2505 11.7378 48.2258 11.4129C48.1997 11.0697 48.0182 10.7126 47.6675 10.3668C47.0073 9.71586 45.7373 9.28372 44.0743 9.35641C44.1416 10.0251 44.2561 10.6334 44.4122 11.1531Z" fill="#0B0D0E"/>
<path fill-rule="evenodd" clip-rule="evenodd" d="M55.7992 7.4C56.1306 7.84183 56.041 8.46863 55.5992 8.8C53.8608 10.1038 52.8143 12.3476 52.2086 14.4072C51.9114 15.4176 51.7323 16.3418 51.6279 17.0131C51.5758 17.3479 51.5426 17.6179 51.5226 17.8016C51.5126 17.8935 51.5059 17.9636 51.5018 18.0095L51.4976 18.0597L51.4967 18.0704L51.4966 18.0717C51.4966 18.0717 51.4966 18.0716 51.494 18.0714L49.5217 18.1959C49.5187 18.1966 49.5187 18.1966 49.5187 18.1966L49.5175 18.1911L49.5105 18.1586C49.5038 18.1281 49.493 18.0804 49.4777 18.0174C49.447 17.8913 49.3986 17.7044 49.3296 17.4721C49.1912 17.006 48.9724 16.3644 48.6526 15.6667C48.0016 14.2462 46.9888 12.7172 45.5031 11.8682C45.0235 11.5942 44.8569 10.9834 45.1309 10.5039C45.405 10.0243 46.0158 9.85775 46.4953 10.1318C48.2612 11.1408 49.4299 12.7802 50.179 14.2335C50.2142 14.1049 50.2511 13.9746 50.2898 13.8428C50.9341 11.6524 52.1376 8.8962 54.3992 7.2C54.841 6.86863 55.4678 6.95817 55.7992 7.4Z" fill="#0B0D0E"/>
</svg>
