<svg width="65" height="65" viewBox="0 0 65 65" fill="none" xmlns="http://www.w3.org/2000/svg">
<path fill-rule="evenodd" clip-rule="evenodd" d="M27.1034 20.5578C25.9556 20.6132 24.9403 21.3194 24.4891 22.3763L16.1107 41.9995L25.1112 41.9995L30.1015 28.8073C30.217 28.502 30.4742 28.2723 30.7906 28.1919L38.8326 26.1488C39.3679 26.0128 39.6916 25.4686 39.5556 24.9333C39.4196 24.398 38.8754 24.0744 38.3402 24.2103L30.2981 26.2535C29.349 26.4946 28.5773 27.1838 28.2309 28.0997L23.7294 39.9995L19.1393 39.9995L26.3284 23.1616C26.4789 22.8093 26.8173 22.5739 27.1999 22.5554L38.6346 22.0032C39.1863 21.9765 39.6119 21.5078 39.5852 20.9561C39.5586 20.4045 39.0898 19.9789 38.5382 20.0055L27.1034 20.5578Z" fill="black"/>
<path fill-rule="evenodd" clip-rule="evenodd" d="M9.24341 45.6023C9.24341 42.5581 11.7112 40.0903 14.7554 40.0903H30.3654C30.7899 40.0903 31.1682 40.3583 31.3089 40.7589L34.2445 49.1143H43.72C44.2723 49.1143 44.72 49.562 44.72 50.1143C44.72 50.6666 44.2723 51.1143 43.72 51.1143H14.7554C11.7112 51.1143 9.24341 48.6465 9.24341 45.6023ZM32.1246 49.1143L29.6568 42.0903H14.7554C12.8158 42.0903 11.2434 43.6627 11.2434 45.6023C11.2434 47.5419 12.8158 49.1143 14.7554 49.1143H32.1246Z" fill="black"/>
<path fill-rule="evenodd" clip-rule="evenodd" d="M50.1855 15.2446L50.1855 39.5767L39.6383 39.5767L39.6383 21.1572L44.8069 15.2446L50.1855 15.2446ZM52.1855 14.2446C52.1855 13.9794 52.0802 13.7251 51.8926 13.5375C51.7051 13.35 51.4508 13.2446 51.1855 13.2446L44.8069 13.2446C44.2298 13.2446 43.6809 13.4939 43.3011 13.9283L37.8854 20.1236C37.7261 20.3058 37.6383 20.5397 37.6383 20.7817L37.6383 39.5767C37.6383 40.6812 38.5337 41.5767 39.6383 41.5767L50.1855 41.5767C51.2901 41.5767 52.1855 40.6812 52.1855 39.5767L52.1855 14.2446Z" fill="black"/>
<path fill-rule="evenodd" clip-rule="evenodd" d="M43.0352 33.772C43.0352 34.8086 43.8755 35.6489 44.9121 35.6489C45.9487 35.6489 46.7891 34.8086 46.7891 33.772C46.7891 32.7354 45.9487 31.895 44.9121 31.895C43.8755 31.895 43.0352 32.7354 43.0352 33.772ZM44.9121 37.6489C42.7709 37.6489 41.0352 35.9132 41.0352 33.772C41.0352 31.6308 42.7709 29.895 44.9121 29.895C47.0533 29.895 48.7891 31.6308 48.7891 33.772C48.7891 35.9132 47.0533 37.6489 44.9121 37.6489Z" fill="black"/>
<path fill-rule="evenodd" clip-rule="evenodd" d="M26.9472 32.9707C27.092 32.4377 27.6415 32.1231 28.1745 32.2679L38.567 35.0921C39.1 35.2369 39.4146 35.7864 39.2698 36.3193C39.125 36.8523 38.5755 37.1669 38.0426 37.0221L27.65 34.1979C27.117 34.0531 26.8024 33.5036 26.9472 32.9707ZM28.5337 29.1791C28.6776 28.6459 29.2265 28.3304 29.7597 28.4743L38.5922 30.8589C39.1254 31.0028 39.4409 31.5518 39.2969 32.085C39.153 32.6181 38.6041 32.9337 38.0709 32.7897L29.2385 30.4052C28.7053 30.2613 28.3897 29.7123 28.5337 29.1791Z" fill="black"/>
</svg>
