<svg width="64" height="64" viewBox="0 0 64 64" fill="none" xmlns="http://www.w3.org/2000/svg">
<path fill-rule="evenodd" clip-rule="evenodd" d="M39.2254 11.4627C40.2923 11.1768 41.389 11.81 41.6749 12.8769L44.7381 24.309C45.024 25.376 44.3909 26.4726 43.3239 26.7585L41.1346 27.3451C40.0677 27.631 38.971 26.9979 38.6851 25.9309L38.3471 24.6692L33.8607 25.8713C32.9023 26.1281 31.9166 25.6205 31.5341 24.7192C31.519 24.7236 31.5039 24.7279 31.4886 24.732L15.1633 29.1063C14.1062 29.3896 13.0176 28.7543 12.7317 27.6873L12.2676 25.9552C11.9817 24.8882 12.6068 23.7937 13.6638 23.5105L29.9892 19.1361C30.0045 19.132 30.0197 19.1281 30.035 19.1244C29.9156 18.1526 30.5154 17.2201 31.4738 16.9634L35.9602 15.7612L35.6219 14.4988C35.336 13.4319 35.9692 12.3352 37.0361 12.0493L39.2254 11.4627ZM37.8294 22.7374L36.4778 17.6931L31.9914 18.8952L33.3431 23.9395L37.8294 22.7374ZM42.8063 24.8267L39.7431 13.3945L37.5538 13.9812L40.617 25.4133L42.8063 24.8267ZM14.1815 25.4423L30.5069 21.068L30.971 22.8001L14.6456 27.1745L14.1815 25.4423Z" fill="black"/>
<path fill-rule="evenodd" clip-rule="evenodd" d="M18.0779 39.9469C18.694 37.6476 21.0573 36.2831 23.3566 36.8992C25.6559 37.5152 27.0204 39.8786 26.4043 42.1779C25.7882 44.4772 23.4249 45.8417 21.1256 45.2256C18.8263 44.6095 17.4618 42.2461 18.0779 39.9469ZM22.839 38.831C21.6066 38.5008 20.3399 39.2321 20.0097 40.4645C19.6795 41.6968 20.4108 42.9636 21.6432 43.2938C22.8756 43.624 24.1423 42.8926 24.4725 41.6603C24.8027 40.4279 24.0714 39.1612 22.839 38.831Z" fill="black"/>
<path fill-rule="evenodd" clip-rule="evenodd" d="M23.9367 30.8685C24.6269 30.6836 25.3633 30.8809 25.8686 31.3861L31.9168 37.4343C32.422 37.9396 32.6194 38.676 32.4344 39.3662L30.2206 47.6282C30.0357 48.3184 29.4966 48.8575 28.8064 49.0424L20.5444 51.2562C19.8542 51.4411 19.1178 51.2438 18.6126 50.7386L12.5643 44.6904C12.0591 44.1851 11.8618 43.4487 12.0467 42.7585L14.2605 34.4965C14.4454 33.8063 14.9845 33.2672 15.6747 33.0823L23.9367 30.8685ZM30.5026 38.8486L24.4544 32.8003L16.1924 35.0141L13.9786 43.2761L20.0268 49.3244L28.2888 47.1106L30.5026 38.8486Z" fill="black"/>
<path fill-rule="evenodd" clip-rule="evenodd" d="M45.6453 34.5113C45.3139 33.9373 44.58 33.7407 44.0061 34.072L39.3615 36.7536C38.7876 37.0849 38.5909 37.8188 38.9223 38.3928L41.6038 43.0373C41.9352 43.6113 42.6691 43.8079 43.243 43.4766L47.8876 40.795C48.4615 40.4637 48.6582 39.7298 48.3268 39.1558L45.6453 34.5113ZM41.0543 38.0856L44.3132 36.2041L46.1947 39.463L42.9359 41.3445L41.0543 38.0856Z" fill="black"/>
<path fill-rule="evenodd" clip-rule="evenodd" d="M50.7097 31.6881C46.7965 27.7749 40.4519 27.7749 36.5386 31.6881C32.6254 35.6013 32.6254 41.9459 36.5386 45.8592C40.4519 49.7724 46.7965 49.7724 50.7097 45.8592C54.6229 41.9459 54.6229 35.6013 50.7097 31.6881ZM37.9528 33.1023C41.085 29.9701 46.1633 29.9701 49.2955 33.1023C52.4277 36.2345 52.4277 41.3128 49.2955 44.4449C46.1633 47.5771 41.085 47.5771 37.9528 44.4449C34.8207 41.3128 34.8207 36.2345 37.9528 33.1023Z" fill="black"/>
</svg>
