<svg width="64" height="64" viewBox="0 0 64 64" fill="none" xmlns="http://www.w3.org/2000/svg">
<path fill-rule="evenodd" clip-rule="evenodd" d="M43.1745 38.0827C44.9981 38.0827 46.4763 36.6044 46.4763 34.7808C46.4763 32.9573 44.9981 31.479 43.1745 31.479C41.351 31.479 39.8727 32.9573 39.8727 34.7808C39.8727 36.6044 41.351 38.0827 43.1745 38.0827ZM44.4763 34.7808C44.4763 35.4998 43.8935 36.0827 43.1745 36.0827C42.4555 36.0827 41.8727 35.4998 41.8727 34.7808C41.8727 34.0619 42.4555 33.479 43.1745 33.479C43.8935 33.479 44.4763 34.0619 44.4763 34.7808Z" fill="black"/>
<path fill-rule="evenodd" clip-rule="evenodd" d="M25.1131 34.7808C25.1131 36.6044 23.6348 38.0827 21.8112 38.0827C19.9877 38.0827 18.5094 36.6044 18.5094 34.7808C18.5094 32.9573 19.9877 31.479 21.8112 31.479C23.6348 31.479 25.1131 32.9573 25.1131 34.7808ZM21.8112 36.0827C22.5302 36.0827 23.1131 35.4998 23.1131 34.7808C23.1131 34.0619 22.5302 33.479 21.8112 33.479C21.0922 33.479 20.5094 34.0619 20.5094 34.7808C20.5094 35.4998 21.0922 36.0827 21.8112 36.0827Z" fill="black"/>
<path d="M27.6304 33.7808C27.0781 33.7808 26.6304 34.2285 26.6304 34.7808C26.6304 35.333 27.0781 35.7808 27.6304 35.7808H37.2658C37.8181 35.7808 38.2658 35.333 38.2658 34.7808C38.2658 34.2285 37.8181 33.7808 37.2658 33.7808H27.6304Z" fill="black"/>
<path fill-rule="evenodd" clip-rule="evenodd" d="M16.9532 26.7515L16.4015 28.3671C14.4956 29.5183 13.2926 31.6959 13.5264 34.091L13.9115 38.037C14.0248 39.198 14.5292 40.2341 15.2866 41.0199V44.1219C15.2866 45.7787 16.6298 47.1219 18.2866 47.1219H20.6516C22.3085 47.1219 23.6516 45.7787 23.6516 44.1219V42.5513L41.2456 42.5513V44.1219C41.2456 45.7787 42.5888 47.1219 44.2456 47.1219H46.6106C48.2675 47.1219 49.6106 45.7787 49.6106 44.1219V41.1142C50.4197 40.3178 50.9611 39.245 51.079 38.037L51.4641 34.0911C51.698 31.6943 50.4932 29.5153 48.585 28.3648L48.0341 26.7515H50.6757C51.228 26.7515 51.6757 26.3038 51.6757 25.7515C51.6757 25.1992 51.228 24.7515 50.6757 24.7515H47.3512L45.4394 19.1526C45.0247 17.9382 43.8836 17.1221 42.6004 17.1221H22.387C21.1038 17.1221 19.9626 17.9382 19.5479 19.1526L17.6362 24.7515H14.2144C13.6621 24.7515 13.2144 25.1992 13.2144 25.7515C13.2144 26.3038 13.6621 26.7515 14.2144 26.7515H16.9532ZM46.1909 27.5427H46.141C45.9282 27.5199 45.7118 27.5082 45.4925 27.5082L19.498 27.5082C19.2786 27.5082 19.0623 27.5199 18.8494 27.5427H18.7964L21.4406 19.7989C21.5789 19.3941 21.9593 19.1221 22.387 19.1221H42.6004C43.0281 19.1221 43.4085 19.3941 43.5467 19.7989L46.1909 27.5427ZM15.5169 33.8968C15.3048 31.7238 16.8666 29.8194 18.9692 29.5427H46.0212C48.1239 29.8194 49.6857 31.7238 49.4736 33.8968L49.0884 37.8427C48.9384 39.3794 47.6466 40.5513 46.1026 40.5513L18.8878 40.5513C17.3439 40.5513 16.052 39.3794 15.902 37.8427L15.5169 33.8968ZM17.2866 44.1219C17.2866 44.2814 17.324 44.4321 17.3904 44.5659C17.5539 44.8954 17.8938 45.1219 18.2866 45.1219H20.6516C21.0444 45.1219 21.3843 44.8954 21.5479 44.5659C21.6143 44.4321 21.6516 44.2814 21.6516 44.1219V42.5659H17.2866V44.1219ZM43.3494 44.5659C43.2829 44.4321 43.2456 44.2814 43.2456 44.1219V42.5659H47.6106V44.1219C47.6106 44.2814 47.5733 44.4321 47.5068 44.5659C47.3433 44.8954 47.0034 45.1219 46.6106 45.1219H44.2456C43.8528 45.1219 43.5129 44.8954 43.3494 44.5659Z" fill="black"/>
</svg>
