<svg width="64" height="64" viewBox="0 0 64 64" fill="none" xmlns="http://www.w3.org/2000/svg">
<path d="M51.8996 7.01593C51.8596 7.02593 51.8296 7.02593 51.7996 7.02593C51.2896 7.02593 50.8496 6.64593 50.7896 6.13593L50.5896 4.20593C50.5296 3.65593 50.9296 3.16593 51.4796 3.10593C52.0396 3.04593 52.5296 3.44593 52.5796 3.99593L52.7896 5.91593C52.8496 6.46593 52.4496 6.95593 51.8996 7.01593Z" fill="#0B0D0E"/>
<path fill-rule="evenodd" clip-rule="evenodd" d="M27.7653 14.3459C27.7653 13.2413 28.6608 12.3459 29.7653 12.3459H49.59C50.6945 12.3459 51.59 13.2413 51.59 14.3459V55.828C51.59 56.9326 50.6946 57.828 49.59 57.828H8.27441C7.16984 57.828 6.27441 56.9326 6.27441 55.828V36.0868C6.27441 34.9822 7.16985 34.0868 8.27442 34.0868H27.7653V14.3459ZM48.3766 14.3459H41.1722L29.7653 25.7526V32.9574L48.3766 14.3459ZM49.59 15.9609L9.72353 55.828H16.9294L49.59 23.1674V15.9609ZM26.9634 55.828H19.7578L49.59 25.9958V33.2014L26.9634 55.828ZM29.7918 55.828H36.9974L49.59 43.2351V36.0298L29.7918 55.828ZM49.59 55.828H39.8258L49.59 46.0636V55.828ZM8.27441 54.4487L26.636 36.0868H19.4313L8.27441 47.2436V54.4487ZM29.7653 14.3459H38.3437L29.7653 22.9242V14.3459ZM8.27441 36.0868H16.6028L8.27441 44.4152V36.0868Z" fill="#0B0D0E"/>
<path d="M48.2097 7.61643C48.4097 7.88643 48.7097 8.02643 49.0197 8.02643C49.2197 8.02643 49.4197 7.96643 49.5997 7.83643C50.0497 7.51643 50.1497 6.88643 49.8197 6.44643L48.6797 4.87643C48.3597 4.42643 47.7297 4.32643 47.2797 4.65643C46.8297 4.97643 46.7297 5.60643 47.0597 6.05643L48.2097 7.61643Z" fill="#0B0D0E"/>
<path d="M54.94 15.5759C55.39 15.2459 56.01 15.3459 56.34 15.7959L57.47 17.3759C57.8 17.8159 57.7 18.4459 57.25 18.7659C57.07 18.8959 56.87 18.9559 56.67 18.9559C56.36 18.9559 56.06 18.8159 55.86 18.5459L54.72 16.9759C54.39 16.5259 54.49 15.8959 54.94 15.5759Z" fill="#0B0D0E"/>
<path d="M59.5998 14.0165L57.8298 13.2265C57.3398 13.0065 56.7398 13.2265 56.5098 13.7265C56.2898 14.2265 56.5098 14.8165 57.0098 15.0465L58.7798 15.8365C58.9098 15.8965 59.0498 15.9265 59.1898 15.9265C59.5698 15.9265 59.9298 15.7065 60.0998 15.3365C60.3298 14.8265 60.1098 14.2365 59.5998 14.0165Z" fill="#0B0D0E"/>
<path d="M57.8502 10.2357L59.7802 10.0357C60.3702 9.97565 60.8202 10.3757 60.8802 10.9257C60.9402 11.4757 60.5402 11.9657 59.9902 12.0257L58.0602 12.2257C58.0202 12.2357 57.9902 12.2357 57.9602 12.2357C57.4502 12.2357 57.0202 11.8557 56.9602 11.3357C56.9002 10.7857 57.3002 10.2957 57.8502 10.2357Z" fill="#0B0D0E"/>
<path d="M56.1401 9.03611C56.3401 9.30611 56.6401 9.44611 56.9501 9.44611C57.1501 9.44611 57.3501 9.38611 57.5301 9.25611L59.1001 8.11611C59.5501 7.79611 59.6501 7.16611 59.3201 6.71611C59.0001 6.27611 58.3801 6.17611 57.9301 6.50611L56.3601 7.64611C55.9201 7.96611 55.8201 8.58611 56.1401 9.03611Z" fill="#0B0D0E"/>
<path d="M56.3992 5.18646L55.6092 6.95646C55.4392 7.32646 55.0792 7.54646 54.6892 7.54646C54.5492 7.54646 54.4192 7.51646 54.2792 7.45646C53.7792 7.22646 53.5592 6.63646 53.7792 6.13646L54.5792 4.36646C54.8092 3.86646 55.3992 3.63646 55.8992 3.86646C56.3992 4.09646 56.6192 4.68646 56.3992 5.18646Z" fill="#0B0D0E"/>
</svg>
