<svg width="64" height="64" viewBox="0 0 64 64" fill="none" xmlns="http://www.w3.org/2000/svg">
<path fill-rule="evenodd" clip-rule="evenodd" d="M51.9682 7.36371C51.9282 7.37371 51.8982 7.37371 51.8682 7.37371C51.3582 7.37371 50.9182 6.99371 50.8582 6.48371L50.6582 4.55371C50.5982 4.00371 50.9982 3.51371 51.5482 3.45371C52.1082 3.39371 52.5982 3.79371 52.6482 4.34371L52.8582 6.26371C52.9182 6.81371 52.5182 7.30371 51.9682 7.36371ZM52.0759 54.9827C52.0759 56.0851 51.1839 56.9796 50.0816 56.9827L29.3378 57.0424L29.3292 57.0424L18.4644 56.9799H18.4615H8.59375C7.48918 56.9799 6.59375 56.0844 6.59375 54.9799V26.5124C6.59375 25.9892 6.79871 25.4869 7.1647 25.1131L19.7446 12.2651C20.1208 11.8808 20.6359 11.6643 21.1737 11.6643H35.9146H50.0759C51.1804 11.6643 52.0759 12.5597 52.0759 13.6643V54.9827ZM50.0759 22.082V14.877L9.97304 54.9799L17.1781 54.9798L50.0759 22.082ZM8.59375 53.5307L48.4601 13.6643H41.2541L8.59375 46.3247L8.59375 53.5307ZM8.59375 33.4624V26.5124L21.1737 13.6643H28.3919L8.59375 33.4624ZM8.59375 36.2909L31.2203 13.6643H35.9146H38.4257L8.59375 43.4962V36.2909ZM50.0759 24.9104L19.9977 54.9887L28.0085 55.0348L50.0759 32.9675V24.9104ZM50.0759 54.9827L41.154 55.0084L50.0759 46.0865V54.9827ZM50.0759 43.258L38.3174 55.0165L30.8337 55.0381L50.0759 35.7959V43.258ZM48.2782 7.96421C48.4782 8.23421 48.7782 8.37421 49.0882 8.37421C49.2882 8.37421 49.4882 8.31421 49.6682 8.18421C50.1182 7.86421 50.2182 7.23421 49.8882 6.79421L48.7482 5.22421C48.4282 4.77421 47.7982 4.67421 47.3482 5.00421C46.8982 5.32421 46.7982 5.95421 47.1282 6.40421L48.2782 7.96421ZM55.0086 15.9237C55.4586 15.5937 56.0786 15.6937 56.4086 16.1437L57.5386 17.7237C57.8686 18.1637 57.7686 18.7937 57.3186 19.1137C57.1386 19.2437 56.9386 19.3037 56.7386 19.3037C56.4286 19.3037 56.1286 19.1637 55.9286 18.8937L54.7886 17.3237C54.4586 16.8737 54.5586 16.2437 55.0086 15.9237ZM59.6684 14.3643L57.8984 13.5743C57.4084 13.3543 56.8084 13.5743 56.5784 14.0743C56.3584 14.5743 56.5784 15.1643 57.0784 15.3943L58.8484 16.1843C58.9784 16.2443 59.1184 16.2743 59.2584 16.2743C59.6384 16.2743 59.9984 16.0543 60.1684 15.6843C60.3984 15.1743 60.1784 14.5843 59.6684 14.3643ZM57.9187 10.5834L59.8487 10.3834C60.4387 10.3234 60.8887 10.7234 60.9487 11.2734C61.0087 11.8234 60.6087 12.3134 60.0587 12.3734L58.1287 12.5734C58.0887 12.5834 58.0587 12.5834 58.0287 12.5834C57.5187 12.5834 57.0887 12.2034 57.0287 11.6834C56.9687 11.1334 57.3687 10.6434 57.9187 10.5834ZM56.2087 9.38389C56.4087 9.65389 56.7087 9.79389 57.0187 9.79389C57.2187 9.79389 57.4187 9.73389 57.5987 9.60389L59.1687 8.46389C59.6187 8.14389 59.7187 7.51389 59.3887 7.06389C59.0687 6.62389 58.4487 6.52389 57.9987 6.85389L56.4287 7.99389C55.9887 8.31389 55.8887 8.93389 56.2087 9.38389ZM56.4677 5.53424L55.6777 7.30424C55.5077 7.67424 55.1477 7.89424 54.7577 7.89424C54.6177 7.89424 54.4877 7.86424 54.3477 7.80424C53.8477 7.57424 53.6277 6.98424 53.8477 6.48424L54.6477 4.71424C54.8777 4.21424 55.4677 3.98424 55.9677 4.21424C56.4677 4.44424 56.6877 5.03424 56.4677 5.53424Z" fill="#0B0D0E"/>
</svg>
