<svg width="64" height="64" viewBox="0 0 64 64" fill="none" xmlns="http://www.w3.org/2000/svg">
<path d="M50.9975 9.43567C50.4452 9.43567 49.9975 9.88338 49.9975 10.4357C49.9975 10.988 50.4452 11.4357 50.9975 11.4357H55.9975C56.5498 11.4357 56.9975 10.988 56.9975 10.4357C56.9975 9.88338 56.5498 9.43567 55.9975 9.43567H50.9975Z" fill="#0B0D0E"/>
<path fill-rule="evenodd" clip-rule="evenodd" d="M53.4975 17.9357C57.6396 17.9357 60.9975 14.5778 60.9975 10.4357C60.9975 6.29353 57.6396 2.93567 53.4975 2.93567C49.3554 2.93567 45.9975 6.29353 45.9975 10.4357C45.9975 14.5778 49.3554 17.9357 53.4975 17.9357ZM53.4975 15.9357C56.5351 15.9357 58.9975 13.4732 58.9975 10.4357C58.9975 7.3981 56.5351 4.93567 53.4975 4.93567C50.4599 4.93567 47.9975 7.3981 47.9975 10.4357C47.9975 13.4732 50.4599 15.9357 53.4975 15.9357Z" fill="#0B0D0E"/>
<path d="M31.3901 14.9579C20.165 14.9579 11.0652 24.0576 11.0652 35.2827C11.0652 46.5078 20.165 55.6075 31.3901 55.6075L31.4114 55.6078C41.7579 55.5968 50.2947 47.8543 51.5542 37.8473L46.8643 41.9388C46.4704 42.2824 45.8726 42.2416 45.5289 41.8478C45.1853 41.4539 45.2261 40.856 45.6199 40.5124L52.0385 34.9128C52.4324 34.5692 53.0303 34.6099 53.3739 35.0038L58.9983 41.4224C59.342 41.8163 59.3012 42.4142 58.9073 42.7578C58.5135 43.1014 57.9156 43.0607 57.572 42.6668L53.4466 37.9665C52.1212 48.972 42.7518 57.5006 31.3894 57.5006C19.1192 57.5003 9.17236 47.553 9.17236 35.2827C9.17236 23.0122 19.1196 13.065 31.3901 13.065C41.8083 13.065 50.5496 20.2348 52.9531 29.9082C53.0791 30.4154 52.7701 30.9288 52.2628 31.0549C51.7555 31.1809 51.2421 30.8719 51.1161 30.3646C48.9173 21.5152 40.9183 14.9579 31.3901 14.9579Z" fill="#0B0D0E"/>
<path fill-rule="evenodd" clip-rule="evenodd" d="M24.829 27.9781C25.0858 28.9366 25.0252 29.9053 24.7117 30.7728L26.936 32.06C27.5441 31.1754 28.4584 30.4947 29.5766 30.1951C31.6087 29.6506 33.6869 30.5328 34.7479 32.2277L37.167 31.6916C36.8484 29.3905 38.2862 27.1587 40.5881 26.5419C43.0813 25.8738 45.6441 27.3534 46.3121 29.8466C46.9802 32.3399 45.5006 34.9026 43.0074 35.5706C40.9947 36.1099 38.9368 35.2497 37.8668 33.5865L35.424 34.1278C35.7131 36.4098 34.2798 38.6118 31.9958 39.2238C31.3057 39.4087 30.6103 39.4291 29.9513 39.309C29.7405 39.6301 29.5057 39.9811 29.277 40.3232L29.2557 40.355C28.8997 40.8873 28.5594 41.3966 28.3119 41.7836C28.8633 42.3413 29.2817 43.0456 29.4992 43.8574C30.1673 46.3506 28.6877 48.9133 26.1945 49.5814C23.7013 50.2494 21.1385 48.7698 20.4705 46.2766C19.8024 43.7834 21.282 41.2207 23.7752 40.5527C24.7572 40.2895 25.75 40.3596 26.6335 40.6935C26.8983 40.2796 27.2408 39.7676 27.5707 39.2743L27.592 39.2423C27.7594 38.992 27.9234 38.7468 28.0758 38.5171C27.2209 37.9092 26.5645 37.0114 26.2718 35.9191C26.0924 35.2493 26.0679 34.5745 26.1764 33.9328L23.6448 32.4678C23.0799 33.0424 22.3589 33.4784 21.5242 33.7021C19.031 34.3701 16.4683 32.8905 15.8002 30.3973C15.1322 27.9041 16.6118 25.3414 19.105 24.6733C21.5982 24.0053 24.1609 25.4849 24.829 27.9781ZM22.8957 28.4961C23.2777 29.9216 22.4317 31.3869 21.0062 31.7688C19.5807 32.1508 18.1155 31.3048 17.7335 29.8793C17.3515 28.4538 18.1975 26.9885 19.623 26.6066C21.0485 26.2246 22.5138 27.0706 22.8957 28.4961ZM31.4778 37.2906C32.9033 36.9086 33.7493 35.4434 33.3673 34.0178C32.9853 32.5923 31.5201 31.7464 30.0946 32.1283C28.6691 32.5103 27.8231 33.9755 28.2051 35.4011C28.587 36.8266 30.0523 37.6725 31.4778 37.2906ZM44.3789 30.3646C44.7608 31.7902 43.9149 33.2554 42.4894 33.6374C41.0638 34.0193 39.5986 33.1734 39.2166 31.7479C38.8347 30.3224 39.6806 28.8571 41.1061 28.4751C42.5317 28.0932 43.9969 28.9391 44.3789 30.3646ZM27.566 44.3754C27.9479 45.8009 27.102 47.2662 25.6765 47.6481C24.251 48.0301 22.7857 47.1841 22.4037 45.7586C22.0218 44.3331 22.8677 42.8679 24.2932 42.4859C25.7188 42.1039 27.184 42.9499 27.566 44.3754Z" fill="#0B0D0E"/>
</svg>
