<svg width="64" height="64" viewBox="0 0 64 64" fill="none" xmlns="http://www.w3.org/2000/svg">
<path fill-rule="evenodd" clip-rule="evenodd" d="M16.1135 15C15.5612 15 15.1135 15.4477 15.1135 16V22.395C15.1135 22.4648 15.1062 22.5344 15.0917 22.6027L8.25656 54.7923C8.12448 55.4143 8.59887 56 9.23475 56H43.7331C43.7927 56 43.8508 55.9949 43.9071 55.9851C43.9634 55.9949 44.0211 56 44.0798 56H53.9999C54.5522 56 54.9999 55.5523 54.9999 55V36C54.9999 35.4477 54.5522 35 53.9999 35H50V23C50 22.4477 49.5523 22 49 22H44C43.4477 22 43 22.4477 43 23V35H39.9836L37.025 22.6146C37.0068 22.5384 36.9976 22.4605 36.9976 22.3822V16C36.9976 15.4477 36.5499 15 35.9976 15H16.1135ZM17.1135 17V22.395C17.1135 22.6044 17.0915 22.8133 17.048 23.0181L10.4694 54H42.4661L35.0797 23.0792C35.0252 22.8509 34.9976 22.617 34.9976 22.3822V17H17.1135ZM45 35H48V24H45V35ZM40.5675 37L44.8587 54H52.9999V37H40.5675Z" fill="#212121"/>
<path fill-rule="evenodd" clip-rule="evenodd" d="M30.7933 44.0422C31.6938 42.8613 32.1402 41.1473 32.1409 39.2049C32.1413 38.1092 31.7711 36.8397 31.0907 35.469C30.4175 34.1128 29.4986 32.7726 28.5439 31.569C27.6623 30.4576 26.7762 29.495 26.078 28.7815C25.3794 29.4945 24.4926 30.4565 23.6103 31.5673C22.6547 32.7702 21.7348 34.1097 21.0607 35.4654C20.3793 36.8357 20.0082 38.1049 20.0078 39.2006C20.0071 41.143 20.4524 42.8573 21.352 44.0388C22.1836 45.1309 23.5767 46.0018 26.072 46.0026C28.5673 46.0035 29.961 45.1337 30.7933 44.0422ZM26.0713 48.0026C32.1463 48.0048 34.1394 43.6055 34.1409 39.2056C34.1431 33.1305 26.079 26.0029 26.079 26.0029C26.079 26.0029 18.01 33.1249 18.0078 39.1999C18.0063 43.5999 19.9962 48.0005 26.0713 48.0026Z" fill="#212121"/>
<path fill-rule="evenodd" clip-rule="evenodd" d="M22.0091 38.0001C22.5614 38.0015 23.008 38.4503 23.0066 39.0026C23.004 40.0425 23.2179 41.0797 23.6939 41.823C24.1326 42.5078 24.8216 43.0001 26.0067 43.0001C26.559 43.0001 27.0067 43.4478 27.0067 44.0001C27.0067 44.5524 26.559 45.0001 26.0067 45.0001C24.118 45 22.8042 44.1419 22.0098 42.9017C21.2528 41.7198 21.0035 40.257 21.0066 38.9976C21.008 38.4453 21.4568 37.9987 22.0091 38.0001Z" fill="#212121"/>
<path fill-rule="evenodd" clip-rule="evenodd" d="M49.356 8.94236L52.7931 3.00526L54.524 4.00729L51.0869 9.94439C51.0483 10.0111 51.0964 10.0945 51.1734 10.0945H52.9369C52.9833 10.0945 53.0287 10.0976 53.0732 10.1036C53.1439 10.1132 53.212 10.1301 53.2768 10.1534C53.5042 10.2354 53.6911 10.3972 53.8073 10.6018C53.9223 10.8042 53.9681 11.0486 53.9158 11.2992L53.2079 14.6846C53.1619 14.9045 53.4577 15.0214 53.5745 14.8295L57.1975 8.87964C57.2381 8.813 57.1902 8.72763 57.1121 8.72763H55.2424C55.2321 8.72763 55.2219 8.72748 55.2117 8.72717C55.1282 8.72468 55.0476 8.71206 54.971 8.69059C54.7208 8.62044 54.5129 8.45581 54.384 8.24088C54.2638 8.04045 54.2123 7.79628 54.2594 7.54424L54.8937 4.14417C54.9349 3.92323 54.6366 3.81278 54.524 4.00729L52.7931 3.00526C54.0318 0.865629 57.3131 2.08062 56.8597 4.51095L56.4462 6.72763H57.1121C58.7506 6.72763 59.7579 8.52039 58.9058 9.91982L55.2827 15.8697C53.9973 17.9808 50.7444 16.6946 51.2503 14.2753L51.7062 12.0945H51.1734C49.5553 12.0945 48.5457 10.342 49.356 8.94236Z" fill="#212121"/>
</svg>
