<svg width="64" height="64" viewBox="0 0 64 64" fill="none" xmlns="http://www.w3.org/2000/svg">
<path fill-rule="evenodd" clip-rule="evenodd" d="M54 23C54 22.4477 53.5523 22 53 22C52.4477 22 52 22.4477 52 23V27H44V21.0279L43.9999 21.0116L44 21C44 20.9767 43.9992 20.9536 43.9976 20.9307C43.9819 20.6073 43.8879 20.2921 43.7229 20.0123L40.0727 13.8198C40.3311 13.639 40.5 13.3393 40.5 13C40.5 12.4477 40.0523 12 39.5 12H24.5C23.9477 12 23.5 12.4477 23.5 13C23.5 13.3393 23.6689 13.639 23.9273 13.8198L20.2771 20.0123C20.1122 20.2921 20.0181 20.6073 20.0024 20.9307C20.0008 20.9536 20 20.9767 20 21L20.0001 21.0116L20 21.0279L20 27L17 27V22H16C15.6593 22 15.3252 22.0284 15 22.083C12.1623 22.559 10 25.027 10 28L10 37C10 38.1046 10.8954 39 12 39H15L15 47.126C13.2748 47.5701 12 49.1362 12 51C12 53.2091 13.7909 55 16 55C18.2091 55 20 53.2091 20 51C20 49.1362 18.7252 47.5701 17 47.126V45L47 45V53H45C44.4477 53 44 53.4477 44 54C44 54.5523 44.4477 55 45 55H51C51.5523 55 52 54.5523 52 54C52 53.4477 51.5523 53 51 53H49V29H52V33C52 33.5523 52.4477 34 53 34C53.5523 34 54 33.5523 54 33V23ZM15 37L15 24.126C13.2748 24.5701 12 26.1362 12 28L12 37H15ZM17 43L47 43V29H44L44 37C44 39.2091 42.2091 41 40 41L24 41C21.7909 41 20 39.2091 20 37V29L17 29L17 43ZM14 51C14 49.8954 14.8954 49 16 49C17.1046 49 18 49.8954 18 51C18 52.1046 17.1046 53 16 53C14.8954 53 14 52.1046 14 51ZM26.1427 14H37.8573L41.3941 20L22.6059 20L26.1427 14ZM22 22L22 37C22 38.1046 22.8954 39 24 39L40 39C41.1046 39 42 38.1046 42 37L42 22H22Z" fill="#0B0D0E"/>
<path d="M42.6734 7.45708C42.6446 7.46148 42.616 7.46148 42.5874 7.46148C42.1383 7.46148 41.7638 7.1204 41.7287 6.66708L41.6034 4.96605C41.567 4.48192 41.932 4.05061 42.4174 4.0044C42.9051 3.95599 43.3277 4.31248 43.362 4.7944L43.4873 6.49544C43.5238 6.97956 43.1588 7.41087 42.6734 7.45708Z" fill="#0B0D0E"/>
<path d="M39.4098 7.96101C39.5756 8.20087 39.8432 8.3285 40.1162 8.3285C40.2945 8.3285 40.4741 8.27569 40.6309 8.16346C41.0341 7.88179 41.1401 7.33165 40.866 6.93555L39.9053 5.54479C39.6312 5.14649 39.0809 5.05847 38.6821 5.34014C38.2789 5.62181 38.1729 6.17195 38.4471 6.56805L39.4098 7.96101Z" fill="#0B0D0E"/>
<path d="M45.1261 15.0096C45.5249 14.7279 46.073 14.8159 46.3493 15.2142L47.31 16.6028C47.5842 16.9989 47.4782 17.549 47.075 17.8307C46.9181 17.9429 46.7385 17.9957 46.5602 17.9957C46.2873 17.9957 46.0197 17.8681 45.8539 17.6282L44.8911 16.2375C44.6169 15.8414 44.7229 15.2912 45.1261 15.0096Z" fill="#0B0D0E"/>
<path d="M49.2795 13.6545L47.7407 12.9482C47.3142 12.7479 46.7767 12.9415 46.5654 13.3861C46.3542 13.8284 46.5372 14.3499 46.9747 14.5524L48.5135 15.2587C48.6289 15.3116 48.7515 15.338 48.8747 15.338C49.2071 15.338 49.5332 15.1465 49.6887 14.823C49.9 14.3785 49.7192 13.8548 49.2795 13.6545Z" fill="#0B0D0E"/>
<path d="M47.8319 10.3181L49.5376 10.1508C50.0605 10.1002 50.4457 10.4589 50.48 10.9408C50.5165 11.425 50.1514 11.8563 49.666 11.9025L47.9603 12.0697C47.9294 12.0741 47.903 12.0741 47.8744 12.0741C47.4253 12.0741 47.0529 11.7352 47.0179 11.2797C46.9814 10.7956 47.3465 10.3643 47.8319 10.3181Z" fill="#0B0D0E"/>
<path d="M46.3589 9.25539C46.5247 9.49525 46.7923 9.62288 47.0652 9.62288C47.2435 9.62288 47.4231 9.57007 47.58 9.45784L48.9957 8.46318C49.3989 8.18151 49.5049 7.63137 49.2307 7.23527C48.9544 6.83697 48.4063 6.74895 48.0075 7.03062L46.5918 8.02527C46.1929 8.30914 46.0869 8.85928 46.3589 9.25539Z" fill="#0B0D0E"/>
<path d="M46.6891 5.86161L45.944 7.41961C45.7885 7.74309 45.4646 7.93454 45.13 7.93674C45.0067 7.93674 44.8863 7.91033 44.7687 7.85752C44.3313 7.65507 44.1482 7.13353 44.3595 6.69122L45.1045 5.13322C45.3158 4.68871 45.8446 4.49286 46.2798 4.69531C46.7173 4.89776 46.9003 5.4193 46.6891 5.86161Z" fill="#0B0D0E"/>
</svg>
