<svg width="64" height="64" viewBox="0 0 64 64" fill="none" xmlns="http://www.w3.org/2000/svg">
<path fill-rule="evenodd" clip-rule="evenodd" d="M39.1937 33.064C39.7479 33.064 40.1974 33.5132 40.1974 34.0676C40.1974 38.2134 37.0332 41.6202 32.988 42.0046V45.7215C32.988 46.2738 32.5403 46.7215 31.988 46.7215C31.4358 46.7215 30.988 46.2738 30.988 45.7215V42.0018C26.9556 41.6054 23.8053 38.2037 23.8052 34.0673C23.8052 33.5131 24.2544 33.0636 24.8089 33.0636C26.3306 33.0636 27.7527 33.4899 28.9623 34.2296C28.8834 32.0914 29.6601 29.9275 31.2922 28.2955C31.684 27.9036 32.3195 27.9034 32.7116 28.2955C34.3437 29.9276 35.1203 32.0913 35.0414 34.2293C36.2509 33.49 37.6726 33.064 39.1937 33.064ZM33.321 39.9403C33.7699 37.521 35.6774 35.6136 38.0969 35.1645C37.6479 37.5839 35.7405 39.4913 33.321 39.9403ZM30.6815 39.94C28.2623 39.4912 26.3548 37.5836 25.9057 35.1641C28.3252 35.6132 30.2325 37.5205 30.6815 39.94ZM32.0018 37.3104C30.6085 35.2823 30.6086 32.5847 32.0019 30.5563C33.3952 32.5846 33.3952 35.2821 32.0018 37.3104Z" fill="#0B0D0E"/>
<path fill-rule="evenodd" clip-rule="evenodd" d="M45.0801 55.5C45.664 55.5 46.2187 55.2448 46.5986 54.8016L48.5185 52.5618C48.8292 52.1993 49 51.7376 49 51.2602V18.3285C49 17.7981 48.7893 17.2893 48.4142 16.9143L46.5858 15.0858C46.2107 14.7108 45.702 14.5001 45.1716 14.5001L19.2398 14.5001C18.7624 14.5001 18.3008 14.6708 17.9383 14.9815L15.6984 16.9014C15.2551 17.2814 15 17.8361 15 18.4199L15 51.1716C15 51.702 15.2107 52.2108 15.5858 52.5859L17.9142 54.9141C18.2893 55.2891 18.798 55.4998 19.3284 55.4998L45.0801 55.5ZM45.0802 53.5L47 51.2602L47 22.5L17 22.5L17 51.1716L19.3284 53.4998L45.0802 53.5ZM17 20.5L23 20.5V16.5001L19.2398 16.5001L17 18.4199V20.5ZM25 20.5H31L31 16.5001L25 16.5001L25 20.5ZM33 20.5L39 20.5V16.5001L33 16.5001V20.5ZM41 20.5L47 20.5V18.3285L45.1716 16.5001L41 16.5001V20.5Z" fill="#0B0D0E"/>
</svg>
