<svg width="64" height="64" viewBox="0 0 64 64" fill="none" xmlns="http://www.w3.org/2000/svg">
<path fill-rule="evenodd" clip-rule="evenodd" d="M14.95 25.95C12.7409 25.95 10.95 27.7409 10.95 29.95V33.95H18.95V25.95H14.95ZM17.15 27.75H14.95C13.735 27.75 12.75 28.735 12.75 29.95V32.15H17.15V27.75Z" fill="black"/>
<path d="M31.7234 24.0851L30.7036 23.5839C30.5619 23.5143 30.3991 23.6287 30.4166 23.7856L30.8463 27.64C30.8622 27.7826 31.0187 27.8625 31.1435 27.7919L34.5909 25.8429C34.7308 25.7638 34.7249 25.5603 34.5806 25.4893L33.5193 24.9677C34.2361 23.3764 36.0204 22.4931 37.761 22.9595C38.2048 23.0784 38.6051 23.2737 38.9533 23.5267C39.4002 23.8513 40.0255 23.7523 40.3502 23.3055C40.6748 22.8587 40.5757 22.2333 40.1289 21.9087C39.5856 21.5139 38.9628 21.211 38.2786 21.0277C35.5992 20.3097 32.853 21.6528 31.7234 24.0851Z" fill="black"/>
<path d="M43.5495 30.6994C43.6912 30.769 43.854 30.6547 43.8365 30.4977L43.4067 26.6433C43.3908 26.5008 43.2344 26.4208 43.1095 26.4914L39.6622 28.4404C39.5222 28.5195 39.5281 28.7231 39.6724 28.794L40.7338 29.3156C40.0169 30.9067 38.2328 31.7898 36.4923 31.3234C36.0485 31.2045 35.6481 31.0092 35.2999 30.7562C34.8531 30.4316 34.2278 30.5307 33.9031 30.9775C33.5785 31.4243 33.6776 32.0496 34.1244 32.3743C34.6677 32.769 35.2905 33.072 35.9747 33.2553C38.654 33.9732 41.4 32.6303 42.5297 30.1982L43.5495 30.6994Z" fill="black"/>
<path fill-rule="evenodd" clip-rule="evenodd" d="M21.95 16C21.4253 16 21 16.4253 21 16.95V22H12.95C9.66391 22 7 24.6639 7 27.95V44.45C7 44.9747 7.42533 45.4 7.95 45.4H12.0505C12.4865 47.4291 14.2906 48.95 16.45 48.95C18.6094 48.95 20.4135 47.4291 20.8495 45.4H34.0505C34.4865 47.4291 36.2906 48.95 38.45 48.95C40.6094 48.95 42.4135 47.4291 42.8495 45.4H43.0505C43.4865 47.4291 45.2906 48.95 47.45 48.95C49.6094 48.95 51.4135 47.4291 51.8495 45.4H53.45C53.9747 45.4 54.4 44.9747 54.4 44.45V37.8435L57.6218 34.6218C57.9223 34.3212 57.9866 33.8576 57.7793 33.4866L48.2793 16.4866C48.1114 16.1861 47.7942 16 47.45 16H21.95ZM51.8495 43.5H52.5V38.4H21.95C21.4253 38.4 21 37.9747 21 37.45V23.9H12.95C10.7132 23.9 8.9 25.7132 8.9 27.95V43.5H12.0505C12.4865 41.4709 14.2906 39.95 16.45 39.95C18.6094 39.95 20.4135 41.4709 20.8495 43.5H34.0505C34.4865 41.4709 36.2906 39.95 38.45 39.95C40.6094 39.95 42.4135 41.4709 42.8495 43.5H43.0505C43.4865 41.4709 45.2906 39.95 47.45 39.95C49.6094 39.95 51.4135 41.4709 51.8495 43.5ZM22.9 36.5V17.9H46.8926L55.7702 33.7863L53.0565 36.5H22.9ZM19.15 44.45C19.15 45.9412 17.9412 47.15 16.45 47.15C14.9588 47.15 13.75 45.9412 13.75 44.45C13.75 42.9588 14.9588 41.75 16.45 41.75C17.9412 41.75 19.15 42.9588 19.15 44.45ZM38.45 47.15C39.9412 47.15 41.15 45.9412 41.15 44.45C41.15 42.9588 39.9412 41.75 38.45 41.75C36.9588 41.75 35.75 42.9588 35.75 44.45C35.75 45.9412 36.9588 47.15 38.45 47.15ZM50.15 44.45C50.15 45.9412 48.9412 47.15 47.45 47.15C45.9588 47.15 44.75 45.9412 44.75 44.45C44.75 42.9588 45.9588 41.75 47.45 41.75C48.9412 41.75 50.15 42.9588 50.15 44.45Z" fill="black"/>
</svg>
