<svg width="64" height="64" viewBox="0 0 64 64" fill="none" xmlns="http://www.w3.org/2000/svg">
<path fill-rule="evenodd" clip-rule="evenodd" d="M61.9968 11.0039C61.9958 14.0039 60.6368 17.0034 56.4947 17.002C52.3526 17.0005 50.9958 14 50.9968 11C50.9983 6.85788 56.5 2.00195 56.5 2.00195C56.5 2.00195 61.9983 6.86176 61.9968 11.0039ZM59.9968 11.0032C59.9964 12.2456 59.7086 13.2597 59.2083 13.9157C58.7762 14.4824 58.0243 15.0025 56.4954 15.002C54.9666 15.0014 54.215 14.4808 53.7833 13.9138C53.2835 13.2574 52.9964 12.2431 52.9968 11.0007C52.997 10.3883 53.2076 9.62311 53.6482 8.73706C54.0815 7.86558 54.6804 6.99059 55.315 6.19167C55.722 5.67933 56.1311 5.21393 56.499 4.81831C56.8666 5.21419 57.2754 5.67988 57.682 6.1925C58.3161 6.99187 58.9144 7.86729 59.3471 8.73907C59.787 9.62543 59.997 10.3907 59.9968 11.0032Z" fill="#0B0D0E"/>
<path fill-rule="evenodd" clip-rule="evenodd" d="M15 40C15 39.4477 15.4477 39 16 39H22C22.5523 39 23 39.4477 23 40L23 46C23 46.5523 22.5523 47 22 47H16C15.4477 47 15 46.5523 15 46L15 40ZM17 45L17 41H21L21 45H17Z" fill="#0B0D0E"/>
<path fill-rule="evenodd" clip-rule="evenodd" d="M26 39C25.4477 39 25 39.4477 25 40L25 46C25 46.5523 25.4477 47 26 47H32C32.5523 47 33 46.5523 33 46V40C33 39.4477 32.5523 39 32 39H26ZM27 41L27 45H31V41H27Z" fill="#0B0D0E"/>
<path fill-rule="evenodd" clip-rule="evenodd" d="M35 40C35 39.4477 35.4477 39 36 39H42C42.5523 39 43 39.4477 43 40V46C43 46.5523 42.5523 47 42 47H36C35.4477 47 35 46.5523 35 46V40ZM37 45V41H41V45H37Z" fill="#0B0D0E"/>
<path fill-rule="evenodd" clip-rule="evenodd" d="M52.8889 54C53.5025 54 54 53.5523 54 53V25C54 24.4477 53.5025 24 52.8889 24L34 24V12C34 11.4477 33.5523 11 33 11L26 11C25.4477 11 25 11.4477 25 12L25 33H23L23 12C23 11.4477 22.5523 11 22 11H15C14.4477 11 14 11.4477 14 12L14 33H10C9.44772 33 9 33.4477 9 34L9 53C9 53.5523 9.44771 54 10 54L52.8889 54ZM34 26L52 26V52H49V34C49 33.4477 48.5523 33 48 33L34 33V26ZM47 35V52L11 52L11 35L47 35ZM32 33H27V13L32 13L32 33ZM21 33L21 13H16L16 33L21 33Z" fill="#0B0D0E"/>
</svg>
