<svg width="64" height="64" viewBox="0 0 64 64" fill="none" xmlns="http://www.w3.org/2000/svg">
<path d="M51.9072 9.05164C51.3549 9.05164 50.9072 9.49935 50.9072 10.0516C50.9072 10.6039 51.3549 11.0516 51.9072 11.0516H55.9072C56.4594 11.0516 56.9072 10.6039 56.9072 10.0516C56.9072 9.49935 56.4594 9.05164 55.9072 9.05164H51.9072Z" fill="#0B0D0E"/>
<path fill-rule="evenodd" clip-rule="evenodd" d="M53.9072 3.05164C50.0412 3.05164 46.9072 6.18565 46.9072 10.0516C46.9072 13.9176 50.0412 17.0516 53.9072 17.0516C57.7731 17.0516 60.9072 13.9176 60.9072 10.0516C60.9072 6.18565 57.7731 3.05164 53.9072 3.05164ZM48.9072 10.0516C48.9072 7.29022 51.1457 5.05164 53.9072 5.05164C56.6686 5.05164 58.9072 7.29022 58.9072 10.0516C58.9072 12.8131 56.6686 15.0516 53.9072 15.0516C51.1457 15.0516 48.9072 12.8131 48.9072 10.0516Z" fill="#0B0D0E"/>
<path d="M24.5612 37.2789C24.6012 37.1589 24.6712 37.0489 24.7612 36.9589C24.8512 36.8689 24.9512 36.7989 25.0712 36.7489C25.1912 36.6989 25.3112 36.6689 25.4412 36.6689C25.5812 36.6789 25.6912 36.6889 25.8112 36.7389C25.9312 36.7889 26.0412 36.8589 26.1312 36.9489C26.2212 37.0389 26.2912 37.1489 26.3412 37.2689C26.3912 37.3889 26.4112 37.5189 26.4112 37.6589V49.3189C26.4112 49.4489 26.3912 49.5689 26.3412 49.6889C26.2912 49.8089 26.2212 49.9189 26.1312 50.0089C26.0412 50.0989 25.9412 50.1689 25.8212 50.2189C25.5812 50.3189 25.3212 50.3189 25.0812 50.2189C24.9612 50.1689 24.8612 50.0989 24.7712 50.0089C24.6812 49.9189 24.6112 49.8189 24.5612 49.6989C24.5112 49.5789 24.4912 49.4489 24.4912 49.3189V37.6489C24.4912 37.5189 24.5112 37.3989 24.5612 37.2789Z" fill="#0B0D0E"/>
<path d="M31.0708 32.0989C30.9808 32.1889 30.9108 32.2989 30.8708 32.4189C30.8208 32.5389 30.8008 32.6589 30.8008 32.7889V54.1689C30.8008 54.2989 30.8208 54.4289 30.8708 54.5489C30.9208 54.6689 30.9908 54.7689 31.0808 54.8689C31.1708 54.9589 31.2708 55.0289 31.3908 55.0789C31.6208 55.1789 31.8908 55.1789 32.1308 55.0789C32.2508 55.0289 32.3508 54.9589 32.4408 54.8689C32.5308 54.7789 32.6008 54.6689 32.6508 54.5489C32.7008 54.4289 32.7208 54.3089 32.7208 54.1789V32.7989C32.7208 32.6589 32.7008 32.5289 32.6508 32.4089C32.6008 32.2889 32.5308 32.1789 32.4408 32.0889C32.3508 31.9989 32.2408 31.9289 32.1208 31.8789C32.0008 31.8289 31.8808 31.7889 31.7508 31.8089C31.6208 31.8089 31.5008 31.8389 31.3808 31.8889C31.2608 31.9389 31.1608 32.0089 31.0708 32.0989Z" fill="#0B0D0E"/>
<path d="M38.9604 49.6893C38.9104 49.8093 38.8404 49.9193 38.7504 50.0093C38.6704 50.0993 38.5604 50.1693 38.4403 50.2293C38.2003 50.3293 37.9404 50.3293 37.7004 50.2293C37.5804 50.1793 37.4804 50.1193 37.3904 50.0193C37.3004 49.9193 37.2304 49.8193 37.1804 49.6993C37.1304 49.5793 37.1104 49.4593 37.1104 49.3193V37.6493C37.1104 37.5193 37.1304 37.3993 37.1804 37.2793C37.2204 37.1593 37.2903 37.0493 37.3803 36.9593C37.4703 36.8693 37.5703 36.7993 37.6903 36.7493C37.8104 36.6993 37.9303 36.6693 38.0603 36.6693C38.1703 36.6493 38.3104 36.6893 38.4304 36.7393C38.5504 36.7893 38.6604 36.8593 38.7504 36.9493C38.8404 37.0393 38.9104 37.1493 38.9604 37.2693C39.0103 37.3893 39.0303 37.5193 39.0303 37.6593V49.3193C39.0303 49.4393 39.0103 49.5693 38.9604 49.6893Z" fill="#0B0D0E"/>
<path fill-rule="evenodd" clip-rule="evenodd" d="M47.9807 22.4088C47.8007 22.2188 47.5607 22.1188 47.3007 22.1188H40.9707V18.2189C40.9707 17.9589 40.8707 17.7189 40.6907 17.5389C40.5107 17.3589 40.2707 17.2588 40.0107 17.2588H23.3807C23.1507 17.2888 22.9407 17.3988 22.7907 17.5688C22.6307 17.7488 22.5407 17.9788 22.5507 18.2088V22.1188H16.0907C15.8807 22.1388 15.6607 22.2489 15.5007 22.4289C15.3507 22.6089 15.2607 22.8388 15.2607 23.0788V27.9388C15.2607 28.1988 15.3607 28.4388 15.5407 28.6188C15.7207 28.7988 15.9607 28.8989 16.2207 28.8989H17.6907V59.0289C17.6907 59.2888 17.7907 59.5289 17.9707 59.7089C18.1507 59.8889 18.3907 59.9888 18.6507 59.9888H44.8807C45.1407 59.9888 45.3807 59.8889 45.5607 59.7089C45.7407 59.5289 45.8407 59.2888 45.8407 59.0289V28.8989H47.3107C47.5707 28.8989 47.8107 28.7988 47.9907 28.6188C48.1707 28.4388 48.2607 28.1988 48.2607 27.9388V23.0788C48.2607 22.8288 48.1607 22.5888 47.9807 22.4088ZM24.4607 19.1789H39.0607V22.1188H24.4607V19.1789ZM43.9107 58.0689H19.6007V28.8989H43.9107V58.0689ZM46.3407 26.9788H17.1707V24.0389H46.3407V26.9788Z" fill="#0B0D0E"/>
</svg>
