<svg width="64" height="64" viewBox="0 0 64 64" fill="none" xmlns="http://www.w3.org/2000/svg">
<path d="M49.9215 10.6479C49.9215 10.0956 50.3692 9.64789 50.9215 9.64789L55.9112 9.64789C56.4635 9.64789 56.9112 10.0956 56.9112 10.6479C56.9112 11.2002 56.4635 11.6479 55.9112 11.6479H50.9215C50.3692 11.6479 49.9215 11.2002 49.9215 10.6479Z" fill="#0B0D0E"/>
<path fill-rule="evenodd" clip-rule="evenodd" d="M45.9141 10.6479C45.9141 6.50466 49.2729 3.14587 53.4161 3.14587C57.5594 3.14587 60.9182 6.50466 60.9182 10.6479C60.9182 14.7912 57.5594 18.15 53.4161 18.15C49.2728 18.15 45.9141 14.7912 45.9141 10.6479ZM53.4161 5.14587C50.3774 5.14587 47.9141 7.60923 47.9141 10.6479C47.9141 13.6866 50.3774 16.15 53.4161 16.15C56.4548 16.15 58.9182 13.6866 58.9182 10.6479C58.9182 7.60923 56.4548 5.14587 53.4161 5.14587Z" fill="#0B0D0E"/>
<path fill-rule="evenodd" clip-rule="evenodd" d="M27.3753 22.7572C27.2929 22.6144 27.0868 22.6144 27.0045 22.7572L22.0481 31.3482C19.765 35.3056 22.6211 40.2507 27.1899 40.2507C31.7586 40.2507 34.6147 35.3056 32.3316 31.3482L27.3753 22.7572ZM27.1899 26.4381L23.7805 32.3476C22.2666 34.9717 24.1604 38.2507 27.1899 38.2507C30.2193 38.2507 32.1131 34.9717 30.5992 32.3477L27.1899 26.4381Z" fill="#0B0D0E"/>
<path fill-rule="evenodd" clip-rule="evenodd" d="M12.6074 13.9135C11.8016 13.8878 11.1563 13.2264 11.1563 12.4143L11.1563 9.41431C11.1563 8.58588 11.8278 7.91431 12.6563 7.91431H41.7207C42.5491 7.91431 43.2207 8.58588 43.2207 9.41431V12.4143C43.2207 13.2266 42.5751 13.888 41.7691 13.9135V15.9151C42.5751 15.9406 43.2207 16.6021 43.2207 17.4143V20.4143C43.2207 21.2267 42.5749 21.8883 41.7686 21.9136V41.6074C42.5749 41.6327 43.2207 42.2943 43.2207 43.1067L43.2207 46.1067C43.2207 46.9189 42.5751 47.5804 41.7691 47.6059V50.0865C42.5751 50.112 43.2207 50.7734 43.2207 51.5857V54.5857C43.2207 55.4141 42.5491 56.0857 41.7207 56.0857H12.6563C11.8278 56.0857 11.1563 55.4141 11.1563 54.5857L11.1563 51.5857C11.1562 50.7736 11.8016 50.1122 12.6074 50.0865V47.6059C11.8016 47.5801 11.1562 46.9188 11.1562 46.1067L11.1563 43.1067C11.1563 42.2946 11.8016 41.6332 12.6074 41.6075L12.6074 21.9135C11.8016 21.8878 11.1563 21.2264 11.1563 20.4143L11.1563 17.4143C11.1563 16.6022 11.8016 15.9409 12.6074 15.9151L12.6074 13.9135ZM39.7691 47.6068V50.0857H14.6074L14.6074 47.6068H39.7691ZM13.1563 54.0857V52.0857H41.2207V54.0857H13.1563ZM39.7691 13.9143V15.9143H14.6074V13.9143H39.7691ZM39.7686 21.9143H14.6074L14.6074 41.6064H39.7686V21.9143ZM41.2207 19.9143H40.2959L40.2686 19.9141H14.1074L14.0801 19.9143H13.1563V17.9143H41.2207V19.9143ZM13.1563 9.91431L13.1563 11.9143H41.2207V9.91431H13.1563ZM13.1562 43.6067V45.6067H41.2207V43.6067H13.1562Z" fill="#0B0D0E"/>
</svg>
