<svg width="64" height="64" viewBox="0 0 64 64" fill="none" xmlns="http://www.w3.org/2000/svg">
<path d="M51.9198 8.50586C51.3675 8.50586 50.9198 8.95357 50.9198 9.50586C50.9198 10.0581 51.3675 10.5059 51.9198 10.5059H56.9198C57.4721 10.5059 57.9198 10.0581 57.9198 9.50586C57.9198 8.95357 57.4721 8.50586 56.9198 8.50586L51.9198 8.50586Z" fill="#0B0D0E"/>
<path fill-rule="evenodd" clip-rule="evenodd" d="M61.9198 9.50586C61.9198 13.648 58.5619 17.0059 54.4198 17.0059C50.2776 17.0059 46.9198 13.648 46.9198 9.50586C46.9198 5.36372 50.2776 2.00586 54.4198 2.00586C58.5619 2.00586 61.9198 5.36372 61.9198 9.50586ZM59.9198 9.50586C59.9198 12.5434 57.4574 15.0059 54.4198 15.0059C51.3822 15.0059 48.9198 12.5434 48.9198 9.50586C48.9198 6.46829 51.3822 4.00586 54.4198 4.00586C57.4574 4.00586 59.9198 6.46829 59.9198 9.50586Z" fill="#0B0D0E"/>
<path fill-rule="evenodd" clip-rule="evenodd" d="M18.5135 23.9355C19.0658 23.9355 19.5135 24.3832 19.5135 24.9355L19.5135 35.7164L22.5106 37.9554C25.6791 40.3225 30.0575 40.2075 33.0973 37.6773C36.4729 34.8676 41.1936 34.4675 44.9608 36.5581V24.9355C44.9608 24.3832 45.4085 23.9355 45.9608 23.9355C46.5131 23.9355 46.9608 24.3832 46.9608 24.9355V45.9177C46.9608 51.4406 42.4836 55.9177 36.9608 55.9177H27.5135C21.9907 55.9177 17.5135 51.4406 17.5135 45.9177L17.5135 36.7188L17.4404 36.6641L17.5135 36.5663L17.5135 24.9355C17.5135 24.3832 17.9613 23.9355 18.5135 23.9355ZM19.5135 38.2129L19.5135 45.9177C19.5135 50.336 23.0953 53.9177 27.5135 53.9177H36.9608C41.3791 53.9177 44.9608 50.336 44.9608 45.9177V38.9328L44.8398 38.8457C41.6758 36.5692 37.3726 36.7209 34.3767 39.2145C30.6259 42.3365 25.2232 42.4785 21.3136 39.5577L19.5135 38.2129Z" fill="#0B0D0E"/>
</svg>
