<svg width="64" height="64" viewBox="0 0 64 64" fill="none" xmlns="http://www.w3.org/2000/svg">
<path d="M51.1055 9.55847C50.5532 9.55847 50.1055 10.0062 50.1055 10.5585C50.1055 11.1108 50.5532 11.5585 51.1055 11.5585H56.1055C56.6578 11.5585 57.1055 11.1108 57.1055 10.5585C57.1055 10.0062 56.6578 9.55847 56.1055 9.55847H51.1055Z" fill="#0B0D0E"/>
<path fill-rule="evenodd" clip-rule="evenodd" d="M53.6055 18.0585C57.7476 18.0585 61.1055 14.7006 61.1055 10.5585C61.1055 6.41634 57.7476 3.05847 53.6055 3.05847C49.4633 3.05847 46.1055 6.41634 46.1055 10.5585C46.1055 14.7006 49.4633 18.0585 53.6055 18.0585ZM53.6055 16.0585C56.643 16.0585 59.1055 13.596 59.1055 10.5585C59.1055 7.52091 56.643 5.05847 53.6055 5.05847C50.5679 5.05847 48.1055 7.52091 48.1055 10.5585C48.1055 13.596 50.5679 16.0585 53.6055 16.0585Z" fill="#0B0D0E"/>
<path d="M22.6274 11.022C22.6274 10.2624 23.244 9.64575 24.0036 9.64575C24.7632 9.64575 25.3798 10.2624 25.3798 11.022C25.3798 11.7816 24.7632 12.3982 24.0036 12.3982C23.244 12.3982 22.6274 11.7816 22.6274 11.022Z" fill="#0B0D0E"/>
<path d="M18.4119 14.9569C17.6523 14.9569 17.0356 15.5736 17.0356 16.3332C17.0356 17.0928 17.6523 17.7094 18.4119 17.7094C19.1715 17.7094 19.7881 17.0928 19.7881 16.3332C19.7881 15.5736 19.1715 14.9569 18.4119 14.9569Z" fill="#0B0D0E"/>
<path d="M24.0036 20.2677C23.244 20.2677 22.6274 20.8843 22.6274 21.6439C22.6274 22.4035 23.244 23.0202 24.0036 23.0202C24.7632 23.0202 25.3798 22.4035 25.3798 21.6439C25.3798 20.8843 24.7632 20.2677 24.0036 20.2677Z" fill="#0B0D0E"/>
<path d="M21.1657 26.7182C20.4061 26.7182 19.7895 27.3348 19.7895 28.0945C19.7895 28.8541 20.4061 29.4707 21.1657 29.4707C21.9253 29.4707 22.542 28.8541 22.542 28.0945C22.542 27.3348 21.9253 26.7182 21.1657 26.7182Z" fill="#0B0D0E"/>
<path d="M43.1339 20.2678C43.1339 19.5082 43.7505 18.8916 44.5101 18.8916C45.2698 18.8916 45.8864 19.5082 45.8864 20.2678C45.8864 21.0275 45.2698 21.6441 44.5101 21.6441C43.7505 21.6441 43.1339 21.0275 43.1339 20.2678Z" fill="#0B0D0E"/>
<path d="M33.7259 38.1951C32.9662 38.1951 32.3496 38.8117 32.3496 39.5713C32.3496 40.3309 32.9662 40.9476 33.7259 40.9476C34.4855 40.9476 35.1021 40.3309 35.1021 39.5713C35.1021 38.8117 34.4855 38.1951 33.7259 38.1951Z" fill="#0B0D0E"/>
<path d="M38.0027 44.2115C38.0027 43.4518 38.6193 42.8352 39.3789 42.8352C40.1385 42.8352 40.7552 43.4518 40.7552 44.2115C40.7552 44.9711 40.1385 45.5877 39.3789 45.5877C38.6193 45.5877 38.0027 44.9711 38.0027 44.2115Z" fill="#0B0D0E"/>
<path d="M35.1016 26.718C34.3419 26.718 33.7253 27.3346 33.7253 28.0942C33.7253 28.8538 34.3419 29.4705 35.1016 29.4705C35.8612 29.4705 36.4778 28.8538 36.4778 28.0942C36.4778 27.3346 35.8612 26.718 35.1016 26.718Z" fill="#0B0D0E"/>
<path d="M39.8656 50.6118C40.4179 50.6118 40.8656 50.1641 40.8656 49.6118C40.8656 49.0596 40.4179 48.6118 39.8656 48.6118H31.0112C30.4589 48.6118 30.0112 48.1641 30.0112 47.6118V38.4914C30.0112 37.9392 29.5635 37.4914 29.0112 37.4914C28.4589 37.4914 28.0112 37.9392 28.0112 38.4914V47.6118C28.0112 49.2687 29.3543 50.6118 31.0112 50.6118H39.8656Z" fill="#0B0D0E"/>
<path d="M39.8651 57.5596C40.4174 57.5596 40.8651 57.1119 40.8651 56.5596C40.8651 56.0073 40.4174 55.5596 39.8651 55.5596H30.1634C24.6405 55.5596 20.1634 51.0824 20.1634 45.5596V40.9145C20.1634 39.81 19.268 38.9145 18.1634 38.9145L11.582 38.9145L11.582 16.7175C11.582 16.1653 11.1343 15.7175 10.582 15.7175C10.0297 15.7175 9.58203 16.1653 9.58203 16.7175V38.9145C9.58203 40.0191 10.4775 40.9145 11.582 40.9145L18.1634 40.9145L18.1634 45.5596C18.1634 52.187 23.536 57.5596 30.1634 57.5596H39.8651Z" fill="#0B0D0E"/>
<path d="M50.2049 33.9017L43.841 40.2656C43.4504 40.6562 42.8173 40.6562 42.4268 40.2656C42.0362 39.8751 42.0362 39.242 42.4268 38.8514L47.0836 34.1946H34.461C33.9087 34.1946 33.461 33.7469 33.461 33.1946C33.461 32.6423 33.9087 32.1946 34.461 32.1946H47.0836L42.4268 27.5377C42.0362 27.1472 42.0362 26.514 42.4268 26.1235C42.8173 25.733 43.4504 25.733 43.841 26.1235L50.2049 32.4875C50.5955 32.878 50.5955 33.5112 50.2049 33.9017Z" fill="#0B0D0E"/>
<path d="M29.9957 17.2655C29.9957 16.7132 29.548 16.2655 28.9957 16.2655C28.4435 16.2655 27.9957 16.7132 27.9957 17.2655V28.1903C27.9957 28.7426 28.4435 29.1903 28.9957 29.1903C29.548 29.1903 29.9957 28.7426 29.9957 28.1903V17.2655Z" fill="#0B0D0E"/>
</svg>
