<svg width="64" height="64" viewBox="0 0 64 64" fill="none" xmlns="http://www.w3.org/2000/svg">
<path fill-rule="evenodd" clip-rule="evenodd" d="M31.2159 17.0619C31.9142 13.4987 28.9419 10.3197 25.4323 10.6412C24.8823 10.6916 24.3296 10.3907 24.1819 9.85855C24.0342 9.32638 24.346 8.7677 24.8928 8.69014C29.6534 8.01489 33.8076 12.0809 33.2744 16.8288C33.4432 16.7552 33.615 16.6868 33.7898 16.6238C37.5777 15.2581 41.7498 16.7343 45.1805 19.7937C45.9319 20.4639 45.4293 21.6669 44.4659 21.6669C40.6633 21.6669 37.5807 24.7495 37.5807 28.5521C37.5807 30.8866 38.7416 32.95 40.5221 34.1967C41.4144 34.8214 41.4929 36.1725 40.6291 36.8806C38.7664 38.4077 37.5807 40.7234 37.5807 43.317C37.5807 47.9109 41.3047 51.635 45.8985 51.6353M31.2159 17.0619C30.8922 16.8955 30.5564 16.749 30.209 16.6238C26.4269 15.2602 22.2616 16.7299 18.8341 19.7797C18.0719 20.4579 18.5879 21.6669 19.5531 21.6669C23.3557 21.6669 26.4383 24.7495 26.4383 28.5521C26.4383 30.8866 25.2774 32.95 23.4969 34.1967C22.6046 34.8214 22.5261 36.1725 23.3898 36.8806C25.2525 38.4077 26.4383 40.7234 26.4383 43.317C26.4383 47.911 22.714 51.6353 18.12 51.6353C17.0959 51.6353 16.6798 53.0152 17.6148 53.5464C19.7931 54.784 22.3125 55.4904 24.9939 55.4904C27.5123 55.4904 29.888 54.8672 31.9724 53.7659C34.0568 54.8672 36.4325 55.4904 38.951 55.4904C41.6607 55.4904 44.205 54.769 46.3989 53.5071C47.295 52.9916 46.9181 51.6352 45.8985 51.6353M41.2842 19.4286C38.9278 18.099 36.5421 17.7575 34.4681 18.5052C33.9208 18.7026 33.41 18.969 32.9365 19.2986C32.3739 19.6903 31.6249 19.6903 31.0623 19.2986C30.5888 18.969 30.078 18.7026 29.5306 18.5052C27.201 17.6653 24.478 18.1997 21.845 19.9653C22.1695 20.0517 22.4868 20.156 22.7956 20.2771C22.8419 20.2683 22.8912 20.2591 22.9433 20.2495C23.3075 20.1827 23.8129 20.0986 24.3768 20.0302C25.4506 19.8999 26.9265 19.7999 28.0048 20.1043C28.3221 20.1939 28.6337 20.3166 28.9321 20.4568C31.4531 21.6417 33.9618 22.3577 36.1511 21.4819L41.2842 19.4286ZM37.431 23.124L36.8939 23.3389C33.8604 24.5523 30.6513 23.4747 28.0814 22.2669C27.8591 22.1624 27.6514 22.0827 27.4615 22.0291C26.9838 21.8943 26.259 21.8794 25.4803 21.9327C27.2959 23.5596 28.4383 25.9224 28.4383 28.5521C28.4383 31.4226 27.0762 33.9748 24.9671 35.5978C27.095 37.4866 28.4383 40.2453 28.4383 43.317C28.4383 45.5683 27.7172 47.6512 26.4935 49.3474L28.6821 48.9505C29.3124 48.8362 29.9251 48.5736 30.6604 48.2585C30.7977 48.1997 30.9392 48.139 31.0858 48.0772C31.9524 47.7117 32.9968 47.3093 34.1327 47.3355C34.9186 47.3537 35.7886 47.5739 36.7404 48.0741C35.9995 46.6506 35.5807 45.0327 35.5807 43.317C35.5807 40.2453 36.924 37.4866 39.0519 35.5978C36.9427 33.9748 35.5807 31.4226 35.5807 28.5521C35.5807 26.5081 36.2709 24.6253 37.431 23.124ZM41.0231 52.4128C41.021 52.4123 41.0188 52.4117 41.0166 52.4111C40.9417 52.3914 40.8354 52.3625 40.7043 52.3246C40.4428 52.2489 40.0795 52.1364 39.669 51.9878C38.8687 51.698 37.8057 51.242 36.9802 50.6067C35.6868 49.6113 34.7285 49.3498 34.0866 49.335C33.4193 49.3196 32.7264 49.5559 31.8629 49.92C31.7449 49.9698 31.6224 50.0227 31.496 50.0772C30.7689 50.3908 29.9137 50.7598 29.0389 50.9184L23.9307 51.8448C23.2098 52.3369 22.4234 52.74 21.5872 53.0382C22.6723 53.3331 23.8143 53.4904 24.9939 53.4904C27.2445 53.4904 29.3583 52.9175 31.2005 51.9103C31.6814 51.6474 32.2634 51.6474 32.7444 51.9103C34.5866 52.9175 36.7004 53.4904 38.951 53.4904C40.1458 53.4904 41.3021 53.329 42.3997 53.0268C41.9236 52.8551 41.4638 52.6495 41.0231 52.4128ZM45.899 53.6353H45.8963H45.899ZM31.5903 32.9432C31.3531 33.3795 31.1756 34.0508 31.1756 34.847C31.1756 35.6432 31.3531 36.3145 31.5903 36.7509C31.7083 36.9679 31.8238 37.0957 31.9078 37.161C31.9478 37.1922 31.9757 37.2054 31.9896 37.2106C31.9965 37.2132 32.0027 37.2145 32.0027 37.2145L32.0055 37.2149L32.0078 37.2148L32.0097 37.2145C32.0097 37.2145 32.0159 37.2132 32.0228 37.2106C32.0367 37.2054 32.0646 37.1922 32.1046 37.161C32.1886 37.0957 32.3041 36.9679 32.422 36.7509C32.6592 36.3145 32.8368 35.6432 32.8368 34.847C32.8368 34.0508 32.6592 33.3795 32.422 32.9432C32.3041 32.7261 32.1886 32.5984 32.1046 32.533C32.0646 32.5019 32.0367 32.4887 32.0228 32.4835C32.0159 32.4809 32.0097 32.4795 32.0097 32.4795L32.0062 32.4792L32.0027 32.4795C32.0027 32.4795 31.9965 32.4809 31.9896 32.4835C31.9757 32.4887 31.9478 32.5019 31.9078 32.533C31.8238 32.5984 31.7083 32.7261 31.5903 32.9432ZM29.8332 31.988C30.2375 31.2441 30.9614 30.4792 32.0062 30.4792C33.051 30.4792 33.7749 31.2441 34.1792 31.988C34.6046 32.7706 34.8368 33.7832 34.8368 34.847C34.8368 35.9108 34.6046 36.9235 34.1792 37.706C33.7749 38.45 33.051 39.2149 32.0062 39.2149C30.9614 39.2149 30.2375 38.45 29.8332 37.706C29.4078 36.9235 29.1756 35.9108 29.1756 34.847C29.1756 33.7832 29.4078 32.7706 29.8332 31.988Z" fill="#0B0D0E"/>
<path d="M50.9222 9.64789C50.3699 9.64789 49.9222 10.0956 49.9222 10.6479C49.9222 11.2002 50.3699 11.6479 50.9222 11.6479H55.9119C56.4642 11.6479 56.9119 11.2002 56.9119 10.6479C56.9119 10.0956 56.4642 9.64789 55.9119 9.64789L50.9222 9.64789Z" fill="#0B0D0E"/>
<path fill-rule="evenodd" clip-rule="evenodd" d="M53.4169 3.14587C49.2736 3.14587 45.9148 6.50466 45.9148 10.6479C45.9148 14.7912 49.2736 18.15 53.4169 18.15C57.5601 18.15 60.9189 14.7912 60.9189 10.6479C60.9189 6.50466 57.5601 3.14587 53.4169 3.14587ZM47.9148 10.6479C47.9148 7.60923 50.3782 5.14587 53.4169 5.14587C56.4556 5.14587 58.9189 7.60923 58.9189 10.6479C58.9189 13.6866 56.4556 16.15 53.4169 16.15C50.3782 16.15 47.9148 13.6866 47.9148 10.6479Z" fill="#0B0D0E"/>
</svg>
