<svg width="64" height="64" viewBox="0 0 64 64" fill="none" xmlns="http://www.w3.org/2000/svg">
<path d="M49.9219 10.6479C49.9219 10.0957 50.3697 9.64795 50.9219 9.64795L55.9117 9.64795C56.464 9.64795 56.9117 10.0957 56.9117 10.6479C56.9117 11.2002 56.464 11.6479 55.9117 11.6479H50.9219C50.3697 11.6479 49.9219 11.2002 49.9219 10.6479Z" fill="#0B0D0E"/>
<path fill-rule="evenodd" clip-rule="evenodd" d="M45.9146 10.648C45.9146 6.50472 49.2733 3.14593 53.4166 3.14594C57.5599 3.14594 60.9187 6.50472 60.9187 10.648C60.9187 14.7913 57.5599 18.15 53.4166 18.15C49.2733 18.15 45.9146 14.7913 45.9146 10.648ZM53.4166 5.14593C50.3779 5.14593 47.9146 7.60929 47.9146 10.648C47.9146 13.6867 50.3779 16.15 53.4166 16.15C56.4553 16.15 58.9187 13.6867 58.9187 10.648C58.9187 7.60929 56.4553 5.14593 53.4166 5.14593Z" fill="#0B0D0E"/>
<path fill-rule="evenodd" clip-rule="evenodd" d="M28.5604 34.63C26.9284 36.2621 26.1517 38.426 26.2306 40.5641C25.0209 39.8245 23.5988 39.3982 22.0771 39.3982C21.5235 39.3982 21.0735 39.8469 21.0735 40.4018C21.0735 44.5383 24.2239 47.9399 28.2563 48.3364L28.2563 52.056C28.2563 52.6083 28.704 53.056 29.2563 53.056C29.8086 53.056 30.2563 52.6083 30.2563 52.056L30.2563 48.3392C34.3014 47.9548 37.4657 44.548 37.4657 40.4022C37.4657 39.8479 37.0163 39.3985 36.462 39.3985C34.9409 39.3985 33.5191 39.8246 32.3096 40.5639C32.3886 38.4259 31.612 36.2622 29.9798 34.63C29.5879 34.2381 28.9524 34.2381 28.5604 34.63ZM29.27 43.6449C27.8768 41.6169 27.8768 38.9193 29.2701 36.8909C30.6634 38.9192 30.6634 41.6166 29.27 43.6449ZM23.174 41.4987C25.5934 41.9477 27.5008 43.8551 27.9498 46.2746C25.5305 45.8258 23.6231 43.9181 23.174 41.4987ZM35.3652 41.499C34.9161 43.9185 33.0088 45.8258 30.5893 46.2748C31.0381 43.8556 32.9457 41.9481 35.3652 41.499Z" fill="#0B0D0E"/>
<path fill-rule="evenodd" clip-rule="evenodd" d="M38.0589 4.92826C37.5968 4.59981 37.0171 4.4829 36.4638 4.60661L25.9604 6.9551C25.7625 6.99936 25.5725 7.07346 25.3968 7.17486L19.4026 10.6357C19.2269 10.7371 19.0677 10.8646 18.9305 11.0139L11.6449 18.9358C11.2612 19.3531 11.0725 19.9136 11.1259 20.478L11.6454 25.9685C11.4852 25.942 11.3208 25.9283 11.1532 25.9283H4.0752C3.52291 25.9283 3.0752 26.376 3.0752 26.9283C3.0752 27.4806 3.52291 27.9283 4.0752 27.9283H11.1532C11.7055 27.9283 12.1532 28.376 12.1532 28.9283L12.1531 53.6764C12.1531 55.3332 13.4963 56.6764 15.1531 56.6764H43.2656C44.9224 56.6764 46.2656 55.3332 46.2656 53.6764V28.9283C46.2656 28.9154 46.2658 28.9026 46.2663 28.8898C46.2936 28.8037 46.3089 28.7147 46.3123 28.6253C46.4406 28.2211 46.8189 27.9283 47.2656 27.9283H53.9999C54.5521 27.9283 54.9999 27.4806 54.9999 26.9283C54.9999 26.376 54.5521 25.9283 53.9999 25.9283H47.2656C45.8917 25.9283 44.7334 26.8519 44.3779 28.1121L42.0185 30.5152C41.6265 30.9144 40.9833 30.9144 40.5914 30.5152L39.4445 29.3471C38.2646 28.1454 36.3269 28.1501 35.1529 29.3576L34.0497 30.4922C33.656 30.8971 33.0055 30.8959 32.6133 30.4897L31.5295 29.3671C30.3587 28.1544 28.4187 28.1441 27.2351 29.3444L26.076 30.5199C25.6838 30.9176 25.0418 30.917 24.6504 30.5184L23.4934 29.34C22.3176 28.1424 20.388 28.1424 19.2121 29.34L18.0582 30.5152C17.6663 30.9144 17.0231 30.9144 16.6311 30.5152L14.3612 28.2033C14.4716 28.1633 14.5807 28.1128 14.6875 28.0511L42.8366 11.7992C44.0983 11.0708 44.1828 9.28106 42.9953 8.43702L38.0589 4.92826ZM14.1531 53.6764L14.1532 30.8461L15.204 31.9164C16.3799 33.114 18.3095 33.114 19.4853 31.9164L20.6392 30.7412C21.0312 30.342 21.6744 30.342 22.0663 30.7412L23.2233 31.9195C24.3974 33.1153 26.3234 33.1174 27.5001 31.9242L28.6592 30.7487C29.0537 30.3486 29.7004 30.352 30.0907 30.7563L31.1744 31.8788C32.3511 33.0975 34.3027 33.101 35.4836 31.8864L36.5868 30.7518C36.9782 30.3493 37.6241 30.3477 38.0174 30.7483L39.1642 31.9164C40.3401 33.114 42.2697 33.114 43.4456 31.9164L44.2656 31.0812V53.6764C44.2656 54.2287 43.8179 54.6764 43.2656 54.6764H15.1531C14.6009 54.6764 14.1531 54.2287 14.1531 53.6764ZM26.3968 8.90691L36.9002 6.55842L38.7365 7.86365L13.3168 22.4013L13.117 20.2896L20.4026 12.3677L26.3968 8.90691ZM13.5999 24.5434L40.5327 9.14037L41.8366 10.0672L13.6875 26.3191L13.5232 24.583C13.5491 24.571 13.5747 24.5579 13.5999 24.5434Z" fill="#0B0D0E"/>
<path d="M41.1104 16.7816C41.1104 16.2293 40.6626 15.7816 40.1104 15.7816C39.5581 15.7816 39.1104 16.2293 39.1104 16.7816V22.8756L37.2415 21.0055C36.8511 20.6148 36.2179 20.6146 35.8272 21.005C35.4366 21.3954 35.4364 22.0286 35.8268 22.4192L38.6947 25.289C39.4758 26.0706 40.7429 26.0706 41.524 25.289L44.3919 22.4192C44.7823 22.0286 44.7821 21.3954 44.3914 21.005C44.0008 20.6146 43.3676 20.6148 42.9772 21.0055L41.1104 22.8736V16.7816Z" fill="#0B0D0E"/>
</svg>
