<svg width="65" height="64" viewBox="0 0 65 64" fill="none" xmlns="http://www.w3.org/2000/svg">
<path fill-rule="evenodd" clip-rule="evenodd" d="M21.278 14.5791C20.2692 14.5791 19.4183 15.3304 19.2934 16.3315L17.7853 28.4197H12.7581C11.6535 28.4197 10.7581 29.3151 10.7581 30.4197V53.3222C10.7581 54.4268 11.6535 55.3222 12.7581 55.3222H21.9596V45.5646L32.2926 40.7456L32.2882 40.7361L42.1448 36.3422V38.3431H42.1559L42.1559 44.0532C42.1559 44.9399 43.0844 45.5204 43.8815 45.132L51.2458 41.5437L51.2458 50.3931C51.2458 50.9454 51.6935 51.3931 52.2458 51.3931C52.798 51.3931 53.2458 50.9454 53.2458 50.3931L53.2463 24.8542C53.2463 22.6451 51.4555 20.8542 49.2463 20.8542H49.0183V18.6777C49.0183 17.0209 47.6752 15.6777 46.0183 15.6777H37.8538C36.1969 15.6777 34.8538 17.0209 34.8538 18.6777V20.8542H34.2327C32.0235 20.8542 30.2327 22.6451 30.2327 24.8542V36.4084L29.3385 35.4506L27.0657 16.3429C26.946 15.3368 26.0929 14.5791 25.0797 14.5791H21.278ZM27.0303 32.9782L25.0797 16.5791H21.278L19.8008 28.4197H21.9056C22.4599 28.4197 22.9893 28.6497 23.3675 29.0548L27.0303 32.9782ZM32.2462 38.5651L32.2327 38.5507V29.5676L39.3342 29.5482V35.4054L32.2462 38.5651ZM39.3342 27.5482L32.2327 27.5676V24.8542C32.2327 23.7497 33.1281 22.8542 34.2327 22.8542H37.3342C38.4388 22.8542 39.3342 23.7497 39.3342 24.8542V27.5482ZM41.3416 34.5105L41.3342 34.5138V24.8542C41.3342 22.6451 39.5434 20.8542 37.3342 20.8542H36.8538V18.6777C36.8538 18.1254 37.3015 17.6777 37.8538 17.6777H46.0183C46.5706 17.6777 47.0183 18.1254 47.0183 18.6777V20.8542H46.1448C43.9356 20.8542 42.1448 22.6451 42.1448 24.8542V34.335C41.8792 34.3366 41.607 34.3922 41.3416 34.5105ZM44.1448 36.1226C44.1521 36.1929 44.1559 36.2644 44.1559 36.3372V42.7735L50.3697 39.7458C50.6576 39.6055 50.9558 39.5411 51.2463 39.5412V29.5504L44.1448 29.5697V36.1226ZM44.1448 27.5697L51.2463 27.5504V24.8542C51.2463 23.7497 50.3509 22.8542 49.2463 22.8542H46.1448C45.0402 22.8542 44.1448 23.7497 44.1448 24.8542V27.5697ZM30.337 39.4509L21.9056 30.4197L12.7581 30.4197V53.3222H19.9596V45.5646C19.9596 44.7874 20.4098 44.0805 21.1142 43.752L30.337 39.4509Z" fill="black"/>
</svg>
