<svg width="64" height="64" viewBox="0 0 64 64" fill="none" xmlns="http://www.w3.org/2000/svg">
<path fill-rule="evenodd" clip-rule="evenodd" d="M50.1783 3.63913C50.5352 3.35798 50.9863 3.22453 51.4387 3.26631L58.298 3.89987L59.694 4.41141C60.3846 4.66448 60.8473 5.31769 60.8568 6.05318L61.0001 17.0808L58.3047 19.6264C57.9756 19.9373 57.54 20.1104 57.0873 20.1104H50.3398C49.8816 20.1104 49.4412 19.933 49.1109 19.6155L45.2732 15.9253V7.50378L50.1783 3.63913ZM51.3449 5.26616L48.6603 7.3813L50.7612 7.73924L54.7189 5.5778L51.3449 5.26616ZM58.1578 5.97854L58.205 5.99585L53.7718 11.5623L52.3295 9.16158L58.1578 5.97854ZM55.4659 12.6454L58.8865 8.35045L58.9707 14.836L55.4659 12.6454ZM50.315 9.69203L47.2732 9.17378V13.9274L51.6333 11.8864L50.315 9.69203ZM52.9929 13.4583L48.0159 15.788L50.4313 18.1104H56.9971L58.3667 16.8169L52.9929 13.4583Z" fill="#0B0D0E"/>
<path fill-rule="evenodd" clip-rule="evenodd" d="M18.501 33C18.501 32.4477 18.9487 32 19.501 32H26.001C26.5533 32 27.001 32.4477 27.001 33C27.001 33.5523 26.5533 34 26.001 34H19.501C18.9487 34 18.501 33.5523 18.501 33ZM30.001 41C30.001 40.4477 30.4487 40 31.001 40H49.001C49.5533 40 50.001 40.4477 50.001 41C50.001 41.5523 49.5533 42 49.001 42H31.001C30.4487 42 30.001 41.5523 30.001 41Z" fill="#0B0D0E"/>
<path fill-rule="evenodd" clip-rule="evenodd" d="M35.001 31C35.001 30.4477 35.4487 30 36.001 30H44.001C44.5533 30 45.001 30.4477 45.001 31C45.001 31.5523 44.5533 32 44.001 32H36.001C35.4487 32 35.001 31.5523 35.001 31Z" fill="#0B0D0E"/>
<path fill-rule="evenodd" clip-rule="evenodd" d="M17.001 24C17.001 23.4477 17.4487 23 18.001 23H27.001C27.5533 23 28.001 23.4477 28.001 24C28.001 24.5523 27.5533 25 27.001 25H18.001C17.4487 25 17.001 24.5523 17.001 24Z" fill="#0B0D0E"/>
<path fill-rule="evenodd" clip-rule="evenodd" d="M34.9707 54L25.4358 38.276C25.1514 37.807 25.0011 37.269 25.0011 36.7205V25H20.0011V36.7205C20.0011 37.269 19.8507 37.807 19.5663 38.276L10.0314 54H34.9707ZM19.0011 23C18.4488 23 18.0011 23.4477 18.0011 24V36.7205C18.0011 36.9033 17.9509 37.0827 17.8561 37.239L7.40039 54.4815C6.99627 55.1479 7.47607 56 8.25546 56H36.7466C37.526 56 38.0058 55.1479 37.6017 54.4815L27.146 37.239C27.0512 37.0827 27.0011 36.9033 27.0011 36.7205V24C27.0011 23.4477 26.5533 23 26.0011 23H19.0011Z" fill="#0B0D0E"/>
<path d="M37.4576 55.7044C38.2741 55.8977 39.1258 56 40.0014 56C46.0765 56 51.0014 51.0751 51.0014 45C51.0014 40.3361 48.0987 36.35 44.0014 34.7499L44.001 32V30H36.001L36.0013 34.7499C33.0341 35.9087 30.6934 38.3188 29.6279 41.3315L31.0888 43.7406C31.5454 40.4801 33.7492 37.7765 36.7289 36.6129L38.0013 36.1159V32.0002L42.0014 32.0001V36.1159L43.2738 36.6129C46.6296 37.9234 49.0014 41.1872 49.0014 45C49.0014 49.9706 44.9719 54 40.0014 54C38.9486 54 37.938 53.8193 36.999 53.4871L37.6017 54.4815C37.8568 54.9022 37.76 55.3968 37.4576 55.7044Z" fill="#0B0D0E"/>
<path d="M46.001 45C46.001 45.5523 45.5533 46 45.001 46C44.4487 46 44.001 45.5523 44.001 45C44.001 44.4477 44.4487 44 45.001 44C45.5533 44 46.001 44.4477 46.001 45Z" fill="#0B0D0E"/>
<path d="M43.001 47C43.001 47.5523 42.5533 48 42.001 48C41.4487 48 41.001 47.5523 41.001 47C41.001 46.4477 41.4487 46 42.001 46C42.5533 46 43.001 46.4477 43.001 47Z" fill="#0B0D0E"/>
<path d="M46.001 49C46.001 49.5523 45.5533 50 45.001 50C44.4487 50 44.001 49.5523 44.001 49C44.001 48.4477 44.4487 48 45.001 48C45.5533 48 46.001 48.4477 46.001 49Z" fill="#0B0D0E"/>
</svg>
