<svg width="64" height="64" viewBox="0 0 64 64" fill="none" xmlns="http://www.w3.org/2000/svg">
<path fill-rule="evenodd" clip-rule="evenodd" d="M50.1783 3.63913C50.5352 3.35798 50.9863 3.22453 51.4387 3.26631L58.298 3.89987L59.694 4.41141C60.3846 4.66448 60.8473 5.31769 60.8568 6.05318L61.0001 17.0808L58.3047 19.6264C57.9756 19.9373 57.54 20.1104 57.0873 20.1104H50.3398C49.8816 20.1104 49.4412 19.933 49.1109 19.6155L45.2732 15.9253V7.50378L50.1783 3.63913ZM51.3449 5.26616L48.6603 7.3813L50.7612 7.73924L54.7189 5.5778L51.3449 5.26616ZM58.1578 5.97854L58.205 5.99585L53.7718 11.5623L52.3295 9.16158L58.1578 5.97854ZM55.4659 12.6454L58.8865 8.35045L58.9707 14.836L55.4659 12.6454ZM50.315 9.69203L47.2732 9.17378V13.9274L51.6333 11.8864L50.315 9.69203ZM52.9929 13.4583L48.0159 15.788L50.4313 18.1104H56.9971L58.3667 16.8169L52.9929 13.4583Z" fill="#0B0D0E"/>
<path fill-rule="evenodd" clip-rule="evenodd" d="M46 44.5322C46 46.7414 44.2091 48.5322 42 48.5322C39.7909 48.5322 38 46.7414 38 44.5322C38 42.3231 39.7909 40.5322 42 40.5322C44.2091 40.5322 46 42.3231 46 44.5322ZM44 44.5322C44 45.6368 43.1046 46.5322 42 46.5322C40.8954 46.5322 40 45.6368 40 44.5322C40 43.4277 40.8954 42.5322 42 42.5322C43.1046 42.5322 44 43.4277 44 44.5322Z" fill="#0B0D0E"/>
<path fill-rule="evenodd" clip-rule="evenodd" d="M43 34.5941L43 31.5322C43 29.8754 41.6569 28.5322 40 28.5322H30.5854L30.0464 17.4835C30.0204 16.9508 29.5809 16.5322 29.0476 16.5322H22.9524C22.4191 16.5322 21.9796 16.9508 21.9536 17.4835L21.6585 23.5322H14C12.3431 23.5322 11 24.8754 11 26.5322L11 31.5322H7C6.44772 31.5322 6 31.9799 6 32.5322L6 50.5322C6 51.0845 6.44771 51.5322 7 51.5322L9 51.5322L9 55.5322L7 55.5322C6.44772 55.5322 6 55.9799 6 56.5322C6 57.0845 6.44772 57.5322 7 57.5322L17 57.5322C17.5523 57.5322 18 57.0845 18 56.5322C18 55.9799 17.5523 55.5322 17 55.5322H15V51.5322H17C17.5523 51.5322 18 51.0845 18 50.5322L18 32.5322C18 31.9799 17.5523 31.5322 17 31.5322H13L13 26.5322C13 25.9799 13.4477 25.5322 14 25.5322H21.561L20.0512 56.4835C20.0233 57.0542 20.4786 57.5322 21.05 57.5322H30.95C31.5214 57.5322 31.9767 57.0542 31.9488 56.4835L30.6829 30.5322H40C40.5523 30.5322 41 30.9799 41 31.5322L41 34.5941C37.0537 35.0862 34 38.4526 34 42.5322L34 56.5322C34 57.0845 34.4477 57.5322 35 57.5322H49C49.5523 57.5322 50 57.0845 50 56.5322V42.5322C50 38.4526 46.9463 35.0862 43 34.5941ZM48 42.5322V55.5322H36L36 42.5322C36 39.2185 38.6863 36.5322 42 36.5322C45.3137 36.5322 48 39.2185 48 42.5322ZM22.0999 55.5322L23.9048 18.5322H28.0952L29.9001 55.5322H22.0999ZM8 49.5322L8 38.5322L16 38.5322L16 49.5322L8 49.5322ZM16 36.5322L8 36.5322L8 33.5322H16V36.5322ZM13 51.5322V55.5322H11V51.5322H13Z" fill="#0B0D0E"/>
</svg>
