<svg width="64" height="64" viewBox="0 0 64 64" fill="none" xmlns="http://www.w3.org/2000/svg">
<path d="M31.1397 58.8239C31.1397 59.2578 31.5897 59.6129 32.1397 59.6129C32.6897 59.6129 33.1397 59.2578 33.1397 58.8239L33.1396 5.17663C33.1396 4.74271 32.6896 4.3877 32.1396 4.3877C31.5896 4.3877 31.1396 4.74271 31.1396 5.17663L31.1397 58.8239Z" fill="#0B0D0E"/>
<path fill-rule="evenodd" clip-rule="evenodd" d="M45.1029 15.2173H37.1611V17.2173H45.1029L52.8486 25.6027V40.9987H37.1611V42.9987H52.8486V44.1914L52.0334 45.0066H37.1611V47.0066H52.0334C52.5638 47.0066 53.0725 46.7959 53.4476 46.4208L54.2628 45.6056C54.6379 45.2305 54.8486 44.7218 54.8486 44.1914V25.6027C54.8486 25.0997 54.6591 24.6151 54.3178 24.2456L53.0613 22.8854L54.1305 21.9277C54.9638 21.1812 55.0228 19.8964 54.2613 19.0767L51.4679 16.0698C50.7258 15.271 49.4804 15.2138 48.6682 15.9413L47.5621 16.9321L46.572 15.8602C46.1934 15.4504 45.6608 15.2173 45.1029 15.2173ZM52.796 20.438L50.0026 17.4311L48.9277 18.394L51.7211 21.4009L52.796 20.438Z" fill="#0B0D0E"/>
<path fill-rule="evenodd" clip-rule="evenodd" d="M27.1387 15.2198H15.081L9.33213 31.0224C9.21254 31.3512 9.15137 31.6983 9.15137 32.0481V43.9096C9.15137 45.5664 10.4945 46.9096 12.1514 46.9096L27.1387 46.9096V44.9096L12.1514 44.9096C11.5991 44.9096 11.1514 44.4619 11.1514 43.9096V32.0481C11.1514 31.9315 11.1718 31.8158 11.2116 31.7062L15.7813 19.1449L18.592 26.871C19.2421 28.6582 21.1669 29.2321 22.6356 28.5926C23.3403 30.2301 25.522 31.0606 27.1387 29.8889V27.0157L26.1603 28.0923C25.4331 28.8924 24.1299 28.1297 24.4714 27.1039L27.1387 19.0925V15.2198ZM17.2092 17.2198H25.6132L22.3509 26.1873C22.0317 27.0648 20.7907 27.0648 20.4715 26.1873L17.2092 17.2198Z" fill="#0B0D0E"/>
<path d="M13.6279 32.8979C13.6279 32.3457 14.0756 31.8979 14.6279 31.8979C15.1802 31.8979 15.6279 32.3457 15.6279 32.8979C15.6279 33.4502 15.1802 33.8979 14.6279 33.8979C14.0756 33.8979 13.6279 33.4502 13.6279 32.8979Z" fill="#0B0D0E"/>
<path d="M24.7295 35.7407C24.1772 35.7407 23.7295 36.1884 23.7295 36.7407C23.7295 37.293 24.1772 37.7407 24.7295 37.7407C25.2818 37.7407 25.7295 37.293 25.7295 36.7407C25.7295 36.1884 25.2818 35.7407 24.7295 35.7407Z" fill="#0B0D0E"/>
<path d="M16.1045 37.189C16.1045 36.6367 16.5522 36.189 17.1045 36.189C17.6568 36.189 18.1045 36.6367 18.1045 37.189C18.1045 37.7412 17.6568 38.189 17.1045 38.189C16.5522 38.189 16.1045 37.7412 16.1045 37.189Z" fill="#0B0D0E"/>
<path fill-rule="evenodd" clip-rule="evenodd" d="M46.0036 37.8682C43.6536 39.1872 41.6019 38.0549 40.2592 36.3606C38.1902 33.7499 39.3406 27.8527 39.3406 27.8527C39.3406 27.8527 45.3441 28.0793 47.4131 30.6901C48.7553 32.3838 49.389 34.6391 47.5707 36.6255L48.1952 37.4141C48.5381 37.8471 48.4651 38.4761 48.0321 38.819C47.5992 39.1619 46.9703 39.0889 46.6274 38.6559L46.0036 37.8682ZM43.5622 36.3982C43.0257 36.2702 42.4084 35.8525 41.8265 35.1183C41.5805 34.8078 41.3539 34.2913 41.2042 33.5394C41.058 32.8045 41.0106 31.9745 41.0237 31.1598C41.03 30.7673 41.0501 30.3902 41.0771 30.0438C41.4204 30.0967 41.7921 30.1632 42.1756 30.2467C42.9717 30.42 43.7689 30.6557 44.4509 30.9659C45.1487 31.2834 45.5997 31.622 45.8458 31.9324C46.4276 32.6666 46.6932 33.3631 46.6954 33.9147C46.6965 34.2113 46.6244 34.5879 46.3031 35.0248L44.3923 32.6119C44.0495 32.1789 43.4205 32.1059 42.9876 32.4488C42.5547 32.7917 42.4817 33.4207 42.8245 33.8537L44.7365 36.268C44.2358 36.483 43.8515 36.4673 43.5622 36.3982Z" fill="#0B0D0E"/>
<path d="M37.1611 19.0074H43.2024C43.4805 19.0074 43.746 19.1232 43.9353 19.327L48.1372 23.8527C48.7313 24.4925 48.2775 25.5331 47.4044 25.5331H37.1611V23.5331H45.1113L42.7663 21.0074H37.1611V19.0074Z" fill="#0B0D0E"/>
</svg>
