<svg width="64" height="64" viewBox="0 0 64 64" fill="none" xmlns="http://www.w3.org/2000/svg">
<path fill-rule="evenodd" clip-rule="evenodd" d="M37.5615 21.2755C37.5615 22.3801 36.6661 23.2755 35.5615 23.2755H34.8727V24.6981L38.8975 24.698V23.1245C38.8975 22.5722 39.3452 22.1245 39.8975 22.1245C40.4497 22.1245 40.8975 22.5722 40.8975 23.1245V28.2716C40.8975 28.8239 40.4497 29.2716 39.8975 29.2716C39.3452 29.2716 38.8975 28.8239 38.8975 28.2716V26.698L34.8727 26.6981V27.7463H36.438C37.5425 27.7463 38.438 28.6417 38.438 29.7463V32.9776L44.8709 39.3723C46.1927 40.6862 46.936 42.473 46.936 44.3368V55.9859H44.936V45.6203H37.8604V55.1272C37.8604 55.6794 37.4126 56.1272 36.8604 56.1272C36.3081 56.1272 35.8604 55.6794 35.8604 55.1272V45.6203C35.8604 44.5157 36.7558 43.6203 37.8604 43.6203H44.8844C44.73 42.5541 44.234 41.5592 43.4609 40.7907L37.028 34.396C36.6503 34.0206 36.438 33.5101 36.438 32.9776L36.438 29.7463H32.9926C33.0101 29.9112 33.0191 30.0788 33.0191 30.2484C33.0191 32.8414 30.9171 34.9435 28.324 34.9435C27.7569 34.9435 27.2133 34.843 26.7101 34.6588L20.5414 40.7907C19.5973 41.7293 19.0664 43.0055 19.0664 44.3368V55.9859H17.0664V44.3368C17.0664 42.473 17.8096 40.6862 19.1314 39.3723L24.9872 33.5514C24.1475 32.7031 23.6289 31.5363 23.6289 30.2484C23.6289 27.6554 25.731 25.5533 28.324 25.5533C28.5944 25.5533 28.8594 25.5761 29.1172 25.62V23.2755H28.4244C27.3198 23.2755 26.4244 22.3801 26.4244 21.2755V19.5201C26.4244 18.4155 27.3198 17.5201 28.4244 17.5201H35.5615C36.6661 17.5201 37.5615 18.4155 37.5615 19.5201V21.2755ZM32.8727 27.7461H32.2975C31.9859 27.2524 31.5849 26.8208 31.1172 26.4741V23.2755H32.8727V25.6417C32.8716 25.6603 32.8711 25.6791 32.8711 25.6981C32.8711 25.717 32.8716 25.7358 32.8727 25.7545V27.7461ZM35.5615 21.2755H32.9102C32.8977 21.2753 32.8852 21.2752 32.8727 21.2752L31.1172 21.2752C31.1047 21.2752 31.0921 21.2753 31.0797 21.2755H28.4244L28.4244 19.5201H35.5615V21.2755ZM28.324 27.5533C26.8356 27.5533 25.6289 28.7599 25.6289 30.2484C25.6289 31.3836 26.3308 32.3549 27.3242 32.752L27.3242 30.1028C27.3242 29.5505 27.7719 29.1028 28.3242 29.1028C28.8765 29.1028 29.3242 29.5505 29.3242 30.1028L29.3242 32.7518C30.3175 32.3546 31.0191 31.3835 31.0191 30.2484C31.0191 28.7599 29.8125 27.5533 28.324 27.5533Z" fill="#0B0D0E"/>
<path d="M61.5475 6.06605C62.048 5.63157 62.048 4.92714 61.5475 4.49266L58.9904 2.27265C58.5733 1.91058 57.8972 1.91058 57.4801 2.27265C57.0631 2.63471 57.0631 3.22174 57.4801 3.5838L58.2813 4.2794L52.1083 4.2794C50.0525 4.2794 48.3859 5.94597 48.3859 8.00179V8.30554C48.3859 10.1936 49.9165 11.7242 51.8045 11.7242C52.3568 11.7242 52.8045 11.2765 52.8045 10.7242C52.8045 10.1719 52.3568 9.72418 51.8045 9.72418C51.021 9.72418 50.3859 9.08904 50.3859 8.30554V8.00179C50.3859 7.05054 51.157 6.2794 52.1083 6.2794L58.2813 6.2794L57.4801 6.97491C57.0631 7.33698 57.0631 7.924 57.4801 8.28607C57.8972 8.64813 58.5733 8.64813 58.9904 8.28607L61.5475 6.06605Z" fill="#0B0D0E"/>
<path d="M56.0844 9.72418C55.5321 9.72418 55.0844 10.1719 55.0844 10.7242C55.0844 11.2765 55.5321 11.7242 56.0844 11.7242H56.5041C57.4554 11.7242 58.2265 12.4953 58.2265 13.4466C58.2265 14.3978 57.4554 15.169 56.5041 15.169L50.1368 15.169L50.9379 14.4735C51.355 14.1114 51.355 13.5244 50.9379 13.1623C50.5209 12.8002 49.8447 12.8002 49.4277 13.1623L46.8706 15.3823C46.3701 15.8168 46.3701 16.5212 46.8706 16.9557L49.4277 19.1757C49.8447 19.5378 50.5209 19.5378 50.9379 19.1757C51.355 18.8136 51.355 18.2266 50.9379 17.8646L50.1367 17.169L56.5041 17.169C58.56 17.169 60.2265 15.5024 60.2265 13.4466C60.2265 11.3908 58.5599 9.72418 56.5041 9.72418H56.0844Z" fill="#0B0D0E"/>
</svg>
