<svg width="64" height="64" viewBox="0 0 64 64" fill="none" xmlns="http://www.w3.org/2000/svg">
<path d="M32.4609 59.9439C31.9109 59.9439 31.4609 59.5889 31.4609 59.155L31.4609 5.50768C31.4609 5.07377 31.9109 4.71875 32.4609 4.71875C33.0109 4.71875 33.4609 5.07377 33.4609 5.50768L33.4609 59.155C33.4609 59.5889 33.0109 59.9439 32.4609 59.9439Z" fill="#0B0D0E"/>
<path d="M35.8594 48.3223H38.9506C44.4735 48.3223 48.9506 43.8452 48.9506 38.3223V17.3401C48.9506 16.7878 48.5029 16.3401 47.9506 16.3401C47.3983 16.3401 46.9506 16.7878 46.9506 17.3401V28.9623C43.4626 27.0271 39.1575 27.2268 35.8594 29.4972V32.0165C36.0318 31.8899 36.2012 31.7575 36.3674 31.6191C39.3633 29.1255 43.6665 28.9739 46.8305 31.2504L46.9506 31.3368V38.3223C46.9506 42.7406 43.3689 46.3223 38.9506 46.3223H35.8594V48.3223Z" fill="#0B0D0E"/>
<path d="M44.0215 35.8647C44.0215 35.3125 44.4692 34.8647 45.0215 34.8647H45.0315C45.5838 34.8647 46.0315 35.3125 46.0315 35.8647C46.0315 36.417 45.5838 36.8647 45.0315 36.8647H45.0215C44.4692 36.8647 44.0215 36.417 44.0215 35.8647Z" fill="#0B0D0E"/>
<path d="M40.4414 37.8665C39.8891 37.8665 39.4414 38.3142 39.4414 38.8665C39.4414 39.4188 39.8891 39.8665 40.4414 39.8665H40.4514C41.0037 39.8665 41.4514 39.4188 41.4514 38.8665C41.4514 38.3142 41.0037 37.8665 40.4514 37.8665H40.4414Z" fill="#0B0D0E"/>
<path d="M36.499 35.3051C36.499 34.7528 36.9467 34.3051 37.499 34.3051H37.509C38.0613 34.3051 38.509 34.7528 38.509 35.3051C38.509 35.8573 38.0613 36.3051 37.509 36.3051H37.499C36.9467 36.3051 36.499 35.8573 36.499 35.3051Z" fill="#0B0D0E"/>
<path d="M41.9639 31.3438C41.4116 31.3438 40.9639 31.7915 40.9639 32.3438C40.9639 32.896 41.4116 33.3438 41.9639 33.3438H41.9739C42.5262 33.3438 42.9739 32.896 42.9739 32.3438C42.9739 31.7915 42.5262 31.3438 41.9739 31.3438H41.9639Z" fill="#0B0D0E"/>
<path d="M35.7734 42.9502C35.7734 42.3979 36.2212 41.9502 36.7734 41.9502H36.7834C37.3357 41.9502 37.7834 42.3979 37.7834 42.9502C37.7834 43.5025 37.3357 43.9502 36.7834 43.9502H36.7734C36.2212 43.9502 35.7734 43.5025 35.7734 42.9502Z" fill="#0B0D0E"/>
<path d="M43.1426 41.9502C42.5903 41.9502 42.1426 42.3979 42.1426 42.9502C42.1426 43.5025 42.5903 43.9502 43.1426 43.9502H43.1526C43.7049 43.9502 44.1526 43.5025 44.1526 42.9502C44.1526 42.3979 43.7049 41.9502 43.1526 41.9502H43.1426Z" fill="#0B0D0E"/>
<path fill-rule="evenodd" clip-rule="evenodd" d="M29.0625 31.5099C26.3903 32.5185 23.3136 32.1448 20.9247 30.3601L17.9268 28.1204V17.3401C17.9268 16.7878 17.479 16.3401 16.9268 16.3401C16.3745 16.3401 15.9268 16.7878 15.9268 17.3401V38.3223C15.9268 43.8452 20.4039 48.3223 25.9268 48.3223H29.0625V46.3223H25.9268C25.3618 46.3223 24.8106 46.2638 24.2787 46.1524L29.4186 41.0125C29.8091 40.622 29.8091 39.9888 29.4186 39.5983C29.0281 39.2078 28.3949 39.2078 28.0044 39.5983L22.1998 45.4029C21.2557 44.905 20.4232 44.2237 19.7498 43.4065L28.7638 34.3926C28.9752 34.1811 29.0722 33.8986 29.0546 33.6219L29.0625 33.6196V31.5099ZM26.2699 34.058L18.6585 41.6694C18.1888 40.6511 17.9268 39.5173 17.9268 38.3223V38.0033L22.4863 33.4444C23.7083 33.8817 24.9917 34.0856 26.2699 34.058ZM20.5708 32.5315L17.9268 35.1751V30.4958L19.7277 31.9623C20.0017 32.1671 20.2831 32.3568 20.5708 32.5315Z" fill="#0B0D0E"/>
</svg>
