<svg width="64" height="64" viewBox="0 0 64 64" fill="none" xmlns="http://www.w3.org/2000/svg">
<path fill-rule="evenodd" clip-rule="evenodd" d="M30.9262 13.498C31.5814 13.0811 32.4186 13.0811 33.0738 13.498L54.5369 27.1563C55.0028 27.4528 55.1402 28.0709 54.8437 28.5369C54.5472 29.0028 53.9291 29.1402 53.4631 28.8437L32 15.1853L10.5369 28.8437C10.0709 29.1402 9.45285 29.0028 9.15634 28.5369C8.85983 28.0709 8.99718 27.4528 9.46312 27.1563L30.9262 13.498Z" fill="#0B0D0E"/>
<path fill-rule="evenodd" clip-rule="evenodd" d="M18.4062 16.3999H20.4062V21.2015L22.4062 20.0569V15.3999C22.4062 14.8476 21.9585 14.3999 21.4062 14.3999H17.4062C16.854 14.3999 16.4062 14.8476 16.4062 15.3999V23.4906L19.2607 21.8571H18.4062V16.3999Z" fill="#0B0D0E"/>
<path fill-rule="evenodd" clip-rule="evenodd" d="M14 25V51.0966C14 52.2012 14.8954 53.0966 16 53.0966H48C49.1046 53.0966 50 52.2012 50 51.0966V25H48V51.0966H16V25H14Z" fill="#0B0D0E"/>
<path fill-rule="evenodd" clip-rule="evenodd" d="M25 41.2321V53H39V41.2321C39 41.2321 39 34 32 34C25 34 25 41.2321 25 41.2321ZM37 41.2414L36.9993 41.2154C36.9984 41.1853 36.9961 41.1321 36.9911 41.0593C36.981 40.913 36.9598 40.6915 36.9161 40.4206C36.8272 39.8692 36.653 39.1657 36.3247 38.4873C35.9995 37.8153 35.5462 37.2137 34.9124 36.7771C34.2944 36.3514 33.3864 36 32 36C30.6136 36 29.7056 36.3514 29.0876 36.7771C28.4538 37.2137 28.0005 37.8153 27.6753 38.4873C27.347 39.1657 27.1728 39.8692 27.0838 40.4206C27.0402 40.6915 27.019 40.913 27.0089 41.0593C27.0039 41.1321 27.0016 41.1853 27.0007 41.2154L27 41.2414V51H37V41.2414Z" fill="#0B0D0E"/>
<path fill-rule="evenodd" clip-rule="evenodd" d="M18.7071 55.2929C19.0976 55.6834 19.0976 56.3166 18.7071 56.7071L18.4142 57L45.5858 57L45.2929 56.7071C44.9024 56.3166 44.9024 55.6834 45.2929 55.2929C45.6834 54.9024 46.3166 54.9024 46.7071 55.2929L49.4142 58L46.7071 60.7071C46.3166 61.0976 45.6834 61.0976 45.2929 60.7071C44.9024 60.3166 44.9024 59.6834 45.2929 59.2929L45.5858 59L18.4142 59L18.7071 59.2929C19.0976 59.6834 19.0976 60.3166 18.7071 60.7071C18.3166 61.0976 17.6834 61.0976 17.2929 60.7071L14.5858 58L17.2929 55.2929C17.6834 54.9024 18.3166 54.9024 18.7071 55.2929Z" fill="#0B0D0E"/>
<path fill-rule="evenodd" clip-rule="evenodd" d="M7 13.5858L9.70711 16.2929C10.0976 16.6834 10.0976 17.3166 9.70711 17.7071C9.31658 18.0976 8.68342 18.0976 8.29289 17.7071L8 17.4142V48.5858L8.29289 48.2929C8.68342 47.9024 9.31658 47.9024 9.70711 48.2929C10.0976 48.6834 10.0976 49.3166 9.70711 49.7071L7 52.4142L4.29289 49.7071C3.90237 49.3166 3.90237 48.6834 4.29289 48.2929C4.68342 47.9024 5.31658 47.9024 5.70711 48.2929L6 48.5858V17.4142L5.70711 17.7071C5.31658 18.0976 4.68342 18.0976 4.29289 17.7071C3.90237 17.3166 3.90237 16.6834 4.29289 16.2929L7 13.5858Z" fill="#0B0D0E"/>
<path fill-rule="evenodd" clip-rule="evenodd" d="M54.958 2.42736C56.5357 2.07372 58.3756 1.94653 60.2975 2.02004L61.1917 2.05424L61.2566 2.94676C61.5486 6.96045 60.5295 10.6453 58.2539 12.6461C57.3023 13.4828 56.0783 14.1234 54.6623 14.13C53.228 14.1366 51.7745 13.4921 50.3853 12.1022C49.0785 10.7949 48.8137 9.21727 49.1087 7.79132C49.3941 6.41122 50.1965 5.16675 51.0517 4.31152C51.9936 3.36963 53.401 2.77639 54.958 2.42736ZM55.3955 4.37893C54.0071 4.69015 53.024 5.1677 52.4659 5.72574C51.8212 6.37044 51.2567 7.28022 51.0672 8.19643C50.8872 9.06679 51.0392 9.92747 51.7998 10.6883C52.9095 11.7985 53.8766 12.1336 54.6531 12.13C55.448 12.1263 56.225 11.7668 56.9333 11.1441C58.4109 9.84493 59.3626 7.27158 59.3034 4.00003C57.8592 3.9976 56.5272 4.12525 55.3955 4.37893Z" fill="#0B0D0E"/>
<path fill-rule="evenodd" clip-rule="evenodd" d="M42.4968 11.7284C42.2087 10.7693 42.0524 9.65121 42.0139 8.48726L41.9843 7.59288L42.87 7.46455C45.292 7.1136 47.6653 7.55602 49.0717 8.94254C49.6531 9.51579 50.1469 10.2987 50.2201 11.2612C50.2947 12.242 49.9194 13.2313 49.1041 14.1716C48.2837 15.1178 47.2186 15.3741 46.2491 15.2447C45.326 15.1215 44.4854 14.6565 43.8982 14.1476C43.2184 13.5584 42.7789 12.6673 42.4968 11.7284ZM44.4123 11.1531C44.6446 11.9264 44.9385 12.4025 45.2081 12.6362C45.5703 12.9502 46.0601 13.2018 46.5137 13.2623C46.9209 13.3167 47.2788 13.2238 47.593 12.8614C48.1493 12.2199 48.2506 11.7378 48.2259 11.4129C48.1998 11.0697 48.0183 10.7126 47.6676 10.3668C47.0073 9.71586 45.7374 9.28372 44.0744 9.35641C44.1417 10.0251 44.2562 10.6334 44.4123 11.1531Z" fill="#0B0D0E"/>
<path fill-rule="evenodd" clip-rule="evenodd" d="M55.7993 7.4C56.1306 7.84183 56.0411 8.46863 55.5993 8.8C53.8609 10.1038 52.8144 12.3476 52.2086 14.4072C51.9114 15.4176 51.7324 16.3418 51.628 17.0131C51.5759 17.3479 51.5427 17.6179 51.5227 17.8016C51.5127 17.8935 51.506 17.9636 51.5019 18.0095L51.4976 18.0597L51.4968 18.0704L51.4967 18.0717C51.4967 18.0717 51.4967 18.0716 51.494 18.0714L49.5218 18.1959C49.5188 18.1966 49.5188 18.1966 49.5188 18.1966L49.5176 18.1911L49.5106 18.1586C49.5039 18.1281 49.4931 18.0804 49.4777 18.0174C49.4471 17.8913 49.3986 17.7044 49.3297 17.4721C49.1913 17.006 48.9725 16.3644 48.6527 15.6667C48.0016 14.2462 46.9889 12.7172 45.5031 11.8682C45.0236 11.5942 44.857 10.9834 45.131 10.5039C45.405 10.0243 46.0159 9.85775 46.4954 10.1318C48.2613 11.1408 49.4299 12.7802 50.1791 14.2335C50.2142 14.1049 50.2511 13.9746 50.2899 13.8428C50.9341 11.6524 52.1377 8.8962 54.3993 7.2C54.8411 6.86863 55.4679 6.95817 55.7993 7.4Z" fill="#0B0D0E"/>
</svg>
