<svg width="64" height="64" viewBox="0 0 64 64" fill="none" xmlns="http://www.w3.org/2000/svg">
<path fill-rule="evenodd" clip-rule="evenodd" d="M47.143 51.5858C47.6147 50.9859 47.8908 50.0534 47.8908 48.8949C47.8908 48.3457 47.6952 47.6406 47.2668 46.8049C46.8464 45.9848 46.2632 45.1577 45.642 44.3994C45.2455 43.9154 44.8468 43.4752 44.4877 43.1006C44.1285 43.4752 43.7298 43.9154 43.3333 44.3994C42.7121 45.1577 42.1289 45.9848 41.7085 46.8049C41.2801 47.6406 41.0845 48.3457 41.0845 48.8949C41.0845 50.0534 41.3606 50.9859 41.8323 51.5858C42.2402 52.1045 42.9715 52.607 44.4877 52.607C46.0038 52.607 46.7351 52.1045 47.143 51.5858ZM44.4877 54.607C48.5569 54.607 49.8908 51.751 49.8908 48.8949C49.8908 44.9515 44.4877 40.3268 44.4877 40.3268C44.4877 40.3268 39.0845 44.9515 39.0845 48.8949C39.0845 51.751 40.4184 54.607 44.4877 54.607Z" fill="#0B0D0E"/>
<path fill-rule="evenodd" clip-rule="evenodd" d="M34.6538 51.5858C35.1254 50.9859 35.4016 50.0534 35.4016 48.8949C35.4016 48.3457 35.206 47.6406 34.7776 46.8049C34.3571 45.9848 33.7739 45.1577 33.1528 44.3994C32.7563 43.9154 32.3575 43.4752 31.9984 43.1006C31.6393 43.4752 31.2405 43.9154 30.844 44.3994C30.2229 45.1577 29.6397 45.9848 29.2192 46.8049C28.7908 47.6406 28.5952 48.3457 28.5952 48.8949C28.5952 50.0534 28.8714 50.9859 29.343 51.5858C29.7509 52.1045 30.4823 52.607 31.9984 52.607C33.5145 52.607 34.2459 52.1045 34.6538 51.5858ZM31.9984 54.607C36.0676 54.607 37.4016 51.751 37.4016 48.8949C37.4016 44.9515 31.9984 40.3268 31.9984 40.3268C31.9984 40.3268 26.5952 44.9515 26.5952 48.8949C26.5952 51.751 27.9292 54.607 31.9984 54.607Z" fill="#0B0D0E"/>
<path fill-rule="evenodd" clip-rule="evenodd" d="M22.164 51.5858C22.6357 50.9859 22.9118 50.0534 22.9118 48.8949C22.9118 48.3457 22.7162 47.6406 22.2878 46.8049C21.8674 45.9848 21.2842 45.1577 20.663 44.3994C20.2665 43.9154 19.8678 43.4752 19.5087 43.1006C19.1495 43.4752 18.7508 43.9154 18.3543 44.3994C17.7331 45.1577 17.1499 45.9848 16.7295 46.8049C16.3011 47.6406 16.1055 48.3457 16.1055 48.8949C16.1055 50.0534 16.3816 50.9859 16.8533 51.5858C17.2612 52.1045 17.9925 52.607 19.5087 52.607C21.0248 52.607 21.7561 52.1045 22.164 51.5858ZM19.5087 54.607C23.5779 54.607 24.9118 51.751 24.9118 48.8949C24.9118 44.9515 19.5087 40.3268 19.5087 40.3268C19.5087 40.3268 14.1055 44.9515 14.1055 48.8949C14.1055 51.751 15.4394 54.607 19.5087 54.607Z" fill="#0B0D0E"/>
<path fill-rule="evenodd" clip-rule="evenodd" d="M11 36.8689C11 36.3166 11.4477 35.8689 12 35.8689L52 35.8689C52.5523 35.8689 53 36.3166 53 36.8689C53 37.4212 52.5523 37.8689 52 37.8689L12 37.8689C11.4477 37.8689 11 37.4212 11 36.8689Z" fill="#0B0D0E"/>
<path fill-rule="evenodd" clip-rule="evenodd" d="M23.7632 25.8464C24.0372 25.3669 24.648 25.2003 25.1275 25.4743L24.6314 26.3425C25.1275 25.4743 25.1275 25.4743 25.1275 25.4743L25.1311 25.4763L25.1373 25.4799L25.1576 25.4917C25.1746 25.5017 25.1985 25.5157 25.2287 25.5339C25.289 25.5701 25.3749 25.6225 25.4827 25.6907C25.6981 25.827 26.0016 26.0265 26.364 26.2854C27.0869 26.8018 28.0531 27.5605 29.0227 28.5302C30.9366 30.444 32.9998 33.3177 32.9998 36.8688C32.9998 37.4211 32.5521 37.8688 31.9998 37.8688C31.4475 37.8688 30.9998 37.4211 30.9998 36.8688C30.9998 34.1042 29.3788 31.7147 27.6085 29.9444C26.736 29.0719 25.8601 28.3833 25.2015 27.9128C24.873 27.6782 24.6009 27.4995 24.4134 27.3809C24.3197 27.3216 24.2472 27.2774 24.1997 27.2488C24.1759 27.2346 24.1583 27.2242 24.1474 27.2179L24.1353 27.2108M23.7632 25.8464C23.4892 26.3257 23.6561 26.9366 24.1353 27.2108L23.7632 25.8464Z" fill="#0B0D0E"/>
<path fill-rule="evenodd" clip-rule="evenodd" d="M40.2367 21.1096C40.4594 21.514 40.3729 22.0188 40.0283 22.3261L39.8583 22.4777C39.8494 22.483 39.8338 22.4923 39.812 22.5058C39.7685 22.5328 39.7001 22.5762 39.6104 22.6366C39.431 22.7575 39.167 22.9457 38.8463 23.2053C38.2044 23.725 37.34 24.5268 36.4736 25.6407C34.7479 27.8594 33 31.3324 33 36.3426C33 36.8948 32.5523 37.3426 32 37.3426C31.4477 37.3426 31 36.8948 31 36.3426C31 30.8264 32.9363 26.931 34.8949 24.4128C35.8706 23.1583 36.8483 22.2496 37.5879 21.6508C37.958 21.3512 38.2697 21.1283 38.4932 20.9778C38.605 20.9024 38.695 20.8451 38.7593 20.8053C38.7915 20.7854 38.8173 20.7698 38.8363 20.7585L38.8596 20.7448L38.8673 20.7403L38.8701 20.7387L38.8713 20.738C38.8713 20.738 39.7005 22.1869 38.8723 20.7375C39.3518 20.4635 39.9627 20.6301 40.2367 21.1096Z" fill="#0B0D0E"/>
<path fill-rule="evenodd" clip-rule="evenodd" d="M40.5695 24.6807C41.4681 24.5735 42.4526 24.0292 43.3772 23.1052C43.8383 22.6444 44.2497 21.907 44.5735 20.9033C44.8919 19.9162 45.0848 18.7995 45.1932 17.7137C45.2712 16.9318 45.3029 16.1921 45.3114 15.566C44.6852 15.574 43.9455 15.6052 43.1636 15.6827C42.0777 15.7903 40.9609 15.9824 39.9735 16.3001C38.9696 16.6232 38.2319 17.0341 37.7708 17.4948C36.8462 18.4188 36.3011 19.4029 36.1933 20.3014C36.0978 21.0975 36.3061 22.122 37.5276 23.3443C38.749 24.5666 39.7734 24.7756 40.5695 24.6807ZM36.1129 24.758C39.2887 27.9361 42.5604 26.7489 44.791 24.5199C47.8707 21.4423 47.2658 13.613 47.2658 13.613C47.2658 13.613 39.4369 13.0025 36.3571 16.0801C34.1265 18.3091 32.937 21.5799 36.1129 24.758Z" fill="#0B0D0E"/>
<path fill-rule="evenodd" clip-rule="evenodd" d="M23.5457 29.6309C22.6472 29.5237 21.6626 28.9794 20.738 28.0554C20.2769 27.5946 19.8655 26.8572 19.5417 25.8535C19.2233 24.8664 19.0304 23.7497 18.9221 22.6639C18.844 21.882 18.8123 21.1423 18.8038 20.5162C19.43 20.5242 20.1697 20.5554 20.9517 20.6329C22.0376 20.7405 23.1544 20.9326 24.1417 21.2503C25.1457 21.5734 25.8834 21.9843 26.3444 22.445C27.2691 23.369 27.8141 24.3531 27.9219 25.2516C28.0174 26.0477 27.8091 27.0722 26.5877 28.2945C25.3662 29.5168 24.3418 29.7258 23.5457 29.6309ZM28.0024 29.7082C24.8265 32.8863 21.5549 31.6991 19.3243 29.4701C16.2445 26.3925 16.8495 18.5632 16.8495 18.5632C16.8495 18.5632 24.6784 17.9527 27.7581 21.0303C29.9887 23.2593 31.1782 26.5301 28.0024 29.7082Z" fill="#0B0D0E"/>
<path d="M31.4961 31.6797L31.4688 31.6446L30.8242 32.1524L30.9336 35.875L30.5547 37.8633H33.1172L33.0391 36.4844L33.0078 35.875L32.7266 32.3203L31.5352 31.5743L31.4961 31.6797Z" fill="#0B0D0E"/>
</svg>
