<svg width="64" height="64" viewBox="0 0 64 64" fill="none" xmlns="http://www.w3.org/2000/svg">
<path fill-rule="evenodd" clip-rule="evenodd" d="M47.6277 17.7837C50.3027 19.8451 52.9763 18.7726 54.8504 16.8999C57.6807 14.0716 57.1247 6.87656 57.1247 6.87656C57.1247 6.87656 49.93 6.31552 47.0998 9.14382C45.2249 11.0174 44.1504 13.6918 46.2136 16.3694L45.3822 17.2008C44.9917 17.5913 44.9917 18.2245 45.3822 18.615C45.7728 19.0055 46.4059 19.0055 46.7964 18.615L47.6277 17.7837ZM50.9517 16.8868C51.7293 16.794 52.6024 16.3189 53.4367 15.4852C53.8354 15.0868 54.2031 14.4358 54.4963 13.5266C54.7843 12.634 54.9599 11.62 55.0588 10.629C55.1231 9.98411 55.153 9.37037 55.1638 8.83605C54.6295 8.84652 54.0157 8.87593 53.3708 8.93983C52.3798 9.03803 51.3656 9.21292 50.4728 9.50023C49.5634 9.79287 48.9122 10.1601 48.5135 10.5585C47.6792 11.3922 47.2034 12.265 47.1101 13.0425C47.0489 13.5524 47.1299 14.1873 47.6443 14.9387L50.5849 11.998C50.9754 11.6075 51.6086 11.6075 51.9991 11.998C52.3896 12.3886 52.3896 13.0217 51.9991 13.4122L49.0584 16.353C49.8084 16.8664 50.4423 16.9475 50.9517 16.8868Z" fill="#0B0D0E"/>
<path fill-rule="evenodd" clip-rule="evenodd" d="M31 37.9985C30.4477 37.9985 30 38.4462 30 38.9985V44.9985C30 45.5508 30.4477 45.9985 31 45.9985H37C37.5523 45.9985 38 45.5508 38 44.9985V38.9985C38 38.4462 37.5523 37.9985 37 37.9985H31ZM32 39.9985V43.9985H36V39.9985H32Z" fill="#0B0D0E"/>
<path fill-rule="evenodd" clip-rule="evenodd" d="M40 38.9985C40 38.4462 40.4477 37.9985 41 37.9985H47C47.5523 37.9985 48 38.4462 48 38.9985V44.9985C48 45.5508 47.5523 45.9985 47 45.9985H41C40.4477 45.9985 40 45.5508 40 44.9985V38.9985ZM42 43.9985V39.9985H46V43.9985H42Z" fill="#0B0D0E"/>
<path fill-rule="evenodd" clip-rule="evenodd" d="M11.9151 13.3101C11.9626 12.2411 12.843 11.3989 13.9131 11.3989H22.0869C23.1569 11.3989 24.0374 12.2411 24.0849 13.3101L24.6878 26.8754L52.5007 33.5397C53.3842 33.7514 54.014 34.532 54.0342 35.4403L54.4539 54.3545C54.4787 55.4762 53.5763 56.3989 52.4544 56.3989H23.9992L23.9991 56.3969C23.9693 56.3983 23.9393 56.3989 23.9091 56.3989H12.0909C10.9514 56.3989 10.0422 55.4484 10.0928 54.3101L11.9151 13.3101ZM13.9131 13.3989H22.0869L23.9091 54.3989H12.0909L13.9131 13.3989ZM25.9144 54.3989L24.8122 28.9618L52.0347 35.4846L52.4544 54.3989H25.9144Z" fill="#0B0D0E"/>
</svg>
