<svg width="64" height="64" viewBox="0 0 64 64" fill="none" xmlns="http://www.w3.org/2000/svg">
<path d="M45 11H35V9H45V11Z" fill="#212121"/>
<path d="M48 41V21H50V41C50 43.2091 48.2091 45 46 45V48C46 48.5523 45.5523 49 45 49H44.5109L46.5214 54.3614C46.7154 54.8785 46.4534 55.4549 45.9362 55.6489C45.4191 55.8428 44.8427 55.5808 44.6488 55.0636L44.2499 54H35V52H43.4999L42.3749 49H35V47H44V45H35V43H46C47.1046 43 48 42.1046 48 41Z" fill="#212121"/>
<path d="M18 43H29V45H20V47H29V49H21.3859L20.2609 52H29V54H19.5109L19.2237 54.7659C19.0298 55.2831 18.4533 55.5451 17.9362 55.3511C17.4191 55.1572 17.1571 54.5808 17.351 54.0637L19.2499 49H19C18.4477 49 18 48.5523 18 48L18 45C15.7909 45 14 43.2091 14 41V21H16V41C16 42.1046 16.8954 43 18 43Z" fill="#212121"/>
<path d="M29 11V9H20V11H29Z" fill="#212121"/>
<path d="M22 26V18H29V16H21C20.4477 16 20 16.4477 20 17V27C20 27.5523 20.4477 28 21 28H29V26H22Z" fill="#212121"/>
<path d="M43 28H35V26H42V18H35V16H43C43.5523 16 44 16.4477 44 17V27C44 27.5523 43.5523 28 43 28Z" fill="#212121"/>
<path fill-rule="evenodd" clip-rule="evenodd" d="M26 35.5C26 37.433 24.433 39 22.5 39C20.567 39 19 37.433 19 35.5C19 33.567 20.567 32 22.5 32C24.433 32 26 33.567 26 35.5ZM22.5 37C23.3284 37 24 36.3284 24 35.5C24 34.6716 23.3284 34 22.5 34C21.6716 34 21 34.6716 21 35.5C21 36.3284 21.6716 37 22.5 37Z" fill="#212121"/>
<path fill-rule="evenodd" clip-rule="evenodd" d="M41.5 39C43.433 39 45 37.433 45 35.5C45 33.567 43.433 32 41.5 32C39.567 32 38 33.567 38 35.5C38 37.433 39.567 39 41.5 39ZM43 35.5C43 36.3284 42.3284 37 41.5 37C40.6716 37 40 36.3284 40 35.5C40 34.6716 40.6716 34 41.5 34C42.3284 34 43 34.6716 43 35.5Z" fill="#212121"/>
<path d="M31 9C31 8.44771 31.4477 8 32 8V8C32.5523 8 33 8.44772 33 9V55C33 55.5523 32.5523 56 32 56V56C31.4477 56 31 55.5523 31 55V9Z" fill="#212121"/>
<path d="M9.47158 5.70243C9.85949 5.30931 9.85526 4.67616 9.46214 4.28825C9.06901 3.90034 8.43586 3.90457 8.04795 4.29769L6.28819 6.08111C5.90028 6.47423 5.90451 7.10738 6.29763 7.49529C6.69075 7.8832 7.3239 7.87897 7.71181 7.48585L9.47158 5.70243Z" fill="#212121"/>
<path fill-rule="evenodd" clip-rule="evenodd" d="M10.5703 10.1358C10.5703 9.58488 11.017 9.13824 11.5679 9.13824H12.1657C13.8907 9.13824 15.2891 10.5366 15.2891 12.2616C15.2891 13.9865 13.8907 15.3849 12.1657 15.3849H11.5679C11.017 15.3849 10.5703 14.9383 10.5703 14.3873V10.1358ZM12.0703 10.6382V13.8849H12.1657C13.0623 13.8849 13.7891 13.1581 13.7891 12.2616C13.7891 11.365 13.0623 10.6382 12.1657 10.6382H12.0703Z" fill="#212121"/>
<path fill-rule="evenodd" clip-rule="evenodd" d="M11.0456 5.15968C11.2306 4.98743 11.4741 4.89166 11.7269 4.89166H17.3828C17.9351 4.89166 18.3828 5.33938 18.3828 5.89166V18.1974C18.3828 18.7496 17.9351 19.1974 17.3828 19.1974H7.88086C7.32857 19.1974 6.88086 18.7496 6.88086 18.1974V9.4715C6.88086 9.19385 6.9963 8.92869 7.19954 8.73952L11.0456 5.15968ZM12.1203 6.89166L8.88086 9.90686V17.1974H16.3828V6.89166H12.1203Z" fill="#212121"/>
<path fill-rule="evenodd" clip-rule="evenodd" d="M47.356 11.9424L50.7931 6.00526L52.524 7.00729L49.0869 12.9444C49.0483 13.0111 49.0964 13.0945 49.1734 13.0945H50.9369C50.9833 13.0945 51.0287 13.0976 51.0732 13.1036C51.1439 13.1132 51.212 13.1301 51.2768 13.1534C51.5042 13.2354 51.6911 13.3972 51.8073 13.6018C51.9223 13.8042 51.9681 14.0486 51.9158 14.2992L51.2079 17.6846C51.1619 17.9045 51.4577 18.0214 51.5745 17.8295L55.1975 11.8796C55.2381 11.813 55.1902 11.7276 55.1121 11.7276H53.2424C53.2321 11.7276 53.2219 11.7275 53.2117 11.7272C53.1282 11.7247 53.0476 11.7121 52.971 11.6906C52.7208 11.6204 52.5129 11.4558 52.384 11.2409C52.2638 11.0405 52.2123 10.7963 52.2594 10.5442L52.8937 7.14417C52.9349 6.92323 52.6366 6.81278 52.524 7.00729L50.7931 6.00526C52.0318 3.86563 55.3131 5.08062 54.8597 7.51095L54.4462 9.72763H55.1121C56.7506 9.72763 57.7579 11.5204 56.9058 12.9198L53.2827 18.8697C51.9973 20.9808 48.7444 19.6946 49.2503 17.2753L49.7062 15.0945H49.1734C47.5553 15.0945 46.5457 13.342 47.356 11.9424Z" fill="#212121"/>
</svg>
