<svg width="64" height="64" viewBox="0 0 64 64" fill="none" xmlns="http://www.w3.org/2000/svg">
<path d="M35 48.369V49.3886V50.4082L43.3018 48.7557C43.3124 48.8163 43.3287 48.8767 43.351 48.9363L44.4999 52H35V54H45.2499L45.6488 55.0636C45.8427 55.5808 46.4191 55.8428 46.9362 55.6489C47.4534 55.4549 47.7154 54.8785 47.5214 54.3614L45.264 48.3417C46.8463 47.8179 47.7233 46.0696 47.1311 44.4595L46.6969 43.2792L46.7372 43.2716C48.629 42.9169 50 41.265 50 39.3401V21H48V29H35V31H48V39.3401C48 40.3026 47.3145 41.1285 46.3686 41.3059L35 43.4375V45.4724L44.7034 43.653L45.254 45.1499C45.466 45.7264 45.1131 46.356 44.5107 46.4759L35 48.369Z" fill="#212121"/>
<path d="M29 48.369L19.4893 46.4759C18.8869 46.356 18.534 45.7264 18.746 45.1499L19.2966 43.653L29 45.4724V43.4375L17.6314 41.3059C16.6855 41.1285 16 40.3026 16 39.3401V31H29V29H16V21H14V39.3401C14 41.265 15.371 42.9169 17.2628 43.2716L17.3031 43.2792L16.8689 44.4595C16.2328 46.1889 17.2916 48.0777 19.0989 48.4374L19.4357 48.5044L17.351 54.0637C17.1571 54.5808 17.4191 55.1572 17.9362 55.3511C18.4533 55.5451 19.0298 55.2831 19.2237 54.7659L19.5109 54H29V52H20.2609L21.4234 48.9001L29 50.4082V48.369Z" fill="#212121"/>
<path d="M35 9H45V11H35V9Z" fill="#212121"/>
<path d="M20 9H29V11H20V9Z" fill="#212121"/>
<path d="M35 16H45V18H35V16Z" fill="#212121"/>
<path d="M29 16H20V18H29V16Z" fill="#212121"/>
<path fill-rule="evenodd" clip-rule="evenodd" d="M26 36.5C26 38.433 24.433 40 22.5 40C20.567 40 19 38.433 19 36.5C19 34.567 20.567 33 22.5 33C24.433 33 26 34.567 26 36.5ZM22.5 38C23.3284 38 24 37.3284 24 36.5C24 35.6716 23.3284 35 22.5 35C21.6716 35 21 35.6716 21 36.5C21 37.3284 21.6716 38 22.5 38Z" fill="#212121"/>
<path fill-rule="evenodd" clip-rule="evenodd" d="M41.5 40C43.433 40 45 38.433 45 36.5C45 34.567 43.433 33 41.5 33C39.567 33 38 34.567 38 36.5C38 38.433 39.567 40 41.5 40ZM43 36.5C43 37.3284 42.3284 38 41.5 38C40.6716 38 40 37.3284 40 36.5C40 35.6716 40.6716 35 41.5 35C42.3284 35 43 35.6716 43 36.5Z" fill="#212121"/>
<path d="M31 9C31 8.44771 31.4477 8 32 8C32.5523 8 33 8.44772 33 9V55C33 55.5523 32.5523 56 32 56C31.4477 56 31 55.5523 31 55V9Z" fill="#212121"/>
<path d="M9.47158 5.70237C9.85949 5.30925 9.85526 4.6761 9.46214 4.28819C9.06901 3.90028 8.43586 3.90451 8.04795 4.29763L6.28819 6.08105C5.90028 6.47417 5.90451 7.10732 6.29763 7.49523C6.69075 7.88314 7.3239 7.87891 7.71181 7.48579L9.47158 5.70237Z" fill="#212121"/>
<path fill-rule="evenodd" clip-rule="evenodd" d="M10.5703 10.1358C10.5703 9.58482 11.017 9.13818 11.5679 9.13818H12.1657C13.8907 9.13818 15.2891 10.5365 15.2891 12.2615C15.2891 13.9865 13.8907 15.3848 12.1657 15.3848H11.5679C11.017 15.3848 10.5703 14.9382 10.5703 14.3872V10.1358ZM12.0703 10.6382V13.8848H12.1657C13.0623 13.8848 13.7891 13.1581 13.7891 12.2615C13.7891 11.365 13.0623 10.6382 12.1657 10.6382H12.0703Z" fill="#212121"/>
<path fill-rule="evenodd" clip-rule="evenodd" d="M11.0456 5.15962C11.2306 4.98736 11.4741 4.8916 11.7269 4.8916H17.3828C17.9351 4.8916 18.3828 5.33932 18.3828 5.8916V18.1973C18.3828 18.7496 17.9351 19.1973 17.3828 19.1973H7.88086C7.32857 19.1973 6.88086 18.7496 6.88086 18.1973V9.47144C6.88086 9.19379 6.9963 8.92863 7.19954 8.73946L11.0456 5.15962ZM12.1203 6.8916L8.88086 9.9068V17.1973H16.3828V6.8916H12.1203Z" fill="#212121"/>
<path fill-rule="evenodd" clip-rule="evenodd" d="M47.356 11.9424L50.7931 6.00526L52.524 7.00729L49.0869 12.9444C49.0483 13.0111 49.0964 13.0945 49.1734 13.0945H50.9369C50.9833 13.0945 51.0287 13.0976 51.0732 13.1036C51.1439 13.1132 51.212 13.1301 51.2768 13.1534C51.5042 13.2354 51.6911 13.3972 51.8073 13.6018C51.9223 13.8042 51.9681 14.0486 51.9158 14.2992L51.2079 17.6846C51.1619 17.9045 51.4577 18.0214 51.5745 17.8295L55.1975 11.8796C55.2381 11.813 55.1902 11.7276 55.1121 11.7276H53.2424C53.2321 11.7276 53.2219 11.7275 53.2117 11.7272C53.1282 11.7247 53.0476 11.7121 52.971 11.6906C52.7208 11.6204 52.5129 11.4558 52.384 11.2409C52.2638 11.0405 52.2123 10.7963 52.2594 10.5442L52.8937 7.14417C52.9349 6.92323 52.6366 6.81278 52.524 7.00729L50.7931 6.00526C52.0318 3.86563 55.3131 5.08062 54.8597 7.51095L54.4462 9.72763H55.1121C56.7506 9.72763 57.7579 11.5204 56.9058 12.9198L53.2827 18.8697C51.9973 20.9808 48.7444 19.6946 49.2503 17.2753L49.7062 15.0945H49.1734C47.5553 15.0945 46.5457 13.342 47.356 11.9424Z" fill="#212121"/>
</svg>
