<svg width="64" height="64" viewBox="0 0 64 64" fill="none" xmlns="http://www.w3.org/2000/svg">
<path fill-rule="evenodd" clip-rule="evenodd" d="M50.6274 14.7835C53.3025 16.8452 55.9763 15.7727 57.8504 13.8999C60.6807 11.0716 60.1247 3.87656 60.1247 3.87656C60.1247 3.87656 52.93 3.31552 50.0998 6.14382C48.225 8.01728 47.1505 10.6916 49.2133 13.3691L48.3821 14.2004C47.9916 14.5909 47.9916 15.2241 48.3821 15.6146C48.7726 16.0051 49.4058 16.0051 49.7963 15.6146L50.6274 14.7835ZM53.9517 13.8868C54.7293 13.794 55.6024 13.3189 56.4367 12.4852C56.8354 12.0868 57.2031 11.4358 57.4963 10.5266C57.7843 9.63396 57.9599 8.61996 58.0588 7.62901C58.1231 6.98411 58.153 6.37037 58.1638 5.83605C57.6295 5.84652 57.0157 5.87593 56.3708 5.93983C55.3798 6.03803 54.3656 6.21292 53.4728 6.50023C52.5634 6.79287 51.9122 7.16011 51.5135 7.55853C50.6792 8.39224 50.2034 9.26497 50.1101 10.0425C50.049 10.5523 50.1299 11.1871 50.644 11.9384L53.5847 8.99763C53.9753 8.6071 54.6084 8.60709 54.999 8.99762C55.3895 9.38814 55.3895 10.0213 54.999 10.4118L52.058 13.3528C52.8082 13.8664 53.4422 13.9475 53.9517 13.8868Z" fill="#0B0D0E"/>
<path fill-rule="evenodd" clip-rule="evenodd" d="M23 23.9985C23 23.4462 23.4477 22.9985 24 22.9985H30C30.5523 22.9985 31 23.4462 31 23.9985V29.9985C31 30.5508 30.5523 30.9985 30 30.9985H24C23.4477 30.9985 23 30.5508 23 29.9985V23.9985ZM25 28.9985V24.9985H29V28.9985H25Z" fill="#0B0D0E"/>
<path fill-rule="evenodd" clip-rule="evenodd" d="M24 32.9985C23.4477 32.9985 23 33.4462 23 33.9985V39.9985C23 40.5508 23.4477 40.9985 24 40.9985H30C30.5523 40.9985 31 40.5508 31 39.9985V33.9985C31 33.4462 30.5523 32.9985 30 32.9985H24ZM25 34.9985V38.9985H29V34.9985H25Z" fill="#0B0D0E"/>
<path fill-rule="evenodd" clip-rule="evenodd" d="M33 23.9985C33 23.4462 33.4477 22.9985 34 22.9985H40C40.5523 22.9985 41 23.4462 41 23.9985V29.9985C41 30.5508 40.5523 30.9985 40 30.9985H34C33.4477 30.9985 33 30.5508 33 29.9985V23.9985ZM35 28.9985V24.9985H39V28.9985H35Z" fill="#0B0D0E"/>
<path fill-rule="evenodd" clip-rule="evenodd" d="M34 32.9985C33.4477 32.9985 33 33.4462 33 33.9985V39.9985C33 40.5508 33.4477 40.9985 34 40.9985H40C40.5523 40.9985 41 40.5508 41 39.9985V33.9985C41 33.4462 40.5523 32.9985 40 32.9985H34ZM35 34.9985V38.9985H39V34.9985H35Z" fill="#0B0D0E"/>
<path fill-rule="evenodd" clip-rule="evenodd" d="M32 7.99852C32.5523 7.99852 33 8.44624 33 8.99852V11.9985H36C37.1046 11.9985 38 12.894 38 13.9985V16.9985H44C45.1046 16.9985 46 17.894 46 18.9985V53.9985C46 55.1031 45.1046 55.9985 44 55.9985H20C18.8954 55.9985 18 55.1031 18 53.9985V18.9985C18 17.894 18.8954 16.9985 20 16.9985H26V13.9985C26 12.894 26.8954 11.9985 28 11.9985H31V8.99852C31 8.44624 31.4477 7.99852 32 7.99852ZM37 53.9985V46.9985H27V53.9985H37ZM39 53.9985H44V18.9985H20V53.9985H25V46.9985C25 45.894 25.8954 44.9985 27 44.9985H37C38.1046 44.9985 39 45.894 39 46.9985V53.9985ZM36 13.9985V16.9985H28V13.9985H36Z" fill="#0B0D0E"/>
</svg>
