<svg width="64" height="64" viewBox="0 0 64 64" fill="none" xmlns="http://www.w3.org/2000/svg">
<path fill-rule="evenodd" clip-rule="evenodd" d="M23.1396 22.168C23.1396 21.6157 23.5874 21.168 24.1396 21.168H29.4721C30.0244 21.168 30.4721 21.6157 30.4721 22.168V27.5004C30.4721 28.0527 30.0244 28.5004 29.4721 28.5004H24.1396C23.5874 28.5004 23.1396 28.0527 23.1396 27.5004V22.168ZM24.9396 26.7004V22.968H28.6721V26.7004H24.9396Z" fill="#0B0D0E"/>
<path fill-rule="evenodd" clip-rule="evenodd" d="M24.1387 30.3335C23.5864 30.3335 23.1387 30.7812 23.1387 31.3335V36.666C23.1387 37.2182 23.5864 37.666 24.1387 37.666H29.4711C30.0234 37.666 30.4711 37.2182 30.4711 36.666V31.3335C30.4711 30.7812 30.0234 30.3335 29.4711 30.3335H24.1387ZM24.9387 32.1335V35.866H28.6711V32.1335H24.9387Z" fill="#0B0D0E"/>
<path fill-rule="evenodd" clip-rule="evenodd" d="M24.1406 39.4991C23.5883 39.4991 23.1406 39.9469 23.1406 40.4991V45.8316C23.1406 46.3839 23.5883 46.8316 24.1406 46.8316H29.4731C30.0254 46.8316 30.4731 46.3839 30.4731 45.8316V40.4991C30.4731 39.9469 30.0254 39.4991 29.4731 39.4991H24.1406ZM24.9406 41.2991V45.0316H28.6731V41.2991H24.9406Z" fill="#0B0D0E"/>
<path fill-rule="evenodd" clip-rule="evenodd" d="M32.3057 22.168C32.3057 21.6157 32.7534 21.168 33.3057 21.168H38.6381C39.1904 21.168 39.6381 21.6157 39.6381 22.168V27.5004C39.6381 28.0527 39.1904 28.5004 38.6381 28.5004H33.3057C32.7534 28.5004 32.3057 28.0527 32.3057 27.5004V22.168ZM34.1057 26.7004V22.968H37.8381V26.7004H34.1057Z" fill="#0B0D0E"/>
<path fill-rule="evenodd" clip-rule="evenodd" d="M33.3057 30.3336C32.7534 30.3336 32.3057 30.7813 32.3057 31.3336V36.6661C32.3057 37.2184 32.7534 37.6661 33.3057 37.6661H38.6381C39.1904 37.6661 39.6381 37.2184 39.6381 36.6661V31.3336C39.6381 30.7813 39.1904 30.3336 38.6381 30.3336H33.3057ZM34.1057 32.1336V35.8661H37.8381V32.1336H34.1057Z" fill="#0B0D0E"/>
<path fill-rule="evenodd" clip-rule="evenodd" d="M32.3057 40.4991C32.3057 39.9469 32.7534 39.4991 33.3057 39.4991H38.6381C39.1904 39.4991 39.6381 39.9469 39.6381 40.4991V45.8316C39.6381 46.3839 39.1904 46.8316 38.6381 46.8316H33.3057C32.7534 46.8316 32.3057 46.3839 32.3057 45.8316V40.4991ZM34.1057 45.0316V41.2991H37.8381V45.0316H34.1057Z" fill="#0B0D0E"/>
<path fill-rule="evenodd" clip-rule="evenodd" d="M20.4514 55.9944C20.4866 55.9963 20.522 55.9972 20.5576 55.9972H42.2212C42.2569 55.9972 42.2923 55.9963 42.3275 55.9944H51.667C52.7716 55.9944 53.667 55.099 53.667 53.9944V37.6826L55.5589 38.8768C56.0259 39.1716 56.6435 39.032 56.9383 38.565C57.2331 38.098 57.0935 37.4804 56.6264 37.1856L44.2212 29.3549V14.0024C44.2212 12.8979 43.3258 12.0024 42.2212 12.0024H20.5576C19.453 12.0024 18.5576 12.8979 18.5576 14.0024V24.3633H12.3555C11.2509 24.3633 10.3555 25.2587 10.3555 26.3633V53.9944C10.3555 55.099 11.2509 55.9944 12.3555 55.9944H20.4514ZM42.2212 14.0024H20.5576V24.3633H20.5691V26.3633H20.5576V31.2801C20.5585 31.2978 20.559 31.3156 20.559 31.3335V36.666C20.559 36.6839 20.5585 36.7017 20.5576 36.7194V46.2909C20.5647 46.3389 20.5684 46.388 20.5684 46.438V53.9944L20.5691 53.9972H42.2112V53.9944H42.2212V45.9715C42.2148 45.9257 42.2115 45.879 42.2115 45.8315V40.499C42.2115 40.4515 42.2148 40.4048 42.2212 40.359L42.2212 14.0024ZM18.5576 32.1335V35.866H16.3684V32.1335H18.5576ZM18.5576 30.3335H15.5684C15.0161 30.3335 14.5684 30.7812 14.5684 31.3335V36.666C14.5684 37.2182 15.0161 37.666 15.5684 37.666H18.5576V45.438H15.5684C15.0161 45.438 14.5684 45.8857 14.5684 46.438V53.9944H12.3555V26.3633H18.5576V30.3335ZM18.5576 53.638V47.238H16.3684V53.638H18.5576ZM44.2212 53.9944V46.8315H48.5439C49.0962 46.8315 49.5439 46.3838 49.5439 45.8315V40.499C49.5439 39.9467 49.0962 39.499 48.5439 39.499H44.2212V31.7201L51.667 36.4201V53.9944H44.2212ZM47.7439 45.0315H44.2212V41.299H47.7439V45.0315Z" fill="#0B0D0E"/>
<path d="M55.2545 13.637C54.7928 12.4928 54.9613 11.1524 55.7434 10.1911L55.7485 10.1846C56.2471 9.51918 56.2812 8.57143 55.8665 7.85057L55.4871 7.1623C55.2601 6.74301 55.4367 6.27204 55.8927 6.08587C56.3755 5.88872 56.9185 6.04146 57.1333 6.43744L57.1339 6.4386L57.5146 7.12908L57.5175 7.13404C58.2394 8.35804 58.1413 9.89902 57.2899 11.0379C56.8249 11.6123 56.7588 12.4319 57.0191 13.1095L57.3306 13.9201C57.495 14.3479 57.2237 14.8015 56.7601 14.9486C56.7354 14.954 56.7131 14.9591 56.6924 14.9637C56.5893 14.9868 56.5308 15 56.4488 15C56.0675 15 55.7066 14.7868 55.5662 14.4482L55.2545 13.637Z" fill="#0B0D0E"/>
<path d="M51.2491 13.639L51.2478 13.6361C50.7866 12.4944 50.9855 11.1491 51.7086 10.1812C52.2082 9.51536 52.2423 8.5672 51.8268 7.84597L51.4464 7.15725C51.2188 6.73769 51.3958 6.2663 51.8529 6.08C52.3223 5.88875 52.8801 6.05288 53.1356 6.43951L53.5135 7.124L53.5163 7.12886C54.24 8.35378 54.1416 9.89566 53.2883 11.0353C52.8221 11.61 52.7558 12.4303 53.0168 13.1083L53.329 13.9194C53.4938 14.3475 53.2217 14.8015 52.7572 14.9486C52.7324 14.9541 52.7099 14.959 52.6893 14.9637C52.5858 14.9869 52.5273 15 52.4452 15C52.0629 15 51.7012 14.7868 51.5605 14.448L51.2491 13.639Z" fill="#0B0D0E"/>
<path d="M49.5051 7.12908L49.507 7.13235C50.2399 8.38747 50.1401 9.89997 49.3112 11.0395C48.8413 11.6137 48.7747 12.4325 49.0382 13.1095L49.3538 13.9201C49.5203 14.3479 49.2453 14.8015 48.7758 14.9486C48.7508 14.954 48.7281 14.9591 48.7072 14.9637C48.6027 14.9868 48.5435 15 48.4605 15C48.0741 15 47.7086 14.7869 47.5664 14.4482L47.2506 13.637C46.7843 12.4961 46.9853 11.1515 47.7161 10.1844C48.2211 9.51897 48.2555 8.57133 47.8356 7.85057L47.4512 7.1623C47.2211 6.74301 47.4 6.27204 47.862 6.08587C48.3512 5.88872 48.9013 6.04146 49.1189 6.43744L49.1195 6.4386L49.5051 7.12908Z" fill="#0B0D0E"/>
</svg>
