<svg width="64" height="64" viewBox="0 0 64 64" fill="none" xmlns="http://www.w3.org/2000/svg">
<path fill-rule="evenodd" clip-rule="evenodd" d="M32 18C31.4477 18 31 18.4477 31 19C31 19.5523 31.4477 20 32 20H38.7818L40.9551 25H29C27.8954 25 27 25.8954 27 27V30H19C17.8954 30 17 30.8954 17 32V34C17 34.1007 17.0074 34.1997 17.0218 34.2964C16.3817 34.1036 15.703 34 15 34C11.134 34 8 37.134 8 41C8 44.866 11.134 48 15 48C18.5265 48 21.4439 45.3923 21.9291 42H27.3431C28.6692 42 29.941 41.4732 30.8787 40.5355L34.7071 36.7071C34.9024 36.5118 35 36.2559 35 36H41C42.1046 36 43 35.1046 43 34V29.7047L45.3207 35.0438C43.3277 36.2776 42 38.4837 42 41C42 44.866 45.134 48 49 48C52.866 48 56 44.866 56 41C56 37.134 52.866 34 49 34C48.3613 34 47.7425 34.0855 47.1546 34.2458L45.6408 30.7632C46.0652 30.9164 46.5228 31 47 31H50V23H47C45.3494 23 43.9324 23.9997 43.3213 25.4267L40.616 19.2027C40.2986 18.4724 39.5781 18 38.7818 18H32ZM29 34V27H41V34H29ZM27 34V32H19V34H27ZM19.899 36C20.9708 37.0503 21.7063 38.4424 21.9291 40H27.3431C28.1388 40 28.9019 39.6839 29.4645 39.1213L32.5858 36H19.899ZM46.1298 36.9053L48.0829 41.3986C48.303 41.9051 48.8921 42.1373 49.3986 41.9171C49.9051 41.697 50.1373 41.1079 49.9171 40.6014L47.9638 36.1075C48.2981 36.0371 48.6447 36 49 36C51.7614 36 54 38.2386 54 41C54 43.7614 51.7614 46 49 46C46.2386 46 44 43.7614 44 41C44 39.3066 44.8418 37.8098 46.1298 36.9053ZM15 40H19.9C19.4367 37.7178 17.419 36 15 36C12.2386 36 10 38.2386 10 41C10 43.7614 12.2386 46 15 46C17.419 46 19.4367 44.2822 19.9 42H15C14.4477 42 14 41.5523 14 41C14 40.4477 14.4477 40 15 40ZM48 25H47C45.8954 25 45 25.8954 45 27C45 28.1046 45.8954 29 47 29H48V25Z" fill="#212121"/>
<path d="M48.356 11.9424L51.7931 6.00526L53.524 7.00729L50.0869 12.9444C50.0483 13.0111 50.0964 13.0945 50.1734 13.0945H51.9369C51.9833 13.0945 52.0287 13.0976 52.0732 13.1036C52.1439 13.1132 52.212 13.1301 52.2768 13.1534C52.5042 13.2354 52.6911 13.3972 52.8073 13.6018C52.9223 13.8042 52.9681 14.0486 52.9158 14.2992L52.2079 17.6846C52.1619 17.9045 52.4577 18.0214 52.5745 17.8295L56.1975 11.8796C56.2381 11.813 56.1902 11.7276 56.1121 11.7276H54.2424C54.2321 11.7276 54.2219 11.7275 54.2117 11.7272C54.1282 11.7247 54.0476 11.7121 53.971 11.6906C53.7208 11.6204 53.5129 11.4558 53.384 11.2409C53.2638 11.0405 53.2123 10.7963 53.2594 10.5442L53.8937 7.14417C53.9349 6.92323 53.6366 6.81278 53.524 7.00729L51.7931 6.00526C53.0318 3.86563 56.3131 5.08062 55.8597 7.51095L55.4462 9.72763H56.1121C57.7506 9.72763 58.7579 11.5204 57.9058 12.9198L54.2827 18.8697C52.9973 20.9808 49.7444 19.6946 50.2503 17.2753L50.7062 15.0945H50.1734C48.5553 15.0945 47.5457 13.342 48.356 11.9424Z" fill="#212121"/>
</svg>
