<svg width="64" height="64" viewBox="0 0 64 64" fill="none" xmlns="http://www.w3.org/2000/svg">
<path fill-rule="evenodd" clip-rule="evenodd" d="M48.6277 16.7852C51.3027 18.8466 53.9763 17.7741 55.8504 15.9014C58.6807 13.0731 58.1247 5.87803 58.1247 5.87803C58.1247 5.87803 50.93 5.31699 48.0998 8.14528C46.2249 10.0188 45.1504 12.6933 47.2136 15.3709L46.3822 16.2023C45.9917 16.5928 45.9917 17.226 46.3822 17.6165C46.7728 18.007 47.4059 18.007 47.7964 17.6165L48.6277 16.7852ZM51.9517 15.8882C52.7293 15.7955 53.6024 15.3204 54.4367 14.4867C54.8354 14.0882 55.2031 13.4372 55.4963 12.528C55.7843 11.6354 55.9599 10.6214 56.0588 9.63048C56.1231 8.98558 56.153 8.37184 56.1638 7.83751C55.6295 7.84799 55.0157 7.87739 54.3708 7.9413C53.3798 8.03949 52.3656 8.21438 51.4728 8.50169C50.5634 8.79433 49.9122 9.16157 49.5135 9.55999C48.6792 10.3937 48.2034 11.2664 48.1101 12.0439C48.0489 12.5539 48.1299 13.1887 48.6443 13.9402L51.5849 10.9995C51.9754 10.609 52.6086 10.609 52.9991 10.9995C53.3896 11.39 53.3896 12.0232 52.9991 12.4137L50.0584 15.3545C50.8084 15.8678 51.4423 15.949 51.9517 15.8882Z" fill="#0B0D0E"/>
<path fill-rule="evenodd" clip-rule="evenodd" d="M43.9521 12.9018L32.881 6.97246C32.5848 6.81382 32.2288 6.81455 31.9332 6.97438L30.6945 7.6443L19.1338 13.8536L14.5043 16.3087C14.0164 16.5675 13.8306 17.1728 14.0894 17.6607C14.3482 18.1486 14.9535 18.3344 15.4414 18.0756L18.4241 16.4938V56.146C18.4241 56.6983 18.8718 57.146 19.4241 57.146H45.3937C45.946 57.146 46.3937 56.6983 46.3937 56.146V19.9171H44.9521C44.7453 19.9171 44.5532 19.8543 44.3937 19.7468V55.146H37.3171V46.0723C37.3171 45.52 36.8694 45.0723 36.3171 45.0723H28.5007C27.9484 45.0723 27.5007 45.52 27.5007 46.0723V55.146H20.4241V15.4332L24.1594 13.4522L24.1666 13.4484L31.6436 9.40473L32.4089 8.99373L43.9521 15.1937V12.9018ZM29.5007 55.1459V47.0723H35.3171V55.1459H29.5007Z" fill="#0B0D0E"/>
<path fill-rule="evenodd" clip-rule="evenodd" d="M24.4089 21.0655C23.8566 21.0655 23.4089 21.5133 23.4089 22.0655V28.0655C23.4089 28.6178 23.8566 29.0655 24.4089 29.0655H30.4089C30.9612 29.0655 31.4089 28.6178 31.4089 28.0655V22.0655C31.4089 21.5133 30.9612 21.0655 30.4089 21.0655H24.4089ZM25.2089 22.8655V27.2655H29.6089V22.8655H25.2089Z" fill="#0B0D0E"/>
<path fill-rule="evenodd" clip-rule="evenodd" d="M24.4089 31.0655C23.8566 31.0655 23.4089 31.5133 23.4089 32.0655V38.0655C23.4089 38.6178 23.8566 39.0655 24.4089 39.0655H30.4089C30.9612 39.0655 31.4089 38.6178 31.4089 38.0655V32.0655C31.4089 31.5133 30.9612 31.0655 30.4089 31.0655H24.4089ZM25.2089 32.8655V37.2655H29.6089V32.8655H25.2089Z" fill="#0B0D0E"/>
<path fill-rule="evenodd" clip-rule="evenodd" d="M34.4089 21.0655C33.8566 21.0655 33.4089 21.5133 33.4089 22.0655V28.0655C33.4089 28.6178 33.8566 29.0655 34.4089 29.0655H40.4089C40.9612 29.0655 41.4089 28.6178 41.4089 28.0655V22.0655C41.4089 21.5133 40.9612 21.0655 40.4089 21.0655H34.4089ZM35.2089 22.8655V27.2655H39.6089V22.8655H35.2089Z" fill="#0B0D0E"/>
<path fill-rule="evenodd" clip-rule="evenodd" d="M34.4089 31.0655C33.8566 31.0655 33.4089 31.5133 33.4089 32.0655V38.0655C33.4089 38.6178 33.8566 39.0655 34.4089 39.0655H40.4089C40.9612 39.0655 41.4089 38.6178 41.4089 38.0655V32.0655C41.4089 31.5133 40.9612 31.0655 40.4089 31.0655H34.4089ZM35.2089 32.8655V37.2655H39.6089V32.8655H35.2089Z" fill="#0B0D0E"/>
</svg>
