<svg width="64" height="64" viewBox="0 0 64 64" fill="none" xmlns="http://www.w3.org/2000/svg">
<path d="M35 48.369L44.5107 46.4759C45.1131 46.356 45.466 45.7264 45.254 45.1499L44.7034 43.653L35 45.4724V43.4375L46.3686 41.3059C47.3145 41.1285 48 40.3026 48 39.3401V31H35V29H48V21H50V39.3401C50 41.265 48.629 42.9169 46.7372 43.2716L46.6969 43.2792L47.1311 44.4595C47.7233 46.0696 46.8463 47.8179 45.264 48.3417L47.5214 54.3614C47.7154 54.8785 47.4534 55.4549 46.9362 55.6489C46.4191 55.8428 45.8427 55.5808 45.6488 55.0636L45.2499 54H35V52H44.4999L43.351 48.9363C43.3287 48.8767 43.3124 48.8163 43.3018 48.7557L35 50.4082V48.369Z" fill="#212121"/>
<path d="M45 9H35V11H45V9Z" fill="#212121"/>
<path d="M20 9H29V11H20V9Z" fill="#212121"/>
<path d="M14 39.3401C14 41.265 15.371 42.9169 17.2628 43.2716L17.3031 43.2792L16.8689 44.4595C16.2328 46.1889 17.2916 48.0777 19.0989 48.4374L19.4357 48.5044L17.351 54.0637C17.1571 54.5808 17.4191 55.1572 17.9362 55.3511C18.4533 55.5451 19.0298 55.2831 19.2237 54.7659L19.5109 54H29V52H20.2609L21.4234 48.9001L29 50.4082V48.369L19.4893 46.4759C18.8869 46.356 18.534 45.7264 18.746 45.1499L19.2966 43.653L29 45.4724V43.4375L17.6314 41.3059C16.6855 41.1285 16 40.3026 16 39.3401V31H29V29H16V21H14V39.3401Z" fill="#212121"/>
<path d="M35 18H45V16H35V18Z" fill="#212121"/>
<path d="M29 16V18H20V16H29Z" fill="#212121"/>
<path fill-rule="evenodd" clip-rule="evenodd" d="M26 36.5C26 38.433 24.433 40 22.5 40C20.567 40 19 38.433 19 36.5C19 34.567 20.567 33 22.5 33C24.433 33 26 34.567 26 36.5ZM22.5 38C23.3284 38 24 37.3284 24 36.5C24 35.6716 23.3284 35 22.5 35C21.6716 35 21 35.6716 21 36.5C21 37.3284 21.6716 38 22.5 38Z" fill="#212121"/>
<path fill-rule="evenodd" clip-rule="evenodd" d="M41.5 40C43.433 40 45 38.433 45 36.5C45 34.567 43.433 33 41.5 33C39.567 33 38 34.567 38 36.5C38 38.433 39.567 40 41.5 40ZM43 36.5C43 37.3284 42.3284 38 41.5 38C40.6716 38 40 37.3284 40 36.5C40 35.6716 40.6716 35 41.5 35C42.3284 35 43 35.6716 43 36.5Z" fill="#212121"/>
<path d="M31 9C31 8.44771 31.4477 8 32 8V8C32.5523 8 33 8.44772 33 9V55C33 55.5523 32.5523 56 32 56V56C31.4477 56 31 55.5523 31 55V9Z" fill="#212121"/>
<path d="M9.47158 5.70237C9.85949 5.30925 9.85526 4.6761 9.46214 4.28819C9.06901 3.90028 8.43586 3.90451 8.04795 4.29763L6.28819 6.08105C5.90028 6.47417 5.90451 7.10732 6.29763 7.49523C6.69075 7.88314 7.3239 7.87891 7.71181 7.48579L9.47158 5.70237Z" fill="#212121"/>
<path fill-rule="evenodd" clip-rule="evenodd" d="M10.5703 10.1358C10.5703 9.58482 11.017 9.13818 11.5679 9.13818H12.1657C13.8907 9.13818 15.2891 10.5365 15.2891 12.2615C15.2891 13.9865 13.8907 15.3848 12.1657 15.3848H11.5679C11.017 15.3848 10.5703 14.9382 10.5703 14.3872V10.1358ZM12.0703 10.6382V13.8848H12.1657C13.0623 13.8848 13.7891 13.1581 13.7891 12.2615C13.7891 11.365 13.0623 10.6382 12.1657 10.6382H12.0703Z" fill="#212121"/>
<path fill-rule="evenodd" clip-rule="evenodd" d="M11.0456 5.15962C11.2306 4.98736 11.4741 4.8916 11.7269 4.8916H17.3828C17.9351 4.8916 18.3828 5.33932 18.3828 5.8916V18.1973C18.3828 18.7496 17.9351 19.1973 17.3828 19.1973H7.88086C7.32857 19.1973 6.88086 18.7496 6.88086 18.1973V9.47144C6.88086 9.19379 6.9963 8.92863 7.19954 8.73946L11.0456 5.15962ZM12.1203 6.8916L8.88086 9.9068V17.1973H16.3828V6.8916H12.1203Z" fill="#212121"/>
<path fill-rule="evenodd" clip-rule="evenodd" d="M53.4906 5.18459L52.9117 5.99999L52.3599 5.16602L52.9316 4.78772L53.4906 5.18459ZM52.8922 7.26027C53.1404 7.47055 53.4511 7.74934 53.7864 8.08662C54.609 8.91407 55.5337 10.0478 56.0777 11.3457C56.2912 11.8551 56.8772 12.0949 57.3866 11.8814C57.8959 11.6679 58.1358 11.0819 57.9223 10.5726C57.239 8.94257 56.1196 7.59674 55.2048 6.67658C54.7426 6.21166 54.321 5.84377 54.0128 5.59052C53.8584 5.46369 53.7319 5.36503 53.642 5.29674C53.597 5.26258 53.5612 5.23598 53.5356 5.21721L53.505 5.19494L53.4957 5.18826L53.4926 5.18605L53.4915 5.18523C53.4915 5.18523 53.4906 5.18459 52.9117 5.99999C52.3599 5.16602 52.3599 5.16602 52.3599 5.16602L52.3568 5.16802L52.3521 5.17122L52.3372 5.18123C52.325 5.18949 52.3082 5.20094 52.2872 5.2155C52.2451 5.24463 52.1859 5.28629 52.1121 5.34001C51.9646 5.44737 51.758 5.60333 51.512 5.80414C51.0213 6.20458 50.3661 6.78953 49.7085 7.52933C48.4134 8.98613 47 11.1667 47 13.8C47 15.2345 47.3317 16.782 48.2822 17.9925C49.2646 19.2438 50.8024 20 52.9117 20C53.9705 20 54.8952 19.8107 55.6857 19.4489C56.1878 19.219 56.4086 18.6256 56.1787 18.1234C55.9489 17.6212 55.3554 17.4005 54.8532 17.6303C54.3647 17.854 53.7315 18 52.9117 18C51.3219 18 50.4038 17.4561 49.8552 16.7574C49.2746 16.018 49 14.9655 49 13.8C49 11.8832 50.0425 10.1638 51.2032 8.85814C51.7735 8.21669 52.3462 7.70477 52.7765 7.35365C52.8164 7.32107 52.855 7.28994 52.8922 7.26027Z" fill="#212121"/>
<path fill-rule="evenodd" clip-rule="evenodd" d="M51.3008 10.8135C50.8866 10.8135 50.5508 11.1492 50.5508 11.5635V15.0619C50.5508 15.4761 50.8866 15.8119 51.3008 15.8119C51.715 15.8119 52.0508 15.4761 52.0508 15.0619V11.5635C52.0508 11.1492 51.715 10.8135 51.3008 10.8135Z" fill="#212121"/>
<path fill-rule="evenodd" clip-rule="evenodd" d="M54.5857 10.8135C54.1715 10.8135 53.8357 11.1492 53.8357 11.5635V15.0619C53.8357 15.4761 54.1715 15.8119 54.5857 15.8119C54.9999 15.8119 55.3357 15.4761 55.3357 15.0619V11.5635C55.3357 11.1492 54.9999 10.8135 54.5857 10.8135Z" fill="#212121"/>
<path fill-rule="evenodd" clip-rule="evenodd" d="M55.3087 13.3893C55.3087 13.8035 54.9729 14.1393 54.5587 14.1393H51.6597C51.2455 14.1393 50.9097 13.8035 50.9097 13.3893C50.9097 12.9751 51.2455 12.6393 51.6597 12.6393H54.5587C54.9729 12.6393 55.3087 12.9751 55.3087 13.3893Z" fill="#212121"/>
<path fill-rule="evenodd" clip-rule="evenodd" d="M59 16.5757C59 16.8099 58.8206 16.9997 58.5992 16.9997L56.6072 17C56.169 17 55.959 16.431 56.2813 16.117L57.6439 14.7899C57.8438 14.5728 57.8421 14.2253 57.6389 14.0104C57.434 13.7937 57.1017 13.7937 56.8968 14.0104C56.8415 14.0689 56.8017 14.1362 56.7764 14.2077C56.6988 14.427 56.4678 14.5382 56.2605 14.4562C56.0532 14.3741 55.9479 14.1299 56.0255 13.9106C56.0902 13.7278 56.1919 13.5568 56.3299 13.4109C56.8479 12.863 57.6878 12.863 58.2057 13.4109C58.7237 13.9587 58.7237 14.8469 58.2057 15.3947L58.1999 15.4009L57.4288 16.152L58.5991 16.1518C58.8205 16.1518 59 16.3416 59 16.5757Z" fill="#212121"/>
</svg>
