<svg width="64" height="64" viewBox="0 0 64 64" fill="none" xmlns="http://www.w3.org/2000/svg">
<path fill-rule="evenodd" clip-rule="evenodd" d="M16.1135 15C15.5612 15 15.1135 15.4477 15.1135 16V22.395C15.1135 22.4648 15.1062 22.5344 15.0917 22.6027L8.25656 54.7923C8.12448 55.4143 8.59887 56 9.23475 56H43.7331C43.7927 56 43.8508 55.9949 43.9071 55.9851C43.9634 55.9949 44.0211 56 44.0798 56H53.9999C54.5522 56 54.9999 55.5523 54.9999 55V36C54.9999 35.4477 54.5522 35 53.9999 35H50V23C50 22.4477 49.5523 22 49 22H44C43.4477 22 43 22.4477 43 23V35H39.9836L37.025 22.6146C37.0068 22.5384 36.9976 22.4605 36.9976 22.3822V16C36.9976 15.4477 36.5499 15 35.9976 15H16.1135ZM17.1135 17V22.395C17.1135 22.6044 17.0915 22.8133 17.048 23.0181L10.4694 54H42.4661L35.0797 23.0792C35.0252 22.8509 34.9976 22.617 34.9976 22.3822V17H17.1135ZM45 35H48V24H45V35ZM40.5675 37L44.8587 54H52.9999V37H40.5675Z" fill="#212121"/>
<path d="M23 34.8627L23 33.3754C23 33.1681 23.1681 33 23.3754 33L26.1246 33C26.3319 33 26.5 33.1681 26.5 33.3754L26.5 40.6246C26.5 40.8319 26.3319 41 26.1246 41L23.3754 41C23.1681 41 23 40.8319 23 40.6246L23 39.1923" stroke="#212121" stroke-width="2" stroke-linecap="round"/>
<path d="M26.7145 38.6154C26.1623 38.6154 25.7145 39.0631 25.7145 39.6154C25.7145 40.1677 26.1623 40.6154 26.7145 40.6154V38.6154ZM26.9277 44.5562C26.7214 44.0439 26.1389 43.7958 25.6266 44.002C25.1142 44.2082 24.8661 44.7908 25.0723 45.3031L26.9277 44.5562ZM32.7542 44.988C32.9604 45.5004 33.5429 45.7485 34.0553 45.5423C34.5676 45.3361 34.8158 44.7536 34.6096 44.2413L32.7542 44.988ZM26.7145 36H27.7339V34H26.7145V36ZM27.3896 38.6154H26.7145V40.6154H27.3896V38.6154ZM30.495 42.1712V41.7207H28.495V42.1712H30.495ZM32.3653 40.6316C32.3653 40.6333 32.3653 40.6349 32.3653 40.6366C32.3653 40.6383 32.3653 40.64 32.3653 40.6416C32.3653 40.6433 32.3653 40.645 32.3653 40.6467C32.3653 40.6483 32.3653 40.65 32.3653 40.6517C32.3653 40.6534 32.3653 40.6551 32.3653 40.6567C32.3653 40.6584 32.3653 40.6601 32.3653 40.6618C32.3653 40.6634 32.3653 40.6651 32.3653 40.6668C32.3653 40.6685 32.3653 40.6701 32.3653 40.6718C32.3653 40.6735 32.3653 40.6752 32.3653 40.6768C32.3653 40.6785 32.3653 40.6802 32.3653 40.6819C32.3653 40.6835 32.3653 40.6852 32.3653 40.6869C32.3653 40.6886 32.3653 40.6902 32.3653 40.6919C32.3653 40.6936 32.3653 40.6953 32.3653 40.6969C32.3653 40.6986 32.3653 40.7003 32.3653 40.702C32.3653 40.7036 32.3653 40.7053 32.3653 40.707C32.3653 40.7087 32.3653 40.7103 32.3653 40.712C32.3653 40.7137 32.3653 40.7154 32.3653 40.717C32.3653 40.7187 32.3653 40.7204 32.3653 40.722C32.3653 40.7237 32.3653 40.7254 32.3653 40.7271C32.3653 40.7287 32.3653 40.7304 32.3653 40.7321C32.3653 40.7338 32.3653 40.7354 32.3653 40.7371C32.3653 40.7388 32.3653 40.7404 32.3653 40.7421C32.3653 40.7438 32.3653 40.7455 32.3653 40.7471C32.3653 40.7488 32.3653 40.7505 32.3653 40.7522C32.3653 40.7538 32.3653 40.7555 32.3653 40.7572C32.3653 40.7588 32.3653 40.7605 32.3653 40.7622C32.3653 40.7639 32.3653 40.7655 32.3653 40.7672C32.3653 40.7689 32.3653 40.7705 32.3653 40.7722C32.3653 40.7739 32.3653 40.7756 32.3653 40.7772C32.3653 40.7789 32.3653 40.7806 32.3653 40.7822C32.3653 40.7839 32.3653 40.7856 32.3653 40.7873C32.3653 40.7889 32.3653 40.7906 32.3653 40.7923C32.3653 40.7939 32.3653 40.7956 32.3653 40.7973C32.3653 40.7989 32.3653 40.8006 32.3653 40.8023C32.3653 40.804 32.3653 40.8056 32.3653 40.8073C32.3653 40.809 32.3653 40.8106 32.3653 40.8123C32.3653 40.814 32.3653 40.8156 32.3653 40.8173C32.3653 40.819 32.3653 40.8207 32.3653 40.8223C32.3653 40.824 32.3653 40.8257 32.3653 40.8273C32.3653 40.829 32.3653 40.8307 32.3653 40.8323C32.3653 40.834 32.3653 40.8357 32.3653 40.8373C32.3653 40.839 32.3653 40.8407 32.3653 40.8423C32.3653 40.844 32.3653 40.8457 32.3653 40.8474C32.3653 40.849 32.3653 40.8507 32.3653 40.8524C32.3653 40.854 32.3653 40.8557 32.3653 40.8574C32.3653 40.859 32.3653 40.8607 32.3653 40.8624C32.3653 40.864 32.3653 40.8657 32.3653 40.8674C32.3653 40.869 32.3653 40.8707 32.3653 40.8724C32.3653 40.874 32.3653 40.8757 32.3653 40.8774C32.3653 40.879 32.3653 40.8807 32.3653 40.8824C32.3653 40.884 32.3653 40.8857 32.3653 40.8874C32.3653 40.889 32.3653 40.8907 32.3653 40.8924C32.3653 40.894 32.3653 40.8957 32.3653 40.8974C32.3653 40.899 32.3653 40.9007 32.3653 40.9024C32.3653 40.904 32.3653 40.9057 32.3653 40.9074C32.3653 40.909 32.3653 40.9107 32.3653 40.9123C32.3653 40.914 32.3653 40.9157 32.3653 40.9173C32.3653 40.919 32.3653 40.9207 32.3653 40.9223C32.3653 40.924 32.3653 40.9257 32.3653 40.9273C32.3653 40.929 32.3653 40.9307 32.3653 40.9323C32.3653 40.934 32.3653 40.9357 32.3653 40.9373C32.3653 40.939 32.3653 40.9406 32.3653 40.9423C32.3653 40.944 32.3653 40.9456 32.3653 40.9473C32.3653 40.949 32.3653 40.9506 32.3653 40.9523C32.3653 40.954 32.3653 40.9556 32.3653 40.9573C32.3653 40.9589 32.3653 40.9606 32.3653 40.9623C32.3653 40.9639 32.3653 40.9656 32.3653 40.9673C32.3653 40.9689 32.3653 40.9706 32.3653 40.9722C32.3653 40.9739 32.3653 40.9756 32.3653 40.9772C32.3653 40.9789 32.3653 40.9806 32.3653 40.9822C32.3653 40.9839 32.3653 40.9855 32.3653 40.9872C32.3653 40.9889 32.3653 40.9905 32.3653 40.9922C32.3653 40.9939 32.3653 40.9955 32.3653 40.9972C32.3653 40.9988 32.3653 41.0005 32.3653 41.0022C32.3653 41.0038 32.3653 41.0055 32.3653 41.0071C32.3653 41.0088 32.3653 41.0105 32.3653 41.0121C32.3653 41.0138 32.3653 41.0154 32.3653 41.0171C32.3653 41.0188 32.3653 41.0204 32.3653 41.0221C32.3653 41.0238 32.3653 41.0254 32.3653 41.0271C32.3653 41.0287 32.3653 41.0304 32.3653 41.0321C32.3653 41.0337 32.3653 41.0354 32.3653 41.037C32.3653 41.0387 32.3653 41.0404 32.3653 41.042C32.3653 41.0437 32.3653 41.0453 32.3653 41.047C32.3653 41.0486 32.3653 41.0503 32.3653 41.052C32.3653 41.0536 32.3653 41.0553 32.3653 41.0569C32.3653 41.0586 32.3653 41.0603 32.3653 41.0619C32.3653 41.0636 32.3653 41.0652 32.3653 41.0669C32.3653 41.0686 32.3653 41.0702 32.3653 41.0719C32.3653 41.0735 32.3653 41.0752 32.3653 41.0768C32.3653 41.0785 32.3653 41.0802 32.3653 41.0818C32.3653 41.0835 32.3653 41.0851 32.3653 41.0868C32.3653 41.0884 32.3653 41.0901 32.3653 41.0918C32.3653 41.0934 32.3653 41.0951 32.3653 41.0967C32.3653 41.0984 32.3653 41.1 32.3653 41.1017C32.3653 41.1034 32.3653 41.105 32.3653 41.1067C32.3653 41.1083 32.3653 41.11 32.3653 41.1116C32.3653 41.1133 32.3653 41.115 32.3653 41.1166C32.3653 41.1183 32.3653 41.1199 32.3653 41.1216C32.3653 41.1232 32.3653 41.1249 32.3653 41.1265C32.3653 41.1282 32.3653 41.1299 32.3653 41.1315C32.3653 41.1332 32.3653 41.1348 32.3653 41.1365C32.3653 41.1381 32.3653 41.1398 32.3653 41.1414C32.3653 41.1431 32.3653 41.1447 32.3653 41.1464C32.3653 41.1481 32.3653 41.1497 32.3653 41.1514C32.3653 41.153 32.3653 41.1547 32.3653 41.1563C32.3653 41.158 32.3653 41.1596 32.3653 41.1613C32.3653 41.1629 32.3653 41.1646 32.3653 41.1663C32.3653 41.1679 32.3653 41.1696 32.3653 41.1712C32.3653 41.1729 32.3653 41.1745 32.3653 41.1762C32.3653 41.1778 32.3653 41.1795 32.3653 41.1811C32.3653 41.1828 32.3653 41.1844 32.3653 41.1861C32.3653 41.1877 32.3653 41.1894 32.3653 41.1911C32.3653 41.1927 32.3653 41.1944 32.3653 41.196C32.3653 41.1977 32.3653 41.1993 32.3653 41.201C32.3653 41.2026 32.3653 41.2043 32.3653 41.2059C32.3653 41.2076 32.3653 41.2092 32.3653 41.2109C32.3653 41.2125 32.3653 41.2142 32.3653 41.2158C32.3653 41.2175 32.3653 41.2191 32.3653 41.2208C32.3653 41.2224 32.3653 41.2241 32.3653 41.2257C32.3653 41.2274 32.3653 41.229 32.3653 41.2307C32.3653 41.2323 32.3653 41.234 32.3653 41.2356C32.3653 41.2373 32.3653 41.2389 32.3653 41.2406C32.3653 41.2422 32.3653 41.2439 32.3653 41.2455C32.3653 41.2472 32.3653 41.2488 32.3653 41.2505C32.3653 41.2521 32.3653 41.2538 32.3653 41.2554C32.3653 41.2571 32.3653 41.2587 32.3653 41.2604C32.3653 41.262 32.3653 41.2637 32.3653 41.2653C32.3653 41.267 32.3653 41.2686 32.3653 41.2703C32.3653 41.2719 32.3653 41.2736 32.3653 41.2752C32.3653 41.2769 32.3653 41.2785 32.3653 41.2802C32.3653 41.2818 32.3653 41.2835 32.3653 41.2851C32.3653 41.2868 32.3653 41.2884 32.3653 41.2901C32.3653 41.2917 32.3653 41.2934 32.3653 41.295C32.3653 41.2967 32.3653 41.2983 32.3653 41.3C32.3653 41.3016 32.3653 41.3033 32.3653 41.3049C32.3653 41.3065 32.3653 41.3082 32.3653 41.3098C32.3653 41.3115 32.3653 41.3131 32.3653 41.3148C32.3653 41.3164 32.3653 41.3181 32.3653 41.3197C32.3653 41.3214 32.3653 41.323 32.3653 41.3247C32.3653 41.3263 32.3653 41.328 32.3653 41.3296C32.3653 41.3312 32.3653 41.3329 32.3653 41.3345C32.3653 41.3362 32.3653 41.3378 32.3653 41.3395C32.3653 41.3411 32.3653 41.3428 32.3653 41.3444C32.3653 41.3461 32.3653 41.3477 32.3653 41.3493C32.3653 41.351 32.3653 41.3526 32.3653 41.3543C32.3653 41.3559 32.3653 41.3576 32.3653 41.3592C32.3653 41.3609 32.3653 41.3625 32.3653 41.3641C32.3653 41.3658 32.3653 41.3674 32.3653 41.3691C32.3653 41.3707 32.3653 41.3724 32.3653 41.374C32.3653 41.3757 32.3653 41.3773 32.3653 41.3789C32.3653 41.3806 32.3653 41.3822 32.3653 41.3839C32.3653 41.3855 32.3653 41.3872 32.3653 41.3888C32.3653 41.3904 32.3653 41.3921 32.3653 41.3937C32.3653 41.3954 32.3653 41.397 32.3653 41.3987C32.3653 41.4003 32.3653 41.4019 32.3653 41.4036C32.3653 41.4052 32.3653 41.4069 32.3653 41.4085C32.3653 41.4102 32.3653 41.4118 32.3653 41.4134C32.3653 41.4151 32.3653 41.4167 32.3653 41.4184C32.3653 41.42 32.3653 41.4217 32.3653 41.4233C32.3653 41.4249 32.3653 41.4266 32.3653 41.4282C32.3653 41.4299 32.3653 41.4315 32.3653 41.4331C32.3653 41.4348 32.3653 41.4364 32.3653 41.4381C32.3653 41.4397 32.3653 41.4413 32.3653 41.443C32.3653 41.4446 32.3653 41.4463 32.3653 41.4479C32.3653 41.4496 32.3653 41.4512 32.3653 41.4528C32.3653 41.4545 32.3653 41.4561 32.3653 41.4578C32.3653 41.4594 32.3653 41.461 32.3653 41.4627C32.3653 41.4643 32.3653 41.4659 32.3653 41.4676C32.3653 41.4692 32.3653 41.4709 32.3653 41.4725C32.3653 41.4741 32.3653 41.4758 32.3653 41.4774C32.3653 41.4791 32.3653 41.4807 32.3653 41.4823C32.3653 41.484 32.3653 41.4856 32.3653 41.4873C32.3653 41.4889 32.3653 41.4905 32.3653 41.4922C32.3653 41.4938 32.3653 41.4954 32.3653 41.4971C32.3653 41.4987 32.3653 41.5004 32.3653 41.502C32.3653 41.5036 32.3653 41.5053 32.3653 41.5069C32.3653 41.5085 32.3653 41.5102 32.3653 41.5118C32.3653 41.5135 32.3653 41.5151 32.3653 41.5167C32.3653 41.5184 32.3653 41.52 32.3653 41.5216C32.3653 41.5233 32.3653 41.5249 32.3653 41.5266C32.3653 41.5282 32.3653 41.5298 32.3653 41.5315C32.3653 41.5331 32.3653 41.5347 32.3653 41.5364C32.3653 41.538 32.3653 41.5396 32.3653 41.5413C32.3653 41.5429 32.3653 41.5446 32.3653 41.5462C32.3653 41.5478 32.3653 41.5495 32.3653 41.5511C32.3653 41.5527 32.3653 41.5544 32.3653 41.556C32.3653 41.5576 32.3653 41.5593 32.3653 41.5609C32.3653 41.5625 32.3653 41.5642 32.3653 41.5658C32.3653 41.5674 32.3653 41.5691 32.3653 41.5707C32.3653 41.5723 32.3653 41.574 32.3653 41.5756C32.3653 41.5772 32.3653 41.5789 32.3653 41.5805C32.3653 41.5821 32.3653 41.5838 32.3653 41.5854C32.3653 41.587 32.3653 41.5887 32.3653 41.5903C32.3653 41.5919 32.3653 41.5936 32.3653 41.5952C32.3653 41.5968 32.3653 41.5985 32.3653 41.6001C32.3653 41.6017 32.3653 41.6034 32.3653 41.605C32.3653 41.6066 32.3653 41.6083 32.3653 41.6099C32.3653 41.6115 32.3653 41.6132 32.3653 41.6148C32.3653 41.6164 32.3653 41.6181 32.3653 41.6197C32.3653 41.6213 32.3653 41.623 32.3653 41.6246C32.3653 41.6262 32.3653 41.6279 32.3653 41.6295C32.3653 41.6311 32.3653 41.6328 32.3653 41.6344C32.3653 41.636 32.3653 41.6376 32.3653 41.6393C32.3653 41.6409 32.3653 41.6425 32.3653 41.6442C32.3653 41.6458 32.3653 41.6474 32.3653 41.6491C32.3653 41.6507 32.3653 41.6523 32.3653 41.654C32.3653 41.6556 32.3653 41.6572 32.3653 41.6588C32.3653 41.6605 32.3653 41.6621 32.3653 41.6637C32.3653 41.6654 32.3653 41.667 32.3653 41.6686C32.3653 41.6702 32.3653 41.6719 32.3653 41.6735C32.3653 41.6751 32.3653 41.6768 32.3653 41.6784C32.3653 41.68 32.3653 41.6817 32.3653 41.6833C32.3653 41.6849 32.3653 41.6865 32.3653 41.6882C32.3653 41.6898 32.3653 41.6914 32.3653 41.693C32.3653 41.6947 32.3653 41.6963 32.3653 41.6979C32.3653 41.6996 32.3653 41.7012 32.3653 41.7028C32.3653 41.7044 32.3653 41.7061 32.3653 41.7077C32.3653 41.7093 32.3653 41.711 32.3653 41.7126C32.3653 41.7142 32.3653 41.7158 32.3653 41.7175C32.3653 41.7191 32.3653 41.7207 32.3653 41.7223C32.3653 41.724 32.3653 41.7256 32.3653 41.7272C32.3653 41.7288 32.3653 41.7305 32.3653 41.7321C32.3653 41.7337 32.3653 41.7354 32.3653 41.737C32.3653 41.7386 32.3653 41.7402 32.3653 41.7419C32.3653 41.7435 32.3653 41.7451 32.3653 41.7467C32.3653 41.7484 32.3653 41.75 32.3653 41.7516C32.3653 41.7532 32.3653 41.7549 32.3653 41.7565C32.3653 41.7581 32.3653 41.7597 32.3653 41.7614C32.3653 41.763 32.3653 41.7646 32.3653 41.7662C32.3653 41.7679 32.3653 41.7695 32.3653 41.7711C32.3653 41.7727 32.3653 41.7743 32.3653 41.776C32.3653 41.7776 32.3653 41.7792 32.3653 41.7808C32.3653 41.7825 32.3653 41.7841 32.3653 41.7857C32.3653 41.7873 32.3653 41.789 32.3653 41.7906C32.3653 41.7922 32.3653 41.7938 32.3653 41.7955C32.3653 41.7971 32.3653 41.7987 32.3653 41.8003C32.3653 41.8019 32.3653 41.8036 32.3653 41.8052C32.3653 41.8068 32.3653 41.8084 32.3653 41.8101C32.3653 41.8117 32.3653 41.8133 32.3653 41.8149C32.3653 41.8165 32.3653 41.8182 32.3653 41.8198C32.3653 41.8214 32.3653 41.823 32.3653 41.8246C32.3653 41.8263 32.3653 41.8279 32.3653 41.8295C32.3653 41.8311 32.3653 41.8328 32.3653 41.8344C32.3653 41.836 32.3653 41.8376 32.3653 41.8392C32.3653 41.8409 32.3653 41.8425 32.3653 41.8441C32.3653 41.8457 32.3653 41.8473 32.3653 41.849C32.3653 41.8506 32.3653 41.8522 32.3653 41.8538C32.3653 41.8554 32.3653 41.8571 32.3653 41.8587C32.3653 41.8603 32.3653 41.8619 32.3653 41.8635C32.3653 41.8652 32.3653 41.8668 32.3653 41.8684C32.3653 41.87 32.3653 41.8716 32.3653 41.8732C32.3653 41.8749 32.3653 41.8765 32.3653 41.8781C32.3653 41.8797 32.3653 41.8813 32.3653 41.883C32.3653 41.8846 32.3653 41.8862 32.3653 41.8878C32.3653 41.8894 32.3653 41.891 32.3653 41.8927C32.3653 41.8943 32.3653 41.8959 32.3653 41.8975C32.3653 41.8991 32.3653 41.9008 32.3653 41.9024C32.3653 41.904 32.3653 41.9056 32.3653 41.9072C32.3653 41.9088 32.3653 41.9105 32.3653 41.9121C32.3653 41.9137 32.3653 41.9153 32.3653 41.9169C32.3653 41.9185 32.3653 41.9202 32.3653 41.9218C32.3653 41.9234 32.3653 41.925 32.3653 41.9266C32.3653 41.9282 32.3653 41.9299 32.3653 41.9315C32.3653 41.9331 32.3653 41.9347 32.3653 41.9363C32.3653 41.9379 32.3653 41.9395 32.3653 41.9412C32.3653 41.9428 32.3653 41.9444 32.3653 41.946C32.3653 41.9476 32.3653 41.9492 32.3653 41.9508C32.3653 41.9525 32.3653 41.9541 32.3653 41.9557C32.3653 41.9573 32.3653 41.9589 32.3653 41.9605C32.3653 41.9621 32.3653 41.9638 32.3653 41.9654C32.3653 41.967 32.3653 41.9686 32.3653 41.9702C32.3653 41.9718 32.3653 41.9734 32.3653 41.9751C32.3653 41.9767 32.3653 41.9783 32.3653 41.9799C32.3653 41.9815 32.3653 41.9831 32.3653 41.9847C32.3653 41.9863 32.3653 41.988 32.3653 41.9896C32.3653 41.9912 32.3653 41.9928 32.3653 41.9944C32.3653 41.996 32.3653 41.9976 32.3653 41.9992C32.3653 42.0009 32.3653 42.0025 32.3653 42.0041C32.3653 42.0057 32.3653 42.0073 32.3653 42.0089C32.3653 42.0105 32.3653 42.0121 32.3653 42.0137C32.3653 42.0154 32.3653 42.017 32.3653 42.0186C32.3653 42.0202 32.3653 42.0218 32.3653 42.0234C32.3653 42.025 32.3653 42.0266 32.3653 42.0282C32.3653 42.0299 32.3653 42.0315 32.3653 42.0331C32.3653 42.0347 32.3653 42.0363 32.3653 42.0379C32.3653 42.0395 32.3653 42.0411 32.3653 42.0427C32.3653 42.0443 32.3653 42.046 32.3653 42.0476C32.3653 42.0492 32.3653 42.0508 32.3653 42.0524C32.3653 42.054 32.3653 42.0556 32.3653 42.0572C32.3653 42.0588 32.3653 42.0604 32.3653 42.062C32.3653 42.0637 32.3653 42.0653 32.3653 42.0669C32.3653 42.0685 32.3653 42.0701 32.3653 42.0717C32.3653 42.0733 32.3653 42.0749 32.3653 42.0765C32.3653 42.0781 32.3653 42.0797 32.3653 42.0813C32.3653 42.0829 32.3653 42.0846 32.3653 42.0862C32.3653 42.0878 32.3653 42.0894 32.3653 42.091C32.3653 42.0926 32.3653 42.0942 32.3653 42.0958C32.3653 42.0974 32.3653 42.099 32.3653 42.1006C32.3653 42.1022 32.3653 42.1038 32.3653 42.1054C32.3653 42.107 32.3653 42.1087 32.3653 42.1103C32.3653 42.1119 32.3653 42.1135 32.3653 42.1151C32.3653 42.1167 32.3653 42.1183 32.3653 42.1199C32.3653 42.1215 32.3653 42.1231 32.3653 42.1247C32.3653 42.1263 32.3653 42.1279 32.3653 42.1295C32.3653 42.1311 32.3653 42.1327 32.3653 42.1343C32.3653 42.1359 32.3653 42.1375 32.3653 42.1391C32.3653 42.1408 32.3653 42.1424 32.3653 42.144C32.3653 42.1456 32.3653 42.1472 32.3653 42.1488C32.3653 42.1504 32.3653 42.152 32.3653 42.1536C32.3653 42.1552 32.3653 42.1568 32.3653 42.1584C32.3653 42.16 32.3653 42.1616 32.3653 42.1632C32.3653 42.1648 32.3653 42.1664 32.3653 42.168C32.3653 42.1696 32.3653 42.1712 32.3653 42.1728C32.3653 42.1744 32.3653 42.176 32.3653 42.1776C32.3653 42.1792 32.3653 42.1808 32.3653 42.1824C32.3653 42.184 32.3653 42.1856 32.3653 42.1872C32.3653 42.1888 32.3653 42.1904 32.3653 42.192C32.3653 42.1936 32.3653 42.1952 32.3653 42.1968C32.3653 42.1984 32.3653 42.2 32.3653 42.2016C32.3653 42.2032 32.3653 42.2048 32.3653 42.2064C32.3653 42.208 32.3653 42.2096 32.3653 42.2112C32.3653 42.2128 32.3653 42.2144 32.3653 42.216C32.3653 42.2176 32.3653 42.2192 32.3653 42.2208C32.3653 42.2224 32.3653 42.224 32.3653 42.2256C32.3653 42.2272 32.3653 42.2288 32.3653 42.2304C32.3653 42.232 32.3653 42.2336 32.3653 42.2352C32.3653 42.2368 32.3653 42.2384 32.3653 42.24C32.3653 42.2416 32.3653 42.2432 32.3653 42.2448C32.3653 42.2464 32.3653 42.248 32.3653 42.2496C32.3653 42.2512 32.3653 42.2528 32.3653 42.2544C32.3653 42.256 32.3653 42.2576 32.3653 42.2592C32.3653 42.2608 32.3653 42.2624 32.3653 42.264C32.3653 42.2656 32.3653 42.2672 32.3653 42.2688C32.3653 42.2704 32.3653 42.272 32.3653 42.2736C32.3653 42.2752 32.3653 42.2768 32.3653 42.2784C32.3653 42.28 32.3653 42.2816 32.3653 42.2832C32.3653 42.2848 32.3653 42.2864 32.3653 42.288C32.3653 42.2895 32.3653 42.2911 32.3653 42.2927C32.3653 42.2943 32.3653 42.2959 32.3653 42.2975C32.3653 42.2991 32.3653 42.3007 32.3653 42.3023C32.3653 42.3039 32.3653 42.3055 32.3653 42.3071C32.3653 42.3087 32.3653 42.3103 32.3653 42.3119C32.3653 42.3135 32.3653 42.3151 32.3653 42.3167C32.3653 42.3183 32.3653 42.3199 32.3653 42.3214C32.3653 42.323 32.3653 42.3246 32.3653 42.3262C32.3653 42.3278 32.3653 42.3294 32.3653 42.331C32.3653 42.3326 32.3653 42.3342 32.3653 42.3358C32.3653 42.3374 32.3653 42.339 32.3653 42.3406C32.3653 42.3422 32.3653 42.3438 32.3653 42.3453C32.3653 42.3469 32.3653 42.3485 32.3653 42.3501C32.3653 42.3517 32.3653 42.3533 32.3653 42.3549C32.3653 42.3565 32.3653 42.3581 32.3653 42.3597C32.3653 42.3613 32.3653 42.3629 32.3653 42.3644C32.3653 42.366 32.3653 42.3676 32.3653 42.3692C32.3653 42.3708 32.3653 42.3724 32.3653 42.374C32.3653 42.3756 32.3653 42.3772 32.3653 42.3788C32.3653 42.3804 32.3653 42.3819 32.3653 42.3835C32.3653 42.3851 32.3653 42.3867 32.3653 42.3883C32.3653 42.3899 32.3653 42.3915 32.3653 42.3931C32.3653 42.3947 32.3653 42.3963 32.3653 42.3978C32.3653 42.3994 32.3653 42.401 32.3653 42.4026C32.3653 42.4042 32.3653 42.4058 32.3653 42.4074C32.3653 42.409 32.3653 42.4106 32.3653 42.4121C32.3653 42.4137 32.3653 42.4153 32.3653 42.4169C32.3653 42.4185 32.3653 42.4201 32.3653 42.4217C32.3653 42.4233 32.3653 42.4249 32.3653 42.4264C32.3653 42.428 32.3653 42.4296 32.3653 42.4312C32.3653 42.4328 32.3653 42.4344 32.3653 42.436C32.3653 42.4376 32.3653 42.4391 32.3653 42.4407C32.3653 42.4423 32.3653 42.4439 32.3653 42.4455C32.3653 42.4471 32.3653 42.4487 32.3653 42.4502C32.3653 42.4518 32.3653 42.4534 32.3653 42.455C32.3653 42.4566 32.3653 42.4582 32.3653 42.4598C32.3653 42.4614 32.3653 42.4629 32.3653 42.4645C32.3653 42.4661 32.3653 42.4677 32.3653 42.4693C32.3653 42.4709 32.3653 42.4724 32.3653 42.474C32.3653 42.4756 32.3653 42.4772 32.3653 42.4788C32.3653 42.4804 32.3653 42.482 32.3653 42.4835C32.3653 42.4851 32.3653 42.4867 32.3653 42.4883C32.3653 42.4899 32.3653 42.4915 32.3653 42.493C32.3653 42.4946 32.3653 42.4962 32.3653 42.4978C32.3653 42.4994 32.3653 42.501 32.3653 42.5025C32.3653 42.5041 32.3653 42.5057 32.3653 42.5073C32.3653 42.5089 32.3653 42.5105 32.3653 42.512C32.3653 42.5136 32.3653 42.5152 32.3653 42.5168C32.3653 42.5184 32.3653 42.52 32.3653 42.5215C32.3653 42.5231 32.3653 42.5247 32.3653 42.5263C32.3653 42.5279 32.3653 42.5295 32.3653 42.531C32.3653 42.5326 32.3653 42.5342 32.3653 42.5358C32.3653 42.5374 32.3653 42.5389 32.3653 42.5405C32.3653 42.5421 32.3653 42.5437 32.3653 42.5453C32.3653 42.5468 32.3653 42.5484 32.3653 42.55C32.3653 42.5516 32.3653 42.5532 32.3653 42.5547C32.3653 42.5563 32.3653 42.5579 32.3653 42.5595C32.3653 42.5611 32.3653 42.5626 32.3653 42.5642C32.3653 42.5658 32.3653 42.5674 32.3653 42.569C32.3653 42.5705 32.3653 42.5721 32.3653 42.5737C32.3653 42.5753 32.3653 42.5769 32.3653 42.5784C32.3653 42.58 32.3653 42.5816 32.3653 42.5832C32.3653 42.5848 32.3653 42.5863 32.3653 42.5879C32.3653 42.5895 32.3653 42.5911 32.3653 42.5926C32.3653 42.5942 32.3653 42.5958 32.3653 42.5974C32.3653 42.599 32.3653 42.6005 32.3653 42.6021C32.3653 42.6037 32.3653 42.6053 32.3653 42.6068C32.3653 42.6084 32.3653 42.61 32.3653 42.6116C32.3653 42.6131 32.3653 42.6147 32.3653 42.6163C32.3653 42.6179 32.3653 42.6195 32.3653 42.621C32.3653 42.6226 32.3653 42.6242 32.3653 42.6258C32.3653 42.6273 32.3653 42.6289 32.3653 42.6305C32.3653 42.6321 32.3653 42.6336 32.3653 42.6352C32.3653 42.6368 32.3653 42.6384 32.3653 42.6399C32.3653 42.6415 32.3653 42.6431 32.3653 42.6447C32.3653 42.6462 32.3653 42.6478 32.3653 42.6494C32.3653 42.651 32.3653 42.6525 32.3653 42.6541C32.3653 42.6557 32.3653 42.6573 32.3653 42.6588C32.3653 42.6604 32.3653 42.662 32.3653 42.6635C32.3653 42.6651 32.3653 42.6667 32.3653 42.6683C32.3653 42.6698 32.3653 42.6714 32.3653 42.673C32.3653 42.6746 32.3653 42.6761 32.3653 42.6777C32.3653 42.6793 32.3653 42.6809 32.3653 42.6824C32.3653 42.684 32.3653 42.6856 32.3653 42.6871C32.3653 42.6887 32.3653 42.6903 32.3653 42.6919C32.3653 42.6934 32.3653 42.695 32.3653 42.6966C32.3653 42.6981 32.3653 42.6997 32.3653 42.7013C32.3653 42.7029 32.3653 42.7044 32.3653 42.706C32.3653 42.7076 32.3653 42.7091 32.3653 42.7107C32.3653 42.7123 32.3653 42.7139 32.3653 42.7154C32.3653 42.717 32.3653 42.7186 32.3653 42.7201C32.3653 42.7217 32.3653 42.7233 32.3653 42.7248C32.3653 42.7264 32.3653 42.728 32.3653 42.7296C32.3653 42.7311 32.3653 42.7327 32.3653 42.7343C32.3653 42.7358 32.3653 42.7374 32.3653 42.739C32.3653 42.7405 32.3653 42.7421 32.3653 42.7437C32.3653 42.7452 32.3653 42.7468 32.3653 42.7484C32.3653 42.7499 32.3653 42.7515 32.3653 42.7531C32.3653 42.7547 32.3653 42.7562 32.3653 42.7578C32.3653 42.7594 32.3653 42.7609 32.3653 42.7625C32.3653 42.7641 32.3653 42.7656 32.3653 42.7672C32.3653 42.7688 32.3653 42.7703 32.3653 42.7719C32.3653 42.7735 32.3653 42.775 32.3653 42.7766C32.3653 42.7782 32.3653 42.7797 32.3653 42.7813C32.3653 42.7829 32.3653 42.7844 32.3653 42.786C32.3653 42.7876 32.3653 42.7891 32.3653 42.7907C32.3653 42.7923 32.3653 42.7938 32.3653 42.7954C32.3653 42.7969 32.3653 42.7985 32.3653 42.8001C32.3653 42.8016 32.3653 42.8032 32.3653 42.8048C32.3653 42.8063 32.3653 42.8079 32.3653 42.8095C32.3653 42.811 32.3653 42.8126 32.3653 42.8142C32.3653 42.8157 32.3653 42.8173 32.3653 42.8189C32.3653 42.8204 32.3653 42.822 32.3653 42.8235C32.3653 42.8251 32.3653 42.8267 32.3653 42.8282C32.3653 42.8298 32.3653 42.8314 32.3653 42.8329C32.3653 42.8345 32.3653 42.8361 32.3653 42.8376C32.3653 42.8392 32.3653 42.8407 32.3653 42.8423C32.3653 42.8439 32.3653 42.8454 32.3653 42.847C32.3653 42.8485 32.3653 42.8501 32.3653 42.8517C32.3653 42.8532 32.3653 42.8548 32.3653 42.8564C32.3653 42.8579 32.3653 42.8595 32.3653 42.861C32.3653 42.8626 32.3653 42.8642 32.3653 42.8657C32.3653 42.8673 32.3653 42.8688 32.3653 42.8704C32.3653 42.872 32.3653 42.8735 32.3653 42.8751C32.3653 42.8766 32.3653 42.8782 32.3653 42.8798C32.3653 42.8813 32.3653 42.8829 32.3653 42.8844C32.3653 42.886 32.3653 42.8876 32.3653 42.8891C32.3653 42.8907 32.3653 42.8922 32.3653 42.8938C32.3653 42.8954 32.3653 42.8969 32.3653 42.8985C32.3653 42.9 32.3653 42.9016 32.3653 42.9032C32.3653 42.9047 32.3653 42.9063 32.3653 42.9078C32.3653 42.9094 32.3653 42.9109 32.3653 42.9125C32.3653 42.9141 32.3653 42.9156 32.3653 42.9172C32.3653 42.9187 32.3653 42.9203 32.3653 42.9219C32.3653 42.9234 32.3653 42.925 32.3653 42.9265C32.3653 42.9281 32.3653 42.9296 32.3653 42.9312C32.3653 42.9328 32.3653 42.9343 32.3653 42.9359C32.3653 42.9374 32.3653 42.939 32.3653 42.9405C32.3653 42.9421 32.3653 42.9436 32.3653 42.9452C32.3653 42.9468 32.3653 42.9483 32.3653 42.9499C32.3653 42.9514 32.3653 42.953 32.3653 42.9545C32.3653 42.9561 32.3653 42.9576 32.3653 42.9592C32.3653 42.9608 32.3653 42.9623 32.3653 42.9639C32.3653 42.9654 32.3653 42.967 32.3653 42.9685C32.3653 42.9701 32.3653 42.9716 32.3653 42.9732C32.3653 42.9747 32.3653 42.9763 32.3653 42.9779C32.3653 42.9794 32.3653 42.981 32.3653 42.9825C32.3653 42.9841 32.3653 42.9856 32.3653 42.9872C32.3653 42.9887 32.3653 42.9903 32.3653 42.9918C32.3653 42.9934 32.3653 42.9949 32.3653 42.9965C32.3653 42.998 32.3653 42.9996 32.3653 43.0011C32.3653 43.0027 32.3653 43.0043 32.3653 43.0058C32.3653 43.0074 32.3653 43.0089 32.3653 43.0105C32.3653 43.012 32.3653 43.0136 32.3653 43.0151C32.3653 43.0167 32.3653 43.0182 32.3653 43.0198C32.3653 43.0213 32.3653 43.0229 32.3653 43.0244C32.3653 43.026 32.3653 43.0275 32.3653 43.0291C32.3653 43.0306 32.3653 43.0322 32.3653 43.0337C32.3653 43.0353 32.3653 43.0368 32.3653 43.0384C32.3653 43.0399 32.3653 43.0415 32.3653 43.043C32.3653 43.0446 32.3653 43.0461 32.3653 43.0477C32.3653 43.0492 32.3653 43.0508 32.3653 43.0523C32.3653 43.0539 32.3653 43.0554 32.3653 43.057C32.3653 43.0585 32.3653 43.0601 32.3653 43.0616C32.3653 43.0632 32.3653 43.0647 32.3653 43.0662C32.3653 43.0678 32.3653 43.0693 32.3653 43.0709C32.3653 43.0724 32.3653 43.074 32.3653 43.0755C32.3653 43.0771 32.3653 43.0786 32.3653 43.0802C32.3653 43.0817 32.3653 43.0833 32.3653 43.0848C32.3653 43.0864 32.3653 43.0879 32.3653 43.0895C32.3653 43.091 32.3653 43.0925 32.3653 43.0941C32.3653 43.0956 32.3653 43.0972 32.3653 43.0987C32.3653 43.1003 32.3653 43.1018 32.3653 43.1034C32.3653 43.1049 32.3653 43.1065 32.3653 43.108C32.3653 43.1095 32.3653 43.1111 32.3653 43.1126H34.3653C34.3653 43.1111 34.3653 43.1095 34.3653 43.108C34.3653 43.1065 34.3653 43.1049 34.3653 43.1034C34.3653 43.1018 34.3653 43.1003 34.3653 43.0987C34.3653 43.0972 34.3653 43.0956 34.3653 43.0941C34.3653 43.0925 34.3653 43.091 34.3653 43.0895C34.3653 43.0879 34.3653 43.0864 34.3653 43.0848C34.3653 43.0833 34.3653 43.0817 34.3653 43.0802C34.3653 43.0786 34.3653 43.0771 34.3653 43.0755C34.3653 43.074 34.3653 43.0724 34.3653 43.0709C34.3653 43.0693 34.3653 43.0678 34.3653 43.0662C34.3653 43.0647 34.3653 43.0632 34.3653 43.0616C34.3653 43.0601 34.3653 43.0585 34.3653 43.057C34.3653 43.0554 34.3653 43.0539 34.3653 43.0523C34.3653 43.0508 34.3653 43.0492 34.3653 43.0477C34.3653 43.0461 34.3653 43.0446 34.3653 43.043C34.3653 43.0415 34.3653 43.0399 34.3653 43.0384C34.3653 43.0368 34.3653 43.0353 34.3653 43.0337C34.3653 43.0322 34.3653 43.0306 34.3653 43.0291C34.3653 43.0275 34.3653 43.026 34.3653 43.0244C34.3653 43.0229 34.3653 43.0213 34.3653 43.0198C34.3653 43.0182 34.3653 43.0167 34.3653 43.0151C34.3653 43.0136 34.3653 43.012 34.3653 43.0105C34.3653 43.0089 34.3653 43.0074 34.3653 43.0058C34.3653 43.0043 34.3653 43.0027 34.3653 43.0011C34.3653 42.9996 34.3653 42.998 34.3653 42.9965C34.3653 42.9949 34.3653 42.9934 34.3653 42.9918C34.3653 42.9903 34.3653 42.9887 34.3653 42.9872C34.3653 42.9856 34.3653 42.9841 34.3653 42.9825C34.3653 42.981 34.3653 42.9794 34.3653 42.9779C34.3653 42.9763 34.3653 42.9747 34.3653 42.9732C34.3653 42.9716 34.3653 42.9701 34.3653 42.9685C34.3653 42.967 34.3653 42.9654 34.3653 42.9639C34.3653 42.9623 34.3653 42.9608 34.3653 42.9592C34.3653 42.9576 34.3653 42.9561 34.3653 42.9545C34.3653 42.953 34.3653 42.9514 34.3653 42.9499C34.3653 42.9483 34.3653 42.9468 34.3653 42.9452C34.3653 42.9436 34.3653 42.9421 34.3653 42.9405C34.3653 42.939 34.3653 42.9374 34.3653 42.9359C34.3653 42.9343 34.3653 42.9328 34.3653 42.9312C34.3653 42.9296 34.3653 42.9281 34.3653 42.9265C34.3653 42.925 34.3653 42.9234 34.3653 42.9219C34.3653 42.9203 34.3653 42.9187 34.3653 42.9172C34.3653 42.9156 34.3653 42.9141 34.3653 42.9125C34.3653 42.9109 34.3653 42.9094 34.3653 42.9078C34.3653 42.9063 34.3653 42.9047 34.3653 42.9032C34.3653 42.9016 34.3653 42.9 34.3653 42.8985C34.3653 42.8969 34.3653 42.8954 34.3653 42.8938C34.3653 42.8922 34.3653 42.8907 34.3653 42.8891C34.3653 42.8876 34.3653 42.886 34.3653 42.8844C34.3653 42.8829 34.3653 42.8813 34.3653 42.8798C34.3653 42.8782 34.3653 42.8766 34.3653 42.8751C34.3653 42.8735 34.3653 42.872 34.3653 42.8704C34.3653 42.8688 34.3653 42.8673 34.3653 42.8657C34.3653 42.8642 34.3653 42.8626 34.3653 42.861C34.3653 42.8595 34.3653 42.8579 34.3653 42.8564C34.3653 42.8548 34.3653 42.8532 34.3653 42.8517C34.3653 42.8501 34.3653 42.8485 34.3653 42.847C34.3653 42.8454 34.3653 42.8439 34.3653 42.8423C34.3653 42.8407 34.3653 42.8392 34.3653 42.8376C34.3653 42.8361 34.3653 42.8345 34.3653 42.8329C34.3653 42.8314 34.3653 42.8298 34.3653 42.8282C34.3653 42.8267 34.3653 42.8251 34.3653 42.8235C34.3653 42.822 34.3653 42.8204 34.3653 42.8189C34.3653 42.8173 34.3653 42.8157 34.3653 42.8142C34.3653 42.8126 34.3653 42.811 34.3653 42.8095C34.3653 42.8079 34.3653 42.8063 34.3653 42.8048C34.3653 42.8032 34.3653 42.8016 34.3653 42.8001C34.3653 42.7985 34.3653 42.7969 34.3653 42.7954C34.3653 42.7938 34.3653 42.7923 34.3653 42.7907C34.3653 42.7891 34.3653 42.7876 34.3653 42.786C34.3653 42.7844 34.3653 42.7829 34.3653 42.7813C34.3653 42.7797 34.3653 42.7782 34.3653 42.7766C34.3653 42.775 34.3653 42.7735 34.3653 42.7719C34.3653 42.7703 34.3653 42.7688 34.3653 42.7672C34.3653 42.7656 34.3653 42.7641 34.3653 42.7625C34.3653 42.7609 34.3653 42.7594 34.3653 42.7578C34.3653 42.7562 34.3653 42.7547 34.3653 42.7531C34.3653 42.7515 34.3653 42.7499 34.3653 42.7484C34.3653 42.7468 34.3653 42.7452 34.3653 42.7437C34.3653 42.7421 34.3653 42.7405 34.3653 42.739C34.3653 42.7374 34.3653 42.7358 34.3653 42.7343C34.3653 42.7327 34.3653 42.7311 34.3653 42.7296C34.3653 42.728 34.3653 42.7264 34.3653 42.7248C34.3653 42.7233 34.3653 42.7217 34.3653 42.7201C34.3653 42.7186 34.3653 42.717 34.3653 42.7154C34.3653 42.7139 34.3653 42.7123 34.3653 42.7107C34.3653 42.7091 34.3653 42.7076 34.3653 42.706C34.3653 42.7044 34.3653 42.7029 34.3653 42.7013C34.3653 42.6997 34.3653 42.6981 34.3653 42.6966C34.3653 42.695 34.3653 42.6934 34.3653 42.6919C34.3653 42.6903 34.3653 42.6887 34.3653 42.6871C34.3653 42.6856 34.3653 42.684 34.3653 42.6824C34.3653 42.6809 34.3653 42.6793 34.3653 42.6777C34.3653 42.6761 34.3653 42.6746 34.3653 42.673C34.3653 42.6714 34.3653 42.6698 34.3653 42.6683C34.3653 42.6667 34.3653 42.6651 34.3653 42.6635C34.3653 42.662 34.3653 42.6604 34.3653 42.6588C34.3653 42.6573 34.3653 42.6557 34.3653 42.6541C34.3653 42.6525 34.3653 42.651 34.3653 42.6494C34.3653 42.6478 34.3653 42.6462 34.3653 42.6447C34.3653 42.6431 34.3653 42.6415 34.3653 42.6399C34.3653 42.6384 34.3653 42.6368 34.3653 42.6352C34.3653 42.6336 34.3653 42.6321 34.3653 42.6305C34.3653 42.6289 34.3653 42.6273 34.3653 42.6258C34.3653 42.6242 34.3653 42.6226 34.3653 42.621C34.3653 42.6195 34.3653 42.6179 34.3653 42.6163C34.3653 42.6147 34.3653 42.6131 34.3653 42.6116C34.3653 42.61 34.3653 42.6084 34.3653 42.6068C34.3653 42.6053 34.3653 42.6037 34.3653 42.6021C34.3653 42.6005 34.3653 42.599 34.3653 42.5974C34.3653 42.5958 34.3653 42.5942 34.3653 42.5926C34.3653 42.5911 34.3653 42.5895 34.3653 42.5879C34.3653 42.5863 34.3653 42.5848 34.3653 42.5832C34.3653 42.5816 34.3653 42.58 34.3653 42.5784C34.3653 42.5769 34.3653 42.5753 34.3653 42.5737C34.3653 42.5721 34.3653 42.5705 34.3653 42.569C34.3653 42.5674 34.3653 42.5658 34.3653 42.5642C34.3653 42.5626 34.3653 42.5611 34.3653 42.5595C34.3653 42.5579 34.3653 42.5563 34.3653 42.5547C34.3653 42.5532 34.3653 42.5516 34.3653 42.55C34.3653 42.5484 34.3653 42.5468 34.3653 42.5453C34.3653 42.5437 34.3653 42.5421 34.3653 42.5405C34.3653 42.5389 34.3653 42.5374 34.3653 42.5358C34.3653 42.5342 34.3653 42.5326 34.3653 42.531C34.3653 42.5295 34.3653 42.5279 34.3653 42.5263C34.3653 42.5247 34.3653 42.5231 34.3653 42.5215C34.3653 42.52 34.3653 42.5184 34.3653 42.5168C34.3653 42.5152 34.3653 42.5136 34.3653 42.512C34.3653 42.5105 34.3653 42.5089 34.3653 42.5073C34.3653 42.5057 34.3653 42.5041 34.3653 42.5025C34.3653 42.501 34.3653 42.4994 34.3653 42.4978C34.3653 42.4962 34.3653 42.4946 34.3653 42.493C34.3653 42.4915 34.3653 42.4899 34.3653 42.4883C34.3653 42.4867 34.3653 42.4851 34.3653 42.4835C34.3653 42.482 34.3653 42.4804 34.3653 42.4788C34.3653 42.4772 34.3653 42.4756 34.3653 42.474C34.3653 42.4724 34.3653 42.4709 34.3653 42.4693C34.3653 42.4677 34.3653 42.4661 34.3653 42.4645C34.3653 42.4629 34.3653 42.4614 34.3653 42.4598C34.3653 42.4582 34.3653 42.4566 34.3653 42.455C34.3653 42.4534 34.3653 42.4518 34.3653 42.4502C34.3653 42.4487 34.3653 42.4471 34.3653 42.4455C34.3653 42.4439 34.3653 42.4423 34.3653 42.4407C34.3653 42.4391 34.3653 42.4376 34.3653 42.436C34.3653 42.4344 34.3653 42.4328 34.3653 42.4312C34.3653 42.4296 34.3653 42.428 34.3653 42.4264C34.3653 42.4249 34.3653 42.4233 34.3653 42.4217C34.3653 42.4201 34.3653 42.4185 34.3653 42.4169C34.3653 42.4153 34.3653 42.4137 34.3653 42.4121C34.3653 42.4106 34.3653 42.409 34.3653 42.4074C34.3653 42.4058 34.3653 42.4042 34.3653 42.4026C34.3653 42.401 34.3653 42.3994 34.3653 42.3978C34.3653 42.3963 34.3653 42.3947 34.3653 42.3931C34.3653 42.3915 34.3653 42.3899 34.3653 42.3883C34.3653 42.3867 34.3653 42.3851 34.3653 42.3835C34.3653 42.3819 34.3653 42.3804 34.3653 42.3788C34.3653 42.3772 34.3653 42.3756 34.3653 42.374C34.3653 42.3724 34.3653 42.3708 34.3653 42.3692C34.3653 42.3676 34.3653 42.366 34.3653 42.3644C34.3653 42.3629 34.3653 42.3613 34.3653 42.3597C34.3653 42.3581 34.3653 42.3565 34.3653 42.3549C34.3653 42.3533 34.3653 42.3517 34.3653 42.3501C34.3653 42.3485 34.3653 42.3469 34.3653 42.3453C34.3653 42.3438 34.3653 42.3422 34.3653 42.3406C34.3653 42.339 34.3653 42.3374 34.3653 42.3358C34.3653 42.3342 34.3653 42.3326 34.3653 42.331C34.3653 42.3294 34.3653 42.3278 34.3653 42.3262C34.3653 42.3246 34.3653 42.323 34.3653 42.3214C34.3653 42.3199 34.3653 42.3183 34.3653 42.3167C34.3653 42.3151 34.3653 42.3135 34.3653 42.3119C34.3653 42.3103 34.3653 42.3087 34.3653 42.3071C34.3653 42.3055 34.3653 42.3039 34.3653 42.3023C34.3653 42.3007 34.3653 42.2991 34.3653 42.2975C34.3653 42.2959 34.3653 42.2943 34.3653 42.2927C34.3653 42.2911 34.3653 42.2895 34.3653 42.288C34.3653 42.2864 34.3653 42.2848 34.3653 42.2832C34.3653 42.2816 34.3653 42.28 34.3653 42.2784C34.3653 42.2768 34.3653 42.2752 34.3653 42.2736C34.3653 42.272 34.3653 42.2704 34.3653 42.2688C34.3653 42.2672 34.3653 42.2656 34.3653 42.264C34.3653 42.2624 34.3653 42.2608 34.3653 42.2592C34.3653 42.2576 34.3653 42.256 34.3653 42.2544C34.3653 42.2528 34.3653 42.2512 34.3653 42.2496C34.3653 42.248 34.3653 42.2464 34.3653 42.2448C34.3653 42.2432 34.3653 42.2416 34.3653 42.24C34.3653 42.2384 34.3653 42.2368 34.3653 42.2352C34.3653 42.2336 34.3653 42.232 34.3653 42.2304C34.3653 42.2288 34.3653 42.2272 34.3653 42.2256C34.3653 42.224 34.3653 42.2224 34.3653 42.2208C34.3653 42.2192 34.3653 42.2176 34.3653 42.216C34.3653 42.2144 34.3653 42.2128 34.3653 42.2112C34.3653 42.2096 34.3653 42.208 34.3653 42.2064C34.3653 42.2048 34.3653 42.2032 34.3653 42.2016C34.3653 42.2 34.3653 42.1984 34.3653 42.1968C34.3653 42.1952 34.3653 42.1936 34.3653 42.192C34.3653 42.1904 34.3653 42.1888 34.3653 42.1872C34.3653 42.1856 34.3653 42.184 34.3653 42.1824C34.3653 42.1808 34.3653 42.1792 34.3653 42.1776C34.3653 42.176 34.3653 42.1744 34.3653 42.1728C34.3653 42.1712 34.3653 42.1696 34.3653 42.168C34.3653 42.1664 34.3653 42.1648 34.3653 42.1632C34.3653 42.1616 34.3653 42.16 34.3653 42.1584C34.3653 42.1568 34.3653 42.1552 34.3653 42.1536C34.3653 42.152 34.3653 42.1504 34.3653 42.1488C34.3653 42.1472 34.3653 42.1456 34.3653 42.144C34.3653 42.1424 34.3653 42.1408 34.3653 42.1391C34.3653 42.1375 34.3653 42.1359 34.3653 42.1343C34.3653 42.1327 34.3653 42.1311 34.3653 42.1295C34.3653 42.1279 34.3653 42.1263 34.3653 42.1247C34.3653 42.1231 34.3653 42.1215 34.3653 42.1199C34.3653 42.1183 34.3653 42.1167 34.3653 42.1151C34.3653 42.1135 34.3653 42.1119 34.3653 42.1103C34.3653 42.1087 34.3653 42.107 34.3653 42.1054C34.3653 42.1038 34.3653 42.1022 34.3653 42.1006C34.3653 42.099 34.3653 42.0974 34.3653 42.0958C34.3653 42.0942 34.3653 42.0926 34.3653 42.091C34.3653 42.0894 34.3653 42.0878 34.3653 42.0862C34.3653 42.0846 34.3653 42.0829 34.3653 42.0813C34.3653 42.0797 34.3653 42.0781 34.3653 42.0765C34.3653 42.0749 34.3653 42.0733 34.3653 42.0717C34.3653 42.0701 34.3653 42.0685 34.3653 42.0669C34.3653 42.0653 34.3653 42.0637 34.3653 42.062C34.3653 42.0604 34.3653 42.0588 34.3653 42.0572C34.3653 42.0556 34.3653 42.054 34.3653 42.0524C34.3653 42.0508 34.3653 42.0492 34.3653 42.0476C34.3653 42.046 34.3653 42.0443 34.3653 42.0427C34.3653 42.0411 34.3653 42.0395 34.3653 42.0379C34.3653 42.0363 34.3653 42.0347 34.3653 42.0331C34.3653 42.0315 34.3653 42.0299 34.3653 42.0282C34.3653 42.0266 34.3653 42.025 34.3653 42.0234C34.3653 42.0218 34.3653 42.0202 34.3653 42.0186C34.3653 42.017 34.3653 42.0154 34.3653 42.0137C34.3653 42.0121 34.3653 42.0105 34.3653 42.0089C34.3653 42.0073 34.3653 42.0057 34.3653 42.0041C34.3653 42.0025 34.3653 42.0009 34.3653 41.9992C34.3653 41.9976 34.3653 41.996 34.3653 41.9944C34.3653 41.9928 34.3653 41.9912 34.3653 41.9896C34.3653 41.988 34.3653 41.9863 34.3653 41.9847C34.3653 41.9831 34.3653 41.9815 34.3653 41.9799C34.3653 41.9783 34.3653 41.9767 34.3653 41.9751C34.3653 41.9734 34.3653 41.9718 34.3653 41.9702C34.3653 41.9686 34.3653 41.967 34.3653 41.9654C34.3653 41.9638 34.3653 41.9621 34.3653 41.9605C34.3653 41.9589 34.3653 41.9573 34.3653 41.9557C34.3653 41.9541 34.3653 41.9525 34.3653 41.9508C34.3653 41.9492 34.3653 41.9476 34.3653 41.946C34.3653 41.9444 34.3653 41.9428 34.3653 41.9412C34.3653 41.9395 34.3653 41.9379 34.3653 41.9363C34.3653 41.9347 34.3653 41.9331 34.3653 41.9315C34.3653 41.9299 34.3653 41.9282 34.3653 41.9266C34.3653 41.925 34.3653 41.9234 34.3653 41.9218C34.3653 41.9202 34.3653 41.9185 34.3653 41.9169C34.3653 41.9153 34.3653 41.9137 34.3653 41.9121C34.3653 41.9105 34.3653 41.9088 34.3653 41.9072C34.3653 41.9056 34.3653 41.904 34.3653 41.9024C34.3653 41.9008 34.3653 41.8991 34.3653 41.8975C34.3653 41.8959 34.3653 41.8943 34.3653 41.8927C34.3653 41.891 34.3653 41.8894 34.3653 41.8878C34.3653 41.8862 34.3653 41.8846 34.3653 41.883C34.3653 41.8813 34.3653 41.8797 34.3653 41.8781C34.3653 41.8765 34.3653 41.8749 34.3653 41.8732C34.3653 41.8716 34.3653 41.87 34.3653 41.8684C34.3653 41.8668 34.3653 41.8652 34.3653 41.8635C34.3653 41.8619 34.3653 41.8603 34.3653 41.8587C34.3653 41.8571 34.3653 41.8554 34.3653 41.8538C34.3653 41.8522 34.3653 41.8506 34.3653 41.849C34.3653 41.8473 34.3653 41.8457 34.3653 41.8441C34.3653 41.8425 34.3653 41.8409 34.3653 41.8392C34.3653 41.8376 34.3653 41.836 34.3653 41.8344C34.3653 41.8328 34.3653 41.8311 34.3653 41.8295C34.3653 41.8279 34.3653 41.8263 34.3653 41.8246C34.3653 41.823 34.3653 41.8214 34.3653 41.8198C34.3653 41.8182 34.3653 41.8165 34.3653 41.8149C34.3653 41.8133 34.3653 41.8117 34.3653 41.8101C34.3653 41.8084 34.3653 41.8068 34.3653 41.8052C34.3653 41.8036 34.3653 41.8019 34.3653 41.8003C34.3653 41.7987 34.3653 41.7971 34.3653 41.7955C34.3653 41.7938 34.3653 41.7922 34.3653 41.7906C34.3653 41.789 34.3653 41.7873 34.3653 41.7857C34.3653 41.7841 34.3653 41.7825 34.3653 41.7808C34.3653 41.7792 34.3653 41.7776 34.3653 41.776C34.3653 41.7743 34.3653 41.7727 34.3653 41.7711C34.3653 41.7695 34.3653 41.7679 34.3653 41.7662C34.3653 41.7646 34.3653 41.763 34.3653 41.7614C34.3653 41.7597 34.3653 41.7581 34.3653 41.7565C34.3653 41.7549 34.3653 41.7532 34.3653 41.7516C34.3653 41.75 34.3653 41.7484 34.3653 41.7467C34.3653 41.7451 34.3653 41.7435 34.3653 41.7419C34.3653 41.7402 34.3653 41.7386 34.3653 41.737C34.3653 41.7354 34.3653 41.7337 34.3653 41.7321C34.3653 41.7305 34.3653 41.7288 34.3653 41.7272C34.3653 41.7256 34.3653 41.724 34.3653 41.7223C34.3653 41.7207 34.3653 41.7191 34.3653 41.7175C34.3653 41.7158 34.3653 41.7142 34.3653 41.7126C34.3653 41.711 34.3653 41.7093 34.3653 41.7077C34.3653 41.7061 34.3653 41.7044 34.3653 41.7028C34.3653 41.7012 34.3653 41.6996 34.3653 41.6979C34.3653 41.6963 34.3653 41.6947 34.3653 41.693C34.3653 41.6914 34.3653 41.6898 34.3653 41.6882C34.3653 41.6865 34.3653 41.6849 34.3653 41.6833C34.3653 41.6817 34.3653 41.68 34.3653 41.6784C34.3653 41.6768 34.3653 41.6751 34.3653 41.6735C34.3653 41.6719 34.3653 41.6702 34.3653 41.6686C34.3653 41.667 34.3653 41.6654 34.3653 41.6637C34.3653 41.6621 34.3653 41.6605 34.3653 41.6588C34.3653 41.6572 34.3653 41.6556 34.3653 41.654C34.3653 41.6523 34.3653 41.6507 34.3653 41.6491C34.3653 41.6474 34.3653 41.6458 34.3653 41.6442C34.3653 41.6425 34.3653 41.6409 34.3653 41.6393C34.3653 41.6376 34.3653 41.636 34.3653 41.6344C34.3653 41.6328 34.3653 41.6311 34.3653 41.6295C34.3653 41.6279 34.3653 41.6262 34.3653 41.6246C34.3653 41.623 34.3653 41.6213 34.3653 41.6197C34.3653 41.6181 34.3653 41.6164 34.3653 41.6148C34.3653 41.6132 34.3653 41.6115 34.3653 41.6099C34.3653 41.6083 34.3653 41.6066 34.3653 41.605C34.3653 41.6034 34.3653 41.6017 34.3653 41.6001C34.3653 41.5985 34.3653 41.5968 34.3653 41.5952C34.3653 41.5936 34.3653 41.5919 34.3653 41.5903C34.3653 41.5887 34.3653 41.587 34.3653 41.5854C34.3653 41.5838 34.3653 41.5821 34.3653 41.5805C34.3653 41.5789 34.3653 41.5772 34.3653 41.5756C34.3653 41.574 34.3653 41.5723 34.3653 41.5707C34.3653 41.5691 34.3653 41.5674 34.3653 41.5658C34.3653 41.5642 34.3653 41.5625 34.3653 41.5609C34.3653 41.5593 34.3653 41.5576 34.3653 41.556C34.3653 41.5544 34.3653 41.5527 34.3653 41.5511C34.3653 41.5495 34.3653 41.5478 34.3653 41.5462C34.3653 41.5446 34.3653 41.5429 34.3653 41.5413C34.3653 41.5396 34.3653 41.538 34.3653 41.5364C34.3653 41.5347 34.3653 41.5331 34.3653 41.5315C34.3653 41.5298 34.3653 41.5282 34.3653 41.5266C34.3653 41.5249 34.3653 41.5233 34.3653 41.5216C34.3653 41.52 34.3653 41.5184 34.3653 41.5167C34.3653 41.5151 34.3653 41.5135 34.3653 41.5118C34.3653 41.5102 34.3653 41.5085 34.3653 41.5069C34.3653 41.5053 34.3653 41.5036 34.3653 41.502C34.3653 41.5004 34.3653 41.4987 34.3653 41.4971C34.3653 41.4954 34.3653 41.4938 34.3653 41.4922C34.3653 41.4905 34.3653 41.4889 34.3653 41.4873C34.3653 41.4856 34.3653 41.484 34.3653 41.4823C34.3653 41.4807 34.3653 41.4791 34.3653 41.4774C34.3653 41.4758 34.3653 41.4741 34.3653 41.4725C34.3653 41.4709 34.3653 41.4692 34.3653 41.4676C34.3653 41.4659 34.3653 41.4643 34.3653 41.4627C34.3653 41.461 34.3653 41.4594 34.3653 41.4578C34.3653 41.4561 34.3653 41.4545 34.3653 41.4528C34.3653 41.4512 34.3653 41.4496 34.3653 41.4479C34.3653 41.4463 34.3653 41.4446 34.3653 41.443C34.3653 41.4413 34.3653 41.4397 34.3653 41.4381C34.3653 41.4364 34.3653 41.4348 34.3653 41.4331C34.3653 41.4315 34.3653 41.4299 34.3653 41.4282C34.3653 41.4266 34.3653 41.4249 34.3653 41.4233C34.3653 41.4217 34.3653 41.42 34.3653 41.4184C34.3653 41.4167 34.3653 41.4151 34.3653 41.4134C34.3653 41.4118 34.3653 41.4102 34.3653 41.4085C34.3653 41.4069 34.3653 41.4052 34.3653 41.4036C34.3653 41.4019 34.3653 41.4003 34.3653 41.3987C34.3653 41.397 34.3653 41.3954 34.3653 41.3937C34.3653 41.3921 34.3653 41.3904 34.3653 41.3888C34.3653 41.3872 34.3653 41.3855 34.3653 41.3839C34.3653 41.3822 34.3653 41.3806 34.3653 41.3789C34.3653 41.3773 34.3653 41.3757 34.3653 41.374C34.3653 41.3724 34.3653 41.3707 34.3653 41.3691C34.3653 41.3674 34.3653 41.3658 34.3653 41.3641C34.3653 41.3625 34.3653 41.3609 34.3653 41.3592C34.3653 41.3576 34.3653 41.3559 34.3653 41.3543C34.3653 41.3526 34.3653 41.351 34.3653 41.3493C34.3653 41.3477 34.3653 41.3461 34.3653 41.3444C34.3653 41.3428 34.3653 41.3411 34.3653 41.3395C34.3653 41.3378 34.3653 41.3362 34.3653 41.3345C34.3653 41.3329 34.3653 41.3312 34.3653 41.3296C34.3653 41.328 34.3653 41.3263 34.3653 41.3247C34.3653 41.323 34.3653 41.3214 34.3653 41.3197C34.3653 41.3181 34.3653 41.3164 34.3653 41.3148C34.3653 41.3131 34.3653 41.3115 34.3653 41.3098C34.3653 41.3082 34.3653 41.3065 34.3653 41.3049C34.3653 41.3033 34.3653 41.3016 34.3653 41.3C34.3653 41.2983 34.3653 41.2967 34.3653 41.295C34.3653 41.2934 34.3653 41.2917 34.3653 41.2901C34.3653 41.2884 34.3653 41.2868 34.3653 41.2851C34.3653 41.2835 34.3653 41.2818 34.3653 41.2802C34.3653 41.2785 34.3653 41.2769 34.3653 41.2752C34.3653 41.2736 34.3653 41.2719 34.3653 41.2703C34.3653 41.2686 34.3653 41.267 34.3653 41.2653C34.3653 41.2637 34.3653 41.262 34.3653 41.2604C34.3653 41.2587 34.3653 41.2571 34.3653 41.2554C34.3653 41.2538 34.3653 41.2521 34.3653 41.2505C34.3653 41.2488 34.3653 41.2472 34.3653 41.2455C34.3653 41.2439 34.3653 41.2422 34.3653 41.2406C34.3653 41.2389 34.3653 41.2373 34.3653 41.2356C34.3653 41.234 34.3653 41.2323 34.3653 41.2307C34.3653 41.229 34.3653 41.2274 34.3653 41.2257C34.3653 41.2241 34.3653 41.2224 34.3653 41.2208C34.3653 41.2191 34.3653 41.2175 34.3653 41.2158C34.3653 41.2142 34.3653 41.2125 34.3653 41.2109C34.3653 41.2092 34.3653 41.2076 34.3653 41.2059C34.3653 41.2043 34.3653 41.2026 34.3653 41.201C34.3653 41.1993 34.3653 41.1977 34.3653 41.196C34.3653 41.1944 34.3653 41.1927 34.3653 41.1911C34.3653 41.1894 34.3653 41.1877 34.3653 41.1861C34.3653 41.1844 34.3653 41.1828 34.3653 41.1811C34.3653 41.1795 34.3653 41.1778 34.3653 41.1762C34.3653 41.1745 34.3653 41.1729 34.3653 41.1712C34.3653 41.1696 34.3653 41.1679 34.3653 41.1663C34.3653 41.1646 34.3653 41.1629 34.3653 41.1613C34.3653 41.1596 34.3653 41.158 34.3653 41.1563C34.3653 41.1547 34.3653 41.153 34.3653 41.1514C34.3653 41.1497 34.3653 41.1481 34.3653 41.1464C34.3653 41.1447 34.3653 41.1431 34.3653 41.1414C34.3653 41.1398 34.3653 41.1381 34.3653 41.1365C34.3653 41.1348 34.3653 41.1332 34.3653 41.1315C34.3653 41.1299 34.3653 41.1282 34.3653 41.1265C34.3653 41.1249 34.3653 41.1232 34.3653 41.1216C34.3653 41.1199 34.3653 41.1183 34.3653 41.1166C34.3653 41.115 34.3653 41.1133 34.3653 41.1116C34.3653 41.11 34.3653 41.1083 34.3653 41.1067C34.3653 41.105 34.3653 41.1034 34.3653 41.1017C34.3653 41.1 34.3653 41.0984 34.3653 41.0967C34.3653 41.0951 34.3653 41.0934 34.3653 41.0918C34.3653 41.0901 34.3653 41.0884 34.3653 41.0868C34.3653 41.0851 34.3653 41.0835 34.3653 41.0818C34.3653 41.0802 34.3653 41.0785 34.3653 41.0768C34.3653 41.0752 34.3653 41.0735 34.3653 41.0719C34.3653 41.0702 34.3653 41.0686 34.3653 41.0669C34.3653 41.0652 34.3653 41.0636 34.3653 41.0619C34.3653 41.0603 34.3653 41.0586 34.3653 41.0569C34.3653 41.0553 34.3653 41.0536 34.3653 41.052C34.3653 41.0503 34.3653 41.0486 34.3653 41.047C34.3653 41.0453 34.3653 41.0437 34.3653 41.042C34.3653 41.0404 34.3653 41.0387 34.3653 41.037C34.3653 41.0354 34.3653 41.0337 34.3653 41.0321C34.3653 41.0304 34.3653 41.0287 34.3653 41.0271C34.3653 41.0254 34.3653 41.0238 34.3653 41.0221C34.3653 41.0204 34.3653 41.0188 34.3653 41.0171C34.3653 41.0154 34.3653 41.0138 34.3653 41.0121C34.3653 41.0105 34.3653 41.0088 34.3653 41.0071C34.3653 41.0055 34.3653 41.0038 34.3653 41.0022C34.3653 41.0005 34.3653 40.9988 34.3653 40.9972C34.3653 40.9955 34.3653 40.9939 34.3653 40.9922C34.3653 40.9905 34.3653 40.9889 34.3653 40.9872C34.3653 40.9855 34.3653 40.9839 34.3653 40.9822C34.3653 40.9806 34.3653 40.9789 34.3653 40.9772C34.3653 40.9756 34.3653 40.9739 34.3653 40.9722C34.3653 40.9706 34.3653 40.9689 34.3653 40.9673C34.3653 40.9656 34.3653 40.9639 34.3653 40.9623C34.3653 40.9606 34.3653 40.9589 34.3653 40.9573C34.3653 40.9556 34.3653 40.954 34.3653 40.9523C34.3653 40.9506 34.3653 40.949 34.3653 40.9473C34.3653 40.9456 34.3653 40.944 34.3653 40.9423C34.3653 40.9406 34.3653 40.939 34.3653 40.9373C34.3653 40.9357 34.3653 40.934 34.3653 40.9323C34.3653 40.9307 34.3653 40.929 34.3653 40.9273C34.3653 40.9257 34.3653 40.924 34.3653 40.9223C34.3653 40.9207 34.3653 40.919 34.3653 40.9173C34.3653 40.9157 34.3653 40.914 34.3653 40.9123C34.3653 40.9107 34.3653 40.909 34.3653 40.9074C34.3653 40.9057 34.3653 40.904 34.3653 40.9024C34.3653 40.9007 34.3653 40.899 34.3653 40.8974C34.3653 40.8957 34.3653 40.894 34.3653 40.8924C34.3653 40.8907 34.3653 40.889 34.3653 40.8874C34.3653 40.8857 34.3653 40.884 34.3653 40.8824C34.3653 40.8807 34.3653 40.879 34.3653 40.8774C34.3653 40.8757 34.3653 40.874 34.3653 40.8724C34.3653 40.8707 34.3653 40.869 34.3653 40.8674C34.3653 40.8657 34.3653 40.864 34.3653 40.8624C34.3653 40.8607 34.3653 40.859 34.3653 40.8574C34.3653 40.8557 34.3653 40.854 34.3653 40.8524C34.3653 40.8507 34.3653 40.849 34.3653 40.8474C34.3653 40.8457 34.3653 40.844 34.3653 40.8423C34.3653 40.8407 34.3653 40.839 34.3653 40.8373C34.3653 40.8357 34.3653 40.834 34.3653 40.8323C34.3653 40.8307 34.3653 40.829 34.3653 40.8273C34.3653 40.8257 34.3653 40.824 34.3653 40.8223C34.3653 40.8207 34.3653 40.819 34.3653 40.8173C34.3653 40.8156 34.3653 40.814 34.3653 40.8123C34.3653 40.8106 34.3653 40.809 34.3653 40.8073C34.3653 40.8056 34.3653 40.804 34.3653 40.8023C34.3653 40.8006 34.3653 40.7989 34.3653 40.7973C34.3653 40.7956 34.3653 40.7939 34.3653 40.7923C34.3653 40.7906 34.3653 40.7889 34.3653 40.7873C34.3653 40.7856 34.3653 40.7839 34.3653 40.7822C34.3653 40.7806 34.3653 40.7789 34.3653 40.7772C34.3653 40.7756 34.3653 40.7739 34.3653 40.7722C34.3653 40.7705 34.3653 40.7689 34.3653 40.7672C34.3653 40.7655 34.3653 40.7639 34.3653 40.7622C34.3653 40.7605 34.3653 40.7588 34.3653 40.7572C34.3653 40.7555 34.3653 40.7538 34.3653 40.7522C34.3653 40.7505 34.3653 40.7488 34.3653 40.7471C34.3653 40.7455 34.3653 40.7438 34.3653 40.7421C34.3653 40.7404 34.3653 40.7388 34.3653 40.7371C34.3653 40.7354 34.3653 40.7338 34.3653 40.7321C34.3653 40.7304 34.3653 40.7287 34.3653 40.7271C34.3653 40.7254 34.3653 40.7237 34.3653 40.722C34.3653 40.7204 34.3653 40.7187 34.3653 40.717C34.3653 40.7154 34.3653 40.7137 34.3653 40.712C34.3653 40.7103 34.3653 40.7087 34.3653 40.707C34.3653 40.7053 34.3653 40.7036 34.3653 40.702C34.3653 40.7003 34.3653 40.6986 34.3653 40.6969C34.3653 40.6953 34.3653 40.6936 34.3653 40.6919C34.3653 40.6902 34.3653 40.6886 34.3653 40.6869C34.3653 40.6852 34.3653 40.6835 34.3653 40.6819C34.3653 40.6802 34.3653 40.6785 34.3653 40.6768C34.3653 40.6752 34.3653 40.6735 34.3653 40.6718C34.3653 40.6701 34.3653 40.6685 34.3653 40.6668C34.3653 40.6651 34.3653 40.6634 34.3653 40.6618C34.3653 40.6601 34.3653 40.6584 34.3653 40.6567C34.3653 40.6551 34.3653 40.6534 34.3653 40.6517C34.3653 40.65 34.3653 40.6483 34.3653 40.6467C34.3653 40.645 34.3653 40.6433 34.3653 40.6416C34.3653 40.64 34.3653 40.6383 34.3653 40.6366C34.3653 40.6349 34.3653 40.6333 34.3653 40.6316H32.3653ZM27.6224 45C27.3627 45 27.2033 44.8948 27.0861 44.7726C27.0232 44.7071 26.9771 44.6395 26.9479 44.59C26.9338 44.566 26.9252 44.5487 26.9216 44.5414C26.9199 44.5378 26.9196 44.537 26.9206 44.5392C26.9211 44.5404 26.9219 44.5423 26.9231 44.5451C26.9237 44.5465 26.9244 44.5481 26.9251 44.55C26.9255 44.5509 26.9259 44.5519 26.9263 44.5529C26.9265 44.5535 26.9268 44.554 26.927 44.5545C26.9271 44.5548 26.9273 44.5552 26.9273 44.5554C26.9275 44.5558 26.9277 44.5562 26 44.9297C25.0723 45.3031 25.0725 45.3035 25.0727 45.304C25.0728 45.3041 25.0729 45.3046 25.0731 45.3049C25.0733 45.3055 25.0736 45.3061 25.0738 45.3068C25.0744 45.3081 25.0749 45.3094 25.0755 45.3109C25.0767 45.3138 25.078 45.3169 25.0795 45.3204C25.0823 45.3272 25.0857 45.3352 25.0897 45.3442C25.0976 45.3621 25.1077 45.3842 25.12 45.4099C25.1447 45.4611 25.179 45.5274 25.2239 45.6038C25.3128 45.755 25.4489 45.955 25.6427 46.157C26.0388 46.57 26.6905 47 27.6224 47V45ZM32.3653 43.1126C32.3653 43.8261 32.5485 44.477 32.7542 44.988L34.6096 44.2413C34.465 43.8821 34.3653 43.4919 34.3653 43.1126H32.3653ZM27.3896 40.6154C28.0001 40.6154 28.495 41.1103 28.495 41.7207H30.495C30.495 40.0057 29.1047 38.6154 27.3896 38.6154V40.6154ZM27.6224 47C28.2811 47 28.8413 46.7626 29.2742 46.3601C29.6843 45.9786 29.9394 45.4884 30.1043 45.0216C30.4302 44.0992 30.495 43.0017 30.495 42.1712H28.495C28.495 42.9483 28.4271 43.7651 28.2186 44.3553C28.1163 44.6447 28.0037 44.8103 27.9121 44.8956C27.8431 44.9597 27.7674 45 27.6224 45V47ZM27.7339 36C30.2917 36 32.3653 38.0737 32.3653 40.6316H34.3653C34.3653 36.9692 31.3964 34 27.7339 34V36Z" fill="#212121"/>
<path d="M29.5025 44.6449L30.4056 45.548C30.9409 46.0833 31.7999 46.1105 32.368 45.6102L32.6852 45.3309C33.2251 44.8553 34.0338 44.8534 34.576 45.3263L34.9122 45.6194C35.4806 46.1152 36.3359 46.086 36.8693 45.5527L37.422 45" stroke="#212121" stroke-width="2" stroke-linecap="round"/>
<path d="M19 34.25C19 34.1119 19.1119 34 19.25 34H23V40H19.25C19.1119 40 19 39.8881 19 39.75V34.25Z" stroke="#212121" stroke-width="2" stroke-linecap="round"/>
<path d="M53.6585 3.5063L50.2215 9.4434C49.797 10.1766 50.3259 11.0945 51.1734 11.0945H52.9369L52.2291 14.4799C51.9532 15.7996 53.7275 16.5011 54.4286 15.3496L58.0517 9.39975C58.498 8.66671 57.9704 7.72765 57.1121 7.72765H55.2424L55.8767 4.32758C56.124 3.00195 54.3342 2.33923 53.6585 3.5063ZM52.7204 14.3095C52.7205 14.3093 52.7206 14.3091 52.7207 14.3089L52.7204 14.3095Z" stroke="#212121" stroke-width="2"/>
<path fill-rule="evenodd" clip-rule="evenodd" d="M49.356 8.94236L52.7931 3.00526L54.524 4.00729L51.0869 9.94439C51.0483 10.0111 51.0964 10.0945 51.1734 10.0945H52.9369C52.9833 10.0945 53.0287 10.0976 53.0732 10.1036C53.1439 10.1132 53.212 10.1301 53.2768 10.1534C53.5042 10.2354 53.6911 10.3972 53.8073 10.6018C53.9223 10.8042 53.9681 11.0486 53.9158 11.2992L53.2079 14.6846C53.1619 14.9045 53.4577 15.0214 53.5745 14.8295L57.1975 8.87964C57.2381 8.813 57.1902 8.72763 57.1121 8.72763H55.2424C55.2321 8.72763 55.2219 8.72748 55.2117 8.72717C55.1282 8.72468 55.0476 8.71206 54.971 8.69059C54.7208 8.62044 54.5129 8.45581 54.384 8.24088C54.2638 8.04045 54.2123 7.79628 54.2594 7.54424L54.8937 4.14417C54.9349 3.92323 54.6366 3.81278 54.524 4.00729L52.7931 3.00526C54.0318 0.865629 57.3131 2.08062 56.8597 4.51095L56.4462 6.72763H57.1121C58.7506 6.72763 59.7579 8.52039 58.9058 9.91982L55.2827 15.8697C53.9973 17.9808 50.7444 16.6946 51.2503 14.2753L51.7062 12.0945H51.1734C49.5553 12.0945 48.5457 10.342 49.356 8.94236Z" fill="#212121"/>
</svg>
