<svg width="64" height="64" viewBox="0 0 64 64" fill="none" xmlns="http://www.w3.org/2000/svg">
<g clip-path="url(#clip0_4740_3160)">
<path fill-rule="evenodd" clip-rule="evenodd" d="M49.356 9.94236L52.7931 4.00526L54.524 5.00729L51.0869 10.9444C51.0483 11.0111 51.0964 11.0945 51.1734 11.0945H52.9369C52.9833 11.0945 53.0287 11.0976 53.0732 11.1036C53.1439 11.1132 53.212 11.1301 53.2768 11.1534C53.5042 11.2354 53.6911 11.3972 53.8073 11.6018C53.9223 11.8042 53.9681 12.0486 53.9158 12.2992L53.2079 15.6846C53.1619 15.9045 53.4577 16.0214 53.5745 15.8295L57.1975 9.87964C57.2381 9.813 57.1902 9.72763 57.1121 9.72763H55.2424C55.2321 9.72763 55.2219 9.72748 55.2117 9.72717C55.1282 9.72468 55.0476 9.71206 54.971 9.69059C54.7208 9.62044 54.5129 9.45581 54.384 9.24088C54.2638 9.04045 54.2123 8.79628 54.2594 8.54424L54.8937 5.14417C54.9349 4.92323 54.6366 4.81278 54.524 5.00729L52.7931 4.00526C54.0318 1.86563 57.3131 3.08062 56.8597 5.51095L56.4462 7.72763H57.1121C58.7506 7.72763 59.7579 9.52039 58.9058 10.9198L55.2827 16.8697C53.9973 18.9808 50.7444 17.6946 51.2503 15.2753L51.7062 13.0945H51.1734C49.5553 13.0945 48.5457 11.342 49.356 9.94236Z" fill="#212121"/>
<path d="M26.107 2.17033C26.3832 2.64863 26.2193 3.26022 25.741 3.53636L22.4406 5.44185C21.9623 5.718 21.3507 5.55412 21.0746 5.07583C20.7984 4.59754 20.9623 3.98594 21.4406 3.7098L24.741 1.80431C25.2193 1.52817 25.8309 1.69204 26.107 2.17033Z" fill="#212121"/>
<path fill-rule="evenodd" clip-rule="evenodd" d="M16.4697 13.1571C19.1533 11.6078 20.0727 8.17634 18.5234 5.49279C16.974 2.80923 13.5426 1.88978 10.859 3.43913C8.17546 4.98848 7.25601 8.41993 8.80536 11.1035C10.3547 13.787 13.7862 14.7065 16.4697 13.1571ZM16.7913 6.49279C17.7884 8.21975 17.1967 10.428 15.4697 11.4251C13.7427 12.4221 11.5345 11.8304 10.5374 10.1035C9.54035 8.37651 10.1321 6.16825 11.859 5.17118C13.586 4.17412 15.7943 4.76582 16.7913 6.49279Z" fill="#212121"/>
<path d="M32.8431 25.4635C32.5466 24.9975 31.9286 24.8602 31.4626 25.1567L24.4626 29.6112C23.9967 29.9077 23.8593 30.5258 24.1558 30.9918C24.4523 31.4577 25.0704 31.5951 25.5364 31.2986L27.9996 29.731V33.6329L20.068 38.6803V34.4148L22.5364 32.844C23.0023 32.5475 23.1397 31.9294 22.8431 31.4635C22.5466 30.9975 21.9286 30.8602 21.4626 31.1567L14.4626 35.6112C13.9967 35.9077 13.8593 36.5258 14.1558 36.9918C14.4523 37.4577 15.0704 37.5951 15.5364 37.2986L18.068 35.6875V39.9531L11.4629 44.1563C10.9969 44.4528 10.8596 45.0709 11.1561 45.5368C11.4526 46.0028 12.0707 46.1401 12.5366 45.8436L15.9996 43.6399L15.9996 55.0002C15.9996 55.5525 16.4473 56.0002 16.9996 56.0002C17.5519 56.0002 17.9996 55.5525 17.9996 55.0002L17.9996 42.3672L33.9997 32.1853L49.9996 42.367V55.0002C49.9996 55.5525 50.4473 56.0002 50.9996 56.0002C51.5519 56.0002 51.9996 55.5525 51.9996 55.0002V43.6398L55.4629 45.8436C55.9288 46.1401 56.5469 46.0028 56.8434 45.5368C57.1399 45.0709 57.0026 44.4528 56.5366 44.1563L35.0735 30.498C34.4184 30.0811 33.5811 30.0811 32.926 30.498L29.9996 32.3602V28.4583L32.5364 26.844C33.0023 26.5475 33.1397 25.9294 32.8431 25.4635Z" fill="#212121"/>
<path d="M6.80058 14.4719C7.27887 14.1958 7.44275 13.5842 7.16661 13.1059C6.89046 12.6276 6.27887 12.4637 5.80058 12.7399L2.50017 14.6453C2.02187 14.9215 1.858 15.5331 2.13414 16.0114C2.41028 16.4897 3.02187 16.6535 3.50017 16.3774L6.80058 14.4719Z" fill="#212121"/>
<path d="M12.0435 16.8464C12.5769 16.9893 12.8935 17.5377 12.7506 18.0711L11.7642 21.7523C11.6213 22.2857 11.0729 22.6023 10.5395 22.4594C10.006 22.3164 9.68941 21.7681 9.83235 21.2346L10.8187 17.5535C10.9617 17.02 11.51 16.7034 12.0435 16.8464Z" fill="#212121"/>
<path d="M23.1013 10.4617C22.5678 10.3187 22.0195 10.6353 21.8765 11.1688C21.7336 11.7023 22.0502 12.2506 22.5836 12.3935L26.2648 13.3799C26.7982 13.5228 27.3466 13.2062 27.4895 12.6728C27.6325 12.1393 27.3159 11.591 26.7824 11.448L23.1013 10.4617Z" fill="#212121"/>
<path d="M18.1365 16.0437C18.6148 15.7675 19.2264 15.9314 19.5025 16.4097L21.408 19.7101C21.6842 20.1884 21.5203 20.8 21.042 21.0761C20.5637 21.3523 19.9521 21.1884 19.676 20.7101L17.7705 17.4097C17.4943 16.9314 17.6582 16.3198 18.1365 16.0437Z" fill="#212121"/>
</g>
<defs>
<clipPath id="clip0_4740_3160">
<rect width="64" height="64" fill="white"/>
</clipPath>
</defs>
</svg>
