<svg width="65" height="64" viewBox="0 0 65 64" fill="none" xmlns="http://www.w3.org/2000/svg">
<path fill-rule="evenodd" clip-rule="evenodd" d="M44.1133 32.4768C44.1133 33.5814 43.2178 34.4768 42.1133 34.4768H37.9503C36.8457 34.4768 35.9503 33.5814 35.9503 32.4768V22.5051C35.9503 21.9528 36.398 21.5051 36.9503 21.5051H39.4892C39.8445 21.5051 40.1934 21.5997 40.5 21.7793L43.124 23.3161C43.7368 23.6749 44.1133 24.3318 44.1133 25.0419V32.4768ZM42.1133 32.4768H37.9503V23.5051H39.4892L42.1133 25.0419V32.4768Z" fill="black"/>
<path fill-rule="evenodd" clip-rule="evenodd" d="M28.0785 8.25171C29.169 8.25171 30.0584 9.12517 30.0782 10.2154L30.1355 13.3731C30.6459 13.5894 31.121 13.8908 31.539 14.2689L34.3114 16.7768C34.6791 17.1094 35.1572 17.2936 35.6531 17.2936H40.3783C40.7167 17.2936 41.0496 17.3795 41.3458 17.5431L46.4681 20.3742C47.7423 21.0784 48.5332 22.4193 48.5332 23.8751V52.0568C48.5332 52.6407 48.2781 53.1954 47.8348 53.5753L45.5949 55.4952C45.2325 55.8059 44.7708 55.9767 44.2934 55.9767H18.3616C17.8312 55.9767 17.3225 55.766 16.9474 55.3909L15.119 53.5625C14.7439 53.1874 14.5332 52.6787 14.5332 52.1483V19.4274C14.5332 18.0938 15.1978 16.8479 16.3054 16.1052L20.1292 13.5411L20.0702 10.288C20.0499 9.16942 20.9511 8.25171 22.0698 8.25171H28.0785ZM22.0698 10.2517L28.0785 10.2517L28.128 12.9737H22.1192L22.0698 10.2517ZM17.4193 17.7663L21.5792 14.9768L28.1848 14.9769C28.9285 14.9769 29.6458 15.2532 30.1973 15.7521L32.9697 18.26C33.7051 18.9252 34.6614 19.2936 35.6531 19.2936H40.3783L45.5007 22.1246C46.1377 22.4768 46.5332 23.1472 46.5332 23.8751V38.423C42.2408 35.9981 36.8354 36.4383 32.977 39.6499C29.4272 42.6046 24.3141 42.7389 20.614 39.9747L16.5332 36.926L16.5332 19.4274C16.5332 18.7606 16.8655 18.1377 17.4193 17.7663ZM16.5332 39.4225L16.5332 52.1483L18.3616 53.9767L44.2934 53.9767L46.5332 52.0568V40.7982L46.4751 40.7564C42.7803 38.0979 37.755 38.275 34.2565 41.1871C29.9956 44.7336 23.8583 44.8949 19.417 41.5769L16.5332 39.4225Z" fill="black"/>
</svg>
