<svg width="64" height="64" viewBox="0 0 64 64" fill="none" xmlns="http://www.w3.org/2000/svg">
<path fill-rule="evenodd" clip-rule="evenodd" d="M9.20001 13C9.20001 10.9013 10.9013 9.20001 13 9.20001C15.0987 9.20001 16.8 10.9013 16.8 13C16.8 15.0987 15.0987 16.8 13 16.8C10.9013 16.8 9.20001 15.0987 9.20001 13ZM13 10.8C11.785 10.8 10.8 11.785 10.8 13C10.8 14.215 11.785 15.2 13 15.2C14.215 15.2 15.2 14.215 15.2 13C15.2 11.785 14.215 10.8 13 10.8Z" fill="black"/>
<path fill-rule="evenodd" clip-rule="evenodd" d="M14.1586 22.7528C16.1475 20.5346 20 15.868 20 13C20 9.134 16.866 6 13 6C9.13403 6 6 9.134 6 13C6 15.868 9.85248 20.5346 11.8414 22.7528C12.5336 23.5246 13 24 13 24C13 24 13.4664 23.5246 14.1586 22.7528ZM17.4112 15.5405C18.0338 14.3901 18.3 13.5289 18.3 13C18.3 10.0729 15.9271 7.70001 13 7.70001C10.0729 7.70001 7.70001 10.0729 7.70001 13C7.70001 13.5289 7.96619 14.3901 8.58881 15.5405C9.18451 16.6411 9.99939 17.8147 10.8456 18.9109C11.6143 19.9064 12.3864 20.8094 13 21.498C13.6136 20.8094 14.3857 19.9064 15.1544 18.9109C16.0006 17.8147 16.8155 16.6411 17.4112 15.5405Z" fill="black"/>
<path fill-rule="evenodd" clip-rule="evenodd" d="M53 33C53 36.866 49.866 40 46 40C42.134 40 39 36.866 39 33C39 29.134 42.134 26 46 26C49.866 26 53 29.134 53 33ZM51 33C51 35.7614 48.7614 38 46 38C43.2386 38 41 35.7614 41 33C41 30.2386 43.2386 28 46 28C48.7614 28 51 30.2386 51 33Z" fill="black"/>
<path fill-rule="evenodd" clip-rule="evenodd" d="M58 33C58 38.2617 50.436 47.7751 47.3187 51.4725C46.5096 52.4321 46 53 46 53C46 53 45.4904 52.4321 44.6813 51.4725C41.564 47.7751 34 38.2617 34 33C34 26.3726 39.3726 21 46 21C52.6274 21 58 26.3726 58 33ZM56 33C56 34.1565 55.442 35.8779 54.3467 38.0056C53.2848 40.0688 51.847 42.2725 50.3763 44.3176C48.9108 46.3555 47.4409 48.1967 46.3352 49.5306L46.2341 49.6524L46.0934 49.8214L46 49.933C45.9415 49.8631 45.8816 49.7914 45.8205 49.718C45.7695 49.6567 45.7175 49.5943 45.6648 49.5306C44.5591 48.1967 43.0892 46.3555 41.6237 44.3176C40.153 42.2725 38.7152 40.0688 37.6533 38.0056C36.558 35.8779 36 34.1565 36 33C36 27.4772 40.4772 23 46 23C51.5228 23 56 27.4772 56 33Z" fill="black"/>
<path d="M46.002 57.4001C46.8304 57.4001 47.502 56.7286 47.502 55.9001C47.502 55.0717 46.8304 54.4001 46.002 54.4001C45.1735 54.4001 44.502 55.0717 44.502 55.9001C44.502 56.7286 45.1735 57.4001 46.002 57.4001Z" fill="black"/>
<path d="M22.454 27.2897C22.454 27.9083 21.9524 28.4099 21.3337 28.4099C20.715 28.4099 20.2135 27.9083 20.2135 27.2897C20.2135 26.671 20.715 26.1694 21.3337 26.1694C21.9524 26.1694 22.454 26.671 22.454 27.2897Z" fill="black"/>
<path d="M26.2246 29.5301C26.2246 30.1488 25.723 30.6504 25.1044 30.6504C24.4857 30.6504 23.9841 30.1488 23.9841 29.5301C23.9841 28.9115 24.4857 28.4099 25.1044 28.4099C25.723 28.4099 26.2246 28.9115 26.2246 29.5301Z" fill="black"/>
<path d="M27.6549 33.6258C27.6549 34.2445 27.1533 34.7461 26.5347 34.7461C25.916 34.7461 25.4144 34.2445 25.4144 33.6258C25.4144 33.0072 25.916 32.5056 26.5347 32.5056C27.1533 32.5056 27.6549 33.0072 27.6549 33.6258Z" fill="black"/>
<path d="M25.6395 37.1365C25.6395 37.7551 25.138 38.2567 24.5193 38.2567C23.9006 38.2567 23.399 37.7551 23.399 37.1365C23.399 36.5178 23.9006 36.0162 24.5193 36.0162C25.138 36.0162 25.6395 36.5178 25.6395 37.1365Z" fill="black"/>
<path d="M21.6087 38.9568C21.6087 39.5755 21.1072 40.077 20.4885 40.077C19.8698 40.077 19.3683 39.5755 19.3683 38.9568C19.3683 38.3381 19.8698 37.8365 20.4885 37.8365C21.1072 37.8365 21.6087 38.3381 21.6087 38.9568Z" fill="black"/>
<path d="M17.2855 40.2571C17.2855 40.8758 16.784 41.3773 16.1653 41.3773C15.5466 41.3773 15.045 40.8758 15.045 40.2571C15.045 39.6384 15.5466 39.1368 16.1653 39.1368C16.784 39.1368 17.2855 39.6384 17.2855 40.2571Z" fill="black"/>
<path d="M13.2873 41.8823C13.2873 42.501 12.7858 43.0025 12.1671 43.0025C11.5484 43.0025 11.0469 42.501 11.0469 41.8823C11.0469 41.2636 11.5484 40.7621 12.1671 40.7621C12.7858 40.7621 13.2873 41.2636 13.2873 41.8823Z" fill="black"/>
<path d="M9.12656 48.9685C9.12656 49.5872 8.62502 50.0887 8.00634 50.0887C7.38765 50.0887 6.88611 49.5872 6.88611 48.9685C6.88611 48.3498 7.38765 47.8483 8.00634 47.8483C8.62502 47.8483 9.12656 48.3498 9.12656 48.9685Z" fill="black"/>
<path d="M10.7518 52.8367C10.7518 53.4553 10.2503 53.9569 9.63158 53.9569C9.0129 53.9569 8.51135 53.4553 8.51135 52.8367C8.51135 52.218 9.0129 51.7164 9.63158 51.7164C10.2503 51.7164 10.7518 52.218 10.7518 52.8367Z" fill="black"/>
<path d="M14.1975 55.0771C14.1975 55.6958 13.6959 56.1974 13.0773 56.1974C12.4586 56.1974 11.957 55.6958 11.957 55.0771C11.957 54.4585 12.4586 53.9569 13.0773 53.9569C13.6959 53.9569 14.1975 54.4585 14.1975 55.0771Z" fill="black"/>
<path d="M18.4057 55.9548C18.4057 56.5735 17.9042 57.0751 17.2855 57.0751C16.6668 57.0751 16.1653 56.5735 16.1653 55.9548C16.1653 55.3361 16.6668 54.8346 17.2855 54.8346C17.9042 54.8346 18.4057 55.3361 18.4057 55.9548Z" fill="black"/>
<path d="M22.4039 56.5367C22.4039 57.1554 21.9024 57.657 21.2837 57.657C20.665 57.657 20.1635 57.1554 20.1635 56.5367C20.1635 55.918 20.665 55.4165 21.2837 55.4165C21.9024 55.4165 22.4039 55.918 22.4039 56.5367Z" fill="black"/>
<path d="M26.5346 56.5367C26.5346 57.1554 26.0331 57.657 25.4144 57.657C24.7957 57.657 24.2942 57.1554 24.2942 56.5367C24.2942 55.918 24.7957 55.4165 25.4144 55.4165C26.0331 55.4165 26.5346 55.918 26.5346 56.5367Z" fill="black"/>
<path d="M30.8254 56.5367C30.8254 57.1554 30.3239 57.657 29.7052 57.657C29.0865 57.657 28.585 57.1554 28.585 56.5367C28.585 55.918 29.0865 55.4165 29.7052 55.4165C30.3239 55.4165 30.8254 55.918 30.8254 56.5367Z" fill="black"/>
<path d="M35.0511 56.5367C35.0511 57.1554 34.5496 57.657 33.9309 57.657C33.3122 57.657 32.8107 57.1554 32.8107 56.5367C32.8107 55.918 33.3122 55.4165 33.9309 55.4165C34.5496 55.4165 35.0511 55.918 35.0511 56.5367Z" fill="black"/>
<path d="M39.2766 56.2117C39.2766 56.8303 38.775 57.3319 38.1564 57.3319C37.5377 57.3319 37.0361 56.8303 37.0361 56.2117C37.0361 55.593 37.5377 55.0914 38.1564 55.0914C38.775 55.0914 39.2766 55.593 39.2766 56.2117Z" fill="black"/>
<path d="M43.2423 56.0166C43.2423 56.6353 42.7407 57.1368 42.1221 57.1368C41.5034 57.1368 41.0018 56.6353 41.0018 56.0166C41.0018 55.3979 41.5034 54.8964 42.1221 54.8964C42.7407 54.8964 43.2423 55.3979 43.2423 56.0166Z" fill="black"/>
<path d="M10.2468 44.702C10.2468 45.3207 9.74525 45.8222 9.12656 45.8222C8.50788 45.8222 8.00634 45.3207 8.00634 44.702C8.00634 44.0833 8.50788 43.5817 9.12656 43.5817C9.74525 43.5817 10.2468 44.0833 10.2468 44.702Z" fill="black"/>
<path d="M18.5314 26.7935C18.5314 27.4122 18.0299 27.9137 17.4112 27.9137C16.7925 27.9137 16.291 27.4122 16.291 26.7935C16.291 26.1748 16.7925 25.6733 17.4112 25.6733C18.0299 25.6733 18.5314 26.1748 18.5314 26.7935Z" fill="black"/>
<path d="M14.4007 26.471C14.4007 27.2097 13.8019 27.8085 13.0631 27.8085C12.3244 27.8085 11.7256 27.2097 11.7256 26.471C11.7256 25.7323 12.3244 25.1334 13.0631 25.1334C13.8019 25.1334 14.4007 25.7323 14.4007 26.471Z" fill="black"/>
</svg>
