<svg width="65" height="64" viewBox="0 0 65 64" fill="none" xmlns="http://www.w3.org/2000/svg">
<path d="M39.0603 32.4868C39.6126 32.4868 40.0603 32.9345 40.0603 33.4868C40.0603 36.0839 37.9549 38.1893 35.3578 38.1893H31.5989L32.5303 38.9979C32.9473 39.36 32.9473 39.947 32.5303 40.3091C32.1132 40.6711 31.437 40.6711 31.02 40.3091L28.3334 37.9766C27.8329 37.5422 27.8329 36.8377 28.3334 36.4032L31.02 34.0708C31.437 33.7088 32.1132 33.7088 32.5303 34.0708C32.9473 34.4329 32.9473 35.0199 32.5303 35.382L31.6003 36.1893H35.3578C36.8504 36.1893 38.0603 34.9794 38.0603 33.4868C38.0603 32.9345 38.508 32.4868 39.0603 32.4868Z" fill="black"/>
<path d="M27.467 34.4868C26.9147 34.4868 26.467 34.0391 26.467 33.4868C26.467 30.8897 28.5724 28.7843 31.1695 28.7843L34.8933 28.7843L33.9619 27.9757C33.5449 27.6137 33.5449 27.0266 33.9619 26.6646C34.379 26.3025 35.0551 26.3025 35.4722 26.6646L38.1588 28.997C38.6592 29.4315 38.6592 30.1359 38.1588 30.5704L35.4722 32.9028C35.0551 33.2649 34.379 33.2649 33.9619 32.9028C33.5449 32.5407 33.5449 31.9537 33.9619 31.5917L34.8919 30.7843H31.1695C29.677 30.7843 28.467 31.9943 28.467 33.4868C28.467 34.0391 28.0193 34.4868 27.467 34.4868Z" fill="black"/>
<path fill-rule="evenodd" clip-rule="evenodd" d="M14.6113 15.748C14.6113 15.1958 15.059 14.748 15.6113 14.748H47.5404C48.0927 14.748 48.5404 15.1958 48.5404 15.748V21.5109C48.5404 22.0632 48.0927 22.5109 47.5404 22.5109H45.8042V49.1339C45.8042 49.6861 45.3564 50.1339 44.8042 50.1339H21.3482C21.3075 50.1339 21.2674 50.1314 21.2281 50.1267C21.1352 50.1315 21.0418 50.1339 20.9478 50.1339C17.9671 50.1339 15.5508 47.7175 15.5508 44.7369C15.5508 41.9588 17.6497 39.6711 20.3482 39.3728V28.7494L17.8543 27.3349C17.5411 27.1573 17.3476 26.825 17.3477 26.465L17.3481 22.5109H15.6113C15.059 22.5109 14.6113 22.0632 14.6113 21.5109V15.748ZM22.3482 39.5233C24.6499 40.14 26.3448 42.2405 26.3448 44.7369C26.3448 46.0242 25.8941 47.2063 25.1418 48.1339H43.8042V22.5109H19.3481L19.3477 25.8827L21.8415 27.2971C22.1547 27.4747 22.3482 27.807 22.3482 28.167V39.5233ZM16.6113 16.748V20.5109H46.5404V16.748H16.6113ZM17.5508 44.7369C17.5508 42.8607 19.0717 41.3398 20.9478 41.3398C22.8239 41.3398 24.3448 42.8607 24.3448 44.7369C24.3448 46.613 22.8239 48.1339 20.9478 48.1339C19.0717 48.1339 17.5508 46.613 17.5508 44.7369Z" fill="black"/>
</svg>
