<svg width="64" height="64" viewBox="0 0 64 64" fill="none" xmlns="http://www.w3.org/2000/svg">
<path fill-rule="evenodd" clip-rule="evenodd" d="M28.5 29.5C28.5 29.2239 28.2761 29 28 29H25C24.7239 29 24.5 29.2239 24.5 29.5V31H20.5C19.9477 31 19.5 31.4477 19.5 32V35C19.5 35.3829 19.7151 35.7155 20.0311 35.8835L20.1606 40.5072C19.9047 40.3201 19.6242 40.1572 19.3256 40.0544L18.0002 39.5985V41C18.0002 42.6648 17.7609 43.5137 17.5864 43.9064C17.515 44.067 17.4563 44.1474 17.4319 44.1771C17.0278 44.4553 16.8801 44.9959 17.1058 45.4473C17.3528 45.9412 17.9535 46.1415 18.4474 45.8945L18.0002 45C18.4474 45.8945 18.4499 45.8932 18.4499 45.8932L18.4524 45.892L18.4574 45.8894L18.4677 45.8841L18.4893 45.8723C18.5042 45.8641 18.5199 45.8549 18.5363 45.8447C18.5693 45.8244 18.6051 45.8003 18.6432 45.7717C18.7196 45.7144 18.8037 45.6404 18.8913 45.5455C19.0671 45.3551 19.2496 45.0886 19.414 44.7187C19.6004 44.2994 19.7655 43.7428 19.8726 42.9991C19.9757 43.1205 20.0791 43.2479 20.1819 43.3793C20.7569 44.1149 21.2547 44.9026 21.5265 45.3325L21.5463 45.364C21.8522 45.8478 22.4127 45.936 22.8126 45.7799C23.195 45.6306 23.5195 45.2313 23.4793 44.7169C23.3338 42.8567 23.7429 41.7657 24.2904 41.1197C24.615 40.7368 25.0346 40.4552 25.5307 40.2646C25.5257 40.7376 25.5458 41.2692 25.6407 41.8008C25.8565 43.0091 26.4382 44.3126 27.783 45.6968C28.1678 46.093 28.8009 46.1021 29.197 45.7173C29.587 45.3384 29.6019 44.7189 29.235 44.3218C29.5825 44.0134 29.867 43.6656 30.0859 43.2499C30.2112 43.012 30.3085 42.7638 30.3852 42.5051C30.8576 42.7795 31.25 43.0601 31.5915 43.368C32.1736 43.8928 32.649 44.5346 33.1054 45.4474C33.3524 45.9414 33.953 46.1416 34.447 45.8946C34.941 45.6476 35.1412 45.0469 34.8942 44.5529C34.3506 43.4658 33.735 42.6077 32.9308 41.8826C32.7518 41.7212 32.5655 41.5683 32.3714 41.4223L32.4767 36H32.5C33.0523 36 33.5 35.5523 33.5 35V32C33.5 31.4477 33.0523 31 32.5 31H28.5V29.5ZM30.3987 40.2536L30.4761 36H22.0366L22.169 40.7086C22.3391 40.3879 22.538 40.094 22.7647 39.8265C23.7492 38.665 25.1237 38.1588 26.4581 38.0065L27.5715 37.8794V39C27.5715 39.2918 27.5596 39.5548 27.5482 39.806C27.5234 40.3518 27.5011 40.8419 27.6095 41.4492C27.6778 41.8312 27.8021 42.2491 28.0342 42.7047C28.1596 42.5744 28.2478 42.4479 28.3163 42.3179C28.4718 42.0226 28.5762 41.6144 28.6403 40.9098L28.7682 39.5024L30.0528 40.0912C30.1702 40.145 30.2854 40.1991 30.3987 40.2536ZM21.5 33V34H31.5V33H21.5Z" fill="#212121"/>
<path fill-rule="evenodd" clip-rule="evenodd" d="M16.1135 15C15.5612 15 15.1135 15.4477 15.1135 16V22.395C15.1135 22.4648 15.1062 22.5344 15.0917 22.6027L8.25656 54.7923C8.12448 55.4143 8.59887 56 9.23475 56H43.7331C43.7927 56 43.8508 55.9949 43.9071 55.9851C43.9634 55.9949 44.0211 56 44.0798 56H53.9999C54.5522 56 54.9999 55.5523 54.9999 55V36C54.9999 35.4477 54.5522 35 53.9999 35H50V23C50 22.4477 49.5523 22 49 22H44C43.4477 22 43 22.4477 43 23V35H39.9836L37.025 22.6146C37.0068 22.5384 36.9976 22.4605 36.9976 22.3822V16C36.9976 15.4477 36.5499 15 35.9976 15H16.1135ZM17.1135 17V22.395C17.1135 22.6044 17.0915 22.8133 17.048 23.0181L10.4694 54H42.4661L35.0797 23.0792C35.0252 22.8509 34.9976 22.617 34.9976 22.3822V17H17.1135ZM45 35H48V24H45V35ZM40.5675 37L44.8587 54H52.9999V37H40.5675Z" fill="#212121"/>
<path d="M53.6585 3.5063L50.2215 9.4434C49.797 10.1766 50.3259 11.0945 51.1734 11.0945H52.9369L52.2291 14.4799C51.9532 15.7996 53.7275 16.5011 54.4286 15.3496L58.0517 9.39975C58.498 8.66671 57.9704 7.72765 57.1121 7.72765H55.2424L55.8767 4.32758C56.124 3.00195 54.3342 2.33923 53.6585 3.5063ZM52.7204 14.3095C52.7205 14.3093 52.7206 14.3091 52.7207 14.3089L52.7204 14.3095Z" stroke="#212121" stroke-width="2"/>
</svg>
